<?xml version="1.0" encoding="utf-8"?>
<!-- Generator: Adobe Illustrator 20.1.0, SVG Export Plug-In . SVG Version: 6.00 Build 0)  -->
<svg version="1.1" id="Layer_1" xmlns="http://www.w3.org/2000/svg" xmlns:xlink="http://www.w3.org/1999/xlink" x="0px" y="0px"
	 viewBox="0 0 596 605" style="enable-background:new 0 0 596 605;" xml:space="preserve">
<style type="text/css">
	.st0{fill:#671D43;}
	.st1{fill:#EC218B;}
	.st2{fill:none;stroke:#EC218B;stroke-linecap:round;stroke-miterlimit:10;}
	.st3{fill:none;stroke:#EC218B;stroke-miterlimit:10;}
	.st4{fill:none;stroke:#EC218B;stroke-width:2;stroke-linecap:round;stroke-miterlimit:10;}
	.st5{fill:none;stroke:#EC218B;stroke-width:0.5;stroke-linecap:round;stroke-miterlimit:10;}
	.st6{fill:none;stroke:#EC218B;stroke-width:0.75;stroke-miterlimit:10;}
	.st7{fill:none;stroke:#EC218B;stroke-width:0.5;stroke-miterlimit:10;}
	.st8{fill:none;stroke:#D5ECDF;stroke-miterlimit:10;}
	.st9{fill:none;}
	.st10{fill:none;stroke:#EC218B;stroke-width:0.75;stroke-linecap:round;stroke-miterlimit:10;}
</style>
<rect class="st0" width="595.9" height="605"/>
<g>
	<circle class="st1" cx="104" cy="136.5" r="1"/>
	<circle class="st1" cx="102.9" cy="131.2" r="1"/>
	<circle class="st1" cx="104.2" cy="126.6" r="1"/>
	<path class="st1" d="M459.3,141.2c0,0-0.3,0.1-1-0.9c-0.9-0.9-1-1.9-0.6-2.9s1.1-1.6,2.4-1.9c1.7-0.3,3.4-0.1,6.3,1s9.9,4.6,12,5.6
		s5.1,2.3,6.3,2.6c1.1,0.3,6.4,2.4,7.3,2.7s-6.6-2.1-7.4-2.3c-0.7-0.1-8.4-0.7-9.9-0.6c-1.4,0.1-6.6,0.9-7.9,1.1
		c-1.3,0.3-4.1,0.6-5.1,0.4c-1.1-0.1-2.4-0.6-3.3-1.3c-0.4-0.4-1-2-0.4-2.9C458.5,141.5,459.3,141.2,459.3,141.2z"/>
	<circle class="st1" cx="454.8" cy="140.8" r="1.4"/>
	<circle class="st1" cx="448.4" cy="140.3" r="1.4"/>
	<circle class="st1" cx="442.2" cy="139.5" r="1.1"/>
	<circle class="st1" cx="437.4" cy="139" r="1.1"/>
	<circle class="st1" cx="432.7" cy="138.6" r="1.1"/>
	<circle class="st1" cx="427.9" cy="138.5" r="1"/>
	<circle class="st1" cx="422.8" cy="138.2" r="0.7"/>
	<path class="st1" d="M420.8,138.2c0,0-17.4,0-19.6,0.1c-2.1,0.1-15.4,1.1-18.9,1.7c-3.4,0.6-13,1.6-14,1.9c-1,0.3-2.1,0.4-2.9,0.4
		s16.4-1.9,17-1.9s18.4-1.7,18.7-1.7C401.5,138.9,420.8,138.2,420.8,138.2z"/>
	<path class="st1" d="M424.9,124.9c-0.1,0-0.3,0-0.3,0c0-0.1,0-0.3,0.1-0.3c0.7,0,0.9,0.4,0.9,0.6s-0.1,0.7-0.7,0.9
		c-0.3,0-0.6,0-0.7-0.1s-0.4-0.4-0.4-0.9s0.1-0.9,0.6-1.1c0.4-0.3,1-0.4,1.6-0.1c0.7,0.3,4.3,1.6,4.9,1.7c0.7,0.3,6.7,2,7.7,2.1
		c0.9,0.1,4,1,5.1,1c0.6,0,2.9,0.3,3.3,0.3s7.4,0.9,8.4,1c1.1,0.1,3.1,0.6,3.9,0.7c0.6,0.1,4.9,1,5,1c0.3,0.1-0.7-0.1-1.1-0.1
		s-6.3-1.1-7.7-1.3c-1.3-0.1-8.2-0.9-8.6-1c-0.4,0-3.7,0-4.6,0c-0.4,0-4.1,0.3-4.4,0.3c-0.4,0-5.3,0.6-6,0.6
		c-0.6,0.1-2.4,0.4-3.4,0.6c-0.7,0.1-3.6,0.7-3.9-0.3c-0.1-0.1,0-0.6,0-0.9c0.1-0.3,0.9-0.4,1.1-0.1c0.1,0.1,0.3,0.4,0.1,0.6
		c0,0.1-0.1,0.3-0.3,0.3c-0.3,0.1-0.7-0.3-0.4-0.4c0.3-0.1,0.1,0.1,0.3,0.1c0.4,0,0.3-0.4,0-0.6c-0.6-0.1-0.7,0.3-0.7,0.4
		c0,0.3,0.4,0.6,0.9,0.6c0.3,0,0.7-0.1,1.1-0.3c0.6-0.3,1.1-0.4,1.6-0.9c0.3-0.3,0.3-0.4,0.3-0.4s-1.7-0.3-2.4-0.3
		c-1,0-3.9,0.4-4,0.6c-0.3,0.1-2.3,0.7-2.3,0.7s0-0.1,0.3-0.3c0.3-0.3,2.4-1.4,2.4-1.7s-1.7-1.3-2.1-1.9c-0.3-0.3-0.9-0.7-0.7-0.9
		c0,0,1,0.4,1.3,0.6c0.3,0.1,1.6,0.7,1.9,0.7c0.4,0.1,1.4,0.6,1.7,0.6c0.7,0.1,4.1,0.1,4.1,0.1s0-0.3-0.3-0.9
		c-0.3-0.7-1.3-2.3-3.6-2.6c-0.3,0-0.9,0.3-1,0.6c-0.1,0.6,0.1,0.9,0.3,1c0.3,0.1,0.4,0.1,0.6,0
		C424.9,125.1,425.1,125.1,424.9,124.9C425.2,124.9,425.1,124.9,424.9,124.9z"/>
	<path class="st1" d="M420.2,127.9c-0.6,0-1.7,0.1-2.1,0.1c-1,0.1-3.4,0.9-3.9,1s-3.3,1.1-3.3,1.1s0.7-0.9,0.9-1.1
		c0.6-0.4,2.6-1.6,2.3-1.6c-0.9-0.3-1.7-0.6-2.6-1c-0.7-0.4-1.1-1.7-1-1.7c0,0,1.1,0.7,2,1c1.4,0.6,3.9,1.1,4.1,1.1
		c0.7,0.1,2.3,0.4,3.3,0.6c1.3,0.3,3.1,0.1,3.3,0.3C423.5,127.9,421.2,127.9,420.2,127.9z"/>
	<path class="st1" d="M412.2,127.5c-0.4,0-1.3-0.1-1.7-0.1c-0.9-0.1-2.7-1-3.1-1.1s-2.6-1.3-2.6-1.3s0.6,1,0.7,1.3
		c0.4,0.4,2.1,1.7,1.9,1.7c-0.6,0.3-1.4,0.6-2.1,1.1c-0.6,0.6-0.9,1.9-0.9,2c0,0,1-0.7,1.6-1.1c1.1-0.7,3.1-1.3,3.4-1.3
		c0.6-0.1,1.9-0.4,2.7-0.7c1.1-0.3,2.6-0.1,2.6-0.3C414.8,127.5,412.9,127.5,412.2,127.5z"/>
	<circle class="st1" cx="424.8" cy="124.7" r="1.1"/>
	<circle class="st1" cx="425.4" cy="129.7" r="1"/>
	<circle class="st1" cx="366.7" cy="135.5" r="1.6"/>
	<circle class="st1" cx="350.9" cy="139.5" r="1.4"/>
	<path class="st1" d="M354.3,138.2c0,0,1.7-0.6,2.4-1.1c0.7-0.6,1.9-2.1,1.9-2.1s0.6,0.4,1.4,0.7c0.9,0.3,3.4,0.4,3.4,0.4
		s-1.7,0.4-2.4,1c-0.7,0.6-1.6,1.7-1.6,1.7s-1-0.4-2-0.6C356.6,138.2,354.3,138.2,354.3,138.2z"/>
	<polygon class="st1" points="347.6,139.6 348.3,140.3 317.3,150.2 	"/>
	<path class="st1" d="M406.2,127.9l0.3-0.1l-0.6-0.3c0,0-15.6,1.7-18.2,2.1c-2.4,0.4-18.7,4.9-18.7,4.9v0.6c0,0,17.7-4.9,19.4-5.1
		C390.3,129.5,406.2,127.9,406.2,127.9z"/>
	<path class="st1" d="M390.5,119.7c0.7-0.1,0.6-0.1,0.9-0.4c1-0.7,0.7-1.6,0.7-1.6l15.6,1.7l-0.4,0.4c0,0-5.6,0.1-7.3,0.7
		c-1.7,0.6-5.6,3-6,3.4c-0.3,0.3-0.6-0.1-1.6-0.4c-0.9-0.4-1.6-0.1-1.6-0.1s2.3-1.3,3-1.7c0.9-0.6,3.1-1.7,3.1-1.7s-1.7,0.3-2.7,0
		C393.2,119.9,390.5,119.7,390.5,119.7z"/>
	<path class="st1" d="M387.6,120.2c-0.6-0.1-0.9,0.4-0.7,1.7c0.1,1,0.9,1.3,1,1.4c0.4,0.1,1.4-1,2-1.3c0.7-0.4,2.7-0.9,2.9-0.9
		c0.1,0,0.6-0.3,0.6-0.3s-2.4,0-3.4-0.1C389,120.7,388,120.3,387.6,120.2z"/>
	<path class="st1" d="M386.3,121.9l-0.4,0.6c0,0-1.1,0.6-2.1,1.1c-1,0.4-2.7,1-3.3,0.6c-0.3-0.1-0.7-0.7-0.4-1
		c0.3-0.6,1.7-1,2.6-1.1C383.6,121.9,386.3,121.9,386.3,121.9z"/>
	<ellipse transform="matrix(0.9589 -0.2837 0.2837 0.9589 -19.9892 111.9774)" class="st1" cx="376.6" cy="125" rx="2.6" ry="0.7"/>
	<ellipse transform="matrix(0.957 -0.2902 0.2902 0.957 -20.9064 113.0129)" class="st1" cx="370.6" cy="127" rx="2.7" ry="0.6"/>
	<ellipse transform="matrix(0.969 -0.2471 0.2471 0.969 -20.5021 94.2356)" class="st1" cx="365.2" cy="128.8" rx="2.3" ry="0.6"/>
	<path class="st1" d="M360.9,130.2c0,0,1.6-0.6,1.7-0.3s-0.3,0.3-1.1,0.7c-1,0.4-29.7,11.6-30.5,11.7c-0.7,0.3-11.6,4.3-11.6,4.3
		l1-1.1c0,0,20.4-7.4,21.5-7.9C343,137.3,360.9,130.2,360.9,130.2z"/>
	<path class="st1" d="M342.4,133.9l37.3-17.4l0.3-0.9l-2.6,1.3c0,0-1.7,0.9-3.3,1.4c-1.3,0.4-7.9,0.1-8.3,0.1c-0.6,0-3-0.4-4.3,0.6
		c-1.1,0.9-1.4,2.9-0.9,3.7c0.6,0.7,1.4,1,2.4,0.7c0.9-0.3,1.7-1.9,2-2.1c0.4-0.4,0.4,0.6,0.1,1.1c-0.3,0.4-0.3,0.7-0.6,1
		c-0.1,0-3.6,1.7-4.3,1.9c-0.4,0.1-0.9-0.1-1.4-0.6c-0.4-0.3-0.6-0.9-0.6-1.4c0-0.9-0.4,0.1-0.4,0.4s-0.3,1-0.1,1.7
		c0.1,0.4,0.6,0.9,0.6,0.9s-0.3,0.6-1.6,0.4c-1.3-0.1-1.7-0.1-2.4-0.3c-0.6-0.1-0.6,0.1-0.4,0.3c0,0.3,0.1,0.9,0,1.1
		c-0.3,1.1-1.6,1.3-2,1.3s-0.6-0.3-1.3-0.6c-0.6-0.3-1.3-0.1-1.4-0.1c-0.1,0.1,0,0,0.1,0.4s0.4,0.9,0.3,1.3
		c-0.1,0.3-0.6,0.6-0.9,0.7c-0.1,0.1-2.6,1.3-3.7,1.6c-1,0.3-2.1,0.3-3,0c-0.7-0.3-0.9,0-0.4,0.3c0.3,0.3,0.4,0.3,0.6,0.7
		C342.4,133.6,342.4,133.9,342.4,133.9z"/>
	<path class="st2" d="M242.9,158.2c33.7,4.9,72.8-14.2,76.8-15.6c6.7-2.6,21.9-8.3,24.6-9.4c2.1-0.9,35.5-16.7,35.5-16.7"/>
	<path class="st1" d="M341.9,125.3c-0.1-0.3-0.3-1.1,0.1-2c0.4-0.7,1.7-1.9,4.1-2.1c2.7-0.4,5.7-1.3,6.9-1.7c1-0.4,7.6-3.4,8.3-3.9
		c0.9-0.4,2.1-0.9,3-0.9s1.7,0.3,2,0.7c0.3,0.4,0.3,1.3-0.1,1.4c-1,0.6-1.1,0.4-1.3,0.1c-0.3-0.4,0.9-0.4,1-0.7
		c0.1-0.4-0.1-0.6-0.6-0.7c-0.6-0.3-2.3-0.1-3.3,0.3c-0.9,0.4-5.4,2.6-6.4,3.1c-1,0.6-4.6,2.9-5.6,3.9c-0.9,0.9-2.3,3.7-4.1,4.1
		c-1.3,0.3-2.4,0-3.1-0.6C342.3,126.2,342.1,125.7,341.9,125.3z"/>
	<ellipse class="st1" cx="365.3" cy="116.9" rx="0.6" ry="0.6"/>
	<ellipse class="st1" cx="340.1" cy="127.3" rx="2" ry="1.7"/>
	<ellipse class="st1" cx="336.7" cy="129.2" rx="1.3" ry="1.1"/>
	<ellipse class="st1" cx="333.7" cy="130.3" rx="0.7" ry="0.7"/>
	<circle class="st1" cx="331" cy="131.8" r="0.9"/>
	<circle class="st1" cx="328.3" cy="132.9" r="0.9"/>
	<ellipse transform="matrix(0.2129 -0.9771 0.9771 0.2129 125.3416 424.2496)" class="st1" cx="326" cy="134.3" rx="0.9" ry="0.9"/>
	<circle class="st1" cx="323.3" cy="135.6" r="0.9"/>
	<ellipse transform="matrix(0.6077 -0.7941 0.7941 0.6077 17.3688 308.5064)" class="st1" cx="321" cy="136.7" rx="0.6" ry="0.6"/>
	
		<ellipse transform="matrix(0.1292 -0.9916 0.9916 0.1292 140.8837 436.1996)" class="st1" cx="318.8" cy="137.9" rx="0.6" ry="0.6"/>
	<path class="st2" d="M242.9,158.2c6.7,0.3,13.2,0.9,19.4-0.1c30.2-5.3,50.2-18.2,55.1-19.6"/>
	<circle class="st1" cx="313.8" cy="137.8" r="0.3"/>
	<circle class="st1" cx="315.7" cy="141.6" r="0.3"/>
	<path class="st1" d="M317.4,138.8c-0.1,0.3-1.6,2.7-1.6,2.7s0.3-0.1,0.4,0.1c0.6,0.9-0.4,1.6-1.1,1.3s-0.6-1-0.4-1.3
		c0.1-0.4,0.7-0.7,1.4-0.7s1.4,0,1.6-0.1c0.3-0.1,0.3-0.6,0.1-0.7c-0.1-0.1-0.6-0.1-1.1-0.1c-0.4,0-1.3,0-2.6,1.1
		c-0.4,0.4-2.4,3.4-4.6,2.7c-0.4-0.1-0.7-0.4-1-0.9l-0.1-0.4c-0.1-0.4-0.1-1,0-1.4c0.7-2,4.4-1.7,5-1.9c1.7-0.3,2.3-1,2.6-1.3
		c0.4-0.4,0.7-0.9,0.6-1c0-0.1-0.3-0.4-0.6-0.3c-0.3,0.1-0.7,0.6-1.1,1.1c-0.4,0.6-1.1,0.9-1.4,0.7c-0.4-0.1-1-0.4-0.9-1.1
		s1.4-1,1.7-0.1c0.1,0.3-0.1,0.4-0.1,0.4s2.9,0.4,3.1,0.4C317.4,138.3,317.5,138.6,317.4,138.8z"/>
	<path class="st1" d="M310.8,136.9c0,0,4.9-3.7,6.6-5.1c1.7-1.6,5-5.9,5-6.7c0.1-1.1,0.4-1,1-0.4s1,1.3,1.1,1.7
		c0.1,0.3,0.3,0.6,0.7-0.4s1.3-1.7,2-2.1c0.6-0.4,2-0.7,2.9-0.7c0.7,0,1.7,0,2.4,0.1s0.9-0.4,1.1-0.9c0.4-0.4,1.3-0.9,1.9-0.9
		s0.9,0,1.3-0.1s0.6-0.7,0.9-1.1c0.4-0.4,1-0.3,1.4-0.3c0.6,0,0.7,0,1.3-0.1c0.6-0.3,0.4-0.6,0.9-0.9s1.1-0.1,1.4-0.1
		s1.9-1.1,2.6-1.6c1.1-0.7,1.6-1.3,2.7-1.6c1.3-0.1,1.7,0.4,1.9,0.7c0.1,0.3-0.3,0-0.9-0.1c-0.7-0.3-1.7,0.3-2.1,0.6
		c-0.3,0.1-8.9,5.6-17.7,10.6C320,132.2,310.8,136.9,310.8,136.9z"/>
	<ellipse class="st1" cx="349.4" cy="116.4" rx="0.6" ry="0.6"/>
	<path class="st2" d="M242.9,158.2c0,0,11.3,0.4,16.9-0.1c8-0.9,22.7-7.7,26.2-9.3c3.6-1.6,23.6-10.3,27.5-13.6"/>
	<path class="st1" d="M305.5,132c0,0,0,0,0.1-0.1c0.6-0.4,2.9-2.1,3.3-3.4c0.4-1.4,0.7-2.3,0.4-2.7c-0.4-0.4-0.6-0.6-1-0.7
		c-0.3-0.1-0.3-0.6,0.1-0.6s0.6-0.1,1-0.1c0.3-0.1,1-0.1,1.4,0c0.6,0.1,1,0.3,1,1c0,0.6,0.1,0.9,0.6,0.4c0.4-0.4,1-1,1.1-1.3
		s0-0.6-0.4-0.3c-0.4,0.3-0.1,0.6-0.6,0.7c-0.4,0-0.7-0.1-1-0.6c-0.3-0.4-0.4-1.1-0.1-1.7c0.1-0.6,1-1.4,2-1.7
		c1.4-0.4,3.9-1.1,5.1-1.4c1.4-0.1,1.6-0.3,3.1-1c1.4-0.7,9.4-3.6,11.3-3.9c1-0.1,2.4-0.4,3.4,0c1.6,0.6,1.7,1.7,1.7,2.3
		s-0.3,1.4-0.9,1.9s-2.3,1-3,0.1c-0.7-1-0.4-1.9,0-2.3c0.3-0.4,1.1-0.6,1.7-0.4c0.7,0.1,1,1,0.7,1.4c-0.3,0.3-0.6,0-0.6-0.3
		s0-0.7-0.6-0.7s-0.9,0.3-1,0.7c-0.1,0.4,0.1,1.1,0.4,1.3c0.4,0.3,1,0.1,1.4-0.1c0.6-0.3,1-0.7,1-1.4c0.1-0.6-0.1-1.6-0.9-1.9
		c-0.7-0.3-1.3-0.3-1.9-0.3c-3.9,0.3-14.2,5.1-16.3,6.7C317.1,123,305.5,132,305.5,132z"/>
	<circle class="st1" cx="336.3" cy="117.3" r="0.7"/>
	<path class="st2" d="M309.4,128.9c-12.3,9.7-12.3,9.7-14.7,11.7c-0.7,0.6-7.3,5.1-14.9,8.7c-9.6,4.6-15.6,7.3-24,8.3
		c-4.7,0.6-12.2,0.4-12.9,0.4"/>
	<circle class="st1" cx="313.7" cy="118.5" r="0.3"/>
	<path class="st1" d="M307.7,118.3c1.3-1.7,3.4-2.3,5.4-2c0.6,0.1,1.7,0.6,2,1.3c0.3,0.6,0.3,1.6,0,2c-0.4,0.6-1.6,0.9-2.3,0.4
		c-0.4-0.3-0.6-0.9-0.4-1.3c0.1-0.4,0.4-0.9,0.7-1c0.4-0.1,0.7-0.1,0.9,0c0.3,0.1,0.3,0.4,0.3,0.7c0,0.4-0.4,0.4-0.6,0.4
		c0,0,0.3-0.3,0.3-0.6c0-0.1-0.1-0.1-0.3-0.3c-0.4-0.1-1.3,1-0.4,1.6c0.7,0.4,1.7,0,1.7-1c0-0.7-0.6-1.6-1.6-1.7
		c-0.4-0.1-3-0.1-4.4,2c-0.3,0.4-1,1.6-1.4,2.1c-0.1,0.1-0.1,0.3,0,0.3s0.4,0,0.7,0.1c0.4,0.3,0.7,1.1,0.6,1.6
		c-0.1,0.3-0.4,0.9-0.6,1.1c-0.1,0.1-0.3,0.3-0.4,0.3s0-0.1,0-0.4s0-1-0.6-1c-0.3,0-1.1,0-1.1,0.6c0,0.4-0.1,2.3-1.6,2.9
		c-0.6,0.3-1.6,0.3-2.1-0.1l0,0c-0.6-0.6-0.7-1.6-0.6-2.1c0.4-1.4,2.1-1.9,2.6-2c0.6-0.1,0.4-0.9,0.3-1.3s-0.9-0.4-1.1-0.3
		c-0.3,0.1-0.3,0.3-0.4,0.1c0-0.1,0-0.3,0.1-0.4c0.1-0.3,0.7-0.6,1-0.9c0.4-0.3,1.3-0.1,1.7,0.1c0.1,0.1,0.3,0.4,0.3,0.6
		c0,0.1,0.1,0.1,0.3,0C306.7,119.7,307.4,118.7,307.7,118.3z"/>
	<circle class="st1" cx="300.8" cy="128" r="1.1"/>
	<circle class="st1" cx="299.1" cy="130" r="0.7"/>
	<path class="st2" d="M296.2,129.2c0,0-0.6,0.3-0.3,0.7c0.3,0.3,0.6,0.1,1,0c0.6-0.3,0.7-1,0.6-1.3c-0.1-0.4-0.9-1-1.9-0.7
		c-0.7,0.3-1.9,0.9-2.4,3.3c-0.3,1.6-2.3,4.3-3.6,4.7"/>
	<ellipse class="st1" cx="296.2" cy="129.6" rx="0.6" ry="0.7"/>
	<path class="st2" d="M301.5,130.6c0,0-0.6-0.3-0.4-0.7c0.1-0.6,0.6-0.7,1-0.7c0.6,0.1,0.9,0.9,0.7,1.4c-0.1,0.6-0.6,1.4-2.7,2.3
		c-1,0.4-1.9,0.9-2.4,1.4c-0.3,0.3-0.6,1-1.1,1.6c-0.4,0.4-9.7,8.2-13.6,9.6"/>
	<path class="st3" d="M297.2,135.2c0,0,0.6-0.1,0.9-0.6c1.4-1.4,2.1-0.9,2.4-0.6c0.3,0.4,0,1-0.7,1"/>
	<ellipse class="st1" cx="300" cy="134.9" rx="0.6" ry="0.6"/>
	<ellipse class="st1" cx="301.5" cy="130.2" rx="0.7" ry="0.7"/>
	<path class="st4" d="M299,130.3c0,0-7.7,6.9-9.3,8.3c-0.9,0.7-6.9,5-8.9,6.4c-3.3,2.3-12,6.7-13.3,7"/>
	<path class="st1" d="M277.8,144.8c0,0,6.9-5.1,8.6-7.4c2.3-3,4.1-5.6,6.4-8.4c2-2.6,2.7-3.4,4-4.9c1.3-1.3,5.7-5.1,7.6-6.3
		c1.7-1,4.9-2.1,7.4-2.6c2.7-0.4,6.3-0.3,7.7-0.1c1.6,0.3,2.1,0.4,2.9,0.9c0.9,0.4,0.9,0.6,0.9,0.6l-0.3-1.1c0,0-0.7-0.3-2.1-0.6
		c-1.4-0.3-5-0.9-6.7-0.7c-1.6,0-8,0.3-12.4,3.9c-1.1,1-4.7,4-6.6,5.6c-0.9,0.7-2.1,2.6-2.9,2.7c-0.7,0.3-0.7-0.3-1-1.4
		s-0.6-1.7-0.7-2.4c-0.6-1.6-0.6-1-0.6-0.4s0.3,2.4,0,3.6c-0.3,1.1-0.9,4.3-2.1,6.9c-0.9,1.7-1.9,4.1-3.3,5.7s-3.4,3.4-4.9,4.6
		c-1.4,1.1-2,1.6-2,1.6L277.8,144.8z"/>
	<path class="st5" d="M285.5,120.2c0.3-0.4,0.3-0.7,0.7-0.6c0.6,0.1,0.6,1,0.1,1.4c-0.3,0.1-0.7,0.4-1.3,0.3s-0.9-0.9-0.9-1.4
		c0.1-0.6,0.6-1.1,1.4-1.1c2.7,0,5,6.4,1.3,13.9"/>
	<path class="st3" d="M279.5,120.7c0,0,0.1-1.1,1-1.6c0.9-0.4,1.7-0.3,2.1,0c0.7,0.3,1.3,1.6,1.3,2.3c0,0.9-0.4,2-1.1,2.6
		c-0.7,0.7-2.4,1-3.4,0.6c-1.1-0.4-2.3-2-2.7-3.7c-0.4-2,0.7-3.7,1.1-4.4c0.6-0.9,2.3-2,4-2.1c1.4,0,3.1,0.4,4.1,1
		c1.7,1.1,3.3,3,3.6,4c0.7,2,1,4,0.9,5"/>
	<circle class="st1" cx="280.8" cy="120.7" r="1.6"/>
	<path class="st1" d="M284.5,124.7c0,0,0,0.1,0.1,1c0.1,1,0.4,2.4,0.3,4c0,1-0.1,3.7-0.7,5.6c-0.4,1.4-1.1,2.4-1.7,3.3
		c-0.3,0.4-0.3,0.7-0.3,0.7s0.4-0.4,1-1.3c1.1-1.4,1.7-3.4,2.1-4.3c0.4-1.3,0.7-3.3,0.9-4.4s0.1-3.4,0.1-3.7c0-0.3-0.3-0.1-0.9,0
		C285.1,125.5,284.5,124.7,284.5,124.7z"/>
	<path class="st6" d="M286.1,125.7c0,0-0.1-1.6,0.7-1.7c0.7-0.1,0.9,0.3,0.9,0.6c0,0.6-0.3,0.6-0.4,0.4"/>
	<circle class="st1" cx="287.2" cy="124.9" r="0.4"/>
	<path class="st6" d="M284.8,126.3c0,0-0.3-0.4-0.7-0.6c-0.4-0.1-0.9,0.1-1.1,0.6c-0.1,0.3-0.3,1,0.1,1.3s0.9,0.1,1-0.1
		c0.1-0.3,0-0.7-0.1-0.9"/>
	<circle class="st1" cx="283.9" cy="126.7" r="0.4"/>
	<circle class="st1" cx="285.9" cy="120.2" r="0.7"/>
	<ellipse class="st1" cx="275.5" cy="128.5" rx="0.6" ry="0.7"/>
	<path class="st5" d="M278.9,129.5c-0.6,0.1-1.4-0.1-1-1.3c0.3-0.6,1.1-0.7,1.7-0.4c0.7,0.3,1.1,1.1,1.4,2.1
		c1.3,3.9-1.4,11.3-1.4,11.3c0.3-0.3,2.9-4.9,3-8.2c0.1-2.6-1-7.3-5-7.9c-1.3-0.1-4.7,0.7-3.9,3.7c0.4,1.3,1.4,1.7,2.1,1.6
		c0.7-0.1,1.1-0.6,1.3-1.4c0.1-0.9-0.3-1.7-1-1.9c-0.4-0.1-1,0-1.3,0.4c-0.1,0.4-0.3,1.3,0.3,1.6c0.6,0.3,0.9,0,0.7-0.6"/>
	<ellipse class="st1" cx="278.7" cy="128.9" rx="0.7" ry="0.7"/>
	<circle class="st1" cx="245.9" cy="60.5" r="1.7"/>
	<circle class="st1" cx="313.8" cy="60.5" r="1.7"/>
	<circle class="st1" cx="313.8" cy="110.9" r="1.7"/>
	<path class="st1" d="M242.5,63.4"/>
	<circle class="st1" cx="264.8" cy="110.9" r="1.7"/>
	<path class="st1" d="M285.8,105.3"/>
	<path class="st1" d="M211.6,106.7c2.3-1.1,4.1-2.4,6-4.1c2.1-1.9,4-3.9,5.6-6.1c0.4-0.6,0.7-1.1,1.1-1.7c-0.4-0.3-0.7-0.6-1-0.9
		c-2.9-2.7-2-7.9,1.6-9.6c1.7-0.9,3.3-1,5.3-0.7c0.3,0,0.9,0.1,1,0.1c3.8-6.3,7.7-12.7,11.6-19.2l0,0c-3.3,0-5.7,1.3-7.3,4.1
		c-1.6-2.7-4.6-4.4-7.3-4.9v-0.3c2.3,0,32,0,36.6,0v0.3c-2.7,0.3-5.7,2-7.3,4.9c-1.6-2.7-4-4.1-7.3-4.1l0,0
		c0.6,0.9,17.7,28.2,21,33.2c1.7,2.7,3.7,5.3,6.3,7.3c1.6,1.3,3,2.1,5.3,2.1c0.3,0,0.7,0,1.1,0c0-0.3,0-3.6,0-3.7
		c1.7,2.9,3.1,3.9,5.6,4.6c0,0.1,0,0.1,0,0.3c-0.1,0-41.3,0-44.3,0c0,0-5.7,0-5.9,0c0-0.1,0-0.1,0-0.3c2.4-0.7,3.9-1.7,5.6-4.6
		c0,0.1,0,3.6,0,3.7c0.1,0,0.1,0,0.3,0c1.3,0,1.9-0.1,2.6-0.7c0.9-0.7,1.3-1.7,1.6-2.7c0.6-2.4,0.1-4.6-1.3-6.6c-0.7-1-1.3-2-2-3
		c-3.1,1.7-6.1,1.1-9.3,0c-3.3-1.1-4.9-4.1-6.6-6.7c-0.1,0.3-0.9,1.4-0.9,1.4c2.1,1.1,1.9,3.1,1.9,3.1c-0.1,1.4-0.9,2.4-2.3,3.1
		c-0.9,0.4-1.6,0.4-2.6,0.3c-0.3,0-1-0.1-1-0.1s-0.1,0.4-0.3,0.8c-0.9,1.3-1.1,2.7-0.9,4.3c0.3,2,0.9,4,2.3,5.6
		c0.7,0.9,1.6,1.3,2.7,1.3h0.3c0-0.3,0-3.7,0-3.7c1.7,2.9,3.1,3.9,5.6,4.6c0,0.1,0,0.1,0,0.3c0,0-30,0-30.5,0c0-0.1,0-0.1,0-0.3
		c2.4-0.7,3.9-1.9,5.6-4.6c0,0.1,0,3.6,0,3.9C210.7,107.2,211.3,106.9,211.6,106.7z M232,84.1c0.7,0.6,1.3,1.1,1.9,1.6
		c1.1,1,1.9,2.3,2.6,3.7c0.7,1.3,1.4,2.3,2.4,3.3c1.4,1.3,4.6,2.4,6.6,0.3c-3-5-6.1-10-9.2-14.9c-0.1-0.1-0.3-0.3-0.4-0.6L232,84.1z
		 M225.6,92.1c-1-2.1,1-3.6,2.3-3.6c0.1-0.3,1-1.6,1.3-2.1c-1.7-1.4-4.4-1.3-5.4,0.4c-1,1.6-1.1,3.3-0.4,5c0.3,0.7,1,1.3,1.6,1.6
		C225.2,93,225.6,92.3,225.6,92.1L225.6,92.1z M226.5,93.3c0,0-0.3,0.6-0.4,0.9c0.9,0.3,1.6,0.4,2.1-0.3H228
		C227.2,93.7,227,93.6,226.5,93.3z"/>
	<circle class="st1" cx="218.7" cy="110.9" r="1.7"/>
	<path class="st1" d="M291.9,108.2c0-0.1,0-0.1,0-0.3c2.4-0.7,3.9-1.7,5.6-4.6c0,0.1,0,3.4,0,3.6c0.1,0,0.1,0,0.3,0c0,0,2.3,0,3.9-1
		c2-1.6,2.7-3.1,3-5.4c0-1.9,0.1-24.3,0.1-28c0-3-1.1-5.7-3.3-7.3c-1.3-0.9-4-0.7-4-0.7c0,0.1,0,4,0,4.1c-1.7-2.9-3.1-4.3-5.6-4.9
		c0-0.1,0-0.1,0-0.3c0,0,2.3,0,5.9,0l0,0c4.3,0,27.7,0,32,0l0,0c3.6,0,5.9,0,5.9,0c0,0.1,0,0.1,0,0.3c-2.4,0.7-3.9,2.1-5.6,4.9
		c0-0.1,0-3.9,0-4.1c0,0-2.9-0.1-4,0.7c-2.1,1.6-3.3,4.3-3.3,7.3c0,3.7,0.1,26.2,0.1,28c0.1,2.1,1,3.7,3,5.4c1.6,1,3.9,1,3.9,1
		c0.1,0,0.1,0,0.3,0c0-0.3,0-3.4,0-3.6c1.7,2.9,3.1,3.9,5.6,4.6c0,0.1,0,0.1,0,0.3C335.7,108.2,292.1,108.2,291.9,108.2z"/>
	<circle class="st1" cx="360.6" cy="60.5" r="1.7"/>
	<circle class="st1" cx="355.4" cy="110.9" r="1.7"/>
	<path class="st1" d="M355.2,73.1"/>
	<circle class="st1" cx="393.8" cy="60.5" r="1.7"/>
	<circle class="st1" cx="392.5" cy="110.9" r="1.7"/>
	<circle class="st1" cx="451.1" cy="110.9" r="1.7"/>
	<path class="st1" d="M379,108.2c0,0,0-0.1,0-0.3c1.9-0.3,3.7-1.4,4.9-3.3c1,1.9,2.9,2.4,5,2.6l0,0c-10.6-12-21.5-23.9-32.3-35.9
		c-0.1,0.3-0.3,1-0.3,2.1c0,0,0,18.7,0,22.2c0,3.1,1,6.1,3,8.6c0.7,1,1.7,1.9,2.7,2.6c0.9,0.6,3,0.6,3,0.6c0-0.3,0-3.6,0-3.7
		c1.7,2.9,3.1,3.9,5.6,4.6c0,0.1,0,0.1,0,0.3h-30c0-0.1,0-0.1,0-0.3c2.4-0.7,3.9-1.7,5.6-4.6c0,0.1,0,3.6,0,3.7c0.1,0,2.1,0,3-0.6
		c1-0.7,2-1.6,2.7-2.6c2-2.4,3-5.3,3-8.6s0-22.2,0-22.2c0.1-4.3-3.1-7.6-6.6-8.6c-0.6-0.1-2-0.1-2-0.1c0,0.3,0,3.6,0,3.7
		c-1.7-2.9-3.1-3.9-5.6-4.6c0-0.1,0-0.1,0-0.3c0,0,29.2,0,31.9,0c0.4,0,0.7,0.3,1,0.7c3.6,4.1,18.9,21.3,19.2,21.5
		c0-0.4,0-12.3,0-14.4c0-1.9-1-3.7-3-5.1c-0.7-0.6-1.7-1.1-2.7-1.6c-0.9-0.3-3-0.3-3-0.3c0,0.1,0,2.1,0,2.3
		c-1.7-1.7-3.1-2.3-5.6-2.7c0,0,0-0.1,0-0.3h30c0,0,0,0.1,0,0.3c-2.4,0.4-3.9,1-5.6,2.7c0-0.1,0-2.1,0-2.3c-0.1,0-2.1,0-3,0.3
		c-1,0.4-2,1-2.7,1.6c-2,1.4-3,3.3-3,5.1c0,2,0,35.5,0,35.9l0,0c2.1-0.1,3.9-0.7,5-2.6c1.1,2,3,3.1,4.9,3.3c0,0,0,0.1,0,0.3
		c-0.7,0-5,0-9.9,0C394.3,108.2,379.5,108.2,379,108.2z"/>
	<circle class="st1" cx="450.8" cy="60.5" r="1.7"/>
	<path class="st1" d="M447.5,79.6"/>
	<path class="st1" d="M455.8,87"/>
	<path class="st1" d="M453,77.8L453,77.8L453,77.8z"/>
	<path class="st1" d="M445.5,85.1c0,0.1,0,16.7,0,17.9c0.3,1.9,1.7,3.1,3.3,3.7c0.9,0.3,1.9,0.3,2.7,0.4c3.7,0,7.3,0,10.9,0
		c2,0,3.7-0.1,5.6-0.7c2-0.7,3.6-2,3.9-4.3c-0.1,0.1-0.6,0.4-0.6,0.4c-3,2.1-7,2.4-10,1.7c-1.6-0.4-2.7-1-4-1.9
		c-1.4-1.1-2.4-2.6-2.6-4c-0.3-2.3,1.1-4.4,3.3-5.7c1.6-1,3.6-1.6,5.7-1.6c2.3-0.1,4.7,0.4,6.6,1.4c3.4,1.9,4.7,4.9,3.9,9
		c-0.4,1.6-1.7,4.1-3.6,5.1c-1.7,0.9-3.3,1.4-6.4,1.4c-3,0-49.2,0-49.2,0c0-0.1,0-0.1,0-0.3c2.9-0.7,4.6-1.7,6.6-4.6
		c0,0.1,0,3.6,0,3.7h0.9c3.6-0.1,4.3-0.9,5-2.4c0.6-1.1,0.9-2.3,0.9-3.6c0-9.3,0-18.7,0-28c0-1.7-0.4-3.1-1.3-4.6
		c-0.7-1.3-1.6-2.4-2.7-3.3c-0.9-0.6-2.6-0.7-2.7-0.7c0,0.3,0,3.6,0,3.7c-2-2.9-3.7-3.9-6.6-4.6c0-0.1,0-0.1,0-0.3c0,0,2.7,0,7,0
		c0,0,39.6,0,42.5,0c3.3,0.1,5.9,1.7,7.9,4.3c0.4,0.6,0.9,1.3,1.1,2c1,2.6,1,4.6-2,6.7c-1,0.7-1.9,1-3.1,1.4
		c-2.6,0.7-5.1,0.4-7.4-0.4c-1.7-0.6-3.4-1.7-4.3-3.9c-0.4-1.3,0-2.7,0.6-3.6c1.3-1.7,3.1-2.6,4.9-3c2.4-0.6,5.4-0.6,8.4,0.9
		c-0.1-0.6-0.9-1.3-1.6-1.7c-1.7-1.1-3.6-1.6-5.6-1.6c-3.3,0-6.7,0-10,0c-3.7,0-6.6,2.6-7.4,5c-0.3,0.7-0.4,1.6-0.4,2.3
		c0,3.9,0,11.7,0,12.2c0,0,3.6-0.6,4.6-1.3c1.6-1,2.9-4.6,2.9-4.6s1.7,3.9,2.7,4.6c1,0.9,5,1.9,5,1.9s-4.4,1.4-5.3,2.4
		c-0.9,0.9-2.3,4.4-2.3,4.4s-1.9-3.3-2.9-4.1C448.8,86.1,445.5,85.1,445.5,85.1z"/>
	<path class="st1" d="M477.7,108.2c0-0.1,0-0.1,0-0.3c-1.4-0.7-2.7-1.4-3.7-2.9l0,0c-1,1.3-2.1,2.1-3.7,2.9c0,0.1,0,0.1,0,0.3
		C471.6,108.2,476.4,108.2,477.7,108.2z"/>
	<path class="st1" d="M470.3,63.4c0,0.1,0,0.1,0,0.3c1.4,0.7,2.7,1.4,3.7,2.9l0,0c1-1.3,2.1-2.1,3.7-2.9c0-0.1,0-0.1,0-0.3
		C476.4,63.4,471.6,63.4,470.3,63.4z"/>
	<ellipse class="st1" cx="266.6" cy="137.3" rx="2" ry="2"/>
	<path class="st2" d="M267.1,142.6c-9.4,9.6-30.5,10.7-48.5,5.3c-4.3-1.3-11.6-5-16-8"/>
	<path class="st1" d="M268.1,136c0.4,0.3,0.9,1.4,0.9,2.6c0,1.4-0.3,2.4-1.4,4.1c-0.9,1.1-3.1,2.7-5.1,3.6c-2,0.9-4,2-5,2.4h-0.1
		c6.4-2,9.4-5.6,10-6.9c0.7-1.4,0.6-2.4,0.4-3"/>
	<path class="st1" d="M259.2,137.9c0,0,0.9-1.1,2.6-0.7c1.7,0.6,1.6,2.1,1.6,2.1s-2.1,3.1-5.7,5.6c-3.3,2.1-7.9,5-17.9,5.1
		s-10.2-0.6-10.2-0.6s13.6,1.1,18.4-1c5.6-2.4,7.9-5,9.3-6.6C258.9,139.8,259.2,137.9,259.2,137.9z"/>
	<path class="st1" d="M252.5,141.8c0,0,0.6-0.9,0.6-1.1c0-0.6,1,0.9-0.7,2.1c-2.3,1.9-4.7,2.9-7.6,4c-3.1,1.1-9.4,2.3-13.7,2
		c-7.3-0.4-7.3-0.9-7.3-0.9s4.6,0.4,9,0.3c2.7,0,5.3-0.4,7-0.9c3.1-0.7,4.7-1.4,6.3-2.1C251.9,142.6,252.5,141.8,252.5,141.8z"/>
	<circle class="st1" cx="251.6" cy="141" r="1.7"/>
	<path class="st1" d="M245.3,140.5c-0.7,0-2.1-0.4-1.6-1.7c0.6-1.3,0.9-1.6,1.7-1.3c0.7,0.3,1.9,1,1.4,2.3c-0.4,1.3-0.9,1.9-2.6,3.6
		c-1.9,1.9-5.1,3.3-8.7,3.9c-4.1,0.6-9,0.4-9,0.4s8-0.3,10.9-1.3c3-1,5.6-2.6,6.6-3.7C244.9,141.2,245.3,140.5,245.3,140.5z"/>
	<ellipse class="st1" cx="245.2" cy="139" rx="1.7" ry="1.7"/>
	<path class="st1" d="M237.5,131.5c0.9-0.4,1.9-0.6,3,0.1c1.3,0.9,2.6,2.3,2.1,5.4c-0.1,1.3-0.6,3.1-2.4,4.9
		c-1.7,1.9-2.6,2.3-5.3,3.4c-2.1,0.9-4.6,1-5.3,1c-0.7-0.1-0.9-0.3-0.9-0.3s2.9,0.4,7.2-1.6c2.6-1.3,4.9-3.1,5.6-5.7
		c0.7-2.7,0.3-3.4,0-4.1c-0.4-0.9-1.9-1.9-1.9-1.9s0,0.6-0.6,0.7c-0.9,0.3-1.9,0-1.9-0.7C237,132,237.5,131.5,237.5,131.5z"/>
	<ellipse class="st1" cx="238.2" cy="132.8" rx="1.4" ry="1.6"/>
	<path class="st1" d="M235.9,134.9c0.9-0.1,1.9,0.6,2.1,1c0.4,0.4,0.9,1,0.7,2.3c0,1.3-0.9,4.3-4.3,5.9c-1.6,0.7-4.1,1.3-4.1,1.3
		s4.1-1,5.7-2.9c2.1-2.4,2.4-3.7,1.6-5.3c-1-1.9-1.3,0.1-1.4-0.4C235.7,136,235.9,134.9,235.9,134.9z"/>
	<circle class="st1" cx="236" cy="136" r="1.3"/>
	<ellipse transform="matrix(0.9808 -0.1951 0.1951 0.9808 -22.2375 48.0302)" class="st1" cx="232.7" cy="136.9" rx="0.9" ry="1"/>
	<path class="st1" d="M233.3,136.2c0.1,0.1,0.6,0.6,0.6,1.1c0.1,0.6,0.1,1.1-0.3,2.1c-0.3,0.6-1.1,1.6-2,2.1
		c-0.9,0.6-1.9,1.1-2.3,1.4l0,0c2.9-1.6,4-3.4,4.1-4c0.1-0.7,0-1.1-0.1-1.4"/>
	<g>
		<g>
			<rect x="425.4" y="52.7" class="st7" width="3" height="3.1"/>
		</g>
		<g>
			<rect x="422.2" y="52.7" class="st7" width="3" height="3.1"/>
		</g>
		<g>
			<rect x="419.1" y="52.7" class="st7" width="3" height="3.1"/>
		</g>
		<g>
			<rect x="415.8" y="52.7" class="st7" width="3" height="3.1"/>
		</g>
		<g>
			<rect x="412.6" y="52.7" class="st7" width="3" height="3.1"/>
		</g>
		<g>
			<rect x="409.5" y="52.7" class="st7" width="3" height="3.1"/>
		</g>
		<g>
			<rect x="406.2" y="52.7" class="st7" width="3" height="3.1"/>
		</g>
		<g>
			<rect x="403.1" y="52.7" class="st7" width="3" height="3.1"/>
		</g>
		<g>
			<rect x="399.8" y="52.7" class="st7" width="3" height="3.1"/>
		</g>
		<g>
			<rect x="396.6" y="52.7" class="st7" width="3" height="3.1"/>
		</g>
		<g>
			<rect x="393.5" y="52.7" class="st7" width="3" height="3.1"/>
		</g>
		<g>
			<rect x="390.2" y="52.7" class="st7" width="3" height="3.1"/>
		</g>
		<g>
			<rect x="387" y="52.7" class="st7" width="3" height="3.1"/>
		</g>
		<g>
			<rect x="383.9" y="52.7" class="st7" width="3" height="3.1"/>
		</g>
		<g>
			<rect x="380.6" y="52.7" class="st7" width="3" height="3.1"/>
		</g>
		<g>
			<rect x="377.5" y="52.7" class="st7" width="3" height="3.1"/>
		</g>
		<g>
			<rect x="374.3" y="52.7" class="st7" width="3" height="3.1"/>
		</g>
		<g>
			<rect x="371" y="52.7" class="st7" width="3" height="3.1"/>
		</g>
		<g>
			<rect x="367.9" y="52.7" class="st7" width="3" height="3.1"/>
		</g>
		<g>
			<rect x="364.7" y="52.7" class="st7" width="3" height="3.1"/>
		</g>
		<g>
			<rect x="361.4" y="52.7" class="st7" width="3" height="3.1"/>
		</g>
		<g>
			<rect x="358.3" y="52.7" class="st7" width="3" height="3.1"/>
		</g>
		<g>
			<rect x="355" y="52.7" class="st7" width="3" height="3.1"/>
		</g>
		<g>
			<rect x="351.9" y="52.7" class="st7" width="3" height="3.1"/>
		</g>
		<g>
			<rect x="348.7" y="52.7" class="st7" width="3" height="3.1"/>
		</g>
		<g>
			<rect x="345.4" y="52.7" class="st7" width="3" height="3.1"/>
		</g>
		<g>
			<rect x="342.3" y="52.7" class="st7" width="3" height="3.1"/>
		</g>
		<g>
			<rect x="339.1" y="52.7" class="st7" width="3" height="3.1"/>
		</g>
		<g>
			<rect x="335.9" y="52.7" class="st7" width="3" height="3.1"/>
		</g>
		<g>
			<rect x="332.7" y="52.7" class="st7" width="3" height="3.1"/>
		</g>
		<g>
			<rect x="329.6" y="52.7" class="st7" width="3" height="3.1"/>
		</g>
		<g>
			<rect x="326.3" y="52.7" class="st7" width="3" height="3.1"/>
		</g>
		<g>
			<rect x="323.1" y="52.7" class="st7" width="3" height="3.1"/>
		</g>
		<g>
			<rect x="319.8" y="52.7" class="st7" width="3" height="3.1"/>
		</g>
		<g>
			<rect x="316.7" y="52.7" class="st7" width="3" height="3.1"/>
		</g>
		<g>
			<rect x="313.5" y="52.7" class="st7" width="3" height="3.1"/>
		</g>
		<g>
			<rect x="310.3" y="52.7" class="st7" width="3" height="3.1"/>
		</g>
		<g>
			<rect x="307.1" y="52.7" class="st7" width="3" height="3.1"/>
		</g>
		<g>
			<rect x="304" y="52.7" class="st7" width="3" height="3.1"/>
		</g>
		<g>
			<rect x="300.7" y="52.7" class="st7" width="3" height="3.1"/>
		</g>
		<g>
			<rect x="297.5" y="52.7" class="st7" width="3" height="3.1"/>
		</g>
		<g>
			<rect x="294.4" y="52.7" class="st7" width="3" height="3.1"/>
		</g>
		<g>
			<rect x="291.1" y="52.7" class="st7" width="3" height="3.1"/>
		</g>
		<g>
			<rect x="287.9" y="52.7" class="st7" width="3" height="3.1"/>
		</g>
		<g>
			<rect x="284.7" y="52.7" class="st7" width="3" height="3.1"/>
		</g>
		<g>
			<rect x="281.5" y="52.7" class="st7" width="3" height="3.1"/>
		</g>
		<g>
			<rect x="278.4" y="52.7" class="st7" width="3" height="3.1"/>
		</g>
		<g>
			<rect x="275.1" y="52.7" class="st7" width="3" height="3.1"/>
		</g>
		<g>
			<rect x="271.9" y="52.7" class="st7" width="3" height="3.1"/>
		</g>
		<g>
			<rect x="268.8" y="52.7" class="st7" width="3" height="3.1"/>
		</g>
		<g>
			<rect x="265.5" y="52.7" class="st7" width="3" height="3.1"/>
		</g>
		<g>
			<rect x="262.3" y="52.7" class="st7" width="3" height="3.1"/>
		</g>
		<g>
			<rect x="259.2" y="52.7" class="st7" width="3" height="3.1"/>
		</g>
		<g>
			<rect x="255.9" y="52.7" class="st7" width="3" height="3.1"/>
		</g>
		<g>
			<rect x="252.8" y="52.7" class="st7" width="3" height="3.1"/>
		</g>
		<g>
			<rect x="249.6" y="52.7" class="st7" width="3" height="3.1"/>
		</g>
		<g>
			<rect x="246.3" y="52.7" class="st7" width="3" height="3.1"/>
		</g>
		<g>
			<rect x="243.2" y="52.7" class="st7" width="3" height="3.1"/>
		</g>
		<g>
			<rect x="239.9" y="52.7" class="st7" width="3" height="3.1"/>
		</g>
		<g>
			<rect x="236.8" y="52.7" class="st7" width="3" height="3.1"/>
		</g>
		<g>
			<rect x="233.6" y="52.7" class="st7" width="3" height="3.1"/>
		</g>
		<g>
			<rect x="230.3" y="52.7" class="st7" width="3" height="3.1"/>
		</g>
		<g>
			<rect x="227.2" y="52.7" class="st7" width="3" height="3.1"/>
		</g>
		<g>
			<rect x="224" y="52.7" class="st7" width="3" height="3.1"/>
		</g>
		<g>
			<rect x="220.7" y="52.7" class="st7" width="3" height="3.1"/>
		</g>
		<g>
			<rect x="217.6" y="52.7" class="st7" width="3" height="3.1"/>
		</g>
		<g>
			<rect x="214.4" y="52.7" class="st7" width="3" height="3.1"/>
		</g>
		<g>
			<rect x="211.2" y="52.7" class="st7" width="3" height="3.1"/>
		</g>
		<g>
			<rect x="208" y="52.7" class="st7" width="3" height="3.1"/>
		</g>
		<g>
			<rect x="204.7" y="52.7" class="st7" width="3" height="3.1"/>
		</g>
		<g>
			<rect x="201.6" y="52.7" class="st7" width="3" height="3.1"/>
		</g>
	</g>
	<g>
		<g>
			<ellipse class="st1" cx="426.9" cy="54.2" rx="0.4" ry="0.4"/>
		</g>
		<g>
			<ellipse class="st1" cx="423.8" cy="54.2" rx="0.4" ry="0.4"/>
		</g>
		<g>
			<ellipse class="st1" cx="420.5" cy="54.2" rx="0.4" ry="0.4"/>
		</g>
		<g>
			<ellipse class="st1" cx="417.4" cy="54.2" rx="0.4" ry="0.4"/>
		</g>
		<g>
			<ellipse class="st1" cx="414.2" cy="54.2" rx="0.4" ry="0.4"/>
		</g>
		<g>
			<ellipse class="st1" cx="410.9" cy="54.2" rx="0.4" ry="0.4"/>
		</g>
		<g>
			<ellipse class="st1" cx="407.8" cy="54.2" rx="0.4" ry="0.4"/>
		</g>
		<g>
			<ellipse class="st1" cx="404.6" cy="54.2" rx="0.4" ry="0.4"/>
		</g>
		<g>
			<ellipse class="st1" cx="401.3" cy="54.2" rx="0.4" ry="0.4"/>
		</g>
		<g>
			<ellipse class="st1" cx="398.2" cy="54.2" rx="0.4" ry="0.4"/>
		</g>
		<g>
			<ellipse class="st1" cx="395.1" cy="54.2" rx="0.4" ry="0.4"/>
		</g>
		<g>
			<ellipse class="st1" cx="391.8" cy="54.2" rx="0.4" ry="0.4"/>
		</g>
		<g>
			<ellipse class="st1" cx="388.6" cy="54.2" rx="0.4" ry="0.4"/>
		</g>
		<g>
			<ellipse class="st1" cx="385.3" cy="54.2" rx="0.4" ry="0.4"/>
		</g>
		<g>
			<ellipse class="st1" cx="382.2" cy="54.2" rx="0.4" ry="0.4"/>
		</g>
		<g>
			<ellipse class="st1" cx="379" cy="54.2" rx="0.4" ry="0.4"/>
		</g>
		<g>
			<ellipse class="st1" cx="375.8" cy="54.2" rx="0.4" ry="0.4"/>
		</g>
		<g>
			<ellipse class="st1" cx="372.6" cy="54.2" rx="0.4" ry="0.4"/>
		</g>
		<g>
			<ellipse class="st1" cx="369.5" cy="54.2" rx="0.4" ry="0.4"/>
		</g>
		<g>
			<ellipse class="st1" cx="366.2" cy="54.2" rx="0.4" ry="0.4"/>
		</g>
		<g>
			<ellipse class="st1" cx="363" cy="54.2" rx="0.4" ry="0.4"/>
		</g>
		<g>
			<ellipse class="st1" cx="359.9" cy="54.2" rx="0.4" ry="0.4"/>
		</g>
		<g>
			<ellipse class="st1" cx="356.6" cy="54.2" rx="0.4" ry="0.4"/>
		</g>
		<g>
			<ellipse class="st1" cx="353.4" cy="54.2" rx="0.4" ry="0.4"/>
		</g>
		<g>
			<ellipse class="st1" cx="350.2" cy="54.2" rx="0.4" ry="0.4"/>
		</g>
		<g>
			<ellipse class="st1" cx="347" cy="54.2" rx="0.4" ry="0.4"/>
		</g>
		<g>
			<ellipse class="st1" cx="343.9" cy="54.2" rx="0.4" ry="0.4"/>
		</g>
		<g>
			<ellipse class="st1" cx="340.6" cy="54.2" rx="0.4" ry="0.4"/>
		</g>
		<g>
			<ellipse class="st1" cx="337.4" cy="54.2" rx="0.4" ry="0.4"/>
		</g>
		<g>
			<ellipse class="st1" cx="334.3" cy="54.2" rx="0.4" ry="0.4"/>
		</g>
		<g>
			<ellipse class="st1" cx="331" cy="54.2" rx="0.4" ry="0.4"/>
		</g>
		<g>
			<ellipse class="st1" cx="327.8" cy="54.2" rx="0.4" ry="0.4"/>
		</g>
		<g>
			<ellipse class="st1" cx="324.7" cy="54.2" rx="0.4" ry="0.4"/>
		</g>
		<g>
			<ellipse class="st1" cx="321.4" cy="54.2" rx="0.4" ry="0.4"/>
		</g>
		<g>
			<ellipse class="st1" cx="318.3" cy="54.2" rx="0.4" ry="0.4"/>
		</g>
		<g>
			<ellipse class="st1" cx="315.1" cy="54.2" rx="0.4" ry="0.4"/>
		</g>
		<g>
			<ellipse class="st1" cx="311.8" cy="54.2" rx="0.4" ry="0.4"/>
		</g>
		<g>
			<ellipse class="st1" cx="308.7" cy="54.2" rx="0.4" ry="0.4"/>
		</g>
		<g>
			<ellipse class="st1" cx="305.4" cy="54.2" rx="0.4" ry="0.4"/>
		</g>
		<g>
			<ellipse class="st1" cx="302.2" cy="54.2" rx="0.4" ry="0.4"/>
		</g>
		<g>
			<ellipse class="st1" cx="299.1" cy="54.2" rx="0.4" ry="0.4"/>
		</g>
		<g>
			<ellipse class="st1" cx="295.8" cy="54.2" rx="0.4" ry="0.4"/>
		</g>
		<g>
			<ellipse class="st1" cx="292.7" cy="54.2" rx="0.4" ry="0.4"/>
		</g>
		<g>
			<ellipse class="st1" cx="289.5" cy="54.2" rx="0.4" ry="0.4"/>
		</g>
		<g>
			<ellipse class="st1" cx="286.2" cy="54.2" rx="0.4" ry="0.4"/>
		</g>
		<g>
			<ellipse class="st1" cx="283.1" cy="54.2" rx="0.4" ry="0.4"/>
		</g>
		<g>
			<ellipse class="st1" cx="279.9" cy="54.2" rx="0.4" ry="0.4"/>
		</g>
		<g>
			<ellipse class="st1" cx="276.6" cy="54.2" rx="0.4" ry="0.4"/>
		</g>
		<g>
			<ellipse class="st1" cx="273.5" cy="54.2" rx="0.4" ry="0.4"/>
		</g>
		<g>
			<ellipse class="st1" cx="270.2" cy="54.2" rx="0.4" ry="0.4"/>
		</g>
		<g>
			<ellipse class="st1" cx="267.1" cy="54.2" rx="0.4" ry="0.4"/>
		</g>
		<g>
			<ellipse class="st1" cx="263.9" cy="54.2" rx="0.4" ry="0.4"/>
		</g>
		<g>
			<ellipse class="st1" cx="260.6" cy="54.2" rx="0.4" ry="0.4"/>
		</g>
		<g>
			<ellipse class="st1" cx="257.5" cy="54.2" rx="0.4" ry="0.4"/>
		</g>
		<g>
			<ellipse class="st1" cx="254.3" cy="54.2" rx="0.4" ry="0.4"/>
		</g>
		<g>
			<ellipse class="st1" cx="251.1" cy="54.2" rx="0.4" ry="0.4"/>
		</g>
		<g>
			<ellipse class="st1" cx="247.9" cy="54.2" rx="0.4" ry="0.4"/>
		</g>
		<g>
			<ellipse class="st1" cx="244.8" cy="54.2" rx="0.4" ry="0.4"/>
		</g>
		<g>
			<ellipse class="st1" cx="241.5" cy="54.2" rx="0.4" ry="0.4"/>
		</g>
		<g>
			<ellipse class="st1" cx="238.3" cy="54.2" rx="0.4" ry="0.4"/>
		</g>
		<g>
			<ellipse class="st1" cx="235.2" cy="54.2" rx="0.4" ry="0.4"/>
		</g>
		<g>
			<ellipse class="st1" cx="231.9" cy="54.2" rx="0.4" ry="0.4"/>
		</g>
		<g>
			<ellipse class="st1" cx="228.7" cy="54.2" rx="0.4" ry="0.4"/>
		</g>
		<g>
			<ellipse class="st1" cx="225.5" cy="54.2" rx="0.4" ry="0.4"/>
		</g>
		<g>
			<ellipse class="st1" cx="222.3" cy="54.2" rx="0.4" ry="0.4"/>
		</g>
		<g>
			<ellipse class="st1" cx="219.2" cy="54.2" rx="0.4" ry="0.4"/>
		</g>
		<g>
			<ellipse class="st1" cx="215.9" cy="54.2" rx="0.4" ry="0.4"/>
		</g>
		<g>
			<ellipse class="st1" cx="212.7" cy="54.2" rx="0.4" ry="0.4"/>
		</g>
		<g>
			<ellipse class="st1" cx="209.6" cy="54.2" rx="0.4" ry="0.4"/>
		</g>
		<g>
			<ellipse class="st1" cx="206.3" cy="54.2" rx="0.4" ry="0.4"/>
		</g>
		<g>
			<ellipse class="st1" cx="203.1" cy="54.2" rx="0.4" ry="0.4"/>
		</g>
	</g>
	<g>
		<rect x="473.4" y="52.7" class="st7" width="3" height="3.1"/>
	</g>
	<g>
		<rect x="470.3" y="52.7" class="st7" width="3" height="3.1"/>
	</g>
	<g>
		<rect x="467" y="52.7" class="st7" width="3" height="3.1"/>
	</g>
	<g>
		<rect x="463.8" y="52.7" class="st7" width="3" height="3.1"/>
	</g>
	<g>
		<rect x="460.6" y="52.7" class="st7" width="3" height="3.1"/>
	</g>
	<g>
		<rect x="457.4" y="52.7" class="st7" width="3" height="3.1"/>
	</g>
	<g>
		<rect x="454.3" y="52.7" class="st7" width="3" height="3.1"/>
	</g>
	<g>
		<ellipse class="st1" cx="475" cy="54.2" rx="0.4" ry="0.4"/>
	</g>
	<g>
		<ellipse class="st1" cx="471.7" cy="54.2" rx="0.4" ry="0.4"/>
	</g>
	<g>
		<ellipse class="st1" cx="468.6" cy="54.2" rx="0.4" ry="0.4"/>
	</g>
	<g>
		<ellipse class="st1" cx="465.4" cy="54.2" rx="0.4" ry="0.4"/>
	</g>
	<g>
		<ellipse class="st1" cx="462.1" cy="54.2" rx="0.4" ry="0.4"/>
	</g>
	<g>
		<ellipse class="st1" cx="459" cy="54.2" rx="0.4" ry="0.4"/>
	</g>
	<g>
		<ellipse class="st1" cx="455.7" cy="54.2" rx="0.4" ry="0.4"/>
	</g>
	<path class="st7" d="M440.8,51.2c-1.7,0-5.9,0.3-5.9,0.3l1.4,2.1c0,0-1-0.1-2.9,0.6c-1.9,0.6-3.1,1.6-3.1,1.6h-1.9v-3.1l4.6-1.4
		l-0.9-2c0,0,3.4-1.3,9-1.4l0,0c5.4,0.1,9.2,1.4,9.2,1.4l-0.9,2l4.6,1.4v3.1h-1.9c0,0-1.3-1-3.1-1.6c-1.9-0.6-2.7-0.6-2.7-0.6
		l1.4-2.1C447.8,51.5,442.1,51.2,440.8,51.2z"/>
	<line class="st7" x1="431.8" y1="51.8" x2="431.8" y2="55"/>
	<line class="st7" x1="438.4" y1="48" x2="438.4" y2="51.4"/>
	<line class="st7" x1="441.8" y1="47.8" x2="441.8" y2="51.2"/>
	<line class="st7" x1="445" y1="48.1" x2="445" y2="51.5"/>
	<path class="st8" d="M436.4,53.7"/>
	<line class="st7" x1="435" y1="51.5" x2="435" y2="48.5"/>
	<g>
		<ellipse class="st1" cx="436.7" cy="50" rx="0.4" ry="0.4"/>
	</g>
	<g>
		<ellipse class="st1" cx="440.1" cy="49.7" rx="0.4" ry="0.4"/>
	</g>
	<g>
		<ellipse class="st1" cx="443.2" cy="49.8" rx="0.4" ry="0.4"/>
	</g>
	<line class="st7" x1="448" y1="48.7" x2="448" y2="51.5"/>
	<g>
		<ellipse class="st1" cx="446.4" cy="50" rx="0.4" ry="0.4"/>
	</g>
	<g>
		<ellipse class="st1" cx="430.1" cy="54.2" rx="0.4" ry="0.4"/>
	</g>
	<line class="st7" x1="451.3" y1="55" x2="451.3" y2="51.8"/>
	<g>
		<ellipse class="st1" cx="452.8" cy="54.2" rx="0.4" ry="0.4"/>
	</g>
	<g>
		<ellipse class="st1" cx="449.5" cy="52.8" rx="0.4" ry="0.4"/>
	</g>
	<g>
		<ellipse class="st1" cx="433.5" cy="52.4" rx="0.4" ry="0.4"/>
	</g>
	<path class="st1" d="M501.9,85.6c-2.9,0.4-5.7,0.4-8.3,2c-1-1.4-2.4-1.9-4.3-2c1.9-0.3,3.3-0.9,4.4-2.1
		C496.2,84.8,499,85.1,501.9,85.6z"/>
	<line class="st9" x1="484.9" y1="100.1" x2="484.9" y2="100.1"/>
	<path class="st1" d="M492.2,80.8c-1,0.4-1.9,0.9-2.9,1.3c0.3-0.6,1.1-2.4,1.3-2.9c1-0.3,1.9-0.6,2.7-1
		C493,79.1,492.6,80,492.2,80.8z"/>
	<circle class="st1" cx="486.4" cy="85.7" r="1.4"/>
	<path class="st1" d="M486.4,82c-0.3-1.9-0.3-3.9-1.3-5.6c1-1.4,0.9-3,1.3-4.6l0,0c0.4,1.6,0.4,3.1,1.3,4.6
		C486.7,78,486.7,80,486.4,82L486.4,82z"/>
	<path class="st1" d="M492.2,90c-1-0.4-1.9-0.9-2.9-1.3c0.3,0.6,1.1,2.4,1.3,2.9c1,0.3,1.9,0.6,2.7,1C493,91.7,492.6,90.9,492.2,90z
		"/>
	<path class="st1" d="M486.4,89c-0.3,1.9-0.3,3.9-1.3,5.6c1,1.4,0.9,3,1.3,4.6l0,0c0.4-1.6,0.4-3.1,1.3-4.6
		C486.7,92.9,486.7,90.9,486.4,89L486.4,89z"/>
	<path class="st1" d="M477.4,85.6c1.1-0.3,2.3-0.3,3.3-1.3c0.9,1,1.7,0.9,2.6,1.3l0,0c-0.9,0.4-1.9,0.4-2.6,1.3
		C479.6,85.8,478.4,86,477.4,85.6L477.4,85.6z"/>
	<path class="st1" d="M100.8,124.7c0,0,1.4-2.3,2.3-3.4c0.7-1.1,4.3-5.1,6.3-7c6.1-5.7,12.3-10.2,15.4-16.7c0.9-2,3.1-7.4,1.6-12.4
		c-0.4-1.7-2-3.1-3.7-3.6c-3.6-1-5.7,1.1-6,2.9c-0.3,2,0.6,2.7,1.1,3.1c0.9,0.6,2.1,0.3,2.7-0.4c0.6-0.7,0.3-1.9-0.1-2.3
		s-1.6-0.6-2.4,0.1c-0.4,0.4-0.6,1.1-0.6,1.1s-0.3-1.1,0.3-2.1c0.9-1.4,2.1-1.7,3-1.7s3,0.1,4.4,2.3s1.3,5,0.1,9.3
		s-5.6,11.2-10.3,14.7c-3.4,2.6-8.3,7-11.7,11.2c-1.1,1.3-2.1,3.4-2.1,3.4L100.8,124.7z"/>
	<path class="st1" d="M192.7,123.7c1.4,4.4,5.3,11,7.7,13.4c7.9,8.6,16.3,12.6,23.5,13.7c7,1.1,15.2,1.7,20.6,1.6
		c6.6-0.3,15.9-3.3,20.4-5.7c3.1-1.7,7.2-4.3,7-8.3c0-3.4-1.1-5-3.3-6.3c-1.7-1-4-1.9-6-0.9c-2,0.9-2.3,2-2.1,0.3
		c0.1-1.7,2.7-2,2.7-2s-3.3,0-5.4,1s-4.3,2.4-4.3,2.4s-0.7-2.9,1.7-4.7c1.3-1,4.4-2.1,4.4-2.1s-3.6-0.7-6.3,1c-2,1.3-4,3.3-4.1,5.4
		c-0.1,1.7,0.6,2.4,0.6,2.4s-1,0.4-3-0.4c-2.3-1.1-2.3-6.7,0.3-8.9c4.9-3.9,7.9-2.9,7.9-2.9s-4.9-0.4-8.2,1.3c-2,1-3.9,3.3-3.9,3.3
		s0.1-0.3-1.3-1.4s-6.4-3.4-13.3-0.4c-1.9,0.9-9.6,4-10,10c0,0.4,0,4.3,2.9,4.7c1.4,0.3,1.6,0.1,1.6,0.1s-1.7,0-2.4-0.3
		c-3-1.4-1.7-6.9,1.1-7.4c4.1-1,6.1,3,5.7,5.1c-0.4,2.3-1.9,3.6-3.7,4.1c-1.4,0.4-4,0.1-5.7-1.4c-1.3-1.1-2.1-3.9-1.9-6
		c0.4-3,3.7-5.7,5.1-6.6c3-1.9,8-4,10.2-4.7c3.1-1,11.4-2,13-2.1c5.1-0.1,10.7-0.1,14.4,0.9c3.3,0.9,9.4,3.3,12.3,6.9
		c3.1,3.9,4.6,9.7,1.1,14c-3.4,4.6-12.6,9.7-27,10.9c-4.9,0.4-10.2,0.4-13.2,0.1c-6.1-0.6-14.7-2.1-21.3-5.1
		c-3.7-1.7-8.7-4.9-11-6.6c-4-3-11.7-10-14.4-13.7c-2.6-3.6-5.3-8-7.2-12c-1.1-2.3-3.1-9.6-3.1-9.6L165.7,95c0,0-0.3,21.2,0.1,27.7
		c0.4,6.4,7.7,13.9,7.7,13.9h-8.4l-4.6,10v0.1c1.7,0.4,3,2,3,3.9l0,0c0,2.3-1.9,4-4,4l0,0c-0.1,0-1.1,0-1.3,0l0,0c-2.3,0-4-1.9-4-4
		l0,0c0-1.9,1.3-3.4,3-3.9v-0.1l-4.6-10h-8.4c0,0,7.3-7.4,7.7-13.9c0.5-6.4,0.2-27.7,0.2-27.7l-8.9,11.9c0,0-1.4,11.9-2.3,15.2
		c-0.7,2.9-5.3,12-8.2,15.4c-2.6,3.1-9.6,8.3-12.3,9.2c-3,0.9-5.9,1.4-9.6,0.4c-2-0.6-7.4-2.3-9.9-0.9c-0.1,0.1-0.4,0.3-0.4,0.3
		l1-1.6c0,0,0.6-0.4,1-0.4c1.3-0.3,2.3-0.1,2.3-0.1s-0.7-0.7-1.3-1.6c-1.1-1.3-3.7-4.9-4-10.4c-0.1-1.6,0.7-7.4,1-9.9
		c0.3-2.4,1.4-12,1.3-14.3c-0.3-5-1.7-7.6-2.9-8.2c-0.9-0.4-1.1-0.3-1.1-0.3s0.9,0.7,0.9,1.1s-0.1,1-1.1,1.1c-1.1,0-1.3-0.9-1.3-1.6
		c0.1-0.7,0.9-2,2.6-1.4c1.3,0.4,2.3,1.7,3.1,3.9c0.9,2.1,1,5.3,1,7.9c0,2.4-1,9.4-1.1,11.2c-0.1,1.3-0.7,5.1-0.7,5.1s0.1-1,1.1-2.7
		c1-1.9,2.6-3.3,3.7-4c1.4-0.9,3.7-1.7,6.6-1.7V118l-0.6-0.6l0.9-0.9l0.9,0.7l-0.6,0.7v0.6c0,0,3.1,0.4,5.9,3c0.6,0.4,1,1,1,1
		l0.4-0.9l1.4,0.4l-0.6,1.4h-1.1c0.9,2.1,1,3,1.1,3.7c0.1,1.1,0.3,2.9,0.3,2.9l1.3-0.3l1,1.6l-1.7,1l-0.7-0.9c0,0-0.9,2.6-2.4,4.1
		c-0.6,0.6-1,2.1-1,2.1s-0.9-0.7-2-0.7c-0.7,0-1.9,1.1-1.9,1.1s-0.4-1-1.3-1.3c-0.7-0.1-1.7,0.1-1.7,0.1s0.1-0.6,0-1.3
		s-1.4-2.6-1.4-3.9s0.7-2.4,1.7-3c1.1-0.6,2.9-0.6,4,0c2.4,1.1,1.6,4.6,0,5c-1,0.3-1.9,0.3-2.6-0.6c-0.6-0.9-0.3-1.4-0.3-1.4
		s-1.1,0-1.1,1.4c0.1,2.1,2.1,2.7,3.4,2.7c1.7-0.1,3.7-0.9,4.9-4.1c1-3-0.1-7.4-1.6-9.3c-1.3-1.7-5.6-4.9-11.4-2
		c-3.1,1.6-6.1,4.7-6,12.2c0,3.4,2.4,10.3,7.7,12.3c6.3,2.3,10.3,0.7,12.3-0.3c3.9-1.9,7.7-8,9.6-16.4c1.9-8.3,1.6-17.2,1.6-22.3
		c0-8.6-2.4-23.6-3.9-28.5c-1-3.3-3.7-13.3-6.6-17c-2-2.7-2.7-3.4-4.6-4.1c-2.3-0.7-2-4.1-0.1-4.3c1.1-0.1,1.7,0.6,2,1.3
		c0.4,1.4-1.1,2-1.1,2s0.7,0.4,2,0.3c1.7-0.1,5.6-0.6,8.6-2.7c2.9-2.1,5-4.1,8.6-5c3.7-0.9,8.4-1.3,11-0.7c2.1,0.4,3.6,1.3,5.1,2.4
		c1.6,1.1,2.4,2.7,3.3,4c0.6,0.9,1.6,2.4,1.6,2.4c-1.1,0.8-1.9,2.1-1.9,3.6c0,2,1.3,3.6,2.7,3.6h0.1c1.6,0,2.7-1.6,2.7-3.6
		c0-1.6-0.7-2.9-1.9-3.3c0,0,1-1.6,1.6-2.4c0.9-1.1,1.7-2.9,3.3-4s3-2,5.1-2.4c2.6-0.4,7.3-0.1,11,0.7c3.6,0.9,5.6,2.9,8.6,5
		c2.9,2.1,6.9,2.6,8.6,2.7c1.4,0.1,2-0.3,2-0.3s-1.4-0.6-1-2c0.3-0.7,0.9-1.4,2-1.3c1.9,0.1,2.1,3.6-0.1,4.3
		c-1.9,0.6-2.4,1.4-4.6,4.1c-2.7,3.7-5.6,13.6-6.6,17c-1.4,4.7-2.1,18.2-1.4,26.7C188.7,109.3,192,121.6,192.7,123.7z M142.9,103.4
		l8.7-11.2v-7.7l-8.9,11.9L142.9,103.4z M174.7,96.1l-8.9-11.9V92l8.7,11.2L174.7,96.1z M137.8,60.7c-0.4-1-1.6-1.7-2.7-1.7
		c-1.7,0-3,1.3-3,3s1.3,3,3,3c0.9,0,1.7-0.4,2.3-1c0,0-0.1,2.4,0.6,5.4c0.7,2.9,3.9,16.4,4,18.6c0.1,2,0.4,5.9,0.4,5.9l9.4-11.9
		c0,0,0.1-9-0.3-12.6c-0.3-2.1-1.3-6-2.7-8.4c-1.3-2.3-2.6-4.4-6.3-4c-3,0.3-3.6,1.3-4.1,2.3C137.9,60.1,137.8,60.7,137.8,60.7z
		 M178.1,58.2c-0.4-1-1.1-2-4.1-2.3c-3.7-0.4-5,1.7-6.3,4c-1.4,2.3-2.4,6.1-2.7,8.4c-0.5,3.7-0.3,12.7-0.3,12.7l9.4,11.9
		c0,0,0.3-3.7,0.4-5.9c0.1-2,3.3-15.6,4-18.6c0.7-2.9,0.6-5.4,0.6-5.4c0.6,0.6,1.3,1,2.3,1c1.7,0,3-1.3,3-3s-1.3-3-3-3
		c-1.1,0-2.3,0.7-2.7,1.7C178.7,59.8,178.5,59.2,178.1,58.2z M158.5,99c0,0,1-4.6,1.4-5.6s1.4-2.1,1.4-2.1s-1.4-2-1.7-3.4
		c-0.4-1.4-1-6.1-1-6.1l0,0c0,0-0.6,4.7-1,6.1s-1.6,3.4-1.6,3.4s0.9,1.1,1.4,2.1C157.7,94.4,158.5,99,158.5,99 M137.1,99
		c0,0,1-4.6,1.4-5.6s1.4-2.1,1.4-2.1s-1.4-2-1.7-3.4c-0.4-1.4-1-6.1-1-6.1l0,0c0,0-0.6,4.7-1,6.1s-1.7,3.4-1.7,3.4s1,1.1,1.4,2.1
		C136.2,94.4,137.1,99,137.1,99 M181.3,99c0,0,1-4.6,1.4-5.6s1.4-2.1,1.4-2.1s-1.4-2-1.7-3.4c-0.4-1.4-1-6.1-1-6.1l0,0
		c0,0-0.6,4.7-1,6.1s-1.7,3.4-1.7,3.4s0.9,1.1,1.4,2.1C180.4,94.4,181.3,99,181.3,99"/>
	<path class="st1" d="M114.5,109.6c5.3-3.9,8-9.2,10.7-14s0.9-10.3,0.9-10.3s1.9,0.6,2.4,1.1c0.4,0.4,0.3,1-0.1,1.9
		c-0.3,0.7-0.6,1.1-0.6,1.1s0.9,0.6,1.3,1.1c0.3,0.4,0.4,0.9-0.1,1.7c-0.4,0.7-0.7,0.9-0.7,0.9s0.7-0.1,1,0.6s0.3,1.1-0.1,2
		s-0.6,1.1-0.6,1.1s0.6,0.3,0.9,0.7c0.4,0.6,0.1,1.1-0.3,1.9c-0.4,0.6-1,1-1,1s0.7,0.1,1.1,0.4c0.4,0.3,0.6,1.3,0.1,1.9
		c-0.6,0.6-1,0.9-1,0.9s1,0.3,1.4,1c0.3,0.4,0,1.3-0.6,2c-0.7,0.7-0.6,0.6-0.6,0.6s0.7,0.3,1.1,1s0.4,1.1,0,1.7
		c-0.3,0.6-0.4,0.6-0.4,0.6s0.9,0.9,1,1.6s0.3,3.1-0.7,1.9c-0.6-0.7-0.4-0.6-1.6-1.4c-1.1-0.9-2.4-1.9-7.2-1.9s-5.9,0.6-8,1.4
		c-2.4,1-4.1,2.9-4.1,2.9S109.2,113.6,114.5,109.6z M119.3,106.6c0,0.7,0.6,1.4,1.3,1.4c0.7,0,1.3-0.6,1.3-1.4
		c0-0.7-0.6-1.3-1.3-1.3C119.9,105.2,119.3,105.7,119.3,106.6z M115.5,109.2c-0.3,0-0.6,0.3-0.6,0.6c0,0.3,0.3,0.6,0.6,0.6
		s0.6-0.3,0.6-0.6S115.8,109.2,115.5,109.2z M117.9,107.6c-0.4,0-0.9,0.4-0.9,0.9c0,0.4,0.4,0.9,0.9,0.9c0.4,0,0.9-0.4,0.9-0.9
		C118.8,107.9,118.3,107.6,117.9,107.6z"/>
	<circle class="st1" cx="107.6" cy="123.3" r="1"/>
	<circle class="st1" cx="112.1" cy="122" r="1"/>
	<circle class="st1" cx="116.3" cy="123.6" r="1"/>
	<circle class="st1" cx="118.6" cy="128.6" r="1"/>
	<path class="st10" d="M100.3,133.6c0,0,3.9-0.4,6.4,0.1c3.1,0.7,4.1,2.1,5,2.7"/>
	<path class="st10" d="M100.6,128.5c0,0,4,0.4,5.7,1.1c3.7,1.7,4.6,5,4.9,5.4"/>
	<path class="st10" d="M103.2,122.9c0,0,2.9,1.6,4.3,3c1.9,1.9,2.3,4,2.7,5.4"/>
	<path class="st10" d="M108.6,119.9c0,0,1.3,2,2.1,4.1c0.7,1.9,1,5.6,0.9,6.1"/>
	<path class="st10" d="M113.8,119.2c0,0,0.7,3.4,0.7,5c-0.1,3-1.7,4.7-2,5"/>
	<path class="st10" d="M118.8,122.3c0,0,0,1.9-1,3.6c-1.1,1.9-2.4,3-3.1,3.4"/>
	<path class="st10" d="M102.6,140c0,0,2.4-2.1,4.1-2.6c3.1-0.9,4.9-0.4,4.9-0.4"/>
</g>
<path class="st1" d="M299.1,574.1c1.2,0,2.5-0.1,3.9-0.1c3.7,0,5-4.3,9.1-4.3c3.7,0,3.3,2,8,1.9c4.4-0.1,6.7-0.7,9.4-3
	c2-1.6,2.7-4.2,4.8-6c3.2-3,8-3.9,8.1-9.9c0.1-4.3-4.4-13.4-18.7-14.1c-3.1-0.1-4.5-4.4-4.5-4.4s2.9-3,2.1-7.6
	c-0.6-3.3-2.6-5.2-2.6-5.2s3-2,3-7.9c0-4.5-3.5-7.4-3.5-7.4s2.9-3.2,2.9-6.1s-1.8-6.3-1.8-6.3s2.7-4.3,2.9-7.5
	c0.1-3.3-2.4-7.2-2.4-7.2s2.6-4.2,2.6-8.3s-1.6-8.2-1.6-8.2s3.5-4.5,3.9-9.9c0.4-4.3-1.7-7.2,1-10.5c2.6-3.3,3-5.8,3.8-9.3
	c1-3.9,2.9-13.6,2.9-19.9c0-4.2,3.2-5.2,6.1-8.1c2.7-2.6,5.8-14.8,5.4-21.7c-0.5-6.3-4.2-11.1-1.3-14c5.5-5.5,12.4-8.5,13.6-9.7
	c2.3-2.1,3.7-5.7,3.7-5.7s5.1-1.6,6.9-3.7c2.3-2.6,2.7-7,2.7-7s10.5-0.2,10.9-6.3c0.1-1.3-1.6-0.7-3.7-1.1c-2.5-0.5-3.3-3.7-2.3-8.5
	c1-4.5,1.7-6.4,4.3-9.5s4.5-3.8,6.8-6.8c1.9-2.5,2.6-10.6,2.4-16.8c-0.2-6.2,0.5-5-2.4-19.8s-11.8-32.3-18.7-41.5
	s-18.1-14.5-25.9-17.4c0,0,11.8-19.6,19.9-27.1c4.3-4.1,16.9-14.1,16.9-14.1c-2.9,1.2-11.8,5.7-20.4,13.8
	c-8.5,8.1-19.7,26.1-19.7,26.1c-1.2-0.4-2.3-0.6-3.1-0.8c-5.7-1.3-11.9-0.5-11.9-0.5s5.4,9.1,8.6,15l-5.1,11
	c-1.7-1.9-3.3-3.9-4.5-6.1c-2.9-5-8.5-13.7-9.8-16.6c-1.3-2.9-2.1-2.5-3.1-0.5c-3.5,7.4,3.5,20.8,4.4,24c1.2,4.1,7.9,15.6,7.9,15.6
	s-4.9,16.6-5.8,20.2c-1.1,3.7-7.4,31.7-8.5,35.2c-1.6,4.5-4.2,20.6-4.2,20.6s-0.1-1.4-3-1.7h-0.8c-3,0.1-3,1.7-3,1.7
	s-2.7-16.1-4.2-20.6c-1.2-3.5-7.4-31.5-8.5-35.2c-1.1-3.6-5.8-20.2-5.8-20.2s6.7-11.6,7.9-15.6c1-3.2,7.9-16.6,4.4-24
	c-1-2-1.8-2.4-3.1,0.5c-1.3,2.9-6.9,11.7-9.8,16.6c-1.2,2.1-2.9,4.2-4.5,6.1l-5.1-11c3.2-6,8.6-15,8.6-15s-6.2-0.8-11.9,0.5
	c-0.8,0.2-1.9,0.5-3.1,0.8c0,0-11.2-18-19.7-26.1c-8.6-8.1-17.5-12.6-20.4-13.8c0,0,12.6,10,16.9,14.1c8,7.5,19.9,27.1,19.9,27.1
	c-7.8,2.7-19,8.2-25.9,17.4c-6.9,9.1-15.9,26.7-18.7,41.5c-2.9,14.8-2.1,13.5-2.4,19.8c-0.2,6.2,0.5,14.3,2.4,16.8
	c2.3,3,4.2,3.7,6.8,6.8c2.6,3.1,3.3,5,4.3,9.5c1.1,4.8,0.2,8-2.3,8.5c-2.1,0.4-3.7-0.2-3.7,1.1c0.4,6.1,10.9,6.3,10.9,6.3
	s0.5,4.4,2.7,7c1.8,2.1,6.9,3.7,6.9,3.7s1.6,3.6,3.7,5.7c1.2,1.2,8,4.2,13.6,9.7c2.9,2.9-0.8,7.6-1.3,14c-0.5,7,2.6,19.1,5.4,21.7
	c3,2.9,6.1,4.1,6.1,8.1c0,6.3,2,16,2.9,19.9c0.8,3.5,1.2,6,3.8,9.3s0.6,6.2,1,10.5c0.5,5.4,3.9,9.9,3.9,9.9s-1.6,4.1-1.6,8.2
	s2.6,8.3,2.6,8.3s-2.5,3.8-2.4,7.2c0.1,3.2,2.9,7.5,2.9,7.5s-1.9,3.5-1.9,6.3s2.9,6.1,2.9,6.1s-3.5,2.9-3.5,7.4c0,6,3,7.9,3,7.9
	s-2,1.9-2.6,5.2c-0.8,4.7,2.1,7.6,2.1,7.6s-1.4,4.2-4.5,4.4c-14.4,0.7-19,9.9-18.7,14.1c0.2,6,4.9,7,8.1,9.9c2,1.8,2.9,4.4,4.8,6
	c2.7,2.1,5,2.9,9.4,3c4.7,0.1,4.2-1.9,8-1.9c4.1,0,5.5,4.3,9.1,4.3c1.3,0,2.6,0,3.9,0.1H299.1z M268.7,242c-4.1,3.8-7.8,6.3-7.8,6.3
	s1.3-11.7,3.7-16.7L268.7,242z M285.2,298c3,15.4,6.2,31.8,6.2,31.8s-1.6,2.6-1.6,3.7c0,1.2,1.1,3.1,1.1,3.1s-3.5,3.2-5,6.3
	c-1.6,3.1-3,10.6-3,10.6s-8.3-8.6-12.5-11.3c-4.4-3-10.9-4.9-10.9-4.9s-1.3-5-4.3-8.8c-2.5-3.3-7.4-6-7.4-6s-1.8-3.6-3.6-6.3
	c-2.1-3.1-4.8-6-4.8-6s11.8-6.6,16.1-12.3c4.8-6.3,5.2-10.9,7.6-13s2-5.7,1.8-8.6s-2.6-3.1-0.8-4.4c1.8-1.3,9.9-13.8,9.9-13.8
	S281.3,278.7,285.2,298z M333.1,231.5c2.4,5,3.7,16.7,3.7,16.7s-3.7-2.5-7.8-6.3L333.1,231.5z M323.7,258.1c0,0,8.1,12.5,9.9,13.8
	s-0.5,1.6-0.8,4.4c-0.2,2.9-0.5,6.6,1.8,8.6c2.4,2,2.9,6.7,7.6,13c4.4,5.7,16.1,12.3,16.1,12.3s-2.7,2.9-4.8,6
	c-1.8,2.7-3.6,6.3-3.6,6.3s-4.9,2.6-7.4,6c-3,3.8-4.3,8.8-4.3,8.8s-6.4,1.9-10.9,4.9c-4.2,2.9-12.5,11.3-12.5,11.3s-1.4-7.5-3-10.6
	s-5-6.3-5-6.3s1.1-1.9,1.1-3.1c0-1.1-1.6-3.7-1.6-3.7s3.2-16.5,6.2-31.8C316.3,278.7,323.7,258.1,323.7,258.1z"/>
</svg>
