<?xml version="1.0" encoding="utf-8"?>
<!-- Generator: Adobe Illustrator 20.1.0, SVG Export Plug-In . SVG Version: 6.00 Build 0)  -->
<svg version="1.1" id="Layer_1" xmlns="http://www.w3.org/2000/svg" xmlns:xlink="http://www.w3.org/1999/xlink" x="0px" y="0px"
	 viewBox="0 0 292 605" style="enable-background:new 0 0 292 605;" xml:space="preserve">
<style type="text/css">
	.st0{fill:#671D43;}
	.st1{fill:#EC218B;}
	.st2{fill:none;stroke:#EC208B;stroke-linecap:round;stroke-miterlimit:10;}
	.st3{fill:none;stroke:#EC208B;stroke-miterlimit:10;}
	.st4{fill:none;stroke:#EC208B;stroke-width:2;stroke-linecap:round;stroke-miterlimit:10;}
	.st5{fill:none;stroke:#EC208B;stroke-width:0.5;stroke-linecap:round;stroke-miterlimit:10;}
	.st6{fill:none;stroke:#EC208B;stroke-width:0.75;stroke-miterlimit:10;}
	.st7{fill:none;stroke:#EC208B;stroke-width:0.5;stroke-miterlimit:10;}
	.st8{fill:none;stroke:#D5ECDF;stroke-miterlimit:10;}
	.st9{fill:none;}
	.st10{fill:none;stroke:#EC208B;stroke-width:0.75;stroke-linecap:round;stroke-miterlimit:10;}
</style>
<rect class="st0" width="292" height="605"/>
<g>
	<circle class="st1" cx="10.7" cy="136" r="0.7"/>
	<circle class="st1" cx="9.9" cy="132.3" r="0.7"/>
	<circle class="st1" cx="10.8" cy="129.1" r="0.7"/>
	<path class="st1" d="M259.1,139.3c0,0-0.2,0.1-0.7-0.6c-0.6-0.6-0.7-1.3-0.4-2c0.3-0.7,0.8-1.1,1.7-1.3c1.2-0.2,2.4-0.1,4.4,0.7
		s6.9,3.2,8.4,3.9s3.6,1.6,4.4,1.8s4.5,1.7,5.1,1.9s-4.6-1.5-5.2-1.6c-0.5-0.1-5.9-0.5-6.9-0.4s-4.6,0.6-5.5,0.8s-2.9,0.4-3.6,0.3
		c-0.8-0.1-1.7-0.4-2.3-0.9c-0.3-0.3-0.7-1.4-0.3-2C258.6,139.5,259.1,139.3,259.1,139.3z"/>
	<circle class="st1" cx="256" cy="139" r="1"/>
	<circle class="st1" cx="251.5" cy="138.7" r="1"/>
	<circle class="st1" cx="247.2" cy="138.1" r="0.8"/>
	<circle class="st1" cx="243.8" cy="137.8" r="0.8"/>
	<circle class="st1" cx="240.5" cy="137.5" r="0.8"/>
	<circle class="st1" cx="237.2" cy="137.4" r="0.7"/>
	<circle class="st1" cx="233.6" cy="137.2" r="0.5"/>
	<path class="st1" d="M232.2,137.2c0,0-12.2,0-13.7,0.1s-10.8,0.8-13.2,1.2s-9.1,1.1-9.8,1.3s-1.5,0.3-2,0.3s11.5-1.3,11.9-1.3
		s12.9-1.2,13.1-1.2C218.7,137.7,232.2,137.2,232.2,137.2z"/>
	<path class="st1" d="M235.1,127.9c-0.1,0-0.2,0-0.2,0c0-0.1,0-0.2,0.1-0.2c0.5,0,0.6,0.3,0.6,0.4s-0.1,0.5-0.5,0.6
		c-0.2,0-0.4,0-0.5-0.1s-0.3-0.3-0.3-0.6s0.1-0.6,0.4-0.8c0.3-0.2,0.7-0.3,1.1-0.1c0.5,0.2,3,1.1,3.4,1.2c0.5,0.2,4.7,1.4,5.4,1.5
		c0.6,0.1,2.8,0.7,3.6,0.7c0.4,0,2,0.2,2.3,0.2s5.2,0.6,5.9,0.7c0.8,0.1,2.2,0.4,2.7,0.5c0.4,0.1,3.4,0.7,3.5,0.7
		c0.2,0.1-0.5-0.1-0.8-0.1s-4.4-0.8-5.4-0.9c-0.9-0.1-5.7-0.6-6-0.7c-0.3,0-2.6,0-3.2,0c-0.3,0-2.9,0.2-3.1,0.2
		c-0.3,0-3.7,0.4-4.2,0.4c-0.4,0.1-1.7,0.3-2.4,0.4c-0.5,0.1-2.5,0.5-2.7-0.2c-0.1-0.1,0-0.4,0-0.6c0.1-0.2,0.6-0.3,0.8-0.1
		c0.1,0.1,0.2,0.3,0.1,0.4c0,0.1-0.1,0.2-0.2,0.2c-0.2,0.1-0.5-0.2-0.3-0.3s0.1,0.1,0.2,0.1c0.3,0,0.2-0.3,0-0.4
		c-0.4-0.1-0.5,0.2-0.5,0.3c0,0.2,0.3,0.4,0.6,0.4c0.2,0,0.5-0.1,0.8-0.2c0.4-0.2,0.8-0.3,1.1-0.6c0.2-0.2,0.2-0.3,0.2-0.3
		s-1.2-0.2-1.7-0.2c-0.7,0-2.7,0.3-2.8,0.4c-0.2,0.1-1.6,0.5-1.6,0.5s0-0.1,0.2-0.2c0.2-0.2,1.7-1,1.7-1.2s-1.2-0.9-1.5-1.3
		c-0.2-0.2-0.6-0.5-0.5-0.6c0,0,0.7,0.3,0.9,0.4s1.1,0.5,1.3,0.5c0.3,0.1,1,0.4,1.2,0.4c0.5,0.1,2.9,0.1,2.9,0.1s0-0.2-0.2-0.6
		c-0.2-0.5-0.9-1.6-2.5-1.8c-0.2,0-0.6,0.2-0.7,0.4c-0.1,0.4,0.1,0.6,0.2,0.7c0.2,0.1,0.3,0.1,0.4,0c0.1-0.1,0.2-0.1,0.1-0.3
		C235.3,127.9,235.2,127.9,235.1,127.9z"/>
	<path class="st1" d="M231.8,130c-0.4,0-1.2,0.1-1.5,0.1c-0.7,0.1-2.4,0.6-2.7,0.7c-0.3,0.1-2.3,0.8-2.3,0.8s0.5-0.6,0.6-0.8
		c0.4-0.3,1.8-1.1,1.6-1.1c-0.6-0.2-1.2-0.4-1.8-0.7c-0.5-0.3-0.8-1.2-0.7-1.2c0,0,0.8,0.5,1.4,0.7c1,0.4,2.7,0.8,2.9,0.8
		c0.5,0.1,1.6,0.3,2.3,0.4c0.9,0.2,2.2,0.1,2.3,0.2C234.1,130,232.5,130,231.8,130z"/>
	<path class="st1" d="M226.2,129.7c-0.3,0-0.9-0.1-1.2-0.1c-0.6-0.1-1.9-0.7-2.2-0.8s-1.8-0.9-1.8-0.9s0.4,0.7,0.5,0.9
		c0.3,0.3,1.5,1.2,1.3,1.2c-0.4,0.2-1,0.4-1.5,0.8c-0.4,0.4-0.6,1.3-0.6,1.4c0,0,0.7-0.5,1.1-0.8c0.8-0.5,2.2-0.9,2.4-0.9
		c0.4-0.1,1.3-0.3,1.9-0.5c0.8-0.2,1.8-0.1,1.8-0.2C228,129.7,226.7,129.7,226.2,129.7z"/>
	<circle class="st1" cx="235" cy="127.8" r="0.8"/>
	<circle class="st1" cx="235.4" cy="131.3" r="0.7"/>
	<circle class="st1" cx="194.4" cy="135.3" r="1.1"/>
	<circle class="st1" cx="183.3" cy="138.1" r="1"/>
	<path class="st1" d="M185.7,137.2c0,0,1.2-0.4,1.7-0.8c0.5-0.4,1.3-1.5,1.3-1.5s0.4,0.3,1,0.5s2.4,0.3,2.4,0.3s-1.2,0.3-1.7,0.7
		s-1.1,1.2-1.1,1.2s-0.7-0.3-1.4-0.4C187.3,137.2,185.7,137.2,185.7,137.2z"/>
	<polygon class="st1" points="181,138.2 181.5,138.7 159.8,145.6 	"/>
	<path class="st1" d="M222,130l0.2-0.1l-0.4-0.2c0,0-10.9,1.2-12.7,1.5c-1.7,0.3-13.1,3.4-13.1,3.4v0.4c0,0,12.4-3.4,13.6-3.6
		C210.9,131.1,222,130,222,130z"/>
	<path class="st1" d="M211,124.3c0.5-0.1,0.4-0.1,0.6-0.3c0.7-0.5,0.5-1.1,0.5-1.1l10.9,1.2l-0.3,0.3c0,0-3.9,0.1-5.1,0.5
		c-1.2,0.4-3.9,2.1-4.2,2.4c-0.2,0.2-0.4-0.1-1.1-0.3c-0.6-0.3-1.1-0.1-1.1-0.1s1.6-0.9,2.1-1.2c0.6-0.4,2.2-1.2,2.2-1.2
		s-1.2,0.2-1.9,0C212.9,124.4,211,124.3,211,124.3z"/>
	<path class="st1" d="M209,124.6c-0.4-0.1-0.6,0.3-0.5,1.2c0.1,0.7,0.6,0.9,0.7,1c0.3,0.1,1-0.7,1.4-0.9c0.5-0.3,1.9-0.6,2-0.6
		s0.4-0.2,0.4-0.2s-1.7,0-2.4-0.1C210,125,209.3,124.7,209,124.6z"/>
	<path class="st1" d="M208.1,125.8l-0.3,0.4c0,0-0.8,0.4-1.5,0.8c-0.7,0.3-1.9,0.7-2.3,0.4c-0.2-0.1-0.5-0.5-0.3-0.7
		c0.2-0.4,1.2-0.7,1.8-0.8C206.2,125.8,208.1,125.8,208.1,125.8z"/>
	<ellipse transform="matrix(0.9589 -0.2837 0.2837 0.9589 -28.0432 62.3684)" class="st1" cx="201.3" cy="128" rx="1.8" ry="0.5"/>
	<ellipse transform="matrix(0.957 -0.2902 0.2902 0.957 -29.0701 62.767)" class="st1" cx="197.1" cy="129.4" rx="1.9" ry="0.4"/>
	<ellipse transform="matrix(0.969 -0.2471 0.2471 0.969 -26.277 51.8143)" class="st1" cx="193.3" cy="130.6" rx="1.6" ry="0.4"/>
	<path class="st1" d="M190.3,131.6c0,0,1.1-0.4,1.2-0.2c0.1,0.2-0.2,0.2-0.8,0.5c-0.7,0.3-20.8,8.1-21.3,8.2c-0.5,0.2-8.1,3-8.1,3
		l0.7-0.8c0,0,14.3-5.2,15-5.5C177.8,136.6,190.3,131.6,190.3,131.6z"/>
	<path class="st1" d="M177.4,134.2l26.1-12.2l0.2-0.6l-1.8,0.9c0,0-1.2,0.6-2.3,1c-0.9,0.3-5.5,0.1-5.8,0.1c-0.4,0-2.1-0.3-3,0.4
		c-0.8,0.6-1,2-0.6,2.6c0.4,0.5,1,0.7,1.7,0.5c0.6-0.2,1.2-1.3,1.4-1.5c0.3-0.3,0.3,0.4,0.1,0.8c-0.2,0.3-0.2,0.5-0.4,0.7
		c-0.1,0-2.5,1.2-3,1.3c-0.3,0.1-0.6-0.1-1-0.4c-0.3-0.2-0.4-0.6-0.4-1c0-0.6-0.3,0.1-0.3,0.3c0,0.2-0.2,0.7-0.1,1.2
		c0.1,0.3,0.4,0.6,0.4,0.6s-0.2,0.4-1.1,0.3c-0.9-0.1-1.2-0.1-1.7-0.2c-0.4-0.1-0.4,0.1-0.3,0.2c0,0.2,0.1,0.6,0,0.8
		c-0.2,0.8-1.1,0.9-1.4,0.9c-0.3,0-0.4-0.2-0.9-0.4c-0.4-0.2-0.9-0.1-1-0.1c-0.1,0.1,0,0,0.1,0.3s0.3,0.6,0.2,0.9
		c-0.1,0.2-0.4,0.4-0.6,0.5c-0.1,0.1-1.8,0.9-2.6,1.1c-0.7,0.2-1.5,0.2-2.1,0c-0.5-0.2-0.6,0-0.3,0.2c0.2,0.2,0.3,0.2,0.4,0.5
		C177.4,134,177.4,134.2,177.4,134.2z"/>
	<path class="st2" d="M107.8,151.2c23.6,3.4,50.9-9.9,53.7-10.9c4.7-1.8,15.3-5.8,17.2-6.6c1.5-0.6,24.8-11.7,24.8-11.7"/>
	<path class="st1" d="M177,128.2c-0.1-0.2-0.2-0.8,0.1-1.4c0.3-0.5,1.2-1.3,2.9-1.5c1.9-0.3,4-0.9,4.8-1.2c0.7-0.3,5.3-2.4,5.8-2.7
		c0.6-0.3,1.5-0.6,2.1-0.6s1.2,0.2,1.4,0.5s0.2,0.9-0.1,1c-0.7,0.4-0.8,0.3-0.9,0.1c-0.2-0.3,0.6-0.3,0.7-0.5
		c0.1-0.3-0.1-0.4-0.4-0.5c-0.4-0.2-1.6-0.1-2.3,0.2c-0.6,0.3-3.8,1.8-4.5,2.2c-0.7,0.4-3.2,2-3.9,2.7c-0.6,0.6-1.6,2.6-2.9,2.9
		c-0.9,0.2-1.7,0-2.2-0.4C177.3,128.8,177.2,128.5,177,128.2z"/>
	<ellipse class="st1" cx="193.4" cy="122.3" rx="0.4" ry="0.4"/>
	<ellipse class="st1" cx="175.8" cy="129.6" rx="1.4" ry="1.2"/>
	<ellipse class="st1" cx="173.4" cy="130.9" rx="0.9" ry="0.8"/>
	<ellipse class="st1" cx="171.3" cy="131.7" rx="0.5" ry="0.5"/>
	<circle class="st1" cx="169.4" cy="132.7" r="0.6"/>
	<circle class="st1" cx="167.5" cy="133.5" r="0.6"/>
	
		<ellipse transform="matrix(0.2129 -0.9771 0.9771 0.2129 -0.8631 268.0174)" class="st1" cx="165.9" cy="134.5" rx="0.6" ry="0.6"/>
	<circle class="st1" cx="164" cy="135.4" r="0.6"/>
	
		<ellipse transform="matrix(0.6077 -0.7941 0.7941 0.6077 -44.4614 182.3916)" class="st1" cx="162.4" cy="136.2" rx="0.4" ry="0.4"/>
	<ellipse transform="matrix(0.1292 -0.9916 0.9916 0.1292 4.3302 278.8981)" class="st1" cx="161" cy="137" rx="0.4" ry="0.4"/>
	<path class="st2" d="M107.8,151.2c4.7,0.2,9.2,0.6,13.6-0.1c21.1-3.7,35.1-12.7,38.5-13.7"/>
	<circle class="st1" cx="157.4" cy="136.9" r="0.2"/>
	<circle class="st1" cx="158.7" cy="139.6" r="0.2"/>
	<path class="st1" d="M159.9,137.6c-0.1,0.2-1.1,1.9-1.1,1.9s0.2-0.1,0.3,0.1c0.4,0.6-0.3,1.1-0.8,0.9c-0.5-0.2-0.4-0.7-0.3-0.9
		c0.1-0.3,0.5-0.5,1-0.5s1,0,1.1-0.1c0.2-0.1,0.2-0.4,0.1-0.5c-0.1-0.1-0.4-0.1-0.8-0.1c-0.3,0-0.9,0-1.8,0.8
		c-0.3,0.3-1.7,2.4-3.2,1.9c-0.3-0.1-0.5-0.3-0.7-0.6l-0.1-0.3c-0.1-0.3-0.1-0.7,0-1c0.5-1.4,3.1-1.2,3.5-1.3
		c1.2-0.2,1.6-0.7,1.8-0.9c0.3-0.3,0.5-0.6,0.4-0.7c0-0.1-0.2-0.3-0.4-0.2s-0.5,0.4-0.8,0.8c-0.3,0.4-0.8,0.6-1,0.5
		c-0.3-0.1-0.7-0.3-0.6-0.8c0.1-0.5,1-0.7,1.2-0.1c0.1,0.2-0.1,0.3-0.1,0.3s2,0.3,2.2,0.3C159.9,137.3,160,137.5,159.9,137.6z"/>
	<path class="st1" d="M155.3,136.3c0,0,3.4-2.6,4.6-3.6c1.2-1.1,3.5-4.1,3.5-4.7c0.1-0.8,0.3-0.7,0.7-0.3s0.7,0.9,0.8,1.2
		c0.1,0.2,0.2,0.4,0.5-0.3s0.9-1.2,1.4-1.5c0.4-0.3,1.4-0.5,2-0.5c0.5,0,1.2,0,1.7,0.1s0.6-0.3,0.8-0.6c0.3-0.3,0.9-0.6,1.3-0.6
		c0.4,0,0.6,0,0.9-0.1c0.3-0.1,0.4-0.5,0.6-0.8c0.3-0.3,0.7-0.2,1-0.2c0.4,0,0.5,0,0.9-0.1c0.4-0.2,0.3-0.4,0.6-0.6s0.8-0.1,1-0.1
		s1.3-0.8,1.8-1.1c0.8-0.5,1.1-0.9,1.9-1.1c0.9-0.1,1.2,0.3,1.3,0.5s-0.2,0-0.6-0.1c-0.5-0.2-1.2,0.2-1.5,0.4
		c-0.2,0.1-6.2,3.9-12.4,7.4C161.7,133,155.3,136.3,155.3,136.3z"/>
	<ellipse class="st1" cx="182.3" cy="122" rx="0.4" ry="0.4"/>
	<path class="st2" d="M107.8,151.2c0,0,7.9,0.3,11.8-0.1c5.6-0.6,15.9-5.4,18.3-6.5c2.5-1.1,16.5-7.2,19.2-9.5"/>
	<path class="st1" d="M151.6,132.9c0,0,0,0,0.1-0.1c0.4-0.3,2-1.5,2.3-2.4c0.3-1,0.5-1.6,0.3-1.9c-0.3-0.3-0.4-0.4-0.7-0.5
		c-0.2-0.1-0.2-0.4,0.1-0.4s0.4-0.1,0.7-0.1c0.2-0.1,0.7-0.1,1,0c0.4,0.1,0.7,0.2,0.7,0.7c0,0.4,0.1,0.6,0.4,0.3s0.7-0.7,0.8-0.9
		c0.1-0.2,0-0.4-0.3-0.2c-0.3,0.2-0.1,0.4-0.4,0.5c-0.3,0-0.5-0.1-0.7-0.4s-0.3-0.8-0.1-1.2c0.1-0.4,0.7-1,1.4-1.2
		c1-0.3,2.7-0.8,3.6-1c1-0.1,1.1-0.2,2.2-0.7c1-0.5,6.6-2.5,7.9-2.7c0.7-0.1,1.7-0.3,2.4,0c1.1,0.4,1.2,1.2,1.2,1.6s-0.2,1-0.6,1.3
		c-0.4,0.3-1.6,0.7-2.1,0.1c-0.5-0.7-0.3-1.3,0-1.6c0.2-0.3,0.8-0.4,1.2-0.3c0.5,0.1,0.7,0.7,0.5,1c-0.2,0.2-0.4,0-0.4-0.2
		s0-0.5-0.4-0.5s-0.6,0.2-0.7,0.5c-0.1,0.3,0.1,0.8,0.3,0.9c0.3,0.2,0.7,0.1,1-0.1c0.4-0.2,0.7-0.5,0.7-1c0.1-0.4-0.1-1.1-0.6-1.3
		c-0.5-0.2-0.9-0.2-1.3-0.2c-2.7,0.2-9.9,3.6-11.4,4.7C159.7,126.6,151.6,132.9,151.6,132.9z"/>
	<circle class="st1" cx="173.1" cy="122.6" r="0.5"/>
	<path class="st2" d="M154.3,130.7c-8.6,6.8-8.6,6.8-10.3,8.2c-0.5,0.4-5.1,3.6-10.4,6.1c-6.7,3.2-10.9,5.1-16.8,5.8
		c-3.3,0.4-8.5,0.3-9,0.3"/>
	<circle class="st1" cx="157.3" cy="123.4" r="0.2"/>
	<path class="st1" d="M153.1,123.3c0.9-1.2,2.4-1.6,3.8-1.4c0.4,0.1,1.2,0.4,1.4,0.9c0.2,0.4,0.2,1.1,0,1.4
		c-0.3,0.4-1.1,0.6-1.6,0.3c-0.3-0.2-0.4-0.6-0.3-0.9c0.1-0.3,0.3-0.6,0.5-0.7c0.3-0.1,0.5-0.1,0.6,0c0.2,0.1,0.2,0.3,0.2,0.5
		c0,0.3-0.3,0.3-0.4,0.3c0,0,0.2-0.2,0.2-0.4c0-0.1-0.1-0.1-0.2-0.2c-0.3-0.1-0.9,0.7-0.3,1.1c0.5,0.3,1.2,0,1.2-0.7
		c0-0.5-0.4-1.1-1.1-1.2c-0.3-0.1-2.1-0.1-3.1,1.4c-0.2,0.3-0.7,1.1-1,1.5c-0.1,0.1-0.1,0.2,0,0.2s0.3,0,0.5,0.1
		c0.3,0.2,0.5,0.8,0.4,1.1c-0.1,0.2-0.3,0.6-0.4,0.8c-0.1,0.1-0.2,0.2-0.3,0.2s0-0.1,0-0.3c0-0.2,0-0.7-0.4-0.7
		c-0.2,0-0.8,0-0.8,0.4c0,0.3-0.1,1.6-1.1,2c-0.4,0.2-1.1,0.2-1.5-0.1l0,0c-0.4-0.4-0.5-1.1-0.4-1.5c0.3-1,1.5-1.3,1.8-1.4
		c0.4-0.1,0.3-0.6,0.2-0.9s-0.6-0.3-0.8-0.2c-0.2,0.1-0.2,0.2-0.3,0.1c0-0.1,0-0.2,0.1-0.3c0.1-0.2,0.5-0.4,0.7-0.6
		c0.3-0.2,0.9-0.1,1.2,0.1c0.1,0.1,0.2,0.3,0.2,0.4s0.1,0.1,0.2,0C152.4,124.3,152.9,123.6,153.1,123.3z"/>
	<circle class="st1" cx="148.3" cy="130.1" r="0.8"/>
	<circle class="st1" cx="147.1" cy="131.5" r="0.5"/>
	<path class="st2" d="M145.1,130.9c0,0-0.4,0.2-0.2,0.5c0.2,0.2,0.4,0.1,0.7,0c0.4-0.2,0.5-0.7,0.4-0.9c-0.1-0.3-0.6-0.7-1.3-0.5
		c-0.5,0.2-1.3,0.6-1.7,2.3c-0.2,1.1-1.6,3-2.5,3.3"/>
	<ellipse class="st1" cx="145.1" cy="131.2" rx="0.4" ry="0.5"/>
	<path class="st2" d="M148.8,131.9c0,0-0.4-0.2-0.3-0.5c0.1-0.4,0.4-0.5,0.7-0.5c0.4,0.1,0.6,0.6,0.5,1s-0.4,1-1.9,1.6
		c-0.7,0.3-1.3,0.6-1.7,1c-0.2,0.2-0.4,0.7-0.8,1.1c-0.3,0.3-6.8,5.7-9.5,6.7"/>
	<path class="st3" d="M145.8,135.1c0,0,0.4-0.1,0.6-0.4c1-1,1.5-0.6,1.7-0.4c0.2,0.3,0,0.7-0.5,0.7"/>
	<ellipse class="st1" cx="147.7" cy="134.9" rx="0.4" ry="0.4"/>
	<ellipse class="st1" cx="148.8" cy="131.6" rx="0.5" ry="0.5"/>
	<path class="st4" d="M147,131.7c0,0-5.4,4.8-6.5,5.8c-0.6,0.5-4.8,3.5-6.2,4.5c-2.3,1.6-8.4,4.7-9.3,4.9"/>
	<path class="st1" d="M132.2,141.8c0,0,4.8-3.6,6-5.2c1.6-2.1,2.9-3.9,4.5-5.9c1.4-1.8,1.9-2.4,2.8-3.4c0.9-0.9,4-3.6,5.3-4.4
		c1.2-0.7,3.4-1.5,5.2-1.8c1.9-0.3,4.4-0.2,5.4-0.1c1.1,0.2,1.5,0.3,2,0.6c0.6,0.3,0.6,0.4,0.6,0.4l-0.2-0.8c0,0-0.5-0.2-1.5-0.4
		c-1-0.2-3.5-0.6-4.7-0.5c-1.1,0-5.6,0.2-8.7,2.7c-0.8,0.7-3.3,2.8-4.6,3.9c-0.6,0.5-1.5,1.8-2,1.9c-0.5,0.2-0.5-0.2-0.7-1
		s-0.4-1.2-0.5-1.7c-0.4-1.1-0.4-0.7-0.4-0.3c0,0.4,0.2,1.7,0,2.5s-0.6,3-1.5,4.8c-0.6,1.2-1.3,2.9-2.3,4s-2.4,2.4-3.4,3.2
		s-1.4,1.1-1.4,1.1L132.2,141.8z"/>
	<path class="st5" d="M137.6,124.6c0.2-0.3,0.2-0.5,0.5-0.4c0.4,0.1,0.4,0.7,0.1,1c-0.2,0.1-0.5,0.3-0.9,0.2c-0.4-0.1-0.6-0.6-0.6-1
		c0.1-0.4,0.4-0.8,1-0.8c1.9,0,3.5,4.5,0.9,9.7"/>
	<path class="st3" d="M133.4,125c0,0,0.1-0.8,0.7-1.1c0.6-0.3,1.2-0.2,1.5,0c0.5,0.2,0.9,1.1,0.9,1.6c0,0.6-0.3,1.4-0.8,1.8
		c-0.5,0.5-1.7,0.7-2.4,0.4c-0.8-0.3-1.6-1.4-1.9-2.6c-0.3-1.4,0.5-2.6,0.8-3.1c0.4-0.6,1.6-1.4,2.8-1.5c1,0,2.2,0.3,2.9,0.7
		c1.2,0.8,2.3,2.1,2.5,2.8c0.5,1.4,0.7,2.8,0.6,3.5"/>
	<circle class="st1" cx="134.3" cy="125" r="1.1"/>
	<path class="st1" d="M136.9,127.8c0,0,0,0.1,0.1,0.7c0.1,0.7,0.3,1.7,0.2,2.8c0,0.7-0.1,2.6-0.5,3.9c-0.3,1-0.8,1.7-1.2,2.3
		c-0.2,0.3-0.2,0.5-0.2,0.5s0.3-0.3,0.7-0.9c0.8-1,1.2-2.4,1.5-3c0.3-0.9,0.5-2.3,0.6-3.1s0.1-2.4,0.1-2.6c0-0.2-0.2-0.1-0.6,0
		C137.3,128.3,136.9,127.8,136.9,127.8z"/>
	<path class="st6" d="M138,128.5c0,0-0.1-1.1,0.5-1.2c0.5-0.1,0.6,0.2,0.6,0.4c0,0.4-0.2,0.4-0.3,0.3"/>
	<circle class="st1" cx="138.8" cy="127.9" r="0.3"/>
	<path class="st6" d="M137.1,128.9c0,0-0.2-0.3-0.5-0.4c-0.3-0.1-0.6,0.1-0.8,0.4c-0.1,0.2-0.2,0.7,0.1,0.9s0.6,0.1,0.7-0.1
		c0.1-0.2,0-0.5-0.1-0.6"/>
	<circle class="st1" cx="136.5" cy="129.2" r="0.3"/>
	<circle class="st1" cx="137.9" cy="124.6" r="0.5"/>
	<ellipse class="st1" cx="130.6" cy="130.4" rx="0.4" ry="0.5"/>
	<path class="st5" d="M133,131.1c-0.4,0.1-1-0.1-0.7-0.9c0.2-0.4,0.8-0.5,1.2-0.3c0.5,0.2,0.8,0.8,1,1.5c0.9,2.7-1,7.9-1,7.9
		c0.2-0.2,2-3.4,2.1-5.7c0.1-1.8-0.7-5.1-3.5-5.5c-0.9-0.1-3.3,0.5-2.7,2.6c0.3,0.9,1,1.2,1.5,1.1c0.5-0.1,0.8-0.4,0.9-1
		c0.1-0.6-0.2-1.2-0.7-1.3c-0.3-0.1-0.7,0-0.9,0.3c-0.1,0.3-0.2,0.9,0.2,1.1c0.4,0.2,0.6,0,0.5-0.4"/>
	<ellipse class="st1" cx="132.8" cy="130.7" rx="0.5" ry="0.5"/>
	<circle class="st1" cx="109.9" cy="82.9" r="1.2"/>
	<circle class="st1" cx="157.4" cy="82.9" r="1.2"/>
	<circle class="st1" cx="157.4" cy="118.1" r="1.2"/>
	<path class="st1" d="M107.5,84.9"/>
	<circle class="st1" cx="123.1" cy="118.1" r="1.2"/>
	<path class="st1" d="M137.8,114.2"/>
	<path class="st1" d="M85.9,115.2c1.6-0.8,2.9-1.7,4.2-2.9c1.5-1.3,2.8-2.7,3.9-4.3c0.3-0.4,0.5-0.8,0.8-1.2
		c-0.3-0.2-0.5-0.4-0.7-0.6c-2-1.9-1.4-5.5,1.1-6.7c1.2-0.6,2.3-0.7,3.7-0.5c0.2,0,0.6,0.1,0.7,0.1c2.7-4.4,5.4-8.9,8.1-13.4l0,0
		c-2.3,0-4,0.9-5.1,2.9c-1.1-1.9-3.2-3.1-5.1-3.4V85c1.6,0,22.4,0,25.6,0v0.2c-1.9,0.2-4,1.4-5.1,3.4c-1.1-1.9-2.8-2.9-5.1-2.9l0,0
		c0.4,0.6,12.4,19.7,14.7,23.2c1.2,1.9,2.6,3.7,4.4,5.1c1.1,0.9,2.1,1.5,3.7,1.5c0.2,0,0.5,0,0.8,0c0-0.2,0-2.5,0-2.6
		c1.2,2,2.2,2.7,3.9,3.2c0,0.1,0,0.1,0,0.2c-0.1,0-28.9,0-31,0c0,0-4,0-4.1,0c0-0.1,0-0.1,0-0.2c1.7-0.5,2.7-1.2,3.9-3.2
		c0,0.1,0,2.5,0,2.6c0.1,0,0.1,0,0.2,0c0.9,0,1.3-0.1,1.8-0.5c0.6-0.5,0.9-1.2,1.1-1.9c0.4-1.7,0.1-3.2-0.9-4.6
		c-0.5-0.7-0.9-1.4-1.4-2.1c-2.2,1.2-4.3,0.8-6.5,0c-2.3-0.8-3.4-2.9-4.6-4.7c-0.1,0.2-0.6,1-0.6,1c1.5,0.8,1.3,2.2,1.3,2.2
		c-0.1,1-0.6,1.7-1.6,2.2c-0.6,0.3-1.1,0.3-1.8,0.2c-0.2,0-0.7-0.1-0.7-0.1s-0.1,0.2-0.2,0.5c-0.6,0.9-0.8,1.9-0.6,3
		c0.2,1.4,0.6,2.8,1.6,3.9c0.5,0.6,1.1,0.9,1.9,0.9h0.2c0-0.2,0-2.6,0-2.6c1.2,2,2.2,2.7,3.9,3.2c0,0.1,0,0.1,0,0.2c0,0-21,0-21.3,0
		c0-0.1,0-0.1,0-0.2c1.7-0.5,2.7-1.3,3.9-3.2c0,0.1,0,2.5,0,2.7C85.3,115.5,85.7,115.3,85.9,115.2z M100.2,99.4
		c0.5,0.4,0.9,0.8,1.3,1.1c0.8,0.7,1.3,1.6,1.8,2.6c0.5,0.9,1,1.6,1.7,2.3c1,0.9,3.2,1.7,4.6,0.2c-2.1-3.5-4.3-7-6.4-10.4
		c-0.1-0.1-0.2-0.2-0.3-0.4L100.2,99.4z M95.7,105c-0.7-1.5,0.7-2.5,1.6-2.5c0.1-0.2,0.7-1.1,0.9-1.5c-1.2-1-3.1-0.9-3.8,0.3
		c-0.7,1.1-0.8,2.3-0.3,3.5c0.2,0.5,0.7,0.9,1.1,1.1C95.4,105.6,95.7,105.1,95.7,105L95.7,105z M96.3,105.8c0,0-0.2,0.4-0.3,0.6
		c0.6,0.2,1.1,0.3,1.5-0.2h-0.1C96.8,106.1,96.7,106,96.3,105.8z"/>
	<circle class="st1" cx="90.9" cy="118.1" r="1.2"/>
	<path class="st1" d="M142.1,116.2c0-0.1,0-0.1,0-0.2c1.7-0.5,2.7-1.2,3.9-3.2c0,0.1,0,2.4,0,2.5c0.1,0,0.1,0,0.2,0
		c0,0,1.6,0,2.7-0.7c1.4-1.1,1.9-2.2,2.1-3.8c0-1.3,0.1-17,0.1-19.6c0-2.1-0.8-4-2.3-5.1c-0.9-0.6-2.8-0.5-2.8-0.5
		c0,0.1,0,2.8,0,2.9c-1.2-2-2.2-3-3.9-3.4c0-0.1,0-0.1,0-0.2c0,0,1.6,0,4.1,0l0,0c3,0,19.4,0,22.4,0l0,0c2.5,0,4.1,0,4.1,0
		c0,0.1,0,0.1,0,0.2c-1.7,0.5-2.7,1.5-3.9,3.4c0-0.1,0-2.7,0-2.9c0,0-2-0.1-2.8,0.5c-1.5,1.1-2.3,3-2.3,5.1c0,2.6,0.1,18.3,0.1,19.6
		c0.1,1.5,0.7,2.6,2.1,3.8c1.1,0.7,2.7,0.7,2.7,0.7c0.1,0,0.1,0,0.2,0c0-0.2,0-2.4,0-2.5c1.2,2,2.2,2.7,3.9,3.2c0,0.1,0,0.1,0,0.2
		C172.7,116.2,142.2,116.2,142.1,116.2z"/>
	<circle class="st1" cx="190.1" cy="82.9" r="1.2"/>
	<circle class="st1" cx="186.5" cy="118.1" r="1.2"/>
	<path class="st1" d="M186.3,91.7"/>
	<circle class="st1" cx="213.3" cy="82.9" r="1.2"/>
	<circle class="st1" cx="212.4" cy="118.1" r="1.2"/>
	<circle class="st1" cx="253.4" cy="118.1" r="1.2"/>
	<path class="st1" d="M203,116.2c0,0,0-0.1,0-0.2c1.3-0.2,2.6-1,3.4-2.3c0.7,1.3,2,1.7,3.5,1.8l0,0c-7.4-8.4-15-16.7-22.6-25.1
		c-0.1,0.2-0.2,0.7-0.2,1.5c0,0,0,13.1,0,15.5c0,2.2,0.7,4.3,2.1,6c0.5,0.7,1.2,1.3,1.9,1.8c0.6,0.4,2.1,0.4,2.1,0.4
		c0-0.2,0-2.5,0-2.6c1.2,2,2.2,2.7,3.9,3.2c0,0.1,0,0.1,0,0.2h-21c0-0.1,0-0.1,0-0.2c1.7-0.5,2.7-1.2,3.9-3.2c0,0.1,0,2.5,0,2.6
		c0.1,0,1.5,0,2.1-0.4c0.7-0.5,1.4-1.1,1.9-1.8c1.4-1.7,2.1-3.7,2.1-6s0-15.5,0-15.5c0.1-3-2.2-5.3-4.6-6c-0.4-0.1-1.4-0.1-1.4-0.1
		c0,0.2,0,2.5,0,2.6c-1.2-2-2.2-2.7-3.9-3.2c0-0.1,0-0.1,0-0.2c0,0,20.4,0,22.3,0c0.3,0,0.5,0.2,0.7,0.5c2.5,2.9,13.2,14.9,13.4,15
		c0-0.3,0-8.6,0-10.1c0-1.3-0.7-2.6-2.1-3.6c-0.5-0.4-1.2-0.8-1.9-1.1c-0.6-0.2-2.1-0.2-2.1-0.2c0,0.1,0,1.5,0,1.6
		c-1.2-1.2-2.2-1.6-3.9-1.9c0,0,0-0.1,0-0.2h21c0,0,0,0.1,0,0.2c-1.7,0.3-2.7,0.7-3.9,1.9c0-0.1,0-1.5,0-1.6c-0.1,0-1.5,0-2.1,0.2
		c-0.7,0.3-1.4,0.7-1.9,1.1c-1.4,1-2.1,2.3-2.1,3.6c0,1.4,0,24.8,0,25.1l0,0c1.5-0.1,2.7-0.5,3.5-1.8c0.8,1.4,2.1,2.2,3.4,2.3
		c0,0,0,0.1,0,0.2c-0.5,0-3.5,0-6.9,0C213.7,116.2,203.3,116.2,203,116.2z"/>
	<circle class="st1" cx="253.2" cy="82.9" r="1.2"/>
	<path class="st1" d="M250.9,96.2"/>
	<path class="st1" d="M256.7,101.4"/>
	<path class="st1" d="M254.7,95L254.7,95L254.7,95z"/>
	<path class="st1" d="M249.5,100.1c0,0.1,0,11.7,0,12.5c0.2,1.3,1.2,2.2,2.3,2.6c0.6,0.2,1.3,0.2,1.9,0.3c2.6,0,5.1,0,7.6,0
		c1.4,0,2.6-0.1,3.9-0.5c1.4-0.5,2.5-1.4,2.7-3c-0.1,0.1-0.4,0.3-0.4,0.3c-2.1,1.5-4.9,1.7-7,1.2c-1.1-0.3-1.9-0.7-2.8-1.3
		c-1-0.8-1.7-1.8-1.8-2.8c-0.2-1.6,0.8-3.1,2.3-4c1.1-0.7,2.5-1.1,4-1.1c1.6-0.1,3.3,0.3,4.6,1c2.4,1.3,3.3,3.4,2.7,6.3
		c-0.3,1.1-1.2,2.9-2.5,3.6c-1.2,0.6-2.3,1-4.5,1c-2.1,0-34.4,0-34.4,0c0-0.1,0-0.1,0-0.2c2-0.5,3.2-1.2,4.6-3.2c0,0.1,0,2.5,0,2.6
		h0.6c2.5-0.1,3-0.6,3.5-1.7c0.4-0.8,0.6-1.6,0.6-2.5c0-6.5,0-13.1,0-19.6c0-1.2-0.3-2.2-0.9-3.2c-0.5-0.9-1.1-1.7-1.9-2.3
		c-0.6-0.4-1.8-0.5-1.9-0.5c0,0.2,0,2.5,0,2.6c-1.4-2-2.6-2.7-4.6-3.2c0-0.1,0-0.1,0-0.2c0,0,1.9,0,4.9,0c0,0,27.7,0,29.7,0
		c2.3,0.1,4.1,1.2,5.5,3c0.3,0.4,0.6,0.9,0.8,1.4c0.7,1.8,0.7,3.2-1.4,4.7c-0.7,0.5-1.3,0.7-2.2,1c-1.8,0.5-3.6,0.3-5.2-0.3
		c-1.2-0.4-2.4-1.2-3-2.7c-0.3-0.9,0-1.9,0.4-2.5c0.9-1.2,2.2-1.8,3.4-2.1c1.7-0.4,3.8-0.4,5.9,0.6c-0.1-0.4-0.6-0.9-1.1-1.2
		c-1.2-0.8-2.5-1.1-3.9-1.1c-2.3,0-4.7,0-7,0c-2.6,0-4.6,1.8-5.2,3.5c-0.2,0.5-0.3,1.1-0.3,1.6c0,2.7,0,8.2,0,8.5
		c0,0,2.5-0.4,3.2-0.9c1.1-0.7,2-3.2,2-3.2s1.2,2.7,1.9,3.2c0.7,0.6,3.5,1.3,3.5,1.3s-3.1,1-3.7,1.7c-0.6,0.6-1.6,3.1-1.6,3.1
		s-1.3-2.3-2-2.9C251.8,100.8,249.5,100.1,249.5,100.1z"/>
	<path class="st1" d="M272,116.2c0-0.1,0-0.1,0-0.2c-1-0.5-1.9-1-2.6-2l0,0c-0.7,0.9-1.5,1.5-2.6,2c0,0.1,0,0.1,0,0.2
		C267.7,116.2,271.1,116.2,272,116.2z"/>
	<path class="st1" d="M266.8,84.9c0,0.1,0,0.1,0,0.2c1,0.5,1.9,1,2.6,2l0,0c0.7-0.9,1.5-1.5,2.6-2c0-0.1,0-0.1,0-0.2
		C271.1,84.9,267.7,84.9,266.8,84.9z"/>
	<ellipse class="st1" cx="124.4" cy="136.6" rx="1.4" ry="1.4"/>
	<path class="st2" d="M124.7,140.3c-6.6,6.7-21.3,7.5-33.9,3.7c-3-0.9-8.1-3.5-11.2-5.6"/>
	<path class="st1" d="M125.4,135.7c0.3,0.2,0.6,1,0.6,1.8c0,1-0.2,1.7-1,2.9c-0.6,0.8-2.2,1.9-3.6,2.5s-2.8,1.4-3.5,1.7h-0.1
		c4.5-1.4,6.6-3.9,7-4.8c0.5-1,0.4-1.7,0.3-2.1"/>
	<path class="st1" d="M119.2,137c0,0,0.6-0.8,1.8-0.5c1.2,0.4,1.1,1.5,1.1,1.5s-1.5,2.2-4,3.9c-2.3,1.5-5.5,3.5-12.5,3.6
		s-7.1-0.4-7.1-0.4s9.5,0.8,12.9-0.7c3.9-1.7,5.5-3.5,6.5-4.6C119,138.3,119.2,137,119.2,137z"/>
	<path class="st1" d="M114.5,139.7c0,0,0.4-0.6,0.4-0.8c0-0.4,0.7,0.6-0.5,1.5c-1.6,1.3-3.3,2-5.3,2.8c-2.2,0.8-6.6,1.6-9.6,1.4
		c-5.1-0.3-5.1-0.6-5.1-0.6s3.2,0.3,6.3,0.2c1.9,0,3.7-0.3,4.9-0.6c2.2-0.5,3.3-1,4.4-1.5C114.1,140.3,114.5,139.7,114.5,139.7z"/>
	<circle class="st1" cx="113.9" cy="139.2" r="1.2"/>
	<path class="st1" d="M109.5,138.8c-0.5,0-1.5-0.3-1.1-1.2s0.6-1.1,1.2-0.9c0.5,0.2,1.3,0.7,1,1.6c-0.3,0.9-0.6,1.3-1.8,2.5
		c-1.3,1.3-3.6,2.3-6.1,2.7c-2.9,0.4-6.3,0.3-6.3,0.3s5.6-0.2,7.6-0.9c2.1-0.7,3.9-1.8,4.6-2.6C109.2,139.3,109.5,138.8,109.5,138.8
		z"/>
	<ellipse class="st1" cx="109.4" cy="137.8" rx="1.2" ry="1.2"/>
	<path class="st1" d="M104,132.5c0.6-0.3,1.3-0.4,2.1,0.1c0.9,0.6,1.8,1.6,1.5,3.8c-0.1,0.9-0.4,2.2-1.7,3.4
		c-1.2,1.3-1.8,1.6-3.7,2.4c-1.5,0.6-3.2,0.7-3.7,0.7c-0.5-0.1-0.6-0.2-0.6-0.2s2,0.3,5-1.1c1.8-0.9,3.4-2.2,3.9-4
		c0.5-1.9,0.2-2.4,0-2.9c-0.3-0.6-1.3-1.3-1.3-1.3s0,0.4-0.4,0.5c-0.6,0.2-1.3,0-1.3-0.5C103.7,132.9,104,132.5,104,132.5z"/>
	<ellipse class="st1" cx="104.5" cy="133.4" rx="1" ry="1.1"/>
	<path class="st1" d="M102.9,134.9c0.6-0.1,1.3,0.4,1.5,0.7c0.3,0.3,0.6,0.7,0.5,1.6c0,0.9-0.6,3-3,4.1c-1.1,0.5-2.9,0.9-2.9,0.9
		s2.9-0.7,4-2c1.5-1.7,1.7-2.6,1.1-3.7c-0.7-1.3-0.9,0.1-1-0.3C102.8,135.7,102.9,134.9,102.9,134.9z"/>
	<circle class="st1" cx="103" cy="135.7" r="0.9"/>
	<ellipse transform="matrix(0.9808 -0.1951 0.1951 0.9808 -24.657 22.2658)" class="st1" cx="100.7" cy="136.3" rx="0.6" ry="0.7"/>
	<path class="st1" d="M101.1,135.8c0.1,0.1,0.4,0.4,0.4,0.8c0.1,0.4,0.1,0.8-0.2,1.5c-0.2,0.4-0.8,1.1-1.4,1.5s-1.3,0.8-1.6,1l0,0
		c2-1.1,2.8-2.4,2.9-2.8c0.1-0.5,0-0.8-0.1-1"/>
	<g>
		<g>
			<rect x="235.4" y="77.4" class="st7" width="2.1" height="2.2"/>
		</g>
		<g>
			<rect x="233.2" y="77.4" class="st7" width="2.1" height="2.2"/>
		</g>
		<g>
			<rect x="231" y="77.4" class="st7" width="2.1" height="2.2"/>
		</g>
		<g>
			<rect x="228.7" y="77.4" class="st7" width="2.1" height="2.2"/>
		</g>
		<g>
			<rect x="226.5" y="77.4" class="st7" width="2.1" height="2.2"/>
		</g>
		<g>
			<rect x="224.3" y="77.4" class="st7" width="2.1" height="2.2"/>
		</g>
		<g>
			<rect x="222" y="77.4" class="st7" width="2.1" height="2.2"/>
		</g>
		<g>
			<rect x="219.8" y="77.4" class="st7" width="2.1" height="2.2"/>
		</g>
		<g>
			<rect x="217.5" y="77.4" class="st7" width="2.1" height="2.2"/>
		</g>
		<g>
			<rect x="215.3" y="77.4" class="st7" width="2.1" height="2.2"/>
		</g>
		<g>
			<rect x="213.1" y="77.4" class="st7" width="2.1" height="2.2"/>
		</g>
		<g>
			<rect x="210.8" y="77.4" class="st7" width="2.1" height="2.2"/>
		</g>
		<g>
			<rect x="208.6" y="77.4" class="st7" width="2.1" height="2.2"/>
		</g>
		<g>
			<rect x="206.4" y="77.4" class="st7" width="2.1" height="2.2"/>
		</g>
		<g>
			<rect x="204.1" y="77.4" class="st7" width="2.1" height="2.2"/>
		</g>
		<g>
			<rect x="201.9" y="77.4" class="st7" width="2.1" height="2.2"/>
		</g>
		<g>
			<rect x="199.7" y="77.4" class="st7" width="2.1" height="2.2"/>
		</g>
		<g>
			<rect x="197.4" y="77.4" class="st7" width="2.1" height="2.2"/>
		</g>
		<g>
			<rect x="195.2" y="77.4" class="st7" width="2.1" height="2.2"/>
		</g>
		<g>
			<rect x="193" y="77.4" class="st7" width="2.1" height="2.2"/>
		</g>
		<g>
			<rect x="190.7" y="77.4" class="st7" width="2.1" height="2.2"/>
		</g>
		<g>
			<rect x="188.5" y="77.4" class="st7" width="2.1" height="2.2"/>
		</g>
		<g>
			<rect x="186.2" y="77.4" class="st7" width="2.1" height="2.2"/>
		</g>
		<g>
			<rect x="184" y="77.4" class="st7" width="2.1" height="2.2"/>
		</g>
		<g>
			<rect x="181.8" y="77.4" class="st7" width="2.1" height="2.2"/>
		</g>
		<g>
			<rect x="179.5" y="77.4" class="st7" width="2.1" height="2.2"/>
		</g>
		<g>
			<rect x="177.3" y="77.4" class="st7" width="2.1" height="2.2"/>
		</g>
		<g>
			<rect x="175.1" y="77.4" class="st7" width="2.1" height="2.2"/>
		</g>
		<g>
			<rect x="172.8" y="77.4" class="st7" width="2.1" height="2.2"/>
		</g>
		<g>
			<rect x="170.6" y="77.4" class="st7" width="2.1" height="2.2"/>
		</g>
		<g>
			<rect x="168.4" y="77.4" class="st7" width="2.1" height="2.2"/>
		</g>
		<g>
			<rect x="166.1" y="77.4" class="st7" width="2.1" height="2.2"/>
		</g>
		<g>
			<rect x="163.9" y="77.4" class="st7" width="2.1" height="2.2"/>
		</g>
		<g>
			<rect x="161.6" y="77.4" class="st7" width="2.1" height="2.2"/>
		</g>
		<g>
			<rect x="159.4" y="77.4" class="st7" width="2.1" height="2.2"/>
		</g>
		<g>
			<rect x="157.2" y="77.4" class="st7" width="2.1" height="2.2"/>
		</g>
		<g>
			<rect x="154.9" y="77.4" class="st7" width="2.1" height="2.2"/>
		</g>
		<g>
			<rect x="152.7" y="77.4" class="st7" width="2.1" height="2.2"/>
		</g>
		<g>
			<rect x="150.5" y="77.4" class="st7" width="2.1" height="2.2"/>
		</g>
		<g>
			<rect x="148.2" y="77.4" class="st7" width="2.1" height="2.2"/>
		</g>
		<g>
			<rect x="146" y="77.4" class="st7" width="2.1" height="2.2"/>
		</g>
		<g>
			<rect x="143.8" y="77.4" class="st7" width="2.1" height="2.2"/>
		</g>
		<g>
			<rect x="141.5" y="77.4" class="st7" width="2.1" height="2.2"/>
		</g>
		<g>
			<rect x="139.3" y="77.4" class="st7" width="2.1" height="2.2"/>
		</g>
		<g>
			<rect x="137" y="77.4" class="st7" width="2.1" height="2.2"/>
		</g>
		<g>
			<rect x="134.8" y="77.4" class="st7" width="2.1" height="2.2"/>
		</g>
		<g>
			<rect x="132.6" y="77.4" class="st7" width="2.1" height="2.2"/>
		</g>
		<g>
			<rect x="130.3" y="77.4" class="st7" width="2.1" height="2.2"/>
		</g>
		<g>
			<rect x="128.1" y="77.4" class="st7" width="2.1" height="2.2"/>
		</g>
		<g>
			<rect x="125.9" y="77.4" class="st7" width="2.1" height="2.2"/>
		</g>
		<g>
			<rect x="123.6" y="77.4" class="st7" width="2.1" height="2.2"/>
		</g>
		<g>
			<rect x="121.4" y="77.4" class="st7" width="2.1" height="2.2"/>
		</g>
		<g>
			<rect x="119.2" y="77.4" class="st7" width="2.1" height="2.2"/>
		</g>
		<g>
			<rect x="116.9" y="77.4" class="st7" width="2.1" height="2.2"/>
		</g>
		<g>
			<rect x="114.7" y="77.4" class="st7" width="2.1" height="2.2"/>
		</g>
		<g>
			<rect x="112.5" y="77.4" class="st7" width="2.1" height="2.2"/>
		</g>
		<g>
			<rect x="110.2" y="77.4" class="st7" width="2.1" height="2.2"/>
		</g>
		<g>
			<rect x="108" y="77.4" class="st7" width="2.1" height="2.2"/>
		</g>
		<g>
			<rect x="105.7" y="77.4" class="st7" width="2.1" height="2.2"/>
		</g>
		<g>
			<rect x="103.5" y="77.4" class="st7" width="2.1" height="2.2"/>
		</g>
		<g>
			<rect x="101.3" y="77.4" class="st7" width="2.1" height="2.2"/>
		</g>
		<g>
			<rect x="99" y="77.4" class="st7" width="2.1" height="2.2"/>
		</g>
		<g>
			<rect x="96.8" y="77.4" class="st7" width="2.1" height="2.2"/>
		</g>
		<g>
			<rect x="94.6" y="77.4" class="st7" width="2.1" height="2.2"/>
		</g>
		<g>
			<rect x="92.3" y="77.4" class="st7" width="2.1" height="2.2"/>
		</g>
		<g>
			<rect x="90.1" y="77.4" class="st7" width="2.1" height="2.2"/>
		</g>
		<g>
			<rect x="87.9" y="77.4" class="st7" width="2.1" height="2.2"/>
		</g>
		<g>
			<rect x="85.6" y="77.4" class="st7" width="2.1" height="2.2"/>
		</g>
		<g>
			<rect x="83.4" y="77.4" class="st7" width="2.1" height="2.2"/>
		</g>
		<g>
			<rect x="81.1" y="77.4" class="st7" width="2.1" height="2.2"/>
		</g>
		<g>
			<rect x="78.9" y="77.4" class="st7" width="2.1" height="2.2"/>
		</g>
	</g>
	<g>
		<g>
			<ellipse class="st1" cx="236.5" cy="78.5" rx="0.3" ry="0.3"/>
		</g>
		<g>
			<ellipse class="st1" cx="234.3" cy="78.5" rx="0.3" ry="0.3"/>
		</g>
		<g>
			<ellipse class="st1" cx="232" cy="78.5" rx="0.3" ry="0.3"/>
		</g>
		<g>
			<ellipse class="st1" cx="229.8" cy="78.5" rx="0.3" ry="0.3"/>
		</g>
		<g>
			<ellipse class="st1" cx="227.6" cy="78.5" rx="0.3" ry="0.3"/>
		</g>
		<g>
			<ellipse class="st1" cx="225.3" cy="78.5" rx="0.3" ry="0.3"/>
		</g>
		<g>
			<ellipse class="st1" cx="223.1" cy="78.5" rx="0.3" ry="0.3"/>
		</g>
		<g>
			<ellipse class="st1" cx="220.9" cy="78.5" rx="0.3" ry="0.3"/>
		</g>
		<g>
			<ellipse class="st1" cx="218.6" cy="78.5" rx="0.3" ry="0.3"/>
		</g>
		<g>
			<ellipse class="st1" cx="216.4" cy="78.5" rx="0.3" ry="0.3"/>
		</g>
		<g>
			<ellipse class="st1" cx="214.2" cy="78.5" rx="0.3" ry="0.3"/>
		</g>
		<g>
			<ellipse class="st1" cx="211.9" cy="78.5" rx="0.3" ry="0.3"/>
		</g>
		<g>
			<ellipse class="st1" cx="209.7" cy="78.5" rx="0.3" ry="0.3"/>
		</g>
		<g>
			<ellipse class="st1" cx="207.4" cy="78.5" rx="0.3" ry="0.3"/>
		</g>
		<g>
			<ellipse class="st1" cx="205.2" cy="78.5" rx="0.3" ry="0.3"/>
		</g>
		<g>
			<ellipse class="st1" cx="203" cy="78.5" rx="0.3" ry="0.3"/>
		</g>
		<g>
			<ellipse class="st1" cx="200.7" cy="78.5" rx="0.3" ry="0.3"/>
		</g>
		<g>
			<ellipse class="st1" cx="198.5" cy="78.5" rx="0.3" ry="0.3"/>
		</g>
		<g>
			<ellipse class="st1" cx="196.3" cy="78.5" rx="0.3" ry="0.3"/>
		</g>
		<g>
			<ellipse class="st1" cx="194" cy="78.5" rx="0.3" ry="0.3"/>
		</g>
		<g>
			<ellipse class="st1" cx="191.8" cy="78.5" rx="0.3" ry="0.3"/>
		</g>
		<g>
			<ellipse class="st1" cx="189.6" cy="78.5" rx="0.3" ry="0.3"/>
		</g>
		<g>
			<ellipse class="st1" cx="187.3" cy="78.5" rx="0.3" ry="0.3"/>
		</g>
		<g>
			<ellipse class="st1" cx="185.1" cy="78.5" rx="0.3" ry="0.3"/>
		</g>
		<g>
			<ellipse class="st1" cx="182.8" cy="78.5" rx="0.3" ry="0.3"/>
		</g>
		<g>
			<ellipse class="st1" cx="180.6" cy="78.5" rx="0.3" ry="0.3"/>
		</g>
		<g>
			<ellipse class="st1" cx="178.4" cy="78.5" rx="0.3" ry="0.3"/>
		</g>
		<g>
			<ellipse class="st1" cx="176.1" cy="78.5" rx="0.3" ry="0.3"/>
		</g>
		<g>
			<ellipse class="st1" cx="173.9" cy="78.5" rx="0.3" ry="0.3"/>
		</g>
		<g>
			<ellipse class="st1" cx="171.7" cy="78.5" rx="0.3" ry="0.3"/>
		</g>
		<g>
			<ellipse class="st1" cx="169.4" cy="78.5" rx="0.3" ry="0.3"/>
		</g>
		<g>
			<ellipse class="st1" cx="167.2" cy="78.5" rx="0.3" ry="0.3"/>
		</g>
		<g>
			<ellipse class="st1" cx="165" cy="78.5" rx="0.3" ry="0.3"/>
		</g>
		<g>
			<ellipse class="st1" cx="162.7" cy="78.5" rx="0.3" ry="0.3"/>
		</g>
		<g>
			<ellipse class="st1" cx="160.5" cy="78.5" rx="0.3" ry="0.3"/>
		</g>
		<g>
			<ellipse class="st1" cx="158.3" cy="78.5" rx="0.3" ry="0.3"/>
		</g>
		<g>
			<ellipse class="st1" cx="156" cy="78.5" rx="0.3" ry="0.3"/>
		</g>
		<g>
			<ellipse class="st1" cx="153.8" cy="78.5" rx="0.3" ry="0.3"/>
		</g>
		<g>
			<ellipse class="st1" cx="151.5" cy="78.5" rx="0.3" ry="0.3"/>
		</g>
		<g>
			<ellipse class="st1" cx="149.3" cy="78.5" rx="0.3" ry="0.3"/>
		</g>
		<g>
			<ellipse class="st1" cx="147.1" cy="78.5" rx="0.3" ry="0.3"/>
		</g>
		<g>
			<ellipse class="st1" cx="144.8" cy="78.5" rx="0.3" ry="0.3"/>
		</g>
		<g>
			<ellipse class="st1" cx="142.6" cy="78.5" rx="0.3" ry="0.3"/>
		</g>
		<g>
			<ellipse class="st1" cx="140.4" cy="78.5" rx="0.3" ry="0.3"/>
		</g>
		<g>
			<ellipse class="st1" cx="138.1" cy="78.5" rx="0.3" ry="0.3"/>
		</g>
		<g>
			<ellipse class="st1" cx="135.9" cy="78.5" rx="0.3" ry="0.3"/>
		</g>
		<g>
			<ellipse class="st1" cx="133.7" cy="78.5" rx="0.3" ry="0.3"/>
		</g>
		<g>
			<ellipse class="st1" cx="131.4" cy="78.5" rx="0.3" ry="0.3"/>
		</g>
		<g>
			<ellipse class="st1" cx="129.2" cy="78.5" rx="0.3" ry="0.3"/>
		</g>
		<g>
			<ellipse class="st1" cx="126.9" cy="78.5" rx="0.3" ry="0.3"/>
		</g>
		<g>
			<ellipse class="st1" cx="124.7" cy="78.5" rx="0.3" ry="0.3"/>
		</g>
		<g>
			<ellipse class="st1" cx="122.5" cy="78.5" rx="0.3" ry="0.3"/>
		</g>
		<g>
			<ellipse class="st1" cx="120.2" cy="78.5" rx="0.3" ry="0.3"/>
		</g>
		<g>
			<ellipse class="st1" cx="118" cy="78.5" rx="0.3" ry="0.3"/>
		</g>
		<g>
			<ellipse class="st1" cx="115.8" cy="78.5" rx="0.3" ry="0.3"/>
		</g>
		<g>
			<ellipse class="st1" cx="113.5" cy="78.5" rx="0.3" ry="0.3"/>
		</g>
		<g>
			<ellipse class="st1" cx="111.3" cy="78.5" rx="0.3" ry="0.3"/>
		</g>
		<g>
			<ellipse class="st1" cx="109.1" cy="78.5" rx="0.3" ry="0.3"/>
		</g>
		<g>
			<ellipse class="st1" cx="106.8" cy="78.5" rx="0.3" ry="0.3"/>
		</g>
		<g>
			<ellipse class="st1" cx="104.6" cy="78.5" rx="0.3" ry="0.3"/>
		</g>
		<g>
			<ellipse class="st1" cx="102.4" cy="78.5" rx="0.3" ry="0.3"/>
		</g>
		<g>
			<ellipse class="st1" cx="100.1" cy="78.5" rx="0.3" ry="0.3"/>
		</g>
		<g>
			<ellipse class="st1" cx="97.9" cy="78.5" rx="0.3" ry="0.3"/>
		</g>
		<g>
			<ellipse class="st1" cx="95.6" cy="78.5" rx="0.3" ry="0.3"/>
		</g>
		<g>
			<ellipse class="st1" cx="93.4" cy="78.5" rx="0.3" ry="0.3"/>
		</g>
		<g>
			<ellipse class="st1" cx="91.2" cy="78.5" rx="0.3" ry="0.3"/>
		</g>
		<g>
			<ellipse class="st1" cx="88.9" cy="78.5" rx="0.3" ry="0.3"/>
		</g>
		<g>
			<ellipse class="st1" cx="86.7" cy="78.5" rx="0.3" ry="0.3"/>
		</g>
		<g>
			<ellipse class="st1" cx="84.5" cy="78.5" rx="0.3" ry="0.3"/>
		</g>
		<g>
			<ellipse class="st1" cx="82.2" cy="78.5" rx="0.3" ry="0.3"/>
		</g>
		<g>
			<ellipse class="st1" cx="80" cy="78.5" rx="0.3" ry="0.3"/>
		</g>
	</g>
	<g>
		<rect x="269" y="77.4" class="st7" width="2.1" height="2.2"/>
	</g>
	<g>
		<rect x="266.8" y="77.4" class="st7" width="2.1" height="2.2"/>
	</g>
	<g>
		<rect x="264.5" y="77.4" class="st7" width="2.1" height="2.2"/>
	</g>
	<g>
		<rect x="262.3" y="77.4" class="st7" width="2.1" height="2.2"/>
	</g>
	<g>
		<rect x="260" y="77.4" class="st7" width="2.1" height="2.2"/>
	</g>
	<g>
		<rect x="257.8" y="77.4" class="st7" width="2.1" height="2.2"/>
	</g>
	<g>
		<rect x="255.6" y="77.4" class="st7" width="2.1" height="2.2"/>
	</g>
	<g>
		<ellipse class="st1" cx="270.1" cy="78.5" rx="0.3" ry="0.3"/>
	</g>
	<g>
		<ellipse class="st1" cx="267.8" cy="78.5" rx="0.3" ry="0.3"/>
	</g>
	<g>
		<ellipse class="st1" cx="265.6" cy="78.5" rx="0.3" ry="0.3"/>
	</g>
	<g>
		<ellipse class="st1" cx="263.4" cy="78.5" rx="0.3" ry="0.3"/>
	</g>
	<g>
		<ellipse class="st1" cx="261.1" cy="78.5" rx="0.3" ry="0.3"/>
	</g>
	<g>
		<ellipse class="st1" cx="258.9" cy="78.5" rx="0.3" ry="0.3"/>
	</g>
	<g>
		<ellipse class="st1" cx="256.6" cy="78.5" rx="0.3" ry="0.3"/>
	</g>
	<path class="st7" d="M246.2,76.4c-1.2,0-4.1,0.2-4.1,0.2l1,1.5c0,0-0.7-0.1-2,0.4c-1.3,0.4-2.2,1.1-2.2,1.1h-1.3v-2.2l3.2-1
		l-0.6-1.4c0,0,2.4-0.9,6.3-1l0,0c3.8,0.1,6.4,1,6.4,1l-0.6,1.4l3.2,1v2.2h-1.3c0,0-0.9-0.7-2.2-1.1s-1.9-0.4-1.9-0.4l1-1.5
		C251.1,76.6,247.1,76.4,246.2,76.4z"/>
	<line class="st7" x1="239.9" y1="76.8" x2="239.9" y2="79"/>
	<line class="st7" x1="244.5" y1="74.1" x2="244.5" y2="76.5"/>
	<line class="st7" x1="246.9" y1="74" x2="246.9" y2="76.4"/>
	<line class="st7" x1="249.1" y1="74.2" x2="249.1" y2="76.6"/>
	<path class="st8" d="M243.1,78.1"/>
	<line class="st7" x1="242.1" y1="76.6" x2="242.1" y2="74.5"/>
	<g>
		<ellipse class="st1" cx="243.3" cy="75.5" rx="0.3" ry="0.3"/>
	</g>
	<g>
		<ellipse class="st1" cx="245.7" cy="75.3" rx="0.3" ry="0.3"/>
	</g>
	<g>
		<ellipse class="st1" cx="247.9" cy="75.4" rx="0.3" ry="0.3"/>
	</g>
	<line class="st7" x1="251.2" y1="74.6" x2="251.2" y2="76.6"/>
	<g>
		<ellipse class="st1" cx="250.1" cy="75.5" rx="0.3" ry="0.3"/>
	</g>
	<g>
		<ellipse class="st1" cx="238.7" cy="78.5" rx="0.3" ry="0.3"/>
	</g>
	<line class="st7" x1="253.5" y1="79" x2="253.5" y2="76.8"/>
	<g>
		<ellipse class="st1" cx="254.6" cy="78.5" rx="0.3" ry="0.3"/>
	</g>
	<g>
		<ellipse class="st1" cx="252.3" cy="77.5" rx="0.3" ry="0.3"/>
	</g>
	<g>
		<ellipse class="st1" cx="241.1" cy="77.2" rx="0.3" ry="0.3"/>
	</g>
	<path class="st1" d="M288.9,100.4c-2,0.3-4,0.3-5.8,1.4c-0.7-1-1.7-1.3-3-1.4c1.3-0.2,2.3-0.6,3.1-1.5
		C284.9,99.9,286.9,100.1,288.9,100.4z"/>
	<line class="st9" x1="277" y1="110.6" x2="277" y2="110.6"/>
	<path class="st1" d="M282.1,97.1c-0.7,0.3-1.3,0.6-2,0.9c0.2-0.4,0.8-1.7,0.9-2c0.7-0.2,1.3-0.4,1.9-0.7
		C282.7,95.9,282.4,96.5,282.1,97.1z"/>
	<circle class="st1" cx="278.1" cy="100.5" r="1"/>
	<path class="st1" d="M278.1,97.9c-0.2-1.3-0.2-2.7-0.9-3.9c0.7-1,0.6-2.1,0.9-3.2l0,0c0.3,1.1,0.3,2.2,0.9,3.2
		C278.3,95.1,278.3,96.5,278.1,97.9L278.1,97.9z"/>
	<path class="st1" d="M282.1,103.5c-0.7-0.3-1.3-0.6-2-0.9c0.2,0.4,0.8,1.7,0.9,2c0.7,0.2,1.3,0.4,1.9,0.7
		C282.7,104.7,282.4,104.1,282.1,103.5z"/>
	<path class="st1" d="M278.1,102.8c-0.2,1.3-0.2,2.7-0.9,3.9c0.7,1,0.6,2.1,0.9,3.2l0,0c0.3-1.1,0.3-2.2,0.9-3.2
		C278.3,105.5,278.3,104.1,278.1,102.8L278.1,102.8z"/>
	<path class="st1" d="M271.8,100.4c0.8-0.2,1.6-0.2,2.3-0.9c0.6,0.7,1.2,0.6,1.8,0.9l0,0c-0.6,0.3-1.3,0.3-1.8,0.9
		C273.3,100.6,272.5,100.7,271.8,100.4L271.8,100.4z"/>
	<path class="st1" d="M8.4,127.8c0,0,1-1.6,1.6-2.4c0.5-0.8,3-3.6,4.4-4.9c4.3-4,8.6-7.1,10.8-11.7c0.6-1.4,2.2-5.2,1.1-8.7
		c-0.3-1.2-1.4-2.2-2.6-2.5c-2.5-0.7-4,0.8-4.2,2c-0.2,1.4,0.4,1.9,0.8,2.2c0.6,0.4,1.5,0.2,1.9-0.3s0.2-1.3-0.1-1.6
		c-0.3-0.3-1.1-0.4-1.7,0.1c-0.3,0.3-0.4,0.8-0.4,0.8s-0.2-0.8,0.2-1.5c0.6-1,1.5-1.2,2.1-1.2s2.1,0.1,3.1,1.6s0.9,3.5,0.1,6.5
		s-3.9,7.8-7.2,10.3c-2.4,1.8-5.8,4.9-8.2,7.8c-0.8,0.9-1.5,2.4-1.5,2.4L8.4,127.8z"/>
	<path class="st1" d="M72.7,127.1c1,3.1,3.7,7.7,5.4,9.4c5.5,6,11.4,8.8,16.4,9.6c4.9,0.8,10.6,1.2,14.4,1.1
		c4.6-0.2,11.1-2.3,14.3-4c2.2-1.2,5-3,4.9-5.8c0-2.4-0.8-3.5-2.3-4.4c-1.2-0.7-2.8-1.3-4.2-0.6c-1.4,0.6-1.6,1.4-1.5,0.2
		s1.9-1.4,1.9-1.4s-2.3,0-3.8,0.7s-3,1.7-3,1.7s-0.5-2,1.2-3.3c0.9-0.7,3.1-1.5,3.1-1.5s-2.5-0.5-4.4,0.7c-1.4,0.9-2.8,2.3-2.9,3.8
		c-0.1,1.2,0.4,1.7,0.4,1.7s-0.7,0.3-2.1-0.3c-1.6-0.8-1.6-4.7,0.2-6.2c3.4-2.7,5.5-2,5.5-2s-3.4-0.3-5.7,0.9
		c-1.4,0.7-2.7,2.3-2.7,2.3s0.1-0.2-0.9-1s-4.5-2.4-9.3-0.3c-1.3,0.6-6.7,2.8-7,7c0,0.3,0,3,2,3.3c1,0.2,1.1,0.1,1.1,0.1
		s-1.2,0-1.7-0.2c-2.1-1-1.2-4.8,0.8-5.2c2.9-0.7,4.3,2.1,4,3.6c-0.3,1.6-1.3,2.5-2.6,2.9c-1,0.3-2.8,0.1-4-1
		c-0.9-0.8-1.5-2.7-1.3-4.2c0.3-2.1,2.6-4,3.6-4.6c2.1-1.3,5.6-2.8,7.1-3.3c2.2-0.7,8-1.4,9.1-1.5c3.6-0.1,7.5-0.1,10.1,0.6
		c2.3,0.6,6.6,2.3,8.6,4.8c2.2,2.7,3.2,6.8,0.8,9.8c-2.4,3.2-8.8,6.8-18.9,7.6c-3.4,0.3-7.1,0.3-9.2,0.1c-4.3-0.4-10.3-1.5-14.9-3.6
		c-2.6-1.2-6.1-3.4-7.7-4.6c-2.8-2.1-8.2-7-10.1-9.6c-1.8-2.5-3.7-5.6-5-8.4c-0.8-1.6-2.2-6.7-2.2-6.7l-6.4-8.3
		c0,0-0.2,14.8,0.1,19.4c0.3,4.5,5.4,9.7,5.4,9.7h-5.9l-3.2,7v0.1c1.2,0.3,2.1,1.4,2.1,2.7l0,0c0,1.6-1.3,2.8-2.8,2.8l0,0
		c-0.1,0-0.8,0-0.9,0l0,0c-1.6,0-2.8-1.3-2.8-2.8l0,0c0-1.3,0.9-2.4,2.1-2.7v-0.1l-3.2-7h-5.9c0,0,5.1-5.2,5.4-9.7
		c0.3-4.5,0.1-19.4,0.1-19.4l-6.2,8.3c0,0-1,8.3-1.6,10.6c-0.5,2-3.7,8.4-5.7,10.8c-1.8,2.2-6.7,5.8-8.6,6.4c-2.1,0.6-4.1,1-6.7,0.3
		c-1.4-0.4-5.2-1.6-6.9-0.6c-0.1,0.1-0.3,0.2-0.3,0.2l0.7-1.1c0,0,0.4-0.3,0.7-0.3c0.9-0.2,1.6-0.1,1.6-0.1s-0.5-0.5-0.9-1.1
		c-0.8-0.9-2.6-3.4-2.8-7.3c-0.1-1.1,0.5-5.2,0.7-6.9c0.2-1.7,1-8.4,0.9-10c-0.2-3.5-1.2-5.3-2-5.7c-0.6-0.3-0.8-0.2-0.8-0.2
		s0.6,0.5,0.6,0.8s-0.1,0.7-0.8,0.8c-0.8,0-0.9-0.6-0.9-1.1c0.1-0.5,0.6-1.4,1.8-1c0.9,0.3,1.6,1.2,2.2,2.7c0.6,1.5,0.7,3.7,0.7,5.5
		c0,1.7-0.7,6.6-0.8,7.8c-0.1,0.9-0.5,3.6-0.5,3.6s0.1-0.7,0.8-1.9c0.7-1.3,1.8-2.3,2.6-2.8c1-0.6,2.6-1.2,4.6-1.2v-0.4l-0.4-0.4
		l0.6-0.6l0.6,0.5l-0.4,0.5v0.4c0,0,2.2,0.3,4.1,2.1c0.4,0.3,0.7,0.7,0.7,0.7l0.3-0.6l1,0.3l-0.4,1H22c0.6,1.5,0.7,2.1,0.8,2.6
		c0.1,0.8,0.2,2,0.2,2l0.9-0.2l0.7,1.1l-1.2,0.7l-0.5-0.6c0,0-0.6,1.8-1.7,2.9c-0.4,0.4-0.7,1.5-0.7,1.5s-0.6-0.5-1.4-0.5
		c-0.5,0-1.3,0.8-1.3,0.8s-0.3-0.7-0.9-0.9c-0.5-0.1-1.2,0.1-1.2,0.1s0.1-0.4,0-0.9s-1-1.8-1-2.7s0.5-1.7,1.2-2.1
		c0.8-0.4,2-0.4,2.8,0c1.7,0.8,1.1,3.2,0,3.5c-0.7,0.2-1.3,0.2-1.8-0.4c-0.4-0.6-0.2-1-0.2-1s-0.8,0-0.8,1c0.1,1.5,1.5,1.9,2.4,1.9
		c1.2-0.1,2.6-0.6,3.4-2.9c0.7-2.1-0.1-5.2-1.1-6.5c-0.9-1.2-3.9-3.4-8-1.4c-2.2,1.1-4.3,3.3-4.2,8.5c0,2.4,1.7,7.2,5.4,8.6
		c4.4,1.6,7.2,0.5,8.6-0.2c2.7-1.3,5.4-5.6,6.7-11.5c1.3-5.8,1.1-12,1.1-15.6c0-6-1.7-16.5-2.7-19.9c-0.7-2.3-2.6-9.3-4.6-11.9
		c-1.4-1.9-1.9-2.4-3.2-2.9c-1.6-0.5-1.4-2.9-0.1-3c0.8-0.1,1.2,0.4,1.4,0.9c0.3,1-0.8,1.4-0.8,1.4s0.5,0.3,1.4,0.2
		c1.2-0.1,3.9-0.4,6-1.9c2-1.5,3.5-2.9,6-3.5c2.6-0.6,5.9-0.9,7.7-0.5c1.5,0.3,2.5,0.9,3.6,1.7c1.1,0.8,1.7,1.9,2.3,2.8
		c0.4,0.6,1.1,1.7,1.1,1.7c-0.7,0.3-1.3,1.2-1.3,2.3c0,1.4,0.9,2.5,1.9,2.5H49c1.1,0,1.9-1.1,1.9-2.5c0-1.1-0.5-2-1.3-2.3
		c0,0,0.7-1.1,1.1-1.7c0.6-0.8,1.2-2,2.3-2.8s2.1-1.4,3.6-1.7c1.8-0.3,5.1-0.1,7.7,0.5c2.5,0.6,3.9,2,6,3.5c2,1.5,4.8,1.8,6,1.9
		c1,0.1,1.4-0.2,1.4-0.2S76.7,79,77,78c0.2-0.5,0.6-1,1.4-0.9c1.3,0.1,1.5,2.5-0.1,3c-1.3,0.4-1.7,1-3.2,2.9
		c-1.9,2.6-3.9,9.5-4.6,11.9c-1,3.3-1.5,12.7-1,18.7C69.9,117,72.2,125.6,72.7,127.1z M37.9,112.9l6.1-7.8v-5.4l-6.2,8.3L37.9,112.9
		z M60.1,107.8l-6.2-8.3v5.4l6.1,7.8L60.1,107.8z M34.3,83c-0.3-0.7-1.1-1.2-1.9-1.2c-1.2,0-2.1,0.9-2.1,2.1s0.9,2.1,2.1,2.1
		c0.6,0,1.2-0.3,1.6-0.7c0,0-0.1,1.7,0.4,3.8c0.5,2,2.7,11.5,2.8,13c0.1,1.4,0.3,4.1,0.3,4.1l6.6-8.3c0,0,0.1-6.3-0.2-8.8
		c-0.2-1.5-0.9-4.2-1.9-5.9c-0.9-1.6-1.8-3.1-4.4-2.8c-2.1,0.2-2.5,0.9-2.9,1.6C34.4,82.6,34.3,83,34.3,83z M62.5,81.3
		c-0.3-0.7-0.8-1.4-2.9-1.6c-2.6-0.3-3.5,1.2-4.4,2.8c-1,1.6-1.7,4.3-1.9,5.9c-0.3,2.5-0.2,8.8-0.2,8.8l6.6,8.3c0,0,0.2-2.6,0.3-4.1
		c0.1-1.4,2.3-10.9,2.8-13c0.5-2,0.4-3.8,0.4-3.8c0.4,0.4,0.9,0.7,1.6,0.7c1.2,0,2.1-0.9,2.1-2.1s-0.9-2.1-2.1-2.1
		c-0.8,0-1.6,0.5-1.9,1.2C62.9,82.4,62.8,82,62.5,81.3z M48.8,109.8c0,0,0.7-3.2,1-3.9c0.3-0.7,1-1.5,1-1.5s-1-1.4-1.2-2.4
		c-0.3-1-0.7-4.3-0.7-4.3l0,0c0,0-0.4,3.3-0.7,4.3s-1.2,2.4-1.2,2.4s0.6,0.8,1,1.5C48.2,106.6,48.8,109.8,48.8,109.8 M33.8,109.8
		c0,0,0.7-3.2,1-3.9c0.3-0.7,1-1.5,1-1.5s-1-1.4-1.2-2.4c-0.3-1-0.7-4.3-0.7-4.3l0,0c0,0-0.4,3.3-0.7,4.3s-1.2,2.4-1.2,2.4
		s0.7,0.8,1,1.5C33.2,106.6,33.8,109.8,33.8,109.8 M64.7,109.8c0,0,0.7-3.2,1-3.9c0.3-0.7,1-1.5,1-1.5s-1-1.4-1.2-2.4
		c-0.3-1-0.7-4.3-0.7-4.3l0,0c0,0-0.4,3.3-0.7,4.3c-0.3,1-1.2,2.4-1.2,2.4s0.6,0.8,1,1.5C64.1,106.6,64.7,109.8,64.7,109.8"/>
	<path class="st1" d="M18,117.2c3.7-2.7,5.6-6.4,7.5-9.8s0.6-7.2,0.6-7.2s1.3,0.4,1.7,0.8c0.3,0.3,0.2,0.7-0.1,1.3
		c-0.2,0.5-0.4,0.8-0.4,0.8s0.6,0.4,0.9,0.8c0.2,0.3,0.3,0.6-0.1,1.2c-0.3,0.5-0.5,0.6-0.5,0.6s0.5-0.1,0.7,0.4s0.2,0.8-0.1,1.4
		c-0.3,0.6-0.4,0.8-0.4,0.8s0.4,0.2,0.6,0.5c0.3,0.4,0.1,0.8-0.2,1.3c-0.3,0.4-0.7,0.7-0.7,0.7s0.5,0.1,0.8,0.3
		c0.3,0.2,0.4,0.9,0.1,1.3c-0.4,0.4-0.7,0.6-0.7,0.6s0.7,0.2,1,0.7c0.2,0.3,0,0.9-0.4,1.4c-0.5,0.5-0.4,0.4-0.4,0.4s0.5,0.2,0.8,0.7
		s0.3,0.8,0,1.2c-0.2,0.4-0.3,0.4-0.3,0.4s0.6,0.6,0.7,1.1s0.2,2.2-0.5,1.3c-0.4-0.5-0.3-0.4-1.1-1c-0.8-0.6-1.7-1.3-5-1.3
		s-4.1,0.4-5.6,1c-1.7,0.7-2.9,2-2.9,2S14.3,120,18,117.2z M21.4,115.1c0,0.5,0.4,1,0.9,1s0.9-0.4,0.9-1c0-0.5-0.4-0.9-0.9-0.9
		C21.8,114.1,21.4,114.5,21.4,115.1z M18.7,116.9c-0.2,0-0.4,0.2-0.4,0.4c0,0.2,0.2,0.4,0.4,0.4c0.2,0,0.4-0.2,0.4-0.4
		S18.9,116.9,18.7,116.9z M20.4,115.8c-0.3,0-0.6,0.3-0.6,0.6c0,0.3,0.3,0.6,0.6,0.6c0.3,0,0.6-0.3,0.6-0.6
		C21,116,20.7,115.8,20.4,115.8z"/>
	<circle class="st1" cx="13.2" cy="126.8" r="0.7"/>
	<circle class="st1" cx="16.3" cy="125.9" r="0.7"/>
	<circle class="st1" cx="19.3" cy="127" r="0.7"/>
	<circle class="st1" cx="20.9" cy="130.5" r="0.7"/>
	<path class="st10" d="M8.1,134c0,0,2.7-0.3,4.5,0.1c2.2,0.5,2.9,1.5,3.5,1.9"/>
	<path class="st10" d="M8.3,130.4c0,0,2.8,0.3,4,0.8c2.6,1.2,3.2,3.5,3.4,3.8"/>
	<path class="st10" d="M10.1,126.5c0,0,2,1.1,3,2.1c1.3,1.3,1.6,2.8,1.9,3.8"/>
	<path class="st10" d="M13.9,124.4c0,0,0.9,1.4,1.5,2.9c0.5,1.3,0.7,3.9,0.6,4.3"/>
	<path class="st10" d="M17.5,123.9c0,0,0.5,2.4,0.5,3.5c-0.1,2.1-1.2,3.3-1.4,3.5"/>
	<path class="st10" d="M21,126.1c0,0,0,1.3-0.7,2.5c-0.8,1.3-1.7,2.1-2.2,2.4"/>
	<path class="st10" d="M9.7,138.5c0,0,1.7-1.5,2.9-1.8c2.2-0.6,3.4-0.3,3.4-0.3"/>
</g>
<path class="st1" d="M147.1,519.5c1,0,2.1-0.1,3.3-0.1c3.1,0,4.2-3.6,7.6-3.6c3.1,0,2.8,1.7,6.7,1.6c3.7-0.1,5.6-0.6,7.9-2.5
	c1.7-1.3,2.3-3.5,4-5c2.7-2.5,6.7-3.3,6.8-8.3c0.1-3.6-3.7-11.2-15.7-11.8c-2.6-0.1-3.8-3.7-3.8-3.7s2.4-2.5,1.8-6.4
	c-0.5-2.8-2.2-4.4-2.2-4.4s2.5-1.7,2.5-6.6c0-3.8-2.9-6.2-2.9-6.2s2.4-2.7,2.4-5.1s-1.5-5.3-1.5-5.3s2.3-3.6,2.4-6.3
	c0.1-2.8-2-6-2-6s2.2-3.5,2.2-7s-1.3-6.9-1.3-6.9s2.9-3.8,3.3-8.3c0.3-3.6-1.4-6,0.8-8.8s2.5-4.9,3.2-7.8c0.8-3.3,2.4-11.4,2.4-16.7
	c0-3.5,2.7-4.4,5.1-6.8c2.3-2.2,4.9-12.4,4.5-18.2c-0.4-5.3-3.5-9.3-1.1-11.7c4.6-4.6,10.4-7.1,11.4-8.1c1.9-1.8,3.1-4.8,3.1-4.8
	s4.3-1.3,5.8-3.1c1.9-2.2,2.3-5.9,2.3-5.9s8.8-0.2,9.1-5.3c0.1-1.1-1.3-0.6-3.1-0.9c-2.1-0.4-2.8-3.1-1.9-7.1c0.8-3.8,1.4-5.4,3.6-8
	c2.2-2.6,3.8-3.2,5.7-5.7c1.6-2.1,2.2-8.9,2-14.1s0.4-4.2-2-16.6s-9.9-27.1-15.7-34.8s-15.2-12.2-21.7-14.6c0,0,9.9-16.4,16.7-22.7
	c3.6-3.4,14.2-11.8,14.2-11.8c-2.4,1-9.9,4.8-17.1,11.6c-7.1,6.8-16.5,21.9-16.5,21.9c-1-0.3-1.9-0.5-2.6-0.7
	c-4.8-1.1-10-0.4-10-0.4s4.5,7.6,7.2,12.6l-4.3,9.2c-1.4-1.6-2.8-3.3-3.8-5.1c-2.4-4.2-7.1-11.5-8.2-13.9c-1.1-2.4-1.8-2.1-2.6-0.4
	c-2.9,6.2,2.9,17.4,3.7,20.1c1,3.4,6.6,13.1,6.6,13.1s-4.1,13.9-4.9,16.9c-0.9,3.1-6.2,26.6-7.1,29.5c-1.3,3.8-3.5,17.3-3.5,17.3
	s-0.1-1.2-2.5-1.4h-0.7c-2.5,0.1-2.5,1.4-2.5,1.4s-2.3-13.5-3.5-17.3c-1-2.9-6.2-26.4-7.1-29.5c-0.9-3-4.9-16.9-4.9-16.9
	s5.6-9.7,6.6-13.1c0.8-2.7,6.6-13.9,3.7-20.1c-0.8-1.7-1.5-2-2.6,0.4s-5.8,9.8-8.2,13.9c-1,1.8-2.4,3.5-3.8,5.1l-4.3-9.2
	c2.7-5,7.2-12.6,7.2-12.6s-5.2-0.7-10,0.4c-0.7,0.2-1.6,0.4-2.6,0.7c0,0-9.4-15.1-16.5-21.9c-7.2-6.8-14.7-10.6-17.1-11.6
	c0,0,10.6,8.4,14.2,11.8c6.7,6.3,16.7,22.7,16.7,22.7c-6.5,2.3-15.9,6.9-21.7,14.6c-5.8,7.6-13.3,22.4-15.7,34.8
	c-2.4,12.4-1.8,11.3-2,16.6c-0.2,5.2,0.4,12,2,14.1c1.9,2.5,3.5,3.1,5.7,5.7s2.8,4.2,3.6,8c0.9,4,0.2,6.7-1.9,7.1
	c-1.8,0.3-3.1-0.2-3.1,0.9c0.3,5.1,9.1,5.3,9.1,5.3s0.4,3.7,2.3,5.9c1.5,1.8,5.8,3.1,5.8,3.1s1.3,3,3.1,4.8c1,1,6.7,3.5,11.4,8.1
	c2.4,2.4-0.7,6.4-1.1,11.7c-0.4,5.9,2.2,16,4.5,18.2c2.5,2.4,5.1,3.4,5.1,6.8c0,5.3,1.7,13.4,2.4,16.7c0.7,2.9,1,5,3.2,7.8
	s0.5,5.2,0.8,8.8c0.4,4.5,3.3,8.3,3.3,8.3s-1.3,3.4-1.3,6.9c0,3.4,2.2,7,2.2,7s-2.1,3.2-2,6c0.1,2.7,2.4,6.3,2.4,6.3
	s-1.6,2.9-1.6,5.3s2.4,5.1,2.4,5.1s-2.9,2.4-2.9,6.2c0,5,2.5,6.6,2.5,6.6s-1.7,1.6-2.2,4.4c-0.7,3.9,1.8,6.4,1.8,6.4
	s-1.2,3.5-3.8,3.7c-12.1,0.6-15.9,8.3-15.7,11.8c0.2,5,4.1,5.9,6.8,8.3c1.7,1.5,2.4,3.7,4,5c2.3,1.8,4.2,2.4,7.9,2.5
	c3.9,0.1,3.5-1.6,6.7-1.6c3.4,0,4.6,3.6,7.6,3.6c1.1,0,2.2,0,3.3,0.1H147.1z M121.6,241c-3.4,3.2-6.5,5.3-6.5,5.3s1.1-9.8,3.1-14
	L121.6,241z M135.4,288c2.5,12.9,5.2,26.7,5.2,26.7s-1.3,2.2-1.3,3.1c0,1,0.9,2.6,0.9,2.6s-2.9,2.7-4.2,5.3
	c-1.3,2.6-2.5,8.9-2.5,8.9s-7-7.2-10.5-9.5c-3.7-2.5-9.1-4.1-9.1-4.1s-1.1-4.2-3.6-7.4c-2.1-2.8-6.2-5-6.2-5s-1.5-3-3-5.3
	c-1.8-2.6-4-5-4-5s9.9-5.5,13.5-10.3c4-5.3,4.4-9.1,6.4-10.9s1.7-4.8,1.5-7.2c-0.2-2.4-2.2-2.6-0.7-3.7s8.3-11.6,8.3-11.6
	S132.2,271.8,135.4,288z M175.6,232.2c2,4.2,3.1,14,3.1,14s-3.1-2.1-6.5-5.3L175.6,232.2z M167.7,254.5c0,0,6.8,10.5,8.3,11.6
	s-0.4,1.3-0.7,3.7c-0.2,2.4-0.4,5.5,1.5,7.2c2,1.7,2.4,5.6,6.4,10.9c3.7,4.8,13.5,10.3,13.5,10.3s-2.3,2.4-4,5c-1.5,2.3-3,5.3-3,5.3
	s-4.1,2.2-6.2,5c-2.5,3.2-3.6,7.4-3.6,7.4s-5.4,1.6-9.1,4.1c-3.5,2.4-10.5,9.5-10.5,9.5s-1.2-6.3-2.5-8.9s-4.2-5.3-4.2-5.3
	s0.9-1.6,0.9-2.6c0-0.9-1.3-3.1-1.3-3.1s2.7-13.8,5.2-26.7C161.5,271.8,167.7,254.5,167.7,254.5z"/>
</svg>
