<?xml version="1.0" encoding="utf-8"?>
<!-- Generator: Adobe Illustrator 20.1.0, SVG Export Plug-In . SVG Version: 6.00 Build 0)  -->
<svg version="1.1" id="Layer_1" xmlns="http://www.w3.org/2000/svg" xmlns:xlink="http://www.w3.org/1999/xlink" x="0px" y="0px"
	 viewBox="0 0 417 605" style="enable-background:new 0 0 417 605;" xml:space="preserve">
<style type="text/css">
	.st0{fill:#671D43;}
	.st1{fill:#EC218B;}
	.st2{fill:none;stroke:#EC208B;stroke-linecap:round;stroke-miterlimit:10;}
	.st3{fill:none;stroke:#EC208B;stroke-miterlimit:10;}
	.st4{fill:none;stroke:#EC208B;stroke-width:2;stroke-linecap:round;stroke-miterlimit:10;}
	.st5{fill:none;stroke:#EC208B;stroke-width:0.5;stroke-linecap:round;stroke-miterlimit:10;}
	.st6{fill:none;stroke:#EC208B;stroke-width:0.75;stroke-miterlimit:10;}
	.st7{fill:none;stroke:#EC208B;stroke-width:0.5;stroke-miterlimit:10;}
	.st8{fill:none;stroke:#D5ECDF;stroke-miterlimit:10;}
	.st9{fill:none;}
	.st10{fill:none;stroke:#EC208B;stroke-width:0.75;stroke-linecap:round;stroke-miterlimit:10;}
</style>
<rect class="st0" width="417" height="605"/>
<g>
	<circle class="st1" cx="14.5" cy="136.5" r="1"/>
	<circle class="st1" cx="13.4" cy="131.2" r="1"/>
	<circle class="st1" cx="14.7" cy="126.6" r="1"/>
	<path class="st1" d="M369.8,141.2c0,0-0.3,0.1-1-0.9c-0.9-0.9-1-1.9-0.6-2.9s1.1-1.6,2.4-1.9c1.7-0.3,3.4-0.1,6.3,1s9.9,4.6,12,5.6
		s5.1,2.3,6.3,2.6c1.1,0.3,6.4,2.4,7.3,2.7s-6.6-2.1-7.4-2.3c-0.7-0.1-8.4-0.7-9.9-0.6c-1.4,0.1-6.6,0.9-7.9,1.1
		c-1.3,0.3-4.1,0.6-5.1,0.4c-1.1-0.1-2.4-0.6-3.3-1.3c-0.4-0.4-1-2-0.4-2.9C369,141.5,369.8,141.2,369.8,141.2z"/>
	<circle class="st1" cx="365.3" cy="140.8" r="1.4"/>
	<circle class="st1" cx="358.9" cy="140.3" r="1.4"/>
	<circle class="st1" cx="352.7" cy="139.5" r="1.1"/>
	<circle class="st1" cx="347.9" cy="139" r="1.1"/>
	<circle class="st1" cx="343.2" cy="138.6" r="1.1"/>
	<circle class="st1" cx="338.4" cy="138.5" r="1"/>
	<circle class="st1" cx="333.3" cy="138.2" r="0.7"/>
	<path class="st1" d="M331.3,138.2c0,0-17.4,0-19.6,0.1c-2.1,0.1-15.4,1.1-18.9,1.7c-3.4,0.6-13,1.6-14,1.9c-1,0.3-2.1,0.4-2.9,0.4
		c-0.7,0,16.4-1.9,17-1.9s18.4-1.7,18.7-1.7C312,138.9,331.3,138.2,331.3,138.2z"/>
	<path class="st1" d="M335.4,124.9c-0.1,0-0.3,0-0.3,0c0-0.1,0-0.3,0.1-0.3c0.7,0,0.9,0.4,0.9,0.6s-0.1,0.7-0.7,0.9
		c-0.3,0-0.6,0-0.7-0.1s-0.4-0.4-0.4-0.9s0.1-0.9,0.6-1.1c0.4-0.3,1-0.4,1.6-0.1c0.7,0.3,4.3,1.6,4.9,1.7c0.7,0.3,6.7,2,7.7,2.1
		c0.9,0.1,4,1,5.1,1c0.6,0,2.9,0.3,3.3,0.3s7.4,0.9,8.4,1c1.1,0.1,3.1,0.6,3.9,0.7c0.6,0.1,4.9,1,5,1c0.3,0.1-0.7-0.1-1.1-0.1
		s-6.3-1.1-7.7-1.3c-1.3-0.1-8.2-0.9-8.6-1c-0.4,0-3.7,0-4.6,0c-0.4,0-4.1,0.3-4.4,0.3c-0.4,0-5.3,0.6-6,0.6
		c-0.6,0.1-2.4,0.4-3.4,0.6c-0.7,0.1-3.6,0.7-3.9-0.3c-0.1-0.1,0-0.6,0-0.9c0.1-0.3,0.9-0.4,1.1-0.1c0.1,0.1,0.3,0.4,0.1,0.6
		c0,0.1-0.1,0.3-0.3,0.3c-0.3,0.1-0.7-0.3-0.4-0.4c0.3-0.1,0.1,0.1,0.3,0.1c0.4,0,0.3-0.4,0-0.6c-0.6-0.1-0.7,0.3-0.7,0.4
		c0,0.3,0.4,0.6,0.9,0.6c0.3,0,0.7-0.1,1.1-0.3c0.6-0.3,1.1-0.4,1.6-0.9c0.3-0.3,0.3-0.4,0.3-0.4s-1.7-0.3-2.4-0.3
		c-1,0-3.9,0.4-4,0.6c-0.3,0.1-2.3,0.7-2.3,0.7s0-0.1,0.3-0.3c0.3-0.3,2.4-1.4,2.4-1.7s-1.7-1.3-2.1-1.9c-0.3-0.3-0.9-0.7-0.7-0.9
		c0,0,1,0.4,1.3,0.6c0.3,0.1,1.6,0.7,1.9,0.7c0.4,0.1,1.4,0.6,1.7,0.6c0.7,0.1,4.1,0.1,4.1,0.1s0-0.3-0.3-0.9
		c-0.3-0.7-1.3-2.3-3.6-2.6c-0.3,0-0.9,0.3-1,0.6c-0.1,0.6,0.1,0.9,0.3,1c0.3,0.1,0.4,0.1,0.6,0
		C335.4,125.1,335.6,125.1,335.4,124.9C335.7,124.9,335.6,124.9,335.4,124.9z"/>
	<path class="st1" d="M330.7,127.9c-0.6,0-1.7,0.1-2.1,0.1c-1,0.1-3.4,0.9-3.9,1s-3.3,1.1-3.3,1.1s0.7-0.9,0.9-1.1
		c0.6-0.4,2.6-1.6,2.3-1.6c-0.9-0.3-1.7-0.6-2.6-1c-0.7-0.4-1.1-1.7-1-1.7c0,0,1.1,0.7,2,1c1.4,0.6,3.9,1.1,4.1,1.1
		c0.7,0.1,2.3,0.4,3.3,0.6c1.3,0.3,3.1,0.1,3.3,0.3C334,127.9,331.7,127.9,330.7,127.9z"/>
	<path class="st1" d="M322.7,127.5c-0.4,0-1.3-0.1-1.7-0.1c-0.9-0.1-2.7-1-3.1-1.1s-2.6-1.3-2.6-1.3s0.6,1,0.7,1.3
		c0.4,0.4,2.1,1.7,1.9,1.7c-0.6,0.3-1.4,0.6-2.1,1.1c-0.6,0.6-0.9,1.9-0.9,2c0,0,1-0.7,1.6-1.1c1.1-0.7,3.1-1.3,3.4-1.3
		c0.6-0.1,1.9-0.4,2.7-0.7c1.1-0.3,2.6-0.1,2.6-0.3C325.3,127.5,323.4,127.5,322.7,127.5z"/>
	<circle class="st1" cx="335.3" cy="124.7" r="1.1"/>
	<circle class="st1" cx="335.9" cy="129.7" r="1"/>
	<circle class="st1" cx="277.2" cy="135.5" r="1.6"/>
	<circle class="st1" cx="261.4" cy="139.5" r="1.4"/>
	<path class="st1" d="M264.8,138.2c0,0,1.7-0.6,2.4-1.1c0.7-0.6,1.9-2.1,1.9-2.1s0.6,0.4,1.4,0.7c0.9,0.3,3.4,0.4,3.4,0.4
		s-1.7,0.4-2.4,1s-1.6,1.7-1.6,1.7s-1-0.4-2-0.6C267.1,138.2,264.8,138.2,264.8,138.2z"/>
	<polygon class="st1" points="258.1,139.6 258.8,140.3 227.8,150.2 	"/>
	<path class="st1" d="M316.7,127.9l0.3-0.1l-0.6-0.3c0,0-15.6,1.7-18.2,2.1c-2.4,0.4-18.7,4.9-18.7,4.9v0.6c0,0,17.7-4.9,19.4-5.1
		C300.8,129.5,316.7,127.9,316.7,127.9z"/>
	<path class="st1" d="M301,119.7c0.7-0.1,0.6-0.1,0.9-0.4c1-0.7,0.7-1.6,0.7-1.6l15.6,1.7l-0.4,0.4c0,0-5.6,0.1-7.3,0.7
		s-5.6,3-6,3.4c-0.3,0.3-0.6-0.1-1.6-0.4c-0.9-0.4-1.6-0.1-1.6-0.1s2.3-1.3,3-1.7c0.9-0.6,3.1-1.7,3.1-1.7s-1.7,0.3-2.7,0
		C303.7,119.9,301,119.7,301,119.7z"/>
	<path class="st1" d="M298.1,120.2c-0.6-0.1-0.9,0.4-0.7,1.7c0.1,1,0.9,1.3,1,1.4c0.4,0.1,1.4-1,2-1.3c0.7-0.4,2.7-0.9,2.9-0.9
		s0.6-0.3,0.6-0.3s-2.4,0-3.4-0.1C299.5,120.7,298.5,120.3,298.1,120.2z"/>
	<path class="st1" d="M296.8,121.9l-0.4,0.6c0,0-1.1,0.6-2.1,1.1c-1,0.4-2.7,1-3.3,0.6c-0.3-0.1-0.7-0.7-0.4-1
		c0.3-0.6,1.7-1,2.6-1.1C294.1,121.9,296.8,121.9,296.8,121.9z"/>
	<ellipse transform="matrix(0.9589 -0.2837 0.2837 0.9589 -23.6664 86.5862)" class="st1" cx="287.1" cy="125" rx="2.6" ry="0.7"/>
	<ellipse transform="matrix(0.957 -0.2902 0.2902 0.957 -24.7582 87.0402)" class="st1" cx="281.1" cy="127" rx="2.7" ry="0.6"/>
	<ellipse transform="matrix(0.969 -0.2471 0.2471 0.969 -23.2776 72.1202)" class="st1" cx="275.7" cy="128.8" rx="2.3" ry="0.6"/>
	<path class="st1" d="M271.4,130.2c0,0,1.6-0.6,1.7-0.3s-0.3,0.3-1.1,0.7c-1,0.4-29.7,11.6-30.5,11.7c-0.7,0.3-11.6,4.3-11.6,4.3
		l1-1.1c0,0,20.4-7.4,21.5-7.9C253.5,137.3,271.4,130.2,271.4,130.2z"/>
	<path class="st1" d="M252.9,133.9l37.3-17.4l0.3-0.9l-2.6,1.3c0,0-1.7,0.9-3.3,1.4c-1.3,0.4-7.9,0.1-8.3,0.1c-0.6,0-3-0.4-4.3,0.6
		c-1.1,0.9-1.4,2.9-0.9,3.7c0.6,0.7,1.4,1,2.4,0.7c0.9-0.3,1.7-1.9,2-2.1c0.4-0.4,0.4,0.6,0.1,1.1c-0.3,0.4-0.3,0.7-0.6,1
		c-0.1,0-3.6,1.7-4.3,1.9c-0.4,0.1-0.9-0.1-1.4-0.6c-0.4-0.3-0.6-0.9-0.6-1.4c0-0.9-0.4,0.1-0.4,0.4s-0.3,1-0.1,1.7
		c0.1,0.4,0.6,0.9,0.6,0.9s-0.3,0.6-1.6,0.4c-1.3-0.1-1.7-0.1-2.4-0.3c-0.6-0.1-0.6,0.1-0.4,0.3c0,0.3,0.1,0.9,0,1.1
		c-0.3,1.1-1.6,1.3-2,1.3s-0.6-0.3-1.3-0.6c-0.6-0.3-1.3-0.1-1.4-0.1c-0.1,0.1,0,0,0.1,0.4s0.4,0.9,0.3,1.3
		c-0.1,0.3-0.6,0.6-0.9,0.7c-0.1,0.1-2.6,1.3-3.7,1.6c-1,0.3-2.1,0.3-3,0c-0.7-0.3-0.9,0-0.4,0.3c0.3,0.3,0.4,0.3,0.6,0.7
		C252.9,133.6,252.9,133.9,252.9,133.9z"/>
	<path class="st2" d="M153.4,158.2c33.7,4.9,72.8-14.2,76.8-15.6c6.7-2.6,21.9-8.3,24.6-9.4c2.1-0.9,35.5-16.7,35.5-16.7"/>
	<path class="st1" d="M252.4,125.3c-0.1-0.3-0.3-1.1,0.1-2c0.4-0.7,1.7-1.9,4.1-2.1c2.7-0.4,5.7-1.3,6.9-1.7c1-0.4,7.6-3.4,8.3-3.9
		c0.9-0.4,2.1-0.9,3-0.9s1.7,0.3,2,0.7c0.3,0.4,0.3,1.3-0.1,1.4c-1,0.6-1.1,0.4-1.3,0.1c-0.3-0.4,0.9-0.4,1-0.7
		c0.1-0.4-0.1-0.6-0.6-0.7c-0.6-0.3-2.3-0.1-3.3,0.3c-0.9,0.4-5.4,2.6-6.4,3.1c-1,0.6-4.6,2.9-5.6,3.9c-0.9,0.9-2.3,3.7-4.1,4.1
		c-1.3,0.3-2.4,0-3.1-0.6C252.8,126.2,252.6,125.7,252.4,125.3z"/>
	<ellipse class="st1" cx="275.8" cy="116.9" rx="0.6" ry="0.6"/>
	<ellipse class="st1" cx="250.6" cy="127.3" rx="2" ry="1.7"/>
	<ellipse class="st1" cx="247.2" cy="129.2" rx="1.3" ry="1.1"/>
	<ellipse class="st1" cx="244.2" cy="130.3" rx="0.7" ry="0.7"/>
	<circle class="st1" cx="241.5" cy="131.8" r="0.9"/>
	<circle class="st1" cx="238.8" cy="132.9" r="0.9"/>
	
		<ellipse transform="matrix(0.2129 -0.9771 0.9771 0.2129 54.8952 336.8038)" class="st1" cx="236.5" cy="134.3" rx="0.9" ry="0.9"/>
	<circle class="st1" cx="233.8" cy="135.6" r="0.9"/>
	
		<ellipse transform="matrix(0.6077 -0.7941 0.7941 0.6077 -17.7356 237.4291)" class="st1" cx="231.5" cy="136.7" rx="0.6" ry="0.6"/>
	<ellipse transform="matrix(0.1292 -0.9916 0.9916 0.1292 62.9473 347.448)" class="st1" cx="229.3" cy="137.9" rx="0.6" ry="0.6"/>
	<path class="st2" d="M153.4,158.2c6.7,0.3,13.2,0.9,19.4-0.1c30.2-5.3,50.2-18.2,55.1-19.6"/>
	<circle class="st1" cx="224.3" cy="137.8" r="0.3"/>
	<circle class="st1" cx="226.2" cy="141.6" r="0.3"/>
	<path class="st1" d="M227.9,138.8c-0.1,0.3-1.6,2.7-1.6,2.7s0.3-0.1,0.4,0.1c0.6,0.9-0.4,1.6-1.1,1.3c-0.7-0.3-0.6-1-0.4-1.3
		c0.1-0.4,0.7-0.7,1.4-0.7s1.4,0,1.6-0.1c0.3-0.1,0.3-0.6,0.1-0.7c-0.1-0.1-0.6-0.1-1.1-0.1c-0.4,0-1.3,0-2.6,1.1
		c-0.4,0.4-2.4,3.4-4.6,2.7c-0.4-0.1-0.7-0.4-1-0.9l-0.1-0.4c-0.1-0.4-0.1-1,0-1.4c0.7-2,4.4-1.7,5-1.9c1.7-0.3,2.3-1,2.6-1.3
		c0.4-0.4,0.7-0.9,0.6-1c0-0.1-0.3-0.4-0.6-0.3c-0.3,0.1-0.7,0.6-1.1,1.1c-0.4,0.6-1.1,0.9-1.4,0.7c-0.4-0.1-1-0.4-0.9-1.1
		s1.4-1,1.7-0.1c0.1,0.3-0.1,0.4-0.1,0.4s2.9,0.4,3.1,0.4C227.9,138.3,228,138.6,227.9,138.8z"/>
	<path class="st1" d="M221.3,136.9c0,0,4.9-3.7,6.6-5.1c1.7-1.6,5-5.9,5-6.7c0.1-1.1,0.4-1,1-0.4s1,1.3,1.1,1.7
		c0.1,0.3,0.3,0.6,0.7-0.4s1.3-1.7,2-2.1c0.6-0.4,2-0.7,2.9-0.7c0.7,0,1.7,0,2.4,0.1s0.9-0.4,1.1-0.9c0.4-0.4,1.3-0.9,1.9-0.9
		c0.6,0,0.9,0,1.3-0.1c0.4-0.1,0.6-0.7,0.9-1.1c0.4-0.4,1-0.3,1.4-0.3c0.6,0,0.7,0,1.3-0.1c0.6-0.3,0.4-0.6,0.9-0.9s1.1-0.1,1.4-0.1
		c0.3,0,1.9-1.1,2.6-1.6c1.1-0.7,1.6-1.3,2.7-1.6c1.3-0.1,1.7,0.4,1.9,0.7s-0.3,0-0.9-0.1c-0.7-0.3-1.7,0.3-2.1,0.6
		c-0.3,0.1-8.9,5.6-17.7,10.6C230.5,132.2,221.3,136.9,221.3,136.9z"/>
	<ellipse class="st1" cx="259.9" cy="116.4" rx="0.6" ry="0.6"/>
	<path class="st2" d="M153.4,158.2c0,0,11.3,0.4,16.9-0.1c8-0.9,22.7-7.7,26.2-9.3c3.6-1.6,23.6-10.3,27.5-13.6"/>
	<path class="st1" d="M216,132c0,0,0,0,0.1-0.1c0.6-0.4,2.9-2.1,3.3-3.4c0.4-1.4,0.7-2.3,0.4-2.7c-0.4-0.4-0.6-0.6-1-0.7
		c-0.3-0.1-0.3-0.6,0.1-0.6s0.6-0.1,1-0.1c0.3-0.1,1-0.1,1.4,0c0.6,0.1,1,0.3,1,1c0,0.6,0.1,0.9,0.6,0.4c0.4-0.4,1-1,1.1-1.3
		s0-0.6-0.4-0.3c-0.4,0.3-0.1,0.6-0.6,0.7c-0.4,0-0.7-0.1-1-0.6c-0.3-0.4-0.4-1.1-0.1-1.7c0.1-0.6,1-1.4,2-1.7
		c1.4-0.4,3.9-1.1,5.1-1.4c1.4-0.1,1.6-0.3,3.1-1c1.4-0.7,9.4-3.6,11.3-3.9c1-0.1,2.4-0.4,3.4,0c1.6,0.6,1.7,1.7,1.7,2.3
		s-0.3,1.4-0.9,1.9s-2.3,1-3,0.1c-0.7-1-0.4-1.9,0-2.3c0.3-0.4,1.1-0.6,1.7-0.4c0.7,0.1,1,1,0.7,1.4c-0.3,0.3-0.6,0-0.6-0.3
		s0-0.7-0.6-0.7s-0.9,0.3-1,0.7c-0.1,0.4,0.1,1.1,0.4,1.3c0.4,0.3,1,0.1,1.4-0.1c0.6-0.3,1-0.7,1-1.4c0.1-0.6-0.1-1.6-0.9-1.9
		c-0.7-0.3-1.3-0.3-1.9-0.3c-3.9,0.3-14.2,5.1-16.3,6.7C227.6,123,216,132,216,132z"/>
	<circle class="st1" cx="246.8" cy="117.3" r="0.7"/>
	<path class="st2" d="M219.9,128.9c-12.3,9.7-12.3,9.7-14.7,11.7c-0.7,0.6-7.3,5.1-14.9,8.7c-9.6,4.6-15.6,7.3-24,8.3
		c-4.7,0.6-12.2,0.4-12.9,0.4"/>
	<circle class="st1" cx="224.2" cy="118.5" r="0.3"/>
	<path class="st1" d="M218.2,118.3c1.3-1.7,3.4-2.3,5.4-2c0.6,0.1,1.7,0.6,2,1.3c0.3,0.6,0.3,1.6,0,2c-0.4,0.6-1.6,0.9-2.3,0.4
		c-0.4-0.3-0.6-0.9-0.4-1.3c0.1-0.4,0.4-0.9,0.7-1c0.4-0.1,0.7-0.1,0.9,0c0.3,0.1,0.3,0.4,0.3,0.7c0,0.4-0.4,0.4-0.6,0.4
		c0,0,0.3-0.3,0.3-0.6c0-0.1-0.1-0.1-0.3-0.3c-0.4-0.1-1.3,1-0.4,1.6c0.7,0.4,1.7,0,1.7-1c0-0.7-0.6-1.6-1.6-1.7
		c-0.4-0.1-3-0.1-4.4,2c-0.3,0.4-1,1.6-1.4,2.1c-0.1,0.1-0.1,0.3,0,0.3s0.4,0,0.7,0.1c0.4,0.3,0.7,1.1,0.6,1.6
		c-0.1,0.3-0.4,0.9-0.6,1.1c-0.1,0.1-0.3,0.3-0.4,0.3c-0.1,0,0-0.1,0-0.4s0-1-0.6-1c-0.3,0-1.1,0-1.1,0.6c0,0.4-0.1,2.3-1.6,2.9
		c-0.6,0.3-1.6,0.3-2.1-0.1l0,0c-0.6-0.6-0.7-1.6-0.6-2.1c0.4-1.4,2.1-1.9,2.6-2c0.6-0.1,0.4-0.9,0.3-1.3c-0.1-0.4-0.9-0.4-1.1-0.3
		c-0.3,0.1-0.3,0.3-0.4,0.1c0-0.1,0-0.3,0.1-0.4c0.1-0.3,0.7-0.6,1-0.9c0.4-0.3,1.3-0.1,1.7,0.1c0.1,0.1,0.3,0.4,0.3,0.6
		c0,0.1,0.1,0.1,0.3,0C217.2,119.7,217.9,118.7,218.2,118.3z"/>
	<circle class="st1" cx="211.3" cy="128" r="1.1"/>
	<circle class="st1" cx="209.6" cy="130" r="0.7"/>
	<path class="st2" d="M206.7,129.2c0,0-0.6,0.3-0.3,0.7c0.3,0.3,0.6,0.1,1,0c0.6-0.3,0.7-1,0.6-1.3c-0.1-0.4-0.9-1-1.9-0.7
		c-0.7,0.3-1.9,0.9-2.4,3.3c-0.3,1.6-2.3,4.3-3.6,4.7"/>
	<ellipse class="st1" cx="206.7" cy="129.6" rx="0.6" ry="0.7"/>
	<path class="st2" d="M212,130.6c0,0-0.6-0.3-0.4-0.7c0.1-0.6,0.6-0.7,1-0.7c0.6,0.1,0.9,0.9,0.7,1.4c-0.1,0.6-0.6,1.4-2.7,2.3
		c-1,0.4-1.9,0.9-2.4,1.4c-0.3,0.3-0.6,1-1.1,1.6c-0.4,0.4-9.7,8.2-13.6,9.6"/>
	<path class="st3" d="M207.7,135.2c0,0,0.6-0.1,0.9-0.6c1.4-1.4,2.1-0.9,2.4-0.6c0.3,0.4,0,1-0.7,1"/>
	<ellipse class="st1" cx="210.5" cy="134.9" rx="0.6" ry="0.6"/>
	<ellipse class="st1" cx="212" cy="130.2" rx="0.7" ry="0.7"/>
	<path class="st4" d="M209.5,130.3c0,0-7.7,6.9-9.3,8.3c-0.9,0.7-6.9,5-8.9,6.4c-3.3,2.3-12,6.7-13.3,7"/>
	<path class="st1" d="M188.3,144.8c0,0,6.9-5.1,8.6-7.4c2.3-3,4.1-5.6,6.4-8.4c2-2.6,2.7-3.4,4-4.9c1.3-1.3,5.7-5.1,7.6-6.3
		c1.7-1,4.9-2.1,7.4-2.6c2.7-0.4,6.3-0.3,7.7-0.1c1.6,0.3,2.1,0.4,2.9,0.9c0.9,0.4,0.9,0.6,0.9,0.6l-0.3-1.1c0,0-0.7-0.3-2.1-0.6
		c-1.4-0.3-5-0.9-6.7-0.7c-1.6,0-8,0.3-12.4,3.9c-1.1,1-4.7,4-6.6,5.6c-0.9,0.7-2.1,2.6-2.9,2.7c-0.7,0.3-0.7-0.3-1-1.4
		s-0.6-1.7-0.7-2.4c-0.6-1.6-0.6-1-0.6-0.4s0.3,2.4,0,3.6c-0.3,1.1-0.9,4.3-2.1,6.9c-0.9,1.7-1.9,4.1-3.3,5.7s-3.4,3.4-4.9,4.6
		c-1.4,1.1-2,1.6-2,1.6L188.3,144.8z"/>
	<path class="st5" d="M196,120.2c0.3-0.4,0.3-0.7,0.7-0.6c0.6,0.1,0.6,1,0.1,1.4c-0.3,0.1-0.7,0.4-1.3,0.3s-0.9-0.9-0.9-1.4
		c0.1-0.6,0.6-1.1,1.4-1.1c2.7,0,5,6.4,1.3,13.9"/>
	<path class="st3" d="M190,120.7c0,0,0.1-1.1,1-1.6c0.9-0.4,1.7-0.3,2.1,0c0.7,0.3,1.3,1.6,1.3,2.3c0,0.9-0.4,2-1.1,2.6
		c-0.7,0.7-2.4,1-3.4,0.6c-1.1-0.4-2.3-2-2.7-3.7c-0.4-2,0.7-3.7,1.1-4.4c0.6-0.9,2.3-2,4-2.1c1.4,0,3.1,0.4,4.1,1
		c1.7,1.1,3.3,3,3.6,4c0.7,2,1,4,0.9,5"/>
	<circle class="st1" cx="191.3" cy="120.7" r="1.6"/>
	<path class="st1" d="M195,124.7c0,0,0,0.1,0.1,1c0.1,1,0.4,2.4,0.3,4c0,1-0.1,3.7-0.7,5.6c-0.4,1.4-1.1,2.4-1.7,3.3
		c-0.3,0.4-0.3,0.7-0.3,0.7s0.4-0.4,1-1.3c1.1-1.4,1.7-3.4,2.1-4.3c0.4-1.3,0.7-3.3,0.9-4.4s0.1-3.4,0.1-3.7c0-0.3-0.3-0.1-0.9,0
		C195.6,125.5,195,124.7,195,124.7z"/>
	<path class="st6" d="M196.6,125.7c0,0-0.1-1.6,0.7-1.7c0.7-0.1,0.9,0.3,0.9,0.6c0,0.6-0.3,0.6-0.4,0.4"/>
	<circle class="st1" cx="197.7" cy="124.9" r="0.4"/>
	<path class="st6" d="M195.3,126.3c0,0-0.3-0.4-0.7-0.6c-0.4-0.1-0.9,0.1-1.1,0.6c-0.1,0.3-0.3,1,0.1,1.3c0.4,0.3,0.9,0.1,1-0.1
		c0.1-0.3,0-0.7-0.1-0.9"/>
	<circle class="st1" cx="194.4" cy="126.7" r="0.4"/>
	<circle class="st1" cx="196.4" cy="120.2" r="0.7"/>
	<ellipse class="st1" cx="186" cy="128.5" rx="0.6" ry="0.7"/>
	<path class="st5" d="M189.4,129.5c-0.6,0.1-1.4-0.1-1-1.3c0.3-0.6,1.1-0.7,1.7-0.4c0.7,0.3,1.1,1.1,1.4,2.1
		c1.3,3.9-1.4,11.3-1.4,11.3c0.3-0.3,2.9-4.9,3-8.2c0.1-2.6-1-7.3-5-7.9c-1.3-0.1-4.7,0.7-3.9,3.7c0.4,1.3,1.4,1.7,2.1,1.6
		c0.7-0.1,1.1-0.6,1.3-1.4c0.1-0.9-0.3-1.7-1-1.9c-0.4-0.1-1,0-1.3,0.4c-0.1,0.4-0.3,1.3,0.3,1.6s0.9,0,0.7-0.6"/>
	<ellipse class="st1" cx="189.2" cy="128.9" rx="0.7" ry="0.7"/>
	<circle class="st1" cx="156.4" cy="60.5" r="1.7"/>
	<circle class="st1" cx="224.3" cy="60.5" r="1.7"/>
	<circle class="st1" cx="224.3" cy="110.9" r="1.7"/>
	<path class="st1" d="M153,63.4"/>
	<circle class="st1" cx="175.3" cy="110.9" r="1.7"/>
	<path class="st1" d="M196.3,105.3"/>
	<path class="st1" d="M122.1,106.7c2.3-1.1,4.1-2.4,6-4.1c2.1-1.9,4-3.9,5.6-6.1c0.4-0.6,0.7-1.1,1.1-1.7c-0.4-0.3-0.7-0.6-1-0.9
		c-2.9-2.7-2-7.9,1.6-9.6c1.7-0.9,3.3-1,5.3-0.7c0.3,0,0.9,0.1,1,0.1c3.9-6.3,7.7-12.7,11.6-19.2l0,0c-3.3,0-5.7,1.3-7.3,4.1
		c-1.6-2.7-4.6-4.4-7.3-4.9v-0.3c2.3,0,32,0,36.6,0v0.3c-2.7,0.3-5.7,2-7.3,4.9c-1.6-2.7-4-4.1-7.3-4.1l0,0
		c0.6,0.9,17.7,28.2,21,33.2c1.7,2.7,3.7,5.3,6.3,7.3c1.6,1.3,3,2.1,5.3,2.1c0.3,0,0.7,0,1.1,0c0-0.3,0-3.6,0-3.7
		c1.7,2.9,3.1,3.9,5.6,4.6c0,0.1,0,0.1,0,0.3c-0.1,0-41.3,0-44.3,0c0,0-5.7,0-5.9,0c0-0.1,0-0.1,0-0.3c2.4-0.7,3.9-1.7,5.6-4.6
		c0,0.1,0,3.6,0,3.7c0.1,0,0.1,0,0.3,0c1.3,0,1.9-0.1,2.6-0.7c0.9-0.7,1.3-1.7,1.6-2.7c0.6-2.4,0.1-4.6-1.3-6.6c-0.7-1-1.3-2-2-3
		c-3.1,1.7-6.1,1.1-9.3,0c-3.3-1.1-4.9-4.1-6.6-6.7c-0.1,0.3-0.9,1.4-0.9,1.4c2.1,1.1,1.9,3.1,1.9,3.1c-0.1,1.4-0.9,2.4-2.3,3.1
		c-0.9,0.4-1.6,0.4-2.6,0.3c-0.3,0-1-0.1-1-0.1s-0.1,0.3-0.3,0.7c-0.9,1.3-1.1,2.7-0.9,4.3c0.3,2,0.9,4,2.3,5.6
		c0.7,0.9,1.6,1.3,2.7,1.3h0.3c0-0.3,0-3.7,0-3.7c1.7,2.9,3.1,3.9,5.6,4.6c0,0.1,0,0.1,0,0.3c0,0-30,0-30.5,0c0-0.1,0-0.1,0-0.3
		c2.4-0.7,3.9-1.9,5.6-4.6c0,0.1,0,3.6,0,3.9C121.2,107.2,121.8,106.9,122.1,106.7z M142.5,84.1c0.7,0.6,1.3,1.1,1.9,1.6
		c1.1,1,1.9,2.3,2.6,3.7c0.7,1.3,1.4,2.3,2.4,3.3c1.4,1.3,4.6,2.4,6.6,0.3c-3-5-6.1-10-9.2-14.9c-0.1-0.1-0.3-0.3-0.4-0.6
		L142.5,84.1z M136.1,92.1c-1-2.1,1-3.6,2.3-3.6c0.1-0.3,1-1.6,1.3-2.1c-1.7-1.4-4.4-1.3-5.4,0.4c-1,1.6-1.1,3.3-0.4,5
		c0.3,0.7,1,1.3,1.6,1.6C135.7,93,136.1,92.3,136.1,92.1L136.1,92.1z M137,93.3c0,0-0.3,0.6-0.4,0.9c0.9,0.3,1.6,0.4,2.1-0.3h-0.1
		C137.7,93.7,137.5,93.6,137,93.3z"/>
	<circle class="st1" cx="129.2" cy="110.9" r="1.7"/>
	<path class="st1" d="M202.4,108.2c0-0.1,0-0.1,0-0.3c2.4-0.7,3.9-1.7,5.6-4.6c0,0.1,0,3.4,0,3.6c0.1,0,0.1,0,0.3,0c0,0,2.3,0,3.9-1
		c2-1.6,2.7-3.1,3-5.4c0-1.9,0.1-24.3,0.1-28c0-3-1.1-5.7-3.3-7.3c-1.3-0.9-4-0.7-4-0.7c0,0.1,0,4,0,4.1c-1.7-2.9-3.1-4.3-5.6-4.9
		c0-0.1,0-0.1,0-0.3c0,0,2.3,0,5.9,0l0,0c4.3,0,27.7,0,32,0l0,0c3.6,0,5.9,0,5.9,0c0,0.1,0,0.1,0,0.3c-2.4,0.7-3.9,2.1-5.6,4.9
		c0-0.1,0-3.9,0-4.1c0,0-2.9-0.1-4,0.7c-2.1,1.6-3.3,4.3-3.3,7.3c0,3.7,0.1,26.2,0.1,28c0.1,2.1,1,3.7,3,5.4c1.6,1,3.9,1,3.9,1
		c0.1,0,0.1,0,0.3,0c0-0.3,0-3.4,0-3.6c1.7,2.9,3.1,3.9,5.6,4.6c0,0.1,0,0.1,0,0.3C246.2,108.2,202.6,108.2,202.4,108.2z"/>
	<circle class="st1" cx="271.1" cy="60.5" r="1.7"/>
	<circle class="st1" cx="265.9" cy="110.9" r="1.7"/>
	<path class="st1" d="M265.7,73.1"/>
	<circle class="st1" cx="304.3" cy="60.5" r="1.7"/>
	<circle class="st1" cx="303" cy="110.9" r="1.7"/>
	<circle class="st1" cx="361.6" cy="110.9" r="1.7"/>
	<path class="st1" d="M289.5,108.2c0,0,0-0.1,0-0.3c1.9-0.3,3.7-1.4,4.9-3.3c1,1.9,2.9,2.4,5,2.6l0,0c-10.6-12-21.5-23.9-32.3-35.9
		c-0.1,0.3-0.3,1-0.3,2.1c0,0,0,18.7,0,22.2c0,3.1,1,6.1,3,8.6c0.7,1,1.7,1.9,2.7,2.6c0.9,0.6,3,0.6,3,0.6c0-0.3,0-3.6,0-3.7
		c1.7,2.9,3.1,3.9,5.6,4.6c0,0.1,0,0.1,0,0.3h-30c0-0.1,0-0.1,0-0.3c2.4-0.7,3.9-1.7,5.6-4.6c0,0.1,0,3.6,0,3.7c0.1,0,2.1,0,3-0.6
		c1-0.7,2-1.6,2.7-2.6c2-2.4,3-5.3,3-8.6s0-22.2,0-22.2c0.1-4.3-3.1-7.6-6.6-8.6c-0.6-0.1-2-0.1-2-0.1c0,0.3,0,3.6,0,3.7
		c-1.7-2.9-3.1-3.9-5.6-4.6c0-0.1,0-0.1,0-0.3c0,0,29.2,0,31.9,0c0.4,0,0.7,0.3,1,0.7c3.6,4.1,18.9,21.3,19.2,21.5
		c0-0.4,0-12.3,0-14.4c0-1.9-1-3.7-3-5.1c-0.7-0.6-1.7-1.1-2.7-1.6c-0.9-0.3-3-0.3-3-0.3c0,0.1,0,2.1,0,2.3
		c-1.7-1.7-3.1-2.3-5.6-2.7c0,0,0-0.1,0-0.3h30c0,0,0,0.1,0,0.3c-2.4,0.4-3.9,1-5.6,2.7c0-0.1,0-2.1,0-2.3c-0.1,0-2.1,0-3,0.3
		c-1,0.4-2,1-2.7,1.6c-2,1.4-3,3.3-3,5.1c0,2,0,35.5,0,35.9l0,0c2.1-0.1,3.9-0.7,5-2.6c1.1,2,3,3.1,4.9,3.3c0,0,0,0.1,0,0.3
		c-0.7,0-5,0-9.9,0C304.8,108.2,290,108.2,289.5,108.2z"/>
	<circle class="st1" cx="361.3" cy="60.5" r="1.7"/>
	<path class="st1" d="M358,79.6"/>
	<path class="st1" d="M366.3,87"/>
	<path class="st1" d="M363.5,77.8L363.5,77.8L363.5,77.8z"/>
	<path class="st1" d="M356,85.1c0,0.1,0,16.7,0,17.9c0.3,1.9,1.7,3.1,3.3,3.7c0.9,0.3,1.9,0.3,2.7,0.4c3.7,0,7.3,0,10.9,0
		c2,0,3.7-0.1,5.6-0.7c2-0.7,3.6-2,3.9-4.3c-0.1,0.1-0.6,0.4-0.6,0.4c-3,2.1-7,2.4-10,1.7c-1.6-0.4-2.7-1-4-1.9
		c-1.4-1.1-2.4-2.6-2.6-4c-0.3-2.3,1.1-4.4,3.3-5.7c1.6-1,3.6-1.6,5.7-1.6c2.3-0.1,4.7,0.4,6.6,1.4c3.4,1.9,4.7,4.9,3.9,9
		c-0.4,1.6-1.7,4.1-3.6,5.1c-1.7,0.9-3.3,1.4-6.4,1.4c-3,0-49.2,0-49.2,0c0-0.1,0-0.1,0-0.3c2.9-0.7,4.6-1.7,6.6-4.6
		c0,0.1,0,3.6,0,3.7h0.9c3.6-0.1,4.3-0.9,5-2.4c0.6-1.1,0.9-2.3,0.9-3.6c0-9.3,0-18.7,0-28c0-1.7-0.4-3.1-1.3-4.6
		c-0.7-1.3-1.6-2.4-2.7-3.3c-0.9-0.6-2.6-0.7-2.7-0.7c0,0.3,0,3.6,0,3.7c-2-2.9-3.7-3.9-6.6-4.6c0-0.1,0-0.1,0-0.3c0,0,2.7,0,7,0
		c0,0,39.6,0,42.5,0c3.3,0.1,5.9,1.7,7.9,4.3c0.4,0.6,0.9,1.3,1.1,2c1,2.6,1,4.6-2,6.7c-1,0.7-1.9,1-3.1,1.4
		c-2.6,0.7-5.1,0.4-7.4-0.4c-1.7-0.6-3.4-1.7-4.3-3.9c-0.4-1.3,0-2.7,0.6-3.6c1.3-1.7,3.1-2.6,4.9-3c2.4-0.6,5.4-0.6,8.4,0.9
		c-0.1-0.6-0.9-1.3-1.6-1.7c-1.7-1.1-3.6-1.6-5.6-1.6c-3.3,0-6.7,0-10,0c-3.7,0-6.6,2.6-7.4,5c-0.3,0.7-0.4,1.6-0.4,2.3
		c0,3.9,0,11.7,0,12.2c0,0,3.6-0.6,4.6-1.3c1.6-1,2.9-4.6,2.9-4.6s1.7,3.9,2.7,4.6c1,0.9,5,1.9,5,1.9s-4.4,1.4-5.3,2.4
		c-0.9,0.9-2.3,4.4-2.3,4.4s-1.9-3.3-2.9-4.1C359.3,86.1,356,85.1,356,85.1z"/>
	<path class="st1" d="M388.2,108.2c0-0.1,0-0.1,0-0.3c-1.4-0.7-2.7-1.4-3.7-2.9l0,0c-1,1.3-2.1,2.1-3.7,2.9c0,0.1,0,0.1,0,0.3
		C382.1,108.2,386.9,108.2,388.2,108.2z"/>
	<path class="st1" d="M380.8,63.4c0,0.1,0,0.1,0,0.3c1.4,0.7,2.7,1.4,3.7,2.9l0,0c1-1.3,2.1-2.1,3.7-2.9c0-0.1,0-0.1,0-0.3
		C386.9,63.4,382.1,63.4,380.8,63.4z"/>
	<ellipse class="st1" cx="177.1" cy="137.3" rx="2" ry="2"/>
	<path class="st2" d="M177.6,142.6c-9.4,9.6-30.5,10.7-48.5,5.3c-4.3-1.3-11.6-5-16-8"/>
	<path class="st1" d="M178.6,136c0.4,0.3,0.9,1.4,0.9,2.6c0,1.4-0.3,2.4-1.4,4.1c-0.9,1.1-3.1,2.7-5.1,3.6s-4,2-5,2.4h-0.1
		c6.4-2,9.4-5.6,10-6.9c0.7-1.4,0.6-2.4,0.4-3"/>
	<path class="st1" d="M169.7,137.9c0,0,0.9-1.1,2.6-0.7c1.7,0.6,1.6,2.1,1.6,2.1s-2.1,3.1-5.7,5.6c-3.3,2.1-7.9,5-17.9,5.1
		s-10.2-0.6-10.2-0.6s13.6,1.1,18.4-1c5.6-2.4,7.9-5,9.3-6.6C169.4,139.8,169.7,137.9,169.7,137.9z"/>
	<path class="st1" d="M163,141.8c0,0,0.6-0.9,0.6-1.1c0-0.6,1,0.9-0.7,2.1c-2.3,1.9-4.7,2.9-7.6,4c-3.1,1.1-9.4,2.3-13.7,2
		c-7.3-0.4-7.3-0.9-7.3-0.9s4.6,0.4,9,0.3c2.7,0,5.3-0.4,7-0.9c3.1-0.7,4.7-1.4,6.3-2.1C162.4,142.6,163,141.8,163,141.8z"/>
	<circle class="st1" cx="162.1" cy="141" r="1.7"/>
	<path class="st1" d="M155.8,140.5c-0.7,0-2.1-0.4-1.6-1.7c0.6-1.3,0.9-1.6,1.7-1.3c0.7,0.3,1.9,1,1.4,2.3c-0.4,1.3-0.9,1.9-2.6,3.6
		c-1.9,1.9-5.1,3.3-8.7,3.9c-4.1,0.6-9,0.4-9,0.4s8-0.3,10.9-1.3c3-1,5.6-2.6,6.6-3.7C155.4,141.2,155.8,140.5,155.8,140.5z"/>
	<ellipse class="st1" cx="155.7" cy="139" rx="1.7" ry="1.7"/>
	<path class="st1" d="M148,131.5c0.9-0.4,1.9-0.6,3,0.1c1.3,0.9,2.6,2.3,2.1,5.4c-0.1,1.3-0.6,3.1-2.4,4.9c-1.7,1.9-2.6,2.3-5.3,3.4
		c-2.1,0.9-4.6,1-5.3,1c-0.7-0.1-0.9-0.3-0.9-0.3s2.9,0.4,7.2-1.6c2.6-1.3,4.9-3.1,5.6-5.7c0.7-2.7,0.3-3.4,0-4.1
		c-0.4-0.9-1.9-1.9-1.9-1.9s0,0.6-0.6,0.7c-0.9,0.3-1.9,0-1.9-0.7C147.5,132,148,131.5,148,131.5z"/>
	<ellipse class="st1" cx="148.7" cy="132.8" rx="1.4" ry="1.6"/>
	<path class="st1" d="M146.4,134.9c0.9-0.1,1.9,0.6,2.1,1c0.4,0.4,0.9,1,0.7,2.3c0,1.3-0.9,4.3-4.3,5.9c-1.6,0.7-4.1,1.3-4.1,1.3
		s4.1-1,5.7-2.9c2.1-2.4,2.4-3.7,1.6-5.3c-1-1.9-1.3,0.1-1.4-0.4C146.2,136,146.4,134.9,146.4,134.9z"/>
	<circle class="st1" cx="146.5" cy="136" r="1.3"/>
	<ellipse transform="matrix(0.9808 -0.1951 0.1951 0.9808 -23.9575 30.5687)" class="st1" cx="143.2" cy="136.9" rx="0.9" ry="1"/>
	<path class="st1" d="M143.8,136.2c0.1,0.1,0.6,0.6,0.6,1.1c0.1,0.6,0.1,1.1-0.3,2.1c-0.3,0.6-1.1,1.6-2,2.1
		c-0.9,0.6-1.9,1.1-2.3,1.4l0,0c2.9-1.6,4-3.4,4.1-4c0.1-0.7,0-1.1-0.1-1.4"/>
	<g>
		<g>
			<rect x="335.9" y="52.7" class="st7" width="3" height="3.1"/>
		</g>
		<g>
			<rect x="332.7" y="52.7" class="st7" width="3" height="3.1"/>
		</g>
		<g>
			<rect x="329.6" y="52.7" class="st7" width="3" height="3.1"/>
		</g>
		<g>
			<rect x="326.3" y="52.7" class="st7" width="3" height="3.1"/>
		</g>
		<g>
			<rect x="323.1" y="52.7" class="st7" width="3" height="3.1"/>
		</g>
		<g>
			<rect x="320" y="52.7" class="st7" width="3" height="3.1"/>
		</g>
		<g>
			<rect x="316.7" y="52.7" class="st7" width="3" height="3.1"/>
		</g>
		<g>
			<rect x="313.6" y="52.7" class="st7" width="3" height="3.1"/>
		</g>
		<g>
			<rect x="310.3" y="52.7" class="st7" width="3" height="3.1"/>
		</g>
		<g>
			<rect x="307.1" y="52.7" class="st7" width="3" height="3.1"/>
		</g>
		<g>
			<rect x="304" y="52.7" class="st7" width="3" height="3.1"/>
		</g>
		<g>
			<rect x="300.7" y="52.7" class="st7" width="3" height="3.1"/>
		</g>
		<g>
			<rect x="297.5" y="52.7" class="st7" width="3" height="3.1"/>
		</g>
		<g>
			<rect x="294.4" y="52.7" class="st7" width="3" height="3.1"/>
		</g>
		<g>
			<rect x="291.1" y="52.7" class="st7" width="3" height="3.1"/>
		</g>
		<g>
			<rect x="288" y="52.7" class="st7" width="3" height="3.1"/>
		</g>
		<g>
			<rect x="284.8" y="52.7" class="st7" width="3" height="3.1"/>
		</g>
		<g>
			<rect x="281.5" y="52.7" class="st7" width="3" height="3.1"/>
		</g>
		<g>
			<rect x="278.4" y="52.7" class="st7" width="3" height="3.1"/>
		</g>
		<g>
			<rect x="275.2" y="52.7" class="st7" width="3" height="3.1"/>
		</g>
		<g>
			<rect x="271.9" y="52.7" class="st7" width="3" height="3.1"/>
		</g>
		<g>
			<rect x="268.8" y="52.7" class="st7" width="3" height="3.1"/>
		</g>
		<g>
			<rect x="265.5" y="52.7" class="st7" width="3" height="3.1"/>
		</g>
		<g>
			<rect x="262.4" y="52.7" class="st7" width="3" height="3.1"/>
		</g>
		<g>
			<rect x="259.2" y="52.7" class="st7" width="3" height="3.1"/>
		</g>
		<g>
			<rect x="255.9" y="52.7" class="st7" width="3" height="3.1"/>
		</g>
		<g>
			<rect x="252.8" y="52.7" class="st7" width="3" height="3.1"/>
		</g>
		<g>
			<rect x="249.6" y="52.7" class="st7" width="3" height="3.1"/>
		</g>
		<g>
			<rect x="246.4" y="52.7" class="st7" width="3" height="3.1"/>
		</g>
		<g>
			<rect x="243.2" y="52.7" class="st7" width="3" height="3.1"/>
		</g>
		<g>
			<rect x="240.1" y="52.7" class="st7" width="3" height="3.1"/>
		</g>
		<g>
			<rect x="236.8" y="52.7" class="st7" width="3" height="3.1"/>
		</g>
		<g>
			<rect x="233.6" y="52.7" class="st7" width="3" height="3.1"/>
		</g>
		<g>
			<rect x="230.3" y="52.7" class="st7" width="3" height="3.1"/>
		</g>
		<g>
			<rect x="227.2" y="52.7" class="st7" width="3" height="3.1"/>
		</g>
		<g>
			<rect x="224" y="52.7" class="st7" width="3" height="3.1"/>
		</g>
		<g>
			<rect x="220.8" y="52.7" class="st7" width="3" height="3.1"/>
		</g>
		<g>
			<rect x="217.6" y="52.7" class="st7" width="3" height="3.1"/>
		</g>
		<g>
			<rect x="214.5" y="52.7" class="st7" width="3" height="3.1"/>
		</g>
		<g>
			<rect x="211.2" y="52.7" class="st7" width="3" height="3.1"/>
		</g>
		<g>
			<rect x="208" y="52.7" class="st7" width="3" height="3.1"/>
		</g>
		<g>
			<rect x="204.9" y="52.7" class="st7" width="3" height="3.1"/>
		</g>
		<g>
			<rect x="201.6" y="52.7" class="st7" width="3" height="3.1"/>
		</g>
		<g>
			<rect x="198.4" y="52.7" class="st7" width="3" height="3.1"/>
		</g>
		<g>
			<rect x="195.2" y="52.7" class="st7" width="3" height="3.1"/>
		</g>
		<g>
			<rect x="192" y="52.7" class="st7" width="3" height="3.1"/>
		</g>
		<g>
			<rect x="188.9" y="52.7" class="st7" width="3" height="3.1"/>
		</g>
		<g>
			<rect x="185.6" y="52.7" class="st7" width="3" height="3.1"/>
		</g>
		<g>
			<rect x="182.4" y="52.7" class="st7" width="3" height="3.1"/>
		</g>
		<g>
			<rect x="179.3" y="52.7" class="st7" width="3" height="3.1"/>
		</g>
		<g>
			<rect x="176" y="52.7" class="st7" width="3" height="3.1"/>
		</g>
		<g>
			<rect x="172.8" y="52.7" class="st7" width="3" height="3.1"/>
		</g>
		<g>
			<rect x="169.7" y="52.7" class="st7" width="3" height="3.1"/>
		</g>
		<g>
			<rect x="166.4" y="52.7" class="st7" width="3" height="3.1"/>
		</g>
		<g>
			<rect x="163.3" y="52.7" class="st7" width="3" height="3.1"/>
		</g>
		<g>
			<rect x="160.1" y="52.7" class="st7" width="3" height="3.1"/>
		</g>
		<g>
			<rect x="156.8" y="52.7" class="st7" width="3" height="3.1"/>
		</g>
		<g>
			<rect x="153.7" y="52.7" class="st7" width="3" height="3.1"/>
		</g>
		<g>
			<rect x="150.4" y="52.7" class="st7" width="3" height="3.1"/>
		</g>
		<g>
			<rect x="147.3" y="52.7" class="st7" width="3" height="3.1"/>
		</g>
		<g>
			<rect x="144.1" y="52.7" class="st7" width="3" height="3.1"/>
		</g>
		<g>
			<rect x="140.8" y="52.7" class="st7" width="3" height="3.1"/>
		</g>
		<g>
			<rect x="137.7" y="52.7" class="st7" width="3" height="3.1"/>
		</g>
		<g>
			<rect x="134.5" y="52.7" class="st7" width="3" height="3.1"/>
		</g>
		<g>
			<rect x="131.2" y="52.7" class="st7" width="3" height="3.1"/>
		</g>
		<g>
			<rect x="128.1" y="52.7" class="st7" width="3" height="3.1"/>
		</g>
		<g>
			<rect x="124.9" y="52.7" class="st7" width="3" height="3.1"/>
		</g>
		<g>
			<rect x="121.7" y="52.7" class="st7" width="3" height="3.1"/>
		</g>
		<g>
			<rect x="118.5" y="52.7" class="st7" width="3" height="3.1"/>
		</g>
		<g>
			<rect x="115.2" y="52.7" class="st7" width="3" height="3.1"/>
		</g>
		<g>
			<rect x="112.1" y="52.7" class="st7" width="3" height="3.1"/>
		</g>
	</g>
	<g>
		<g>
			<ellipse class="st1" cx="337.4" cy="54.2" rx="0.4" ry="0.4"/>
		</g>
		<g>
			<ellipse class="st1" cx="334.3" cy="54.2" rx="0.4" ry="0.4"/>
		</g>
		<g>
			<ellipse class="st1" cx="331" cy="54.2" rx="0.4" ry="0.4"/>
		</g>
		<g>
			<ellipse class="st1" cx="327.9" cy="54.2" rx="0.4" ry="0.4"/>
		</g>
		<g>
			<ellipse class="st1" cx="324.7" cy="54.2" rx="0.4" ry="0.4"/>
		</g>
		<g>
			<ellipse class="st1" cx="321.4" cy="54.2" rx="0.4" ry="0.4"/>
		</g>
		<g>
			<ellipse class="st1" cx="318.3" cy="54.2" rx="0.4" ry="0.4"/>
		</g>
		<g>
			<ellipse class="st1" cx="315.1" cy="54.2" rx="0.4" ry="0.4"/>
		</g>
		<g>
			<ellipse class="st1" cx="311.8" cy="54.2" rx="0.4" ry="0.4"/>
		</g>
		<g>
			<ellipse class="st1" cx="308.7" cy="54.2" rx="0.4" ry="0.4"/>
		</g>
		<g>
			<ellipse class="st1" cx="305.6" cy="54.2" rx="0.4" ry="0.4"/>
		</g>
		<g>
			<ellipse class="st1" cx="302.3" cy="54.2" rx="0.4" ry="0.4"/>
		</g>
		<g>
			<ellipse class="st1" cx="299.1" cy="54.2" rx="0.4" ry="0.4"/>
		</g>
		<g>
			<ellipse class="st1" cx="295.8" cy="54.2" rx="0.4" ry="0.4"/>
		</g>
		<g>
			<ellipse class="st1" cx="292.7" cy="54.2" rx="0.4" ry="0.4"/>
		</g>
		<g>
			<ellipse class="st1" cx="289.5" cy="54.2" rx="0.4" ry="0.4"/>
		</g>
		<g>
			<ellipse class="st1" cx="286.3" cy="54.2" rx="0.4" ry="0.4"/>
		</g>
		<g>
			<ellipse class="st1" cx="283.1" cy="54.2" rx="0.4" ry="0.4"/>
		</g>
		<g>
			<ellipse class="st1" cx="280" cy="54.2" rx="0.4" ry="0.4"/>
		</g>
		<g>
			<ellipse class="st1" cx="276.7" cy="54.2" rx="0.4" ry="0.4"/>
		</g>
		<g>
			<ellipse class="st1" cx="273.5" cy="54.2" rx="0.4" ry="0.4"/>
		</g>
		<g>
			<ellipse class="st1" cx="270.4" cy="54.2" rx="0.4" ry="0.4"/>
		</g>
		<g>
			<ellipse class="st1" cx="267.1" cy="54.2" rx="0.4" ry="0.4"/>
		</g>
		<g>
			<ellipse class="st1" cx="263.9" cy="54.2" rx="0.4" ry="0.4"/>
		</g>
		<g>
			<ellipse class="st1" cx="260.7" cy="54.2" rx="0.4" ry="0.4"/>
		</g>
		<g>
			<ellipse class="st1" cx="257.5" cy="54.2" rx="0.4" ry="0.4"/>
		</g>
		<g>
			<ellipse class="st1" cx="254.4" cy="54.2" rx="0.4" ry="0.4"/>
		</g>
		<g>
			<ellipse class="st1" cx="251.1" cy="54.2" rx="0.4" ry="0.4"/>
		</g>
		<g>
			<ellipse class="st1" cx="247.9" cy="54.2" rx="0.4" ry="0.4"/>
		</g>
		<g>
			<ellipse class="st1" cx="244.8" cy="54.2" rx="0.4" ry="0.4"/>
		</g>
		<g>
			<ellipse class="st1" cx="241.5" cy="54.2" rx="0.4" ry="0.4"/>
		</g>
		<g>
			<ellipse class="st1" cx="238.3" cy="54.2" rx="0.4" ry="0.4"/>
		</g>
		<g>
			<ellipse class="st1" cx="235.2" cy="54.2" rx="0.4" ry="0.4"/>
		</g>
		<g>
			<ellipse class="st1" cx="231.9" cy="54.2" rx="0.4" ry="0.4"/>
		</g>
		<g>
			<ellipse class="st1" cx="228.8" cy="54.2" rx="0.4" ry="0.4"/>
		</g>
		<g>
			<ellipse class="st1" cx="225.6" cy="54.2" rx="0.4" ry="0.4"/>
		</g>
		<g>
			<ellipse class="st1" cx="222.3" cy="54.2" rx="0.4" ry="0.4"/>
		</g>
		<g>
			<ellipse class="st1" cx="219.2" cy="54.2" rx="0.4" ry="0.4"/>
		</g>
		<g>
			<ellipse class="st1" cx="215.9" cy="54.2" rx="0.4" ry="0.4"/>
		</g>
		<g>
			<ellipse class="st1" cx="212.7" cy="54.2" rx="0.4" ry="0.4"/>
		</g>
		<g>
			<ellipse class="st1" cx="209.6" cy="54.2" rx="0.4" ry="0.4"/>
		</g>
		<g>
			<ellipse class="st1" cx="206.3" cy="54.2" rx="0.4" ry="0.4"/>
		</g>
		<g>
			<ellipse class="st1" cx="203.2" cy="54.2" rx="0.4" ry="0.4"/>
		</g>
		<g>
			<ellipse class="st1" cx="200" cy="54.2" rx="0.4" ry="0.4"/>
		</g>
		<g>
			<ellipse class="st1" cx="196.7" cy="54.2" rx="0.4" ry="0.4"/>
		</g>
		<g>
			<ellipse class="st1" cx="193.6" cy="54.2" rx="0.4" ry="0.4"/>
		</g>
		<g>
			<ellipse class="st1" cx="190.4" cy="54.2" rx="0.4" ry="0.4"/>
		</g>
		<g>
			<ellipse class="st1" cx="187.1" cy="54.2" rx="0.4" ry="0.4"/>
		</g>
		<g>
			<ellipse class="st1" cx="184" cy="54.2" rx="0.4" ry="0.4"/>
		</g>
		<g>
			<ellipse class="st1" cx="180.7" cy="54.2" rx="0.4" ry="0.4"/>
		</g>
		<g>
			<ellipse class="st1" cx="177.6" cy="54.2" rx="0.4" ry="0.4"/>
		</g>
		<g>
			<ellipse class="st1" cx="174.4" cy="54.2" rx="0.4" ry="0.4"/>
		</g>
		<g>
			<ellipse class="st1" cx="171.1" cy="54.2" rx="0.4" ry="0.4"/>
		</g>
		<g>
			<ellipse class="st1" cx="168" cy="54.2" rx="0.4" ry="0.4"/>
		</g>
		<g>
			<ellipse class="st1" cx="164.8" cy="54.2" rx="0.4" ry="0.4"/>
		</g>
		<g>
			<ellipse class="st1" cx="161.6" cy="54.2" rx="0.4" ry="0.4"/>
		</g>
		<g>
			<ellipse class="st1" cx="158.4" cy="54.2" rx="0.4" ry="0.4"/>
		</g>
		<g>
			<ellipse class="st1" cx="155.3" cy="54.2" rx="0.4" ry="0.4"/>
		</g>
		<g>
			<ellipse class="st1" cx="152" cy="54.2" rx="0.4" ry="0.4"/>
		</g>
		<g>
			<ellipse class="st1" cx="148.8" cy="54.2" rx="0.4" ry="0.4"/>
		</g>
		<g>
			<ellipse class="st1" cx="145.7" cy="54.2" rx="0.4" ry="0.4"/>
		</g>
		<g>
			<ellipse class="st1" cx="142.4" cy="54.2" rx="0.4" ry="0.4"/>
		</g>
		<g>
			<ellipse class="st1" cx="139.2" cy="54.2" rx="0.4" ry="0.4"/>
		</g>
		<g>
			<ellipse class="st1" cx="136" cy="54.2" rx="0.4" ry="0.4"/>
		</g>
		<g>
			<ellipse class="st1" cx="132.8" cy="54.2" rx="0.4" ry="0.4"/>
		</g>
		<g>
			<ellipse class="st1" cx="129.7" cy="54.2" rx="0.4" ry="0.4"/>
		</g>
		<g>
			<ellipse class="st1" cx="126.4" cy="54.2" rx="0.4" ry="0.4"/>
		</g>
		<g>
			<ellipse class="st1" cx="123.2" cy="54.2" rx="0.4" ry="0.4"/>
		</g>
		<g>
			<ellipse class="st1" cx="120.1" cy="54.2" rx="0.4" ry="0.4"/>
		</g>
		<g>
			<ellipse class="st1" cx="116.8" cy="54.2" rx="0.4" ry="0.4"/>
		</g>
		<g>
			<ellipse class="st1" cx="113.6" cy="54.2" rx="0.4" ry="0.4"/>
		</g>
	</g>
	<g>
		<rect x="383.9" y="52.7" class="st7" width="3" height="3.1"/>
	</g>
	<g>
		<rect x="380.8" y="52.7" class="st7" width="3" height="3.1"/>
	</g>
	<g>
		<rect x="377.5" y="52.7" class="st7" width="3" height="3.1"/>
	</g>
	<g>
		<rect x="374.3" y="52.7" class="st7" width="3" height="3.1"/>
	</g>
	<g>
		<rect x="371.1" y="52.7" class="st7" width="3" height="3.1"/>
	</g>
	<g>
		<rect x="367.9" y="52.7" class="st7" width="3" height="3.1"/>
	</g>
	<g>
		<rect x="364.8" y="52.7" class="st7" width="3" height="3.1"/>
	</g>
	<g>
		<ellipse class="st1" cx="385.5" cy="54.2" rx="0.4" ry="0.4"/>
	</g>
	<g>
		<ellipse class="st1" cx="382.2" cy="54.2" rx="0.4" ry="0.4"/>
	</g>
	<g>
		<ellipse class="st1" cx="379.1" cy="54.2" rx="0.4" ry="0.4"/>
	</g>
	<g>
		<ellipse class="st1" cx="375.9" cy="54.2" rx="0.4" ry="0.4"/>
	</g>
	<g>
		<ellipse class="st1" cx="372.6" cy="54.2" rx="0.4" ry="0.4"/>
	</g>
	<g>
		<ellipse class="st1" cx="369.5" cy="54.2" rx="0.4" ry="0.4"/>
	</g>
	<g>
		<ellipse class="st1" cx="366.2" cy="54.2" rx="0.4" ry="0.4"/>
	</g>
	<path class="st7" d="M351.3,51.2c-1.7,0-5.9,0.3-5.9,0.3l1.4,2.1c0,0-1-0.1-2.9,0.6c-1.9,0.6-3.1,1.6-3.1,1.6H339v-3.1l4.6-1.4
		l-0.9-2c0,0,3.4-1.3,9-1.4l0,0c5.4,0.1,9.2,1.4,9.2,1.4l-0.9,2l4.6,1.4v3.1h-1.9c0,0-1.3-1-3.1-1.6c-1.9-0.6-2.7-0.6-2.7-0.6
		l1.4-2.1C358.3,51.5,352.6,51.2,351.3,51.2z"/>
	<line class="st7" x1="342.3" y1="51.8" x2="342.3" y2="55"/>
	<line class="st7" x1="348.9" y1="48" x2="348.9" y2="51.4"/>
	<line class="st7" x1="352.3" y1="47.8" x2="352.3" y2="51.2"/>
	<line class="st7" x1="355.5" y1="48.1" x2="355.5" y2="51.5"/>
	<path class="st8" d="M346.9,53.7"/>
	<line class="st7" x1="345.5" y1="51.5" x2="345.5" y2="48.5"/>
	<g>
		<ellipse class="st1" cx="347.2" cy="50" rx="0.4" ry="0.4"/>
	</g>
	<g>
		<ellipse class="st1" cx="350.6" cy="49.7" rx="0.4" ry="0.4"/>
	</g>
	<g>
		<ellipse class="st1" cx="353.7" cy="49.8" rx="0.4" ry="0.4"/>
	</g>
	<line class="st7" x1="358.5" y1="48.7" x2="358.5" y2="51.5"/>
	<g>
		<ellipse class="st1" cx="356.9" cy="50" rx="0.4" ry="0.4"/>
	</g>
	<g>
		<ellipse class="st1" cx="340.6" cy="54.2" rx="0.4" ry="0.4"/>
	</g>
	<line class="st7" x1="361.8" y1="55" x2="361.8" y2="51.8"/>
	<g>
		<ellipse class="st1" cx="363.3" cy="54.2" rx="0.4" ry="0.4"/>
	</g>
	<g>
		<ellipse class="st1" cx="360" cy="52.8" rx="0.4" ry="0.4"/>
	</g>
	<g>
		<ellipse class="st1" cx="344" cy="52.4" rx="0.4" ry="0.4"/>
	</g>
	<path class="st1" d="M412.4,85.6c-2.9,0.4-5.7,0.4-8.3,2c-1-1.4-2.4-1.9-4.3-2c1.9-0.3,3.3-0.9,4.4-2.1
		C406.7,84.8,409.5,85.1,412.4,85.6z"/>
	<line class="st9" x1="395.4" y1="100.1" x2="395.4" y2="100.1"/>
	<path class="st1" d="M402.7,80.8c-1,0.4-1.9,0.9-2.9,1.3c0.3-0.6,1.1-2.4,1.3-2.9c1-0.3,1.9-0.6,2.7-1
		C403.5,79.1,403.1,80,402.7,80.8z"/>
	<circle class="st1" cx="396.9" cy="85.7" r="1.4"/>
	<path class="st1" d="M396.9,82c-0.3-1.9-0.3-3.9-1.3-5.6c1-1.4,0.9-3,1.3-4.6l0,0c0.4,1.6,0.4,3.1,1.3,4.6
		C397.2,78,397.2,80,396.9,82L396.9,82z"/>
	<path class="st1" d="M402.7,90c-1-0.4-1.9-0.9-2.9-1.3c0.3,0.6,1.1,2.4,1.3,2.9c1,0.3,1.9,0.6,2.7,1
		C403.5,91.7,403.1,90.9,402.7,90z"/>
	<path class="st1" d="M396.9,89c-0.3,1.9-0.3,3.9-1.3,5.6c1,1.4,0.9,3,1.3,4.6l0,0c0.4-1.6,0.4-3.1,1.3-4.6
		C397.2,92.9,397.2,90.9,396.9,89L396.9,89z"/>
	<path class="st1" d="M387.9,85.6c1.1-0.3,2.3-0.3,3.3-1.3c0.9,1,1.7,0.9,2.6,1.3l0,0c-0.9,0.4-1.9,0.4-2.6,1.3
		C390.1,85.8,388.9,86,387.9,85.6L387.9,85.6z"/>
	<path class="st1" d="M11.3,124.7c0,0,1.4-2.3,2.3-3.4c0.7-1.1,4.3-5.1,6.3-7c6.1-5.7,12.3-10.2,15.4-16.7c0.9-2,3.1-7.4,1.6-12.4
		c-0.4-1.7-2-3.1-3.7-3.6c-3.6-1-5.7,1.1-6,2.9c-0.3,2,0.6,2.7,1.1,3.1c0.9,0.6,2.1,0.3,2.7-0.4c0.6-0.7,0.3-1.9-0.1-2.3
		s-1.6-0.6-2.4,0.1c-0.4,0.4-0.6,1.1-0.6,1.1S27.6,85,28.1,84c0.9-1.4,2.1-1.7,3-1.7s3,0.1,4.4,2.3c1.4,2.1,1.3,5,0.1,9.3
		s-5.6,11.2-10.3,14.7c-3.4,2.6-8.3,7-11.7,11.2c-1.1,1.3-2.1,3.4-2.1,3.4L11.3,124.7z"/>
	<path class="st1" d="M103.2,123.7c1.4,4.4,5.3,11,7.7,13.4c7.9,8.6,16.3,12.6,23.5,13.7c7,1.1,15.2,1.7,20.6,1.6
		c6.6-0.3,15.9-3.3,20.4-5.7c3.1-1.7,7.2-4.3,7-8.3c0-3.4-1.1-5-3.3-6.3c-1.7-1-4-1.9-6-0.9c-2,0.9-2.3,2-2.1,0.3s2.7-2,2.7-2
		s-3.3,0-5.4,1c-2.1,1-4.3,2.4-4.3,2.4s-0.7-2.9,1.7-4.7c1.3-1,4.4-2.1,4.4-2.1s-3.6-0.7-6.3,1c-2,1.3-4,3.3-4.1,5.4
		c-0.1,1.7,0.6,2.4,0.6,2.4s-1,0.4-3-0.4c-2.3-1.1-2.3-6.7,0.3-8.9c4.9-3.9,7.9-2.9,7.9-2.9s-4.9-0.4-8.2,1.3c-2,1-3.9,3.3-3.9,3.3
		s0.1-0.3-1.3-1.4c-1.4-1.1-6.4-3.4-13.3-0.4c-1.9,0.9-9.6,4-10,10c0,0.4,0,4.3,2.9,4.7c1.4,0.3,1.6,0.1,1.6,0.1s-1.7,0-2.4-0.3
		c-3-1.4-1.7-6.9,1.1-7.4c4.1-1,6.1,3,5.7,5.1c-0.4,2.3-1.9,3.6-3.7,4.1c-1.4,0.4-4,0.1-5.7-1.4c-1.3-1.1-2.1-3.9-1.9-6
		c0.4-3,3.7-5.7,5.1-6.6c3-1.9,8-4,10.2-4.7c3.1-1,11.4-2,13-2.1c5.1-0.1,10.7-0.1,14.4,0.9c3.3,0.9,9.4,3.3,12.3,6.9
		c3.1,3.9,4.6,9.7,1.1,14c-3.4,4.6-12.6,9.7-27,10.9c-4.9,0.4-10.2,0.4-13.2,0.1c-6.1-0.6-14.7-2.1-21.3-5.1
		c-3.7-1.7-8.7-4.9-11-6.6c-4-3-11.7-10-14.4-13.7c-2.6-3.6-5.3-8-7.2-12c-1.1-2.3-3.1-9.6-3.1-9.6L76.2,95c0,0-0.3,21.2,0.1,27.7
		c0.4,6.4,7.7,13.9,7.7,13.9h-8.4l-4.6,10v0.1c1.7,0.4,3,2,3,3.9l0,0c0,2.3-1.9,4-4,4l0,0c-0.1,0-1.1,0-1.3,0l0,0c-2.3,0-4-1.9-4-4
		l0,0c0-1.9,1.3-3.4,3-3.9v-0.1l-4.6-10h-8.4c0,0,7.3-7.4,7.7-13.9c0.4-6.4,0.1-27.7,0.1-27.7l-8.9,11.9c0,0-1.4,11.9-2.3,15.2
		c-0.7,2.9-5.3,12-8.2,15.4c-2.6,3.1-9.6,8.3-12.3,9.2c-3,0.9-5.9,1.4-9.6,0.4c-2-0.6-7.4-2.3-9.9-0.9c-0.1,0.1-0.4,0.3-0.4,0.3
		l1-1.6c0,0,0.6-0.4,1-0.4c1.3-0.3,2.3-0.1,2.3-0.1s-0.7-0.7-1.3-1.6c-1.1-1.3-3.7-4.9-4-10.4c-0.1-1.6,0.7-7.4,1-9.9
		s1.4-12,1.3-14.3c-0.3-5-1.7-7.6-2.9-8.2c-0.9-0.4-1.1-0.3-1.1-0.3s0.9,0.7,0.9,1.1s-0.1,1-1.1,1.1c-1.1,0-1.3-0.9-1.3-1.6
		c0.1-0.7,0.9-2,2.6-1.4c1.3,0.4,2.3,1.7,3.1,3.9c0.9,2.1,1,5.3,1,7.9c0,2.4-1,9.4-1.1,11.2c-0.1,1.3-0.7,5.1-0.7,5.1s0.1-1,1.1-2.7
		c1-1.9,2.6-3.3,3.7-4c1.4-0.9,3.7-1.7,6.6-1.7V118l-0.6-0.6l0.9-0.9l0.9,0.7l-0.6,0.7v0.6c0,0,3.1,0.4,5.9,3c0.6,0.4,1,1,1,1
		l0.4-0.9l1.4,0.4l-0.6,1.4h-1.1c0.9,2.1,1,3,1.1,3.7c0.1,1.1,0.3,2.9,0.3,2.9l1.3-0.3l1,1.6l-1.7,1l-0.7-0.9c0,0-0.9,2.6-2.4,4.1
		c-0.6,0.6-1,2.1-1,2.1s-0.9-0.7-2-0.7c-0.7,0-1.9,1.1-1.9,1.1s-0.4-1-1.3-1.3c-0.7-0.1-1.7,0.1-1.7,0.1s0.1-0.6,0-1.3
		s-1.4-2.6-1.4-3.9s0.7-2.4,1.7-3c1.1-0.6,2.9-0.6,4,0c2.4,1.1,1.6,4.6,0,5c-1,0.3-1.9,0.3-2.6-0.6c-0.6-0.9-0.3-1.4-0.3-1.4
		s-1.1,0-1.1,1.4c0.1,2.1,2.1,2.7,3.4,2.7c1.7-0.1,3.7-0.9,4.9-4.1c1-3-0.1-7.4-1.6-9.3c-1.3-1.7-5.6-4.9-11.4-2
		c-3.1,1.6-6.1,4.7-6,12.2c0,3.4,2.4,10.3,7.7,12.3c6.3,2.3,10.3,0.7,12.3-0.3c3.9-1.9,7.7-8,9.6-16.4c1.9-8.3,1.6-17.2,1.6-22.3
		c0-8.6-2.4-23.6-3.9-28.5c-1-3.3-3.7-13.3-6.6-17c-2-2.7-2.7-3.4-4.6-4.1c-2.3-0.7-2-4.1-0.1-4.3c1.1-0.1,1.7,0.6,2,1.3
		c0.4,1.4-1.1,2-1.1,2s0.7,0.4,2,0.3c1.7-0.1,5.6-0.6,8.6-2.7c2.9-2.1,5-4.1,8.6-5c3.7-0.9,8.4-1.3,11-0.7c2.1,0.4,3.6,1.3,5.1,2.4
		c1.6,1.1,2.4,2.7,3.3,4c0.6,0.9,1.6,2.4,1.6,2.4c-1,0.4-1.9,1.7-1.9,3.3c0,2,1.3,3.6,2.7,3.6h0.1c1.6,0,2.7-1.6,2.7-3.6
		c0-1.6-0.7-2.9-1.9-3.3c0,0,1-1.6,1.6-2.4c0.9-1.1,1.7-2.9,3.3-4s3-2,5.1-2.4c2.6-0.4,7.3-0.1,11,0.7c3.6,0.9,5.6,2.9,8.6,5
		c2.9,2.1,6.9,2.6,8.6,2.7c1.4,0.1,2-0.3,2-0.3s-1.4-0.6-1-2c0.3-0.7,0.9-1.4,2-1.3c1.9,0.1,2.1,3.6-0.1,4.3
		c-1.9,0.6-2.4,1.4-4.6,4.1c-2.7,3.7-5.6,13.6-6.6,17c-1.4,4.7-2.1,18.2-1.4,26.7C99.2,109.3,102.5,121.6,103.2,123.7z M53.4,103.4
		l8.7-11.2v-7.7l-8.9,11.9L53.4,103.4z M85.2,96.1l-8.9-11.9V92l8.7,11.2L85.2,96.1z M48.3,60.7c-0.4-1-1.6-1.7-2.7-1.7
		c-1.7,0-3,1.3-3,3s1.3,3,3,3c0.9,0,1.7-0.4,2.3-1c0,0-0.1,2.4,0.6,5.4c0.7,2.9,3.9,16.4,4,18.6c0.1,2,0.4,5.9,0.4,5.9L62.3,82
		c0,0,0.1-9-0.3-12.6c-0.3-2.1-1.3-6-2.7-8.4c-1.3-2.3-2.6-4.4-6.3-4c-3,0.3-3.6,1.3-4.1,2.3C48.4,60.1,48.3,60.7,48.3,60.7z
		 M88.6,58.2c-0.4-1-1.1-2-4.1-2.3c-3.7-0.4-5,1.7-6.3,4c-1.4,2.3-2.4,6.1-2.7,8.4C75,72,75.2,81,75.2,81l9.4,11.9
		c0,0,0.3-3.7,0.4-5.9c0.1-2,3.3-15.6,4-18.6c0.7-2.9,0.6-5.4,0.6-5.4c0.6,0.6,1.3,1,2.3,1c1.7,0,3-1.3,3-3s-1.3-3-3-3
		c-1.1,0-2.3,0.7-2.7,1.7C89.2,59.8,89,59.2,88.6,58.2z M69,99c0,0,1-4.6,1.4-5.6s1.4-2.1,1.4-2.1s-1.4-2-1.7-3.4
		c-0.4-1.4-1-6.1-1-6.1l0,0c0,0-0.6,4.7-1,6.1s-1.7,3.4-1.7,3.4s0.9,1.1,1.4,2.1C68.2,94.4,69,99,69,99 M47.6,99c0,0,1-4.6,1.4-5.6
		s1.4-2.1,1.4-2.1s-1.4-2-1.7-3.4c-0.4-1.4-1-6.1-1-6.1l0,0c0,0-0.6,4.7-1,6.1S45,91.3,45,91.3s1,1.1,1.4,2.1
		C46.7,94.4,47.6,99,47.6,99 M91.8,99c0,0,1-4.6,1.4-5.6s1.4-2.1,1.4-2.1s-1.4-2-1.7-3.4c-0.4-1.4-1-6.1-1-6.1l0,0
		c0,0-0.6,4.7-1,6.1s-1.7,3.4-1.7,3.4s0.9,1.1,1.4,2.1C90.9,94.4,91.8,99,91.8,99"/>
	<path class="st1" d="M25,109.6c5.3-3.9,8-9.2,10.7-14s0.9-10.3,0.9-10.3s1.9,0.6,2.4,1.1c0.4,0.4,0.3,1-0.1,1.9
		c-0.3,0.7-0.6,1.1-0.6,1.1s0.9,0.6,1.3,1.1c0.3,0.4,0.4,0.9-0.1,1.7c-0.4,0.7-0.7,0.9-0.7,0.9s0.7-0.1,1,0.6s0.3,1.1-0.1,2
		S39,96.9,39,96.9s0.6,0.3,0.9,0.7c0.4,0.6,0.1,1.1-0.3,1.9c-0.4,0.6-1,1-1,1s0.7,0.1,1.1,0.4c0.4,0.3,0.6,1.3,0.1,1.9
		c-0.6,0.6-1,0.9-1,0.9s1,0.3,1.4,1c0.3,0.4,0,1.3-0.6,2c-0.7,0.7-0.6,0.6-0.6,0.6s0.7,0.3,1.1,1s0.4,1.1,0,1.7
		c-0.3,0.6-0.4,0.6-0.4,0.6s0.9,0.9,1,1.6s0.3,3.1-0.7,1.9c-0.6-0.7-0.4-0.6-1.6-1.4s-2.4-1.9-7.2-1.9s-5.9,0.6-8,1.4
		c-2.4,1-4.1,2.9-4.1,2.9S19.7,113.6,25,109.6z M29.8,106.6c0,0.7,0.6,1.4,1.3,1.4c0.7,0,1.3-0.6,1.3-1.4c0-0.7-0.6-1.3-1.3-1.3
		C30.4,105.2,29.8,105.7,29.8,106.6z M26,109.2c-0.3,0-0.6,0.3-0.6,0.6c0,0.3,0.3,0.6,0.6,0.6c0.3,0,0.6-0.3,0.6-0.6
		S26.3,109.2,26,109.2z M28.4,107.6c-0.4,0-0.9,0.4-0.9,0.9c0,0.4,0.4,0.9,0.9,0.9c0.4,0,0.9-0.4,0.9-0.9
		C29.3,107.9,28.8,107.6,28.4,107.6z"/>
	<circle class="st1" cx="18.1" cy="123.3" r="1"/>
	<circle class="st1" cx="22.6" cy="122" r="1"/>
	<circle class="st1" cx="26.8" cy="123.6" r="1"/>
	<circle class="st1" cx="29.1" cy="128.6" r="1"/>
	<path class="st10" d="M10.8,133.6c0,0,3.9-0.4,6.4,0.1c3.1,0.7,4.1,2.1,5,2.7"/>
	<path class="st10" d="M11.1,128.5c0,0,4,0.4,5.7,1.1c3.7,1.7,4.6,5,4.9,5.4"/>
	<path class="st10" d="M13.7,122.9c0,0,2.9,1.6,4.3,3c1.9,1.9,2.3,4,2.7,5.4"/>
	<path class="st10" d="M19.1,119.9c0,0,1.3,2,2.1,4.1c0.7,1.9,1,5.6,0.9,6.1"/>
	<path class="st10" d="M24.3,119.2c0,0,0.7,3.4,0.7,5c-0.1,3-1.7,4.7-2,5"/>
	<path class="st10" d="M29.3,122.3c0,0,0,1.9-1,3.6c-1.1,1.9-2.4,3-3.1,3.4"/>
	<path class="st10" d="M13.1,140c0,0,2.4-2.1,4.1-2.6c3.1-0.9,4.9-0.4,4.9-0.4"/>
</g>
<path class="st1" d="M209.6,574.1c1.2,0,2.5-0.1,3.9-0.1c3.7,0,5-4.3,9.1-4.3c3.7,0,3.3,2,8,1.9c4.4-0.1,6.7-0.7,9.4-3
	c2-1.6,2.7-4.2,4.8-6c3.2-3,8-3.9,8.1-9.9c0.1-4.3-4.4-13.4-18.7-14.1c-3.1-0.1-4.5-4.4-4.5-4.4s2.9-3,2.1-7.6
	c-0.6-3.3-2.6-5.2-2.6-5.2s3-2,3-7.9c0-4.5-3.5-7.4-3.5-7.4s2.9-3.2,2.9-6.1s-1.8-6.3-1.8-6.3s2.7-4.3,2.9-7.5
	c0.1-3.3-2.4-7.2-2.4-7.2s2.6-4.2,2.6-8.3s-1.6-8.2-1.6-8.2s3.5-4.5,3.9-9.9c0.4-4.3-1.7-7.2,1-10.5c2.6-3.3,3-5.8,3.8-9.3
	c1-3.9,2.9-13.6,2.9-19.9c0-4.2,3.2-5.2,6.1-8.1c2.7-2.6,5.8-14.8,5.4-21.7c-0.5-6.3-4.2-11.1-1.3-14c5.5-5.5,12.4-8.5,13.6-9.7
	c2.3-2.1,3.7-5.7,3.7-5.7s5.1-1.6,6.9-3.7c2.3-2.6,2.7-7,2.7-7s10.5-0.2,10.9-6.3c0.1-1.3-1.6-0.7-3.7-1.1c-2.5-0.5-3.3-3.7-2.3-8.5
	c1-4.5,1.7-6.4,4.3-9.5c2.6-3.1,4.5-3.8,6.8-6.8c1.9-2.5,2.6-10.6,2.4-16.8c-0.2-6.2,0.5-5-2.4-19.8s-11.8-32.3-18.7-41.5
	c-6.9-9.2-18.1-14.5-25.9-17.4c0,0,11.8-19.6,19.9-27.1c4.3-4.1,16.9-14.1,16.9-14.1c-2.9,1.2-11.8,5.7-20.4,13.8
	c-8.5,8.1-19.7,26.1-19.7,26.1c-1.2-0.4-2.3-0.6-3.1-0.8c-5.7-1.3-11.9-0.5-11.9-0.5s5.4,9.1,8.6,15l-5.1,11
	c-1.7-1.9-3.3-3.9-4.5-6.1c-2.9-5-8.5-13.7-9.8-16.6c-1.3-2.9-2.1-2.5-3.1-0.5c-3.5,7.4,3.5,20.8,4.4,24c1.2,4.1,7.9,15.6,7.9,15.6
	s-4.9,16.6-5.8,20.2c-1.1,3.7-7.4,31.7-8.5,35.2c-1.6,4.5-4.2,20.6-4.2,20.6s-0.1-1.4-3-1.7h-0.8c-3,0.1-3,1.7-3,1.7
	s-2.7-16.1-4.2-20.6c-1.2-3.5-7.4-31.5-8.5-35.2c-1.1-3.6-5.8-20.2-5.8-20.2s6.7-11.6,7.9-15.6c1-3.2,7.9-16.6,4.4-24
	c-1-2-1.8-2.4-3.1,0.5s-6.9,11.7-9.8,16.6c-1.2,2.1-2.9,4.2-4.5,6.1l-5.1-11c3.2-6,8.6-15,8.6-15s-6.2-0.8-11.9,0.5
	c-0.8,0.2-1.9,0.5-3.1,0.8c0,0-11.2-18-19.7-26.1c-8.6-8.1-17.5-12.6-20.4-13.8c0,0,12.6,10,16.9,14.1c8,7.5,19.9,27.1,19.9,27.1
	c-7.8,2.7-19,8.2-25.9,17.4c-6.9,9.1-15.9,26.7-18.7,41.5c-2.9,14.8-2.1,13.5-2.4,19.8c-0.2,6.2,0.5,14.3,2.4,16.8
	c2.3,3,4.2,3.7,6.8,6.8c2.6,3.1,3.3,5,4.3,9.5c1.1,4.8,0.2,8-2.3,8.5c-2.1,0.4-3.7-0.2-3.7,1.1c0.4,6.1,10.9,6.3,10.9,6.3
	s0.5,4.4,2.7,7c1.8,2.1,6.9,3.7,6.9,3.7s1.6,3.6,3.7,5.7c1.2,1.2,8,4.2,13.6,9.7c2.9,2.9-0.8,7.6-1.3,14c-0.5,7,2.6,19.1,5.4,21.7
	c3,2.9,6.1,4.1,6.1,8.1c0,6.3,2,16,2.9,19.9c0.8,3.5,1.2,6,3.8,9.3s0.6,6.2,1,10.5c0.5,5.4,3.9,9.9,3.9,9.9s-1.6,4.1-1.6,8.2
	s2.6,8.3,2.6,8.3s-2.5,3.8-2.4,7.2c0.1,3.2,2.9,7.5,2.9,7.5s-1.9,3.5-1.9,6.3s2.9,6.1,2.9,6.1s-3.5,2.9-3.5,7.4c0,6,3,7.9,3,7.9
	s-2,1.9-2.6,5.2c-0.8,4.7,2.1,7.6,2.1,7.6s-1.4,4.2-4.5,4.4c-14.4,0.7-19,9.9-18.7,14.1c0.2,6,4.9,7,8.1,9.9c2,1.8,2.9,4.4,4.8,6
	c2.7,2.1,5,2.9,9.4,3c4.7,0.1,4.2-1.9,8-1.9c4.1,0,5.5,4.3,9.1,4.3c1.3,0,2.6,0,3.9,0.1H209.6z M179.2,242c-4.1,3.8-7.8,6.3-7.8,6.3
	s1.3-11.7,3.7-16.7L179.2,242z M195.7,298c3,15.4,6.2,31.8,6.2,31.8s-1.6,2.6-1.6,3.7c0,1.2,1.1,3.1,1.1,3.1s-3.5,3.2-5,6.3
	c-1.6,3.1-3,10.6-3,10.6s-8.3-8.6-12.5-11.3c-4.4-3-10.9-4.9-10.9-4.9s-1.3-5-4.3-8.8c-2.5-3.3-7.4-6-7.4-6s-1.8-3.6-3.6-6.3
	c-2.1-3.1-4.8-6-4.8-6s11.8-6.6,16.1-12.3c4.8-6.3,5.2-10.9,7.6-13c2.4-2.1,2-5.7,1.8-8.6s-2.6-3.1-0.8-4.4s9.9-13.8,9.9-13.8
	S191.8,278.7,195.7,298z M243.6,231.5c2.4,5,3.7,16.7,3.7,16.7s-3.7-2.5-7.8-6.3L243.6,231.5z M234.2,258.1c0,0,8.1,12.5,9.9,13.8
	c1.8,1.3-0.5,1.6-0.8,4.4c-0.2,2.9-0.5,6.6,1.8,8.6c2.4,2,2.9,6.7,7.6,13c4.4,5.7,16.1,12.3,16.1,12.3s-2.7,2.9-4.8,6
	c-1.8,2.7-3.6,6.3-3.6,6.3s-4.9,2.6-7.4,6c-3,3.8-4.3,8.8-4.3,8.8s-6.4,1.9-10.9,4.9c-4.2,2.9-12.5,11.3-12.5,11.3s-1.4-7.5-3-10.6
	s-5-6.3-5-6.3s1.1-1.9,1.1-3.1c0-1.1-1.6-3.7-1.6-3.7s3.2-16.5,6.2-31.8C226.8,278.7,234.2,258.1,234.2,258.1z"/>
</svg>
