<?xml version="1.0" encoding="utf-8"?>
<!-- Generator: Adobe Illustrator 20.1.0, SVG Export Plug-In . SVG Version: 6.00 Build 0)  -->
<svg version="1.1" id="Layer_1" xmlns="http://www.w3.org/2000/svg" xmlns:xlink="http://www.w3.org/1999/xlink" x="0px" y="0px"
	 viewBox="0 0 298 605" style="enable-background:new 0 0 298 605;" xml:space="preserve">
<style type="text/css">
	.st0{fill:#671D43;}
	.st1{fill:#EC218B;}
	.st2{fill:none;stroke:#EC228B;stroke-linecap:round;stroke-miterlimit:10;}
	.st3{fill:none;stroke:#EC228B;stroke-miterlimit:10;}
	.st4{fill:none;stroke:#EC228B;stroke-width:2;stroke-linecap:round;stroke-miterlimit:10;}
	.st5{fill:none;stroke:#EC228B;stroke-width:0.5;stroke-linecap:round;stroke-miterlimit:10;}
	.st6{fill:none;stroke:#EC228B;stroke-width:0.75;stroke-miterlimit:10;}
	.st7{fill:none;stroke:#EC228B;stroke-width:0.5;stroke-miterlimit:10;}
	.st8{fill:none;stroke:#EC228B;stroke-width:0.75;stroke-linecap:round;stroke-miterlimit:10;}
</style>
<rect class="st0" width="298" height="605"/>
<g>
	<circle class="st1" cx="10.9" cy="126.8" r="0.7"/>
	<circle class="st1" cx="10.2" cy="123" r="0.7"/>
	<circle class="st1" cx="11.1" cy="119.8" r="0.7"/>
	<path class="st1" d="M263.7,130.1c0,0-0.2,0.1-0.7-0.6c-0.6-0.6-0.7-1.4-0.4-2.1c0.3-0.7,0.8-1.1,1.7-1.4c1.2-0.2,2.4-0.1,4.5,0.7
		c2.1,0.8,7,3.3,8.5,4s3.6,1.6,4.5,1.8c0.8,0.2,4.6,1.7,5.2,1.9s-4.7-1.5-5.3-1.6c-0.5-0.1-6-0.5-7-0.4s-4.7,0.6-5.6,0.8
		s-2.9,0.4-3.6,0.3c-0.8-0.1-1.7-0.4-2.3-0.9c-0.3-0.3-0.7-1.4-0.3-2.1C263.1,130.4,263.7,130.1,263.7,130.1z"/>
	<circle class="st1" cx="260.5" cy="129.9" r="1"/>
	<circle class="st1" cx="255.9" cy="129.5" r="1"/>
	<circle class="st1" cx="251.5" cy="128.9" r="0.8"/>
	<circle class="st1" cx="248.1" cy="128.6" r="0.8"/>
	<circle class="st1" cx="244.8" cy="128.3" r="0.8"/>
	<circle class="st1" cx="241.4" cy="128.2" r="0.7"/>
	<circle class="st1" cx="237.7" cy="128" r="0.5"/>
	<path class="st1" d="M236.3,128c0,0-12.4,0-13.9,0.1s-11,0.8-13.4,1.2s-9.2,1.1-10,1.4c-0.7,0.2-1.5,0.3-2.1,0.3s11.7-1.4,12.1-1.4
		s13.1-1.2,13.3-1.2C222.6,128.5,236.3,128,236.3,128z"/>
	<path class="st1" d="M239.2,118.6c-0.1,0-0.2,0-0.2,0c0-0.1,0-0.2,0.1-0.2c0.5,0,0.6,0.3,0.6,0.4s-0.1,0.5-0.5,0.6
		c-0.2,0-0.4,0-0.5-0.1s-0.3-0.3-0.3-0.6s0.1-0.6,0.4-0.8c0.3-0.2,0.7-0.3,1.1-0.1c0.5,0.2,3.1,1.1,3.5,1.2c0.5,0.2,4.8,1.4,5.5,1.5
		c0.6,0.1,2.8,0.7,3.6,0.7c0.4,0,2.1,0.2,2.3,0.2s5.3,0.6,6,0.7c0.8,0.1,2.2,0.4,2.8,0.5c0.4,0.1,3.5,0.7,3.6,0.7
		c0.2,0.1-0.5-0.1-0.8-0.1s-4.5-0.8-5.5-0.9c-0.9-0.1-5.8-0.6-6.1-0.7c-0.3,0-2.6,0-3.3,0c-0.3,0-2.9,0.2-3.1,0.2
		c-0.3,0-3.8,0.4-4.3,0.4c-0.4,0.1-1.7,0.3-2.4,0.4c-0.5,0.1-2.6,0.5-2.8-0.2c-0.1-0.1,0-0.4,0-0.6c0.1-0.2,0.6-0.3,0.8-0.1
		c0.1,0.1,0.2,0.3,0.1,0.4c0,0.1-0.1,0.2-0.2,0.2c-0.2,0.1-0.5-0.2-0.3-0.3c0.2-0.1,0.1,0.1,0.2,0.1c0.3,0,0.2-0.3,0-0.4
		c-0.4-0.1-0.5,0.2-0.5,0.3c0,0.2,0.3,0.4,0.6,0.4c0.2,0,0.5-0.1,0.8-0.2c0.4-0.2,0.8-0.3,1.1-0.6c0.2-0.2,0.2-0.3,0.2-0.3
		s-1.2-0.2-1.7-0.2c-0.7,0-2.8,0.3-2.8,0.4c-0.2,0.1-1.6,0.5-1.6,0.5s0-0.1,0.2-0.2c0.2-0.2,1.7-1,1.7-1.2s-1.2-0.9-1.5-1.4
		c-0.2-0.2-0.6-0.5-0.5-0.6c0,0,0.7,0.3,0.9,0.4s1.1,0.5,1.4,0.5c0.3,0.1,1,0.4,1.2,0.4c0.5,0.1,2.9,0.1,2.9,0.1s0-0.2-0.2-0.6
		c-0.2-0.5-0.9-1.6-2.6-1.8c-0.2,0-0.6,0.2-0.7,0.4c-0.1,0.4,0.1,0.6,0.2,0.7c0.2,0.1,0.3,0.1,0.4,0
		C239.2,118.7,239.4,118.7,239.2,118.6C239.4,118.6,239.4,118.6,239.2,118.6z"/>
	<path class="st1" d="M235.9,120.7c-0.4,0-1.2,0.1-1.5,0.1c-0.7,0.1-2.4,0.6-2.8,0.7c-0.4,0.1-2.3,0.8-2.3,0.8s0.5-0.6,0.6-0.8
		c0.4-0.3,1.8-1.1,1.6-1.1c-0.6-0.2-1.2-0.4-1.8-0.7c-0.5-0.3-0.8-1.2-0.7-1.2c0,0,0.8,0.5,1.4,0.7c1,0.4,2.8,0.8,2.9,0.8
		c0.5,0.1,1.6,0.3,2.3,0.4c0.9,0.2,2.2,0.1,2.3,0.2C238.2,120.7,236.6,120.7,235.9,120.7z"/>
	<path class="st1" d="M230.2,120.4c-0.3,0-0.9-0.1-1.2-0.1c-0.6-0.1-1.9-0.7-2.2-0.8c-0.3-0.1-1.8-0.9-1.8-0.9s0.4,0.7,0.5,0.9
		c0.3,0.3,1.5,1.2,1.4,1.2c-0.4,0.2-1,0.4-1.5,0.8c-0.4,0.4-0.6,1.4-0.6,1.4s0.7-0.5,1.1-0.8c0.8-0.5,2.2-0.9,2.4-0.9
		c0.4-0.1,1.4-0.3,1.9-0.5c0.8-0.2,1.8-0.1,1.8-0.2C232,120.4,230.7,120.4,230.2,120.4z"/>
	<circle class="st1" cx="239.1" cy="118.4" r="0.8"/>
	<circle class="st1" cx="239.6" cy="122" r="0.7"/>
	<circle class="st1" cx="197.8" cy="126.1" r="1.1"/>
	<circle class="st1" cx="186.6" cy="128.9" r="1"/>
	<path class="st1" d="M189,128c0,0,1.2-0.4,1.7-0.8s1.4-1.5,1.4-1.5s0.4,0.3,1,0.5s2.4,0.3,2.4,0.3s-1.2,0.3-1.7,0.7
		c-0.5,0.4-1.1,1.2-1.1,1.2s-0.7-0.3-1.4-0.4C190.6,128,189,128,189,128z"/>
	<polygon class="st1" points="184.2,129 184.7,129.5 162.7,136.6 	"/>
	<path class="st1" d="M225.9,120.7l0.2-0.1l-0.4-0.2c0,0-11.1,1.2-12.9,1.5c-1.7,0.3-13.3,3.5-13.3,3.5v0.4c0,0,12.6-3.5,13.8-3.6
		C214.6,121.8,225.9,120.7,225.9,120.7z"/>
	<path class="st1" d="M214.7,114.9c0.5-0.1,0.4-0.1,0.6-0.3c0.7-0.5,0.5-1.1,0.5-1.1l11.1,1.2l-0.3,0.3c0,0-4,0.1-5.2,0.5
		s-4,2.1-4.3,2.4c-0.2,0.2-0.4-0.1-1.1-0.3c-0.6-0.3-1.1-0.1-1.1-0.1s1.6-0.9,2.1-1.2c0.6-0.4,2.2-1.2,2.2-1.2s-1.2,0.2-1.9,0
		C216.7,115,214.7,114.9,214.7,114.9z"/>
	<path class="st1" d="M212.7,115.2c-0.4-0.1-0.6,0.3-0.5,1.2c0.1,0.7,0.6,0.9,0.7,1c0.3,0.1,1-0.7,1.4-0.9c0.5-0.3,1.9-0.6,2.1-0.6
		c0.1,0,0.4-0.2,0.4-0.2s-1.7,0-2.4-0.1C213.7,115.6,213,115.3,212.7,115.2z"/>
	<path class="st1" d="M211.8,116.4l-0.3,0.4c0,0-0.8,0.4-1.5,0.8c-0.7,0.3-1.9,0.7-2.3,0.4c-0.2-0.1-0.5-0.5-0.3-0.7
		c0.2-0.4,1.2-0.7,1.8-0.8S211.8,116.4,211.8,116.4z"/>
	
		<ellipse transform="matrix(0.9589 -0.2837 0.2837 0.9589 -25.2255 63.0003)" class="st1" cx="204.9" cy="118.6" rx="1.8" ry="0.5"/>
	<ellipse transform="matrix(0.957 -0.2902 0.2902 0.957 -26.1915 63.3739)" class="st1" cx="200.6" cy="120" rx="1.9" ry="0.4"/>
	<ellipse transform="matrix(0.969 -0.2471 0.2471 0.969 -23.8683 52.3889)" class="st1" cx="196.8" cy="121.3" rx="1.6" ry="0.4"/>
	<path class="st1" d="M193.7,122.3c0,0,1.1-0.4,1.2-0.2c0.1,0.2-0.2,0.2-0.8,0.5c-0.7,0.3-21.1,8.3-21.7,8.3
		c-0.5,0.2-8.3,3.1-8.3,3.1l0.7-0.8c0,0,14.5-5.3,15.3-5.6C181,127.4,193.7,122.3,193.7,122.3z"/>
	<path class="st1" d="M180.5,125l26.5-12.4l0.2-0.6l-1.8,0.9c0,0-1.2,0.6-2.3,1c-0.9,0.3-5.6,0.1-5.9,0.1c-0.4,0-2.1-0.3-3.1,0.4
		c-0.8,0.6-1,2.1-0.6,2.6s1,0.7,1.7,0.5c0.6-0.2,1.2-1.4,1.4-1.5c0.3-0.3,0.3,0.4,0.1,0.8c-0.2,0.3-0.2,0.5-0.4,0.7
		c-0.1,0-2.6,1.2-3.1,1.4c-0.3,0.1-0.6-0.1-1-0.4c-0.3-0.2-0.4-0.6-0.4-1c0-0.6-0.3,0.1-0.3,0.3s-0.2,0.7-0.1,1.2
		c0.1,0.3,0.4,0.6,0.4,0.6s-0.2,0.4-1.1,0.3c-0.9-0.1-1.2-0.1-1.7-0.2c-0.4-0.1-0.4,0.1-0.3,0.2c0,0.2,0.1,0.6,0,0.8
		c-0.2,0.8-1.1,0.9-1.4,0.9s-0.4-0.2-0.9-0.4c-0.4-0.2-0.9-0.1-1-0.1c-0.1,0.1,0,0,0.1,0.3s0.3,0.6,0.2,0.9
		c-0.1,0.2-0.4,0.4-0.6,0.5c-0.1,0.1-1.8,0.9-2.6,1.1c-0.7,0.2-1.5,0.2-2.1,0c-0.5-0.2-0.6,0-0.3,0.2c0.2,0.2,0.3,0.2,0.4,0.5
		C180.5,124.7,180.5,125,180.5,125z"/>
	<path class="st2" d="M109.7,142.2c24,3.5,51.8-10.1,54.6-11.1c4.8-1.8,15.6-5.9,17.5-6.7c1.5-0.6,25.3-11.9,25.3-11.9"/>
	<path class="st1" d="M180.2,118.8c-0.1-0.2-0.2-0.8,0.1-1.4c0.3-0.5,1.2-1.4,2.9-1.5c1.9-0.3,4.1-0.9,4.9-1.2
		c0.7-0.3,5.4-2.4,5.9-2.8c0.6-0.3,1.5-0.6,2.1-0.6s1.2,0.2,1.4,0.5s0.2,0.9-0.1,1c-0.7,0.4-0.8,0.3-0.9,0.1
		c-0.2-0.3,0.6-0.3,0.7-0.5c0.1-0.3-0.1-0.4-0.4-0.5c-0.4-0.2-1.6-0.1-2.3,0.2c-0.6,0.3-3.8,1.8-4.6,2.2c-0.7,0.4-3.3,2.1-4,2.8
		c-0.6,0.6-1.6,2.6-2.9,2.9c-0.9,0.2-1.7,0-2.2-0.4C180.5,119.5,180.3,119.1,180.2,118.8z"/>
	<ellipse class="st1" cx="196.8" cy="112.9" rx="0.4" ry="0.4"/>
	<ellipse class="st1" cx="178.9" cy="120.3" rx="1.4" ry="1.2"/>
	<ellipse class="st1" cx="176.5" cy="121.6" rx="0.9" ry="0.8"/>
	<ellipse class="st1" cx="174.3" cy="122.4" rx="0.5" ry="0.5"/>
	<circle class="st1" cx="172.4" cy="123.5" r="0.6"/>
	<circle class="st1" cx="170.5" cy="124.2" r="0.6"/>
	
		<ellipse transform="matrix(0.2129 -0.9771 0.9771 0.2129 10.5941 263.6298)" class="st1" cx="168.9" cy="125.2" rx="0.6" ry="0.6"/>
	<circle class="st1" cx="166.9" cy="126.2" r="0.6"/>
	
		<ellipse transform="matrix(0.6077 -0.7941 0.7941 0.6077 -35.9572 181.006)" class="st1" cx="165.2" cy="126.9" rx="0.4" ry="0.4"/>
	
		<ellipse transform="matrix(0.1292 -0.9916 0.9916 0.1292 15.9853 273.6836)" class="st1" cx="163.8" cy="127.7" rx="0.4" ry="0.4"/>
	<path class="st2" d="M109.7,142.2c4.8,0.2,9.4,0.6,13.8-0.1c21.5-3.8,35.7-12.9,39.2-13.9"/>
	<circle class="st1" cx="160.2" cy="127.7" r="0.2"/>
	<circle class="st1" cx="161.5" cy="130.4" r="0.2"/>
	<path class="st1" d="M162.7,128.4c-0.1,0.2-1.1,1.9-1.1,1.9s0.2-0.1,0.3,0.1c0.4,0.6-0.3,1.1-0.8,0.9c-0.5-0.2-0.4-0.7-0.3-0.9
		c0.1-0.3,0.5-0.5,1-0.5s1,0,1.1-0.1c0.2-0.1,0.2-0.4,0.1-0.5c-0.1-0.1-0.4-0.1-0.8-0.1c-0.3,0-0.9,0-1.8,0.8
		c-0.3,0.3-1.7,2.4-3.3,1.9c-0.3-0.1-0.5-0.3-0.7-0.6l-0.1-0.3c-0.1-0.3-0.1-0.7,0-1c0.5-1.4,3.1-1.2,3.6-1.4
		c1.2-0.2,1.6-0.7,1.8-0.9c0.3-0.3,0.5-0.6,0.4-0.7c0-0.1-0.2-0.3-0.4-0.2c-0.2,0.1-0.5,0.4-0.8,0.8s-0.8,0.6-1,0.5
		c-0.3-0.1-0.7-0.3-0.6-0.8c0.1-0.5,1-0.7,1.2-0.1c0.1,0.2-0.1,0.3-0.1,0.3s2.1,0.3,2.2,0.3C162.7,128.1,162.8,128.3,162.7,128.4z"
		/>
	<path class="st1" d="M158.1,127.1c0,0,3.5-2.6,4.7-3.6c1.2-1.1,3.6-4.2,3.6-4.8c0.1-0.8,0.3-0.7,0.7-0.3s0.7,0.9,0.8,1.2
		c0.1,0.2,0.2,0.4,0.5-0.3s0.9-1.2,1.4-1.5c0.4-0.3,1.4-0.5,2.1-0.5c0.5,0,1.2,0,1.7,0.1s0.6-0.3,0.8-0.6c0.3-0.3,0.9-0.6,1.4-0.6
		c0.4,0,0.6,0,0.9-0.1c0.3-0.1,0.4-0.5,0.6-0.8c0.3-0.3,0.7-0.2,1-0.2c0.4,0,0.5,0,0.9-0.1c0.4-0.2,0.3-0.4,0.6-0.6
		c0.4-0.2,0.8-0.1,1-0.1s1.4-0.8,1.8-1.1c0.8-0.5,1.1-0.9,1.9-1.1c0.9-0.1,1.2,0.3,1.4,0.5c0.1,0.2-0.2,0-0.6-0.1
		c-0.5-0.2-1.2,0.2-1.5,0.4c-0.2,0.1-6.3,4-12.6,7.5C164.6,123.7,158.1,127.1,158.1,127.1z"/>
	<ellipse class="st1" cx="185.5" cy="112.5" rx="0.4" ry="0.4"/>
	<path class="st2" d="M109.7,142.2c0,0,8,0.3,12-0.1c5.7-0.6,16.1-5.5,18.6-6.6c2.6-1.1,16.8-7.3,19.6-9.7"/>
	<path class="st1" d="M154.3,123.6L154.3,123.6c0.5-0.4,2.1-1.6,2.4-2.5c0.3-1,0.5-1.6,0.3-1.9c-0.3-0.3-0.4-0.4-0.7-0.5
		c-0.2-0.1-0.2-0.4,0.1-0.4s0.4-0.1,0.7-0.1c0.2-0.1,0.7-0.1,1,0c0.4,0.1,0.7,0.2,0.7,0.7c0,0.4,0.1,0.6,0.4,0.3
		c0.3-0.3,0.7-0.7,0.8-0.9c0.1-0.2,0-0.4-0.3-0.2c-0.3,0.2-0.1,0.4-0.4,0.5c-0.3,0-0.5-0.1-0.7-0.4s-0.3-0.8-0.1-1.2
		c0.1-0.4,0.7-1,1.4-1.2c1-0.3,2.8-0.8,3.6-1c1-0.1,1.1-0.2,2.2-0.7c1-0.5,6.7-2.6,8-2.8c0.7-0.1,1.7-0.3,2.4,0
		c1.1,0.4,1.2,1.2,1.2,1.6s-0.2,1-0.6,1.4s-1.6,0.7-2.1,0.1c-0.5-0.7-0.3-1.4,0-1.6c0.2-0.3,0.8-0.4,1.2-0.3c0.5,0.1,0.7,0.7,0.5,1
		c-0.2,0.2-0.4,0-0.4-0.2s0-0.5-0.4-0.5s-0.6,0.2-0.7,0.5c-0.1,0.3,0.1,0.8,0.3,0.9c0.3,0.2,0.7,0.1,1-0.1c0.4-0.2,0.7-0.5,0.7-1
		c0.1-0.4-0.1-1.1-0.6-1.4c-0.5-0.2-0.9-0.2-1.4-0.2c-2.8,0.2-10.1,3.6-11.6,4.8C162.5,117.2,154.3,123.6,154.3,123.6z"/>
	<circle class="st1" cx="176.2" cy="113.1" r="0.5"/>
	<path class="st2" d="M157.1,121.4c-8.7,6.9-8.7,6.9-10.5,8.3c-0.5,0.4-5.2,3.6-10.6,6.2c-6.8,3.3-11.1,5.2-17.1,5.9
		c-3.3,0.4-8.7,0.3-9.2,0.3"/>
	<circle class="st1" cx="160.1" cy="114" r="0.2"/>
	<path class="st1" d="M155.8,113.9c0.9-1.2,2.4-1.6,3.8-1.4c0.4,0.1,1.2,0.4,1.4,0.9c0.2,0.4,0.2,1.1,0,1.4
		c-0.3,0.4-1.1,0.6-1.6,0.3c-0.3-0.2-0.4-0.6-0.3-0.9c0.1-0.3,0.3-0.6,0.5-0.7c0.3-0.1,0.5-0.1,0.6,0c0.2,0.1,0.2,0.3,0.2,0.5
		c0,0.3-0.3,0.3-0.4,0.3c0,0,0.2-0.2,0.2-0.4c0-0.1-0.1-0.1-0.2-0.2c-0.3-0.1-0.9,0.7-0.3,1.1c0.5,0.3,1.2,0,1.2-0.7
		c0-0.5-0.4-1.1-1.1-1.2c-0.3-0.1-2.1-0.1-3.1,1.4c-0.2,0.3-0.7,1.1-1,1.5c-0.1,0.1-0.1,0.2,0,0.2s0.3,0,0.5,0.1
		c0.3,0.2,0.5,0.8,0.4,1.1c-0.1,0.2-0.3,0.6-0.4,0.8c-0.1,0.1-0.2,0.2-0.3,0.2s0-0.1,0-0.3s0-0.7-0.4-0.7c-0.2,0-0.8,0-0.8,0.4
		c0,0.3-0.1,1.6-1.1,2.1c-0.4,0.2-1.1,0.2-1.5-0.1l0,0c-0.4-0.4-0.5-1.1-0.4-1.5c0.3-1,1.5-1.4,1.8-1.4c0.4-0.1,0.3-0.6,0.2-0.9
		s-0.6-0.3-0.8-0.2c-0.2,0.1-0.2,0.2-0.3,0.1c0-0.1,0-0.2,0.1-0.3c0.1-0.2,0.5-0.4,0.7-0.6c0.3-0.2,0.9-0.1,1.2,0.1
		c0.1,0.1,0.2,0.3,0.2,0.4s0.1,0.1,0.2,0C155.1,114.9,155.6,114.1,155.8,113.9z"/>
	<circle class="st1" cx="150.9" cy="120.8" r="0.8"/>
	<circle class="st1" cx="149.7" cy="122.2" r="0.5"/>
	<path class="st2" d="M147.7,121.6c0,0-0.4,0.2-0.2,0.5c0.2,0.2,0.4,0.1,0.7,0c0.4-0.2,0.5-0.7,0.4-0.9c-0.1-0.3-0.6-0.7-1.4-0.5
		c-0.5,0.2-1.4,0.6-1.7,2.3c-0.2,1.1-1.6,3.1-2.6,3.3"/>
	<ellipse class="st1" cx="147.7" cy="121.9" rx="0.4" ry="0.5"/>
	<path class="st2" d="M151.4,122.6c0,0-0.4-0.2-0.3-0.5c0.1-0.4,0.4-0.5,0.7-0.5c0.4,0.1,0.6,0.6,0.5,1s-0.4,1-1.9,1.6
		c-0.7,0.3-1.4,0.6-1.7,1c-0.2,0.2-0.4,0.7-0.8,1.1c-0.3,0.3-6.9,5.8-9.7,6.8"/>
	<path class="st3" d="M148.4,125.9c0,0,0.4-0.1,0.6-0.4c1-1,1.5-0.6,1.7-0.4c0.2,0.3,0,0.7-0.5,0.7"/>
	<ellipse class="st1" cx="150.4" cy="125.7" rx="0.4" ry="0.4"/>
	<ellipse class="st1" cx="151.4" cy="122.3" rx="0.5" ry="0.5"/>
	<path class="st4" d="M149.7,122.4c0,0-5.5,4.9-6.6,5.9c-0.6,0.5-4.9,3.6-6.3,4.6c-2.3,1.6-8.5,4.8-9.5,5"/>
	<path class="st1" d="M134.6,132.7c0,0,4.9-3.6,6.1-5.3c1.6-2.1,2.9-4,4.6-6c1.4-1.8,1.9-2.4,2.8-3.5c0.9-0.9,4.1-3.6,5.4-4.5
		c1.2-0.7,3.5-1.5,5.3-1.8c1.9-0.3,4.5-0.2,5.5-0.1c1.1,0.2,1.5,0.3,2.1,0.6c0.6,0.3,0.6,0.4,0.6,0.4l-0.2-0.8c0,0-0.5-0.2-1.5-0.4
		c-1-0.2-3.6-0.6-4.8-0.5c-1.1,0-5.7,0.2-8.8,2.8c-0.8,0.7-3.3,2.8-4.7,4c-0.6,0.5-1.5,1.8-2.1,1.9c-0.5,0.2-0.5-0.2-0.7-1
		s-0.4-1.2-0.5-1.7c-0.4-1.1-0.4-0.7-0.4-0.3s0.2,1.7,0,2.6c-0.2,0.8-0.6,3.1-1.5,4.9c-0.6,1.2-1.4,2.9-2.3,4.1
		c-1,1.1-2.4,2.4-3.5,3.3c-1,0.8-1.4,1.1-1.4,1.1L134.6,132.7z"/>
	<path class="st5" d="M140.1,115.2c0.2-0.3,0.2-0.5,0.5-0.4c0.4,0.1,0.4,0.7,0.1,1c-0.2,0.1-0.5,0.3-0.9,0.2s-0.6-0.6-0.6-1
		c0.1-0.4,0.4-0.8,1-0.8c1.9,0,3.6,4.6,0.9,9.9"/>
	<path class="st3" d="M135.8,115.6c0,0,0.1-0.8,0.7-1.1c0.6-0.3,1.2-0.2,1.5,0c0.5,0.2,0.9,1.1,0.9,1.6c0,0.6-0.3,1.4-0.8,1.8
		c-0.5,0.5-1.7,0.7-2.4,0.4c-0.8-0.3-1.6-1.4-1.9-2.6c-0.3-1.4,0.5-2.6,0.8-3.1c0.4-0.6,1.6-1.4,2.8-1.5c1,0,2.2,0.3,2.9,0.7
		c1.2,0.8,2.3,2.1,2.6,2.8c0.5,1.4,0.7,2.8,0.6,3.6"/>
	<circle class="st1" cx="136.7" cy="115.6" r="1.1"/>
	<path class="st1" d="M139.3,118.4c0,0,0,0.1,0.1,0.7c0.1,0.7,0.3,1.7,0.2,2.8c0,0.7-0.1,2.6-0.5,4c-0.3,1-0.8,1.7-1.2,2.3
		c-0.2,0.3-0.2,0.5-0.2,0.5s0.3-0.3,0.7-0.9c0.8-1,1.2-2.4,1.5-3.1c0.3-0.9,0.5-2.3,0.6-3.1s0.1-2.4,0.1-2.6s-0.2-0.1-0.6,0
		C139.8,119,139.3,118.4,139.3,118.4z"/>
	<path class="st6" d="M140.5,119.1c0,0-0.1-1.1,0.5-1.2c0.5-0.1,0.6,0.2,0.6,0.4c0,0.4-0.2,0.4-0.3,0.3"/>
	<circle class="st1" cx="141.3" cy="118.6" r="0.3"/>
	<path class="st6" d="M139.6,119.5c0,0-0.2-0.3-0.5-0.4s-0.6,0.1-0.8,0.4c-0.1,0.2-0.2,0.7,0.1,0.9c0.3,0.2,0.6,0.1,0.7-0.1
		c0.1-0.2,0-0.5-0.1-0.6"/>
	<circle class="st1" cx="138.9" cy="119.8" r="0.3"/>
	<circle class="st1" cx="140.3" cy="115.2" r="0.5"/>
	<ellipse class="st1" cx="132.9" cy="121.1" rx="0.4" ry="0.5"/>
	<path class="st5" d="M135.4,121.8c-0.4,0.1-1-0.1-0.7-0.9c0.2-0.4,0.8-0.5,1.2-0.3c0.5,0.2,0.8,0.8,1,1.5c0.9,2.8-1,8-1,8
		c0.2-0.2,2.1-3.5,2.1-5.8c0.1-1.8-0.7-5.2-3.6-5.6c-0.9-0.1-3.3,0.5-2.8,2.6c0.3,0.9,1,1.2,1.5,1.1s0.8-0.4,0.9-1
		c0.1-0.6-0.2-1.2-0.7-1.4c-0.3-0.1-0.7,0-0.9,0.3c-0.1,0.3-0.2,0.9,0.2,1.1s0.6,0,0.5-0.4"/>
	<ellipse class="st1" cx="135.2" cy="121.4" rx="0.5" ry="0.5"/>
	<circle class="st1" cx="111.9" cy="72.7" r="1.2"/>
	<circle class="st1" cx="160.2" cy="72.7" r="1.2"/>
	<circle class="st1" cx="160.2" cy="108.6" r="1.2"/>
	<path class="st1" d="M109.5,74.8"/>
	<circle class="st1" cx="125.3" cy="108.6" r="1.2"/>
	<path class="st1" d="M140.3,104.6"/>
	<path class="st1" d="M87.5,105.6c1.6-0.8,2.9-1.7,4.3-2.9c1.5-1.4,2.8-2.8,4-4.3c0.3-0.4,0.5-0.8,0.8-1.2c-0.3-0.2-0.5-0.4-0.7-0.6
		c-2.1-1.9-1.4-5.6,1.1-6.8c1.2-0.6,2.3-0.7,3.8-0.5c0.2,0,0.6,0.1,0.7,0.1c2.7-4.5,5.5-9,8.3-13.7l0,0c-2.3,0-4.1,0.9-5.2,2.9
		c-1.1-1.9-3.3-3.1-5.2-3.5v-0.2c1.6,0,22.8,0,26,0V75c-1.9,0.2-4.1,1.4-5.2,3.5c-1.1-1.9-2.8-2.9-5.2-2.9l0,0
		c0.4,0.6,12.6,20.1,14.9,23.6c1.2,1.9,2.6,3.8,4.5,5.2c1.1,0.9,2.1,1.5,3.8,1.5c0.2,0,0.5,0,0.8,0c0-0.2,0-2.6,0-2.6
		c1.2,2.1,2.2,2.8,4,3.3c0,0.1,0,0.1,0,0.2c-0.1,0-29.4,0-31.5,0c0,0-4.1,0-4.2,0c0-0.1,0-0.1,0-0.2c1.7-0.5,2.8-1.2,4-3.3
		c0,0.1,0,2.6,0,2.6c0.1,0,0.1,0,0.2,0c0.9,0,1.4-0.1,1.8-0.5c0.6-0.5,0.9-1.2,1.1-1.9c0.4-1.7,0.1-3.3-0.9-4.7
		c-0.5-0.7-0.9-1.4-1.4-2.1c-2.2,1.2-4.3,0.8-6.6,0c-2.3-0.8-3.5-2.9-4.7-4.8c-0.1,0.2-0.6,1-0.6,1c1.5,0.8,1.4,2.2,1.4,2.2
		c-0.1,1-0.6,1.7-1.6,2.2c-0.6,0.3-1.1,0.3-1.8,0.2c-0.2,0-0.7-0.1-0.7-0.1S97.2,97.7,97,98c-0.6,0.9-0.8,1.9-0.6,3.1
		c0.2,1.4,0.6,2.8,1.6,4c0.5,0.6,1.1,0.9,1.9,0.9h0.2c0-0.2,0-2.6,0-2.6c1.2,2.1,2.2,2.8,4,3.3c0,0.1,0,0.1,0,0.2c0,0-21.3,0-21.7,0
		c0-0.1,0-0.1,0-0.2c1.7-0.5,2.8-1.4,4-3.3c0,0.1,0,2.6,0,2.8C86.8,106,87.3,105.7,87.5,105.6z M102,89.5c0.5,0.4,0.9,0.8,1.4,1.1
		c0.8,0.7,1.4,1.6,1.8,2.6c0.5,0.9,1,1.6,1.7,2.3c1,0.9,3.3,1.7,4.7,0.2c-2.1-3.6-4.3-7.1-6.5-10.6c-0.1-0.1-0.2-0.2-0.3-0.4
		L102,89.5z M97.4,95.2c-0.7-1.5,0.7-2.6,1.6-2.6c0.1-0.2,0.7-1.1,0.9-1.5c-1.2-1-3.1-0.9-3.8,0.3c-0.7,1.1-0.8,2.3-0.3,3.6
		c0.2,0.5,0.7,0.9,1.1,1.1C97.2,95.9,97.4,95.4,97.4,95.2L97.4,95.2z M98.1,96.1c0,0-0.2,0.4-0.3,0.6c0.6,0.2,1.1,0.3,1.5-0.2h-0.1
		C98.6,96.4,98.4,96.3,98.1,96.1z"/>
	<circle class="st1" cx="92.5" cy="108.6" r="1.2"/>
	<path class="st1" d="M144.6,106.7c0-0.1,0-0.1,0-0.2c1.7-0.5,2.8-1.2,4-3.3c0,0.1,0,2.4,0,2.6c0.1,0,0.1,0,0.2,0c0,0,1.6,0,2.8-0.7
		c1.4-1.1,1.9-2.2,2.1-3.8c0-1.4,0.1-17.3,0.1-19.9c0-2.1-0.8-4.1-2.3-5.2c-0.9-0.6-2.8-0.5-2.8-0.5c0,0.1,0,2.8,0,2.9
		c-1.2-2.1-2.2-3.1-4-3.5c0-0.1,0-0.1,0-0.2c0,0,1.6,0,4.2,0l0,0c3.1,0,19.7,0,22.8,0l0,0c2.6,0,4.2,0,4.2,0c0,0.1,0,0.1,0,0.2
		c-1.7,0.5-2.8,1.5-4,3.5c0-0.1,0-2.8,0-2.9c0,0-2.1-0.1-2.8,0.5c-1.5,1.1-2.3,3.1-2.3,5.2c0,2.6,0.1,18.6,0.1,19.9
		c0.1,1.5,0.7,2.6,2.1,3.8c1.1,0.7,2.8,0.7,2.8,0.7c0.1,0,0.1,0,0.2,0c0-0.2,0-2.4,0-2.6c1.2,2.1,2.2,2.8,4,3.3c0,0.1,0,0.1,0,0.2
		C175.8,106.7,144.7,106.7,144.6,106.7z"/>
	<circle class="st1" cx="193.5" cy="72.7" r="1.2"/>
	<circle class="st1" cx="189.8" cy="108.6" r="1.2"/>
	<path class="st1" d="M189.6,81.7"/>
	<circle class="st1" cx="217.1" cy="72.7" r="1.2"/>
	<circle class="st1" cx="216.2" cy="108.6" r="1.2"/>
	<circle class="st1" cx="257.9" cy="108.6" r="1.2"/>
	<path class="st1" d="M206.6,106.7c0,0,0-0.1,0-0.2c1.4-0.2,2.6-1,3.5-2.3c0.7,1.4,2.1,1.7,3.6,1.8l0,0c-7.5-8.5-15.3-17-23-25.5
		c-0.1,0.2-0.2,0.7-0.2,1.5c0,0,0,13.3,0,15.8c0,2.2,0.7,4.3,2.1,6.1c0.5,0.7,1.2,1.4,1.9,1.8c0.6,0.4,2.1,0.4,2.1,0.4
		c0-0.2,0-2.6,0-2.6c1.2,2.1,2.2,2.8,4,3.3c0,0.1,0,0.1,0,0.2h-21.3c0-0.1,0-0.1,0-0.2c1.7-0.5,2.8-1.2,4-3.3c0,0.1,0,2.6,0,2.6
		c0.1,0,1.5,0,2.1-0.4c0.7-0.5,1.4-1.1,1.9-1.8c1.4-1.7,2.1-3.8,2.1-6.1s0-15.8,0-15.8c0.1-3.1-2.2-5.4-4.7-6.1
		c-0.4-0.1-1.4-0.1-1.4-0.1c0,0.2,0,2.6,0,2.6c-1.2-2.1-2.2-2.8-4-3.3c0-0.1,0-0.1,0-0.2c0,0,20.8,0,22.7,0c0.3,0,0.5,0.2,0.7,0.5
		c2.6,2.9,13.4,15.2,13.7,15.3c0-0.3,0-8.7,0-10.2c0-1.4-0.7-2.6-2.1-3.6c-0.5-0.4-1.2-0.8-1.9-1.1c-0.6-0.2-2.1-0.2-2.1-0.2
		c0,0.1,0,1.5,0,1.6c-1.2-1.2-2.2-1.6-4-1.9c0,0,0-0.1,0-0.2h21.3c0,0,0,0.1,0,0.2c-1.7,0.3-2.8,0.7-4,1.9c0-0.1,0-1.5,0-1.6
		c-0.1,0-1.5,0-2.1,0.2c-0.7,0.3-1.4,0.7-1.9,1.1c-1.4,1-2.1,2.3-2.1,3.6c0,1.4,0,25.3,0,25.5l0,0c1.5-0.1,2.8-0.5,3.6-1.8
		c0.8,1.4,2.1,2.2,3.5,2.3c0,0,0,0.1,0,0.2c-0.5,0-3.6,0-7,0C217.5,106.7,206.9,106.7,206.6,106.7z"/>
	<circle class="st1" cx="257.6" cy="72.7" r="1.2"/>
	<path class="st1" d="M255.3,86.3"/>
	<path class="st1" d="M261.2,91.6"/>
	<path class="st1" d="M259.2,85L259.2,85L259.2,85z"/>
	<path class="st1" d="M253.9,90.2c0,0.1,0,11.9,0,12.7c0.2,1.4,1.2,2.2,2.3,2.6c0.6,0.2,1.4,0.2,1.9,0.3c2.6,0,5.2,0,7.8,0
		c1.4,0,2.6-0.1,4-0.5c1.4-0.5,2.6-1.4,2.8-3.1c-0.1,0.1-0.4,0.3-0.4,0.3c-2.1,1.5-5,1.7-7.1,1.2c-1.1-0.3-1.9-0.7-2.8-1.4
		c-1-0.8-1.7-1.8-1.8-2.8c-0.2-1.6,0.8-3.1,2.3-4.1c1.1-0.7,2.6-1.1,4.1-1.1c1.6-0.1,3.3,0.3,4.7,1c2.4,1.4,3.3,3.5,2.8,6.4
		c-0.3,1.1-1.2,2.9-2.6,3.6c-1.2,0.6-2.3,1-4.6,1c-2.1,0-35,0-35,0c0-0.1,0-0.1,0-0.2c2.1-0.5,3.3-1.2,4.7-3.3c0,0.1,0,2.6,0,2.6
		h0.6c2.6-0.1,3.1-0.6,3.6-1.7c0.4-0.8,0.6-1.6,0.6-2.6c0-6.6,0-13.3,0-19.9c0-1.2-0.3-2.2-0.9-3.3c-0.5-0.9-1.1-1.7-1.9-2.3
		c-0.6-0.4-1.8-0.5-1.9-0.5c0,0.2,0,2.6,0,2.6c-1.4-2.1-2.6-2.8-4.7-3.3c0-0.1,0-0.1,0-0.2c0,0,1.9,0,5,0c0,0,28.2,0,30.2,0
		c2.3,0.1,4.2,1.2,5.6,3.1c0.3,0.4,0.6,0.9,0.8,1.4c0.7,1.8,0.7,3.3-1.4,4.8c-0.7,0.5-1.4,0.7-2.2,1c-1.8,0.5-3.6,0.3-5.3-0.3
		c-1.2-0.4-2.4-1.2-3.1-2.8c-0.3-0.9,0-1.9,0.4-2.6c0.9-1.2,2.2-1.8,3.5-2.1c1.7-0.4,3.8-0.4,6,0.6c-0.1-0.4-0.6-0.9-1.1-1.2
		c-1.2-0.8-2.6-1.1-4-1.1c-2.3,0-4.8,0-7.1,0c-2.6,0-4.7,1.8-5.3,3.6c-0.2,0.5-0.3,1.1-0.3,1.6c0,2.8,0,8.3,0,8.7
		c0,0,2.6-0.4,3.3-0.9c1.1-0.7,2.1-3.3,2.1-3.3s1.2,2.8,1.9,3.3c0.7,0.6,3.6,1.4,3.6,1.4s-3.1,1-3.8,1.7c-0.6,0.6-1.6,3.1-1.6,3.1
		s-1.4-2.3-2.1-2.9C256.2,91,253.9,90.2,253.9,90.2z"/>
	<path class="st1" d="M276.8,106.7c0-0.1,0-0.1,0-0.2c-1-0.5-1.9-1-2.6-2.1l0,0c-0.7,0.9-1.5,1.5-2.6,2.1c0,0.1,0,0.1,0,0.2
		C272.4,106.7,275.9,106.7,276.8,106.7z"/>
	<path class="st1" d="M271.5,74.8c0,0.1,0,0.1,0,0.2c1,0.5,1.9,1,2.6,2.1l0,0c0.7-0.9,1.5-1.5,2.6-2.1c0-0.1,0-0.1,0-0.2
		C275.9,74.8,272.4,74.8,271.5,74.8z"/>
	<ellipse class="st1" cx="126.6" cy="127.4" rx="1.4" ry="1.4"/>
	<path class="st2" d="M127,131.1c-6.7,6.8-21.7,7.6-34.5,3.8c-3.1-0.9-8.3-3.6-11.4-5.7"/>
	<path class="st1" d="M127.7,126.4c0.3,0.2,0.6,1,0.6,1.8c0,1-0.2,1.7-1,2.9c-0.6,0.8-2.2,1.9-3.6,2.6s-2.8,1.4-3.6,1.7H120
		c4.6-1.4,6.7-4,7.1-4.9c0.5-1,0.4-1.7,0.3-2.1"/>
	<path class="st1" d="M121.3,127.8c0,0,0.6-0.8,1.8-0.5c1.2,0.4,1.1,1.5,1.1,1.5s-1.5,2.2-4.1,4c-2.3,1.5-5.6,3.6-12.7,3.6
		c-7.1,0.1-7.3-0.4-7.3-0.4s9.7,0.8,13.1-0.7c4-1.7,5.6-3.6,6.6-4.7C121.1,129.2,121.3,127.8,121.3,127.8z"/>
	<path class="st1" d="M116.6,130.6c0,0,0.4-0.6,0.4-0.8c0-0.4,0.7,0.6-0.5,1.5c-1.6,1.4-3.3,2.1-5.4,2.8c-2.2,0.8-6.7,1.6-9.7,1.4
		c-5.2-0.3-5.2-0.6-5.2-0.6s3.3,0.3,6.4,0.2c1.9,0,3.8-0.3,5-0.6c2.2-0.5,3.3-1,4.5-1.5C116.2,131.1,116.6,130.6,116.6,130.6z"/>
	<circle class="st1" cx="115.9" cy="130" r="1.2"/>
	<path class="st1" d="M111.5,129.7c-0.5,0-1.5-0.3-1.1-1.2c0.4-0.9,0.6-1.1,1.2-0.9c0.5,0.2,1.4,0.7,1,1.6c-0.3,0.9-0.6,1.4-1.8,2.6
		c-1.4,1.4-3.6,2.3-6.2,2.8c-2.9,0.4-6.4,0.3-6.4,0.3s5.7-0.2,7.8-0.9c2.1-0.7,4-1.8,4.7-2.6C111.2,130.1,111.5,129.7,111.5,129.7z"
		/>
	<ellipse class="st1" cx="111.4" cy="128.6" rx="1.2" ry="1.2"/>
	<path class="st1" d="M105.9,123.2c0.6-0.3,1.4-0.4,2.1,0.1c0.9,0.6,1.8,1.6,1.5,3.8c-0.1,0.9-0.4,2.2-1.7,3.5
		c-1.2,1.4-1.8,1.6-3.8,2.4c-1.5,0.6-3.3,0.7-3.8,0.7c-0.5-0.1-0.6-0.2-0.6-0.2s2.1,0.3,5.1-1.1c1.8-0.9,3.5-2.2,4-4.1
		c0.5-1.9,0.2-2.4,0-2.9c-0.3-0.6-1.4-1.4-1.4-1.4s0,0.4-0.4,0.5c-0.6,0.2-1.4,0-1.4-0.5C105.6,123.6,105.9,123.2,105.9,123.2z"/>
	<ellipse class="st1" cx="106.4" cy="124.2" rx="1" ry="1.1"/>
	<path class="st1" d="M104.8,125.7c0.6-0.1,1.4,0.4,1.5,0.7c0.3,0.3,0.6,0.7,0.5,1.6c0,0.9-0.6,3.1-3.1,4.2
		c-1.1,0.5-2.9,0.9-2.9,0.9s2.9-0.7,4.1-2.1c1.5-1.7,1.7-2.6,1.1-3.8c-0.7-1.4-0.9,0.1-1-0.3C104.6,126.4,104.8,125.7,104.8,125.7z"
		/>
	<circle class="st1" cx="104.8" cy="126.4" r="0.9"/>
	
		<ellipse transform="matrix(0.9808 -0.1951 0.1951 0.9808 -22.8272 22.4403)" class="st1" cx="102.5" cy="127.1" rx="0.6" ry="0.7"/>
	<path class="st1" d="M102.9,126.6c0.1,0.1,0.4,0.4,0.4,0.8c0.1,0.4,0.1,0.8-0.2,1.5c-0.2,0.4-0.8,1.1-1.4,1.5s-1.4,0.8-1.6,1l0,0
		c2.1-1.1,2.8-2.4,2.9-2.8c0.1-0.5,0-0.8-0.1-1"/>
	<g>
		<g>
			<rect x="239.6" y="67.2" class="st7" width="2.1" height="2.2"/>
		</g>
		<g>
			<rect x="237.3" y="67.2" class="st7" width="2.1" height="2.2"/>
		</g>
		<g>
			<rect x="235.1" y="67.2" class="st7" width="2.1" height="2.2"/>
		</g>
		<g>
			<rect x="232.7" y="67.2" class="st7" width="2.1" height="2.2"/>
		</g>
		<g>
			<rect x="230.5" y="67.2" class="st7" width="2.1" height="2.2"/>
		</g>
		<g>
			<rect x="228.3" y="67.2" class="st7" width="2.1" height="2.2"/>
		</g>
		<g>
			<rect x="225.9" y="67.2" class="st7" width="2.1" height="2.2"/>
		</g>
		<g>
			<rect x="223.7" y="67.2" class="st7" width="2.1" height="2.2"/>
		</g>
		<g>
			<rect x="221.4" y="67.2" class="st7" width="2.1" height="2.2"/>
		</g>
		<g>
			<rect x="219.1" y="67.2" class="st7" width="2.1" height="2.2"/>
		</g>
		<g>
			<rect x="216.9" y="67.2" class="st7" width="2.1" height="2.2"/>
		</g>
		<g>
			<rect x="214.5" y="67.2" class="st7" width="2.1" height="2.2"/>
		</g>
		<g>
			<rect x="212.3" y="67.2" class="st7" width="2.1" height="2.2"/>
		</g>
		<g>
			<rect x="210.1" y="67.2" class="st7" width="2.1" height="2.2"/>
		</g>
		<g>
			<rect x="207.7" y="67.2" class="st7" width="2.1" height="2.2"/>
		</g>
		<g>
			<rect x="205.5" y="67.2" class="st7" width="2.1" height="2.2"/>
		</g>
		<g>
			<rect x="203.2" y="67.2" class="st7" width="2.1" height="2.2"/>
		</g>
		<g>
			<rect x="200.9" y="67.2" class="st7" width="2.1" height="2.2"/>
		</g>
		<g>
			<rect x="198.7" y="67.2" class="st7" width="2.1" height="2.2"/>
		</g>
		<g>
			<rect x="196.4" y="67.2" class="st7" width="2.1" height="2.2"/>
		</g>
		<g>
			<rect x="194" y="67.2" class="st7" width="2.1" height="2.2"/>
		</g>
		<g>
			<rect x="191.8" y="67.2" class="st7" width="2.1" height="2.2"/>
		</g>
		<g>
			<rect x="189.5" y="67.2" class="st7" width="2.1" height="2.2"/>
		</g>
		<g>
			<rect x="187.3" y="67.2" class="st7" width="2.1" height="2.2"/>
		</g>
		<g>
			<rect x="185" y="67.2" class="st7" width="2.1" height="2.2"/>
		</g>
		<g>
			<rect x="182.7" y="67.2" class="st7" width="2.1" height="2.2"/>
		</g>
		<g>
			<rect x="180.5" y="67.2" class="st7" width="2.1" height="2.2"/>
		</g>
		<g>
			<rect x="178.2" y="67.2" class="st7" width="2.1" height="2.2"/>
		</g>
		<g>
			<rect x="175.9" y="67.2" class="st7" width="2.1" height="2.2"/>
		</g>
		<g>
			<rect x="173.6" y="67.2" class="st7" width="2.1" height="2.2"/>
		</g>
		<g>
			<rect x="171.4" y="67.2" class="st7" width="2.1" height="2.2"/>
		</g>
		<g>
			<rect x="169.1" y="67.2" class="st7" width="2.1" height="2.2"/>
		</g>
		<g>
			<rect x="166.8" y="67.2" class="st7" width="2.1" height="2.2"/>
		</g>
		<g>
			<rect x="164.5" y="67.2" class="st7" width="2.1" height="2.2"/>
		</g>
		<g>
			<rect x="162.2" y="67.2" class="st7" width="2.1" height="2.2"/>
		</g>
		<g>
			<rect x="160" y="67.2" class="st7" width="2.1" height="2.2"/>
		</g>
		<g>
			<rect x="157.7" y="67.2" class="st7" width="2.1" height="2.2"/>
		</g>
		<g>
			<rect x="155.4" y="67.2" class="st7" width="2.1" height="2.2"/>
		</g>
		<g>
			<rect x="153.2" y="67.2" class="st7" width="2.1" height="2.2"/>
		</g>
		<g>
			<rect x="150.9" y="67.2" class="st7" width="2.1" height="2.2"/>
		</g>
		<g>
			<rect x="148.6" y="67.2" class="st7" width="2.1" height="2.2"/>
		</g>
		<g>
			<rect x="146.4" y="67.2" class="st7" width="2.1" height="2.2"/>
		</g>
		<g>
			<rect x="144" y="67.2" class="st7" width="2.1" height="2.2"/>
		</g>
		<g>
			<rect x="141.8" y="67.2" class="st7" width="2.1" height="2.2"/>
		</g>
		<g>
			<rect x="139.5" y="67.2" class="st7" width="2.1" height="2.2"/>
		</g>
		<g>
			<rect x="137.2" y="67.2" class="st7" width="2.1" height="2.2"/>
		</g>
		<g>
			<rect x="135" y="67.2" class="st7" width="2.1" height="2.2"/>
		</g>
		<g>
			<rect x="132.7" y="67.2" class="st7" width="2.1" height="2.2"/>
		</g>
		<g>
			<rect x="130.4" y="67.2" class="st7" width="2.1" height="2.2"/>
		</g>
		<g>
			<rect x="128.2" y="67.2" class="st7" width="2.1" height="2.2"/>
		</g>
		<g>
			<rect x="125.8" y="67.2" class="st7" width="2.1" height="2.2"/>
		</g>
		<g>
			<rect x="123.5" y="67.2" class="st7" width="2.1" height="2.2"/>
		</g>
		<g>
			<rect x="121.3" y="67.2" class="st7" width="2.1" height="2.2"/>
		</g>
		<g>
			<rect x="119" y="67.2" class="st7" width="2.1" height="2.2"/>
		</g>
		<g>
			<rect x="116.8" y="67.2" class="st7" width="2.1" height="2.2"/>
		</g>
		<g>
			<rect x="114.5" y="67.2" class="st7" width="2.1" height="2.2"/>
		</g>
		<g>
			<rect x="112.2" y="67.2" class="st7" width="2.1" height="2.2"/>
		</g>
		<g>
			<rect x="110" y="67.2" class="st7" width="2.1" height="2.2"/>
		</g>
		<g>
			<rect x="107.6" y="67.2" class="st7" width="2.1" height="2.2"/>
		</g>
		<g>
			<rect x="105.4" y="67.2" class="st7" width="2.1" height="2.2"/>
		</g>
		<g>
			<rect x="103.1" y="67.2" class="st7" width="2.1" height="2.2"/>
		</g>
		<g>
			<rect x="100.8" y="67.2" class="st7" width="2.1" height="2.2"/>
		</g>
		<g>
			<rect x="98.6" y="67.2" class="st7" width="2.1" height="2.2"/>
		</g>
		<g>
			<rect x="96.3" y="67.2" class="st7" width="2.1" height="2.2"/>
		</g>
		<g>
			<rect x="94" y="67.2" class="st7" width="2.1" height="2.2"/>
		</g>
		<g>
			<rect x="91.8" y="67.2" class="st7" width="2.1" height="2.2"/>
		</g>
		<g>
			<rect x="89.5" y="67.2" class="st7" width="2.1" height="2.2"/>
		</g>
		<g>
			<rect x="87.2" y="67.2" class="st7" width="2.1" height="2.2"/>
		</g>
		<g>
			<rect x="84.9" y="67.2" class="st7" width="2.1" height="2.2"/>
		</g>
		<g>
			<rect x="82.6" y="67.2" class="st7" width="2.1" height="2.2"/>
		</g>
		<g>
			<rect x="80.4" y="67.2" class="st7" width="2.1" height="2.2"/>
		</g>
	</g>
	<g>
		<g>
			<ellipse class="st1" cx="240.6" cy="68.3" rx="0.3" ry="0.3"/>
		</g>
		<g>
			<ellipse class="st1" cx="238.4" cy="68.3" rx="0.3" ry="0.3"/>
		</g>
		<g>
			<ellipse class="st1" cx="236.1" cy="68.3" rx="0.3" ry="0.3"/>
		</g>
		<g>
			<ellipse class="st1" cx="233.9" cy="68.3" rx="0.3" ry="0.3"/>
		</g>
		<g>
			<ellipse class="st1" cx="231.6" cy="68.3" rx="0.3" ry="0.3"/>
		</g>
		<g>
			<ellipse class="st1" cx="229.3" cy="68.3" rx="0.3" ry="0.3"/>
		</g>
		<g>
			<ellipse class="st1" cx="227.1" cy="68.3" rx="0.3" ry="0.3"/>
		</g>
		<g>
			<ellipse class="st1" cx="224.8" cy="68.3" rx="0.3" ry="0.3"/>
		</g>
		<g>
			<ellipse class="st1" cx="222.4" cy="68.3" rx="0.3" ry="0.3"/>
		</g>
		<g>
			<ellipse class="st1" cx="220.2" cy="68.3" rx="0.3" ry="0.3"/>
		</g>
		<g>
			<ellipse class="st1" cx="218" cy="68.3" rx="0.3" ry="0.3"/>
		</g>
		<g>
			<ellipse class="st1" cx="215.7" cy="68.3" rx="0.3" ry="0.3"/>
		</g>
		<g>
			<ellipse class="st1" cx="213.4" cy="68.3" rx="0.3" ry="0.3"/>
		</g>
		<g>
			<ellipse class="st1" cx="211" cy="68.3" rx="0.3" ry="0.3"/>
		</g>
		<g>
			<ellipse class="st1" cx="208.8" cy="68.3" rx="0.3" ry="0.3"/>
		</g>
		<g>
			<ellipse class="st1" cx="206.6" cy="68.3" rx="0.3" ry="0.3"/>
		</g>
		<g>
			<ellipse class="st1" cx="204.3" cy="68.3" rx="0.3" ry="0.3"/>
		</g>
		<g>
			<ellipse class="st1" cx="202" cy="68.3" rx="0.3" ry="0.3"/>
		</g>
		<g>
			<ellipse class="st1" cx="199.8" cy="68.3" rx="0.3" ry="0.3"/>
		</g>
		<g>
			<ellipse class="st1" cx="197.5" cy="68.3" rx="0.3" ry="0.3"/>
		</g>
		<g>
			<ellipse class="st1" cx="195.2" cy="68.3" rx="0.3" ry="0.3"/>
		</g>
		<g>
			<ellipse class="st1" cx="193" cy="68.3" rx="0.3" ry="0.3"/>
		</g>
		<g>
			<ellipse class="st1" cx="190.6" cy="68.3" rx="0.3" ry="0.3"/>
		</g>
		<g>
			<ellipse class="st1" cx="188.4" cy="68.3" rx="0.3" ry="0.3"/>
		</g>
		<g>
			<ellipse class="st1" cx="186.1" cy="68.3" rx="0.3" ry="0.3"/>
		</g>
		<g>
			<ellipse class="st1" cx="183.8" cy="68.3" rx="0.3" ry="0.3"/>
		</g>
		<g>
			<ellipse class="st1" cx="181.6" cy="68.3" rx="0.3" ry="0.3"/>
		</g>
		<g>
			<ellipse class="st1" cx="179.3" cy="68.3" rx="0.3" ry="0.3"/>
		</g>
		<g>
			<ellipse class="st1" cx="177" cy="68.3" rx="0.3" ry="0.3"/>
		</g>
		<g>
			<ellipse class="st1" cx="174.8" cy="68.3" rx="0.3" ry="0.3"/>
		</g>
		<g>
			<ellipse class="st1" cx="172.4" cy="68.3" rx="0.3" ry="0.3"/>
		</g>
		<g>
			<ellipse class="st1" cx="170.1" cy="68.3" rx="0.3" ry="0.3"/>
		</g>
		<g>
			<ellipse class="st1" cx="167.9" cy="68.3" rx="0.3" ry="0.3"/>
		</g>
		<g>
			<ellipse class="st1" cx="165.6" cy="68.3" rx="0.3" ry="0.3"/>
		</g>
		<g>
			<ellipse class="st1" cx="163.4" cy="68.3" rx="0.3" ry="0.3"/>
		</g>
		<g>
			<ellipse class="st1" cx="161.1" cy="68.3" rx="0.3" ry="0.3"/>
		</g>
		<g>
			<ellipse class="st1" cx="158.8" cy="68.3" rx="0.3" ry="0.3"/>
		</g>
		<g>
			<ellipse class="st1" cx="156.6" cy="68.3" rx="0.3" ry="0.3"/>
		</g>
		<g>
			<ellipse class="st1" cx="154.2" cy="68.3" rx="0.3" ry="0.3"/>
		</g>
		<g>
			<ellipse class="st1" cx="151.9" cy="68.3" rx="0.3" ry="0.3"/>
		</g>
		<g>
			<ellipse class="st1" cx="149.7" cy="68.3" rx="0.3" ry="0.3"/>
		</g>
		<g>
			<ellipse class="st1" cx="147.4" cy="68.3" rx="0.3" ry="0.3"/>
		</g>
		<g>
			<ellipse class="st1" cx="145.2" cy="68.3" rx="0.3" ry="0.3"/>
		</g>
		<g>
			<ellipse class="st1" cx="142.9" cy="68.3" rx="0.3" ry="0.3"/>
		</g>
		<g>
			<ellipse class="st1" cx="140.6" cy="68.3" rx="0.3" ry="0.3"/>
		</g>
		<g>
			<ellipse class="st1" cx="138.3" cy="68.3" rx="0.3" ry="0.3"/>
		</g>
		<g>
			<ellipse class="st1" cx="136.1" cy="68.3" rx="0.3" ry="0.3"/>
		</g>
		<g>
			<ellipse class="st1" cx="133.7" cy="68.3" rx="0.3" ry="0.3"/>
		</g>
		<g>
			<ellipse class="st1" cx="131.5" cy="68.3" rx="0.3" ry="0.3"/>
		</g>
		<g>
			<ellipse class="st1" cx="129.2" cy="68.3" rx="0.3" ry="0.3"/>
		</g>
		<g>
			<ellipse class="st1" cx="127" cy="68.3" rx="0.3" ry="0.3"/>
		</g>
		<g>
			<ellipse class="st1" cx="124.7" cy="68.3" rx="0.3" ry="0.3"/>
		</g>
		<g>
			<ellipse class="st1" cx="122.3" cy="68.3" rx="0.3" ry="0.3"/>
		</g>
		<g>
			<ellipse class="st1" cx="120.1" cy="68.3" rx="0.3" ry="0.3"/>
		</g>
		<g>
			<ellipse class="st1" cx="117.9" cy="68.3" rx="0.3" ry="0.3"/>
		</g>
		<g>
			<ellipse class="st1" cx="115.6" cy="68.3" rx="0.3" ry="0.3"/>
		</g>
		<g>
			<ellipse class="st1" cx="113.3" cy="68.3" rx="0.3" ry="0.3"/>
		</g>
		<g>
			<ellipse class="st1" cx="111.1" cy="68.3" rx="0.3" ry="0.3"/>
		</g>
		<g>
			<ellipse class="st1" cx="108.8" cy="68.3" rx="0.3" ry="0.3"/>
		</g>
		<g>
			<ellipse class="st1" cx="106.5" cy="68.3" rx="0.3" ry="0.3"/>
		</g>
		<g>
			<ellipse class="st1" cx="104.3" cy="68.3" rx="0.3" ry="0.3"/>
		</g>
		<g>
			<ellipse class="st1" cx="101.9" cy="68.3" rx="0.3" ry="0.3"/>
		</g>
		<g>
			<ellipse class="st1" cx="99.6" cy="68.3" rx="0.3" ry="0.3"/>
		</g>
		<g>
			<ellipse class="st1" cx="97.4" cy="68.3" rx="0.3" ry="0.3"/>
		</g>
		<g>
			<ellipse class="st1" cx="95.1" cy="68.3" rx="0.3" ry="0.3"/>
		</g>
		<g>
			<ellipse class="st1" cx="92.9" cy="68.3" rx="0.3" ry="0.3"/>
		</g>
		<g>
			<ellipse class="st1" cx="90.5" cy="68.3" rx="0.3" ry="0.3"/>
		</g>
		<g>
			<ellipse class="st1" cx="88.3" cy="68.3" rx="0.3" ry="0.3"/>
		</g>
		<g>
			<ellipse class="st1" cx="86.1" cy="68.3" rx="0.3" ry="0.3"/>
		</g>
		<g>
			<ellipse class="st1" cx="83.7" cy="68.3" rx="0.3" ry="0.3"/>
		</g>
		<g>
			<ellipse class="st1" cx="81.4" cy="68.3" rx="0.3" ry="0.3"/>
		</g>
	</g>
	<g>
		<rect x="273.7" y="67.2" class="st7" width="2.1" height="2.2"/>
	</g>
	<g>
		<rect x="271.5" y="67.2" class="st7" width="2.1" height="2.2"/>
	</g>
	<g>
		<rect x="269.2" y="67.2" class="st7" width="2.1" height="2.2"/>
	</g>
	<g>
		<rect x="266.9" y="67.2" class="st7" width="2.1" height="2.2"/>
	</g>
	<g>
		<rect x="264.6" y="67.2" class="st7" width="2.1" height="2.2"/>
	</g>
	<g>
		<rect x="262.3" y="67.2" class="st7" width="2.1" height="2.2"/>
	</g>
	<g>
		<rect x="260.1" y="67.2" class="st7" width="2.1" height="2.2"/>
	</g>
	<g>
		<ellipse class="st1" cx="274.9" cy="68.3" rx="0.3" ry="0.3"/>
	</g>
	<g>
		<ellipse class="st1" cx="272.5" cy="68.3" rx="0.3" ry="0.3"/>
	</g>
	<g>
		<ellipse class="st1" cx="270.3" cy="68.3" rx="0.3" ry="0.3"/>
	</g>
	<g>
		<ellipse class="st1" cx="268" cy="68.3" rx="0.3" ry="0.3"/>
	</g>
	<g>
		<ellipse class="st1" cx="265.7" cy="68.3" rx="0.3" ry="0.3"/>
	</g>
	<g>
		<ellipse class="st1" cx="263.5" cy="68.3" rx="0.3" ry="0.3"/>
	</g>
	<g>
		<ellipse class="st1" cx="261.1" cy="68.3" rx="0.3" ry="0.3"/>
	</g>
	<path class="st7" d="M250.5,66.1c-1.2,0-4.2,0.2-4.2,0.2l1,1.5c0,0-0.7-0.1-2.1,0.4c-1.4,0.4-2.2,1.1-2.2,1.1h-1.4v-2.2l3.3-1
		l-0.6-1.4c0,0,2.4-0.9,6.4-1l0,0c3.8,0.1,6.5,1,6.5,1l-0.6,1.4l3.3,1v2.2h-1.4c0,0-0.9-0.7-2.2-1.1c-1.4-0.4-1.9-0.4-1.9-0.4l1-1.5
		C255.5,66.3,251.5,66.1,250.5,66.1z"/>
	<line class="st7" x1="244.1" y1="66.6" x2="244.1" y2="68.8"/>
	<line class="st7" x1="248.8" y1="63.8" x2="248.8" y2="66.3"/>
	<line class="st7" x1="251.2" y1="63.7" x2="251.2" y2="66.1"/>
	<line class="st7" x1="253.5" y1="63.9" x2="253.5" y2="66.3"/>
	<path class="st3" d="M247.4,67.9"/>
	<line class="st7" x1="246.4" y1="66.3" x2="246.4" y2="64.2"/>
	<g>
		<ellipse class="st1" cx="247.6" cy="65.3" rx="0.3" ry="0.3"/>
	</g>
	<g>
		<ellipse class="st1" cx="250" cy="65.1" rx="0.3" ry="0.3"/>
	</g>
	<g>
		<ellipse class="st1" cx="252.2" cy="65.1" rx="0.3" ry="0.3"/>
	</g>
	<line class="st7" x1="255.7" y1="64.3" x2="255.7" y2="66.3"/>
	<g>
		<ellipse class="st1" cx="254.5" cy="65.3" rx="0.3" ry="0.3"/>
	</g>
	<g>
		<ellipse class="st1" cx="242.9" cy="68.3" rx="0.3" ry="0.3"/>
	</g>
	<line class="st7" x1="258" y1="68.8" x2="258" y2="66.6"/>
	<g>
		<ellipse class="st1" cx="259.1" cy="68.3" rx="0.3" ry="0.3"/>
	</g>
	<g>
		<ellipse class="st1" cx="256.7" cy="67.3" rx="0.3" ry="0.3"/>
	</g>
	<g>
		<ellipse class="st1" cx="245.3" cy="67" rx="0.3" ry="0.3"/>
	</g>
	<path class="st1" d="M294,90.6c-2.1,0.3-4.1,0.3-5.9,1.4c-0.7-1-1.7-1.4-3.1-1.4c1.4-0.2,2.3-0.6,3.1-1.5
		C289.9,90,291.9,90.2,294,90.6z"/>
	<line class="st3" x1="281.9" y1="100.9" x2="281.9" y2="100.9"/>
	<path class="st1" d="M287.1,87.2c-0.7,0.3-1.4,0.6-2.1,0.9c0.2-0.4,0.8-1.7,0.9-2.1c0.7-0.2,1.4-0.4,1.9-0.7
		C287.7,86,287.4,86.6,287.1,87.2z"/>
	<circle class="st1" cx="283" cy="90.7" r="1"/>
	<path class="st1" d="M283,88c-0.2-1.4-0.2-2.8-0.9-4c0.7-1,0.6-2.1,0.9-3.3l0,0c0.3,1.1,0.3,2.2,0.9,3.3
		C283.2,85.2,283.2,86.6,283,88L283,88z"/>
	<path class="st1" d="M287.1,93.7c-0.7-0.3-1.4-0.6-2.1-0.9c0.2,0.4,0.8,1.7,0.9,2.1c0.7,0.2,1.4,0.4,1.9,0.7
		C287.7,94.9,287.4,94.4,287.1,93.7z"/>
	<path class="st1" d="M283,93c-0.2,1.4-0.2,2.8-0.9,4c0.7,1,0.6,2.1,0.9,3.3l0,0c0.3-1.1,0.3-2.2,0.9-3.3
		C283.2,95.8,283.2,94.4,283,93L283,93z"/>
	<path class="st1" d="M276.6,90.6c0.8-0.2,1.6-0.2,2.3-0.9c0.6,0.7,1.2,0.6,1.8,0.9l0,0c-0.6,0.3-1.4,0.3-1.8,0.9
		C278.1,90.7,277.3,90.9,276.6,90.6L276.6,90.6z"/>
	<path class="st1" d="M8.7,118.4c0,0,1-1.6,1.6-2.4c0.5-0.8,3.1-3.6,4.5-5c4.3-4.1,8.7-7.3,11-11.9c0.6-1.4,2.2-5.3,1.1-8.8
		c-0.3-1.2-1.4-2.2-2.6-2.6c-2.6-0.7-4.1,0.8-4.3,2.1c-0.2,1.4,0.4,1.9,0.8,2.2c0.6,0.4,1.5,0.2,1.9-0.3s0.2-1.4-0.1-1.6
		s-1.1-0.4-1.7,0.1c-0.3,0.3-0.4,0.8-0.4,0.8s-0.2-0.8,0.2-1.5c0.6-1,1.5-1.2,2.1-1.2s2.1,0.1,3.1,1.6s0.9,3.6,0.1,6.6
		c-0.9,3.1-4,8-7.3,10.5c-2.4,1.8-5.9,5-8.3,8c-0.8,0.9-1.5,2.4-1.5,2.4L8.7,118.4z"/>
	<path class="st1" d="M74,117.7c1,3.1,3.8,7.8,5.5,9.5c5.6,6.1,11.6,9,16.7,9.7c5,0.8,10.8,1.2,14.7,1.1c4.7-0.2,11.3-2.3,14.5-4.1
		c2.2-1.2,5.1-3.1,5-5.9c0-2.4-0.8-3.6-2.3-4.5c-1.2-0.7-2.8-1.4-4.3-0.6c-1.4,0.6-1.6,1.4-1.5,0.2c0.1-1.2,1.9-1.4,1.9-1.4
		s-2.3,0-3.8,0.7s-3.1,1.7-3.1,1.7s-0.5-2.1,1.2-3.3c0.9-0.7,3.1-1.5,3.1-1.5s-2.6-0.5-4.5,0.7c-1.4,0.9-2.8,2.3-2.9,3.8
		c-0.1,1.2,0.4,1.7,0.4,1.7s-0.7,0.3-2.1-0.3c-1.6-0.8-1.6-4.8,0.2-6.3c3.5-2.8,5.6-2.1,5.6-2.1s-3.5-0.3-5.8,0.9
		c-1.4,0.7-2.8,2.3-2.8,2.3s0.1-0.2-0.9-1s-4.6-2.4-9.5-0.3c-1.4,0.6-6.8,2.8-7.1,7.1c0,0.3,0,3.1,2.1,3.3c1,0.2,1.1,0.1,1.1,0.1
		s-1.2,0-1.7-0.2c-2.1-1-1.2-4.9,0.8-5.3c2.9-0.7,4.3,2.1,4.1,3.6c-0.3,1.6-1.4,2.6-2.6,2.9c-1,0.3-2.8,0.1-4.1-1
		c-0.9-0.8-1.5-2.8-1.4-4.3c0.3-2.1,2.6-4.1,3.6-4.7c2.1-1.4,5.7-2.8,7.3-3.3c2.2-0.7,8.1-1.4,9.2-1.5c3.6-0.1,7.6-0.1,10.2,0.6
		c2.3,0.6,6.7,2.3,8.7,4.9c2.2,2.8,3.3,6.9,0.8,10c-2.4,3.3-9,6.9-19.2,7.8c-3.5,0.3-7.3,0.3-9.4,0.1c-4.3-0.4-10.5-1.5-15.2-3.6
		c-2.6-1.2-6.2-3.5-7.8-4.7c-2.8-2.1-8.3-7.1-10.2-9.7c-1.8-2.6-3.8-5.7-5.1-8.5c-0.8-1.6-2.2-6.8-2.2-6.8l-6.5-8.4
		c0,0-0.2,15.1,0.1,19.7c0.3,4.6,5.5,9.9,5.5,9.9h-6l-3.3,7.1v0.1c1.2,0.3,2.1,1.4,2.1,2.8l0,0c0,1.6-1.4,2.8-2.8,2.8l0,0
		c-0.1,0-0.8,0-0.9,0l0,0c-1.6,0-2.8-1.4-2.8-2.8l0,0c0-1.4,0.9-2.4,2.1-2.8v0.1l-3.3-7.1h-6c0,0,5.2-5.3,5.5-9.9
		c0.4-4.6,0.1-19.7,0.1-19.7l-6.3,8.5c0,0-1,8.5-1.6,10.8c-0.5,2.1-3.8,8.5-5.8,11c-1.8,2.2-6.8,5.9-8.7,6.5c-2.1,0.6-4.2,1-6.8,0.3
		c-1.4-0.4-5.3-1.6-7-0.6c-0.1,0.1-0.3,0.2-0.3,0.2l0.7-1.1c0,0,0.4-0.3,0.7-0.3c0.9-0.2,1.6-0.1,1.6-0.1s-0.5-0.5-0.9-1.1
		c-0.8-0.9-2.6-3.5-2.8-7.4c-0.1-1.1,0.5-5.3,0.7-7s1-8.5,0.9-10.2c-0.2-3.6-1.2-5.4-2.1-5.8c-0.6-0.3-0.8-0.2-0.8-0.2
		s0.6,0.5,0.6,0.8s-0.1,0.7-0.8,0.8c-0.8,0-0.9-0.6-0.9-1.1c0.1-0.5,0.6-1.4,1.8-1c0.9,0.3,1.6,1.2,2.2,2.8c0.6,1.5,0.7,3.8,0.7,5.6
		c0,1.7-0.7,6.7-0.8,8c-0.1,0.9-0.5,3.6-0.5,3.6s0.1-0.7,0.8-1.9c0.7-1.4,1.8-2.3,2.6-2.8c1-0.6,2.6-1.2,4.7-1.2V114l-0.4-0.4
		l0.6-0.6l0.6,0.5l-0.4,0.5v0.4c0,0,2.2,0.3,4.2,2.1c0.4,0.3,0.7,0.7,0.7,0.7l0.3-0.6l1,0.3l-0.4,1h-0.8c0.6,1.5,0.7,2.1,0.8,2.6
		c0.1,0.8,0.2,2.1,0.2,2.1l0.9-0.2l0.7,1.1l-1.2,0.7l-0.5-0.6c0,0-0.6,1.8-1.7,2.9c-0.4,0.4-0.7,1.5-0.7,1.5s-0.6-0.5-1.4-0.5
		c-0.5,0-1.4,0.8-1.4,0.8s-0.3-0.7-0.9-0.9c-0.5-0.1-1.2,0.1-1.2,0.1s0.1-0.4,0-0.9s-1-1.8-1-2.8c0-0.9,0.5-1.7,1.2-2.1
		c0.8-0.4,2.1-0.4,2.8,0c1.7,0.8,1.1,3.3,0,3.6c-0.7,0.2-1.4,0.2-1.8-0.4s-0.2-1-0.2-1s-0.8,0-0.8,1c0.1,1.5,1.5,1.9,2.4,1.9
		c1.2-0.1,2.6-0.6,3.5-2.9c0.7-2.1-0.1-5.3-1.1-6.6c-0.9-1.2-4-3.5-8.1-1.4c-2.2,1.1-4.3,3.3-4.3,8.7c0,2.4,1.7,7.3,5.5,8.7
		c4.5,1.6,7.3,0.5,8.7-0.2c2.8-1.4,5.5-5.7,6.8-11.7c1.4-5.9,1.1-12.2,1.1-15.9c0-6.1-1.7-16.8-2.8-20.3c-0.7-2.3-2.6-9.5-4.7-12.1
		c-1.4-1.9-1.9-2.4-3.3-2.9c-1.6-0.5-1.4-2.9-0.1-3.1c0.8-0.1,1.2,0.4,1.4,0.9c0.3,1-0.8,1.4-0.8,1.4s0.5,0.3,1.4,0.2
		c1.2-0.1,4-0.4,6.1-1.9s3.6-2.9,6.1-3.6c2.6-0.6,6-0.9,7.8-0.5c1.5,0.3,2.6,0.9,3.6,1.7c1.1,0.8,1.7,1.9,2.3,2.8
		c0.4,0.6,1.1,1.7,1.1,1.7C48.5,70,47.9,71,47.9,72c0,1.4,0.9,2.6,1.9,2.6h0.1c1.1,0,1.9-1.1,1.9-2.6c0-1.1-0.5-2.1-1.4-2.3
		c0,0,0.7-1.1,1.1-1.7c0.6-0.8,1.2-2.1,2.3-2.8c1.1-0.8,2.1-1.4,3.6-1.7c1.8-0.3,5.2-0.1,7.8,0.5c2.6,0.6,4,2.1,6.1,3.6
		s4.9,1.8,6.1,1.9c1,0.1,1.4-0.2,1.4-0.2s-1-0.4-0.7-1.4c0.2-0.5,0.6-1,1.4-0.9c1.4,0.1,1.5,2.6-0.1,3.1c-1.4,0.4-1.7,1-3.3,2.9
		c-1.9,2.6-4,9.7-4.7,12.1c-1,3.3-1.5,12.9-1,19C71.2,107.5,73.5,116.2,74,117.7z M38.6,103.3l6.2-8v-5.5l-6.3,8.5L38.6,103.3z
		 M61.2,98.1l-6.3-8.5v5.5l6.2,8L61.2,98.1z M35,72.9c-0.3-0.7-1.1-1.2-1.9-1.2c-1.2,0-2.1,0.9-2.1,2.1s0.9,2.1,2.1,2.1
		c0.6,0,1.2-0.3,1.6-0.7c0,0-0.1,1.7,0.4,3.8c0.5,2.1,2.8,11.7,2.8,13.2c0.1,1.4,0.3,4.2,0.3,4.2l6.7-8.5c0,0,0.1-6.4-0.2-9
		c-0.2-1.5-0.9-4.3-1.9-6c-0.9-1.6-1.8-3.1-4.5-2.8c-2.1,0.2-2.6,0.9-2.9,1.6C35.1,72.5,35,72.9,35,72.9z M63.7,71.1
		c-0.3-0.7-0.8-1.4-2.9-1.6c-2.6-0.3-3.6,1.2-4.5,2.8c-1,1.6-1.7,4.3-1.9,6c-0.4,2.6-0.2,9-0.2,9l6.7,8.5c0,0,0.2-2.6,0.3-4.2
		c0.1-1.4,2.3-11.1,2.8-13.2c0.5-2.1,0.4-3.8,0.4-3.8c0.4,0.4,0.9,0.7,1.6,0.7c1.2,0,2.1-0.9,2.1-2.1s-0.9-2.1-2.1-2.1
		c-0.8,0-1.6,0.5-1.9,1.2C64.1,72.2,63.9,71.8,63.7,71.1z M49.7,100.1c0,0,0.7-3.3,1-4s1-1.5,1-1.5s-1-1.4-1.2-2.4
		c-0.3-1-0.7-4.3-0.7-4.3l0,0c0,0-0.4,3.3-0.7,4.3S48,94.6,48,94.6s0.6,0.8,1,1.5C49.1,96.9,49.7,100.1,49.7,100.1 M34.5,100.1
		c0,0,0.7-3.3,1-4s1-1.5,1-1.5s-1-1.4-1.2-2.4c-0.3-1-0.7-4.3-0.7-4.3l0,0c0,0-0.4,3.3-0.7,4.3s-1.2,2.4-1.2,2.4s0.7,0.8,1,1.5
		C33.8,96.9,34.5,100.1,34.5,100.1 M65.9,100.1c0,0,0.7-3.3,1-4s1-1.5,1-1.5s-1-1.4-1.2-2.4c-0.3-1-0.7-4.3-0.7-4.3l0,0
		c0,0-0.4,3.3-0.7,4.3c-0.3,1-1.2,2.4-1.2,2.4s0.6,0.8,1,1.5C65.3,96.9,65.9,100.1,65.9,100.1"/>
	<path class="st1" d="M18.4,107.7c3.8-2.8,5.7-6.5,7.6-10c1.9-3.4,0.6-7.3,0.6-7.3s1.4,0.4,1.7,0.8c0.3,0.3,0.2,0.7-0.1,1.4
		c-0.2,0.5-0.4,0.8-0.4,0.8s0.6,0.4,0.9,0.8c0.2,0.3,0.3,0.6-0.1,1.2c-0.3,0.5-0.5,0.6-0.5,0.6s0.5-0.1,0.7,0.4s0.2,0.8-0.1,1.4
		s-0.4,0.8-0.4,0.8s0.4,0.2,0.6,0.5c0.3,0.4,0.1,0.8-0.2,1.4c-0.3,0.4-0.7,0.7-0.7,0.7s0.5,0.1,0.8,0.3s0.4,0.9,0.1,1.4
		c-0.4,0.4-0.7,0.6-0.7,0.6s0.7,0.2,1,0.7c0.2,0.3,0,0.9-0.4,1.4c-0.5,0.5-0.4,0.4-0.4,0.4s0.5,0.2,0.8,0.7s0.3,0.8,0,1.2
		c-0.2,0.4-0.3,0.4-0.3,0.4s0.6,0.6,0.7,1.1s0.2,2.2-0.5,1.4c-0.4-0.5-0.3-0.4-1.1-1c-0.8-0.6-1.7-1.4-5.1-1.4s-4.2,0.4-5.7,1
		c-1.7,0.7-2.9,2.1-2.9,2.1S14.6,110.5,18.4,107.7z M21.8,105.5c0,0.5,0.4,1,0.9,1s0.9-0.4,0.9-1c0-0.5-0.4-0.9-0.9-0.9
		C22.2,104.5,21.8,104.9,21.8,105.5z M19.1,107.4c-0.2,0-0.4,0.2-0.4,0.4c0,0.2,0.2,0.4,0.4,0.4s0.4-0.2,0.4-0.4
		S19.3,107.4,19.1,107.4z M20.8,106.2c-0.3,0-0.6,0.3-0.6,0.6c0,0.3,0.3,0.6,0.6,0.6c0.3,0,0.6-0.3,0.6-0.6
		C21.5,106.5,21.1,106.2,20.8,106.2z"/>
	<circle class="st1" cx="13.5" cy="117.4" r="0.7"/>
	<circle class="st1" cx="16.7" cy="116.5" r="0.7"/>
	<circle class="st1" cx="19.7" cy="117.6" r="0.7"/>
	<circle class="st1" cx="21.3" cy="121.2" r="0.7"/>
	<path class="st8" d="M8.3,124.7c0,0,2.8-0.3,4.6,0.1c2.2,0.5,2.9,1.5,3.6,1.9"/>
	<path class="st8" d="M8.5,121.1c0,0,2.8,0.3,4.1,0.8c2.6,1.2,3.3,3.6,3.5,3.8"/>
	<path class="st8" d="M10.4,117.1c0,0,2.1,1.1,3.1,2.1c1.4,1.4,1.6,2.8,1.9,3.8"/>
	<path class="st8" d="M14.2,115c0,0,0.9,1.4,1.5,2.9c0.5,1.4,0.7,4,0.6,4.3"/>
	<path class="st8" d="M17.9,114.5c0,0,0.5,2.4,0.5,3.6c-0.1,2.1-1.2,3.3-1.4,3.6"/>
	<path class="st8" d="M21.5,116.7c0,0,0,1.4-0.7,2.6c-0.8,1.4-1.7,2.1-2.2,2.4"/>
	<path class="st8" d="M9.9,129.3c0,0,1.7-1.5,2.9-1.8c2.2-0.6,3.5-0.3,3.5-0.3"/>
</g>
<path class="st1" d="M150.1,574.1c1.2,0,2.5-0.1,3.9-0.1c3.7,0,5-4.3,9.1-4.3c3.7,0,3.3,2,8,1.9c4.4-0.1,6.7-0.7,9.4-3
	c2-1.6,2.7-4.2,4.8-6c3.2-3,8-3.9,8.1-9.9c0.1-4.3-4.4-13.4-18.7-14.1c-3.1-0.1-4.5-4.4-4.5-4.4s2.9-3,2.1-7.6
	c-0.6-3.3-2.6-5.2-2.6-5.2s3-2,3-7.9c0-4.5-3.5-7.4-3.5-7.4s2.9-3.2,2.9-6.1s-1.8-6.3-1.8-6.3s2.7-4.3,2.9-7.5
	c0.1-3.3-2.4-7.2-2.4-7.2s2.6-4.2,2.6-8.3s-1.6-8.2-1.6-8.2s3.5-4.5,3.9-9.9c0.4-4.3-1.7-7.2,1-10.5c2.6-3.3,3-5.8,3.8-9.3
	c1-3.9,2.9-13.6,2.9-19.9c0-4.2,3.2-5.2,6.1-8.1c2.7-2.6,5.8-14.8,5.4-21.7c-0.5-6.3-4.2-11.1-1.3-14c5.5-5.5,12.4-8.5,13.6-9.7
	c2.3-2.1,3.7-5.7,3.7-5.7s5.1-1.6,6.9-3.7c2.3-2.6,2.7-7,2.7-7s10.5-0.2,10.9-6.3c0.1-1.3-1.6-0.7-3.7-1.1c-2.5-0.5-3.3-3.7-2.3-8.5
	c1-4.5,1.7-6.4,4.3-9.5s4.5-3.8,6.8-6.8c1.9-2.5,2.6-10.6,2.4-16.8c-0.2-6.2,0.5-5-2.4-19.8s-11.8-32.3-18.7-41.5
	s-18.1-14.5-25.9-17.4c0,0,11.8-19.6,19.9-27.1c4.3-4.1,16.9-14.1,16.9-14.1c-2.9,1.2-11.8,5.7-20.4,13.8
	c-8.5,8.1-19.7,26.1-19.7,26.1c-1.2-0.4-2.3-0.6-3.1-0.8c-5.7-1.3-11.9-0.5-11.9-0.5s5.4,9.1,8.6,15l-5.1,11
	c-1.7-1.9-3.3-3.9-4.5-6.1c-2.9-5-8.5-13.7-9.8-16.6c-1.3-2.9-2.1-2.5-3.1-0.5c-3.5,7.4,3.5,20.8,4.4,24c1.2,4.1,7.9,15.6,7.9,15.6
	s-4.9,16.6-5.8,20.2c-1.1,3.7-7.4,31.7-8.5,35.2c-1.6,4.5-4.2,20.6-4.2,20.6s-0.1-1.4-3-1.7h-0.8c-3,0.1-3,1.7-3,1.7
	s-2.7-16.1-4.2-20.6c-1.2-3.5-7.4-31.5-8.5-35.2c-1.1-3.6-5.8-20.2-5.8-20.2s6.7-11.6,7.9-15.6c1-3.2,7.9-16.6,4.4-24
	c-1-2-1.8-2.4-3.1,0.5s-6.9,11.7-9.8,16.6c-1.2,2.1-2.9,4.2-4.5,6.1l-5.1-11c3.2-6,8.6-15,8.6-15s-6.2-0.8-11.9,0.5
	c-0.8,0.2-1.9,0.5-3.1,0.8c0,0-11.2-18-19.7-26.1c-8.6-8.1-17.5-12.6-20.4-13.8c0,0,12.6,10,16.9,14.1c8,7.5,19.9,27.1,19.9,27.1
	c-7.8,2.7-19,8.2-25.9,17.4c-6.9,9.1-15.9,26.7-18.7,41.5c-2.9,14.8-2.1,13.5-2.4,19.8c-0.2,6.2,0.5,14.3,2.4,16.8
	c2.3,3,4.2,3.7,6.8,6.8c2.6,3.1,3.3,5,4.3,9.5c1.1,4.8,0.2,8-2.3,8.5c-2.1,0.4-3.7-0.2-3.7,1.1c0.4,6.1,10.9,6.3,10.9,6.3
	s0.5,4.4,2.7,7c1.8,2.1,6.9,3.7,6.9,3.7s1.6,3.6,3.7,5.7c1.2,1.2,8,4.2,13.6,9.7c2.9,2.9-0.8,7.6-1.3,14c-0.5,7,2.6,19.1,5.4,21.7
	c3,2.9,6.1,4.1,6.1,8.1c0,6.3,2,16,2.9,19.9c0.8,3.5,1.2,6,3.8,9.3c2.6,3.3,0.6,6.2,1,10.5c0.5,5.4,3.9,9.9,3.9,9.9
	s-1.6,4.1-1.6,8.2s2.6,8.3,2.6,8.3s-2.5,3.8-2.4,7.2c0.1,3.2,2.9,7.5,2.9,7.5s-1.9,3.5-1.9,6.3s2.9,6.1,2.9,6.1s-3.5,2.9-3.5,7.4
	c0,6,3,7.9,3,7.9s-2,1.9-2.6,5.2c-0.8,4.7,2.1,7.6,2.1,7.6s-1.4,4.2-4.5,4.4c-14.4,0.7-19,9.9-18.7,14.1c0.2,6,4.9,7,8.1,9.9
	c2,1.8,2.9,4.4,4.8,6c2.7,2.1,5,2.9,9.4,3c4.7,0.1,4.2-1.9,8-1.9c4.1,0,5.5,4.3,9.1,4.3c1.3,0,2.6,0,3.9,0.1H150.1z M119.7,242
	c-4.1,3.8-7.8,6.3-7.8,6.3s1.3-11.7,3.7-16.7L119.7,242z M136.2,298c3,15.4,6.2,31.8,6.2,31.8s-1.6,2.6-1.6,3.7
	c0,1.2,1.1,3.1,1.1,3.1s-3.5,3.2-5,6.3c-1.6,3.1-3,10.6-3,10.6s-8.3-8.6-12.5-11.3c-4.4-3-10.9-4.9-10.9-4.9s-1.3-5-4.3-8.8
	c-2.5-3.3-7.4-6-7.4-6s-1.8-3.6-3.6-6.3c-2.1-3.1-4.8-6-4.8-6s11.8-6.6,16.1-12.3c4.8-6.3,5.2-10.9,7.6-13s2-5.7,1.8-8.6
	s-2.6-3.1-0.8-4.4c1.8-1.3,9.9-13.8,9.9-13.8S132.3,278.7,136.2,298z M184.1,231.5c2.4,5,3.7,16.7,3.7,16.7s-3.7-2.5-7.8-6.3
	L184.1,231.5z M174.7,258.1c0,0,8.1,12.5,9.9,13.8c1.8,1.3-0.5,1.6-0.8,4.4c-0.2,2.9-0.5,6.6,1.8,8.6c2.4,2,2.9,6.7,7.6,13
	c4.4,5.7,16.1,12.3,16.1,12.3s-2.7,2.9-4.8,6c-1.8,2.7-3.6,6.3-3.6,6.3s-4.9,2.6-7.4,6c-3,3.8-4.3,8.8-4.3,8.8s-6.4,1.9-10.9,4.9
	c-4.2,2.9-12.5,11.3-12.5,11.3s-1.4-7.5-3-10.6s-5-6.3-5-6.3s1.1-1.9,1.1-3.1c0-1.1-1.6-3.7-1.6-3.7s3.2-16.5,6.2-31.8
	C167.3,278.7,174.7,258.1,174.7,258.1z"/>
</svg>
