<?xml version="1.0" encoding="utf-8"?>
<!-- Generator: Adobe Illustrator 20.1.0, SVG Export Plug-In . SVG Version: 6.00 Build 0)  -->
<svg version="1.1" id="Layer_1" xmlns="http://www.w3.org/2000/svg" xmlns:xlink="http://www.w3.org/1999/xlink" x="0px" y="0px"
	 viewBox="0 0 595 202" style="enable-background:new 0 0 595 202;" xml:space="preserve">
<style type="text/css">
	.st0{fill:#691F45;}
	.st1{fill:none;stroke:#EC218B;stroke-width:0.3835;}
	.st2{fill:none;stroke:#EC218B;stroke-width:0.1534;}
	.st3{fill:#EC218B;}
	.st4{fill:none;stroke:#691F45;stroke-width:0.2301;stroke-linecap:round;stroke-linejoin:bevel;}
	.st5{fill:none;stroke:#EC218B;stroke-width:0.2301;}
	.st6{fill:none;stroke:#EC218B;stroke-width:7.670963e-02;}
	.st7{fill:none;stroke:#691F45;stroke-width:0.2301;}
	.st8{fill:none;stroke:#691F45;stroke-width:0.6904;}
	.st9{fill:none;stroke:#691F45;stroke-width:0.1534;}
	.st10{fill:none;stroke:#691F45;stroke-width:7.670963e-02;}
</style>
<rect y="0.1" class="st0" width="595" height="202"/>
<line class="st1" x1="107.5" y1="75.7" x2="107.5" y2="65.7"/>
<line class="st2" x1="107.5" y1="66.2" x2="107.5" y2="57.4"/>
<line class="st1" x1="118.1" y1="75.7" x2="118.1" y2="65.7"/>
<line class="st2" x1="118.1" y1="66.2" x2="118.1" y2="57.4"/>
<rect x="106.1" y="73.9" class="st3" width="14.2" height="1.2"/>
<polyline class="st3" points="96.3,198 103.6,74.8 122.9,74.8 130.2,198 96.3,198 "/>
<rect x="104.3" y="75.7" class="st0" width="4.2" height="0.9"/>
<rect x="108.8" y="75.7" class="st0" width="4.2" height="0.9"/>
<rect x="113.4" y="75.7" class="st0" width="4.2" height="0.9"/>
<rect x="118" y="75.7" class="st0" width="4.2" height="0.9"/>
<polyline class="st4" points="112.8,76.5 102.9,87.5 124.8,106.3 100.6,126 127.4,149.5 97.8,172.5 130.2,198 "/>
<polyline class="st4" points="113.5,76.5 123.6,87.5 101.9,106.3 125.9,126 99.3,149.5 128.6,172.5 96.3,198 "/>
<line class="st2" x1="143.8" y1="30.2" x2="143.8" y2="43.7"/>
<line class="st5" x1="144" y1="33.6" x2="144" y2="45.9"/>
<rect x="145.9" y="25.4" class="st3" width="1.9" height="17.3"/>
<line class="st5" x1="146.8" y1="22.1" x2="146.8" y2="27.6"/>
<line class="st6" x1="146.8" y1="15.9" x2="146.8" y2="23"/>
<line class="st2" x1="157.6" y1="30.2" x2="157.6" y2="43.7"/>
<line class="st5" x1="157.9" y1="33.6" x2="157.9" y2="45.9"/>
<rect x="154.1" y="25.4" class="st3" width="1.9" height="17.3"/>
<line class="st5" x1="155" y1="22.1" x2="155" y2="27.6"/>
<line class="st6" x1="155.1" y1="15.9" x2="155.1" y2="23"/>
<polyline class="st3" points="135.4,197.6 135.4,69.8 142.9,69.8 142.9,42.6 147.1,42.6 147.1,40.8 155.4,40.8 155.4,42.7 
	158.9,42.7 158.9,197.6 135.4,197.6 "/>
<polygon class="st6" points="135.4,197.6 135.4,69.8 142.9,69.8 142.9,42.6 147.1,42.6 147.1,40.8 155.4,40.8 155.4,42.7 
	158.9,42.7 158.9,197.6 "/>
<rect x="157.3" y="43.4" class="st0" width="1.3" height="2.6"/>
<rect x="155.6" y="43.4" class="st0" width="1.3" height="2.6"/>
<rect x="153.8" y="43.4" class="st0" width="1.3" height="2.6"/>
<rect x="152.1" y="43.4" class="st0" width="1.3" height="2.6"/>
<rect x="150.2" y="43.4" class="st0" width="1.3" height="2.6"/>
<rect x="148.5" y="43.4" class="st0" width="1.3" height="2.6"/>
<rect x="146.8" y="43.4" class="st0" width="1.3" height="2.6"/>
<rect x="145.1" y="43.4" class="st0" width="1.3" height="2.6"/>
<rect x="143.2" y="43.4" class="st0" width="1.3" height="2.6"/>
<rect x="157.1" y="70.5" class="st0" width="1.3" height="2.6"/>
<rect x="155.3" y="70.5" class="st0" width="1.3" height="2.6"/>
<rect x="153.5" y="70.5" class="st0" width="1.3" height="2.6"/>
<rect x="151.8" y="70.5" class="st0" width="1.3" height="2.6"/>
<rect x="150.1" y="70.5" class="st0" width="1.3" height="2.6"/>
<rect x="148.2" y="70.5" class="st0" width="1.3" height="2.6"/>
<rect x="146.5" y="70.5" class="st0" width="1.3" height="2.6"/>
<rect x="144.8" y="70.5" class="st0" width="1.3" height="2.6"/>
<rect x="143" y="70.5" class="st0" width="1.3" height="2.6"/>
<rect x="141.2" y="70.5" class="st0" width="1.3" height="2.6"/>
<rect x="139.4" y="70.5" class="st0" width="1.3" height="2.6"/>
<rect x="137.7" y="70.5" class="st0" width="1.3" height="2.6"/>
<rect x="135.8" y="70.5" class="st0" width="1.3" height="2.6"/>
<rect x="157.1" y="105.3" class="st0" width="1.3" height="2.6"/>
<rect x="155.3" y="105.3" class="st0" width="1.3" height="2.6"/>
<rect x="153.5" y="105.3" class="st0" width="1.3" height="2.6"/>
<rect x="151.8" y="105.3" class="st0" width="1.3" height="2.6"/>
<rect x="150.1" y="105.3" class="st0" width="1.3" height="2.6"/>
<rect x="148.2" y="105.3" class="st0" width="1.3" height="2.6"/>
<rect x="146.5" y="105.3" class="st0" width="1.3" height="2.6"/>
<rect x="144.8" y="105.3" class="st0" width="1.3" height="2.6"/>
<rect x="143" y="105.3" class="st0" width="1.3" height="2.6"/>
<rect x="141.2" y="105.3" class="st0" width="1.3" height="2.6"/>
<rect x="139.4" y="105.3" class="st0" width="1.3" height="2.6"/>
<rect x="137.7" y="105.3" class="st0" width="1.3" height="2.6"/>
<rect x="135.8" y="105.3" class="st0" width="1.3" height="2.6"/>
<rect x="157.1" y="154" class="st0" width="1.3" height="2.6"/>
<rect x="155.3" y="154" class="st0" width="1.3" height="2.6"/>
<rect x="153.5" y="154" class="st0" width="1.3" height="2.6"/>
<rect x="151.8" y="154" class="st0" width="1.3" height="2.6"/>
<rect x="150.1" y="154" class="st0" width="1.3" height="2.6"/>
<rect x="148.2" y="154" class="st0" width="1.3" height="2.6"/>
<rect x="146.5" y="154" class="st0" width="1.3" height="2.6"/>
<rect x="144.8" y="154" class="st0" width="1.3" height="2.6"/>
<rect x="143" y="154" class="st0" width="1.3" height="2.6"/>
<rect x="141.2" y="154" class="st0" width="1.3" height="2.6"/>
<rect x="139.4" y="154" class="st0" width="1.3" height="2.6"/>
<rect x="137.7" y="154" class="st0" width="1.3" height="2.6"/>
<rect x="135.8" y="154" class="st0" width="1.3" height="2.6"/>
<polyline class="st3" points="179.3,112.5 164.9,122.6 164.9,197.6 196.3,197.6 196.3,122.6 181.5,112.5 181.5,120.1 179.3,120.1 
	179.3,112.5 "/>
<polyline class="st7" points="164.8,121.7 177.9,135.1 177.9,197.9 183.9,197.9 183.9,135 196.4,122 "/>
<rect x="203.3" y="65.3" class="st3" width="25.9" height="132.4"/>
<rect x="205.7" y="62.6" class="st3" width="21" height="134.9"/>
<line class="st7" x1="225.2" y1="63.7" x2="225.2" y2="197.1"/>
<line class="st7" x1="224.4" y1="63.7" x2="224.4" y2="197.1"/>
<line class="st7" x1="223.5" y1="63.7" x2="223.5" y2="197.1"/>
<line class="st7" x1="222.6" y1="63.7" x2="222.6" y2="197.1"/>
<line class="st7" x1="221.8" y1="63.7" x2="221.8" y2="197.1"/>
<line class="st7" x1="220.9" y1="63.7" x2="220.9" y2="197.1"/>
<line class="st7" x1="219.9" y1="63.7" x2="219.9" y2="197.1"/>
<line class="st7" x1="219" y1="63.7" x2="219" y2="197.1"/>
<line class="st7" x1="218.2" y1="63.7" x2="218.2" y2="197.1"/>
<line class="st7" x1="217.3" y1="63.7" x2="217.3" y2="197.1"/>
<line class="st7" x1="216.4" y1="63.7" x2="216.4" y2="197.1"/>
<line class="st7" x1="215.6" y1="63.7" x2="215.6" y2="197.1"/>
<line class="st7" x1="214.7" y1="63.7" x2="214.7" y2="197.1"/>
<line class="st7" x1="213.9" y1="63.7" x2="213.9" y2="197.1"/>
<line class="st7" x1="213" y1="63.7" x2="213" y2="197.1"/>
<line class="st7" x1="212.1" y1="63.7" x2="212.1" y2="197.1"/>
<line class="st7" x1="211.3" y1="63.7" x2="211.3" y2="197.1"/>
<line class="st7" x1="210.4" y1="63.7" x2="210.4" y2="197.1"/>
<line class="st7" x1="209.5" y1="63.7" x2="209.5" y2="197.1"/>
<line class="st7" x1="208.7" y1="63.7" x2="208.7" y2="197.1"/>
<line class="st7" x1="207.8" y1="63.7" x2="207.8" y2="197.1"/>
<line class="st7" x1="206.9" y1="63.7" x2="206.9" y2="197.1"/>
<polyline class="st3" points="258.2,197.7 258.2,100.7 246.7,86 246.5,86 235.2,100.7 235.2,197.7 258.2,197.7 "/>
<polyline class="st3" points="256.5,197.7 256.5,115 246.7,102.4 246.7,102.4 236.9,115 236.9,197.7 256.5,197.7 "/>
<polygon class="st7" points="256.5,197.7 256.5,115 246.7,102.4 246.7,102.4 236.9,115 236.9,197.7 "/>
<polyline class="st3" points="254.3,197.7 254.3,133.7 246.7,124 246.7,124 239,133.7 239,197.7 254.3,197.7 "/>
<polygon class="st7" points="254.3,197.7 254.3,133.7 246.7,124 246.7,124 239,133.7 239,197.7 "/>
<line class="st8" x1="246.7" y1="85.4" x2="246.7" y2="197.7"/>
<polyline class="st3" points="245.8,87.3 246.7,68.8 247.5,87.3 "/>
<polyline class="st3" points="294.2,197.1 294.2,118.4 291.6,118.4 291.6,114.4 290.9,114.4 289.4,112.2 288,114.2 287.1,114.2 
	287.1,118.4 284.7,118.4 284.7,121.3 274.9,121.3 274.9,118.4 272.4,118.4 272.4,114.2 271.6,114.2 270.1,112.2 268.7,114.4 
	267.8,114.4 267.8,118.4 265.2,118.4 265.2,197.1 294.2,197.1 "/>
<polygon class="st6" points="294.2,197.1 294.2,118.4 291.6,118.4 291.6,114.4 290.9,114.4 289.4,112.2 288,114.2 287.1,114.2 
	287.1,118.4 284.7,118.4 284.7,121.3 274.9,121.3 274.9,118.4 272.4,118.4 272.4,114.2 271.6,114.2 270.1,112.2 268.7,114.4 
	267.8,114.4 267.8,118.4 265.2,118.4 265.2,197.1 "/>
<rect x="268.5" y="114.8" class="st0" width="3.3" height="3.3"/>
<rect x="287.7" y="114.8" class="st0" width="3.3" height="3.3"/>
<rect x="268.4" y="119" class="st0" width="1.3" height="2.2"/>
<rect x="270.4" y="119" class="st0" width="1.3" height="2.2"/>
<rect x="272.4" y="119.6" class="st0" width="1.2" height="1.9"/>
<rect x="266.5" y="119.6" class="st0" width="1.2" height="1.9"/>
<rect x="268.4" y="122" class="st0" width="1.3" height="5.5"/>
<rect x="270.4" y="122" class="st0" width="1.3" height="5.5"/>
<rect x="268.4" y="128.1" class="st0" width="1.3" height="38.9"/>
<rect x="270.4" y="128.1" class="st0" width="1.3" height="38.9"/>
<rect x="272.4" y="122" class="st0" width="1.2" height="5.5"/>
<rect x="266.5" y="122" class="st0" width="1.2" height="5.5"/>
<rect x="287.7" y="122" class="st0" width="1.3" height="5.5"/>
<rect x="289.7" y="122" class="st0" width="1.3" height="5.5"/>
<rect x="287.7" y="128.1" class="st0" width="1.3" height="38.9"/>
<rect x="289.7" y="128.1" class="st0" width="1.3" height="38.9"/>
<rect x="291.7" y="122" class="st0" width="1.2" height="5.5"/>
<rect x="285.8" y="122" class="st0" width="1.2" height="5.5"/>
<rect x="287.7" y="119" class="st0" width="1.3" height="2.2"/>
<rect x="289.7" y="119" class="st0" width="1.3" height="2.2"/>
<rect x="291.7" y="119.6" class="st0" width="1.2" height="1.9"/>
<rect x="285.8" y="119.6" class="st0" width="1.2" height="1.9"/>
<polyline class="st3" points="355.9,98.8 367.6,104.6 367.6,196.8 343.8,196.8 343.8,104.6 355.5,98.8 355.9,98.8 "/>
<rect x="345.7" y="109.3" class="st0" width="3.9" height="3.9"/>
<rect x="350.3" y="109.3" class="st0" width="1.4" height="3.9"/>
<rect x="361.7" y="109.3" class="st0" width="3.9" height="3.9"/>
<rect x="359.4" y="109.3" class="st0" width="1.4" height="3.9"/>
<rect x="352.5" y="109.3" class="st0" width="6" height="3.9"/>
<rect x="345.7" y="113.8" class="st0" width="3.9" height="0.9"/>
<rect x="350.3" y="113.8" class="st0" width="1.4" height="0.9"/>
<rect x="361.7" y="113.8" class="st0" width="3.9" height="0.9"/>
<rect x="359.4" y="113.8" class="st0" width="1.4" height="0.9"/>
<rect x="352.5" y="113.8" class="st0" width="6" height="0.9"/>
<rect x="345.7" y="133.8" class="st0" width="3.9" height="0.9"/>
<rect x="350.3" y="133.8" class="st0" width="1.4" height="0.9"/>
<rect x="361.7" y="133.8" class="st0" width="3.9" height="0.9"/>
<rect x="359.4" y="133.8" class="st0" width="1.4" height="0.9"/>
<rect x="352.5" y="133.8" class="st0" width="6" height="0.9"/>
<rect x="345.7" y="120.1" class="st0" width="3.9" height="0.9"/>
<rect x="350.3" y="120.1" class="st0" width="1.4" height="0.9"/>
<rect x="361.7" y="120.1" class="st0" width="3.9" height="0.9"/>
<rect x="359.4" y="120.1" class="st0" width="1.4" height="0.9"/>
<rect x="345.7" y="126.8" class="st0" width="3.9" height="0.9"/>
<rect x="350.3" y="126.8" class="st0" width="1.4" height="0.9"/>
<rect x="361.7" y="126.8" class="st0" width="3.9" height="0.9"/>
<rect x="359.4" y="126.8" class="st0" width="1.4" height="0.9"/>
<rect x="345.7" y="140.4" class="st0" width="3.9" height="0.9"/>
<rect x="350.3" y="140.4" class="st0" width="1.4" height="0.9"/>
<rect x="361.7" y="140.4" class="st0" width="3.9" height="0.9"/>
<rect x="359.4" y="140.4" class="st0" width="1.4" height="0.9"/>
<rect x="345.7" y="115.5" class="st0" width="3.9" height="3.9"/>
<rect x="350.3" y="115.5" class="st0" width="1.4" height="3.9"/>
<rect x="361.7" y="115.5" class="st0" width="3.9" height="3.9"/>
<rect x="359.4" y="115.5" class="st0" width="1.4" height="3.9"/>
<rect x="345.7" y="122" class="st0" width="3.9" height="3.9"/>
<rect x="350.3" y="122" class="st0" width="1.4" height="3.9"/>
<rect x="361.7" y="122" class="st0" width="3.9" height="3.9"/>
<rect x="359.4" y="122" class="st0" width="1.4" height="3.9"/>
<rect x="345.7" y="128.8" class="st0" width="3.9" height="3.9"/>
<rect x="350.3" y="128.8" class="st0" width="1.4" height="3.9"/>
<rect x="361.7" y="128.8" class="st0" width="3.9" height="3.9"/>
<rect x="359.4" y="128.8" class="st0" width="1.4" height="3.9"/>
<rect x="345.7" y="153.8" class="st0" width="3.9" height="0.9"/>
<rect x="350.3" y="153.8" class="st0" width="1.4" height="0.9"/>
<rect x="361.7" y="153.8" class="st0" width="3.9" height="0.9"/>
<rect x="359.4" y="153.8" class="st0" width="1.4" height="0.9"/>
<rect x="352.5" y="153.8" class="st0" width="6" height="0.9"/>
<rect x="345.7" y="148.8" class="st0" width="3.9" height="3.9"/>
<rect x="350.3" y="148.8" class="st0" width="1.4" height="3.9"/>
<rect x="361.7" y="148.8" class="st0" width="3.9" height="3.9"/>
<rect x="359.4" y="148.8" class="st0" width="1.4" height="3.9"/>
<rect x="345.7" y="147" class="st0" width="3.9" height="0.9"/>
<rect x="350.3" y="147" class="st0" width="1.4" height="0.9"/>
<rect x="361.7" y="147" class="st0" width="3.9" height="0.9"/>
<rect x="359.4" y="147" class="st0" width="1.4" height="0.9"/>
<rect x="345.7" y="142" class="st0" width="3.9" height="3.9"/>
<rect x="350.3" y="142" class="st0" width="1.4" height="3.9"/>
<rect x="361.7" y="142" class="st0" width="3.9" height="3.9"/>
<rect x="359.4" y="142" class="st0" width="1.4" height="3.9"/>
<rect x="352.5" y="115.5" class="st0" width="6" height="17.4"/>
<rect x="345.7" y="135.5" class="st0" width="3.9" height="3.9"/>
<rect x="350.3" y="135.5" class="st0" width="1.4" height="3.9"/>
<rect x="361.7" y="135.5" class="st0" width="3.9" height="3.9"/>
<rect x="359.4" y="135.5" class="st0" width="1.4" height="3.9"/>
<rect x="352.5" y="135.5" class="st0" width="6" height="17.4"/>
<rect x="345.7" y="160.4" class="st0" width="3.9" height="0.9"/>
<rect x="350.3" y="160.4" class="st0" width="1.4" height="0.9"/>
<rect x="361.7" y="160.4" class="st0" width="3.9" height="0.9"/>
<rect x="359.4" y="160.4" class="st0" width="1.4" height="0.9"/>
<rect x="345.7" y="173.8" class="st0" width="3.9" height="0.9"/>
<rect x="350.3" y="173.8" class="st0" width="1.4" height="0.9"/>
<rect x="361.7" y="173.8" class="st0" width="3.9" height="0.9"/>
<rect x="359.4" y="173.8" class="st0" width="1.4" height="0.9"/>
<rect x="352.5" y="173.8" class="st0" width="6" height="0.9"/>
<rect x="345.7" y="168.8" class="st0" width="3.9" height="3.9"/>
<rect x="350.3" y="168.8" class="st0" width="1.4" height="3.9"/>
<rect x="361.7" y="168.8" class="st0" width="3.9" height="3.9"/>
<rect x="359.4" y="168.8" class="st0" width="1.4" height="3.9"/>
<rect x="345.7" y="167.1" class="st0" width="3.9" height="0.9"/>
<rect x="350.3" y="167.1" class="st0" width="1.4" height="0.9"/>
<rect x="361.7" y="167.1" class="st0" width="3.9" height="0.9"/>
<rect x="359.4" y="167.1" class="st0" width="1.4" height="0.9"/>
<rect x="345.7" y="162" class="st0" width="3.9" height="3.9"/>
<rect x="350.3" y="162" class="st0" width="1.4" height="3.9"/>
<rect x="361.7" y="162" class="st0" width="3.9" height="3.9"/>
<rect x="359.4" y="162" class="st0" width="1.4" height="3.9"/>
<rect x="345.7" y="155.5" class="st0" width="3.9" height="3.9"/>
<rect x="350.3" y="155.5" class="st0" width="1.4" height="3.9"/>
<rect x="361.7" y="155.5" class="st0" width="3.9" height="3.9"/>
<rect x="359.4" y="155.5" class="st0" width="1.4" height="3.9"/>
<rect x="352.5" y="155.5" class="st0" width="6" height="17.4"/>
<polyline class="st0" points="365.8,105.3 355.8,100.4 355.6,100.4 345.6,105.3 365.8,105.3 "/>
<rect x="345.7" y="180.7" class="st0" width="3.9" height="0.9"/>
<rect x="350.3" y="180.7" class="st0" width="1.4" height="0.9"/>
<rect x="361.7" y="180.7" class="st0" width="3.9" height="0.9"/>
<rect x="359.4" y="180.7" class="st0" width="1.4" height="0.9"/>
<rect x="345.7" y="194.1" class="st0" width="3.9" height="0.9"/>
<rect x="350.3" y="194.1" class="st0" width="1.4" height="0.9"/>
<rect x="361.7" y="194.1" class="st0" width="3.9" height="0.9"/>
<rect x="359.4" y="194.1" class="st0" width="1.4" height="0.9"/>
<rect x="352.5" y="194.1" class="st0" width="6" height="0.9"/>
<rect x="345.7" y="189.1" class="st0" width="3.9" height="3.9"/>
<rect x="350.3" y="189.1" class="st0" width="1.4" height="3.9"/>
<rect x="361.7" y="189.1" class="st0" width="3.9" height="3.9"/>
<rect x="359.4" y="189.1" class="st0" width="1.4" height="3.9"/>
<rect x="345.7" y="187.3" class="st0" width="3.9" height="0.9"/>
<rect x="350.3" y="187.3" class="st0" width="1.4" height="0.9"/>
<rect x="361.7" y="187.3" class="st0" width="3.9" height="0.9"/>
<rect x="359.4" y="187.3" class="st0" width="1.4" height="0.9"/>
<rect x="345.7" y="182.3" class="st0" width="3.9" height="3.9"/>
<rect x="350.3" y="182.3" class="st0" width="1.4" height="3.9"/>
<rect x="361.7" y="182.3" class="st0" width="3.9" height="3.9"/>
<rect x="359.4" y="182.3" class="st0" width="1.4" height="3.9"/>
<rect x="345.7" y="175.8" class="st0" width="3.9" height="3.9"/>
<rect x="350.3" y="175.8" class="st0" width="1.4" height="3.9"/>
<rect x="361.7" y="175.8" class="st0" width="3.9" height="3.9"/>
<rect x="359.4" y="175.8" class="st0" width="1.4" height="3.9"/>
<rect x="352.5" y="175.8" class="st0" width="6" height="17.4"/>
<path class="st0" d="M351.9,106.6v2.2h-1.6v-2.2c0,0,0.1-0.6,0.7-0.6C351.7,106,351.9,106.6,351.9,106.6"/>
<path class="st0" d="M347.1,106.6v2.2h-1.6v-2.2c0,0,0.1-0.6,0.7-0.6C347.1,106,347.1,106.6,347.1,106.6"/>
<path class="st0" d="M349.6,106.6v2.2H348v-2.2c0,0,0.1-0.6,0.7-0.6C349.4,106,349.6,106.6,349.6,106.6"/>
<path class="st0" d="M365.6,106.6v2.2H364v-2.2c0,0,0.1-0.6,0.7-0.6C365.4,106,365.6,106.6,365.6,106.6"/>
<path class="st0" d="M360.8,106.6v2.2h-1.6v-2.2c0,0,0.1-0.6,0.7-0.6C360.8,106,360.8,106.6,360.8,106.6"/>
<path class="st0" d="M363.3,106.6v2.2h-1.6v-2.2c0,0,0.1-0.6,0.7-0.6C363.3,106,363.3,106.6,363.3,106.6"/>
<path class="st0" d="M358.6,106.6v2.2h-1.6v-2.2c0,0,0.1-0.6,0.7-0.6C358.5,106,358.6,106.6,358.6,106.6"/>
<path class="st0" d="M353.9,106.6v2.2h-1.6v-2.2c0,0,0.1-0.6,0.7-0.6C353.9,106,353.9,106.6,353.9,106.6"/>
<path class="st0" d="M356.3,106.6v2.2h-1.6v-2.2c0,0,0.1-0.6,0.7-0.6C356.2,106,356.3,106.6,356.3,106.6"/>
<rect x="375.8" y="104.4" class="st3" width="40.4" height="92.3"/>
<rect x="375.8" y="104.4" class="st6" width="40.4" height="92.3"/>
<path class="st6" d="M375.8,104.4"/>
<line class="st7" x1="410.5" y1="111.1" x2="410.5" y2="190.1"/>
<line class="st7" x1="404.7" y1="111.1" x2="404.7" y2="190.1"/>
<line class="st7" x1="398.9" y1="111.1" x2="398.9" y2="190.1"/>
<line class="st7" x1="393.2" y1="111.1" x2="393.2" y2="190.1"/>
<line class="st7" x1="387.4" y1="111.1" x2="387.4" y2="190.1"/>
<line class="st7" x1="381.7" y1="111.1" x2="381.7" y2="190.1"/>
<line class="st9" x1="375.8" y1="190.2" x2="416.1" y2="190.2"/>
<line class="st9" x1="375.8" y1="188.5" x2="416.1" y2="188.5"/>
<line class="st9" x1="375.8" y1="186.8" x2="416.1" y2="186.8"/>
<line class="st9" x1="375.8" y1="185" x2="416.1" y2="185"/>
<line class="st9" x1="375.8" y1="183.5" x2="416.1" y2="183.5"/>
<line class="st9" x1="375.8" y1="181.7" x2="416.1" y2="181.7"/>
<line class="st9" x1="375.8" y1="180" x2="416.1" y2="180"/>
<line class="st9" x1="375.8" y1="178.4" x2="416.1" y2="178.4"/>
<line class="st9" x1="375.8" y1="176.7" x2="416.1" y2="176.7"/>
<line class="st9" x1="375.8" y1="175" x2="416.1" y2="175"/>
<line class="st9" x1="375.8" y1="173.4" x2="416.1" y2="173.4"/>
<line class="st9" x1="375.8" y1="171.7" x2="416.1" y2="171.7"/>
<line class="st9" x1="375.8" y1="169.9" x2="416.1" y2="169.9"/>
<line class="st9" x1="375.8" y1="163.3" x2="416.1" y2="163.3"/>
<line class="st9" x1="375.8" y1="161.6" x2="416.1" y2="161.6"/>
<line class="st9" x1="375.8" y1="159.9" x2="416.1" y2="159.9"/>
<line class="st9" x1="375.8" y1="158.3" x2="416.1" y2="158.3"/>
<line class="st9" x1="375.8" y1="156.5" x2="416.1" y2="156.5"/>
<line class="st9" x1="375.8" y1="154.8" x2="416.1" y2="154.8"/>
<line class="st9" x1="375.8" y1="153.1" x2="416.1" y2="153.1"/>
<line class="st9" x1="375.8" y1="151.5" x2="416.1" y2="151.5"/>
<line class="st9" x1="375.8" y1="149.8" x2="416.1" y2="149.8"/>
<line class="st9" x1="375.8" y1="148.1" x2="416.1" y2="148.1"/>
<line class="st9" x1="375.8" y1="146.5" x2="416.1" y2="146.5"/>
<line class="st9" x1="375.8" y1="144.7" x2="416.1" y2="144.7"/>
<line class="st9" x1="375.8" y1="143" x2="416.1" y2="143"/>
<line class="st9" x1="375.8" y1="141.4" x2="416.1" y2="141.4"/>
<line class="st9" x1="375.8" y1="139.7" x2="416.1" y2="139.7"/>
<line class="st9" x1="375.8" y1="138" x2="416.1" y2="138"/>
<line class="st9" x1="375.8" y1="136.4" x2="416.1" y2="136.4"/>
<line class="st9" x1="375.8" y1="134.7" x2="416.1" y2="134.7"/>
<line class="st9" x1="375.8" y1="132.9" x2="416.1" y2="132.9"/>
<line class="st9" x1="375.8" y1="131.4" x2="416.1" y2="131.4"/>
<line class="st9" x1="375.8" y1="129.6" x2="416.1" y2="129.6"/>
<line class="st9" x1="375.8" y1="127.9" x2="416.1" y2="127.9"/>
<line class="st9" x1="375.8" y1="126.2" x2="416.1" y2="126.2"/>
<line class="st9" x1="375.8" y1="124.6" x2="416.1" y2="124.6"/>
<line class="st9" x1="375.8" y1="122.9" x2="416.1" y2="122.9"/>
<line class="st9" x1="375.8" y1="121.1" x2="416.1" y2="121.1"/>
<line class="st9" x1="375.8" y1="119.6" x2="416.1" y2="119.6"/>
<line class="st9" x1="375.8" y1="117.8" x2="416.1" y2="117.8"/>
<line class="st9" x1="375.8" y1="116.1" x2="416.1" y2="116.1"/>
<line class="st9" x1="375.8" y1="114.5" x2="416.1" y2="114.5"/>
<line class="st9" x1="375.8" y1="112.8" x2="416.1" y2="112.8"/>
<line class="st9" x1="375.8" y1="111.1" x2="416.1" y2="111.1"/>
<line class="st10" x1="414.5" y1="111.1" x2="414.5" y2="190.2"/>
<line class="st10" x1="412.5" y1="111.1" x2="412.5" y2="190.2"/>
<line class="st10" x1="408.7" y1="111.1" x2="408.7" y2="190.2"/>
<line class="st10" x1="406.7" y1="111.1" x2="406.7" y2="190.2"/>
<line class="st10" x1="403" y1="111.1" x2="403" y2="190.2"/>
<line class="st10" x1="401" y1="111.1" x2="401" y2="190.2"/>
<line class="st10" x1="397.2" y1="111.1" x2="397.2" y2="190.2"/>
<line class="st10" x1="395.2" y1="111.1" x2="395.2" y2="190.2"/>
<line class="st10" x1="391.5" y1="111.1" x2="391.5" y2="190.2"/>
<line class="st10" x1="389.4" y1="111.1" x2="389.4" y2="190.2"/>
<line class="st10" x1="385.6" y1="111.1" x2="385.6" y2="190.2"/>
<line class="st10" x1="383.7" y1="111.1" x2="383.7" y2="190.2"/>
<line class="st10" x1="379.8" y1="111.1" x2="379.8" y2="190.2"/>
<line class="st10" x1="377.9" y1="111.1" x2="377.9" y2="190.2"/>
<rect x="375.9" y="163.3" class="st3" width="40.3" height="6.5"/>
<polyline class="st3" points="462.7,197.4 462.7,143.5 454.4,143.5 454.4,133.1 453.2,133.1 453.2,128.8 451.9,128.8 451.9,110.2 
	433.1,110.2 433.1,128.8 431.8,128.8 431.8,133.1 430.6,133.1 430.6,143.5 422.3,143.5 422.3,197.4 462.7,197.4 "/>
<rect x="435.1" y="100.7" class="st3" width="15" height="12.8"/>
<path class="st0" d="M445.9,106.3c0,1.9-1.6,3.5-3.5,3.5s-3.5-1.6-3.5-3.5c0-1.9,1.6-3.5,3.5-3.5
	C444.4,102.9,445.9,104.4,445.9,106.3"/>
<path class="st3" d="M449.6,100.7v-1.4c0,0-0.6-0.3-0.7-0.7c0-0.1,0-3.6,0-3.6l-0.3-0.3v-0.7l-0.1-0.3v-1.3l-0.3-0.4l-0.3-0.7
	l-0.3,0.7l-0.3,0.4v1.2H447v-1.2l-0.4-0.4v-1l-0.4-1.3l-0.4,1.3v0.7h-0.4v-5.3c-0.1-0.1-0.1-0.3-0.4-0.4c-0.3-0.1-0.7-0.1-0.7-0.1
	v-2.2c0,0-0.3-0.3-0.4-0.4c-0.1-0.1-0.3-0.3-0.6-0.3c-0.1,0-0.3,0-0.4,0h-0.1c-0.1,0-0.3,0-0.4,0c-0.1,0-0.4,0.1-0.6,0.3
	c-0.1,0.1-0.4,0.4-0.4,0.4v2.2c0,0-0.3,0-0.7,0.1c-0.3,0.1-0.3,0.3-0.4,0.4v5.3h-0.4v-0.7l-0.4-1.3l-0.4,1.3v1l-0.4,0.4v1.2H438
	v-1.2l-0.3-0.4l-0.3-0.7l-0.3,0.7l-0.3,0.4v1.3l-0.3,0.3v0.7l-0.3,0.3c0,0,0,3.3,0,3.6c-0.1,0.3-0.7,0.7-0.7,0.7v1.4H449.6"/>
<path class="st6" d="M449.6,100.7v-1.4c0,0-0.6-0.3-0.7-0.7c0-0.1,0-3.6,0-3.6l-0.3-0.3v-0.7l-0.1-0.3v-1.3l-0.3-0.4l-0.3-0.7
	l-0.3,0.7l-0.3,0.4v1.2H447v-1.2l-0.4-0.4v-1l-0.4-1.3l-0.4,1.3v0.7h-0.4v-5.3c-0.1-0.1-0.1-0.3-0.4-0.4c-0.3-0.1-0.7-0.1-0.7-0.1
	v-2.2c0,0-0.3-0.3-0.4-0.4c-0.1-0.1-0.3-0.3-0.6-0.3c-0.1,0-0.3,0-0.4,0h-0.1c-0.1,0-0.3,0-0.4,0c-0.1,0-0.4,0.1-0.6,0.3
	c-0.1,0.1-0.4,0.4-0.4,0.4v2.2c0,0-0.3,0-0.7,0.1c-0.3,0.1-0.3,0.3-0.4,0.4v5.3h-0.4v-0.7l-0.4-1.3l-0.4,1.3v1l-0.4,0.4v1.2H438
	v-1.2l-0.3-0.4l-0.3-0.7l-0.3,0.7l-0.3,0.4v1.3l-0.3,0.3v0.7l-0.3,0.3c0,0,0,3.3,0,3.6c-0.1,0.3-0.7,0.7-0.7,0.7v1.4H449.6z"/>
<polyline class="st3" points="442.1,83.1 442.6,74.8 443,83.1 "/>
<polyline class="st6" points="442.1,83.1 442.6,74.8 443,83.1 "/>
<path class="st0" d="M438.8,100.3v-3.7c0,0,0.1-0.9,0.7-0.9s0.7,0.9,0.7,0.9v3.7H438.8"/>
<path class="st0" d="M441.7,100.3v-3.7c0,0,0.1-0.9,0.7-0.9s0.7,0.9,0.7,0.9v3.7H441.7"/>
<path class="st0" d="M444.4,100.3v-3.7c0,0,0.1-0.9,0.7-0.9s0.7,0.9,0.7,0.9v3.7H444.4"/>
<path class="st0" d="M441,91.5v-2.9c0,0,0.1-0.7,0.3-0.7c0.3,0,0.3,0.7,0.3,0.7v2.9H441"/>
<path class="st0" d="M443.3,91.5v-2.9c0,0,0.1-0.7,0.3-0.7c0.3,0,0.3,0.7,0.3,0.7v2.9H443.3"/>
<path class="st0" d="M442.1,91.2v-3c0,0,0.1-0.7,0.3-0.7c0.3,0,0.3,0.7,0.3,0.7v3H442.1"/>
<rect x="438.8" y="145.3" class="st0" width="1.4" height="2.6"/>
<rect x="438.8" y="141.3" class="st0" width="1.4" height="2.6"/>
<rect x="438.8" y="137.3" class="st0" width="1.4" height="2.6"/>
<rect x="438.8" y="133.2" class="st0" width="1.4" height="2.6"/>
<rect x="438.8" y="129.1" class="st0" width="1.4" height="2.6"/>
<rect x="438.8" y="125" class="st0" width="1.4" height="2.6"/>
<rect x="438.8" y="121" class="st0" width="1.4" height="2.6"/>
<rect x="438.8" y="116.8" class="st0" width="1.4" height="2.6"/>
<rect x="438.8" y="112.8" class="st0" width="1.4" height="2.6"/>
<rect x="441.7" y="145.3" class="st0" width="1.4" height="2.6"/>
<rect x="441.7" y="141.3" class="st0" width="1.4" height="2.6"/>
<rect x="441.7" y="137.3" class="st0" width="1.4" height="2.6"/>
<rect x="441.7" y="133.2" class="st0" width="1.4" height="2.6"/>
<rect x="441.7" y="129.1" class="st0" width="1.4" height="2.6"/>
<rect x="441.7" y="125" class="st0" width="1.4" height="2.6"/>
<rect x="441.7" y="121" class="st0" width="1.4" height="2.6"/>
<rect x="441.7" y="116.8" class="st0" width="1.4" height="2.6"/>
<rect x="441.7" y="112.8" class="st0" width="1.4" height="2.6"/>
<rect x="444.4" y="145.3" class="st0" width="1.4" height="2.6"/>
<rect x="444.4" y="141.3" class="st0" width="1.4" height="2.6"/>
<rect x="444.4" y="137.3" class="st0" width="1.4" height="2.6"/>
<rect x="444.4" y="133.2" class="st0" width="1.4" height="2.6"/>
<rect x="444.4" y="129.1" class="st0" width="1.4" height="2.6"/>
<rect x="444.4" y="125" class="st0" width="1.4" height="2.6"/>
<rect x="444.4" y="121" class="st0" width="1.4" height="2.6"/>
<rect x="444.4" y="116.8" class="st0" width="1.4" height="2.6"/>
<rect x="444.4" y="112.8" class="st0" width="1.4" height="2.6"/>
<path class="st3" d="M467.3,109.1c0,0,0.1-0.4,0.3-0.6c0.1-0.1,0.4-0.4,1.2-0.4c0.9,0,1.3,0.7,1.3,0.9c0,0.3,0,0.9,0,0.9l2,0.4V103
	l0.7-1.2l0.6,1.2v1.2l0.4-0.3V99l0.7-1.3l0.7,1.4v0.6l0.9-0.4v-1.7l0.4-0.4l0.4,0.4v1.3h0.3v-0.7h0.3c0,0,0-1,0-1.3l0.1-0.1
	c0.1,0,0.4,0,0.6,0c0.1,0,0.1,0.1,0.1,0.1c0,0.3,0,1.2,0,1.2h0.6c0,0,0-0.9,0-1.2c0-0.1,0.1-0.1,0.1-0.1c0.1,0,0.4,0,0.6,0l0.1,0.1
	c0,0.3,0,1.3,0,1.3h0.3v0.7h0.3v-1.3l0.4-0.4l0.4,0.4v1.7l0.9,0.4v-0.6l0.7-1.4l0.7,1.3v4.9l0.4,0.3V103l0.6-1.2l0.7,1.2v7.2l2-0.4
	c0,0,0-0.7,0-0.9c0,0,0.4-0.9,1.3-0.9c0.7,0,1,0.3,1.2,0.4c0.1,0.1,0.3,0.6,0.3,0.6v31.1h4v-2.9l0.4-1l0.4,0.9v1.6h2.3v-1.9l0.7-1.9
	l0.7,1.9v1.7v58.9h-30.9L467.3,109.1"/>
<path class="st3" d="M479.3,98.4c0,0,0-1.9,0-2.3c0-0.1-0.1-0.3-0.3-0.3c-0.1,0-0.7-0.1-0.9,0c-0.1,0-0.3,0.3-0.3,0.3
	c0,0.6,0,2.3,0,2.3H479.3"/>
<path class="st0" d="M479.7,114.7c0,0,0-4.2,0-5.5c0-0.3-0.4-0.7-1.2-0.7c-0.6,0-1.2,0.4-1.2,0.7c0,1.3,0,5.5,0,5.5H479.7"/>
<path class="st0" d="M471.6,114.8c0,0,0-2.3,0-2.9c0-0.1-0.3-0.7-0.9-0.7c-0.4,0-0.9,0.4-0.9,0.7c0,0.6,0,2.4,0,2.4L471.6,114.8"/>
<path class="st0" d="M485.3,114.8c0,0,0-2.3,0-2.9c0-0.1,0.3-0.7,0.9-0.7c0.4,0,0.9,0.4,0.9,0.7c0,0.6,0,2.4,0,2.4L485.3,114.8"/>
<line class="st5" x1="478.5" y1="108.5" x2="478.5" y2="114.7"/>
<line class="st5" x1="477.1" y1="109.9" x2="479.7" y2="109.9"/>
<line class="st5" x1="477.4" y1="112.1" x2="479.8" y2="112.1"/>
<line class="st5" x1="495.8" y1="140" x2="495.8" y2="146.6"/>
<line class="st5" x1="494.7" y1="141.9" x2="497" y2="141.9"/>
<line class="st5" x1="494.4" y1="144" x2="497.1" y2="144"/>
<line class="st5" x1="494.7" y1="146.5" x2="497" y2="146.5"/>
<path class="st0" d="M479.7,195.6c0,0,0-74.3,0-75.6c0-0.3-0.4-0.7-1.2-0.7c-0.6,0-1.2,0.4-1.2,0.7c0,1.3,0,75.6,0,75.6H479.7"/>
<line class="st5" x1="478.5" y1="119" x2="478.5" y2="196.3"/>
<line class="st5" x1="477.2" y1="120.9" x2="479.7" y2="120.9"/>
<line class="st5" x1="477.1" y1="123" x2="479.8" y2="123"/>
<line class="st5" x1="477.4" y1="192.4" x2="479.7" y2="192.4"/>
<line class="st5" x1="477.4" y1="189.9" x2="479.7" y2="189.9"/>
<line class="st5" x1="477.4" y1="187.3" x2="479.7" y2="187.3"/>
<line class="st5" x1="477.4" y1="184.9" x2="479.7" y2="184.9"/>
<line class="st5" x1="477.4" y1="182.5" x2="479.7" y2="182.5"/>
<line class="st5" x1="477.4" y1="180" x2="479.7" y2="180"/>
<line class="st5" x1="477.4" y1="177.4" x2="479.7" y2="177.4"/>
<line class="st5" x1="477.4" y1="175" x2="479.7" y2="175"/>
<line class="st5" x1="477.4" y1="172.5" x2="479.7" y2="172.5"/>
<line class="st5" x1="477.4" y1="169.9" x2="479.7" y2="169.9"/>
<line class="st5" x1="477.4" y1="167.5" x2="479.7" y2="167.5"/>
<line class="st5" x1="477.4" y1="165" x2="479.7" y2="165"/>
<line class="st5" x1="477.4" y1="162.4" x2="479.7" y2="162.4"/>
<line class="st5" x1="477.4" y1="160" x2="479.7" y2="160"/>
<line class="st5" x1="477.4" y1="157.6" x2="479.7" y2="157.6"/>
<line class="st5" x1="477.4" y1="155.1" x2="479.7" y2="155.1"/>
<line class="st5" x1="477.4" y1="152.5" x2="479.7" y2="152.5"/>
<line class="st5" x1="477.4" y1="150.1" x2="479.7" y2="150.1"/>
<line class="st5" x1="477.4" y1="147.6" x2="479.7" y2="147.6"/>
<line class="st5" x1="477.4" y1="145" x2="479.7" y2="145"/>
<line class="st5" x1="477.4" y1="142.6" x2="479.7" y2="142.6"/>
<line class="st5" x1="477.4" y1="140.1" x2="479.7" y2="140.1"/>
<line class="st5" x1="477.4" y1="137.7" x2="479.7" y2="137.7"/>
<line class="st5" x1="477.4" y1="135.1" x2="479.7" y2="135.1"/>
<line class="st5" x1="477.4" y1="132.7" x2="479.7" y2="132.7"/>
<line class="st5" x1="477.4" y1="130.2" x2="479.7" y2="130.2"/>
<line class="st5" x1="477.4" y1="127.6" x2="479.7" y2="127.6"/>
<line class="st5" x1="477.4" y1="125.2" x2="479.7" y2="125.2"/>
<path class="st0" d="M476.1,195.6c0,0,0-74.3,0-75.6c0-0.3-0.4-0.7-1.2-0.7c-0.6,0-1.2,0.4-1.2,0.7c0,1.3,0,75.6,0,75.6H476.1"/>
<line class="st5" x1="474.9" y1="119" x2="474.9" y2="196.3"/>
<line class="st5" x1="473.6" y1="120.9" x2="476.1" y2="120.9"/>
<line class="st5" x1="473.4" y1="123" x2="476.2" y2="123"/>
<line class="st5" x1="473.6" y1="192.2" x2="476.1" y2="192.2"/>
<line class="st5" x1="473.6" y1="189.8" x2="476.1" y2="189.8"/>
<line class="st5" x1="473.6" y1="187.3" x2="476.1" y2="187.3"/>
<line class="st5" x1="473.6" y1="184.9" x2="476.1" y2="184.9"/>
<line class="st5" x1="473.6" y1="182.3" x2="476.1" y2="182.3"/>
<line class="st5" x1="473.6" y1="179.9" x2="476.1" y2="179.9"/>
<line class="st5" x1="473.6" y1="177.4" x2="476.1" y2="177.4"/>
<line class="st5" x1="473.6" y1="174.8" x2="476.1" y2="174.8"/>
<line class="st5" x1="473.6" y1="172.4" x2="476.1" y2="172.4"/>
<line class="st5" x1="473.6" y1="169.9" x2="476.1" y2="169.9"/>
<line class="st5" x1="473.6" y1="167.3" x2="476.1" y2="167.3"/>
<line class="st5" x1="473.6" y1="164.9" x2="476.1" y2="164.9"/>
<line class="st5" x1="473.6" y1="162.4" x2="476.1" y2="162.4"/>
<line class="st5" x1="473.6" y1="160" x2="476.1" y2="160"/>
<line class="st5" x1="473.6" y1="157.4" x2="476.1" y2="157.4"/>
<line class="st5" x1="473.6" y1="155" x2="476.1" y2="155"/>
<line class="st5" x1="473.6" y1="152.5" x2="476.1" y2="152.5"/>
<line class="st5" x1="473.6" y1="149.9" x2="476.1" y2="149.9"/>
<line class="st5" x1="473.6" y1="147.5" x2="476.1" y2="147.5"/>
<line class="st5" x1="473.6" y1="145" x2="476.1" y2="145"/>
<line class="st5" x1="473.6" y1="142.6" x2="476.1" y2="142.6"/>
<line class="st5" x1="473.6" y1="140" x2="476.1" y2="140"/>
<line class="st5" x1="473.6" y1="137.5" x2="476.1" y2="137.5"/>
<line class="st5" x1="473.6" y1="135.1" x2="476.1" y2="135.1"/>
<line class="st5" x1="473.6" y1="132.5" x2="476.1" y2="132.5"/>
<line class="st5" x1="473.6" y1="130.1" x2="476.1" y2="130.1"/>
<line class="st5" x1="473.6" y1="127.6" x2="476.1" y2="127.6"/>
<line class="st5" x1="473.6" y1="125" x2="476.1" y2="125"/>
<path class="st0" d="M483.1,195.7c0,0,0-74.3,0-75.6c0-0.3-0.4-0.7-1.2-0.7c-0.6,0-1.2,0.4-1.2,0.7c0,1.3,0,75.6,0,75.6H483.1"/>
<line class="st5" x1="482.1" y1="119.1" x2="482.1" y2="197.1"/>
<line class="st5" x1="480.8" y1="120.9" x2="483.3" y2="120.9"/>
<line class="st5" x1="480.6" y1="123" x2="483.3" y2="123"/>
<line class="st5" x1="480.8" y1="192.4" x2="483.3" y2="192.4"/>
<line class="st5" x1="480.8" y1="189.9" x2="483.3" y2="189.9"/>
<line class="st5" x1="480.8" y1="187.5" x2="483.3" y2="187.5"/>
<line class="st5" x1="480.8" y1="184.9" x2="483.3" y2="184.9"/>
<line class="st5" x1="480.8" y1="182.5" x2="483.3" y2="182.5"/>
<line class="st5" x1="480.8" y1="180" x2="483.3" y2="180"/>
<line class="st5" x1="480.8" y1="177.4" x2="483.3" y2="177.4"/>
<line class="st5" x1="480.8" y1="175" x2="483.3" y2="175"/>
<line class="st5" x1="480.8" y1="172.5" x2="483.3" y2="172.5"/>
<line class="st5" x1="480.8" y1="170.1" x2="483.3" y2="170.1"/>
<line class="st5" x1="480.8" y1="167.5" x2="483.3" y2="167.5"/>
<line class="st5" x1="480.8" y1="165" x2="483.3" y2="165"/>
<line class="st5" x1="480.8" y1="162.6" x2="483.3" y2="162.6"/>
<line class="st5" x1="480.8" y1="160" x2="483.3" y2="160"/>
<line class="st5" x1="480.8" y1="157.6" x2="483.3" y2="157.6"/>
<line class="st5" x1="480.8" y1="155.1" x2="483.3" y2="155.1"/>
<line class="st5" x1="480.8" y1="152.7" x2="483.3" y2="152.7"/>
<line class="st5" x1="480.8" y1="150.1" x2="483.3" y2="150.1"/>
<line class="st5" x1="480.8" y1="147.6" x2="483.3" y2="147.6"/>
<line class="st5" x1="480.8" y1="145.2" x2="483.3" y2="145.2"/>
<line class="st5" x1="480.8" y1="142.6" x2="483.3" y2="142.6"/>
<line class="st5" x1="480.8" y1="140.1" x2="483.3" y2="140.1"/>
<line class="st5" x1="480.8" y1="137.7" x2="483.3" y2="137.7"/>
<line class="st5" x1="480.8" y1="135.1" x2="483.3" y2="135.1"/>
<line class="st5" x1="480.8" y1="132.7" x2="483.3" y2="132.7"/>
<line class="st5" x1="480.8" y1="130.2" x2="483.3" y2="130.2"/>
<line class="st5" x1="480.8" y1="127.8" x2="483.3" y2="127.8"/>
<line class="st5" x1="480.8" y1="125.2" x2="483.3" y2="125.2"/>
<path class="st0" d="M488,195.7c0,0,0-72.4,0-73.8c0-0.3-0.4-0.7-1.2-0.7c-0.6,0-1.2,0.4-1.2,0.7c0,1.3,0,73.8,0,73.8H488"/>
<line class="st5" x1="486.9" y1="120.9" x2="486.9" y2="196"/>
<line class="st5" x1="485.6" y1="122.7" x2="488" y2="122.7"/>
<line class="st5" x1="485.5" y1="124.9" x2="488.2" y2="124.9"/>
<line class="st5" x1="485.7" y1="191.7" x2="488" y2="191.7"/>
<line class="st5" x1="485.7" y1="189.2" x2="488" y2="189.2"/>
<line class="st5" x1="485.7" y1="186.8" x2="488" y2="186.8"/>
<line class="st5" x1="485.7" y1="184.2" x2="488" y2="184.2"/>
<line class="st5" x1="485.7" y1="181.7" x2="488" y2="181.7"/>
<line class="st5" x1="485.7" y1="179.3" x2="488" y2="179.3"/>
<line class="st5" x1="485.7" y1="176.7" x2="488" y2="176.7"/>
<line class="st5" x1="485.7" y1="174.3" x2="488" y2="174.3"/>
<line class="st5" x1="485.7" y1="171.8" x2="488" y2="171.8"/>
<line class="st5" x1="485.7" y1="169.4" x2="488" y2="169.4"/>
<line class="st5" x1="485.7" y1="166.8" x2="488" y2="166.8"/>
<line class="st5" x1="485.7" y1="164.3" x2="488" y2="164.3"/>
<line class="st5" x1="485.7" y1="161.9" x2="488" y2="161.9"/>
<line class="st5" x1="485.7" y1="159.3" x2="488" y2="159.3"/>
<line class="st5" x1="485.7" y1="156.8" x2="488" y2="156.8"/>
<line class="st5" x1="485.7" y1="154.4" x2="488" y2="154.4"/>
<line class="st5" x1="485.7" y1="151.9" x2="488" y2="151.9"/>
<line class="st5" x1="485.7" y1="149.4" x2="488" y2="149.4"/>
<line class="st5" x1="485.7" y1="146.9" x2="488" y2="146.9"/>
<line class="st5" x1="485.7" y1="144.5" x2="488" y2="144.5"/>
<line class="st5" x1="485.7" y1="141.9" x2="488" y2="141.9"/>
<line class="st5" x1="485.7" y1="139.4" x2="488" y2="139.4"/>
<line class="st5" x1="485.7" y1="137" x2="488" y2="137"/>
<line class="st5" x1="485.7" y1="134.4" x2="488" y2="134.4"/>
<line class="st5" x1="485.7" y1="131.9" x2="488" y2="131.9"/>
<line class="st5" x1="485.7" y1="129.5" x2="488" y2="129.5"/>
<line class="st5" x1="485.7" y1="127" x2="488" y2="127"/>
<path class="st0" d="M471.9,195.6c0,0,0-72.4,0-73.8c0-0.3-0.4-0.7-1.2-0.7c-0.6,0-1.2,0.4-1.2,0.7c0,1.3,0,73.8,0,73.8H471.9"/>
<line class="st5" x1="470.8" y1="120.7" x2="470.8" y2="196.3"/>
<line class="st5" x1="469.5" y1="122.6" x2="471.9" y2="122.6"/>
<line class="st5" x1="469.3" y1="124.7" x2="472.1" y2="124.7"/>
<line class="st5" x1="469.6" y1="191.7" x2="471.9" y2="191.7"/>
<line class="st5" x1="469.6" y1="189.1" x2="471.9" y2="189.1"/>
<line class="st5" x1="469.6" y1="186.6" x2="471.9" y2="186.6"/>
<line class="st5" x1="469.6" y1="184.2" x2="471.9" y2="184.2"/>
<line class="st5" x1="469.6" y1="181.7" x2="471.9" y2="181.7"/>
<line class="st5" x1="469.6" y1="179.1" x2="471.9" y2="179.1"/>
<line class="st5" x1="469.6" y1="176.7" x2="471.9" y2="176.7"/>
<line class="st5" x1="469.6" y1="174.3" x2="471.9" y2="174.3"/>
<line class="st5" x1="469.6" y1="171.7" x2="471.9" y2="171.7"/>
<line class="st5" x1="469.6" y1="169.2" x2="471.9" y2="169.2"/>
<line class="st5" x1="469.6" y1="166.8" x2="471.9" y2="166.8"/>
<line class="st5" x1="469.6" y1="164.2" x2="471.9" y2="164.2"/>
<line class="st5" x1="469.6" y1="161.7" x2="471.9" y2="161.7"/>
<line class="st5" x1="469.6" y1="159.3" x2="471.9" y2="159.3"/>
<line class="st5" x1="469.6" y1="156.8" x2="471.9" y2="156.8"/>
<line class="st5" x1="469.6" y1="154.2" x2="471.9" y2="154.2"/>
<line class="st5" x1="469.6" y1="151.8" x2="471.9" y2="151.8"/>
<line class="st5" x1="469.6" y1="149.4" x2="471.9" y2="149.4"/>
<line class="st5" x1="469.6" y1="146.8" x2="471.9" y2="146.8"/>
<line class="st5" x1="469.6" y1="144.3" x2="471.9" y2="144.3"/>
<line class="st5" x1="469.6" y1="141.9" x2="471.9" y2="141.9"/>
<line class="st5" x1="469.6" y1="139.4" x2="471.9" y2="139.4"/>
<line class="st5" x1="469.6" y1="136.8" x2="471.9" y2="136.8"/>
<line class="st5" x1="469.6" y1="134.4" x2="471.9" y2="134.4"/>
<line class="st5" x1="469.6" y1="131.9" x2="471.9" y2="131.9"/>
<line class="st5" x1="469.6" y1="129.3" x2="471.9" y2="129.3"/>
<line class="st5" x1="469.6" y1="126.9" x2="471.9" y2="126.9"/>
<path class="st0" d="M479.3,102.7c0,0,0-1.3,0-1.7c0-0.3-0.3-0.7-0.7-0.7s-0.7,0.4-0.7,0.7c0,0.4,0,1.7,0,1.7H479.3"/>
<path class="st0" d="M497,195.7c0,0,0-53.4,0-54.7c0-0.3-0.4-0.7-1.2-0.7c-0.6,0-1.2,0.4-1.2,0.7c0,1.3,0,54.7,0,54.7H497"/>
<line class="st5" x1="495.8" y1="140" x2="495.8" y2="196"/>
<line class="st5" x1="494.5" y1="141.9" x2="497" y2="141.9"/>
<line class="st5" x1="494.4" y1="144" x2="497.1" y2="144"/>
<line class="st5" x1="494.5" y1="193.4" x2="497" y2="193.4"/>
<line class="st5" x1="494.5" y1="190.9" x2="497" y2="190.9"/>
<line class="st5" x1="494.5" y1="188.5" x2="497" y2="188.5"/>
<line class="st5" x1="494.5" y1="185.9" x2="497" y2="185.9"/>
<line class="st5" x1="494.5" y1="183.5" x2="497" y2="183.5"/>
<line class="st5" x1="494.5" y1="181" x2="497" y2="181"/>
<line class="st5" x1="494.5" y1="178.4" x2="497" y2="178.4"/>
<line class="st5" x1="494.5" y1="176" x2="497" y2="176"/>
<line class="st5" x1="494.5" y1="173.5" x2="497" y2="173.5"/>
<line class="st5" x1="494.5" y1="170.9" x2="497" y2="170.9"/>
<line class="st5" x1="494.5" y1="168.5" x2="497" y2="168.5"/>
<line class="st5" x1="494.5" y1="166" x2="497" y2="166"/>
<line class="st5" x1="494.5" y1="163.6" x2="497" y2="163.6"/>
<line class="st5" x1="494.5" y1="161" x2="497" y2="161"/>
<line class="st5" x1="494.5" y1="158.6" x2="497" y2="158.6"/>
<line class="st5" x1="494.5" y1="156.1" x2="497" y2="156.1"/>
<line class="st5" x1="494.5" y1="153.5" x2="497" y2="153.5"/>
<line class="st5" x1="494.5" y1="151.1" x2="497" y2="151.1"/>
<line class="st5" x1="494.5" y1="148.6" x2="497" y2="148.6"/>
<line class="st5" x1="494.5" y1="146.2" x2="497" y2="146.2"/>
<rect x="268.4" y="171.4" class="st0" width="1.3" height="25.6"/>
<rect x="270.4" y="171.4" class="st0" width="1.3" height="25.6"/>
<rect x="287.7" y="171.4" class="st0" width="1.3" height="25.6"/>
<rect x="289.7" y="171.4" class="st0" width="1.3" height="25.6"/>
<rect x="291" y="167.9" class="st0" width="1" height="1.9"/>
<rect x="291" y="167.9" class="st6" width="1" height="1.9"/>
<path class="st6" d="M292,169.9"/>
<rect x="289.1" y="167.9" class="st0" width="1" height="1.9"/>
<rect x="289.1" y="167.9" class="st6" width="1" height="1.9"/>
<path class="st6" d="M290.1,169.9"/>
<rect x="287.3" y="167.9" class="st0" width="1" height="1.9"/>
<rect x="287.3" y="167.9" class="st6" width="1" height="1.9"/>
<path class="st6" d="M288.3,169.9"/>
<rect x="285.5" y="167.9" class="st0" width="1" height="1.9"/>
<rect x="285.5" y="167.9" class="st6" width="1" height="1.9"/>
<path class="st6" d="M286.4,169.9"/>
<rect x="283.7" y="167.9" class="st0" width="1" height="1.9"/>
<rect x="283.7" y="167.9" class="st6" width="1" height="1.9"/>
<path class="st6" d="M284.7,169.9"/>
<rect x="281.8" y="167.9" class="st0" width="1" height="1.9"/>
<rect x="281.8" y="167.9" class="st6" width="1" height="1.9"/>
<path class="st6" d="M282.8,169.9"/>
<rect x="279.9" y="167.9" class="st0" width="1" height="1.9"/>
<rect x="279.9" y="167.9" class="st6" width="1" height="1.9"/>
<path class="st6" d="M280.9,169.9"/>
<rect x="278" y="167.9" class="st0" width="1" height="1.9"/>
<rect x="278" y="167.9" class="st6" width="1" height="1.9"/>
<path class="st6" d="M279.1,169.9"/>
<rect x="276.3" y="167.9" class="st0" width="1" height="1.9"/>
<rect x="276.3" y="167.9" class="st6" width="1" height="1.9"/>
<path class="st6" d="M277.3,169.9"/>
<rect x="274.4" y="167.9" class="st0" width="1" height="1.9"/>
<rect x="274.4" y="167.9" class="st6" width="1" height="1.9"/>
<path class="st6" d="M275.5,169.9"/>
<rect x="272.6" y="167.9" class="st0" width="1" height="1.9"/>
<rect x="272.6" y="167.9" class="st6" width="1" height="1.9"/>
<path class="st6" d="M273.6,169.9"/>
<rect x="270.7" y="167.9" class="st0" width="1" height="1.9"/>
<rect x="270.7" y="167.9" class="st6" width="1" height="1.9"/>
<path class="st6" d="M271.7,169.9"/>
<rect x="268.8" y="167.9" class="st0" width="1" height="1.9"/>
<rect x="268.8" y="167.9" class="st6" width="1" height="1.9"/>
<path class="st6" d="M269.8,169.9"/>
<rect x="267.1" y="167.9" class="st0" width="1" height="1.9"/>
<rect x="267.1" y="167.9" class="st6" width="1" height="1.9"/>
<path class="st6" d="M268.1,169.9"/>
<rect x="438.8" y="182" class="st0" width="1.4" height="2.6"/>
<rect x="438.8" y="178" class="st0" width="1.4" height="2.6"/>
<rect x="438.8" y="174" class="st0" width="1.4" height="2.6"/>
<rect x="438.8" y="169.8" class="st0" width="1.4" height="2.6"/>
<rect x="438.8" y="165.8" class="st0" width="1.4" height="2.6"/>
<rect x="438.8" y="161.7" class="st0" width="1.4" height="2.6"/>
<rect x="438.8" y="157.6" class="st0" width="1.4" height="2.6"/>
<rect x="438.8" y="153.5" class="st0" width="1.4" height="2.6"/>
<rect x="438.8" y="149.5" class="st0" width="1.4" height="2.6"/>
<rect x="441.7" y="182" class="st0" width="1.4" height="2.6"/>
<rect x="441.7" y="178" class="st0" width="1.4" height="2.6"/>
<rect x="441.7" y="174" class="st0" width="1.4" height="2.6"/>
<rect x="441.7" y="169.8" class="st0" width="1.4" height="2.6"/>
<rect x="441.7" y="165.8" class="st0" width="1.4" height="2.6"/>
<rect x="441.7" y="161.7" class="st0" width="1.4" height="2.6"/>
<rect x="441.7" y="157.6" class="st0" width="1.4" height="2.6"/>
<rect x="441.7" y="153.5" class="st0" width="1.4" height="2.6"/>
<rect x="441.7" y="149.5" class="st0" width="1.4" height="2.6"/>
<rect x="444.4" y="182" class="st0" width="1.4" height="2.6"/>
<rect x="444.4" y="178" class="st0" width="1.4" height="2.6"/>
<rect x="444.4" y="174" class="st0" width="1.4" height="2.6"/>
<rect x="444.4" y="169.8" class="st0" width="1.4" height="2.6"/>
<rect x="438.8" y="194.3" class="st0" width="1.4" height="2.6"/>
<rect x="438.8" y="190.2" class="st0" width="1.4" height="2.6"/>
<rect x="438.8" y="186.2" class="st0" width="1.4" height="2.6"/>
<rect x="441.7" y="194.3" class="st0" width="1.4" height="2.6"/>
<rect x="441.7" y="190.2" class="st0" width="1.4" height="2.6"/>
<rect x="441.7" y="186.2" class="st0" width="1.4" height="2.6"/>
<rect x="444.4" y="194.3" class="st0" width="1.4" height="2.6"/>
<rect x="444.4" y="190.2" class="st0" width="1.4" height="2.6"/>
<rect x="444.4" y="186.2" class="st0" width="1.4" height="2.6"/>
<rect x="444.4" y="165.8" class="st0" width="1.4" height="2.6"/>
<rect x="444.4" y="161.7" class="st0" width="1.4" height="2.6"/>
<rect x="444.4" y="157.6" class="st0" width="1.4" height="2.6"/>
<rect x="444.4" y="153.5" class="st0" width="1.4" height="2.6"/>
<rect x="444.4" y="149.5" class="st0" width="1.4" height="2.6"/>
<polyline class="st3" points="339.1,197 339.1,191.1 334.8,191.1 334.8,122.3 328.6,122.3 328.6,94.5 327.7,94.5 327.7,92.4 
	324.4,92.4 324.4,94.2 323.8,94.2 323.8,95.2 323.2,95.2 323.2,88.3 313.6,88.3 313.6,95.2 313,95.2 313,94.2 312.4,94.2 
	312.4,92.4 309,92.4 309,94.5 308.1,94.5 308.1,122.3 302.1,122.3 302.1,191.1 297.8,191.1 297.8,197 339.1,197 "/>
<rect x="314.5" y="89.2" class="st0" width="7.8" height="8.9"/>
<rect x="316.6" y="93.8" class="st3" width="3.5" height="5.9"/>
<rect x="314.3" y="101.1" class="st0" width="0.7" height="91"/>
<rect x="315.6" y="101.1" class="st0" width="0.7" height="91"/>
<rect x="320.7" y="101.1" class="st0" width="0.7" height="91"/>
<rect x="321.9" y="101.1" class="st0" width="0.7" height="91"/>
<rect x="317.2" y="101.9" class="st0" width="2.6" height="0.6"/>
<rect x="317.2" y="103.3" class="st0" width="2.6" height="0.6"/>
<rect x="317.2" y="104.6" class="st0" width="2.6" height="0.6"/>
<rect x="317.2" y="105.9" class="st0" width="2.6" height="0.6"/>
<rect x="317.2" y="107.2" class="st0" width="2.6" height="0.6"/>
<rect x="317.2" y="108.6" class="st0" width="2.6" height="0.6"/>
<rect x="317.2" y="109.9" class="st0" width="2.6" height="0.6"/>
<rect x="317.2" y="111.2" class="st0" width="2.6" height="0.6"/>
<rect x="317.2" y="112.6" class="st0" width="2.6" height="0.6"/>
<rect x="317.2" y="113.9" class="st0" width="2.6" height="0.6"/>
<rect x="317.2" y="115.2" class="st0" width="2.6" height="0.6"/>
<rect x="317.2" y="116.5" class="st0" width="2.6" height="0.6"/>
<rect x="317.2" y="118" class="st0" width="2.6" height="0.6"/>
<rect x="317.2" y="119.3" class="st0" width="2.6" height="0.6"/>
<rect x="317.2" y="120.6" class="st0" width="2.6" height="0.6"/>
<rect x="317.2" y="122" class="st0" width="2.6" height="0.6"/>
<rect x="317.2" y="123.3" class="st0" width="2.6" height="0.6"/>
<rect x="317.2" y="124.6" class="st0" width="2.6" height="0.6"/>
<rect x="317.2" y="125.9" class="st0" width="2.6" height="0.6"/>
<rect x="317.2" y="127.3" class="st0" width="2.6" height="0.6"/>
<rect x="317.2" y="128.6" class="st0" width="2.6" height="0.6"/>
<rect x="317.2" y="129.9" class="st0" width="2.6" height="0.6"/>
<rect x="317.2" y="131.4" class="st0" width="2.6" height="0.6"/>
<rect x="317.2" y="132.7" class="st0" width="2.6" height="0.6"/>
<rect x="317.2" y="134" class="st0" width="2.6" height="0.6"/>
<rect x="317.2" y="135.4" class="st0" width="2.6" height="0.6"/>
<rect x="317.2" y="136.7" class="st0" width="2.6" height="0.6"/>
<rect x="317.2" y="138" class="st0" width="2.6" height="0.6"/>
<rect x="317.2" y="139.3" class="st0" width="2.6" height="0.6"/>
<rect x="317.2" y="140.7" class="st0" width="2.6" height="0.6"/>
<rect x="317.2" y="142" class="st0" width="2.6" height="0.6"/>
<rect x="317.2" y="143.3" class="st0" width="2.6" height="0.6"/>
<rect x="317.2" y="144.7" class="st0" width="2.6" height="0.6"/>
<rect x="317.2" y="146" class="st0" width="2.6" height="0.6"/>
<rect x="317.2" y="147.3" class="st0" width="2.6" height="0.6"/>
<rect x="317.2" y="148.6" class="st0" width="2.6" height="0.6"/>
<rect x="317.2" y="150.1" class="st0" width="2.6" height="0.6"/>
<rect x="317.2" y="151.4" class="st0" width="2.6" height="0.6"/>
<rect x="317.2" y="152.7" class="st0" width="2.6" height="0.6"/>
<rect x="317.2" y="154.1" class="st0" width="2.6" height="0.6"/>
<rect x="317.2" y="155.4" class="st0" width="2.6" height="0.6"/>
<rect x="317.2" y="156.7" class="st0" width="2.6" height="0.6"/>
<rect x="317.2" y="158" class="st0" width="2.6" height="0.6"/>
<rect x="317.2" y="159.4" class="st0" width="2.6" height="0.6"/>
<rect x="317.2" y="160.7" class="st0" width="2.6" height="0.6"/>
<rect x="317.2" y="162" class="st0" width="2.6" height="0.6"/>
<rect x="317.2" y="163.5" class="st0" width="2.6" height="0.6"/>
<rect x="317.2" y="164.8" class="st0" width="2.6" height="0.6"/>
<rect x="317.2" y="166" class="st0" width="2.6" height="0.6"/>
<rect x="317.2" y="167.3" class="st0" width="2.6" height="0.6"/>
<rect x="317.2" y="168.8" class="st0" width="2.6" height="0.6"/>
<rect x="317.2" y="170.1" class="st0" width="2.6" height="0.6"/>
<rect x="317.2" y="171.4" class="st0" width="2.6" height="0.6"/>
<rect x="317.2" y="172.8" class="st0" width="2.6" height="0.6"/>
<rect x="317.2" y="174.1" class="st0" width="2.6" height="0.6"/>
<rect x="317.2" y="175.4" class="st0" width="2.6" height="0.6"/>
<rect x="317.2" y="176.8" class="st0" width="2.6" height="0.6"/>
<rect x="317.2" y="178.1" class="st0" width="2.6" height="0.6"/>
<rect x="317.2" y="179.4" class="st0" width="2.6" height="0.6"/>
<rect x="317.2" y="180.7" class="st0" width="2.6" height="0.6"/>
<rect x="317.2" y="182.2" class="st0" width="2.6" height="0.6"/>
<rect x="317.2" y="183.5" class="st0" width="2.6" height="0.6"/>
<rect x="317.2" y="184.8" class="st0" width="2.6" height="0.6"/>
<rect x="317.2" y="186.2" class="st0" width="2.6" height="0.6"/>
<rect x="317.2" y="187.5" class="st0" width="2.6" height="0.6"/>
<rect x="317.2" y="188.8" class="st0" width="2.6" height="0.6"/>
<rect x="317.2" y="190.1" class="st0" width="2.6" height="0.6"/>
<rect x="317.2" y="191.5" class="st0" width="2.6" height="0.6"/>
<line class="st6" x1="321.5" y1="88.8" x2="321.5" y2="99"/>
<line class="st6" x1="320.4" y1="88.8" x2="320.4" y2="99"/>
<line class="st6" x1="319.4" y1="88.8" x2="319.4" y2="99"/>
<line class="st6" x1="318.2" y1="88.8" x2="318.2" y2="99"/>
<line class="st6" x1="317.2" y1="88.8" x2="317.2" y2="99"/>
<line class="st6" x1="316" y1="88.8" x2="316" y2="99"/>
<line class="st6" x1="315" y1="88.8" x2="315" y2="99"/>
<path class="st3" d="M425.3,54.1h-6.2l-2.4-6.6h-11.4l-2.3,6.6h-6L408,25h6L425.3,54.1 M414.2,42.6l-3.5-9.5l-3.5,9.5H414.2z"/>
<path class="st3" d="M284.1,45.6c-1.6,1.4-4.6,2.4-6.9,2.4c-4.9,0-8.8-4-8.8-8.8c0-4.7,4-8.5,8.9-8.5c2.3,0,5.2,0.9,6.8,2.2l4-3.9
	c-2.7-2.4-6.6-4-10.7-4c-8.5,0-15.1,6.3-15.1,14.5s6.9,14.7,15.4,14.7c4,0,8.3-1.9,11.1-4.3L284.1,45.6"/>
<polyline class="st3" points="321.5,40.8 321.5,54.2 327.3,54.2 327.3,25 321.5,25 321.5,35.4 307.1,35.4 307.1,25 301.4,25 
	301.4,54.2 307.1,54.2 307.1,40.8 321.5,40.8 "/>
<rect x="342.8" y="25" class="st3" width="5.9" height="29.2"/>
<path class="st3" d="M385.7,45.7c-1.6,1.4-4.6,2.4-6.9,2.4c-4.9,0-8.8-4-8.8-8.8c0-4.7,4-8.5,8.9-8.5c2.3,0,5.2,0.9,6.8,2.2l4-3.9
	c-2.7-2.4-6.6-4-10.7-4c-8.5,0-15.1,6.3-15.1,14.5s6.9,14.7,15.4,14.7c4,0,8.3-1.9,11.1-4.3L385.7,45.7"/>
<path class="st3" d="M460.4,47.3v-7.6h-11.5v5.2h5.5v1c-1.6,1.4-4.6,2.4-6.9,2.4c-4.9,0-8.8-4.2-8.8-8.8c0-4.7,4-8.5,8.9-8.5
	c2.3,0,5.2,0.9,6.8,2.3l4-3.9c-2.7-2.4-6.6-4-10.7-4c-8.5,0-15.1,6.3-15.1,14.5s6.9,14.8,15.4,14.8C457,54.6,460.4,47.3,460.4,47.3"
	/>
<path class="st3" d="M492.9,39.7c0,4.7-3.9,8.6-8.6,8.6s-8.6-3.9-8.6-8.6s3.9-8.6,8.6-8.6C489,31,492.9,34.9,492.9,39.7 M484.2,24.9
	c-8.1,0-14.7,6.6-14.7,14.7s6.6,14.7,14.7,14.7c8.1,0,14.7-6.6,14.7-14.7C498.8,31.5,492.4,24.9,484.2,24.9z"/>
</svg>
