<?xml version="1.0" encoding="utf-8"?>
<!-- Generator: Adobe Illustrator 20.1.0, SVG Export Plug-In . SVG Version: 6.00 Build 0)  -->
<svg version="1.1" id="Layer_1" xmlns="http://www.w3.org/2000/svg" xmlns:xlink="http://www.w3.org/1999/xlink" x="0px" y="0px"
	 viewBox="0 0 292 202" style="enable-background:new 0 0 292 202;" xml:space="preserve">
<style type="text/css">
	.st0{fill:#691F45;}
	.st1{fill:none;stroke:#EC218B;stroke-width:0.3835;}
	.st2{fill:none;stroke:#EC218B;stroke-width:0.1534;}
	.st3{fill:#EC218B;}
	.st4{fill:none;stroke:#691F45;stroke-width:0.2301;stroke-linecap:round;stroke-linejoin:bevel;}
	.st5{fill:none;stroke:#EC218B;stroke-width:0.2301;}
	.st6{fill:none;stroke:#EC218B;stroke-width:7.670963e-02;}
	.st7{fill:none;stroke:#691F45;stroke-width:0.2301;}
	.st8{fill:none;stroke:#691F45;stroke-width:0.6904;}
	.st9{fill:none;stroke:#691F45;stroke-width:0.1534;}
	.st10{fill:none;stroke:#691F45;stroke-width:7.670963e-02;}
</style>
<rect x="0" y="0.1" class="st0" width="292" height="202"/>
<line class="st1" x1="14" y1="113" x2="14" y2="106.1"/>
<line class="st2" x1="14" y1="106.4" x2="14" y2="100.3"/>
<line class="st1" x1="21.4" y1="113" x2="21.4" y2="106.1"/>
<line class="st2" x1="21.4" y1="106.4" x2="21.4" y2="100.3"/>
<rect x="13" y="111.8" class="st3" width="9.9" height="0.8"/>
<polyline class="st3" points="6.2,198 11.3,112.4 24.7,112.4 29.8,198 6.2,198 "/>
<rect x="11.8" y="113" class="st0" width="2.9" height="0.6"/>
<rect x="14.9" y="113" class="st0" width="2.9" height="0.6"/>
<rect x="18.1" y="113" class="st0" width="2.9" height="0.6"/>
<rect x="21.3" y="113" class="st0" width="2.9" height="0.6"/>
<polyline class="st4" points="17.7,113.6 10.8,121.2 26,134.3 9.2,148 27.8,164.3 7.3,180.3 29.8,198 "/>
<polyline class="st4" points="18.2,113.6 25.2,121.2 10.1,134.3 26.8,148 8.3,164.3 28.7,180.3 6.2,198 "/>
<line class="st2" x1="39.2" y1="81.4" x2="39.2" y2="90.8"/>
<line class="st5" x1="39.4" y1="83.8" x2="39.4" y2="92.3"/>
<rect x="40.7" y="78.1" class="st3" width="1.3" height="12"/>
<line class="st5" x1="41.3" y1="75.8" x2="41.3" y2="79.6"/>
<line class="st6" x1="41.3" y1="71.5" x2="41.3" y2="76.4"/>
<line class="st2" x1="48.8" y1="81.4" x2="48.8" y2="90.8"/>
<line class="st5" x1="49" y1="83.8" x2="49" y2="92.3"/>
<rect x="46.4" y="78.1" class="st3" width="1.3" height="12"/>
<line class="st5" x1="47" y1="75.8" x2="47" y2="79.6"/>
<line class="st6" x1="47.1" y1="71.5" x2="47.1" y2="76.4"/>
<polyline class="st3" points="33.4,197.7 33.4,108.9 38.6,108.9 38.6,90 41.5,90 41.5,88.8 47.3,88.8 47.3,90.1 49.7,90.1 
	49.7,197.7 33.4,197.7 "/>
<polygon class="st6" points="33.4,197.7 33.4,108.9 38.6,108.9 38.6,90 41.5,90 41.5,88.8 47.3,88.8 47.3,90.1 49.7,90.1 
	49.7,197.7 "/>
<rect x="48.6" y="90.6" class="st0" width="0.9" height="1.8"/>
<rect x="47.4" y="90.6" class="st0" width="0.9" height="1.8"/>
<rect x="46.2" y="90.6" class="st0" width="0.9" height="1.8"/>
<rect x="45" y="90.6" class="st0" width="0.9" height="1.8"/>
<rect x="43.7" y="90.6" class="st0" width="0.9" height="1.8"/>
<rect x="42.5" y="90.6" class="st0" width="0.9" height="1.8"/>
<rect x="41.3" y="90.6" class="st0" width="0.9" height="1.8"/>
<rect x="40.1" y="90.6" class="st0" width="0.9" height="1.8"/>
<rect x="38.8" y="90.6" class="st0" width="0.9" height="1.8"/>
<rect x="48.5" y="109.4" class="st0" width="0.9" height="1.8"/>
<rect x="47.2" y="109.4" class="st0" width="0.9" height="1.8"/>
<rect x="46" y="109.4" class="st0" width="0.9" height="1.8"/>
<rect x="44.8" y="109.4" class="st0" width="0.9" height="1.8"/>
<rect x="43.6" y="109.4" class="st0" width="0.9" height="1.8"/>
<rect x="42.3" y="109.4" class="st0" width="0.9" height="1.8"/>
<rect x="41.1" y="109.4" class="st0" width="0.9" height="1.8"/>
<rect x="39.9" y="109.4" class="st0" width="0.9" height="1.8"/>
<rect x="38.7" y="109.4" class="st0" width="0.9" height="1.8"/>
<rect x="37.4" y="109.4" class="st0" width="0.9" height="1.8"/>
<rect x="36.2" y="109.4" class="st0" width="0.9" height="1.8"/>
<rect x="35" y="109.4" class="st0" width="0.9" height="1.8"/>
<rect x="33.7" y="109.4" class="st0" width="0.9" height="1.8"/>
<rect x="48.5" y="133.6" class="st0" width="0.9" height="1.8"/>
<rect x="47.2" y="133.6" class="st0" width="0.9" height="1.8"/>
<rect x="46" y="133.6" class="st0" width="0.9" height="1.8"/>
<rect x="44.8" y="133.6" class="st0" width="0.9" height="1.8"/>
<rect x="43.6" y="133.6" class="st0" width="0.9" height="1.8"/>
<rect x="42.3" y="133.6" class="st0" width="0.9" height="1.8"/>
<rect x="41.1" y="133.6" class="st0" width="0.9" height="1.8"/>
<rect x="39.9" y="133.6" class="st0" width="0.9" height="1.8"/>
<rect x="38.7" y="133.6" class="st0" width="0.9" height="1.8"/>
<rect x="37.4" y="133.6" class="st0" width="0.9" height="1.8"/>
<rect x="36.2" y="133.6" class="st0" width="0.9" height="1.8"/>
<rect x="35" y="133.6" class="st0" width="0.9" height="1.8"/>
<rect x="33.7" y="133.6" class="st0" width="0.9" height="1.8"/>
<rect x="48.5" y="167.4" class="st0" width="0.9" height="1.8"/>
<rect x="47.2" y="167.4" class="st0" width="0.9" height="1.8"/>
<rect x="46" y="167.4" class="st0" width="0.9" height="1.8"/>
<rect x="44.8" y="167.4" class="st0" width="0.9" height="1.8"/>
<rect x="43.6" y="167.4" class="st0" width="0.9" height="1.8"/>
<rect x="42.3" y="167.4" class="st0" width="0.9" height="1.8"/>
<rect x="41.1" y="167.4" class="st0" width="0.9" height="1.8"/>
<rect x="39.9" y="167.4" class="st0" width="0.9" height="1.8"/>
<rect x="38.7" y="167.4" class="st0" width="0.9" height="1.8"/>
<rect x="37.4" y="167.4" class="st0" width="0.9" height="1.8"/>
<rect x="36.2" y="167.4" class="st0" width="0.9" height="1.8"/>
<rect x="35" y="167.4" class="st0" width="0.9" height="1.8"/>
<rect x="33.7" y="167.4" class="st0" width="0.9" height="1.8"/>
<polyline class="st3" points="63.9,138.6 53.9,145.6 53.9,197.7 75.7,197.7 75.7,145.6 65.4,138.6 65.4,143.9 63.9,143.9 
	63.9,138.6 "/>
<polyline class="st7" points="53.8,145 62.9,154.3 62.9,197.9 67.1,197.9 67.1,154.2 75.8,145.2 "/>
<rect x="80.6" y="105.8" class="st3" width="18" height="92"/>
<rect x="82.2" y="103.9" class="st3" width="14.6" height="93.7"/>
<line class="st7" x1="95.8" y1="104.7" x2="95.8" y2="197.4"/>
<line class="st7" x1="95.2" y1="104.7" x2="95.2" y2="197.4"/>
<line class="st7" x1="94.6" y1="104.7" x2="94.6" y2="197.4"/>
<line class="st7" x1="94" y1="104.7" x2="94" y2="197.4"/>
<line class="st7" x1="93.4" y1="104.7" x2="93.4" y2="197.4"/>
<line class="st7" x1="92.8" y1="104.7" x2="92.8" y2="197.4"/>
<line class="st7" x1="92.1" y1="104.7" x2="92.1" y2="197.4"/>
<line class="st7" x1="91.5" y1="104.7" x2="91.5" y2="197.4"/>
<line class="st7" x1="90.9" y1="104.7" x2="90.9" y2="197.4"/>
<line class="st7" x1="90.3" y1="104.7" x2="90.3" y2="197.4"/>
<line class="st7" x1="89.7" y1="104.7" x2="89.7" y2="197.4"/>
<line class="st7" x1="89.1" y1="104.7" x2="89.1" y2="197.4"/>
<line class="st7" x1="88.5" y1="104.7" x2="88.5" y2="197.4"/>
<line class="st7" x1="87.9" y1="104.7" x2="87.9" y2="197.4"/>
<line class="st7" x1="87.3" y1="104.7" x2="87.3" y2="197.4"/>
<line class="st7" x1="86.7" y1="104.7" x2="86.7" y2="197.4"/>
<line class="st7" x1="86.1" y1="104.7" x2="86.1" y2="197.4"/>
<line class="st7" x1="85.5" y1="104.7" x2="85.5" y2="197.4"/>
<line class="st7" x1="84.9" y1="104.7" x2="84.9" y2="197.4"/>
<line class="st7" x1="84.3" y1="104.7" x2="84.3" y2="197.4"/>
<line class="st7" x1="83.7" y1="104.7" x2="83.7" y2="197.4"/>
<line class="st7" x1="83.1" y1="104.7" x2="83.1" y2="197.4"/>
<polyline class="st3" points="118.7,197.8 118.7,130.4 110.7,120.2 110.6,120.2 102.7,130.4 102.7,197.8 118.7,197.8 "/>
<polyline class="st3" points="117.5,197.8 117.5,140.3 110.7,131.6 110.7,131.6 103.9,140.3 103.9,197.8 117.5,197.8 "/>
<polygon class="st7" points="117.5,197.8 117.5,140.3 110.7,131.6 110.7,131.6 103.9,140.3 103.9,197.8 "/>
<polyline class="st3" points="116,197.8 116,153.3 110.7,146.6 110.7,146.6 105.4,153.3 105.4,197.8 116,197.8 "/>
<polygon class="st7" points="116,197.8 116,153.3 110.7,146.6 110.7,146.6 105.4,153.3 105.4,197.8 "/>
<line class="st8" x1="110.7" y1="119.8" x2="110.7" y2="197.8"/>
<polyline class="st3" points="110.1,121.1 110.7,108.2 111.3,121.1 "/>
<polyline class="st3" points="143.7,197.4 143.7,142.7 141.9,142.7 141.9,139.9 141.4,139.9 140.4,138.4 139.4,139.8 138.8,139.8 
	138.8,142.7 137.1,142.7 137.1,144.7 130.3,144.7 130.3,142.7 128.6,142.7 128.6,139.8 128,139.8 127,138.4 126,139.9 125.4,139.9 
	125.4,142.7 123.6,142.7 123.6,197.4 143.7,197.4 "/>
<polygon class="st6" points="143.7,197.4 143.7,142.7 141.9,142.7 141.9,139.9 141.4,139.9 140.4,138.4 139.4,139.8 138.8,139.8 
	138.8,142.7 137.1,142.7 137.1,144.7 130.3,144.7 130.3,142.7 128.6,142.7 128.6,139.8 128,139.8 127,138.4 126,139.9 125.4,139.9 
	125.4,142.7 123.6,142.7 123.6,197.4 "/>
<rect x="125.9" y="140.2" class="st0" width="2.3" height="2.3"/>
<rect x="139.2" y="140.2" class="st0" width="2.3" height="2.3"/>
<rect x="125.8" y="143.1" class="st0" width="0.9" height="1.5"/>
<rect x="127.2" y="143.1" class="st0" width="0.9" height="1.5"/>
<rect x="128.6" y="143.5" class="st0" width="0.8" height="1.3"/>
<rect x="124.5" y="143.5" class="st0" width="0.8" height="1.3"/>
<rect x="125.8" y="145.2" class="st0" width="0.9" height="3.8"/>
<rect x="127.2" y="145.2" class="st0" width="0.9" height="3.8"/>
<rect x="125.8" y="149.4" class="st0" width="0.9" height="27"/>
<rect x="127.2" y="149.4" class="st0" width="0.9" height="27"/>
<rect x="128.6" y="145.2" class="st0" width="0.8" height="3.8"/>
<rect x="124.5" y="145.2" class="st0" width="0.8" height="3.8"/>
<rect x="139.2" y="145.2" class="st0" width="0.9" height="3.8"/>
<rect x="140.6" y="145.2" class="st0" width="0.9" height="3.8"/>
<rect x="139.2" y="149.4" class="st0" width="0.9" height="27"/>
<rect x="140.6" y="149.4" class="st0" width="0.9" height="27"/>
<rect x="142" y="145.2" class="st0" width="0.8" height="3.8"/>
<rect x="137.9" y="145.2" class="st0" width="0.8" height="3.8"/>
<rect x="139.2" y="143.1" class="st0" width="0.9" height="1.5"/>
<rect x="140.6" y="143.1" class="st0" width="0.9" height="1.5"/>
<rect x="142" y="143.5" class="st0" width="0.8" height="1.3"/>
<rect x="137.9" y="143.5" class="st0" width="0.8" height="1.3"/>
<polyline class="st3" points="186.6,129.1 194.7,133.1 194.7,197.2 178.2,197.2 178.2,133.1 186.3,129.1 186.6,129.1 "/>
<rect x="179.5" y="136.4" class="st0" width="2.7" height="2.7"/>
<rect x="182.7" y="136.4" class="st0" width="1" height="2.7"/>
<rect x="190.6" y="136.4" class="st0" width="2.7" height="2.7"/>
<rect x="189" y="136.4" class="st0" width="1" height="2.7"/>
<rect x="184.2" y="136.4" class="st0" width="4.2" height="2.7"/>
<rect x="179.5" y="139.5" class="st0" width="2.7" height="0.6"/>
<rect x="182.7" y="139.5" class="st0" width="1" height="0.6"/>
<rect x="190.6" y="139.5" class="st0" width="2.7" height="0.6"/>
<rect x="189" y="139.5" class="st0" width="1" height="0.6"/>
<rect x="184.2" y="139.5" class="st0" width="4.2" height="0.6"/>
<rect x="179.5" y="153.4" class="st0" width="2.7" height="0.6"/>
<rect x="182.7" y="153.4" class="st0" width="1" height="0.6"/>
<rect x="190.6" y="153.4" class="st0" width="2.7" height="0.6"/>
<rect x="189" y="153.4" class="st0" width="1" height="0.6"/>
<rect x="184.2" y="153.4" class="st0" width="4.2" height="0.6"/>
<rect x="179.5" y="143.9" class="st0" width="2.7" height="0.6"/>
<rect x="182.7" y="143.9" class="st0" width="1" height="0.6"/>
<rect x="190.6" y="143.9" class="st0" width="2.7" height="0.6"/>
<rect x="189" y="143.9" class="st0" width="1" height="0.6"/>
<rect x="179.5" y="148.5" class="st0" width="2.7" height="0.6"/>
<rect x="182.7" y="148.5" class="st0" width="1" height="0.6"/>
<rect x="190.6" y="148.5" class="st0" width="2.7" height="0.6"/>
<rect x="189" y="148.5" class="st0" width="1" height="0.6"/>
<rect x="179.5" y="158" class="st0" width="2.7" height="0.6"/>
<rect x="182.7" y="158" class="st0" width="1" height="0.6"/>
<rect x="190.6" y="158" class="st0" width="2.7" height="0.6"/>
<rect x="189" y="158" class="st0" width="1" height="0.6"/>
<rect x="179.5" y="140.7" class="st0" width="2.7" height="2.7"/>
<rect x="182.7" y="140.7" class="st0" width="1" height="2.7"/>
<rect x="190.6" y="140.7" class="st0" width="2.7" height="2.7"/>
<rect x="189" y="140.7" class="st0" width="1" height="2.7"/>
<rect x="179.5" y="145.2" class="st0" width="2.7" height="2.7"/>
<rect x="182.7" y="145.2" class="st0" width="1" height="2.7"/>
<rect x="190.6" y="145.2" class="st0" width="2.7" height="2.7"/>
<rect x="189" y="145.2" class="st0" width="1" height="2.7"/>
<rect x="179.5" y="149.9" class="st0" width="2.7" height="2.7"/>
<rect x="182.7" y="149.9" class="st0" width="1" height="2.7"/>
<rect x="190.6" y="149.9" class="st0" width="2.7" height="2.7"/>
<rect x="189" y="149.9" class="st0" width="1" height="2.7"/>
<rect x="179.5" y="167.3" class="st0" width="2.7" height="0.6"/>
<rect x="182.7" y="167.3" class="st0" width="1" height="0.6"/>
<rect x="190.6" y="167.3" class="st0" width="2.7" height="0.6"/>
<rect x="189" y="167.3" class="st0" width="1" height="0.6"/>
<rect x="184.2" y="167.3" class="st0" width="4.2" height="0.6"/>
<rect x="179.5" y="163.8" class="st0" width="2.7" height="2.7"/>
<rect x="182.7" y="163.8" class="st0" width="1" height="2.7"/>
<rect x="190.6" y="163.8" class="st0" width="2.7" height="2.7"/>
<rect x="189" y="163.8" class="st0" width="1" height="2.7"/>
<rect x="179.5" y="162.6" class="st0" width="2.7" height="0.6"/>
<rect x="182.7" y="162.6" class="st0" width="1" height="0.6"/>
<rect x="190.6" y="162.6" class="st0" width="2.7" height="0.6"/>
<rect x="189" y="162.6" class="st0" width="1" height="0.6"/>
<rect x="179.5" y="159.1" class="st0" width="2.7" height="2.7"/>
<rect x="182.7" y="159.1" class="st0" width="1" height="2.7"/>
<rect x="190.6" y="159.1" class="st0" width="2.7" height="2.7"/>
<rect x="189" y="159.1" class="st0" width="1" height="2.7"/>
<rect x="184.2" y="140.7" class="st0" width="4.2" height="12.1"/>
<rect x="179.5" y="154.6" class="st0" width="2.7" height="2.7"/>
<rect x="182.7" y="154.6" class="st0" width="1" height="2.7"/>
<rect x="190.6" y="154.6" class="st0" width="2.7" height="2.7"/>
<rect x="189" y="154.6" class="st0" width="1" height="2.7"/>
<rect x="184.2" y="154.6" class="st0" width="4.2" height="12.1"/>
<rect x="179.5" y="171.9" class="st0" width="2.7" height="0.6"/>
<rect x="182.7" y="171.9" class="st0" width="1" height="0.6"/>
<rect x="190.6" y="171.9" class="st0" width="2.7" height="0.6"/>
<rect x="189" y="171.9" class="st0" width="1" height="0.6"/>
<rect x="179.5" y="181.2" class="st0" width="2.7" height="0.6"/>
<rect x="182.7" y="181.2" class="st0" width="1" height="0.6"/>
<rect x="190.6" y="181.2" class="st0" width="2.7" height="0.6"/>
<rect x="189" y="181.2" class="st0" width="1" height="0.6"/>
<rect x="184.2" y="181.2" class="st0" width="4.2" height="0.6"/>
<rect x="179.5" y="177.7" class="st0" width="2.7" height="2.7"/>
<rect x="182.7" y="177.7" class="st0" width="1" height="2.7"/>
<rect x="190.6" y="177.7" class="st0" width="2.7" height="2.7"/>
<rect x="189" y="177.7" class="st0" width="1" height="2.7"/>
<rect x="179.5" y="176.5" class="st0" width="2.7" height="0.6"/>
<rect x="182.7" y="176.5" class="st0" width="1" height="0.6"/>
<rect x="190.6" y="176.5" class="st0" width="2.7" height="0.6"/>
<rect x="189" y="176.5" class="st0" width="1" height="0.6"/>
<rect x="179.5" y="173" class="st0" width="2.7" height="2.7"/>
<rect x="182.7" y="173" class="st0" width="1" height="2.7"/>
<rect x="190.6" y="173" class="st0" width="2.7" height="2.7"/>
<rect x="189" y="173" class="st0" width="1" height="2.7"/>
<rect x="179.5" y="168.5" class="st0" width="2.7" height="2.7"/>
<rect x="182.7" y="168.5" class="st0" width="1" height="2.7"/>
<rect x="190.6" y="168.5" class="st0" width="2.7" height="2.7"/>
<rect x="189" y="168.5" class="st0" width="1" height="2.7"/>
<rect x="184.2" y="168.5" class="st0" width="4.2" height="12.1"/>
<polyline class="st0" points="193.5,133.6 186.5,130.2 186.4,130.2 179.4,133.6 193.5,133.6 "/>
<rect x="179.5" y="186" class="st0" width="2.7" height="0.6"/>
<rect x="182.7" y="186" class="st0" width="1" height="0.6"/>
<rect x="190.6" y="186" class="st0" width="2.7" height="0.6"/>
<rect x="189" y="186" class="st0" width="1" height="0.6"/>
<rect x="179.5" y="195.3" class="st0" width="2.7" height="0.6"/>
<rect x="182.7" y="195.3" class="st0" width="1" height="0.6"/>
<rect x="190.6" y="195.3" class="st0" width="2.7" height="0.6"/>
<rect x="189" y="195.3" class="st0" width="1" height="0.6"/>
<rect x="184.2" y="195.3" class="st0" width="4.2" height="0.6"/>
<rect x="179.5" y="191.8" class="st0" width="2.7" height="2.7"/>
<rect x="182.7" y="191.8" class="st0" width="1" height="2.7"/>
<rect x="190.6" y="191.8" class="st0" width="2.7" height="2.7"/>
<rect x="189" y="191.8" class="st0" width="1" height="2.7"/>
<rect x="179.5" y="190.6" class="st0" width="2.7" height="0.6"/>
<rect x="182.7" y="190.6" class="st0" width="1" height="0.6"/>
<rect x="190.6" y="190.6" class="st0" width="2.7" height="0.6"/>
<rect x="189" y="190.6" class="st0" width="1" height="0.6"/>
<rect x="179.5" y="187.1" class="st0" width="2.7" height="2.7"/>
<rect x="182.7" y="187.1" class="st0" width="1" height="2.7"/>
<rect x="190.6" y="187.1" class="st0" width="2.7" height="2.7"/>
<rect x="189" y="187.1" class="st0" width="1" height="2.7"/>
<rect x="179.5" y="182.6" class="st0" width="2.7" height="2.7"/>
<rect x="182.7" y="182.6" class="st0" width="1" height="2.7"/>
<rect x="190.6" y="182.6" class="st0" width="2.7" height="2.7"/>
<rect x="189" y="182.6" class="st0" width="1" height="2.7"/>
<rect x="184.2" y="182.6" class="st0" width="4.2" height="12.1"/>
<path class="st0" d="M183.8,134.5l0,1.5h-1.1l0-1.5c0,0,0.1-0.4,0.5-0.4C183.7,134.1,183.8,134.5,183.8,134.5"/>
<path class="st0" d="M180.5,134.5l0,1.5h-1.1l0-1.5c0,0,0.1-0.4,0.5-0.4C180.5,134.1,180.5,134.5,180.5,134.5"/>
<path class="st0" d="M182.2,134.5l0,1.5h-1.1l0-1.5c0,0,0.1-0.4,0.5-0.4C182.1,134.1,182.2,134.5,182.2,134.5"/>
<path class="st0" d="M193.3,134.5l0,1.5h-1.1l0-1.5c0,0,0.1-0.4,0.5-0.4C193.2,134.1,193.3,134.5,193.3,134.5"/>
<path class="st0" d="M190,134.5l0,1.5H189l0-1.5c0,0,0.1-0.4,0.5-0.4C190,134.1,190,134.5,190,134.5"/>
<path class="st0" d="M191.7,134.5l0,1.5h-1.1l0-1.5c0,0,0.1-0.4,0.5-0.4C191.7,134.1,191.7,134.5,191.7,134.5"/>
<path class="st0" d="M188.5,134.5l0,1.5h-1.1l0-1.5c0,0,0.1-0.4,0.5-0.4C188.4,134.1,188.5,134.5,188.5,134.5"/>
<path class="st0" d="M185.2,134.5l0,1.5h-1.1l0-1.5c0,0,0.1-0.4,0.5-0.4C185.2,134.1,185.2,134.5,185.2,134.5"/>
<path class="st0" d="M186.9,134.5l0,1.5h-1.1l0-1.5c0,0,0.1-0.4,0.5-0.4C186.8,134.1,186.9,134.5,186.9,134.5"/>
<rect x="200.4" y="133" class="st3" width="28.1" height="64.1"/>
<rect x="200.4" y="133" class="st6" width="28.1" height="64.1"/>
<path class="st6" d="M200.4,133"/>
<line class="st7" x1="224.5" y1="137.6" x2="224.5" y2="192.5"/>
<line class="st7" x1="220.5" y1="137.6" x2="220.5" y2="192.5"/>
<line class="st7" x1="216.5" y1="137.6" x2="216.5" y2="192.5"/>
<line class="st7" x1="212.5" y1="137.6" x2="212.5" y2="192.5"/>
<line class="st7" x1="208.5" y1="137.6" x2="208.5" y2="192.5"/>
<line class="st7" x1="204.5" y1="137.6" x2="204.5" y2="192.5"/>
<line class="st9" x1="200.4" y1="192.6" x2="228.4" y2="192.6"/>
<line class="st9" x1="200.4" y1="191.4" x2="228.4" y2="191.4"/>
<line class="st9" x1="200.4" y1="190.2" x2="228.4" y2="190.2"/>
<line class="st9" x1="200.4" y1="189" x2="228.4" y2="189"/>
<line class="st9" x1="200.4" y1="187.9" x2="228.4" y2="187.9"/>
<line class="st9" x1="200.4" y1="186.7" x2="228.4" y2="186.7"/>
<line class="st9" x1="200.4" y1="185.5" x2="228.4" y2="185.5"/>
<line class="st9" x1="200.4" y1="184.4" x2="228.4" y2="184.4"/>
<line class="st9" x1="200.4" y1="183.2" x2="228.4" y2="183.2"/>
<line class="st9" x1="200.4" y1="182" x2="228.4" y2="182"/>
<line class="st9" x1="200.4" y1="180.9" x2="228.4" y2="180.9"/>
<line class="st9" x1="200.4" y1="179.7" x2="228.4" y2="179.7"/>
<line class="st9" x1="200.4" y1="178.5" x2="228.4" y2="178.5"/>
<line class="st9" x1="200.4" y1="173.9" x2="228.4" y2="173.9"/>
<line class="st9" x1="200.4" y1="172.7" x2="228.4" y2="172.7"/>
<line class="st9" x1="200.4" y1="171.5" x2="228.4" y2="171.5"/>
<line class="st9" x1="200.4" y1="170.4" x2="228.4" y2="170.4"/>
<line class="st9" x1="200.4" y1="169.2" x2="228.4" y2="169.2"/>
<line class="st9" x1="200.4" y1="168" x2="228.4" y2="168"/>
<line class="st9" x1="200.4" y1="166.8" x2="228.4" y2="166.8"/>
<line class="st9" x1="200.4" y1="165.7" x2="228.4" y2="165.7"/>
<line class="st9" x1="200.4" y1="164.5" x2="228.4" y2="164.5"/>
<line class="st9" x1="200.4" y1="163.3" x2="228.4" y2="163.3"/>
<line class="st9" x1="200.4" y1="162.2" x2="228.4" y2="162.2"/>
<line class="st9" x1="200.4" y1="161" x2="228.4" y2="161"/>
<line class="st9" x1="200.4" y1="159.8" x2="228.4" y2="159.8"/>
<line class="st9" x1="200.4" y1="158.7" x2="228.4" y2="158.7"/>
<line class="st9" x1="200.4" y1="157.5" x2="228.4" y2="157.5"/>
<line class="st9" x1="200.4" y1="156.3" x2="228.4" y2="156.3"/>
<line class="st9" x1="200.4" y1="155.2" x2="228.4" y2="155.2"/>
<line class="st9" x1="200.4" y1="154" x2="228.4" y2="154"/>
<line class="st9" x1="200.4" y1="152.8" x2="228.4" y2="152.8"/>
<line class="st9" x1="200.4" y1="151.7" x2="228.4" y2="151.7"/>
<line class="st9" x1="200.4" y1="150.5" x2="228.4" y2="150.5"/>
<line class="st9" x1="200.4" y1="149.3" x2="228.4" y2="149.3"/>
<line class="st9" x1="200.4" y1="148.1" x2="228.4" y2="148.1"/>
<line class="st9" x1="200.4" y1="147" x2="228.4" y2="147"/>
<line class="st9" x1="200.4" y1="145.8" x2="228.4" y2="145.8"/>
<line class="st9" x1="200.4" y1="144.6" x2="228.4" y2="144.6"/>
<line class="st9" x1="200.4" y1="143.5" x2="228.4" y2="143.5"/>
<line class="st9" x1="200.4" y1="142.3" x2="228.4" y2="142.3"/>
<line class="st9" x1="200.4" y1="141.1" x2="228.4" y2="141.1"/>
<line class="st9" x1="200.4" y1="140" x2="228.4" y2="140"/>
<line class="st9" x1="200.4" y1="138.8" x2="228.4" y2="138.8"/>
<line class="st9" x1="200.4" y1="137.6" x2="228.4" y2="137.6"/>
<line class="st10" x1="227.3" y1="137.6" x2="227.3" y2="192.6"/>
<line class="st10" x1="225.9" y1="137.6" x2="225.9" y2="192.6"/>
<line class="st10" x1="223.3" y1="137.6" x2="223.3" y2="192.6"/>
<line class="st10" x1="221.9" y1="137.6" x2="221.9" y2="192.6"/>
<line class="st10" x1="219.3" y1="137.6" x2="219.3" y2="192.6"/>
<line class="st10" x1="217.9" y1="137.6" x2="217.9" y2="192.6"/>
<line class="st10" x1="215.3" y1="137.6" x2="215.3" y2="192.6"/>
<line class="st10" x1="213.9" y1="137.6" x2="213.9" y2="192.6"/>
<line class="st10" x1="211.3" y1="137.6" x2="211.3" y2="192.6"/>
<line class="st10" x1="209.9" y1="137.6" x2="209.9" y2="192.6"/>
<line class="st10" x1="207.2" y1="137.6" x2="207.2" y2="192.6"/>
<line class="st10" x1="205.9" y1="137.6" x2="205.9" y2="192.6"/>
<line class="st10" x1="203.2" y1="137.6" x2="203.2" y2="192.6"/>
<line class="st10" x1="201.9" y1="137.6" x2="201.9" y2="192.6"/>
<rect x="200.5" y="173.9" class="st3" width="28" height="4.5"/>
<polyline class="st3" points="260.8,197.6 260.8,160.1 255,160.1 255,152.9 254.2,152.9 254.2,149.9 253.3,149.9 253.3,137 
	240.2,137 240.2,149.9 239.3,149.9 239.3,152.9 238.5,152.9 238.5,160.1 232.7,160.1 232.7,197.6 260.8,197.6 "/>
<rect x="241.6" y="130.4" class="st3" width="10.4" height="8.9"/>
<path class="st0" d="M249.1,134.3c0,1.3-1.1,2.4-2.4,2.4c-1.3,0-2.4-1.1-2.4-2.4c0-1.3,1.1-2.4,2.4-2.4
	C248.1,131.9,249.1,133,249.1,134.3"/>
<path class="st3" d="M251.7,130.4v-1c0,0-0.4-0.2-0.5-0.5c0-0.1,0-2.5,0-2.5l-0.2-0.2v-0.5l-0.1-0.2l0-0.9l-0.2-0.3l-0.2-0.5
	l-0.2,0.5l-0.2,0.3l0,0.8h-0.2v-0.8l-0.3-0.3l0-0.7l-0.3-0.9l-0.3,0.9v0.5l-0.3,0v-3.7c-0.1-0.1-0.1-0.2-0.3-0.3
	c-0.2-0.1-0.5-0.1-0.5-0.1v-1.5c0,0-0.2-0.2-0.3-0.3c-0.1-0.1-0.2-0.2-0.4-0.2c-0.1,0-0.2,0-0.3,0h-0.1c-0.1,0-0.2,0-0.3,0
	c-0.1,0-0.3,0.1-0.4,0.2c-0.1,0.1-0.3,0.3-0.3,0.3l0,1.5c0,0-0.2,0-0.5,0.1c-0.2,0.1-0.2,0.2-0.3,0.3v3.7l-0.3,0v-0.5l-0.3-0.9
	l-0.3,0.9l0,0.7l-0.3,0.3v0.8h-0.2l0-0.8l-0.2-0.3l-0.2-0.5l-0.2,0.5l-0.2,0.3l0,0.9l-0.2,0.2v0.5l-0.2,0.2c0,0,0,2.3,0,2.5
	c-0.1,0.2-0.5,0.5-0.5,0.5v1H251.7"/>
<path class="st6" d="M251.7,130.4v-1c0,0-0.4-0.2-0.5-0.5c0-0.1,0-2.5,0-2.5l-0.2-0.2v-0.5l-0.1-0.2l0-0.9l-0.2-0.3l-0.2-0.5
	l-0.2,0.5l-0.2,0.3l0,0.8h-0.2v-0.8l-0.3-0.3l0-0.7l-0.3-0.9l-0.3,0.9v0.5l-0.3,0v-3.7c-0.1-0.1-0.1-0.2-0.3-0.3
	c-0.2-0.1-0.5-0.1-0.5-0.1v-1.5c0,0-0.2-0.2-0.3-0.3c-0.1-0.1-0.2-0.2-0.4-0.2c-0.1,0-0.2,0-0.3,0h-0.1c-0.1,0-0.2,0-0.3,0
	c-0.1,0-0.3,0.1-0.4,0.2c-0.1,0.1-0.3,0.3-0.3,0.3l0,1.5c0,0-0.2,0-0.5,0.1c-0.2,0.1-0.2,0.2-0.3,0.3v3.7l-0.3,0v-0.5l-0.3-0.9
	l-0.3,0.9l0,0.7l-0.3,0.3v0.8h-0.2l0-0.8l-0.2-0.3l-0.2-0.5l-0.2,0.5l-0.2,0.3l0,0.9l-0.2,0.2v0.5l-0.2,0.2c0,0,0,2.3,0,2.5
	c-0.1,0.2-0.5,0.5-0.5,0.5v1H251.7z"/>
<polyline class="st3" points="246.5,118.2 246.8,112.4 247.1,118.2 "/>
<polyline class="st6" points="246.5,118.2 246.8,112.4 247.1,118.2 "/>
<path class="st0" d="M244.2,130.1v-2.6c0,0,0.1-0.6,0.5-0.6c0.4,0,0.5,0.6,0.5,0.6v2.6H244.2"/>
<path class="st0" d="M246.2,130.1v-2.6c0,0,0.1-0.6,0.5-0.6c0.4,0,0.5,0.6,0.5,0.6v2.6H246.2"/>
<path class="st0" d="M248.1,130.1v-2.6c0,0,0.1-0.6,0.5-0.6c0.4,0,0.5,0.6,0.5,0.6v2.6H248.1"/>
<path class="st0" d="M245.7,124v-2c0,0,0.1-0.5,0.2-0.5c0.2,0,0.2,0.5,0.2,0.5v2H245.7"/>
<path class="st0" d="M247.3,124v-2c0,0,0.1-0.5,0.2-0.5c0.2,0,0.2,0.5,0.2,0.5v2H247.3"/>
<path class="st0" d="M246.5,123.8v-2.1c0,0,0.1-0.5,0.2-0.5c0.2,0,0.2,0.5,0.2,0.5v2.1H246.5"/>
<rect x="244.2" y="161.4" class="st0" width="1" height="1.8"/>
<rect x="244.2" y="158.6" class="st0" width="1" height="1.8"/>
<rect x="244.2" y="155.8" class="st0" width="1" height="1.8"/>
<rect x="244.2" y="153" class="st0" width="1" height="1.8"/>
<rect x="244.2" y="150.1" class="st0" width="1" height="1.8"/>
<rect x="244.2" y="147.3" class="st0" width="1" height="1.8"/>
<rect x="244.2" y="144.5" class="st0" width="1" height="1.8"/>
<rect x="244.2" y="141.6" class="st0" width="1" height="1.8"/>
<rect x="244.2" y="138.8" class="st0" width="1" height="1.8"/>
<rect x="246.2" y="161.4" class="st0" width="1" height="1.8"/>
<rect x="246.2" y="158.6" class="st0" width="1" height="1.8"/>
<rect x="246.2" y="155.8" class="st0" width="1" height="1.8"/>
<rect x="246.2" y="153" class="st0" width="1" height="1.8"/>
<rect x="246.2" y="150.1" class="st0" width="1" height="1.8"/>
<rect x="246.2" y="147.3" class="st0" width="1" height="1.8"/>
<rect x="246.2" y="144.5" class="st0" width="1" height="1.8"/>
<rect x="246.2" y="141.6" class="st0" width="1" height="1.8"/>
<rect x="246.2" y="138.8" class="st0" width="1" height="1.8"/>
<rect x="248.1" y="161.4" class="st0" width="1" height="1.8"/>
<rect x="248.1" y="158.6" class="st0" width="1" height="1.8"/>
<rect x="248.1" y="155.8" class="st0" width="1" height="1.8"/>
<rect x="248.1" y="153" class="st0" width="1" height="1.8"/>
<rect x="248.1" y="150.1" class="st0" width="1" height="1.8"/>
<rect x="248.1" y="147.3" class="st0" width="1" height="1.8"/>
<rect x="248.1" y="144.5" class="st0" width="1" height="1.8"/>
<rect x="248.1" y="141.6" class="st0" width="1" height="1.8"/>
<rect x="248.1" y="138.8" class="st0" width="1" height="1.8"/>
<path class="st3" d="M264,136.2c0,0,0.1-0.3,0.2-0.4c0.1-0.1,0.3-0.3,0.8-0.3c0.6,0,0.9,0.5,0.9,0.6c0,0.2,0,0.6,0,0.6l1.4,0.3v-5
	l0.5-0.8l0.4,0.8l0,0.8l0.3-0.2v-3.4l0.5-0.9l0.5,1v0.4l0.6-0.3v-1.2l0.3-0.3l0.3,0.3v0.9l0.2,0v-0.5h0.2c0,0,0-0.7,0-0.9
	c0,0,0.1-0.1,0.1-0.1c0.1,0,0.3,0,0.4,0c0.1,0,0.1,0.1,0.1,0.1c0,0.2,0,0.8,0,0.8h0.4c0,0,0-0.6,0-0.8c0-0.1,0.1-0.1,0.1-0.1
	c0.1,0,0.3,0,0.4,0c0,0,0.1,0.1,0.1,0.1c0,0.2,0,0.9,0,0.9h0.2v0.5l0.2,0v-0.9l0.3-0.3l0.3,0.3v1.2l0.6,0.3l0-0.4l0.5-1l0.5,0.9v3.4
	l0.3,0.2l0-0.8l0.4-0.8l0.5,0.8v5l1.4-0.3c0,0,0-0.5,0-0.6c0,0,0.3-0.6,0.9-0.6c0.5,0,0.7,0.2,0.8,0.3c0.1,0.1,0.2,0.4,0.2,0.4v21.6
	l2.8,0l0-2l0.3-0.7l0.3,0.6l0,1.1l1.6,0v-1.3l0.5-1.3l0.5,1.3v1.2l0,40.9l-21.5,0L264,136.2"/>
<path class="st3" d="M272.3,128.8c0,0,0-1.3,0-1.6c0-0.1-0.1-0.2-0.2-0.2c-0.1,0-0.5-0.1-0.6,0c-0.1,0-0.2,0.2-0.2,0.2
	c0,0.4,0,1.6,0,1.6L272.3,128.8"/>
<path class="st0" d="M272.6,140.1c0,0,0-2.9,0-3.8c0-0.2-0.3-0.5-0.8-0.5c-0.4,0-0.8,0.3-0.8,0.5c0,0.9,0,3.8,0,3.8H272.6"/>
<path class="st0" d="M267,140.2c0,0,0-1.6,0-2c0-0.1-0.2-0.5-0.6-0.5c-0.3,0-0.6,0.3-0.6,0.5c0,0.4,0,1.7,0,1.7L267,140.2"/>
<path class="st0" d="M276.5,140.2c0,0,0-1.6,0-2c0-0.1,0.2-0.5,0.6-0.5c0.3,0,0.6,0.3,0.6,0.5c0,0.4,0,1.7,0,1.7L276.5,140.2"/>
<line class="st5" x1="271.8" y1="135.8" x2="271.8" y2="140.1"/>
<line class="st5" x1="270.8" y1="136.8" x2="272.6" y2="136.8"/>
<line class="st5" x1="271" y1="138.3" x2="272.7" y2="138.3"/>
<line class="st5" x1="283.8" y1="157.7" x2="283.8" y2="162.3"/>
<line class="st5" x1="283" y1="159" x2="284.6" y2="159"/>
<line class="st5" x1="282.8" y1="160.5" x2="284.7" y2="160.5"/>
<line class="st5" x1="283" y1="162.2" x2="284.6" y2="162.2"/>
<path class="st0" d="M272.6,196.3c0,0,0-51.6,0-52.5c0-0.2-0.3-0.5-0.8-0.5c-0.4,0-0.8,0.3-0.8,0.5c0,0.9,0,52.5,0,52.5H272.6"/>
<line class="st5" x1="271.8" y1="143.1" x2="271.8" y2="196.8"/>
<line class="st5" x1="270.9" y1="144.4" x2="272.6" y2="144.4"/>
<line class="st5" x1="270.8" y1="145.9" x2="272.7" y2="145.9"/>
<line class="st5" x1="271" y1="194.1" x2="272.6" y2="194.1"/>
<line class="st5" x1="271" y1="192.4" x2="272.6" y2="192.4"/>
<line class="st5" x1="271" y1="190.6" x2="272.6" y2="190.6"/>
<line class="st5" x1="271" y1="188.9" x2="272.6" y2="188.9"/>
<line class="st5" x1="271" y1="187.2" x2="272.6" y2="187.2"/>
<line class="st5" x1="271" y1="185.5" x2="272.6" y2="185.5"/>
<line class="st5" x1="271" y1="183.7" x2="272.6" y2="183.7"/>
<line class="st5" x1="271" y1="182" x2="272.6" y2="182"/>
<line class="st5" x1="271" y1="180.3" x2="272.6" y2="180.3"/>
<line class="st5" x1="271" y1="178.5" x2="272.6" y2="178.5"/>
<line class="st5" x1="271" y1="176.8" x2="272.6" y2="176.8"/>
<line class="st5" x1="271" y1="175.1" x2="272.6" y2="175.1"/>
<line class="st5" x1="271" y1="173.3" x2="272.6" y2="173.3"/>
<line class="st5" x1="271" y1="171.6" x2="272.6" y2="171.6"/>
<line class="st5" x1="271" y1="169.9" x2="272.6" y2="169.9"/>
<line class="st5" x1="271" y1="168.2" x2="272.6" y2="168.2"/>
<line class="st5" x1="271" y1="166.4" x2="272.6" y2="166.4"/>
<line class="st5" x1="271" y1="164.7" x2="272.6" y2="164.7"/>
<line class="st5" x1="271" y1="163" x2="272.6" y2="163"/>
<line class="st5" x1="271" y1="161.2" x2="272.6" y2="161.2"/>
<line class="st5" x1="271" y1="159.5" x2="272.6" y2="159.5"/>
<line class="st5" x1="271" y1="157.8" x2="272.6" y2="157.8"/>
<line class="st5" x1="271" y1="156.1" x2="272.6" y2="156.1"/>
<line class="st5" x1="271" y1="154.3" x2="272.6" y2="154.3"/>
<line class="st5" x1="271" y1="152.6" x2="272.6" y2="152.6"/>
<line class="st5" x1="271" y1="150.9" x2="272.6" y2="150.9"/>
<line class="st5" x1="271" y1="149.1" x2="272.6" y2="149.1"/>
<line class="st5" x1="271" y1="147.4" x2="272.6" y2="147.4"/>
<path class="st0" d="M270.1,196.3c0,0,0-51.6,0-52.5c0-0.2-0.3-0.5-0.8-0.5c-0.4,0-0.8,0.3-0.8,0.5c0,0.9,0,52.5,0,52.5H270.1"/>
<line class="st5" x1="269.3" y1="143.1" x2="269.3" y2="196.8"/>
<line class="st5" x1="268.4" y1="144.4" x2="270.1" y2="144.4"/>
<line class="st5" x1="268.2" y1="145.9" x2="270.2" y2="145.9"/>
<line class="st5" x1="268.4" y1="194" x2="270.1" y2="194"/>
<line class="st5" x1="268.4" y1="192.3" x2="270.1" y2="192.3"/>
<line class="st5" x1="268.4" y1="190.6" x2="270.1" y2="190.6"/>
<line class="st5" x1="268.4" y1="188.9" x2="270.1" y2="188.9"/>
<line class="st5" x1="268.4" y1="187.1" x2="270.1" y2="187.1"/>
<line class="st5" x1="268.4" y1="185.4" x2="270.1" y2="185.4"/>
<line class="st5" x1="268.4" y1="183.7" x2="270.1" y2="183.7"/>
<line class="st5" x1="268.4" y1="181.9" x2="270.1" y2="181.9"/>
<line class="st5" x1="268.4" y1="180.2" x2="270.1" y2="180.2"/>
<line class="st5" x1="268.4" y1="178.5" x2="270.1" y2="178.5"/>
<line class="st5" x1="268.4" y1="176.7" x2="270.1" y2="176.7"/>
<line class="st5" x1="268.4" y1="175" x2="270.1" y2="175"/>
<line class="st5" x1="268.4" y1="173.3" x2="270.1" y2="173.3"/>
<line class="st5" x1="268.4" y1="171.6" x2="270.1" y2="171.6"/>
<line class="st5" x1="268.4" y1="169.8" x2="270.1" y2="169.8"/>
<line class="st5" x1="268.4" y1="168.1" x2="270.1" y2="168.1"/>
<line class="st5" x1="268.4" y1="166.4" x2="270.1" y2="166.4"/>
<line class="st5" x1="268.4" y1="164.6" x2="270.1" y2="164.6"/>
<line class="st5" x1="268.4" y1="162.9" x2="270.1" y2="162.9"/>
<line class="st5" x1="268.4" y1="161.2" x2="270.1" y2="161.2"/>
<line class="st5" x1="268.4" y1="159.5" x2="270.1" y2="159.5"/>
<line class="st5" x1="268.4" y1="157.7" x2="270.1" y2="157.7"/>
<line class="st5" x1="268.4" y1="156" x2="270.1" y2="156"/>
<line class="st5" x1="268.4" y1="154.3" x2="270.1" y2="154.3"/>
<line class="st5" x1="268.4" y1="152.5" x2="270.1" y2="152.5"/>
<line class="st5" x1="268.4" y1="150.8" x2="270.1" y2="150.8"/>
<line class="st5" x1="268.4" y1="149.1" x2="270.1" y2="149.1"/>
<line class="st5" x1="268.4" y1="147.3" x2="270.1" y2="147.3"/>
<path class="st0" d="M275,196.4c0,0,0-51.6,0-52.5c0-0.2-0.3-0.5-0.8-0.5c-0.4,0-0.8,0.3-0.8,0.5c0,0.9,0,52.5,0,52.5H275"/>
<line class="st5" x1="274.3" y1="143.2" x2="274.3" y2="197.4"/>
<line class="st5" x1="273.4" y1="144.4" x2="275.1" y2="144.4"/>
<line class="st5" x1="273.2" y1="145.9" x2="275.1" y2="145.9"/>
<line class="st5" x1="273.4" y1="194.1" x2="275.1" y2="194.1"/>
<line class="st5" x1="273.4" y1="192.4" x2="275.1" y2="192.4"/>
<line class="st5" x1="273.4" y1="190.7" x2="275.1" y2="190.7"/>
<line class="st5" x1="273.4" y1="188.9" x2="275.1" y2="188.9"/>
<line class="st5" x1="273.4" y1="187.2" x2="275.1" y2="187.2"/>
<line class="st5" x1="273.4" y1="185.5" x2="275.1" y2="185.5"/>
<line class="st5" x1="273.4" y1="183.7" x2="275.1" y2="183.7"/>
<line class="st5" x1="273.4" y1="182" x2="275.1" y2="182"/>
<line class="st5" x1="273.4" y1="180.3" x2="275.1" y2="180.3"/>
<line class="st5" x1="273.4" y1="178.6" x2="275.1" y2="178.6"/>
<line class="st5" x1="273.4" y1="176.8" x2="275.1" y2="176.8"/>
<line class="st5" x1="273.4" y1="175.1" x2="275.1" y2="175.1"/>
<line class="st5" x1="273.4" y1="173.4" x2="275.1" y2="173.4"/>
<line class="st5" x1="273.4" y1="171.6" x2="275.1" y2="171.6"/>
<line class="st5" x1="273.4" y1="169.9" x2="275.1" y2="169.9"/>
<line class="st5" x1="273.4" y1="168.2" x2="275.1" y2="168.2"/>
<line class="st5" x1="273.4" y1="166.5" x2="275.1" y2="166.5"/>
<line class="st5" x1="273.4" y1="164.7" x2="275.1" y2="164.7"/>
<line class="st5" x1="273.4" y1="163" x2="275.1" y2="163"/>
<line class="st5" x1="273.4" y1="161.3" x2="275.1" y2="161.3"/>
<line class="st5" x1="273.4" y1="159.5" x2="275.1" y2="159.5"/>
<line class="st5" x1="273.4" y1="157.8" x2="275.1" y2="157.8"/>
<line class="st5" x1="273.4" y1="156.1" x2="275.1" y2="156.1"/>
<line class="st5" x1="273.4" y1="154.3" x2="275.1" y2="154.3"/>
<line class="st5" x1="273.4" y1="152.6" x2="275.1" y2="152.6"/>
<line class="st5" x1="273.4" y1="150.9" x2="275.1" y2="150.9"/>
<line class="st5" x1="273.4" y1="149.2" x2="275.1" y2="149.2"/>
<line class="st5" x1="273.4" y1="147.4" x2="275.1" y2="147.4"/>
<path class="st0" d="M278.4,196.4c0,0,0-50.3,0-51.3c0-0.2-0.3-0.5-0.8-0.5c-0.4,0-0.8,0.3-0.8,0.5c0,0.9,0,51.3,0,51.3H278.4"/>
<line class="st5" x1="277.6" y1="144.4" x2="277.6" y2="196.6"/>
<line class="st5" x1="276.7" y1="145.7" x2="278.4" y2="145.7"/>
<line class="st5" x1="276.6" y1="147.2" x2="278.5" y2="147.2"/>
<line class="st5" x1="276.8" y1="193.6" x2="278.4" y2="193.6"/>
<line class="st5" x1="276.8" y1="191.9" x2="278.4" y2="191.9"/>
<line class="st5" x1="276.8" y1="190.2" x2="278.4" y2="190.2"/>
<line class="st5" x1="276.8" y1="188.4" x2="278.4" y2="188.4"/>
<line class="st5" x1="276.8" y1="186.7" x2="278.4" y2="186.7"/>
<line class="st5" x1="276.8" y1="185" x2="278.4" y2="185"/>
<line class="st5" x1="276.8" y1="183.2" x2="278.4" y2="183.2"/>
<line class="st5" x1="276.8" y1="181.5" x2="278.4" y2="181.5"/>
<line class="st5" x1="276.8" y1="179.8" x2="278.4" y2="179.8"/>
<line class="st5" x1="276.8" y1="178.1" x2="278.4" y2="178.1"/>
<line class="st5" x1="276.8" y1="176.3" x2="278.4" y2="176.3"/>
<line class="st5" x1="276.8" y1="174.6" x2="278.4" y2="174.6"/>
<line class="st5" x1="276.8" y1="172.9" x2="278.4" y2="172.9"/>
<line class="st5" x1="276.8" y1="171.1" x2="278.4" y2="171.1"/>
<line class="st5" x1="276.8" y1="169.4" x2="278.4" y2="169.4"/>
<line class="st5" x1="276.8" y1="167.7" x2="278.4" y2="167.7"/>
<line class="st5" x1="276.8" y1="166" x2="278.4" y2="166"/>
<line class="st5" x1="276.8" y1="164.2" x2="278.4" y2="164.2"/>
<line class="st5" x1="276.8" y1="162.5" x2="278.4" y2="162.5"/>
<line class="st5" x1="276.8" y1="160.8" x2="278.4" y2="160.8"/>
<line class="st5" x1="276.8" y1="159" x2="278.4" y2="159"/>
<line class="st5" x1="276.8" y1="157.3" x2="278.4" y2="157.3"/>
<line class="st5" x1="276.8" y1="155.6" x2="278.4" y2="155.6"/>
<line class="st5" x1="276.8" y1="153.8" x2="278.4" y2="153.8"/>
<line class="st5" x1="276.8" y1="152.1" x2="278.4" y2="152.1"/>
<line class="st5" x1="276.8" y1="150.4" x2="278.4" y2="150.4"/>
<line class="st5" x1="276.8" y1="148.7" x2="278.4" y2="148.7"/>
<path class="st0" d="M267.2,196.3c0,0,0-50.3,0-51.3c0-0.2-0.3-0.5-0.8-0.5c-0.4,0-0.8,0.3-0.8,0.5c0,0.9,0,51.3,0,51.3H267.2"/>
<line class="st5" x1="266.4" y1="144.3" x2="266.4" y2="196.8"/>
<line class="st5" x1="265.5" y1="145.6" x2="267.2" y2="145.6"/>
<line class="st5" x1="265.4" y1="147.1" x2="267.3" y2="147.1"/>
<line class="st5" x1="265.6" y1="193.6" x2="267.2" y2="193.6"/>
<line class="st5" x1="265.6" y1="191.8" x2="267.2" y2="191.8"/>
<line class="st5" x1="265.6" y1="190.1" x2="267.2" y2="190.1"/>
<line class="st5" x1="265.6" y1="188.4" x2="267.2" y2="188.4"/>
<line class="st5" x1="265.6" y1="186.7" x2="267.2" y2="186.7"/>
<line class="st5" x1="265.6" y1="184.9" x2="267.2" y2="184.9"/>
<line class="st5" x1="265.6" y1="183.2" x2="267.2" y2="183.2"/>
<line class="st5" x1="265.6" y1="181.5" x2="267.2" y2="181.5"/>
<line class="st5" x1="265.6" y1="179.7" x2="267.2" y2="179.7"/>
<line class="st5" x1="265.6" y1="178" x2="267.2" y2="178"/>
<line class="st5" x1="265.6" y1="176.3" x2="267.2" y2="176.3"/>
<line class="st5" x1="265.6" y1="174.5" x2="267.2" y2="174.5"/>
<line class="st5" x1="265.6" y1="172.8" x2="267.2" y2="172.8"/>
<line class="st5" x1="265.6" y1="171.1" x2="267.2" y2="171.1"/>
<line class="st5" x1="265.6" y1="169.4" x2="267.2" y2="169.4"/>
<line class="st5" x1="265.6" y1="167.6" x2="267.2" y2="167.6"/>
<line class="st5" x1="265.6" y1="165.9" x2="267.2" y2="165.9"/>
<line class="st5" x1="265.6" y1="164.2" x2="267.2" y2="164.2"/>
<line class="st5" x1="265.6" y1="162.4" x2="267.2" y2="162.4"/>
<line class="st5" x1="265.6" y1="160.7" x2="267.2" y2="160.7"/>
<line class="st5" x1="265.6" y1="159" x2="267.2" y2="159"/>
<line class="st5" x1="265.6" y1="157.3" x2="267.2" y2="157.3"/>
<line class="st5" x1="265.6" y1="155.5" x2="267.2" y2="155.5"/>
<line class="st5" x1="265.6" y1="153.8" x2="267.2" y2="153.8"/>
<line class="st5" x1="265.6" y1="152.1" x2="267.2" y2="152.1"/>
<line class="st5" x1="265.6" y1="150.3" x2="267.2" y2="150.3"/>
<line class="st5" x1="265.6" y1="148.6" x2="267.2" y2="148.6"/>
<path class="st0" d="M272.3,131.8c0,0,0-0.9,0-1.2c0-0.2-0.2-0.5-0.5-0.5s-0.5,0.3-0.5,0.5c0,0.3,0,1.2,0,1.2H272.3"/>
<path class="st0" d="M284.6,196.4c0,0,0-37.1,0-38c0-0.2-0.3-0.5-0.8-0.5c-0.4,0-0.8,0.3-0.8,0.5c0,0.9,0,38,0,38L284.6,196.4"/>
<line class="st5" x1="283.8" y1="157.7" x2="283.8" y2="196.6"/>
<line class="st5" x1="282.9" y1="159" x2="284.6" y2="159"/>
<line class="st5" x1="282.8" y1="160.5" x2="284.7" y2="160.5"/>
<line class="st5" x1="282.9" y1="194.8" x2="284.6" y2="194.8"/>
<line class="st5" x1="282.9" y1="193.1" x2="284.6" y2="193.1"/>
<line class="st5" x1="282.9" y1="191.4" x2="284.6" y2="191.4"/>
<line class="st5" x1="282.9" y1="189.6" x2="284.6" y2="189.6"/>
<line class="st5" x1="282.9" y1="187.9" x2="284.6" y2="187.9"/>
<line class="st5" x1="282.9" y1="186.2" x2="284.6" y2="186.2"/>
<line class="st5" x1="282.9" y1="184.4" x2="284.6" y2="184.4"/>
<line class="st5" x1="282.9" y1="182.7" x2="284.6" y2="182.7"/>
<line class="st5" x1="282.9" y1="181" x2="284.6" y2="181"/>
<line class="st5" x1="282.9" y1="179.2" x2="284.6" y2="179.2"/>
<line class="st5" x1="282.9" y1="177.5" x2="284.6" y2="177.5"/>
<line class="st5" x1="282.9" y1="175.8" x2="284.6" y2="175.8"/>
<line class="st5" x1="282.9" y1="174.1" x2="284.6" y2="174.1"/>
<line class="st5" x1="282.9" y1="172.3" x2="284.6" y2="172.3"/>
<line class="st5" x1="282.9" y1="170.6" x2="284.6" y2="170.6"/>
<line class="st5" x1="282.9" y1="168.9" x2="284.6" y2="168.9"/>
<line class="st5" x1="282.9" y1="167.1" x2="284.6" y2="167.1"/>
<line class="st5" x1="282.9" y1="165.4" x2="284.6" y2="165.4"/>
<line class="st5" x1="282.9" y1="163.7" x2="284.6" y2="163.7"/>
<line class="st5" x1="282.9" y1="162" x2="284.6" y2="162"/>
<rect x="125.8" y="179.5" class="st0" width="0.9" height="17.8"/>
<rect x="127.2" y="179.5" class="st0" width="0.9" height="17.8"/>
<rect x="139.2" y="179.5" class="st0" width="0.9" height="17.8"/>
<rect x="140.6" y="179.5" class="st0" width="0.9" height="17.8"/>
<rect x="141.5" y="177.1" class="st0" width="0.7" height="1.3"/>
<rect x="141.5" y="177.1" class="st6" width="0.7" height="1.3"/>
<path class="st6" d="M142.2,178.5"/>
<rect x="140.2" y="177.1" class="st0" width="0.7" height="1.3"/>
<rect x="140.2" y="177.1" class="st6" width="0.7" height="1.3"/>
<path class="st6" d="M140.9,178.5"/>
<rect x="138.9" y="177.1" class="st0" width="0.7" height="1.3"/>
<rect x="138.9" y="177.1" class="st6" width="0.7" height="1.3"/>
<path class="st6" d="M139.6,178.5"/>
<rect x="137.7" y="177.1" class="st0" width="0.7" height="1.3"/>
<rect x="137.7" y="177.1" class="st6" width="0.7" height="1.3"/>
<path class="st6" d="M138.3,178.5"/>
<rect x="136.4" y="177.1" class="st0" width="0.7" height="1.3"/>
<rect x="136.4" y="177.1" class="st6" width="0.7" height="1.3"/>
<path class="st6" d="M137.1,178.5"/>
<rect x="135.1" y="177.1" class="st0" width="0.7" height="1.3"/>
<rect x="135.1" y="177.1" class="st6" width="0.7" height="1.3"/>
<path class="st6" d="M135.8,178.5"/>
<rect x="133.8" y="177.1" class="st0" width="0.7" height="1.3"/>
<rect x="133.8" y="177.1" class="st6" width="0.7" height="1.3"/>
<path class="st6" d="M134.5,178.5"/>
<rect x="132.5" y="177.1" class="st0" width="0.7" height="1.3"/>
<rect x="132.5" y="177.1" class="st6" width="0.7" height="1.3"/>
<path class="st6" d="M133.2,178.5"/>
<rect x="131.3" y="177.1" class="st0" width="0.7" height="1.3"/>
<rect x="131.3" y="177.1" class="st6" width="0.7" height="1.3"/>
<path class="st6" d="M132,178.5"/>
<rect x="130" y="177.1" class="st0" width="0.7" height="1.3"/>
<rect x="130" y="177.1" class="st6" width="0.7" height="1.3"/>
<path class="st6" d="M130.7,178.5"/>
<rect x="128.7" y="177.1" class="st0" width="0.7" height="1.3"/>
<rect x="128.7" y="177.1" class="st6" width="0.7" height="1.3"/>
<path class="st6" d="M129.4,178.5"/>
<rect x="127.4" y="177.1" class="st0" width="0.7" height="1.3"/>
<rect x="127.4" y="177.1" class="st6" width="0.7" height="1.3"/>
<path class="st6" d="M128.1,178.5"/>
<rect x="126.1" y="177.1" class="st0" width="0.7" height="1.3"/>
<rect x="126.1" y="177.1" class="st6" width="0.7" height="1.3"/>
<path class="st6" d="M126.8,178.5"/>
<rect x="124.9" y="177.1" class="st0" width="0.7" height="1.3"/>
<rect x="124.9" y="177.1" class="st6" width="0.7" height="1.3"/>
<path class="st6" d="M125.6,178.5"/>
<rect x="244.2" y="186.9" class="st0" width="1" height="1.8"/>
<rect x="244.2" y="184.1" class="st0" width="1" height="1.8"/>
<rect x="244.2" y="181.3" class="st0" width="1" height="1.8"/>
<rect x="244.2" y="178.4" class="st0" width="1" height="1.8"/>
<rect x="244.2" y="175.6" class="st0" width="1" height="1.8"/>
<rect x="244.2" y="172.8" class="st0" width="1" height="1.8"/>
<rect x="244.2" y="169.9" class="st0" width="1" height="1.8"/>
<rect x="244.2" y="167.1" class="st0" width="1" height="1.8"/>
<rect x="244.2" y="164.3" class="st0" width="1" height="1.8"/>
<rect x="246.2" y="186.9" class="st0" width="1" height="1.8"/>
<rect x="246.2" y="184.1" class="st0" width="1" height="1.8"/>
<rect x="246.2" y="181.3" class="st0" width="1" height="1.8"/>
<rect x="246.2" y="178.4" class="st0" width="1" height="1.8"/>
<rect x="246.2" y="175.6" class="st0" width="1" height="1.8"/>
<rect x="246.2" y="172.8" class="st0" width="1" height="1.8"/>
<rect x="246.2" y="169.9" class="st0" width="1" height="1.8"/>
<rect x="246.2" y="167.1" class="st0" width="1" height="1.8"/>
<rect x="246.2" y="164.3" class="st0" width="1" height="1.8"/>
<rect x="248.1" y="186.9" class="st0" width="1" height="1.8"/>
<rect x="248.1" y="184.1" class="st0" width="1" height="1.8"/>
<rect x="248.1" y="181.3" class="st0" width="1" height="1.8"/>
<rect x="248.1" y="178.4" class="st0" width="1" height="1.8"/>
<rect x="244.2" y="195.4" class="st0" width="1" height="1.8"/>
<rect x="244.2" y="192.6" class="st0" width="1" height="1.8"/>
<rect x="244.2" y="189.8" class="st0" width="1" height="1.8"/>
<rect x="246.2" y="195.4" class="st0" width="1" height="1.8"/>
<rect x="246.2" y="192.6" class="st0" width="1" height="1.8"/>
<rect x="246.2" y="189.8" class="st0" width="1" height="1.8"/>
<rect x="248.1" y="195.4" class="st0" width="1" height="1.8"/>
<rect x="248.1" y="192.6" class="st0" width="1" height="1.8"/>
<rect x="248.1" y="189.8" class="st0" width="1" height="1.8"/>
<rect x="248.1" y="175.6" class="st0" width="1" height="1.8"/>
<rect x="248.1" y="172.8" class="st0" width="1" height="1.8"/>
<rect x="248.1" y="169.9" class="st0" width="1" height="1.8"/>
<rect x="248.1" y="167.1" class="st0" width="1" height="1.8"/>
<rect x="248.1" y="164.3" class="st0" width="1" height="1.8"/>
<polyline class="st3" points="174.9,197.3 174.9,193.2 171.9,193.2 171.9,145.4 167.6,145.4 167.6,126.1 167,126.1 167,124.6 
	164.7,124.6 164.7,125.9 164.3,125.9 164.3,126.6 163.9,126.6 163.9,121.8 157.2,121.8 157.2,126.6 156.8,126.6 156.8,125.9 
	156.4,125.9 156.4,124.6 154,124.6 154,126.1 153.4,126.1 153.4,145.4 149.2,145.4 149.2,193.2 146.2,193.2 146.2,197.3 
	174.9,197.3 "/>
<rect x="157.8" y="122.4" class="st0" width="5.4" height="6.2"/>
<rect x="159.3" y="125.6" class="st3" width="2.4" height="4.1"/>
<rect x="157.7" y="130.7" class="st0" width="0.5" height="63.2"/>
<rect x="158.6" y="130.7" class="st0" width="0.5" height="63.2"/>
<rect x="162.1" y="130.7" class="st0" width="0.5" height="63.2"/>
<rect x="163" y="130.7" class="st0" width="0.5" height="63.2"/>
<rect x="159.7" y="131.2" class="st0" width="1.8" height="0.4"/>
<rect x="159.7" y="132.2" class="st0" width="1.8" height="0.4"/>
<rect x="159.7" y="133.1" class="st0" width="1.8" height="0.4"/>
<rect x="159.7" y="134" class="st0" width="1.8" height="0.4"/>
<rect x="159.7" y="134.9" class="st0" width="1.8" height="0.4"/>
<rect x="159.7" y="135.9" class="st0" width="1.8" height="0.4"/>
<rect x="159.7" y="136.8" class="st0" width="1.8" height="0.4"/>
<rect x="159.7" y="137.7" class="st0" width="1.8" height="0.4"/>
<rect x="159.7" y="138.7" class="st0" width="1.8" height="0.4"/>
<rect x="159.7" y="139.6" class="st0" width="1.8" height="0.4"/>
<rect x="159.7" y="140.5" class="st0" width="1.8" height="0.4"/>
<rect x="159.7" y="141.4" class="st0" width="1.8" height="0.4"/>
<rect x="159.7" y="142.4" class="st0" width="1.8" height="0.4"/>
<rect x="159.7" y="143.3" class="st0" width="1.8" height="0.4"/>
<rect x="159.7" y="144.2" class="st0" width="1.8" height="0.4"/>
<rect x="159.7" y="145.2" class="st0" width="1.8" height="0.4"/>
<rect x="159.7" y="146.1" class="st0" width="1.8" height="0.4"/>
<rect x="159.7" y="147" class="st0" width="1.8" height="0.4"/>
<rect x="159.7" y="147.9" class="st0" width="1.8" height="0.4"/>
<rect x="159.7" y="148.9" class="st0" width="1.8" height="0.4"/>
<rect x="159.7" y="149.8" class="st0" width="1.8" height="0.4"/>
<rect x="159.7" y="150.7" class="st0" width="1.8" height="0.4"/>
<rect x="159.7" y="151.7" class="st0" width="1.8" height="0.4"/>
<rect x="159.7" y="152.6" class="st0" width="1.8" height="0.4"/>
<rect x="159.7" y="153.5" class="st0" width="1.8" height="0.4"/>
<rect x="159.7" y="154.5" class="st0" width="1.8" height="0.4"/>
<rect x="159.7" y="155.4" class="st0" width="1.8" height="0.4"/>
<rect x="159.7" y="156.3" class="st0" width="1.8" height="0.4"/>
<rect x="159.7" y="157.2" class="st0" width="1.8" height="0.4"/>
<rect x="159.7" y="158.2" class="st0" width="1.8" height="0.4"/>
<rect x="159.7" y="159.1" class="st0" width="1.8" height="0.4"/>
<rect x="159.7" y="160" class="st0" width="1.8" height="0.4"/>
<rect x="159.7" y="161" class="st0" width="1.8" height="0.4"/>
<rect x="159.7" y="161.9" class="st0" width="1.8" height="0.4"/>
<rect x="159.7" y="162.8" class="st0" width="1.8" height="0.4"/>
<rect x="159.7" y="163.7" class="st0" width="1.8" height="0.4"/>
<rect x="159.7" y="164.7" class="st0" width="1.8" height="0.4"/>
<rect x="159.7" y="165.6" class="st0" width="1.8" height="0.4"/>
<rect x="159.7" y="166.5" class="st0" width="1.8" height="0.4"/>
<rect x="159.7" y="167.5" class="st0" width="1.8" height="0.4"/>
<rect x="159.7" y="168.4" class="st0" width="1.8" height="0.4"/>
<rect x="159.7" y="169.3" class="st0" width="1.8" height="0.4"/>
<rect x="159.7" y="170.2" class="st0" width="1.8" height="0.4"/>
<rect x="159.7" y="171.2" class="st0" width="1.8" height="0.4"/>
<rect x="159.7" y="172.1" class="st0" width="1.8" height="0.4"/>
<rect x="159.7" y="173" class="st0" width="1.8" height="0.4"/>
<rect x="159.7" y="174" class="st0" width="1.8" height="0.4"/>
<rect x="159.7" y="174.9" class="st0" width="1.8" height="0.4"/>
<rect x="159.7" y="175.8" class="st0" width="1.8" height="0.4"/>
<rect x="159.7" y="176.7" class="st0" width="1.8" height="0.4"/>
<rect x="159.7" y="177.7" class="st0" width="1.8" height="0.4"/>
<rect x="159.7" y="178.6" class="st0" width="1.8" height="0.4"/>
<rect x="159.7" y="179.5" class="st0" width="1.8" height="0.4"/>
<rect x="159.7" y="180.5" class="st0" width="1.8" height="0.4"/>
<rect x="159.7" y="181.4" class="st0" width="1.8" height="0.4"/>
<rect x="159.7" y="182.3" class="st0" width="1.8" height="0.4"/>
<rect x="159.7" y="183.3" class="st0" width="1.8" height="0.4"/>
<rect x="159.7" y="184.2" class="st0" width="1.8" height="0.4"/>
<rect x="159.7" y="185.1" class="st0" width="1.8" height="0.4"/>
<rect x="159.7" y="186" class="st0" width="1.8" height="0.4"/>
<rect x="159.7" y="187" class="st0" width="1.8" height="0.4"/>
<rect x="159.7" y="187.9" class="st0" width="1.8" height="0.4"/>
<rect x="159.7" y="188.8" class="st0" width="1.8" height="0.4"/>
<rect x="159.7" y="189.8" class="st0" width="1.8" height="0.4"/>
<rect x="159.7" y="190.7" class="st0" width="1.8" height="0.4"/>
<rect x="159.7" y="191.6" class="st0" width="1.8" height="0.4"/>
<rect x="159.7" y="192.5" class="st0" width="1.8" height="0.4"/>
<rect x="159.7" y="193.5" class="st0" width="1.8" height="0.4"/>
<line class="st6" x1="162.7" y1="122.1" x2="162.7" y2="129.2"/>
<line class="st6" x1="161.9" y1="122.1" x2="161.9" y2="129.2"/>
<line class="st6" x1="161.2" y1="122.1" x2="161.2" y2="129.2"/>
<line class="st6" x1="160.4" y1="122.1" x2="160.4" y2="129.2"/>
<line class="st6" x1="159.7" y1="122.1" x2="159.7" y2="129.2"/>
<line class="st6" x1="158.9" y1="122.1" x2="158.9" y2="129.2"/>
<line class="st6" x1="158.2" y1="122.1" x2="158.2" y2="129.2"/>
<path class="st3" d="M234.8,98h-4.3l-1.7-4.6h-7.9l-1.6,4.6H215l7.7-20.2h4.2L234.8,98 M227.1,90l-2.4-6.6l-2.4,6.6H227.1z"/>
<path class="st3" d="M136.7,92.1c-1.1,1-3.2,1.7-4.8,1.7c-3.4,0-6.1-2.8-6.1-6.1c0-3.3,2.8-5.9,6.2-5.9c1.6,0,3.6,0.6,4.7,1.5
	l2.8-2.7c-1.9-1.7-4.6-2.8-7.4-2.8c-5.9,0-10.5,4.4-10.5,10.1s4.8,10.2,10.7,10.2c2.8,0,5.8-1.3,7.7-3L136.7,92.1"/>
<polyline class="st3" points="162.7,88.8 162.7,98.1 166.7,98.1 166.7,77.8 162.7,77.8 162.7,85 152.7,85 152.7,77.8 148.7,77.8 
	148.7,98.1 152.7,98.1 152.7,88.8 162.7,88.8 "/>
<rect x="177.5" y="77.8" class="st3" width="4.1" height="20.3"/>
<path class="st3" d="M207.3,92.2c-1.1,1-3.2,1.7-4.8,1.7c-3.4,0-6.1-2.8-6.1-6.1c0-3.3,2.8-5.9,6.2-5.9c1.6,0,3.6,0.6,4.7,1.5
	l2.8-2.7c-1.9-1.7-4.6-2.8-7.4-2.8c-5.9,0-10.5,4.4-10.5,10.1c0,5.7,4.8,10.2,10.7,10.2c2.8,0,5.8-1.3,7.7-3L207.3,92.2"/>
<path class="st3" d="M259.2,93.3l0-5.3h-8l0,3.6l3.8,0l0,0.7c-1.1,1-3.2,1.7-4.8,1.7c-3.4,0-6.1-2.9-6.1-6.1c0-3.3,2.8-5.9,6.2-5.9
	c1.6,0,3.6,0.6,4.7,1.6l2.8-2.7c-1.9-1.7-4.6-2.8-7.4-2.8c-5.9,0-10.5,4.4-10.5,10.1c0,5.7,4.8,10.3,10.7,10.3
	C256.8,98.4,259.2,93.3,259.2,93.3"/>
<path class="st3" d="M281.8,88c0,3.3-2.7,6-6,6c-3.3,0-6-2.7-6-6c0-3.3,2.7-6,6-6C279.1,82,281.8,84.7,281.8,88 M275.7,77.7
	c-5.6,0-10.2,4.6-10.2,10.2c0,5.6,4.6,10.2,10.2,10.2s10.2-4.6,10.2-10.2C285.9,82.3,281.4,77.7,275.7,77.7z"/>
</svg>
