<?xml version="1.0" encoding="utf-8"?>
<!-- Generator: Adobe Illustrator 20.1.0, SVG Export Plug-In . SVG Version: 6.00 Build 0)  -->
<svg version="1.1" id="Layer_1" xmlns="http://www.w3.org/2000/svg" xmlns:xlink="http://www.w3.org/1999/xlink" x="0px" y="0px"
	 viewBox="0 0 298 202" style="enable-background:new 0 0 298 202;" xml:space="preserve">
<style type="text/css">
	.st0{fill:#691F45;}
	.st1{fill:none;stroke:#EC218B;stroke-width:0.3835;}
	.st2{fill:none;stroke:#EC218B;stroke-width:0.1534;}
	.st3{fill:#EC218B;}
	.st4{fill:none;stroke:#691F45;stroke-width:0.2301;stroke-linecap:round;stroke-linejoin:bevel;}
	.st5{fill:none;stroke:#EC218B;stroke-width:0.2301;}
	.st6{fill:none;stroke:#EC218B;stroke-width:7.670963e-02;}
	.st7{fill:none;stroke:#691F45;stroke-width:0.2301;}
	.st8{fill:none;stroke:#691F45;stroke-width:0.6904;}
	.st9{fill:none;stroke:#691F45;stroke-width:0.1534;}
	.st10{fill:none;stroke:#691F45;stroke-width:7.670963e-02;}
</style>
<rect x="0" y="0.1" class="st0" width="298" height="202"/>
<line class="st1" x1="13.3" y1="98" x2="13.3" y2="90.9"/>
<line class="st2" x1="13.3" y1="91.2" x2="13.3" y2="84.9"/>
<line class="st1" x1="21" y1="98" x2="21" y2="90.9"/>
<line class="st2" x1="21" y1="91.2" x2="21" y2="84.9"/>
<rect x="12.3" y="96.7" class="st3" width="10.2" height="0.8"/>
<polyline class="st3" points="5.3,185.8 10.5,97.4 24.4,97.4 29.7,185.8 5.3,185.8 "/>
<rect x="11.1" y="98" class="st0" width="3" height="0.6"/>
<rect x="14.3" y="98" class="st0" width="3" height="0.6"/>
<rect x="17.6" y="98" class="st0" width="3" height="0.6"/>
<rect x="20.9" y="98" class="st0" width="3" height="0.6"/>
<polyline class="st4" points="17.1,98.6 10,106.5 25.7,120 8.4,134.2 27.6,151 6.4,167.5 29.7,185.8 "/>
<polyline class="st4" points="17.7,98.6 24.9,106.5 9.3,120 26.6,134.2 7.4,151 28.5,167.5 5.3,185.8 "/>
<line class="st2" x1="39.4" y1="65.3" x2="39.4" y2="75"/>
<line class="st5" x1="39.6" y1="67.8" x2="39.6" y2="76.6"/>
<rect x="40.9" y="61.9" class="st3" width="1.3" height="12.4"/>
<line class="st5" x1="41.5" y1="59.5" x2="41.5" y2="63.5"/>
<line class="st6" x1="41.5" y1="55.1" x2="41.5" y2="60.2"/>
<line class="st2" x1="49.3" y1="65.3" x2="49.3" y2="75"/>
<line class="st5" x1="49.5" y1="67.8" x2="49.5" y2="76.6"/>
<rect x="46.8" y="61.9" class="st3" width="1.3" height="12.4"/>
<line class="st5" x1="47.4" y1="59.5" x2="47.4" y2="63.5"/>
<line class="st6" x1="47.5" y1="55.1" x2="47.5" y2="60.2"/>
<polyline class="st3" points="33.4,185.5 33.4,93.7 38.7,93.7 38.7,74.2 41.7,74.2 41.7,73 47.7,73 47.7,74.3 50.2,74.3 50.2,185.5 
	33.4,185.5 "/>
<polygon class="st6" points="33.4,185.5 33.4,93.7 38.7,93.7 38.7,74.2 41.7,74.2 41.7,73 47.7,73 47.7,74.3 50.2,74.3 50.2,185.5 
	"/>
<rect x="49.1" y="74.8" class="st0" width="0.9" height="1.9"/>
<rect x="47.8" y="74.8" class="st0" width="0.9" height="1.9"/>
<rect x="46.6" y="74.8" class="st0" width="0.9" height="1.9"/>
<rect x="45.4" y="74.8" class="st0" width="0.9" height="1.9"/>
<rect x="44" y="74.8" class="st0" width="0.9" height="1.9"/>
<rect x="42.8" y="74.8" class="st0" width="0.9" height="1.9"/>
<rect x="41.5" y="74.8" class="st0" width="0.9" height="1.9"/>
<rect x="40.3" y="74.8" class="st0" width="0.9" height="1.9"/>
<rect x="39" y="74.8" class="st0" width="0.9" height="1.9"/>
<rect x="49" y="94.3" class="st0" width="0.9" height="1.9"/>
<rect x="47.6" y="94.3" class="st0" width="0.9" height="1.9"/>
<rect x="46.4" y="94.3" class="st0" width="0.9" height="1.9"/>
<rect x="45.2" y="94.3" class="st0" width="0.9" height="1.9"/>
<rect x="43.9" y="94.3" class="st0" width="0.9" height="1.9"/>
<rect x="42.6" y="94.3" class="st0" width="0.9" height="1.9"/>
<rect x="41.3" y="94.3" class="st0" width="0.9" height="1.9"/>
<rect x="40.1" y="94.3" class="st0" width="0.9" height="1.9"/>
<rect x="38.9" y="94.3" class="st0" width="0.9" height="1.9"/>
<rect x="37.5" y="94.3" class="st0" width="0.9" height="1.9"/>
<rect x="36.3" y="94.3" class="st0" width="0.9" height="1.9"/>
<rect x="35" y="94.3" class="st0" width="0.9" height="1.9"/>
<rect x="33.7" y="94.3" class="st0" width="0.9" height="1.9"/>
<rect x="49" y="119.3" class="st0" width="0.9" height="1.9"/>
<rect x="47.6" y="119.3" class="st0" width="0.9" height="1.9"/>
<rect x="46.4" y="119.3" class="st0" width="0.9" height="1.9"/>
<rect x="45.2" y="119.3" class="st0" width="0.9" height="1.9"/>
<rect x="43.9" y="119.3" class="st0" width="0.9" height="1.9"/>
<rect x="42.6" y="119.3" class="st0" width="0.9" height="1.9"/>
<rect x="41.3" y="119.3" class="st0" width="0.9" height="1.9"/>
<rect x="40.1" y="119.3" class="st0" width="0.9" height="1.9"/>
<rect x="38.9" y="119.3" class="st0" width="0.9" height="1.9"/>
<rect x="37.5" y="119.3" class="st0" width="0.9" height="1.9"/>
<rect x="36.3" y="119.3" class="st0" width="0.9" height="1.9"/>
<rect x="35" y="119.3" class="st0" width="0.9" height="1.9"/>
<rect x="33.7" y="119.3" class="st0" width="0.9" height="1.9"/>
<rect x="49" y="154.2" class="st0" width="0.9" height="1.9"/>
<rect x="47.6" y="154.2" class="st0" width="0.9" height="1.9"/>
<rect x="46.4" y="154.2" class="st0" width="0.9" height="1.9"/>
<rect x="45.2" y="154.2" class="st0" width="0.9" height="1.9"/>
<rect x="43.9" y="154.2" class="st0" width="0.9" height="1.9"/>
<rect x="42.6" y="154.2" class="st0" width="0.9" height="1.9"/>
<rect x="41.3" y="154.2" class="st0" width="0.9" height="1.9"/>
<rect x="40.1" y="154.2" class="st0" width="0.9" height="1.9"/>
<rect x="38.9" y="154.2" class="st0" width="0.9" height="1.9"/>
<rect x="37.5" y="154.2" class="st0" width="0.9" height="1.9"/>
<rect x="36.3" y="154.2" class="st0" width="0.9" height="1.9"/>
<rect x="35" y="154.2" class="st0" width="0.9" height="1.9"/>
<rect x="33.7" y="154.2" class="st0" width="0.9" height="1.9"/>
<polyline class="st3" points="64.9,124.4 54.6,131.7 54.6,185.5 77.1,185.5 77.1,131.7 66.4,124.4 66.4,129.9 64.9,129.9 
	64.9,124.4 "/>
<polyline class="st7" points="54.5,131.1 63.9,140.7 63.9,185.7 68.2,185.7 68.2,140.6 77.2,131.3 "/>
<rect x="82.2" y="90.5" class="st3" width="18.6" height="95.1"/>
<rect x="83.8" y="88.6" class="st3" width="15.1" height="96.8"/>
<line class="st7" x1="97.9" y1="89.4" x2="97.9" y2="185.2"/>
<line class="st7" x1="97.2" y1="89.4" x2="97.2" y2="185.2"/>
<line class="st7" x1="96.6" y1="89.4" x2="96.6" y2="185.2"/>
<line class="st7" x1="96" y1="89.4" x2="96" y2="185.2"/>
<line class="st7" x1="95.4" y1="89.4" x2="95.4" y2="185.2"/>
<line class="st7" x1="94.8" y1="89.4" x2="94.8" y2="185.2"/>
<line class="st7" x1="94" y1="89.4" x2="94" y2="185.2"/>
<line class="st7" x1="93.4" y1="89.4" x2="93.4" y2="185.2"/>
<line class="st7" x1="92.8" y1="89.4" x2="92.8" y2="185.2"/>
<line class="st7" x1="92.2" y1="89.4" x2="92.2" y2="185.2"/>
<line class="st7" x1="91.6" y1="89.4" x2="91.6" y2="185.2"/>
<line class="st7" x1="90.9" y1="89.4" x2="90.9" y2="185.2"/>
<line class="st7" x1="90.3" y1="89.4" x2="90.3" y2="185.2"/>
<line class="st7" x1="89.7" y1="89.4" x2="89.7" y2="185.2"/>
<line class="st7" x1="89.1" y1="89.4" x2="89.1" y2="185.2"/>
<line class="st7" x1="88.5" y1="89.4" x2="88.5" y2="185.2"/>
<line class="st7" x1="87.8" y1="89.4" x2="87.8" y2="185.2"/>
<line class="st7" x1="87.2" y1="89.4" x2="87.2" y2="185.2"/>
<line class="st7" x1="86.6" y1="89.4" x2="86.6" y2="185.2"/>
<line class="st7" x1="86" y1="89.4" x2="86" y2="185.2"/>
<line class="st7" x1="85.4" y1="89.4" x2="85.4" y2="185.2"/>
<line class="st7" x1="84.7" y1="89.4" x2="84.7" y2="185.2"/>
<polyline class="st3" points="121.5,185.6 121.5,116 113.3,105.4 113.2,105.4 105,116 105,185.6 121.5,185.6 "/>
<polyline class="st3" points="120.3,185.6 120.3,126.2 113.3,117.2 113.3,117.2 106.2,126.2 106.2,185.6 120.3,185.6 "/>
<polygon class="st7" points="120.3,185.6 120.3,126.2 113.3,117.2 113.3,117.2 106.2,126.2 106.2,185.6 "/>
<polyline class="st3" points="118.7,185.6 118.7,139.6 113.3,132.7 113.3,132.7 107.8,139.6 107.8,185.6 118.7,185.6 "/>
<polygon class="st7" points="118.7,185.6 118.7,139.6 113.3,132.7 113.3,132.7 107.8,139.6 107.8,185.6 "/>
<line class="st8" x1="113.3" y1="105" x2="113.3" y2="185.6"/>
<polyline class="st3" points="112.6,106.4 113.3,93 113.9,106.4 "/>
<polyline class="st3" points="147.4,185.2 147.4,128.7 145.5,128.7 145.5,125.8 145,125.8 144,124.2 142.9,125.7 142.3,125.7 
	142.3,128.7 140.6,128.7 140.6,130.7 133.5,130.7 133.5,128.7 131.8,128.7 131.8,125.7 131.1,125.7 130.1,124.2 129.1,125.8 
	128.5,125.8 128.5,128.7 126.6,128.7 126.6,185.2 147.4,185.2 "/>
<polygon class="st6" points="147.4,185.2 147.4,128.7 145.5,128.7 145.5,125.8 145,125.8 144,124.2 142.9,125.7 142.3,125.7 
	142.3,128.7 140.6,128.7 140.6,130.7 133.5,130.7 133.5,128.7 131.8,128.7 131.8,125.7 131.1,125.7 130.1,124.2 129.1,125.8 
	128.5,125.8 128.5,128.7 126.6,128.7 126.6,185.2 "/>
<rect x="129" y="126.1" class="st0" width="2.4" height="2.4"/>
<rect x="142.7" y="126.1" class="st0" width="2.4" height="2.4"/>
<rect x="128.9" y="129.1" class="st0" width="0.9" height="1.6"/>
<rect x="130.3" y="129.1" class="st0" width="0.9" height="1.6"/>
<rect x="131.8" y="129.5" class="st0" width="0.8" height="1.3"/>
<rect x="127.5" y="129.5" class="st0" width="0.8" height="1.3"/>
<rect x="128.9" y="131.3" class="st0" width="0.9" height="3.9"/>
<rect x="130.3" y="131.3" class="st0" width="0.9" height="3.9"/>
<rect x="128.9" y="135.6" class="st0" width="0.9" height="27.9"/>
<rect x="130.3" y="135.6" class="st0" width="0.9" height="27.9"/>
<rect x="131.8" y="131.3" class="st0" width="0.8" height="3.9"/>
<rect x="127.5" y="131.3" class="st0" width="0.8" height="3.9"/>
<rect x="142.7" y="131.3" class="st0" width="0.9" height="3.9"/>
<rect x="144.2" y="131.3" class="st0" width="0.9" height="3.9"/>
<rect x="142.7" y="135.6" class="st0" width="0.9" height="27.9"/>
<rect x="144.2" y="135.6" class="st0" width="0.9" height="27.9"/>
<rect x="145.6" y="131.3" class="st0" width="0.8" height="3.9"/>
<rect x="141.4" y="131.3" class="st0" width="0.8" height="3.9"/>
<rect x="142.7" y="129.1" class="st0" width="0.9" height="1.6"/>
<rect x="144.2" y="129.1" class="st0" width="0.9" height="1.6"/>
<rect x="145.6" y="129.5" class="st0" width="0.8" height="1.3"/>
<rect x="141.4" y="129.5" class="st0" width="0.8" height="1.3"/>
<polyline class="st3" points="191.7,114.6 200.1,118.8 200.1,185 183,185 183,118.8 191.4,114.6 191.7,114.6 "/>
<rect x="184.4" y="122.2" class="st0" width="2.8" height="2.8"/>
<rect x="187.7" y="122.2" class="st0" width="1" height="2.8"/>
<rect x="195.8" y="122.2" class="st0" width="2.8" height="2.8"/>
<rect x="194.2" y="122.2" class="st0" width="1" height="2.8"/>
<rect x="189.2" y="122.2" class="st0" width="4.3" height="2.8"/>
<rect x="184.4" y="125.4" class="st0" width="2.8" height="0.6"/>
<rect x="187.7" y="125.4" class="st0" width="1" height="0.6"/>
<rect x="195.8" y="125.4" class="st0" width="2.8" height="0.6"/>
<rect x="194.2" y="125.4" class="st0" width="1" height="0.6"/>
<rect x="189.2" y="125.4" class="st0" width="4.3" height="0.6"/>
<rect x="184.4" y="139.7" class="st0" width="2.8" height="0.6"/>
<rect x="187.7" y="139.7" class="st0" width="1" height="0.6"/>
<rect x="195.8" y="139.7" class="st0" width="2.8" height="0.6"/>
<rect x="194.2" y="139.7" class="st0" width="1" height="0.6"/>
<rect x="189.2" y="139.7" class="st0" width="4.3" height="0.6"/>
<rect x="184.4" y="129.9" class="st0" width="2.8" height="0.6"/>
<rect x="187.7" y="129.9" class="st0" width="1" height="0.6"/>
<rect x="195.8" y="129.9" class="st0" width="2.8" height="0.6"/>
<rect x="194.2" y="129.9" class="st0" width="1" height="0.6"/>
<rect x="184.4" y="134.7" class="st0" width="2.8" height="0.6"/>
<rect x="187.7" y="134.7" class="st0" width="1" height="0.6"/>
<rect x="195.8" y="134.7" class="st0" width="2.8" height="0.6"/>
<rect x="194.2" y="134.7" class="st0" width="1" height="0.6"/>
<rect x="184.4" y="144.5" class="st0" width="2.8" height="0.6"/>
<rect x="187.7" y="144.5" class="st0" width="1" height="0.6"/>
<rect x="195.8" y="144.5" class="st0" width="2.8" height="0.6"/>
<rect x="194.2" y="144.5" class="st0" width="1" height="0.6"/>
<rect x="184.4" y="126.6" class="st0" width="2.8" height="2.8"/>
<rect x="187.7" y="126.6" class="st0" width="1" height="2.8"/>
<rect x="195.8" y="126.6" class="st0" width="2.8" height="2.8"/>
<rect x="194.2" y="126.6" class="st0" width="1" height="2.8"/>
<rect x="184.4" y="131.3" class="st0" width="2.8" height="2.8"/>
<rect x="187.7" y="131.3" class="st0" width="1" height="2.8"/>
<rect x="195.8" y="131.3" class="st0" width="2.8" height="2.8"/>
<rect x="194.2" y="131.3" class="st0" width="1" height="2.8"/>
<rect x="184.4" y="136.1" class="st0" width="2.8" height="2.8"/>
<rect x="187.7" y="136.1" class="st0" width="1" height="2.8"/>
<rect x="195.8" y="136.1" class="st0" width="2.8" height="2.8"/>
<rect x="194.2" y="136.1" class="st0" width="1" height="2.8"/>
<rect x="184.4" y="154.1" class="st0" width="2.8" height="0.6"/>
<rect x="187.7" y="154.1" class="st0" width="1" height="0.6"/>
<rect x="195.8" y="154.1" class="st0" width="2.8" height="0.6"/>
<rect x="194.2" y="154.1" class="st0" width="1" height="0.6"/>
<rect x="189.2" y="154.1" class="st0" width="4.3" height="0.6"/>
<rect x="184.4" y="150.5" class="st0" width="2.8" height="2.8"/>
<rect x="187.7" y="150.5" class="st0" width="1" height="2.8"/>
<rect x="195.8" y="150.5" class="st0" width="2.8" height="2.8"/>
<rect x="194.2" y="150.5" class="st0" width="1" height="2.8"/>
<rect x="184.4" y="149.2" class="st0" width="2.8" height="0.6"/>
<rect x="187.7" y="149.2" class="st0" width="1" height="0.6"/>
<rect x="195.8" y="149.2" class="st0" width="2.8" height="0.6"/>
<rect x="194.2" y="149.2" class="st0" width="1" height="0.6"/>
<rect x="184.4" y="145.6" class="st0" width="2.8" height="2.8"/>
<rect x="187.7" y="145.6" class="st0" width="1" height="2.8"/>
<rect x="195.8" y="145.6" class="st0" width="2.8" height="2.8"/>
<rect x="194.2" y="145.6" class="st0" width="1" height="2.8"/>
<rect x="189.2" y="126.6" class="st0" width="4.3" height="12.5"/>
<rect x="184.4" y="141" class="st0" width="2.8" height="2.8"/>
<rect x="187.7" y="141" class="st0" width="1" height="2.8"/>
<rect x="195.8" y="141" class="st0" width="2.8" height="2.8"/>
<rect x="194.2" y="141" class="st0" width="1" height="2.8"/>
<rect x="189.2" y="141" class="st0" width="4.3" height="12.5"/>
<rect x="184.4" y="158.9" class="st0" width="2.8" height="0.6"/>
<rect x="187.7" y="158.9" class="st0" width="1" height="0.6"/>
<rect x="195.8" y="158.9" class="st0" width="2.8" height="0.6"/>
<rect x="194.2" y="158.9" class="st0" width="1" height="0.6"/>
<rect x="184.4" y="168.5" class="st0" width="2.8" height="0.6"/>
<rect x="187.7" y="168.5" class="st0" width="1" height="0.6"/>
<rect x="195.8" y="168.5" class="st0" width="2.8" height="0.6"/>
<rect x="194.2" y="168.5" class="st0" width="1" height="0.6"/>
<rect x="189.2" y="168.5" class="st0" width="4.3" height="0.6"/>
<rect x="184.4" y="164.9" class="st0" width="2.8" height="2.8"/>
<rect x="187.7" y="164.9" class="st0" width="1" height="2.8"/>
<rect x="195.8" y="164.9" class="st0" width="2.8" height="2.8"/>
<rect x="194.2" y="164.9" class="st0" width="1" height="2.8"/>
<rect x="184.4" y="163.6" class="st0" width="2.8" height="0.6"/>
<rect x="187.7" y="163.6" class="st0" width="1" height="0.6"/>
<rect x="195.8" y="163.6" class="st0" width="2.8" height="0.6"/>
<rect x="194.2" y="163.6" class="st0" width="1" height="0.6"/>
<rect x="184.4" y="160" class="st0" width="2.8" height="2.8"/>
<rect x="187.7" y="160" class="st0" width="1" height="2.8"/>
<rect x="195.8" y="160" class="st0" width="2.8" height="2.8"/>
<rect x="194.2" y="160" class="st0" width="1" height="2.8"/>
<rect x="184.4" y="155.3" class="st0" width="2.8" height="2.8"/>
<rect x="187.7" y="155.3" class="st0" width="1" height="2.8"/>
<rect x="195.8" y="155.3" class="st0" width="2.8" height="2.8"/>
<rect x="194.2" y="155.3" class="st0" width="1" height="2.8"/>
<rect x="189.2" y="155.3" class="st0" width="4.3" height="12.5"/>
<polyline class="st0" points="198.8,119.3 191.6,115.8 191.5,115.8 184.3,119.3 198.8,119.3 "/>
<rect x="184.4" y="173.4" class="st0" width="2.8" height="0.6"/>
<rect x="187.7" y="173.4" class="st0" width="1" height="0.6"/>
<rect x="195.8" y="173.4" class="st0" width="2.8" height="0.6"/>
<rect x="194.2" y="173.4" class="st0" width="1" height="0.6"/>
<rect x="184.4" y="183" class="st0" width="2.8" height="0.6"/>
<rect x="187.7" y="183" class="st0" width="1" height="0.6"/>
<rect x="195.8" y="183" class="st0" width="2.8" height="0.6"/>
<rect x="194.2" y="183" class="st0" width="1" height="0.6"/>
<rect x="189.2" y="183" class="st0" width="4.3" height="0.6"/>
<rect x="184.4" y="179.4" class="st0" width="2.8" height="2.8"/>
<rect x="187.7" y="179.4" class="st0" width="1" height="2.8"/>
<rect x="195.8" y="179.4" class="st0" width="2.8" height="2.8"/>
<rect x="194.2" y="179.4" class="st0" width="1" height="2.8"/>
<rect x="184.4" y="178.2" class="st0" width="2.8" height="0.6"/>
<rect x="187.7" y="178.2" class="st0" width="1" height="0.6"/>
<rect x="195.8" y="178.2" class="st0" width="2.8" height="0.6"/>
<rect x="194.2" y="178.2" class="st0" width="1" height="0.6"/>
<rect x="184.4" y="174.6" class="st0" width="2.8" height="2.8"/>
<rect x="187.7" y="174.6" class="st0" width="1" height="2.8"/>
<rect x="195.8" y="174.6" class="st0" width="2.8" height="2.8"/>
<rect x="194.2" y="174.6" class="st0" width="1" height="2.8"/>
<rect x="184.4" y="169.9" class="st0" width="2.8" height="2.8"/>
<rect x="187.7" y="169.9" class="st0" width="1" height="2.8"/>
<rect x="195.8" y="169.9" class="st0" width="2.8" height="2.8"/>
<rect x="194.2" y="169.9" class="st0" width="1" height="2.8"/>
<rect x="189.2" y="169.9" class="st0" width="4.3" height="12.5"/>
<path class="st0" d="M188.8,120.2v1.6h-1.1v-1.6c0,0,0.1-0.4,0.5-0.4C188.7,119.8,188.8,120.2,188.8,120.2"/>
<path class="st0" d="M185.4,120.2v1.6h-1.1v-1.6c0,0,0.1-0.4,0.5-0.4C185.4,119.8,185.4,120.2,185.4,120.2"/>
<path class="st0" d="M187.2,120.2v1.6H186v-1.6c0,0,0.1-0.4,0.5-0.4C187.1,119.8,187.2,120.2,187.2,120.2"/>
<path class="st0" d="M198.6,120.2v1.6h-1.1v-1.6c0,0,0.1-0.4,0.5-0.4C198.5,119.8,198.6,120.2,198.6,120.2"/>
<path class="st0" d="M195.2,120.2v1.6h-1.1v-1.6c0,0,0.1-0.4,0.5-0.4C195.2,119.8,195.2,120.2,195.2,120.2"/>
<path class="st0" d="M197,120.2v1.6h-1.1v-1.6c0,0,0.1-0.4,0.5-0.4C197,119.8,197,120.2,197,120.2"/>
<path class="st0" d="M193.7,120.2v1.6h-1.1v-1.6c0,0,0.1-0.4,0.5-0.4C193.6,119.8,193.7,120.2,193.7,120.2"/>
<path class="st0" d="M190.3,120.2v1.6h-1.1v-1.6c0,0,0.1-0.4,0.5-0.4C190.3,119.8,190.3,120.2,190.3,120.2"/>
<path class="st0" d="M192,120.2v1.6h-1.1v-1.6c0,0,0.1-0.4,0.5-0.4C191.9,119.8,192,120.2,192,120.2"/>
<rect x="206" y="118.7" class="st3" width="29" height="66.2"/>
<rect x="206" y="118.7" class="st6" width="29" height="66.2"/>
<path class="st6" d="M206,118.7"/>
<line class="st7" x1="230.9" y1="123.4" x2="230.9" y2="180.1"/>
<line class="st7" x1="226.7" y1="123.4" x2="226.7" y2="180.1"/>
<line class="st7" x1="222.6" y1="123.4" x2="222.6" y2="180.1"/>
<line class="st7" x1="218.5" y1="123.4" x2="218.5" y2="180.1"/>
<line class="st7" x1="214.3" y1="123.4" x2="214.3" y2="180.1"/>
<line class="st7" x1="210.2" y1="123.4" x2="210.2" y2="180.1"/>
<line class="st9" x1="206" y1="180.3" x2="234.9" y2="180.3"/>
<line class="st9" x1="206" y1="179" x2="234.9" y2="179"/>
<line class="st9" x1="206" y1="177.8" x2="234.9" y2="177.8"/>
<line class="st9" x1="206" y1="176.5" x2="234.9" y2="176.5"/>
<line class="st9" x1="206" y1="175.4" x2="234.9" y2="175.4"/>
<line class="st9" x1="206" y1="174.2" x2="234.9" y2="174.2"/>
<line class="st9" x1="206" y1="172.9" x2="234.9" y2="172.9"/>
<line class="st9" x1="206" y1="171.8" x2="234.9" y2="171.8"/>
<line class="st9" x1="206" y1="170.5" x2="234.9" y2="170.5"/>
<line class="st9" x1="206" y1="169.3" x2="234.9" y2="169.3"/>
<line class="st9" x1="206" y1="168.2" x2="234.9" y2="168.2"/>
<line class="st9" x1="206" y1="166.9" x2="234.9" y2="166.9"/>
<line class="st9" x1="206" y1="165.7" x2="234.9" y2="165.7"/>
<line class="st9" x1="206" y1="160.9" x2="234.9" y2="160.9"/>
<line class="st9" x1="206" y1="159.7" x2="234.9" y2="159.7"/>
<line class="st9" x1="206" y1="158.4" x2="234.9" y2="158.4"/>
<line class="st9" x1="206" y1="157.3" x2="234.9" y2="157.3"/>
<line class="st9" x1="206" y1="156.1" x2="234.9" y2="156.1"/>
<line class="st9" x1="206" y1="154.8" x2="234.9" y2="154.8"/>
<line class="st9" x1="206" y1="153.6" x2="234.9" y2="153.6"/>
<line class="st9" x1="206" y1="152.5" x2="234.9" y2="152.5"/>
<line class="st9" x1="206" y1="151.2" x2="234.9" y2="151.2"/>
<line class="st9" x1="206" y1="150" x2="234.9" y2="150"/>
<line class="st9" x1="206" y1="148.8" x2="234.9" y2="148.8"/>
<line class="st9" x1="206" y1="147.6" x2="234.9" y2="147.6"/>
<line class="st9" x1="206" y1="146.4" x2="234.9" y2="146.4"/>
<line class="st9" x1="206" y1="145.2" x2="234.9" y2="145.2"/>
<line class="st9" x1="206" y1="144" x2="234.9" y2="144"/>
<line class="st9" x1="206" y1="142.7" x2="234.9" y2="142.7"/>
<line class="st9" x1="206" y1="141.6" x2="234.9" y2="141.6"/>
<line class="st9" x1="206" y1="140.4" x2="234.9" y2="140.4"/>
<line class="st9" x1="206" y1="139.1" x2="234.9" y2="139.1"/>
<line class="st9" x1="206" y1="138" x2="234.9" y2="138"/>
<line class="st9" x1="206" y1="136.7" x2="234.9" y2="136.7"/>
<line class="st9" x1="206" y1="135.5" x2="234.9" y2="135.5"/>
<line class="st9" x1="206" y1="134.3" x2="234.9" y2="134.3"/>
<line class="st9" x1="206" y1="133.1" x2="234.9" y2="133.1"/>
<line class="st9" x1="206" y1="131.9" x2="234.9" y2="131.9"/>
<line class="st9" x1="206" y1="130.6" x2="234.9" y2="130.6"/>
<line class="st9" x1="206" y1="129.5" x2="234.9" y2="129.5"/>
<line class="st9" x1="206" y1="128.3" x2="234.9" y2="128.3"/>
<line class="st9" x1="206" y1="127" x2="234.9" y2="127"/>
<line class="st9" x1="206" y1="125.9" x2="234.9" y2="125.9"/>
<line class="st9" x1="206" y1="124.7" x2="234.9" y2="124.7"/>
<line class="st9" x1="206" y1="123.4" x2="234.9" y2="123.4"/>
<line class="st10" x1="233.8" y1="123.4" x2="233.8" y2="180.3"/>
<line class="st10" x1="232.3" y1="123.4" x2="232.3" y2="180.3"/>
<line class="st10" x1="229.6" y1="123.4" x2="229.6" y2="180.3"/>
<line class="st10" x1="228.2" y1="123.4" x2="228.2" y2="180.3"/>
<line class="st10" x1="225.5" y1="123.4" x2="225.5" y2="180.3"/>
<line class="st10" x1="224.1" y1="123.4" x2="224.1" y2="180.3"/>
<line class="st10" x1="221.4" y1="123.4" x2="221.4" y2="180.3"/>
<line class="st10" x1="219.9" y1="123.4" x2="219.9" y2="180.3"/>
<line class="st10" x1="217.2" y1="123.4" x2="217.2" y2="180.3"/>
<line class="st10" x1="215.8" y1="123.4" x2="215.8" y2="180.3"/>
<line class="st10" x1="213" y1="123.4" x2="213" y2="180.3"/>
<line class="st10" x1="211.7" y1="123.4" x2="211.7" y2="180.3"/>
<line class="st10" x1="208.9" y1="123.4" x2="208.9" y2="180.3"/>
<line class="st10" x1="207.5" y1="123.4" x2="207.5" y2="180.3"/>
<rect x="206.1" y="160.9" class="st3" width="28.9" height="4.7"/>
<polyline class="st3" points="268.4,185.4 268.4,146.7 262.4,146.7 262.4,139.2 261.6,139.2 261.6,136.1 260.6,136.1 260.6,122.8 
	247.1,122.8 247.1,136.1 246.2,136.1 246.2,139.2 245.3,139.2 245.3,146.7 239.4,146.7 239.4,185.4 268.4,185.4 "/>
<rect x="248.6" y="116" class="st3" width="10.7" height="9.2"/>
<path class="st0" d="M256.3,120c0,1.3-1.1,2.5-2.5,2.5c-1.3,0-2.5-1.1-2.5-2.5c0-1.3,1.1-2.5,2.5-2.5
	C255.3,117.5,256.3,118.7,256.3,120"/>
<path class="st3" d="M259,116v-1c0,0-0.4-0.2-0.5-0.5c0-0.1,0-2.6,0-2.6l-0.2-0.2v-0.5l-0.1-0.2V110l-0.2-0.3l-0.2-0.5l-0.2,0.5
	l-0.2,0.3v0.8h-0.2V110l-0.3-0.3v-0.7l-0.3-0.9l-0.3,0.9v0.5h-0.3v-3.8c-0.1-0.1-0.1-0.2-0.3-0.3c-0.2-0.1-0.5-0.1-0.5-0.1v-1.6
	c0,0-0.2-0.2-0.3-0.3c-0.1-0.1-0.2-0.2-0.4-0.2c-0.1,0-0.2,0-0.3,0h-0.1c-0.1,0-0.2,0-0.3,0c-0.1,0-0.3,0.1-0.4,0.2
	c-0.1,0.1-0.3,0.3-0.3,0.3v1.6c0,0-0.2,0-0.5,0.1c-0.2,0.1-0.2,0.2-0.3,0.3v3.8h-0.3v-0.5l-0.3-0.9l-0.3,0.9v0.7l-0.3,0.3v0.8h-0.2
	V110l-0.2-0.3l-0.2-0.5l-0.2,0.5l-0.2,0.3v0.9l-0.2,0.2v0.5l-0.2,0.2c0,0,0,2.4,0,2.6c-0.1,0.2-0.5,0.5-0.5,0.5v1H259"/>
<path class="st6" d="M259,116v-1c0,0-0.4-0.2-0.5-0.5c0-0.1,0-2.6,0-2.6l-0.2-0.2v-0.5l-0.1-0.2V110l-0.2-0.3l-0.2-0.5l-0.2,0.5
	l-0.2,0.3v0.8h-0.2V110l-0.3-0.3v-0.7l-0.3-0.9l-0.3,0.9v0.5h-0.3v-3.8c-0.1-0.1-0.1-0.2-0.3-0.3c-0.2-0.1-0.5-0.1-0.5-0.1v-1.6
	c0,0-0.2-0.2-0.3-0.3c-0.1-0.1-0.2-0.2-0.4-0.2c-0.1,0-0.2,0-0.3,0h-0.1c-0.1,0-0.2,0-0.3,0c-0.1,0-0.3,0.1-0.4,0.2
	c-0.1,0.1-0.3,0.3-0.3,0.3v1.6c0,0-0.2,0-0.5,0.1c-0.2,0.1-0.2,0.2-0.3,0.3v3.8h-0.3v-0.5l-0.3-0.9l-0.3,0.9v0.7l-0.3,0.3v0.8h-0.2
	V110l-0.2-0.3l-0.2-0.5l-0.2,0.5l-0.2,0.3v0.9l-0.2,0.2v0.5l-0.2,0.2c0,0,0,2.4,0,2.6c-0.1,0.2-0.5,0.5-0.5,0.5v1H259z"/>
<polyline class="st3" points="253.6,103.4 253.9,97.4 254.2,103.4 "/>
<polyline class="st6" points="253.6,103.4 253.9,97.4 254.2,103.4 "/>
<path class="st0" d="M251.2,115.7V113c0,0,0.1-0.6,0.5-0.6s0.5,0.6,0.5,0.6v2.7H251.2"/>
<path class="st0" d="M253.3,115.7V113c0,0,0.1-0.6,0.5-0.6s0.5,0.6,0.5,0.6v2.7H253.3"/>
<path class="st0" d="M255.3,115.7V113c0,0,0.1-0.6,0.5-0.6s0.5,0.6,0.5,0.6v2.7H255.3"/>
<path class="st0" d="M252.8,109.4v-2.1c0,0,0.1-0.5,0.2-0.5c0.2,0,0.2,0.5,0.2,0.5v2.1H252.8"/>
<path class="st0" d="M254.4,109.4v-2.1c0,0,0.1-0.5,0.2-0.5c0.2,0,0.2,0.5,0.2,0.5v2.1H254.4"/>
<path class="st0" d="M253.6,109.1V107c0,0,0.1-0.5,0.2-0.5c0.2,0,0.2,0.5,0.2,0.5v2.2H253.6"/>
<rect x="251.2" y="148" class="st0" width="1" height="1.9"/>
<rect x="251.2" y="145.1" class="st0" width="1" height="1.9"/>
<rect x="251.2" y="142.2" class="st0" width="1" height="1.9"/>
<rect x="251.2" y="139.3" class="st0" width="1" height="1.9"/>
<rect x="251.2" y="136.3" class="st0" width="1" height="1.9"/>
<rect x="251.2" y="133.4" class="st0" width="1" height="1.9"/>
<rect x="251.2" y="130.5" class="st0" width="1" height="1.9"/>
<rect x="251.2" y="127.5" class="st0" width="1" height="1.9"/>
<rect x="251.2" y="124.7" class="st0" width="1" height="1.9"/>
<rect x="253.3" y="148" class="st0" width="1" height="1.9"/>
<rect x="253.3" y="145.1" class="st0" width="1" height="1.9"/>
<rect x="253.3" y="142.2" class="st0" width="1" height="1.9"/>
<rect x="253.3" y="139.3" class="st0" width="1" height="1.9"/>
<rect x="253.3" y="136.3" class="st0" width="1" height="1.9"/>
<rect x="253.3" y="133.4" class="st0" width="1" height="1.9"/>
<rect x="253.3" y="130.5" class="st0" width="1" height="1.9"/>
<rect x="253.3" y="127.5" class="st0" width="1" height="1.9"/>
<rect x="253.3" y="124.7" class="st0" width="1" height="1.9"/>
<rect x="255.3" y="148" class="st0" width="1" height="1.9"/>
<rect x="255.3" y="145.1" class="st0" width="1" height="1.9"/>
<rect x="255.3" y="142.2" class="st0" width="1" height="1.9"/>
<rect x="255.3" y="139.3" class="st0" width="1" height="1.9"/>
<rect x="255.3" y="136.3" class="st0" width="1" height="1.9"/>
<rect x="255.3" y="133.4" class="st0" width="1" height="1.9"/>
<rect x="255.3" y="130.5" class="st0" width="1" height="1.9"/>
<rect x="255.3" y="127.5" class="st0" width="1" height="1.9"/>
<rect x="255.3" y="124.7" class="st0" width="1" height="1.9"/>
<path class="st3" d="M271.7,122c0,0,0.1-0.3,0.2-0.4c0.1-0.1,0.3-0.3,0.8-0.3c0.6,0,0.9,0.5,0.9,0.6c0,0.2,0,0.6,0,0.6l1.4,0.3v-5.2
	l0.5-0.8l0.4,0.8v0.8l0.3-0.2v-3.5l0.5-0.9l0.5,1v0.4l0.6-0.3v-1.2l0.3-0.3l0.3,0.3v0.9h0.2v-0.5h0.2c0,0,0-0.7,0-0.9l0.1-0.1
	c0.1,0,0.3,0,0.4,0c0.1,0,0.1,0.1,0.1,0.1c0,0.2,0,0.8,0,0.8h0.4c0,0,0-0.6,0-0.8c0-0.1,0.1-0.1,0.1-0.1c0.1,0,0.3,0,0.4,0l0.1,0.1
	c0,0.2,0,0.9,0,0.9h0.2v0.5h0.2v-0.9l0.3-0.3l0.3,0.3v1.2l0.6,0.3v-0.4l0.5-1l0.5,0.9v3.5l0.3,0.2v-0.8l0.4-0.8l0.5,0.8v5.2l1.4-0.3
	c0,0,0-0.5,0-0.6c0,0,0.3-0.6,0.9-0.6c0.5,0,0.7,0.2,0.8,0.3c0.1,0.1,0.2,0.4,0.2,0.4v22.3h2.9v-2.1l0.3-0.7l0.3,0.6v1.1h1.7v-1.3
	l0.5-1.3l0.5,1.3v1.2v42.3H272L271.7,122"/>
<path class="st3" d="M280.3,114.3c0,0,0-1.3,0-1.7c0-0.1-0.1-0.2-0.2-0.2c-0.1,0-0.5-0.1-0.6,0c-0.1,0-0.2,0.2-0.2,0.2
	c0,0.4,0,1.7,0,1.7H280.3"/>
<path class="st0" d="M280.6,126c0,0,0-3,0-3.9c0-0.2-0.3-0.5-0.8-0.5c-0.4,0-0.8,0.3-0.8,0.5c0,0.9,0,3.9,0,3.9H280.6"/>
<path class="st0" d="M274.8,126.1c0,0,0-1.7,0-2.1c0-0.1-0.2-0.5-0.6-0.5c-0.3,0-0.6,0.3-0.6,0.5c0,0.4,0,1.8,0,1.8L274.8,126.1"/>
<path class="st0" d="M284.6,126.1c0,0,0-1.7,0-2.1c0-0.1,0.2-0.5,0.6-0.5c0.3,0,0.6,0.3,0.6,0.5c0,0.4,0,1.8,0,1.8L284.6,126.1"/>
<line class="st5" x1="279.8" y1="121.5" x2="279.8" y2="126"/>
<line class="st5" x1="278.7" y1="122.6" x2="280.6" y2="122.6"/>
<line class="st5" x1="278.9" y1="124.1" x2="280.7" y2="124.1"/>
<line class="st5" x1="292.2" y1="144.2" x2="292.2" y2="148.9"/>
<line class="st5" x1="291.3" y1="145.5" x2="293" y2="145.5"/>
<line class="st5" x1="291.1" y1="147.1" x2="293.1" y2="147.1"/>
<line class="st5" x1="291.3" y1="148.8" x2="293" y2="148.8"/>
<path class="st0" d="M280.6,184.1c0,0,0-53.3,0-54.3c0-0.2-0.3-0.5-0.8-0.5c-0.4,0-0.8,0.3-0.8,0.5c0,0.9,0,54.3,0,54.3H280.6"/>
<line class="st5" x1="279.8" y1="129.1" x2="279.8" y2="184.6"/>
<line class="st5" x1="278.8" y1="130.4" x2="280.6" y2="130.4"/>
<line class="st5" x1="278.7" y1="132" x2="280.7" y2="132"/>
<line class="st5" x1="278.9" y1="181.8" x2="280.6" y2="181.8"/>
<line class="st5" x1="278.9" y1="180" x2="280.6" y2="180"/>
<line class="st5" x1="278.9" y1="178.2" x2="280.6" y2="178.2"/>
<line class="st5" x1="278.9" y1="176.4" x2="280.6" y2="176.4"/>
<line class="st5" x1="278.9" y1="174.7" x2="280.6" y2="174.7"/>
<line class="st5" x1="278.9" y1="172.9" x2="280.6" y2="172.9"/>
<line class="st5" x1="278.9" y1="171.1" x2="280.6" y2="171.1"/>
<line class="st5" x1="278.9" y1="169.3" x2="280.6" y2="169.3"/>
<line class="st5" x1="278.9" y1="167.5" x2="280.6" y2="167.5"/>
<line class="st5" x1="278.9" y1="165.7" x2="280.6" y2="165.7"/>
<line class="st5" x1="278.9" y1="163.9" x2="280.6" y2="163.9"/>
<line class="st5" x1="278.9" y1="162.2" x2="280.6" y2="162.2"/>
<line class="st5" x1="278.9" y1="160.3" x2="280.6" y2="160.3"/>
<line class="st5" x1="278.9" y1="158.5" x2="280.6" y2="158.5"/>
<line class="st5" x1="278.9" y1="156.8" x2="280.6" y2="156.8"/>
<line class="st5" x1="278.9" y1="155" x2="280.6" y2="155"/>
<line class="st5" x1="278.9" y1="153.2" x2="280.6" y2="153.2"/>
<line class="st5" x1="278.9" y1="151.4" x2="280.6" y2="151.4"/>
<line class="st5" x1="278.9" y1="149.7" x2="280.6" y2="149.7"/>
<line class="st5" x1="278.9" y1="147.8" x2="280.6" y2="147.8"/>
<line class="st5" x1="278.9" y1="146" x2="280.6" y2="146"/>
<line class="st5" x1="278.9" y1="144.3" x2="280.6" y2="144.3"/>
<line class="st5" x1="278.9" y1="142.5" x2="280.6" y2="142.5"/>
<line class="st5" x1="278.9" y1="140.7" x2="280.6" y2="140.7"/>
<line class="st5" x1="278.9" y1="138.9" x2="280.6" y2="138.9"/>
<line class="st5" x1="278.9" y1="137.2" x2="280.6" y2="137.2"/>
<line class="st5" x1="278.9" y1="135.3" x2="280.6" y2="135.3"/>
<line class="st5" x1="278.9" y1="133.5" x2="280.6" y2="133.5"/>
<path class="st0" d="M278,184.1c0,0,0-53.3,0-54.3c0-0.2-0.3-0.5-0.8-0.5c-0.4,0-0.8,0.3-0.8,0.5c0,0.9,0,54.3,0,54.3H278"/>
<line class="st5" x1="277.2" y1="129.1" x2="277.2" y2="184.6"/>
<line class="st5" x1="276.2" y1="130.4" x2="278" y2="130.4"/>
<line class="st5" x1="276" y1="132" x2="278.1" y2="132"/>
<line class="st5" x1="276.2" y1="181.7" x2="278" y2="181.7"/>
<line class="st5" x1="276.2" y1="179.9" x2="278" y2="179.9"/>
<line class="st5" x1="276.2" y1="178.2" x2="278" y2="178.2"/>
<line class="st5" x1="276.2" y1="176.4" x2="278" y2="176.4"/>
<line class="st5" x1="276.2" y1="174.6" x2="278" y2="174.6"/>
<line class="st5" x1="276.2" y1="172.8" x2="278" y2="172.8"/>
<line class="st5" x1="276.2" y1="171.1" x2="278" y2="171.1"/>
<line class="st5" x1="276.2" y1="169.2" x2="278" y2="169.2"/>
<line class="st5" x1="276.2" y1="167.4" x2="278" y2="167.4"/>
<line class="st5" x1="276.2" y1="165.7" x2="278" y2="165.7"/>
<line class="st5" x1="276.2" y1="163.8" x2="278" y2="163.8"/>
<line class="st5" x1="276.2" y1="162.1" x2="278" y2="162.1"/>
<line class="st5" x1="276.2" y1="160.3" x2="278" y2="160.3"/>
<line class="st5" x1="276.2" y1="158.5" x2="278" y2="158.5"/>
<line class="st5" x1="276.2" y1="156.7" x2="278" y2="156.7"/>
<line class="st5" x1="276.2" y1="154.9" x2="278" y2="154.9"/>
<line class="st5" x1="276.2" y1="153.2" x2="278" y2="153.2"/>
<line class="st5" x1="276.2" y1="151.3" x2="278" y2="151.3"/>
<line class="st5" x1="276.2" y1="149.6" x2="278" y2="149.6"/>
<line class="st5" x1="276.2" y1="147.8" x2="278" y2="147.8"/>
<line class="st5" x1="276.2" y1="146" x2="278" y2="146"/>
<line class="st5" x1="276.2" y1="144.2" x2="278" y2="144.2"/>
<line class="st5" x1="276.2" y1="142.4" x2="278" y2="142.4"/>
<line class="st5" x1="276.2" y1="140.7" x2="278" y2="140.7"/>
<line class="st5" x1="276.2" y1="138.8" x2="278" y2="138.8"/>
<line class="st5" x1="276.2" y1="137.1" x2="278" y2="137.1"/>
<line class="st5" x1="276.2" y1="135.3" x2="278" y2="135.3"/>
<line class="st5" x1="276.2" y1="133.4" x2="278" y2="133.4"/>
<path class="st0" d="M283.1,184.2c0,0,0-53.3,0-54.3c0-0.2-0.3-0.5-0.8-0.5c-0.4,0-0.8,0.3-0.8,0.5c0,0.9,0,54.3,0,54.3H283.1"/>
<line class="st5" x1="282.3" y1="129.2" x2="282.3" y2="185.2"/>
<line class="st5" x1="281.4" y1="130.4" x2="283.2" y2="130.4"/>
<line class="st5" x1="281.2" y1="132" x2="283.2" y2="132"/>
<line class="st5" x1="281.4" y1="181.8" x2="283.2" y2="181.8"/>
<line class="st5" x1="281.4" y1="180" x2="283.2" y2="180"/>
<line class="st5" x1="281.4" y1="178.3" x2="283.2" y2="178.3"/>
<line class="st5" x1="281.4" y1="176.4" x2="283.2" y2="176.4"/>
<line class="st5" x1="281.4" y1="174.7" x2="283.2" y2="174.7"/>
<line class="st5" x1="281.4" y1="172.9" x2="283.2" y2="172.9"/>
<line class="st5" x1="281.4" y1="171.1" x2="283.2" y2="171.1"/>
<line class="st5" x1="281.4" y1="169.3" x2="283.2" y2="169.3"/>
<line class="st5" x1="281.4" y1="167.5" x2="283.2" y2="167.5"/>
<line class="st5" x1="281.4" y1="165.8" x2="283.2" y2="165.8"/>
<line class="st5" x1="281.4" y1="163.9" x2="283.2" y2="163.9"/>
<line class="st5" x1="281.4" y1="162.2" x2="283.2" y2="162.2"/>
<line class="st5" x1="281.4" y1="160.4" x2="283.2" y2="160.4"/>
<line class="st5" x1="281.4" y1="158.5" x2="283.2" y2="158.5"/>
<line class="st5" x1="281.4" y1="156.8" x2="283.2" y2="156.8"/>
<line class="st5" x1="281.4" y1="155" x2="283.2" y2="155"/>
<line class="st5" x1="281.4" y1="153.3" x2="283.2" y2="153.3"/>
<line class="st5" x1="281.4" y1="151.4" x2="283.2" y2="151.4"/>
<line class="st5" x1="281.4" y1="149.7" x2="283.2" y2="149.7"/>
<line class="st5" x1="281.4" y1="147.9" x2="283.2" y2="147.9"/>
<line class="st5" x1="281.4" y1="146" x2="283.2" y2="146"/>
<line class="st5" x1="281.4" y1="144.3" x2="283.2" y2="144.3"/>
<line class="st5" x1="281.4" y1="142.5" x2="283.2" y2="142.5"/>
<line class="st5" x1="281.4" y1="140.7" x2="283.2" y2="140.7"/>
<line class="st5" x1="281.4" y1="138.9" x2="283.2" y2="138.9"/>
<line class="st5" x1="281.4" y1="137.2" x2="283.2" y2="137.2"/>
<line class="st5" x1="281.4" y1="135.4" x2="283.2" y2="135.4"/>
<line class="st5" x1="281.4" y1="133.5" x2="283.2" y2="133.5"/>
<path class="st0" d="M286.6,184.2c0,0,0-52,0-53c0-0.2-0.3-0.5-0.8-0.5c-0.4,0-0.8,0.3-0.8,0.5c0,0.9,0,53,0,53H286.6"/>
<line class="st5" x1="285.8" y1="130.4" x2="285.8" y2="184.4"/>
<line class="st5" x1="284.8" y1="131.8" x2="286.6" y2="131.8"/>
<line class="st5" x1="284.7" y1="133.3" x2="286.7" y2="133.3"/>
<line class="st5" x1="284.9" y1="181.3" x2="286.6" y2="181.3"/>
<line class="st5" x1="284.9" y1="179.5" x2="286.6" y2="179.5"/>
<line class="st5" x1="284.9" y1="177.8" x2="286.6" y2="177.8"/>
<line class="st5" x1="284.9" y1="175.9" x2="286.6" y2="175.9"/>
<line class="st5" x1="284.9" y1="174.2" x2="286.6" y2="174.2"/>
<line class="st5" x1="284.9" y1="172.4" x2="286.6" y2="172.4"/>
<line class="st5" x1="284.9" y1="170.5" x2="286.6" y2="170.5"/>
<line class="st5" x1="284.9" y1="168.8" x2="286.6" y2="168.8"/>
<line class="st5" x1="284.9" y1="167" x2="286.6" y2="167"/>
<line class="st5" x1="284.9" y1="165.3" x2="286.6" y2="165.3"/>
<line class="st5" x1="284.9" y1="163.4" x2="286.6" y2="163.4"/>
<line class="st5" x1="284.9" y1="161.6" x2="286.6" y2="161.6"/>
<line class="st5" x1="284.9" y1="159.9" x2="286.6" y2="159.9"/>
<line class="st5" x1="284.9" y1="158" x2="286.6" y2="158"/>
<line class="st5" x1="284.9" y1="156.3" x2="286.6" y2="156.3"/>
<line class="st5" x1="284.9" y1="154.5" x2="286.6" y2="154.5"/>
<line class="st5" x1="284.9" y1="152.8" x2="286.6" y2="152.8"/>
<line class="st5" x1="284.9" y1="150.9" x2="286.6" y2="150.9"/>
<line class="st5" x1="284.9" y1="149.1" x2="286.6" y2="149.1"/>
<line class="st5" x1="284.9" y1="147.4" x2="286.6" y2="147.4"/>
<line class="st5" x1="284.9" y1="145.5" x2="286.6" y2="145.5"/>
<line class="st5" x1="284.9" y1="143.8" x2="286.6" y2="143.8"/>
<line class="st5" x1="284.9" y1="142" x2="286.6" y2="142"/>
<line class="st5" x1="284.9" y1="140.2" x2="286.6" y2="140.2"/>
<line class="st5" x1="284.9" y1="138.4" x2="286.6" y2="138.4"/>
<line class="st5" x1="284.9" y1="136.6" x2="286.6" y2="136.6"/>
<line class="st5" x1="284.9" y1="134.9" x2="286.6" y2="134.9"/>
<path class="st0" d="M275,184.1c0,0,0-52,0-53c0-0.2-0.3-0.5-0.8-0.5c-0.4,0-0.8,0.3-0.8,0.5c0,0.9,0,53,0,53H275"/>
<line class="st5" x1="274.2" y1="130.3" x2="274.2" y2="184.6"/>
<line class="st5" x1="273.3" y1="131.7" x2="275" y2="131.7"/>
<line class="st5" x1="273.1" y1="133.2" x2="275.1" y2="133.2"/>
<line class="st5" x1="273.4" y1="181.3" x2="275" y2="181.3"/>
<line class="st5" x1="273.4" y1="179.4" x2="275" y2="179.4"/>
<line class="st5" x1="273.4" y1="177.7" x2="275" y2="177.7"/>
<line class="st5" x1="273.4" y1="175.9" x2="275" y2="175.9"/>
<line class="st5" x1="273.4" y1="174.2" x2="275" y2="174.2"/>
<line class="st5" x1="273.4" y1="172.3" x2="275" y2="172.3"/>
<line class="st5" x1="273.4" y1="170.5" x2="275" y2="170.5"/>
<line class="st5" x1="273.4" y1="168.8" x2="275" y2="168.8"/>
<line class="st5" x1="273.4" y1="166.9" x2="275" y2="166.9"/>
<line class="st5" x1="273.4" y1="165.2" x2="275" y2="165.2"/>
<line class="st5" x1="273.4" y1="163.4" x2="275" y2="163.4"/>
<line class="st5" x1="273.4" y1="161.5" x2="275" y2="161.5"/>
<line class="st5" x1="273.4" y1="159.8" x2="275" y2="159.8"/>
<line class="st5" x1="273.4" y1="158" x2="275" y2="158"/>
<line class="st5" x1="273.4" y1="156.3" x2="275" y2="156.3"/>
<line class="st5" x1="273.4" y1="154.4" x2="275" y2="154.4"/>
<line class="st5" x1="273.4" y1="152.7" x2="275" y2="152.7"/>
<line class="st5" x1="273.4" y1="150.9" x2="275" y2="150.9"/>
<line class="st5" x1="273.4" y1="149" x2="275" y2="149"/>
<line class="st5" x1="273.4" y1="147.3" x2="275" y2="147.3"/>
<line class="st5" x1="273.4" y1="145.5" x2="275" y2="145.5"/>
<line class="st5" x1="273.4" y1="143.8" x2="275" y2="143.8"/>
<line class="st5" x1="273.4" y1="141.9" x2="275" y2="141.9"/>
<line class="st5" x1="273.4" y1="140.2" x2="275" y2="140.2"/>
<line class="st5" x1="273.4" y1="138.4" x2="275" y2="138.4"/>
<line class="st5" x1="273.4" y1="136.5" x2="275" y2="136.5"/>
<line class="st5" x1="273.4" y1="134.8" x2="275" y2="134.8"/>
<path class="st0" d="M280.3,117.4c0,0,0-0.9,0-1.2c0-0.2-0.2-0.5-0.5-0.5s-0.5,0.3-0.5,0.5c0,0.3,0,1.2,0,1.2H280.3"/>
<path class="st0" d="M293,184.2c0,0,0-38.3,0-39.3c0-0.2-0.3-0.5-0.8-0.5c-0.4,0-0.8,0.3-0.8,0.5c0,0.9,0,39.3,0,39.3H293"/>
<line class="st5" x1="292.2" y1="144.2" x2="292.2" y2="184.4"/>
<line class="st5" x1="291.2" y1="145.5" x2="293" y2="145.5"/>
<line class="st5" x1="291.1" y1="147.1" x2="293.1" y2="147.1"/>
<line class="st5" x1="291.2" y1="182.5" x2="293" y2="182.5"/>
<line class="st5" x1="291.2" y1="180.8" x2="293" y2="180.8"/>
<line class="st5" x1="291.2" y1="179" x2="293" y2="179"/>
<line class="st5" x1="291.2" y1="177.2" x2="293" y2="177.2"/>
<line class="st5" x1="291.2" y1="175.4" x2="293" y2="175.4"/>
<line class="st5" x1="291.2" y1="173.6" x2="293" y2="173.6"/>
<line class="st5" x1="291.2" y1="171.8" x2="293" y2="171.8"/>
<line class="st5" x1="291.2" y1="170" x2="293" y2="170"/>
<line class="st5" x1="291.2" y1="168.3" x2="293" y2="168.3"/>
<line class="st5" x1="291.2" y1="166.4" x2="293" y2="166.4"/>
<line class="st5" x1="291.2" y1="164.6" x2="293" y2="164.6"/>
<line class="st5" x1="291.2" y1="162.9" x2="293" y2="162.9"/>
<line class="st5" x1="291.2" y1="161.1" x2="293" y2="161.1"/>
<line class="st5" x1="291.2" y1="159.3" x2="293" y2="159.3"/>
<line class="st5" x1="291.2" y1="157.5" x2="293" y2="157.5"/>
<line class="st5" x1="291.2" y1="155.8" x2="293" y2="155.8"/>
<line class="st5" x1="291.2" y1="153.9" x2="293" y2="153.9"/>
<line class="st5" x1="291.2" y1="152.1" x2="293" y2="152.1"/>
<line class="st5" x1="291.2" y1="150.4" x2="293" y2="150.4"/>
<line class="st5" x1="291.2" y1="148.6" x2="293" y2="148.6"/>
<rect x="128.9" y="166.7" class="st0" width="0.9" height="18.4"/>
<rect x="130.3" y="166.7" class="st0" width="0.9" height="18.4"/>
<rect x="142.7" y="166.7" class="st0" width="0.9" height="18.4"/>
<rect x="144.2" y="166.7" class="st0" width="0.9" height="18.4"/>
<rect x="145.1" y="164.2" class="st0" width="0.7" height="1.3"/>
<rect x="145.1" y="164.2" class="st6" width="0.7" height="1.3"/>
<path class="st6" d="M145.8,165.7"/>
<rect x="143.8" y="164.2" class="st0" width="0.7" height="1.3"/>
<rect x="143.8" y="164.2" class="st6" width="0.7" height="1.3"/>
<path class="st6" d="M144.5,165.7"/>
<rect x="142.4" y="164.2" class="st0" width="0.7" height="1.3"/>
<rect x="142.4" y="164.2" class="st6" width="0.7" height="1.3"/>
<path class="st6" d="M143.1,165.7"/>
<rect x="141.2" y="164.2" class="st0" width="0.7" height="1.3"/>
<rect x="141.2" y="164.2" class="st6" width="0.7" height="1.3"/>
<path class="st6" d="M141.8,165.7"/>
<rect x="139.8" y="164.2" class="st0" width="0.7" height="1.3"/>
<rect x="139.8" y="164.2" class="st6" width="0.7" height="1.3"/>
<path class="st6" d="M140.6,165.7"/>
<rect x="138.5" y="164.2" class="st0" width="0.7" height="1.3"/>
<rect x="138.5" y="164.2" class="st6" width="0.7" height="1.3"/>
<path class="st6" d="M139.2,165.7"/>
<rect x="137.1" y="164.2" class="st0" width="0.7" height="1.3"/>
<rect x="137.1" y="164.2" class="st6" width="0.7" height="1.3"/>
<path class="st6" d="M137.9,165.7"/>
<rect x="135.8" y="164.2" class="st0" width="0.7" height="1.3"/>
<rect x="135.8" y="164.2" class="st6" width="0.7" height="1.3"/>
<path class="st6" d="M136.5,165.7"/>
<rect x="134.6" y="164.2" class="st0" width="0.7" height="1.3"/>
<rect x="134.6" y="164.2" class="st6" width="0.7" height="1.3"/>
<path class="st6" d="M135.3,165.7"/>
<rect x="133.2" y="164.2" class="st0" width="0.7" height="1.3"/>
<rect x="133.2" y="164.2" class="st6" width="0.7" height="1.3"/>
<path class="st6" d="M133.9,165.7"/>
<rect x="131.9" y="164.2" class="st0" width="0.7" height="1.3"/>
<rect x="131.9" y="164.2" class="st6" width="0.7" height="1.3"/>
<path class="st6" d="M132.6,165.7"/>
<rect x="130.5" y="164.2" class="st0" width="0.7" height="1.3"/>
<rect x="130.5" y="164.2" class="st6" width="0.7" height="1.3"/>
<path class="st6" d="M131.2,165.7"/>
<rect x="129.2" y="164.2" class="st0" width="0.7" height="1.3"/>
<rect x="129.2" y="164.2" class="st6" width="0.7" height="1.3"/>
<path class="st6" d="M129.9,165.7"/>
<rect x="127.9" y="164.2" class="st0" width="0.7" height="1.3"/>
<rect x="127.9" y="164.2" class="st6" width="0.7" height="1.3"/>
<path class="st6" d="M128.7,165.7"/>
<rect x="251.2" y="174.4" class="st0" width="1" height="1.9"/>
<rect x="251.2" y="171.5" class="st0" width="1" height="1.9"/>
<rect x="251.2" y="168.6" class="st0" width="1" height="1.9"/>
<rect x="251.2" y="165.6" class="st0" width="1" height="1.9"/>
<rect x="251.2" y="162.7" class="st0" width="1" height="1.9"/>
<rect x="251.2" y="159.8" class="st0" width="1" height="1.9"/>
<rect x="251.2" y="156.8" class="st0" width="1" height="1.9"/>
<rect x="251.2" y="153.9" class="st0" width="1" height="1.9"/>
<rect x="251.2" y="151" class="st0" width="1" height="1.9"/>
<rect x="253.3" y="174.4" class="st0" width="1" height="1.9"/>
<rect x="253.3" y="171.5" class="st0" width="1" height="1.9"/>
<rect x="253.3" y="168.6" class="st0" width="1" height="1.9"/>
<rect x="253.3" y="165.6" class="st0" width="1" height="1.9"/>
<rect x="253.3" y="162.7" class="st0" width="1" height="1.9"/>
<rect x="253.3" y="159.8" class="st0" width="1" height="1.9"/>
<rect x="253.3" y="156.8" class="st0" width="1" height="1.9"/>
<rect x="253.3" y="153.9" class="st0" width="1" height="1.9"/>
<rect x="253.3" y="151" class="st0" width="1" height="1.9"/>
<rect x="255.3" y="174.4" class="st0" width="1" height="1.9"/>
<rect x="255.3" y="171.5" class="st0" width="1" height="1.9"/>
<rect x="255.3" y="168.6" class="st0" width="1" height="1.9"/>
<rect x="255.3" y="165.6" class="st0" width="1" height="1.9"/>
<rect x="251.2" y="183.1" class="st0" width="1" height="1.9"/>
<rect x="251.2" y="180.3" class="st0" width="1" height="1.9"/>
<rect x="251.2" y="177.4" class="st0" width="1" height="1.9"/>
<rect x="253.3" y="183.1" class="st0" width="1" height="1.9"/>
<rect x="253.3" y="180.3" class="st0" width="1" height="1.9"/>
<rect x="253.3" y="177.4" class="st0" width="1" height="1.9"/>
<rect x="255.3" y="183.1" class="st0" width="1" height="1.9"/>
<rect x="255.3" y="180.3" class="st0" width="1" height="1.9"/>
<rect x="255.3" y="177.4" class="st0" width="1" height="1.9"/>
<rect x="255.3" y="162.7" class="st0" width="1" height="1.9"/>
<rect x="255.3" y="159.8" class="st0" width="1" height="1.9"/>
<rect x="255.3" y="156.8" class="st0" width="1" height="1.9"/>
<rect x="255.3" y="153.9" class="st0" width="1" height="1.9"/>
<rect x="255.3" y="151" class="st0" width="1" height="1.9"/>
<polyline class="st3" points="179.6,185.1 179.6,180.9 176.5,180.9 176.5,131.5 172.1,131.5 172.1,111.5 171.5,111.5 171.5,110 
	169.1,110 169.1,111.3 168.7,111.3 168.7,112 168.2,112 168.2,107.1 161.3,107.1 161.3,112 160.9,112 160.9,111.3 160.5,111.3 
	160.5,110 158,110 158,111.5 157.4,111.5 157.4,131.5 153.1,131.5 153.1,180.9 150,180.9 150,185.1 179.6,185.1 "/>
<rect x="161.9" y="107.7" class="st0" width="5.6" height="6.4"/>
<rect x="163.5" y="111" class="st3" width="2.5" height="4.2"/>
<rect x="161.8" y="116.3" class="st0" width="0.5" height="65.3"/>
<rect x="162.8" y="116.3" class="st0" width="0.5" height="65.3"/>
<rect x="166.4" y="116.3" class="st0" width="0.5" height="65.3"/>
<rect x="167.3" y="116.3" class="st0" width="0.5" height="65.3"/>
<rect x="163.9" y="116.8" class="st0" width="1.9" height="0.4"/>
<rect x="163.9" y="117.8" class="st0" width="1.9" height="0.4"/>
<rect x="163.9" y="118.8" class="st0" width="1.9" height="0.4"/>
<rect x="163.9" y="119.7" class="st0" width="1.9" height="0.4"/>
<rect x="163.9" y="120.6" class="st0" width="1.9" height="0.4"/>
<rect x="163.9" y="121.7" class="st0" width="1.9" height="0.4"/>
<rect x="163.9" y="122.6" class="st0" width="1.9" height="0.4"/>
<rect x="163.9" y="123.5" class="st0" width="1.9" height="0.4"/>
<rect x="163.9" y="124.5" class="st0" width="1.9" height="0.4"/>
<rect x="163.9" y="125.5" class="st0" width="1.9" height="0.4"/>
<rect x="163.9" y="126.4" class="st0" width="1.9" height="0.4"/>
<rect x="163.9" y="127.3" class="st0" width="1.9" height="0.4"/>
<rect x="163.9" y="128.4" class="st0" width="1.9" height="0.4"/>
<rect x="163.9" y="129.3" class="st0" width="1.9" height="0.4"/>
<rect x="163.9" y="130.2" class="st0" width="1.9" height="0.4"/>
<rect x="163.9" y="131.3" class="st0" width="1.9" height="0.4"/>
<rect x="163.9" y="132.2" class="st0" width="1.9" height="0.4"/>
<rect x="163.9" y="133.1" class="st0" width="1.9" height="0.4"/>
<rect x="163.9" y="134.1" class="st0" width="1.9" height="0.4"/>
<rect x="163.9" y="135.1" class="st0" width="1.9" height="0.4"/>
<rect x="163.9" y="136" class="st0" width="1.9" height="0.4"/>
<rect x="163.9" y="136.9" class="st0" width="1.9" height="0.4"/>
<rect x="163.9" y="138" class="st0" width="1.9" height="0.4"/>
<rect x="163.9" y="138.9" class="st0" width="1.9" height="0.4"/>
<rect x="163.9" y="139.8" class="st0" width="1.9" height="0.4"/>
<rect x="163.9" y="140.9" class="st0" width="1.9" height="0.4"/>
<rect x="163.9" y="141.8" class="st0" width="1.9" height="0.4"/>
<rect x="163.9" y="142.7" class="st0" width="1.9" height="0.4"/>
<rect x="163.9" y="143.7" class="st0" width="1.9" height="0.4"/>
<rect x="163.9" y="144.7" class="st0" width="1.9" height="0.4"/>
<rect x="163.9" y="145.6" class="st0" width="1.9" height="0.4"/>
<rect x="163.9" y="146.6" class="st0" width="1.9" height="0.4"/>
<rect x="163.9" y="147.6" class="st0" width="1.9" height="0.4"/>
<rect x="163.9" y="148.5" class="st0" width="1.9" height="0.4"/>
<rect x="163.9" y="149.5" class="st0" width="1.9" height="0.4"/>
<rect x="163.9" y="150.4" class="st0" width="1.9" height="0.4"/>
<rect x="163.9" y="151.4" class="st0" width="1.9" height="0.4"/>
<rect x="163.9" y="152.3" class="st0" width="1.9" height="0.4"/>
<rect x="163.9" y="153.3" class="st0" width="1.9" height="0.4"/>
<rect x="163.9" y="154.3" class="st0" width="1.9" height="0.4"/>
<rect x="163.9" y="155.2" class="st0" width="1.9" height="0.4"/>
<rect x="163.9" y="156.2" class="st0" width="1.9" height="0.4"/>
<rect x="163.9" y="157.1" class="st0" width="1.9" height="0.4"/>
<rect x="163.9" y="158.1" class="st0" width="1.9" height="0.4"/>
<rect x="163.9" y="159.1" class="st0" width="1.9" height="0.4"/>
<rect x="163.9" y="160" class="st0" width="1.9" height="0.4"/>
<rect x="163.9" y="161" class="st0" width="1.9" height="0.4"/>
<rect x="163.9" y="162" class="st0" width="1.9" height="0.4"/>
<rect x="163.9" y="162.9" class="st0" width="1.9" height="0.4"/>
<rect x="163.9" y="163.8" class="st0" width="1.9" height="0.4"/>
<rect x="163.9" y="164.9" class="st0" width="1.9" height="0.4"/>
<rect x="163.9" y="165.8" class="st0" width="1.9" height="0.4"/>
<rect x="163.9" y="166.7" class="st0" width="1.9" height="0.4"/>
<rect x="163.9" y="167.7" class="st0" width="1.9" height="0.4"/>
<rect x="163.9" y="168.7" class="st0" width="1.9" height="0.4"/>
<rect x="163.9" y="169.6" class="st0" width="1.9" height="0.4"/>
<rect x="163.9" y="170.6" class="st0" width="1.9" height="0.4"/>
<rect x="163.9" y="171.6" class="st0" width="1.9" height="0.4"/>
<rect x="163.9" y="172.5" class="st0" width="1.9" height="0.4"/>
<rect x="163.9" y="173.4" class="st0" width="1.9" height="0.4"/>
<rect x="163.9" y="174.5" class="st0" width="1.9" height="0.4"/>
<rect x="163.9" y="175.4" class="st0" width="1.9" height="0.4"/>
<rect x="163.9" y="176.3" class="st0" width="1.9" height="0.4"/>
<rect x="163.9" y="177.4" class="st0" width="1.9" height="0.4"/>
<rect x="163.9" y="178.3" class="st0" width="1.9" height="0.4"/>
<rect x="163.9" y="179.2" class="st0" width="1.9" height="0.4"/>
<rect x="163.9" y="180.1" class="st0" width="1.9" height="0.4"/>
<rect x="163.9" y="181.2" class="st0" width="1.9" height="0.4"/>
<line class="st6" x1="167" y1="107.4" x2="167" y2="114.7"/>
<line class="st6" x1="166.2" y1="107.4" x2="166.2" y2="114.7"/>
<line class="st6" x1="165.5" y1="107.4" x2="165.5" y2="114.7"/>
<line class="st6" x1="164.6" y1="107.4" x2="164.6" y2="114.7"/>
<line class="st6" x1="163.9" y1="107.4" x2="163.9" y2="114.7"/>
<line class="st6" x1="163.1" y1="107.4" x2="163.1" y2="114.7"/>
<line class="st6" x1="162.4" y1="107.4" x2="162.4" y2="114.7"/>
<path class="st3" d="M241.5,82.5h-4.4l-1.8-4.8h-8.2l-1.7,4.8h-4.3l8-20.9h4.3L241.5,82.5 M233.6,74.2l-2.5-6.8l-2.5,6.8H233.6z"/>
<path class="st3" d="M140.1,76.4c-1.1,1-3.3,1.8-5,1.8c-3.5,0-6.3-2.9-6.3-6.3c0-3.4,2.9-6.1,6.4-6.1c1.7,0,3.7,0.6,4.9,1.6l2.9-2.8
	c-2-1.8-4.8-2.9-7.6-2.9c-6.1,0-10.9,4.5-10.9,10.4s5,10.5,11.1,10.5c2.9,0,6-1.3,8-3.1L140.1,76.4"/>
<polyline class="st3" points="167,73 167,82.6 171.1,82.6 171.1,61.6 167,61.6 167,69 156.7,69 156.7,61.6 152.5,61.6 152.5,82.6 
	156.7,82.6 156.7,73 167,73 "/>
<rect x="182.3" y="61.6" class="st3" width="4.2" height="21"/>
<path class="st3" d="M213.1,76.5c-1.1,1-3.3,1.8-5,1.8c-3.5,0-6.3-2.9-6.3-6.3c0-3.4,2.9-6.1,6.4-6.1c1.7,0,3.7,0.6,4.9,1.6l2.9-2.8
	c-2-1.8-4.8-2.9-7.6-2.9c-6.1,0-10.9,4.5-10.9,10.4c0,5.9,5,10.5,11.1,10.5c2.9,0,6-1.3,8-3.1L213.1,76.5"/>
<path class="st3" d="M266.7,77.6v-5.5h-8.3v3.7h3.9v0.7c-1.1,1-3.3,1.8-5,1.8c-3.5,0-6.3-3-6.3-6.3c0-3.4,2.9-6.1,6.4-6.1
	c1.7,0,3.7,0.6,4.9,1.7l2.9-2.8c-2-1.8-4.8-2.9-7.6-2.9c-6.1,0-10.9,4.5-10.9,10.4s5,10.6,11.1,10.6
	C264.3,82.9,266.7,77.6,266.7,77.6"/>
<path class="st3" d="M290.1,72.1c0,3.4-2.8,6.2-6.2,6.2s-6.2-2.8-6.2-6.2c0-3.4,2.8-6.2,6.2-6.2C287.3,65.9,290.1,68.7,290.1,72.1
	 M283.8,61.5c-5.8,0-10.5,4.8-10.5,10.5c0,5.8,4.8,10.5,10.5,10.5s10.5-4.8,10.5-10.5C294.3,66.3,289.7,61.5,283.8,61.5z"/>
</svg>
