<?xml version="1.0" encoding="utf-8"?>
<!-- Generator: Adobe Illustrator 20.1.0, SVG Export Plug-In . SVG Version: 6.00 Build 0)  -->
<svg version="1.1" id="Layer_1" xmlns="http://www.w3.org/2000/svg" xmlns:xlink="http://www.w3.org/1999/xlink" x="0px" y="0px"
	 viewBox="0 0 417 202" style="enable-background:new 0 0 417 202;" xml:space="preserve">
<style type="text/css">
	.st0{fill:#691F45;}
	.st1{fill:none;stroke:#EC218B;stroke-width:0.3835;}
	.st2{fill:none;stroke:#EC218B;stroke-width:0.1534;}
	.st3{fill:#EC218B;}
	.st4{fill:none;stroke:#691F45;stroke-width:0.2301;stroke-linecap:round;stroke-linejoin:bevel;}
	.st5{fill:none;stroke:#EC218B;stroke-width:0.2301;}
	.st6{fill:none;stroke:#EC218B;stroke-width:7.670963e-02;}
	.st7{fill:none;stroke:#691F45;stroke-width:0.2301;}
	.st8{fill:none;stroke:#691F45;stroke-width:0.6904;}
	.st9{fill:none;stroke:#691F45;stroke-width:0.1534;}
	.st10{fill:none;stroke:#691F45;stroke-width:7.670963e-02;}
</style>
<rect y="0.1" class="st0" width="417" height="202"/>
<line class="st1" x1="18.5" y1="75.7" x2="18.5" y2="65.7"/>
<line class="st2" x1="18.5" y1="66.2" x2="18.5" y2="57.4"/>
<line class="st1" x1="29.1" y1="75.7" x2="29.1" y2="65.7"/>
<line class="st2" x1="29.1" y1="66.2" x2="29.1" y2="57.4"/>
<rect x="17.1" y="73.9" class="st3" width="14.2" height="1.2"/>
<polyline class="st3" points="7.3,198 14.6,74.8 33.9,74.8 41.2,198 7.3,198 "/>
<rect x="15.3" y="75.7" class="st0" width="4.2" height="0.9"/>
<rect x="19.8" y="75.7" class="st0" width="4.2" height="0.9"/>
<rect x="24.4" y="75.7" class="st0" width="4.2" height="0.9"/>
<rect x="29" y="75.7" class="st0" width="4.2" height="0.9"/>
<polyline class="st4" points="23.8,76.5 13.9,87.5 35.8,106.3 11.6,126 38.4,149.5 8.8,172.5 41.2,198 "/>
<polyline class="st4" points="24.5,76.5 34.6,87.5 12.9,106.3 36.9,126 10.3,149.5 39.6,172.5 7.3,198 "/>
<line class="st2" x1="54.8" y1="30.2" x2="54.8" y2="43.7"/>
<line class="st5" x1="55" y1="33.6" x2="55" y2="45.9"/>
<rect x="56.9" y="25.4" class="st3" width="1.9" height="17.3"/>
<line class="st5" x1="57.8" y1="22.1" x2="57.8" y2="27.6"/>
<line class="st6" x1="57.8" y1="15.9" x2="57.8" y2="23"/>
<line class="st2" x1="68.6" y1="30.2" x2="68.6" y2="43.7"/>
<line class="st5" x1="68.9" y1="33.6" x2="68.9" y2="45.9"/>
<rect x="65.1" y="25.4" class="st3" width="1.9" height="17.3"/>
<line class="st5" x1="66" y1="22.1" x2="66" y2="27.6"/>
<line class="st6" x1="66.1" y1="15.9" x2="66.1" y2="23"/>
<polyline class="st3" points="46.4,197.6 46.4,69.8 53.9,69.8 53.9,42.6 58.1,42.6 58.1,40.8 66.4,40.8 66.4,42.7 69.9,42.7 
	69.9,197.6 46.4,197.6 "/>
<polygon class="st6" points="46.4,197.6 46.4,69.8 53.9,69.8 53.9,42.6 58.1,42.6 58.1,40.8 66.4,40.8 66.4,42.7 69.9,42.7 
	69.9,197.6 "/>
<rect x="68.3" y="43.4" class="st0" width="1.3" height="2.6"/>
<rect x="66.6" y="43.4" class="st0" width="1.3" height="2.6"/>
<rect x="64.8" y="43.4" class="st0" width="1.3" height="2.6"/>
<rect x="63.1" y="43.4" class="st0" width="1.3" height="2.6"/>
<rect x="61.2" y="43.4" class="st0" width="1.3" height="2.6"/>
<rect x="59.5" y="43.4" class="st0" width="1.3" height="2.6"/>
<rect x="57.8" y="43.4" class="st0" width="1.3" height="2.6"/>
<rect x="56.1" y="43.4" class="st0" width="1.3" height="2.6"/>
<rect x="54.2" y="43.4" class="st0" width="1.3" height="2.6"/>
<rect x="68.1" y="70.5" class="st0" width="1.3" height="2.6"/>
<rect x="66.3" y="70.5" class="st0" width="1.3" height="2.6"/>
<rect x="64.5" y="70.5" class="st0" width="1.3" height="2.6"/>
<rect x="62.8" y="70.5" class="st0" width="1.3" height="2.6"/>
<rect x="61.1" y="70.5" class="st0" width="1.3" height="2.6"/>
<rect x="59.2" y="70.5" class="st0" width="1.3" height="2.6"/>
<rect x="57.5" y="70.5" class="st0" width="1.3" height="2.6"/>
<rect x="55.8" y="70.5" class="st0" width="1.3" height="2.6"/>
<rect x="54" y="70.5" class="st0" width="1.3" height="2.6"/>
<rect x="52.2" y="70.5" class="st0" width="1.3" height="2.6"/>
<rect x="50.4" y="70.5" class="st0" width="1.3" height="2.6"/>
<rect x="48.7" y="70.5" class="st0" width="1.3" height="2.6"/>
<rect x="46.8" y="70.5" class="st0" width="1.3" height="2.6"/>
<rect x="68.1" y="105.3" class="st0" width="1.3" height="2.6"/>
<rect x="66.3" y="105.3" class="st0" width="1.3" height="2.6"/>
<rect x="64.5" y="105.3" class="st0" width="1.3" height="2.6"/>
<rect x="62.8" y="105.3" class="st0" width="1.3" height="2.6"/>
<rect x="61.1" y="105.3" class="st0" width="1.3" height="2.6"/>
<rect x="59.2" y="105.3" class="st0" width="1.3" height="2.6"/>
<rect x="57.5" y="105.3" class="st0" width="1.3" height="2.6"/>
<rect x="55.8" y="105.3" class="st0" width="1.3" height="2.6"/>
<rect x="54" y="105.3" class="st0" width="1.3" height="2.6"/>
<rect x="52.2" y="105.3" class="st0" width="1.3" height="2.6"/>
<rect x="50.4" y="105.3" class="st0" width="1.3" height="2.6"/>
<rect x="48.7" y="105.3" class="st0" width="1.3" height="2.6"/>
<rect x="46.8" y="105.3" class="st0" width="1.3" height="2.6"/>
<rect x="68.1" y="154" class="st0" width="1.3" height="2.6"/>
<rect x="66.3" y="154" class="st0" width="1.3" height="2.6"/>
<rect x="64.5" y="154" class="st0" width="1.3" height="2.6"/>
<rect x="62.8" y="154" class="st0" width="1.3" height="2.6"/>
<rect x="61.1" y="154" class="st0" width="1.3" height="2.6"/>
<rect x="59.2" y="154" class="st0" width="1.3" height="2.6"/>
<rect x="57.5" y="154" class="st0" width="1.3" height="2.6"/>
<rect x="55.8" y="154" class="st0" width="1.3" height="2.6"/>
<rect x="54" y="154" class="st0" width="1.3" height="2.6"/>
<rect x="52.2" y="154" class="st0" width="1.3" height="2.6"/>
<rect x="50.4" y="154" class="st0" width="1.3" height="2.6"/>
<rect x="48.7" y="154" class="st0" width="1.3" height="2.6"/>
<rect x="46.8" y="154" class="st0" width="1.3" height="2.6"/>
<polyline class="st3" points="90.3,112.5 75.9,122.6 75.9,197.6 107.3,197.6 107.3,122.6 92.5,112.5 92.5,120.1 90.3,120.1 
	90.3,112.5 "/>
<polyline class="st7" points="75.8,121.7 88.9,135.1 88.9,197.9 94.9,197.9 94.9,135 107.4,122 "/>
<rect x="114.3" y="65.3" class="st3" width="25.9" height="132.4"/>
<rect x="116.7" y="62.6" class="st3" width="21" height="134.9"/>
<line class="st7" x1="136.2" y1="63.7" x2="136.2" y2="197.1"/>
<line class="st7" x1="135.4" y1="63.7" x2="135.4" y2="197.1"/>
<line class="st7" x1="134.5" y1="63.7" x2="134.5" y2="197.1"/>
<line class="st7" x1="133.6" y1="63.7" x2="133.6" y2="197.1"/>
<line class="st7" x1="132.8" y1="63.7" x2="132.8" y2="197.1"/>
<line class="st7" x1="131.9" y1="63.7" x2="131.9" y2="197.1"/>
<line class="st7" x1="130.9" y1="63.7" x2="130.9" y2="197.1"/>
<line class="st7" x1="130" y1="63.7" x2="130" y2="197.1"/>
<line class="st7" x1="129.2" y1="63.7" x2="129.2" y2="197.1"/>
<line class="st7" x1="128.3" y1="63.7" x2="128.3" y2="197.1"/>
<line class="st7" x1="127.4" y1="63.7" x2="127.4" y2="197.1"/>
<line class="st7" x1="126.6" y1="63.7" x2="126.6" y2="197.1"/>
<line class="st7" x1="125.7" y1="63.7" x2="125.7" y2="197.1"/>
<line class="st7" x1="124.9" y1="63.7" x2="124.9" y2="197.1"/>
<line class="st7" x1="124" y1="63.7" x2="124" y2="197.1"/>
<line class="st7" x1="123.1" y1="63.7" x2="123.1" y2="197.1"/>
<line class="st7" x1="122.3" y1="63.7" x2="122.3" y2="197.1"/>
<line class="st7" x1="121.4" y1="63.7" x2="121.4" y2="197.1"/>
<line class="st7" x1="120.5" y1="63.7" x2="120.5" y2="197.1"/>
<line class="st7" x1="119.7" y1="63.7" x2="119.7" y2="197.1"/>
<line class="st7" x1="118.8" y1="63.7" x2="118.8" y2="197.1"/>
<line class="st7" x1="117.9" y1="63.7" x2="117.9" y2="197.1"/>
<polyline class="st3" points="169.2,197.7 169.2,100.7 157.7,86 157.5,86 146.2,100.7 146.2,197.7 169.2,197.7 "/>
<polyline class="st3" points="167.5,197.7 167.5,115 157.7,102.4 157.7,102.4 147.9,115 147.9,197.7 167.5,197.7 "/>
<polygon class="st7" points="167.5,197.7 167.5,115 157.7,102.4 157.7,102.4 147.9,115 147.9,197.7 "/>
<polyline class="st3" points="165.3,197.7 165.3,133.7 157.7,124 157.7,124 150,133.7 150,197.7 165.3,197.7 "/>
<polygon class="st7" points="165.3,197.7 165.3,133.7 157.7,124 157.7,124 150,133.7 150,197.7 "/>
<line class="st8" x1="157.7" y1="85.4" x2="157.7" y2="197.7"/>
<polyline class="st3" points="156.8,87.3 157.7,68.8 158.5,87.3 "/>
<polyline class="st3" points="205.2,197.1 205.2,118.4 202.6,118.4 202.6,114.4 201.9,114.4 200.4,112.2 199,114.2 198.1,114.2 
	198.1,118.4 195.7,118.4 195.7,121.3 185.9,121.3 185.9,118.4 183.4,118.4 183.4,114.2 182.6,114.2 181.1,112.2 179.7,114.4 
	178.8,114.4 178.8,118.4 176.2,118.4 176.2,197.1 205.2,197.1 "/>
<polygon class="st6" points="205.2,197.1 205.2,118.4 202.6,118.4 202.6,114.4 201.9,114.4 200.4,112.2 199,114.2 198.1,114.2 
	198.1,118.4 195.7,118.4 195.7,121.3 185.9,121.3 185.9,118.4 183.4,118.4 183.4,114.2 182.6,114.2 181.1,112.2 179.7,114.4 
	178.8,114.4 178.8,118.4 176.2,118.4 176.2,197.1 "/>
<rect x="179.5" y="114.8" class="st0" width="3.3" height="3.3"/>
<rect x="198.7" y="114.8" class="st0" width="3.3" height="3.3"/>
<rect x="179.4" y="119" class="st0" width="1.3" height="2.2"/>
<rect x="181.4" y="119" class="st0" width="1.3" height="2.2"/>
<rect x="183.4" y="119.6" class="st0" width="1.2" height="1.9"/>
<rect x="177.5" y="119.6" class="st0" width="1.2" height="1.9"/>
<rect x="179.4" y="122" class="st0" width="1.3" height="5.5"/>
<rect x="181.4" y="122" class="st0" width="1.3" height="5.5"/>
<rect x="179.4" y="128.1" class="st0" width="1.3" height="38.9"/>
<rect x="181.4" y="128.1" class="st0" width="1.3" height="38.9"/>
<rect x="183.4" y="122" class="st0" width="1.2" height="5.5"/>
<rect x="177.5" y="122" class="st0" width="1.2" height="5.5"/>
<rect x="198.7" y="122" class="st0" width="1.3" height="5.5"/>
<rect x="200.7" y="122" class="st0" width="1.3" height="5.5"/>
<rect x="198.7" y="128.1" class="st0" width="1.3" height="38.9"/>
<rect x="200.7" y="128.1" class="st0" width="1.3" height="38.9"/>
<rect x="202.7" y="122" class="st0" width="1.2" height="5.5"/>
<rect x="196.8" y="122" class="st0" width="1.2" height="5.5"/>
<rect x="198.7" y="119" class="st0" width="1.3" height="2.2"/>
<rect x="200.7" y="119" class="st0" width="1.3" height="2.2"/>
<rect x="202.7" y="119.6" class="st0" width="1.2" height="1.9"/>
<rect x="196.8" y="119.6" class="st0" width="1.2" height="1.9"/>
<polyline class="st3" points="266.9,98.8 278.6,104.6 278.6,196.8 254.8,196.8 254.8,104.6 266.5,98.8 266.9,98.8 "/>
<rect x="256.7" y="109.3" class="st0" width="3.9" height="3.9"/>
<rect x="261.3" y="109.3" class="st0" width="1.4" height="3.9"/>
<rect x="272.7" y="109.3" class="st0" width="3.9" height="3.9"/>
<rect x="270.4" y="109.3" class="st0" width="1.4" height="3.9"/>
<rect x="263.5" y="109.3" class="st0" width="6" height="3.9"/>
<rect x="256.7" y="113.8" class="st0" width="3.9" height="0.9"/>
<rect x="261.3" y="113.8" class="st0" width="1.4" height="0.9"/>
<rect x="272.7" y="113.8" class="st0" width="3.9" height="0.9"/>
<rect x="270.4" y="113.8" class="st0" width="1.4" height="0.9"/>
<rect x="263.5" y="113.8" class="st0" width="6" height="0.9"/>
<rect x="256.7" y="133.8" class="st0" width="3.9" height="0.9"/>
<rect x="261.3" y="133.8" class="st0" width="1.4" height="0.9"/>
<rect x="272.7" y="133.8" class="st0" width="3.9" height="0.9"/>
<rect x="270.4" y="133.8" class="st0" width="1.4" height="0.9"/>
<rect x="263.5" y="133.8" class="st0" width="6" height="0.9"/>
<rect x="256.7" y="120.1" class="st0" width="3.9" height="0.9"/>
<rect x="261.3" y="120.1" class="st0" width="1.4" height="0.9"/>
<rect x="272.7" y="120.1" class="st0" width="3.9" height="0.9"/>
<rect x="270.4" y="120.1" class="st0" width="1.4" height="0.9"/>
<rect x="256.7" y="126.8" class="st0" width="3.9" height="0.9"/>
<rect x="261.3" y="126.8" class="st0" width="1.4" height="0.9"/>
<rect x="272.7" y="126.8" class="st0" width="3.9" height="0.9"/>
<rect x="270.4" y="126.8" class="st0" width="1.4" height="0.9"/>
<rect x="256.7" y="140.4" class="st0" width="3.9" height="0.9"/>
<rect x="261.3" y="140.4" class="st0" width="1.4" height="0.9"/>
<rect x="272.7" y="140.4" class="st0" width="3.9" height="0.9"/>
<rect x="270.4" y="140.4" class="st0" width="1.4" height="0.9"/>
<rect x="256.7" y="115.5" class="st0" width="3.9" height="3.9"/>
<rect x="261.3" y="115.5" class="st0" width="1.4" height="3.9"/>
<rect x="272.7" y="115.5" class="st0" width="3.9" height="3.9"/>
<rect x="270.4" y="115.5" class="st0" width="1.4" height="3.9"/>
<rect x="256.7" y="122" class="st0" width="3.9" height="3.9"/>
<rect x="261.3" y="122" class="st0" width="1.4" height="3.9"/>
<rect x="272.7" y="122" class="st0" width="3.9" height="3.9"/>
<rect x="270.4" y="122" class="st0" width="1.4" height="3.9"/>
<rect x="256.7" y="128.8" class="st0" width="3.9" height="3.9"/>
<rect x="261.3" y="128.8" class="st0" width="1.4" height="3.9"/>
<rect x="272.7" y="128.8" class="st0" width="3.9" height="3.9"/>
<rect x="270.4" y="128.8" class="st0" width="1.4" height="3.9"/>
<rect x="256.7" y="153.8" class="st0" width="3.9" height="0.9"/>
<rect x="261.3" y="153.8" class="st0" width="1.4" height="0.9"/>
<rect x="272.7" y="153.8" class="st0" width="3.9" height="0.9"/>
<rect x="270.4" y="153.8" class="st0" width="1.4" height="0.9"/>
<rect x="263.5" y="153.8" class="st0" width="6" height="0.9"/>
<rect x="256.7" y="148.8" class="st0" width="3.9" height="3.9"/>
<rect x="261.3" y="148.8" class="st0" width="1.4" height="3.9"/>
<rect x="272.7" y="148.8" class="st0" width="3.9" height="3.9"/>
<rect x="270.4" y="148.8" class="st0" width="1.4" height="3.9"/>
<rect x="256.7" y="147" class="st0" width="3.9" height="0.9"/>
<rect x="261.3" y="147" class="st0" width="1.4" height="0.9"/>
<rect x="272.7" y="147" class="st0" width="3.9" height="0.9"/>
<rect x="270.4" y="147" class="st0" width="1.4" height="0.9"/>
<rect x="256.7" y="142" class="st0" width="3.9" height="3.9"/>
<rect x="261.3" y="142" class="st0" width="1.4" height="3.9"/>
<rect x="272.7" y="142" class="st0" width="3.9" height="3.9"/>
<rect x="270.4" y="142" class="st0" width="1.4" height="3.9"/>
<rect x="263.5" y="115.5" class="st0" width="6" height="17.4"/>
<rect x="256.7" y="135.5" class="st0" width="3.9" height="3.9"/>
<rect x="261.3" y="135.5" class="st0" width="1.4" height="3.9"/>
<rect x="272.7" y="135.5" class="st0" width="3.9" height="3.9"/>
<rect x="270.4" y="135.5" class="st0" width="1.4" height="3.9"/>
<rect x="263.5" y="135.5" class="st0" width="6" height="17.4"/>
<rect x="256.7" y="160.4" class="st0" width="3.9" height="0.9"/>
<rect x="261.3" y="160.4" class="st0" width="1.4" height="0.9"/>
<rect x="272.7" y="160.4" class="st0" width="3.9" height="0.9"/>
<rect x="270.4" y="160.4" class="st0" width="1.4" height="0.9"/>
<rect x="256.7" y="173.8" class="st0" width="3.9" height="0.9"/>
<rect x="261.3" y="173.8" class="st0" width="1.4" height="0.9"/>
<rect x="272.7" y="173.8" class="st0" width="3.9" height="0.9"/>
<rect x="270.4" y="173.8" class="st0" width="1.4" height="0.9"/>
<rect x="263.5" y="173.8" class="st0" width="6" height="0.9"/>
<rect x="256.7" y="168.8" class="st0" width="3.9" height="3.9"/>
<rect x="261.3" y="168.8" class="st0" width="1.4" height="3.9"/>
<rect x="272.7" y="168.8" class="st0" width="3.9" height="3.9"/>
<rect x="270.4" y="168.8" class="st0" width="1.4" height="3.9"/>
<rect x="256.7" y="167.1" class="st0" width="3.9" height="0.9"/>
<rect x="261.3" y="167.1" class="st0" width="1.4" height="0.9"/>
<rect x="272.7" y="167.1" class="st0" width="3.9" height="0.9"/>
<rect x="270.4" y="167.1" class="st0" width="1.4" height="0.9"/>
<rect x="256.7" y="162" class="st0" width="3.9" height="3.9"/>
<rect x="261.3" y="162" class="st0" width="1.4" height="3.9"/>
<rect x="272.7" y="162" class="st0" width="3.9" height="3.9"/>
<rect x="270.4" y="162" class="st0" width="1.4" height="3.9"/>
<rect x="256.7" y="155.5" class="st0" width="3.9" height="3.9"/>
<rect x="261.3" y="155.5" class="st0" width="1.4" height="3.9"/>
<rect x="272.7" y="155.5" class="st0" width="3.9" height="3.9"/>
<rect x="270.4" y="155.5" class="st0" width="1.4" height="3.9"/>
<rect x="263.5" y="155.5" class="st0" width="6" height="17.4"/>
<polyline class="st0" points="276.8,105.3 266.8,100.4 266.6,100.4 256.6,105.3 276.8,105.3 "/>
<rect x="256.7" y="180.7" class="st0" width="3.9" height="0.9"/>
<rect x="261.3" y="180.7" class="st0" width="1.4" height="0.9"/>
<rect x="272.7" y="180.7" class="st0" width="3.9" height="0.9"/>
<rect x="270.4" y="180.7" class="st0" width="1.4" height="0.9"/>
<rect x="256.7" y="194.1" class="st0" width="3.9" height="0.9"/>
<rect x="261.3" y="194.1" class="st0" width="1.4" height="0.9"/>
<rect x="272.7" y="194.1" class="st0" width="3.9" height="0.9"/>
<rect x="270.4" y="194.1" class="st0" width="1.4" height="0.9"/>
<rect x="263.5" y="194.1" class="st0" width="6" height="0.9"/>
<rect x="256.7" y="189.1" class="st0" width="3.9" height="3.9"/>
<rect x="261.3" y="189.1" class="st0" width="1.4" height="3.9"/>
<rect x="272.7" y="189.1" class="st0" width="3.9" height="3.9"/>
<rect x="270.4" y="189.1" class="st0" width="1.4" height="3.9"/>
<rect x="256.7" y="187.3" class="st0" width="3.9" height="0.9"/>
<rect x="261.3" y="187.3" class="st0" width="1.4" height="0.9"/>
<rect x="272.7" y="187.3" class="st0" width="3.9" height="0.9"/>
<rect x="270.4" y="187.3" class="st0" width="1.4" height="0.9"/>
<rect x="256.7" y="182.3" class="st0" width="3.9" height="3.9"/>
<rect x="261.3" y="182.3" class="st0" width="1.4" height="3.9"/>
<rect x="272.7" y="182.3" class="st0" width="3.9" height="3.9"/>
<rect x="270.4" y="182.3" class="st0" width="1.4" height="3.9"/>
<rect x="256.7" y="175.8" class="st0" width="3.9" height="3.9"/>
<rect x="261.3" y="175.8" class="st0" width="1.4" height="3.9"/>
<rect x="272.7" y="175.8" class="st0" width="3.9" height="3.9"/>
<rect x="270.4" y="175.8" class="st0" width="1.4" height="3.9"/>
<rect x="263.5" y="175.8" class="st0" width="6" height="17.4"/>
<path class="st0" d="M262.9,106.6v2.2h-1.6v-2.2c0,0,0.1-0.6,0.7-0.6C262.7,106,262.9,106.6,262.9,106.6"/>
<path class="st0" d="M258.1,106.6v2.2h-1.6v-2.2c0,0,0.1-0.6,0.7-0.6C258.1,106,258.1,106.6,258.1,106.6"/>
<path class="st0" d="M260.6,106.6v2.2H259v-2.2c0,0,0.1-0.6,0.7-0.6C260.4,106,260.6,106.6,260.6,106.6"/>
<path class="st0" d="M276.6,106.6v2.2H275v-2.2c0,0,0.1-0.6,0.7-0.6C276.4,106,276.6,106.6,276.6,106.6"/>
<path class="st0" d="M271.8,106.6v2.2h-1.6v-2.2c0,0,0.1-0.6,0.7-0.6C271.8,106,271.8,106.6,271.8,106.6"/>
<path class="st0" d="M274.3,106.6v2.2h-1.6v-2.2c0,0,0.1-0.6,0.7-0.6C274.3,106,274.3,106.6,274.3,106.6"/>
<path class="st0" d="M269.6,106.6v2.2h-1.6v-2.2c0,0,0.1-0.6,0.7-0.6C269.5,106,269.6,106.6,269.6,106.6"/>
<path class="st0" d="M264.9,106.6v2.2h-1.6v-2.2c0,0,0.1-0.6,0.7-0.6C264.9,106,264.9,106.6,264.9,106.6"/>
<path class="st0" d="M267.3,106.6v2.2h-1.6v-2.2c0,0,0.1-0.6,0.7-0.6C267.2,106,267.3,106.6,267.3,106.6"/>
<rect x="286.8" y="104.4" class="st3" width="40.4" height="92.3"/>
<rect x="286.8" y="104.4" class="st6" width="40.4" height="92.3"/>
<path class="st6" d="M286.8,104.4"/>
<line class="st7" x1="321.5" y1="111.1" x2="321.5" y2="190.1"/>
<line class="st7" x1="315.7" y1="111.1" x2="315.7" y2="190.1"/>
<line class="st7" x1="309.9" y1="111.1" x2="309.9" y2="190.1"/>
<line class="st7" x1="304.2" y1="111.1" x2="304.2" y2="190.1"/>
<line class="st7" x1="298.4" y1="111.1" x2="298.4" y2="190.1"/>
<line class="st7" x1="292.7" y1="111.1" x2="292.7" y2="190.1"/>
<line class="st9" x1="286.8" y1="190.2" x2="327.1" y2="190.2"/>
<line class="st9" x1="286.8" y1="188.5" x2="327.1" y2="188.5"/>
<line class="st9" x1="286.8" y1="186.8" x2="327.1" y2="186.8"/>
<line class="st9" x1="286.8" y1="185" x2="327.1" y2="185"/>
<line class="st9" x1="286.8" y1="183.5" x2="327.1" y2="183.5"/>
<line class="st9" x1="286.8" y1="181.7" x2="327.1" y2="181.7"/>
<line class="st9" x1="286.8" y1="180" x2="327.1" y2="180"/>
<line class="st9" x1="286.8" y1="178.4" x2="327.1" y2="178.4"/>
<line class="st9" x1="286.8" y1="176.7" x2="327.1" y2="176.7"/>
<line class="st9" x1="286.8" y1="175" x2="327.1" y2="175"/>
<line class="st9" x1="286.8" y1="173.4" x2="327.1" y2="173.4"/>
<line class="st9" x1="286.8" y1="171.7" x2="327.1" y2="171.7"/>
<line class="st9" x1="286.8" y1="169.9" x2="327.1" y2="169.9"/>
<line class="st9" x1="286.8" y1="163.3" x2="327.1" y2="163.3"/>
<line class="st9" x1="286.8" y1="161.6" x2="327.1" y2="161.6"/>
<line class="st9" x1="286.8" y1="159.9" x2="327.1" y2="159.9"/>
<line class="st9" x1="286.8" y1="158.3" x2="327.1" y2="158.3"/>
<line class="st9" x1="286.8" y1="156.5" x2="327.1" y2="156.5"/>
<line class="st9" x1="286.8" y1="154.8" x2="327.1" y2="154.8"/>
<line class="st9" x1="286.8" y1="153.1" x2="327.1" y2="153.1"/>
<line class="st9" x1="286.8" y1="151.5" x2="327.1" y2="151.5"/>
<line class="st9" x1="286.8" y1="149.8" x2="327.1" y2="149.8"/>
<line class="st9" x1="286.8" y1="148.1" x2="327.1" y2="148.1"/>
<line class="st9" x1="286.8" y1="146.5" x2="327.1" y2="146.5"/>
<line class="st9" x1="286.8" y1="144.7" x2="327.1" y2="144.7"/>
<line class="st9" x1="286.8" y1="143" x2="327.1" y2="143"/>
<line class="st9" x1="286.8" y1="141.4" x2="327.1" y2="141.4"/>
<line class="st9" x1="286.8" y1="139.7" x2="327.1" y2="139.7"/>
<line class="st9" x1="286.8" y1="138" x2="327.1" y2="138"/>
<line class="st9" x1="286.8" y1="136.4" x2="327.1" y2="136.4"/>
<line class="st9" x1="286.8" y1="134.7" x2="327.1" y2="134.7"/>
<line class="st9" x1="286.8" y1="132.9" x2="327.1" y2="132.9"/>
<line class="st9" x1="286.8" y1="131.4" x2="327.1" y2="131.4"/>
<line class="st9" x1="286.8" y1="129.6" x2="327.1" y2="129.6"/>
<line class="st9" x1="286.8" y1="127.9" x2="327.1" y2="127.9"/>
<line class="st9" x1="286.8" y1="126.2" x2="327.1" y2="126.2"/>
<line class="st9" x1="286.8" y1="124.6" x2="327.1" y2="124.6"/>
<line class="st9" x1="286.8" y1="122.9" x2="327.1" y2="122.9"/>
<line class="st9" x1="286.8" y1="121.1" x2="327.1" y2="121.1"/>
<line class="st9" x1="286.8" y1="119.6" x2="327.1" y2="119.6"/>
<line class="st9" x1="286.8" y1="117.8" x2="327.1" y2="117.8"/>
<line class="st9" x1="286.8" y1="116.1" x2="327.1" y2="116.1"/>
<line class="st9" x1="286.8" y1="114.5" x2="327.1" y2="114.5"/>
<line class="st9" x1="286.8" y1="112.8" x2="327.1" y2="112.8"/>
<line class="st9" x1="286.8" y1="111.1" x2="327.1" y2="111.1"/>
<line class="st10" x1="325.5" y1="111.1" x2="325.5" y2="190.2"/>
<line class="st10" x1="323.5" y1="111.1" x2="323.5" y2="190.2"/>
<line class="st10" x1="319.7" y1="111.1" x2="319.7" y2="190.2"/>
<line class="st10" x1="317.7" y1="111.1" x2="317.7" y2="190.2"/>
<line class="st10" x1="314" y1="111.1" x2="314" y2="190.2"/>
<line class="st10" x1="312" y1="111.1" x2="312" y2="190.2"/>
<line class="st10" x1="308.2" y1="111.1" x2="308.2" y2="190.2"/>
<line class="st10" x1="306.2" y1="111.1" x2="306.2" y2="190.2"/>
<line class="st10" x1="302.5" y1="111.1" x2="302.5" y2="190.2"/>
<line class="st10" x1="300.4" y1="111.1" x2="300.4" y2="190.2"/>
<line class="st10" x1="296.6" y1="111.1" x2="296.6" y2="190.2"/>
<line class="st10" x1="294.7" y1="111.1" x2="294.7" y2="190.2"/>
<line class="st10" x1="290.8" y1="111.1" x2="290.8" y2="190.2"/>
<line class="st10" x1="288.9" y1="111.1" x2="288.9" y2="190.2"/>
<rect x="286.9" y="163.3" class="st3" width="40.3" height="6.5"/>
<polyline class="st3" points="373.7,197.4 373.7,143.5 365.4,143.5 365.4,133.1 364.2,133.1 364.2,128.8 362.9,128.8 362.9,110.2 
	344.1,110.2 344.1,128.8 342.8,128.8 342.8,133.1 341.6,133.1 341.6,143.5 333.3,143.5 333.3,197.4 373.7,197.4 "/>
<rect x="346.1" y="100.7" class="st3" width="15" height="12.8"/>
<path class="st0" d="M356.9,106.3c0,1.9-1.6,3.5-3.5,3.5s-3.5-1.6-3.5-3.5c0-1.9,1.6-3.5,3.5-3.5
	C355.4,102.9,356.9,104.4,356.9,106.3"/>
<path class="st3" d="M360.6,100.7v-1.4c0,0-0.6-0.3-0.7-0.7c0-0.1,0-3.6,0-3.6l-0.3-0.3v-0.7l-0.1-0.3v-1.3l-0.3-0.4l-0.3-0.7
	l-0.3,0.7l-0.3,0.4v1.2H358v-1.2l-0.4-0.4v-1l-0.4-1.3l-0.4,1.3v0.7h-0.4v-5.3c-0.1-0.1-0.1-0.3-0.4-0.4c-0.3-0.1-0.7-0.1-0.7-0.1
	v-2.2c0,0-0.3-0.3-0.4-0.4c-0.1-0.1-0.3-0.3-0.6-0.3c-0.1,0-0.3,0-0.4,0h-0.1c-0.1,0-0.3,0-0.4,0c-0.1,0-0.4,0.1-0.6,0.3
	c-0.1,0.1-0.4,0.4-0.4,0.4v2.2c0,0-0.3,0-0.7,0.1c-0.3,0.1-0.3,0.3-0.4,0.4v5.3h-0.4v-0.7l-0.4-1.3l-0.4,1.3v1l-0.4,0.4v1.2H349
	v-1.2l-0.3-0.4l-0.3-0.7l-0.3,0.7l-0.3,0.4v1.3l-0.3,0.3v0.7l-0.3,0.3c0,0,0,3.3,0,3.6c-0.1,0.3-0.7,0.7-0.7,0.7v1.4H360.6"/>
<path class="st6" d="M360.6,100.7v-1.4c0,0-0.6-0.3-0.7-0.7c0-0.1,0-3.6,0-3.6l-0.3-0.3v-0.7l-0.1-0.3v-1.3l-0.3-0.4l-0.3-0.7
	l-0.3,0.7l-0.3,0.4v1.2H358v-1.2l-0.4-0.4v-1l-0.4-1.3l-0.4,1.3v0.7h-0.4v-5.3c-0.1-0.1-0.1-0.3-0.4-0.4c-0.3-0.1-0.7-0.1-0.7-0.1
	v-2.2c0,0-0.3-0.3-0.4-0.4c-0.1-0.1-0.3-0.3-0.6-0.3c-0.1,0-0.3,0-0.4,0h-0.1c-0.1,0-0.3,0-0.4,0c-0.1,0-0.4,0.1-0.6,0.3
	c-0.1,0.1-0.4,0.4-0.4,0.4v2.2c0,0-0.3,0-0.7,0.1c-0.3,0.1-0.3,0.3-0.4,0.4v5.3h-0.4v-0.7l-0.4-1.3l-0.4,1.3v1l-0.4,0.4v1.2H349
	v-1.2l-0.3-0.4l-0.3-0.7l-0.3,0.7l-0.3,0.4v1.3l-0.3,0.3v0.7l-0.3,0.3c0,0,0,3.3,0,3.6c-0.1,0.3-0.7,0.7-0.7,0.7v1.4H360.6z"/>
<polyline class="st3" points="353.1,83.1 353.6,74.8 354,83.1 "/>
<polyline class="st6" points="353.1,83.1 353.6,74.8 354,83.1 "/>
<path class="st0" d="M349.8,100.3v-3.7c0,0,0.1-0.9,0.7-0.9s0.7,0.9,0.7,0.9v3.7H349.8"/>
<path class="st0" d="M352.7,100.3v-3.7c0,0,0.1-0.9,0.7-0.9s0.7,0.9,0.7,0.9v3.7H352.7"/>
<path class="st0" d="M355.4,100.3v-3.7c0,0,0.1-0.9,0.7-0.9s0.7,0.9,0.7,0.9v3.7H355.4"/>
<path class="st0" d="M352,91.5v-2.9c0,0,0.1-0.7,0.3-0.7c0.3,0,0.3,0.7,0.3,0.7v2.9H352"/>
<path class="st0" d="M354.3,91.5v-2.9c0,0,0.1-0.7,0.3-0.7c0.3,0,0.3,0.7,0.3,0.7v2.9H354.3"/>
<path class="st0" d="M353.1,91.2v-3c0,0,0.1-0.7,0.3-0.7c0.3,0,0.3,0.7,0.3,0.7v3H353.1"/>
<rect x="349.8" y="145.3" class="st0" width="1.4" height="2.6"/>
<rect x="349.8" y="141.3" class="st0" width="1.4" height="2.6"/>
<rect x="349.8" y="137.3" class="st0" width="1.4" height="2.6"/>
<rect x="349.8" y="133.2" class="st0" width="1.4" height="2.6"/>
<rect x="349.8" y="129.1" class="st0" width="1.4" height="2.6"/>
<rect x="349.8" y="125" class="st0" width="1.4" height="2.6"/>
<rect x="349.8" y="121" class="st0" width="1.4" height="2.6"/>
<rect x="349.8" y="116.8" class="st0" width="1.4" height="2.6"/>
<rect x="349.8" y="112.8" class="st0" width="1.4" height="2.6"/>
<rect x="352.7" y="145.3" class="st0" width="1.4" height="2.6"/>
<rect x="352.7" y="141.3" class="st0" width="1.4" height="2.6"/>
<rect x="352.7" y="137.3" class="st0" width="1.4" height="2.6"/>
<rect x="352.7" y="133.2" class="st0" width="1.4" height="2.6"/>
<rect x="352.7" y="129.1" class="st0" width="1.4" height="2.6"/>
<rect x="352.7" y="125" class="st0" width="1.4" height="2.6"/>
<rect x="352.7" y="121" class="st0" width="1.4" height="2.6"/>
<rect x="352.7" y="116.8" class="st0" width="1.4" height="2.6"/>
<rect x="352.7" y="112.8" class="st0" width="1.4" height="2.6"/>
<rect x="355.4" y="145.3" class="st0" width="1.4" height="2.6"/>
<rect x="355.4" y="141.3" class="st0" width="1.4" height="2.6"/>
<rect x="355.4" y="137.3" class="st0" width="1.4" height="2.6"/>
<rect x="355.4" y="133.2" class="st0" width="1.4" height="2.6"/>
<rect x="355.4" y="129.1" class="st0" width="1.4" height="2.6"/>
<rect x="355.4" y="125" class="st0" width="1.4" height="2.6"/>
<rect x="355.4" y="121" class="st0" width="1.4" height="2.6"/>
<rect x="355.4" y="116.8" class="st0" width="1.4" height="2.6"/>
<rect x="355.4" y="112.8" class="st0" width="1.4" height="2.6"/>
<path class="st3" d="M378.3,109.1c0,0,0.1-0.4,0.3-0.6c0.1-0.1,0.4-0.4,1.2-0.4c0.9,0,1.3,0.7,1.3,0.9c0,0.3,0,0.9,0,0.9l2,0.4V103
	l0.7-1.2l0.6,1.2v1.2l0.4-0.3V99l0.7-1.3l0.7,1.4v0.6l0.9-0.4v-1.7l0.4-0.4l0.4,0.4v1.3h0.3v-0.7h0.3c0,0,0-1,0-1.3l0.1-0.1
	c0.1,0,0.4,0,0.6,0c0.1,0,0.1,0.1,0.1,0.1c0,0.3,0,1.2,0,1.2h0.6c0,0,0-0.9,0-1.2c0-0.1,0.1-0.1,0.1-0.1c0.1,0,0.4,0,0.6,0l0.1,0.1
	c0,0.3,0,1.3,0,1.3h0.3v0.7h0.3v-1.3l0.4-0.4l0.4,0.4v1.7l0.9,0.4v-0.6l0.7-1.4l0.7,1.3v4.9l0.4,0.3V103l0.6-1.2l0.7,1.2v7.2l2-0.4
	c0,0,0-0.7,0-0.9c0,0,0.4-0.9,1.3-0.9c0.7,0,1,0.3,1.2,0.4c0.1,0.1,0.3,0.6,0.3,0.6v31.1h4v-2.9l0.4-1l0.4,0.9v1.6h2.3v-1.9l0.7-1.9
	l0.7,1.9v1.7v58.9h-30.9L378.3,109.1"/>
<path class="st3" d="M390.3,98.4c0,0,0-1.9,0-2.3c0-0.1-0.1-0.3-0.3-0.3c-0.1,0-0.7-0.1-0.9,0c-0.1,0-0.3,0.3-0.3,0.3
	c0,0.6,0,2.3,0,2.3H390.3"/>
<path class="st0" d="M390.7,114.7c0,0,0-4.2,0-5.5c0-0.3-0.4-0.7-1.2-0.7c-0.6,0-1.2,0.4-1.2,0.7c0,1.3,0,5.5,0,5.5H390.7"/>
<path class="st0" d="M382.6,114.8c0,0,0-2.3,0-2.9c0-0.1-0.3-0.7-0.9-0.7c-0.4,0-0.9,0.4-0.9,0.7c0,0.6,0,2.4,0,2.4L382.6,114.8"/>
<path class="st0" d="M396.3,114.8c0,0,0-2.3,0-2.9c0-0.1,0.3-0.7,0.9-0.7c0.4,0,0.9,0.4,0.9,0.7c0,0.6,0,2.4,0,2.4L396.3,114.8"/>
<line class="st5" x1="389.5" y1="108.5" x2="389.5" y2="114.7"/>
<line class="st5" x1="388.1" y1="109.9" x2="390.7" y2="109.9"/>
<line class="st5" x1="388.4" y1="112.1" x2="390.8" y2="112.1"/>
<line class="st5" x1="406.8" y1="140" x2="406.8" y2="146.6"/>
<line class="st5" x1="405.7" y1="141.9" x2="408" y2="141.9"/>
<line class="st5" x1="405.4" y1="144" x2="408.1" y2="144"/>
<line class="st5" x1="405.7" y1="146.5" x2="408" y2="146.5"/>
<path class="st0" d="M390.7,195.6c0,0,0-74.3,0-75.6c0-0.3-0.4-0.7-1.2-0.7c-0.6,0-1.2,0.4-1.2,0.7c0,1.3,0,75.6,0,75.6H390.7"/>
<line class="st5" x1="389.5" y1="119" x2="389.5" y2="196.3"/>
<line class="st5" x1="388.2" y1="120.9" x2="390.7" y2="120.9"/>
<line class="st5" x1="388.1" y1="123" x2="390.8" y2="123"/>
<line class="st5" x1="388.4" y1="192.4" x2="390.7" y2="192.4"/>
<line class="st5" x1="388.4" y1="189.9" x2="390.7" y2="189.9"/>
<line class="st5" x1="388.4" y1="187.3" x2="390.7" y2="187.3"/>
<line class="st5" x1="388.4" y1="184.9" x2="390.7" y2="184.9"/>
<line class="st5" x1="388.4" y1="182.5" x2="390.7" y2="182.5"/>
<line class="st5" x1="388.4" y1="180" x2="390.7" y2="180"/>
<line class="st5" x1="388.4" y1="177.4" x2="390.7" y2="177.4"/>
<line class="st5" x1="388.4" y1="175" x2="390.7" y2="175"/>
<line class="st5" x1="388.4" y1="172.5" x2="390.7" y2="172.5"/>
<line class="st5" x1="388.4" y1="169.9" x2="390.7" y2="169.9"/>
<line class="st5" x1="388.4" y1="167.5" x2="390.7" y2="167.5"/>
<line class="st5" x1="388.4" y1="165" x2="390.7" y2="165"/>
<line class="st5" x1="388.4" y1="162.4" x2="390.7" y2="162.4"/>
<line class="st5" x1="388.4" y1="160" x2="390.7" y2="160"/>
<line class="st5" x1="388.4" y1="157.6" x2="390.7" y2="157.6"/>
<line class="st5" x1="388.4" y1="155.1" x2="390.7" y2="155.1"/>
<line class="st5" x1="388.4" y1="152.5" x2="390.7" y2="152.5"/>
<line class="st5" x1="388.4" y1="150.1" x2="390.7" y2="150.1"/>
<line class="st5" x1="388.4" y1="147.6" x2="390.7" y2="147.6"/>
<line class="st5" x1="388.4" y1="145" x2="390.7" y2="145"/>
<line class="st5" x1="388.4" y1="142.6" x2="390.7" y2="142.6"/>
<line class="st5" x1="388.4" y1="140.1" x2="390.7" y2="140.1"/>
<line class="st5" x1="388.4" y1="137.7" x2="390.7" y2="137.7"/>
<line class="st5" x1="388.4" y1="135.1" x2="390.7" y2="135.1"/>
<line class="st5" x1="388.4" y1="132.7" x2="390.7" y2="132.7"/>
<line class="st5" x1="388.4" y1="130.2" x2="390.7" y2="130.2"/>
<line class="st5" x1="388.4" y1="127.6" x2="390.7" y2="127.6"/>
<line class="st5" x1="388.4" y1="125.2" x2="390.7" y2="125.2"/>
<path class="st0" d="M387.1,195.6c0,0,0-74.3,0-75.6c0-0.3-0.4-0.7-1.2-0.7c-0.6,0-1.2,0.4-1.2,0.7c0,1.3,0,75.6,0,75.6H387.1"/>
<line class="st5" x1="385.9" y1="119" x2="385.9" y2="196.3"/>
<line class="st5" x1="384.6" y1="120.9" x2="387.1" y2="120.9"/>
<line class="st5" x1="384.4" y1="123" x2="387.2" y2="123"/>
<line class="st5" x1="384.6" y1="192.2" x2="387.1" y2="192.2"/>
<line class="st5" x1="384.6" y1="189.8" x2="387.1" y2="189.8"/>
<line class="st5" x1="384.6" y1="187.3" x2="387.1" y2="187.3"/>
<line class="st5" x1="384.6" y1="184.9" x2="387.1" y2="184.9"/>
<line class="st5" x1="384.6" y1="182.3" x2="387.1" y2="182.3"/>
<line class="st5" x1="384.6" y1="179.9" x2="387.1" y2="179.9"/>
<line class="st5" x1="384.6" y1="177.4" x2="387.1" y2="177.4"/>
<line class="st5" x1="384.6" y1="174.8" x2="387.1" y2="174.8"/>
<line class="st5" x1="384.6" y1="172.4" x2="387.1" y2="172.4"/>
<line class="st5" x1="384.6" y1="169.9" x2="387.1" y2="169.9"/>
<line class="st5" x1="384.6" y1="167.3" x2="387.1" y2="167.3"/>
<line class="st5" x1="384.6" y1="164.9" x2="387.1" y2="164.9"/>
<line class="st5" x1="384.6" y1="162.4" x2="387.1" y2="162.4"/>
<line class="st5" x1="384.6" y1="160" x2="387.1" y2="160"/>
<line class="st5" x1="384.6" y1="157.4" x2="387.1" y2="157.4"/>
<line class="st5" x1="384.6" y1="155" x2="387.1" y2="155"/>
<line class="st5" x1="384.6" y1="152.5" x2="387.1" y2="152.5"/>
<line class="st5" x1="384.6" y1="149.9" x2="387.1" y2="149.9"/>
<line class="st5" x1="384.6" y1="147.5" x2="387.1" y2="147.5"/>
<line class="st5" x1="384.6" y1="145" x2="387.1" y2="145"/>
<line class="st5" x1="384.6" y1="142.6" x2="387.1" y2="142.6"/>
<line class="st5" x1="384.6" y1="140" x2="387.1" y2="140"/>
<line class="st5" x1="384.6" y1="137.5" x2="387.1" y2="137.5"/>
<line class="st5" x1="384.6" y1="135.1" x2="387.1" y2="135.1"/>
<line class="st5" x1="384.6" y1="132.5" x2="387.1" y2="132.5"/>
<line class="st5" x1="384.6" y1="130.1" x2="387.1" y2="130.1"/>
<line class="st5" x1="384.6" y1="127.6" x2="387.1" y2="127.6"/>
<line class="st5" x1="384.6" y1="125" x2="387.1" y2="125"/>
<path class="st0" d="M394.1,195.7c0,0,0-74.3,0-75.6c0-0.3-0.4-0.7-1.2-0.7c-0.6,0-1.2,0.4-1.2,0.7c0,1.3,0,75.6,0,75.6H394.1"/>
<line class="st5" x1="393.1" y1="119.1" x2="393.1" y2="197.1"/>
<line class="st5" x1="391.8" y1="120.9" x2="394.3" y2="120.9"/>
<line class="st5" x1="391.6" y1="123" x2="394.3" y2="123"/>
<line class="st5" x1="391.8" y1="192.4" x2="394.3" y2="192.4"/>
<line class="st5" x1="391.8" y1="189.9" x2="394.3" y2="189.9"/>
<line class="st5" x1="391.8" y1="187.5" x2="394.3" y2="187.5"/>
<line class="st5" x1="391.8" y1="184.9" x2="394.3" y2="184.9"/>
<line class="st5" x1="391.8" y1="182.5" x2="394.3" y2="182.5"/>
<line class="st5" x1="391.8" y1="180" x2="394.3" y2="180"/>
<line class="st5" x1="391.8" y1="177.4" x2="394.3" y2="177.4"/>
<line class="st5" x1="391.8" y1="175" x2="394.3" y2="175"/>
<line class="st5" x1="391.8" y1="172.5" x2="394.3" y2="172.5"/>
<line class="st5" x1="391.8" y1="170.1" x2="394.3" y2="170.1"/>
<line class="st5" x1="391.8" y1="167.5" x2="394.3" y2="167.5"/>
<line class="st5" x1="391.8" y1="165" x2="394.3" y2="165"/>
<line class="st5" x1="391.8" y1="162.6" x2="394.3" y2="162.6"/>
<line class="st5" x1="391.8" y1="160" x2="394.3" y2="160"/>
<line class="st5" x1="391.8" y1="157.6" x2="394.3" y2="157.6"/>
<line class="st5" x1="391.8" y1="155.1" x2="394.3" y2="155.1"/>
<line class="st5" x1="391.8" y1="152.7" x2="394.3" y2="152.7"/>
<line class="st5" x1="391.8" y1="150.1" x2="394.3" y2="150.1"/>
<line class="st5" x1="391.8" y1="147.6" x2="394.3" y2="147.6"/>
<line class="st5" x1="391.8" y1="145.2" x2="394.3" y2="145.2"/>
<line class="st5" x1="391.8" y1="142.6" x2="394.3" y2="142.6"/>
<line class="st5" x1="391.8" y1="140.1" x2="394.3" y2="140.1"/>
<line class="st5" x1="391.8" y1="137.7" x2="394.3" y2="137.7"/>
<line class="st5" x1="391.8" y1="135.1" x2="394.3" y2="135.1"/>
<line class="st5" x1="391.8" y1="132.7" x2="394.3" y2="132.7"/>
<line class="st5" x1="391.8" y1="130.2" x2="394.3" y2="130.2"/>
<line class="st5" x1="391.8" y1="127.8" x2="394.3" y2="127.8"/>
<line class="st5" x1="391.8" y1="125.2" x2="394.3" y2="125.2"/>
<path class="st0" d="M399,195.7c0,0,0-72.4,0-73.8c0-0.3-0.4-0.7-1.2-0.7c-0.6,0-1.2,0.4-1.2,0.7c0,1.3,0,73.8,0,73.8H399"/>
<line class="st5" x1="397.9" y1="120.9" x2="397.9" y2="196"/>
<line class="st5" x1="396.6" y1="122.7" x2="399" y2="122.7"/>
<line class="st5" x1="396.5" y1="124.9" x2="399.2" y2="124.9"/>
<line class="st5" x1="396.7" y1="191.7" x2="399" y2="191.7"/>
<line class="st5" x1="396.7" y1="189.2" x2="399" y2="189.2"/>
<line class="st5" x1="396.7" y1="186.8" x2="399" y2="186.8"/>
<line class="st5" x1="396.7" y1="184.2" x2="399" y2="184.2"/>
<line class="st5" x1="396.7" y1="181.7" x2="399" y2="181.7"/>
<line class="st5" x1="396.7" y1="179.3" x2="399" y2="179.3"/>
<line class="st5" x1="396.7" y1="176.7" x2="399" y2="176.7"/>
<line class="st5" x1="396.7" y1="174.3" x2="399" y2="174.3"/>
<line class="st5" x1="396.7" y1="171.8" x2="399" y2="171.8"/>
<line class="st5" x1="396.7" y1="169.4" x2="399" y2="169.4"/>
<line class="st5" x1="396.7" y1="166.8" x2="399" y2="166.8"/>
<line class="st5" x1="396.7" y1="164.3" x2="399" y2="164.3"/>
<line class="st5" x1="396.7" y1="161.9" x2="399" y2="161.9"/>
<line class="st5" x1="396.7" y1="159.3" x2="399" y2="159.3"/>
<line class="st5" x1="396.7" y1="156.8" x2="399" y2="156.8"/>
<line class="st5" x1="396.7" y1="154.4" x2="399" y2="154.4"/>
<line class="st5" x1="396.7" y1="151.9" x2="399" y2="151.9"/>
<line class="st5" x1="396.7" y1="149.4" x2="399" y2="149.4"/>
<line class="st5" x1="396.7" y1="146.9" x2="399" y2="146.9"/>
<line class="st5" x1="396.7" y1="144.5" x2="399" y2="144.5"/>
<line class="st5" x1="396.7" y1="141.9" x2="399" y2="141.9"/>
<line class="st5" x1="396.7" y1="139.4" x2="399" y2="139.4"/>
<line class="st5" x1="396.7" y1="137" x2="399" y2="137"/>
<line class="st5" x1="396.7" y1="134.4" x2="399" y2="134.4"/>
<line class="st5" x1="396.7" y1="131.9" x2="399" y2="131.9"/>
<line class="st5" x1="396.7" y1="129.5" x2="399" y2="129.5"/>
<line class="st5" x1="396.7" y1="127" x2="399" y2="127"/>
<path class="st0" d="M382.9,195.6c0,0,0-72.4,0-73.8c0-0.3-0.4-0.7-1.2-0.7c-0.6,0-1.2,0.4-1.2,0.7c0,1.3,0,73.8,0,73.8H382.9"/>
<line class="st5" x1="381.8" y1="120.7" x2="381.8" y2="196.3"/>
<line class="st5" x1="380.5" y1="122.6" x2="382.9" y2="122.6"/>
<line class="st5" x1="380.3" y1="124.7" x2="383.1" y2="124.7"/>
<line class="st5" x1="380.6" y1="191.7" x2="382.9" y2="191.7"/>
<line class="st5" x1="380.6" y1="189.1" x2="382.9" y2="189.1"/>
<line class="st5" x1="380.6" y1="186.6" x2="382.9" y2="186.6"/>
<line class="st5" x1="380.6" y1="184.2" x2="382.9" y2="184.2"/>
<line class="st5" x1="380.6" y1="181.7" x2="382.9" y2="181.7"/>
<line class="st5" x1="380.6" y1="179.1" x2="382.9" y2="179.1"/>
<line class="st5" x1="380.6" y1="176.7" x2="382.9" y2="176.7"/>
<line class="st5" x1="380.6" y1="174.3" x2="382.9" y2="174.3"/>
<line class="st5" x1="380.6" y1="171.7" x2="382.9" y2="171.7"/>
<line class="st5" x1="380.6" y1="169.2" x2="382.9" y2="169.2"/>
<line class="st5" x1="380.6" y1="166.8" x2="382.9" y2="166.8"/>
<line class="st5" x1="380.6" y1="164.2" x2="382.9" y2="164.2"/>
<line class="st5" x1="380.6" y1="161.7" x2="382.9" y2="161.7"/>
<line class="st5" x1="380.6" y1="159.3" x2="382.9" y2="159.3"/>
<line class="st5" x1="380.6" y1="156.8" x2="382.9" y2="156.8"/>
<line class="st5" x1="380.6" y1="154.2" x2="382.9" y2="154.2"/>
<line class="st5" x1="380.6" y1="151.8" x2="382.9" y2="151.8"/>
<line class="st5" x1="380.6" y1="149.4" x2="382.9" y2="149.4"/>
<line class="st5" x1="380.6" y1="146.8" x2="382.9" y2="146.8"/>
<line class="st5" x1="380.6" y1="144.3" x2="382.9" y2="144.3"/>
<line class="st5" x1="380.6" y1="141.9" x2="382.9" y2="141.9"/>
<line class="st5" x1="380.6" y1="139.4" x2="382.9" y2="139.4"/>
<line class="st5" x1="380.6" y1="136.8" x2="382.9" y2="136.8"/>
<line class="st5" x1="380.6" y1="134.4" x2="382.9" y2="134.4"/>
<line class="st5" x1="380.6" y1="131.9" x2="382.9" y2="131.9"/>
<line class="st5" x1="380.6" y1="129.3" x2="382.9" y2="129.3"/>
<line class="st5" x1="380.6" y1="126.9" x2="382.9" y2="126.9"/>
<path class="st0" d="M390.3,102.7c0,0,0-1.3,0-1.7c0-0.3-0.3-0.7-0.7-0.7s-0.7,0.4-0.7,0.7c0,0.4,0,1.7,0,1.7H390.3"/>
<path class="st0" d="M408,195.7c0,0,0-53.4,0-54.7c0-0.3-0.4-0.7-1.2-0.7c-0.6,0-1.2,0.4-1.2,0.7c0,1.3,0,54.7,0,54.7H408"/>
<line class="st5" x1="406.8" y1="140" x2="406.8" y2="196"/>
<line class="st5" x1="405.5" y1="141.9" x2="408" y2="141.9"/>
<line class="st5" x1="405.4" y1="144" x2="408.1" y2="144"/>
<line class="st5" x1="405.5" y1="193.4" x2="408" y2="193.4"/>
<line class="st5" x1="405.5" y1="190.9" x2="408" y2="190.9"/>
<line class="st5" x1="405.5" y1="188.5" x2="408" y2="188.5"/>
<line class="st5" x1="405.5" y1="185.9" x2="408" y2="185.9"/>
<line class="st5" x1="405.5" y1="183.5" x2="408" y2="183.5"/>
<line class="st5" x1="405.5" y1="181" x2="408" y2="181"/>
<line class="st5" x1="405.5" y1="178.4" x2="408" y2="178.4"/>
<line class="st5" x1="405.5" y1="176" x2="408" y2="176"/>
<line class="st5" x1="405.5" y1="173.5" x2="408" y2="173.5"/>
<line class="st5" x1="405.5" y1="170.9" x2="408" y2="170.9"/>
<line class="st5" x1="405.5" y1="168.5" x2="408" y2="168.5"/>
<line class="st5" x1="405.5" y1="166" x2="408" y2="166"/>
<line class="st5" x1="405.5" y1="163.6" x2="408" y2="163.6"/>
<line class="st5" x1="405.5" y1="161" x2="408" y2="161"/>
<line class="st5" x1="405.5" y1="158.6" x2="408" y2="158.6"/>
<line class="st5" x1="405.5" y1="156.1" x2="408" y2="156.1"/>
<line class="st5" x1="405.5" y1="153.5" x2="408" y2="153.5"/>
<line class="st5" x1="405.5" y1="151.1" x2="408" y2="151.1"/>
<line class="st5" x1="405.5" y1="148.6" x2="408" y2="148.6"/>
<line class="st5" x1="405.5" y1="146.2" x2="408" y2="146.2"/>
<rect x="179.4" y="171.4" class="st0" width="1.3" height="25.6"/>
<rect x="181.4" y="171.4" class="st0" width="1.3" height="25.6"/>
<rect x="198.7" y="171.4" class="st0" width="1.3" height="25.6"/>
<rect x="200.7" y="171.4" class="st0" width="1.3" height="25.6"/>
<rect x="202" y="167.9" class="st0" width="1" height="1.9"/>
<rect x="202" y="167.9" class="st6" width="1" height="1.9"/>
<path class="st6" d="M203,169.9"/>
<rect x="200.1" y="167.9" class="st0" width="1" height="1.9"/>
<rect x="200.1" y="167.9" class="st6" width="1" height="1.9"/>
<path class="st6" d="M201.1,169.9"/>
<rect x="198.3" y="167.9" class="st0" width="1" height="1.9"/>
<rect x="198.3" y="167.9" class="st6" width="1" height="1.9"/>
<path class="st6" d="M199.3,169.9"/>
<rect x="196.5" y="167.9" class="st0" width="1" height="1.9"/>
<rect x="196.5" y="167.9" class="st6" width="1" height="1.9"/>
<path class="st6" d="M197.4,169.9"/>
<rect x="194.7" y="167.9" class="st0" width="1" height="1.9"/>
<rect x="194.7" y="167.9" class="st6" width="1" height="1.9"/>
<path class="st6" d="M195.7,169.9"/>
<rect x="192.8" y="167.9" class="st0" width="1" height="1.9"/>
<rect x="192.8" y="167.9" class="st6" width="1" height="1.9"/>
<path class="st6" d="M193.8,169.9"/>
<rect x="190.9" y="167.9" class="st0" width="1" height="1.9"/>
<rect x="190.9" y="167.9" class="st6" width="1" height="1.9"/>
<path class="st6" d="M191.9,169.9"/>
<rect x="189" y="167.9" class="st0" width="1" height="1.9"/>
<rect x="189" y="167.9" class="st6" width="1" height="1.9"/>
<path class="st6" d="M190.1,169.9"/>
<rect x="187.3" y="167.9" class="st0" width="1" height="1.9"/>
<rect x="187.3" y="167.9" class="st6" width="1" height="1.9"/>
<path class="st6" d="M188.3,169.9"/>
<rect x="185.4" y="167.9" class="st0" width="1" height="1.9"/>
<rect x="185.4" y="167.9" class="st6" width="1" height="1.9"/>
<path class="st6" d="M186.5,169.9"/>
<rect x="183.6" y="167.9" class="st0" width="1" height="1.9"/>
<rect x="183.6" y="167.9" class="st6" width="1" height="1.9"/>
<path class="st6" d="M184.6,169.9"/>
<rect x="181.7" y="167.9" class="st0" width="1" height="1.9"/>
<rect x="181.7" y="167.9" class="st6" width="1" height="1.9"/>
<path class="st6" d="M182.7,169.9"/>
<rect x="179.8" y="167.9" class="st0" width="1" height="1.9"/>
<rect x="179.8" y="167.9" class="st6" width="1" height="1.9"/>
<path class="st6" d="M180.8,169.9"/>
<rect x="178.1" y="167.9" class="st0" width="1" height="1.9"/>
<rect x="178.1" y="167.9" class="st6" width="1" height="1.9"/>
<path class="st6" d="M179.1,169.9"/>
<rect x="349.8" y="182" class="st0" width="1.4" height="2.6"/>
<rect x="349.8" y="178" class="st0" width="1.4" height="2.6"/>
<rect x="349.8" y="174" class="st0" width="1.4" height="2.6"/>
<rect x="349.8" y="169.8" class="st0" width="1.4" height="2.6"/>
<rect x="349.8" y="165.8" class="st0" width="1.4" height="2.6"/>
<rect x="349.8" y="161.7" class="st0" width="1.4" height="2.6"/>
<rect x="349.8" y="157.6" class="st0" width="1.4" height="2.6"/>
<rect x="349.8" y="153.5" class="st0" width="1.4" height="2.6"/>
<rect x="349.8" y="149.5" class="st0" width="1.4" height="2.6"/>
<rect x="352.7" y="182" class="st0" width="1.4" height="2.6"/>
<rect x="352.7" y="178" class="st0" width="1.4" height="2.6"/>
<rect x="352.7" y="174" class="st0" width="1.4" height="2.6"/>
<rect x="352.7" y="169.8" class="st0" width="1.4" height="2.6"/>
<rect x="352.7" y="165.8" class="st0" width="1.4" height="2.6"/>
<rect x="352.7" y="161.7" class="st0" width="1.4" height="2.6"/>
<rect x="352.7" y="157.6" class="st0" width="1.4" height="2.6"/>
<rect x="352.7" y="153.5" class="st0" width="1.4" height="2.6"/>
<rect x="352.7" y="149.5" class="st0" width="1.4" height="2.6"/>
<rect x="355.4" y="182" class="st0" width="1.4" height="2.6"/>
<rect x="355.4" y="178" class="st0" width="1.4" height="2.6"/>
<rect x="355.4" y="174" class="st0" width="1.4" height="2.6"/>
<rect x="355.4" y="169.8" class="st0" width="1.4" height="2.6"/>
<rect x="349.8" y="194.3" class="st0" width="1.4" height="2.6"/>
<rect x="349.8" y="190.2" class="st0" width="1.4" height="2.6"/>
<rect x="349.8" y="186.2" class="st0" width="1.4" height="2.6"/>
<rect x="352.7" y="194.3" class="st0" width="1.4" height="2.6"/>
<rect x="352.7" y="190.2" class="st0" width="1.4" height="2.6"/>
<rect x="352.7" y="186.2" class="st0" width="1.4" height="2.6"/>
<rect x="355.4" y="194.3" class="st0" width="1.4" height="2.6"/>
<rect x="355.4" y="190.2" class="st0" width="1.4" height="2.6"/>
<rect x="355.4" y="186.2" class="st0" width="1.4" height="2.6"/>
<rect x="355.4" y="165.8" class="st0" width="1.4" height="2.6"/>
<rect x="355.4" y="161.7" class="st0" width="1.4" height="2.6"/>
<rect x="355.4" y="157.6" class="st0" width="1.4" height="2.6"/>
<rect x="355.4" y="153.5" class="st0" width="1.4" height="2.6"/>
<rect x="355.4" y="149.5" class="st0" width="1.4" height="2.6"/>
<polyline class="st3" points="250.1,197 250.1,191.1 245.8,191.1 245.8,122.3 239.6,122.3 239.6,94.5 238.7,94.5 238.7,92.4 
	235.4,92.4 235.4,94.2 234.8,94.2 234.8,95.2 234.2,95.2 234.2,88.3 224.6,88.3 224.6,95.2 224,95.2 224,94.2 223.4,94.2 
	223.4,92.4 220,92.4 220,94.5 219.1,94.5 219.1,122.3 213.1,122.3 213.1,191.1 208.8,191.1 208.8,197 250.1,197 "/>
<rect x="225.5" y="89.2" class="st0" width="7.8" height="8.9"/>
<rect x="227.6" y="93.8" class="st3" width="3.5" height="5.9"/>
<rect x="225.3" y="101.1" class="st0" width="0.7" height="91"/>
<rect x="226.6" y="101.1" class="st0" width="0.7" height="91"/>
<rect x="231.7" y="101.1" class="st0" width="0.7" height="91"/>
<rect x="232.9" y="101.1" class="st0" width="0.7" height="91"/>
<rect x="228.2" y="101.9" class="st0" width="2.6" height="0.6"/>
<rect x="228.2" y="103.3" class="st0" width="2.6" height="0.6"/>
<rect x="228.2" y="104.6" class="st0" width="2.6" height="0.6"/>
<rect x="228.2" y="105.9" class="st0" width="2.6" height="0.6"/>
<rect x="228.2" y="107.2" class="st0" width="2.6" height="0.6"/>
<rect x="228.2" y="108.6" class="st0" width="2.6" height="0.6"/>
<rect x="228.2" y="109.9" class="st0" width="2.6" height="0.6"/>
<rect x="228.2" y="111.2" class="st0" width="2.6" height="0.6"/>
<rect x="228.2" y="112.6" class="st0" width="2.6" height="0.6"/>
<rect x="228.2" y="113.9" class="st0" width="2.6" height="0.6"/>
<rect x="228.2" y="115.2" class="st0" width="2.6" height="0.6"/>
<rect x="228.2" y="116.5" class="st0" width="2.6" height="0.6"/>
<rect x="228.2" y="118" class="st0" width="2.6" height="0.6"/>
<rect x="228.2" y="119.3" class="st0" width="2.6" height="0.6"/>
<rect x="228.2" y="120.6" class="st0" width="2.6" height="0.6"/>
<rect x="228.2" y="122" class="st0" width="2.6" height="0.6"/>
<rect x="228.2" y="123.3" class="st0" width="2.6" height="0.6"/>
<rect x="228.2" y="124.6" class="st0" width="2.6" height="0.6"/>
<rect x="228.2" y="125.9" class="st0" width="2.6" height="0.6"/>
<rect x="228.2" y="127.3" class="st0" width="2.6" height="0.6"/>
<rect x="228.2" y="128.6" class="st0" width="2.6" height="0.6"/>
<rect x="228.2" y="129.9" class="st0" width="2.6" height="0.6"/>
<rect x="228.2" y="131.4" class="st0" width="2.6" height="0.6"/>
<rect x="228.2" y="132.7" class="st0" width="2.6" height="0.6"/>
<rect x="228.2" y="134" class="st0" width="2.6" height="0.6"/>
<rect x="228.2" y="135.4" class="st0" width="2.6" height="0.6"/>
<rect x="228.2" y="136.7" class="st0" width="2.6" height="0.6"/>
<rect x="228.2" y="138" class="st0" width="2.6" height="0.6"/>
<rect x="228.2" y="139.3" class="st0" width="2.6" height="0.6"/>
<rect x="228.2" y="140.7" class="st0" width="2.6" height="0.6"/>
<rect x="228.2" y="142" class="st0" width="2.6" height="0.6"/>
<rect x="228.2" y="143.3" class="st0" width="2.6" height="0.6"/>
<rect x="228.2" y="144.7" class="st0" width="2.6" height="0.6"/>
<rect x="228.2" y="146" class="st0" width="2.6" height="0.6"/>
<rect x="228.2" y="147.3" class="st0" width="2.6" height="0.6"/>
<rect x="228.2" y="148.6" class="st0" width="2.6" height="0.6"/>
<rect x="228.2" y="150.1" class="st0" width="2.6" height="0.6"/>
<rect x="228.2" y="151.4" class="st0" width="2.6" height="0.6"/>
<rect x="228.2" y="152.7" class="st0" width="2.6" height="0.6"/>
<rect x="228.2" y="154.1" class="st0" width="2.6" height="0.6"/>
<rect x="228.2" y="155.4" class="st0" width="2.6" height="0.6"/>
<rect x="228.2" y="156.7" class="st0" width="2.6" height="0.6"/>
<rect x="228.2" y="158" class="st0" width="2.6" height="0.6"/>
<rect x="228.2" y="159.4" class="st0" width="2.6" height="0.6"/>
<rect x="228.2" y="160.7" class="st0" width="2.6" height="0.6"/>
<rect x="228.2" y="162" class="st0" width="2.6" height="0.6"/>
<rect x="228.2" y="163.5" class="st0" width="2.6" height="0.6"/>
<rect x="228.2" y="164.8" class="st0" width="2.6" height="0.6"/>
<rect x="228.2" y="166" class="st0" width="2.6" height="0.6"/>
<rect x="228.2" y="167.3" class="st0" width="2.6" height="0.6"/>
<rect x="228.2" y="168.8" class="st0" width="2.6" height="0.6"/>
<rect x="228.2" y="170.1" class="st0" width="2.6" height="0.6"/>
<rect x="228.2" y="171.4" class="st0" width="2.6" height="0.6"/>
<rect x="228.2" y="172.8" class="st0" width="2.6" height="0.6"/>
<rect x="228.2" y="174.1" class="st0" width="2.6" height="0.6"/>
<rect x="228.2" y="175.4" class="st0" width="2.6" height="0.6"/>
<rect x="228.2" y="176.8" class="st0" width="2.6" height="0.6"/>
<rect x="228.2" y="178.1" class="st0" width="2.6" height="0.6"/>
<rect x="228.2" y="179.4" class="st0" width="2.6" height="0.6"/>
<rect x="228.2" y="180.7" class="st0" width="2.6" height="0.6"/>
<rect x="228.2" y="182.2" class="st0" width="2.6" height="0.6"/>
<rect x="228.2" y="183.5" class="st0" width="2.6" height="0.6"/>
<rect x="228.2" y="184.8" class="st0" width="2.6" height="0.6"/>
<rect x="228.2" y="186.2" class="st0" width="2.6" height="0.6"/>
<rect x="228.2" y="187.5" class="st0" width="2.6" height="0.6"/>
<rect x="228.2" y="188.8" class="st0" width="2.6" height="0.6"/>
<rect x="228.2" y="190.1" class="st0" width="2.6" height="0.6"/>
<rect x="228.2" y="191.5" class="st0" width="2.6" height="0.6"/>
<line class="st6" x1="232.5" y1="88.8" x2="232.5" y2="99"/>
<line class="st6" x1="231.4" y1="88.8" x2="231.4" y2="99"/>
<line class="st6" x1="230.4" y1="88.8" x2="230.4" y2="99"/>
<line class="st6" x1="229.2" y1="88.8" x2="229.2" y2="99"/>
<line class="st6" x1="228.2" y1="88.8" x2="228.2" y2="99"/>
<line class="st6" x1="227" y1="88.8" x2="227" y2="99"/>
<line class="st6" x1="226" y1="88.8" x2="226" y2="99"/>
<path class="st3" d="M336.3,54.1h-6.2l-2.4-6.6h-11.4l-2.3,6.6h-6L319,25h6L336.3,54.1 M325.2,42.6l-3.5-9.5l-3.5,9.5H325.2z"/>
<path class="st3" d="M195.1,45.6c-1.6,1.4-4.6,2.4-6.9,2.4c-4.9,0-8.8-4-8.8-8.8c0-4.7,4-8.5,8.9-8.5c2.3,0,5.2,0.9,6.8,2.2l4-3.9
	c-2.7-2.4-6.6-4-10.7-4c-8.5,0-15.1,6.3-15.1,14.5s6.9,14.7,15.4,14.7c4,0,8.3-1.9,11.1-4.3L195.1,45.6"/>
<polyline class="st3" points="232.5,40.8 232.5,54.2 238.3,54.2 238.3,25 232.5,25 232.5,35.4 218.1,35.4 218.1,25 212.4,25 
	212.4,54.2 218.1,54.2 218.1,40.8 232.5,40.8 "/>
<rect x="253.8" y="25" class="st3" width="5.9" height="29.2"/>
<path class="st3" d="M296.7,45.7c-1.6,1.4-4.6,2.4-6.9,2.4c-4.9,0-8.8-4-8.8-8.8c0-4.7,4-8.5,8.9-8.5c2.3,0,5.2,0.9,6.8,2.2l4-3.9
	c-2.7-2.4-6.6-4-10.7-4c-8.5,0-15.1,6.3-15.1,14.5s6.9,14.7,15.4,14.7c4,0,8.3-1.9,11.1-4.3L296.7,45.7"/>
<path class="st3" d="M371.4,47.3v-7.6h-11.5v5.2h5.5v1c-1.6,1.4-4.6,2.4-6.9,2.4c-4.9,0-8.8-4.2-8.8-8.8c0-4.7,4-8.5,8.9-8.5
	c2.3,0,5.2,0.9,6.8,2.3l4-3.9c-2.7-2.4-6.6-4-10.7-4c-8.5,0-15.1,6.3-15.1,14.5s6.9,14.8,15.4,14.8C368,54.6,371.4,47.3,371.4,47.3"
	/>
<path class="st3" d="M403.9,39.7c0,4.7-3.9,8.6-8.6,8.6s-8.6-3.9-8.6-8.6s3.9-8.6,8.6-8.6C400,31,403.9,34.9,403.9,39.7 M395.2,24.9
	c-8.1,0-14.7,6.6-14.7,14.7s6.6,14.7,14.7,14.7c8.1,0,14.7-6.6,14.7-14.7C409.8,31.5,403.4,24.9,395.2,24.9z"/>
</svg>
