<?xml version="1.0" encoding="utf-8"?>
<!-- Generator: Adobe Illustrator 20.1.0, SVG Export Plug-In . SVG Version: 6.00 Build 0)  -->
<svg version="1.1" id="Layer_1" xmlns="http://www.w3.org/2000/svg" xmlns:xlink="http://www.w3.org/1999/xlink" x="0px" y="0px"
	 viewBox="0 0 417 250" style="enable-background:new 0 0 417 250;" xml:space="preserve">
<style type="text/css">
	.st0{fill:#6A2046;}
	.st1{fill:none;stroke:#EC268B;stroke-width:1.5421;stroke-miterlimit:10;}
	.st2{fill:#EC268B;}
	.st3{clip-path:url(#SVGID_2_);fill:#6A2046;}
	.st4{clip-path:url(#SVGID_4_);fill:#6A2046;}
	.st5{clip-path:url(#SVGID_6_);fill:#6A2046;}
	.st6{clip-path:url(#SVGID_8_);fill:#6A2046;}
	.st7{clip-path:url(#SVGID_10_);fill:#6A2046;}
</style>
<rect x="0" class="st0" width="417.1" height="250"/>
<path class="st1" d="M232,125.5c0,59.6-48.3,107.8-107.9,107.8S16.2,185,16.2,125.5S64.5,17.7,124.1,17.7H417"/>
<path class="st1" d="M222.1,125.5c0,54.1-43.9,98-98.1,98s-98.1-43.9-98.1-98s43.9-98,98.1-98h293.1"/>
<path class="st1" d="M212.8,125.5c0,49-39.7,88.7-88.7,88.7s-88.7-39.7-88.7-88.7s39.7-88.7,88.7-88.7H417"/>
<path class="st1" d="M203.5,125.5c0,43.8-35.5,79.4-79.4,79.4s-79.4-35.5-79.4-79.4c0-43.8,35.5-79.4,79.4-79.4H417"/>
<path class="st1" d="M194.1,125.5c0,38.7-31.4,70-70.1,70s-70.1-31.3-70.1-70s31.4-70,70.1-70h293"/>
<path class="st1" d="M184.8,125.5c0,33.5-27.2,60.7-60.7,60.7S63.4,159,63.4,125.5s27.2-60.7,60.7-60.7H417"/>
<g>
	<g>
		<path class="st2" d="M88.9,133.7c-0.8,1-1.8,2-2.9,3.1l0,0l-0.8,0.9l-0.1,0.1l-1.3,1.3c-0.4,0.4-0.9,1-1.5,1.5
			c-1.2,1.2-2.6,2.5-3.7,3.2c-2.6,1.4-1-0.5-0.2-1.5c1.4-1.5,2.9-3.4,4.1-5.1c0.9-1.2,1.6-2.3,2.1-3.1c0.9-1.6-0.7-1.9-1.4-2
			c-0.2,0-0.3,0-0.5,0c-0.6,0-1.2,0-1.9,0.1c-0.5,0-0.9,0-1.3,0c-0.9,0-1.5-0.1-1.9-0.1C77.2,132,77,132,77,132
			c-1.5-0.5-2.1-1.2-2.1-2c0-1.4,1.6-3.3,3.3-4.7c1.7-1.5,3.3-2.6,3.3-2.6c5.2-3.5,8.5-4.5,10.6-4.5c1.4,0,2.3,0.5,2.7,1
			c0.2,0.2,0.3,0.3,0.4,0.5l0,0c0,0.1,0.1,0.1,0.1,0.2c0,0,0,0.1,0.1,0.1c0.1,0.1,0.1,0.2,0.1,0.2s0.1,0,0-0.4v-0.1v-0.1
			c0-0.1,0-0.1,0-0.2c-0.4-1.6-1.7-2.2-3.1-2.2c-2.9,0-6.7,2.2-6.7,2.2s-2.9,1.6-5.7,3.8c-0.4,0.3-0.8,0.6-1.2,0.9
			c-0.9,0.8-3.7,3.2-4.4,5.4c-0.1,0.3-0.3,1.7,0.9,2.6c0.7,0.5,2,0.9,4.1,0.9c0.4,0,0.7,0,1.1-0.1l0,0c2.4-0.2,3.2,0,3.3,0h0.1
			c0.1,0.1,0.2,0.2,0.2,0.4c0,0.1-0.1,0.3-0.2,0.6c-0.7,1.4-3.8,5.3-6.1,7.7c-1.3,1.4-1.8,2.5-1.8,3.1c0,0.4,0.2,0.7,0.5,0.7l0,0
			c0.6,0,1.7-0.7,3.2-1.9s3.4-3,5.7-5.2c1-1,2.2-2.3,3.3-3.7c0,0,0.6-0.7,1.3-1.7V132C89.5,132.9,89,133.6,88.9,133.7z"/>
		<path class="st2" d="M94.9,125.1c0-0.3-0.1-0.5-0.2-0.6c-0.2-0.2-0.4-0.2-0.7-0.2c-0.2,0-0.5,0.1-0.9,0.2c-3.5,1.1-5.8,6.1-7,9.7
			l0,0c0,0-0.2,0.5-0.3,1l0,0c0,0-0.1,0.5-0.1,0.7c0,0,0,0.1,0.1,0.1c0,0,0.1-0.1,0.1-0.2c0.2-0.4,0.6-1.6,0.7-1.9
			c0.9-2.6,2.5-5.9,5.4-7.9c0.2-0.1,0.6-0.4,1.1-0.5s1-0.2,1.1,0.2c0.1,0.4-0.5,1.7-1.9,3.8h0.6C94.1,127.6,94.9,126,94.9,125.1z"/>
	</g>
	<g>
		<polygon class="st2" points="91.4,137.3 91.4,134.2 98.6,134.2 98.6,133.2 91.4,133.2 91.4,130.3 98.9,130.3 98.9,129.3 93,129.3 
			92.4,129.3 90.2,129.3 90.2,132.1 90.2,133.1 90.2,138.3 99,138.3 99,137.3 		"/>
		<path class="st2" d="M103.3,129.3h7.3c1.6,0,2.5,0.3,2.5,2.4c0,2-0.2,3-2.8,3h-5.8v3.5h-1.2V129.3z M112,131.6
			c0-1.1-0.6-1.3-1.6-1.3h-5.9v3.4h5.9c1,0,1.5-0.3,1.5-1.3L112,131.6L112,131.6z"/>
		<path class="st2" d="M116.6,135.4h1.1v0.6c0,0.9,0.5,1.3,2,1.3h3.7c1.7,0,2.3-0.4,2.3-1.6c0-1.1-0.4-1.4-1.9-1.4h-2.3
			c-3.7,0-4.9-0.2-4.9-2.6c0-2,1.2-2.5,3.7-2.5h2.6c3,0,3.7,0.8,3.7,2.4v0.3h-1.1c0-1.4-0.2-1.7-3.3-1.7h-1.3
			c-2.3,0-3.1,0.1-3.1,1.6c0,1.1,0.3,1.4,2.2,1.4h3.6c2.3,0,3.3,0.7,3.3,2.2v0.6c0,2.2-1.8,2.3-3.6,2.3H120c-1.8,0-3.3-0.3-3.3-2.3
			L116.6,135.4L116.6,135.4z"/>
		<polygon class="st2" points="133.8,130.3 129.3,130.3 129.3,129.3 139.5,129.3 139.5,130.3 135,130.3 135,138.3 133.8,138.3 		"/>
		<polygon class="st2" points="143.2,129.3 152,129.3 152,130.3 144.4,130.3 144.4,133.2 151.7,133.2 151.7,134.2 144.4,134.2 
			144.4,137.3 152,137.3 152,138.3 143.2,138.3 		"/>
		<rect x="156.5" y="129.3" class="st2" width="1.2" height="8.9"/>
		<polygon class="st2" points="162.5,129.3 164.3,129.3 172.5,137.2 172.5,129.3 173.7,129.3 173.7,138.3 171.9,138.3 163.7,130.4 
			163.7,138.3 162.5,138.3 		"/>
	</g>
</g>
<circle class="st2" cx="134.3" cy="112.5" r="7.2"/>
<circle class="st2" cx="149.9" cy="112.5" r="7.2"/>
<circle class="st2" cx="165.6" cy="112.5" r="7.2"/>
<circle class="st2" cx="181.3" cy="112.5" r="7.2"/>
<circle class="st2" cx="197.3" cy="112.5" r="7.2"/>
<circle class="st2" cx="212.8" cy="112.5" r="7.2"/>
<circle class="st2" cx="228.4" cy="112.5" r="7.2"/>
<path class="st0" d="M149.6,107.8v0.2c0,0-0.1,0.1-0.3,0.2c-0.1,0.1-0.2,0.3-0.2,0.3s-0.5-0.2-0.8-0.2c-0.4,0-0.6,0.2-0.6,0.4
	c0,0.3,0.2,0.4,0.6,0.5c0.4,0,0.8-0.2,0.8-0.2s0.1,0.2,0.2,0.2c0.2,0.1,0.3,0.1,0.3,0.1v0.2h-0.3v1.5h-0.2v0.4h0.2v1.2h-3.4v-0.3
	h-0.2V112h-0.2v0.2h-0.1v0.1h-0.7v0.1h-0.2v1.7h0.2v0.1h0.7v0.1h0.1v0.2h0.2v-0.3h0.2V114c0,0,4.8,0,6.3,0c0,0,0.4,0.3,0.5,0.6
	c0.1,0.3,0.1,0.6-0.1,0.8l0,0v0.1h-0.1v1.3h1.9v-1.3h-0.1v-0.1c0,0-0.2-0.3-0.2-0.6l0,0c0-1.1-0.7-2.1-1.7-2.2c-0.2,0-1,0-1,0v-1.2
	h0.2V111h-0.2v-1.5h-0.3v-0.2c0,0,0.1,0,0.3-0.1c0.1-0.1,0.2-0.2,0.2-0.2s0.4,0.3,0.8,0.2c0.4,0,0.6-0.2,0.6-0.5
	c0-0.2-0.2-0.4-0.6-0.4c-0.3,0-0.8,0.2-0.8,0.2s-0.1-0.2-0.2-0.3c-0.2-0.2-0.3-0.2-0.3-0.2v-0.2H149.6z"/>
<g>
	<g>
		<g>
			<g>
				<defs>
					<rect id="SVGID_1_" x="162.1" y="107.2" width="7" height="10.2"/>
				</defs>
				<clipPath id="SVGID_2_">
					<use xlink:href="#SVGID_1_"  style="overflow:visible;"/>
				</clipPath>
				<path class="st3" d="M165.6,109c0.2,0,0.3-0.1,0.3-0.3v-1.2c0-0.2-0.1-0.3-0.3-0.3s-0.3,0.1-0.3,0.3v1.2
					C165.3,108.8,165.4,109,165.6,109L165.6,109z"/>
			</g>
		</g>
		<g>
			<g>
				<defs>
					<rect id="SVGID_3_" x="162.1" y="107.2" width="7" height="10.2"/>
				</defs>
				<clipPath id="SVGID_4_">
					<use xlink:href="#SVGID_3_"  style="overflow:visible;"/>
				</clipPath>
				<path class="st4" d="M169,114.2h-0.9l-1.4-4c0.2-0.2,0.3-0.5,0.3-0.8c0-0.5-0.3-1-0.7-1.2v0.7c0,0.1,0,0.1,0,0.2
					c0.1,0.1,0.1,0.3,0.1,0.4c0,0.4-0.3,0.7-0.7,0.7s-0.7-0.3-0.7-0.7c0-0.2,0-0.3,0.1-0.4c0,0,0-0.1,0-0.2v-0.7
					c-0.4,0.2-0.7,0.7-0.7,1.2c0,0.3,0.1,0.6,0.3,0.8l-1.4,4h-0.9c-0.1,0-0.1,0.1-0.1,0.2v0.3c0,0.1,0.1,0.1,0.1,0.1h0.7l-0.3,1
					c0,0,0,0.1,0.1,0.1l0,0l-0.4,1.3c0,0,0,0.1,0.1,0.1l0.2,0.1h0.1l0.6-1.2h0.1c0,0,0.1,0,0.1-0.1l0.5-1.3h1.4v0.1
					c0,0.2,0.1,0.3,0.3,0.3s0.3-0.1,0.3-0.3v-0.1h1.4l0.5,1.3l0.1,0.1h0.1l0.6,1.2c0,0,0.1,0.1,0.1,0l0.2-0.1l0.1-0.1l-0.4-1.3l0,0
					l0.1-0.1l-0.3-1h0.7c0.1,0,0.2-0.1,0.2-0.1v-0.3C169.1,114.3,169,114.2,169,114.2L169,114.2z M165.9,114.2L165.9,114.2
					c0-0.2-0.1-0.4-0.3-0.4s-0.3,0.1-0.3,0.3v0.1h-1.2l1.2-3.5c0.1,0,0.2,0,0.3,0s0.2,0,0.3,0l1.2,3.5H165.9z"/>
			</g>
		</g>
	</g>
</g>
<path class="st0" d="M177.8,109c0.3,1.3,1.5,4.3,1.9,4.9C178.9,112.9,178,110.6,177.8,109 M180.3,114.5c0.1-0.1,0.4-0.4,0.6-0.5
	c0.1,0.1,0.3,0.2,0.4,0.3c-0.2,0.1-0.4,0.3-0.6,0.5C180.6,114.7,180.4,114.6,180.3,114.5 M185.2,116.5c-1.8-0.1-3.5-0.9-4.5-1.6
	c0.1-0.1,0.5-0.4,0.7-0.5c0.6,0.4,1.7,0.8,2.7,0.9v-0.1l-0.1-0.1c-1.1-0.2-1.9-0.5-2.4-0.8c0.9-0.6,2.5-1.1,3.4-1.3
	c0.1,0,0.1,0,0-0.1c0,0-0.1-0.1-0.2-0.1c0-0.1,0.2-0.1,0.1-0.1c-0.1-0.1-0.1-0.3-0.1-0.4s0-0.1-0.1-0.2s-0.5-0.1-1-0.1
	s-1.3,0.2-1.8,0.5c-0.4,0-1,0.2-1.3,0.3c-0.1-0.3-0.2-0.7-0.4-0.9c0-0.3-0.1-0.7-0.3-0.9c0-0.3-0.2-0.6-0.3-0.8
	c0-0.4-0.2-0.8-0.5-1.1c-0.2-0.1-0.4-0.5-0.5-0.7c-0.1-0.1-0.1-0.1-0.2-0.1c-0.1,0-0.2,0.1-0.4,0.1c-0.1,0-0.1,0.1-0.1,0.2
	c-0.1,0-0.1,0-0.1,0v-0.1h-0.2c0,0.6,0.2,1.9,0.7,3.1s1,2.1,1.8,2.8c-0.3,0.3-0.6,0.4-0.9,0.4l-0.1,0.1v0.1c0.5,0,0.9-0.3,1.1-0.5
	c0.1,0.1,0.2,0.2,0.3,0.3c-0.3,0.2-0.9,0.7-1.4,1s-1,0.5-1.7,0.5l-0.1,0.1v0.1c0.6,0,1.1-0.1,1.4-0.3c0.8-0.3,1.5-1,2-1.3
	c0.6,0.5,2.6,1.7,4.7,1.7v-0.1H185.2z M179.9,114c0.1,0,0.2,0,0.2,0s0.5-0.1,0.7-0.2l-0.6,0.5C180.2,114.4,179.9,114.1,179.9,114
	 M181,113.9l0.2-0.1l3-0.7c-0.5,0.1-1.3,0.4-1.5,0.5c-0.1,0.1-1.2,0.5-1.3,0.7L181,113.9z"/>
<g>
	<g>
		<g>
			<path class="st0" d="M197.9,108c-0.4,0-0.7,0-1.1,0c-1.6,2.7-3.1,5.4-4.7,8.1c3.5,0,7,0,10.5,0C201,113.4,199.4,110.7,197.9,108z
				"/>
		</g>
		<g>
			<g>
				<path class="st2" d="M197.8,116.1c-0.3,0-0.7,0-1,0c0-0.2,0-0.4,0-0.6c0.3,0,0.6,0,1,0C197.8,115.7,197.8,115.9,197.8,116.1z"/>
			</g>
			<g>
				<path class="st2" d="M197.8,114.6c-0.3,0-0.6,0-0.9,0c0-0.3,0-0.7,0.1-1c0.2,0,0.5,0,0.7,0C197.7,113.9,197.7,114.2,197.8,114.6
					z M197.6,112.6c-0.2,0-0.4,0-0.6,0c0-0.3,0-0.7,0.1-1c0.2,0,0.3,0,0.5,0C197.6,111.9,197.6,112.2,197.6,112.6z M197.5,110.6
					c-0.1,0-0.3,0-0.4,0c0-0.3,0-0.7,0.1-1c0.1,0,0.2,0,0.3,0C197.5,109.9,197.5,110.2,197.5,110.6z"/>
			</g>
			<g>
				<path class="st2" d="M197.4,108.6c-0.1,0-0.1,0-0.2,0c0-0.2,0-0.4,0-0.6h0.1C197.4,108.2,197.4,108.4,197.4,108.6z"/>
			</g>
		</g>
		<g>
			<g>
				<path class="st2" d="M192.7,116.1c-0.1,0-0.2,0-0.3,0c1.5-2.7,2.9-5.4,4.4-8.1l0,0C195.5,110.7,194.1,113.4,192.7,116.1z"/>
			</g>
			<g>
				<path class="st2" d="M202.2,116.1c-0.1,0-0.2,0-0.3,0c-1.4-2.7-2.7-5.4-4.1-8.1l0,0C199.3,110.7,200.8,113.4,202.2,116.1z"/>
			</g>
		</g>
	</g>
</g>
<g>
	<g>
		<g>
			<g>
				<defs>
					<rect id="SVGID_5_" x="206.7" y="109.9" width="12.1" height="5.4"/>
				</defs>
				<clipPath id="SVGID_6_">
					<use xlink:href="#SVGID_5_"  style="overflow:visible;"/>
				</clipPath>
				<path class="st5" d="M218.9,112v-0.2c-0.8-0.4-1.4-1.1-1.7-1.8l0,0l0,0h-0.8l0,0l0,0c-0.5,1.4-1.9,2.1-3.6,2.1
					c-1.7,0-3.1-0.7-3.6-2.1l0,0l0,0h-0.8l0,0c-0.3,0.8-0.9,1.4-1.7,1.8v0.2c0.1-0.1,0.3-0.1,0.4-0.2v1.1h-0.4v0.4h1.7v1.4h0.8v-1.4
					h7.2v1.4h0.8v-1.4h1.7v-0.4h-0.4v-1.1C218.6,111.8,218.7,111.9,218.9,112L218.9,112z M207.8,112.8h-0.6v-1.1
					c0.2-0.2,0.4-0.3,0.6-0.5V112.8z M208.3,112.8h-0.4V111c0.2-0.2,0.3-0.4,0.4-0.6V112.8z M209.6,112.8h-0.5v-2.4
					c0.1,0.2,0.3,0.5,0.5,0.7V112.8z M210.5,112.8h-0.8v-1.6c0.2,0.2,0.5,0.4,0.8,0.5V112.8z M211.4,112.8h-0.8v-1
					c0.2,0.1,0.5,0.2,0.8,0.3V112.8z M212.2,112.8h-0.7v-0.7c0.2,0.1,0.5,0.1,0.8,0.1v0.6H212.2z M213.1,112.8h-0.8v-0.6
					c0.1,0,0.3,0,0.4,0c0.1,0,0.2,0,0.4,0L213.1,112.8L213.1,112.8z M214,112.8h-0.8v-0.6c0.3,0,0.5-0.1,0.8-0.1V112.8z
					 M214.9,112.8h-0.8V112c0.3-0.1,0.5-0.2,0.8-0.3V112.8z M215.8,112.8H215v-1.1c0.3-0.1,0.5-0.3,0.8-0.5V112.8z M216.4,112.8
					h-0.5v-1.7c0.2-0.2,0.4-0.4,0.5-0.7V112.8z M217.6,112.8h-0.5v-2.4c0.1,0.2,0.3,0.4,0.5,0.6V112.8z M218.4,112.8h-0.6v-1.6
					c0.2,0.2,0.4,0.4,0.6,0.5V112.8z"/>
			</g>
		</g>
	</g>
</g>
<path class="st0" d="M224.3,112.8c0,0-0.7,0.7-0.9,0.9c-0.1,0.1-0.6,0.9-0.7,1.2c0,0.2-0.1,0.4,0.2,0.7c0.2,0.3,0.9,0.8,1.2,1
	c0.4,0.2,0.6,0.3,1.2,0.4c0.4,0,1.1,0.1,1.7-0.1c0.6-0.2,2.3-0.8,2.5-0.9c1.6-0.6,3.5-1.6,3.8-1.9c0.2-0.2,0.3-0.4,0.3-0.7
	c0-0.3-0.1-0.7-0.3-0.9c-0.2-0.1-0.3-0.3-0.3-0.3s-0.1-0.8-0.2-1.2c-0.2-0.5-0.8-1.7-1.3-1.8c-0.1,0-0.3-0.4-0.4-0.5
	c-0.4-0.2-1.5-0.3-1.8-0.3c-0.6,0-1.2,0-1.8,0.2c-2.1,0.7-2.6,1.9-2.9,2.5C224.4,111.7,224.3,112.8,224.3,112.8z"/>
<circle class="st2" cx="118.8" cy="112.5" r="7.2"/>
<g>
	<g>
		<g>
			<g>
				<defs>
					<rect id="SVGID_7_" x="113.9" y="107.5" width="10.2" height="10.1"/>
				</defs>
				<clipPath id="SVGID_8_">
					<use xlink:href="#SVGID_7_"  style="overflow:visible;"/>
				</clipPath>
				<path class="st6" d="M114.6,111.1c0.1,0.2,0.1,0.4,0.2,0.5l-0.3,0.4c-0.1,0.1-0.1,0.3,0,0.4l0.5,0.5c0.1,0.1,0.3,0.1,0.4,0
					l0.3-0.3c0.2,0.1,0.4,0.2,0.5,0.2l0.1,0.4c0,0.1,0.1,0.2,0.3,0.2h0.7c0.1,0,0.3-0.1,0.3-0.2v-0.4c0.2-0.1,0.4-0.1,0.6-0.2
					l0.3,0.3c0.1,0.1,0.3,0.1,0.4,0l0.5-0.5c0.1-0.1,0.1-0.3,0-0.4l-0.3-0.3c0.1-0.2,0.2-0.4,0.2-0.6h0.4c0.1,0,0.2-0.1,0.2-0.3
					v-0.7c0-0.1-0.1-0.3-0.2-0.3h-0.4c-0.1-0.2-0.1-0.4-0.2-0.6l0.2-0.3c0.1-0.1,0.1-0.3,0-0.4l-0.5-0.5c-0.1-0.1-0.3-0.1-0.4,0
					l-0.3,0.2c-0.2-0.1-0.4-0.2-0.6-0.3v-0.4c0-0.1-0.1-0.2-0.3-0.2h-0.7c-0.1,0-0.3,0.1-0.3,0.2v0.4c-0.2,0.1-0.4,0.1-0.6,0.3
					l-0.3-0.2c-0.1-0.1-0.3-0.1-0.4,0l-0.5,0.5c-0.1,0.1-0.1,0.3,0,0.4l0.3,0.3c-0.1,0.2-0.2,0.4-0.2,0.6h-0.4
					c-0.1,0-0.2,0.1-0.2,0.3v0.7c0,0.1,0.1,0.3,0.2,0.3H114.6z M116.9,109.4c0.6,0,1.1,0.5,1.1,1.1s-0.5,1.1-1.1,1.1
					s-1.1-0.5-1.1-1.1C115.9,109.9,116.3,109.4,116.9,109.4L116.9,109.4z"/>
			</g>
		</g>
		<g>
			<g>
				<defs>
					<rect id="SVGID_9_" x="113.9" y="107.5" width="10.2" height="10.1"/>
				</defs>
				<clipPath id="SVGID_10_">
					<use xlink:href="#SVGID_9_"  style="overflow:visible;"/>
				</clipPath>
				<path class="st7" d="M123.4,111.3l-0.3-0.3c-0.1-0.1-0.3-0.1-0.4,0l-0.2,0.2c-0.2-0.1-0.3-0.1-0.5-0.2l-0.1-0.3
					c0-0.1-0.2-0.2-0.3-0.2h-0.4c-0.1,0-0.2,0.1-0.3,0.3v0.3c-0.2,0.1-0.3,0.1-0.5,0.3l-0.2-0.2c-0.1-0.1-0.3-0.1-0.4,0.1l-0.3,0.3
					c-0.1,0.1-0.1,0.3,0,0.4l0.2,0.2c-0.1,0.2-0.1,0.3-0.1,0.5l-0.3,0.1c-0.1,0-0.2,0.2-0.2,0.3v0.4c0,0.1,0.1,0.2,0.3,0.3h0.3
					c0.1,0.1,0.1,0.3,0.2,0.4l-0.2,0.3c-0.1,0.1-0.1,0.3,0.1,0.4l0.3,0.3c0.1,0.1,0.3,0.1,0.4,0l0.2-0.2c0.1,0.1,0.3,0.1,0.5,0.2
					l0.1,0.3c0,0.1,0.2,0.2,0.3,0.2h0.4c0.1,0,0.2-0.1,0.3-0.3v-0.3c0.2-0.1,0.3-0.1,0.5-0.2l0.2,0.2c0.1,0.1,0.3,0.1,0.4-0.1
					l0.3-0.3c0.1-0.1,0.1-0.3,0-0.4l-0.2-0.2c0.1-0.2,0.1-0.3,0.2-0.5l0.3-0.1c0.1,0,0.2-0.2,0.2-0.3v-0.4c0-0.1-0.1-0.2-0.3-0.2
					h-0.3c-0.1-0.2-0.1-0.3-0.2-0.4l0.1-0.2C123.5,111.6,123.5,111.4,123.4,111.3L123.4,111.3z M121.7,113.9c-0.5,0-0.9-0.3-1-0.8
					c0-0.5,0.3-0.9,0.8-1c0.5,0,0.9,0.3,1,0.8C122.5,113.4,122.2,113.9,121.7,113.9L121.7,113.9z"/>
			</g>
		</g>
	</g>
	<path class="st0" d="M116.1,115.1c-0.1,0-0.2,0.1-0.2,0.3v0.3c0,0.1,0.1,0.3,0.2,0.3h0.2c0,0.1,0.1,0.2,0.1,0.4l-0.1,0.2
		c-0.1,0.1-0.1,0.3,0,0.4l0.2,0.2c0.1,0.1,0.3,0.1,0.4,0l0.2-0.1c0.1,0.1,0.2,0.1,0.4,0.2v0.2c0,0.1,0.1,0.2,0.3,0.2h0.3
		c0.1,0,0.3-0.1,0.3-0.2v-0.2c0.1,0,0.3-0.1,0.4-0.2l0.2,0.1c0.1,0.1,0.3,0.1,0.4,0l0.2-0.2c0.1-0.1,0.1-0.3,0-0.4l-0.1-0.2
		c0.1-0.1,0.1-0.2,0.2-0.4h0.2c0.1,0,0.2-0.1,0.2-0.3v-0.3c0-0.1-0.1-0.3-0.2-0.3h-0.2c0-0.1-0.1-0.3-0.1-0.4l0.1-0.1
		c0.1-0.1,0.1-0.3,0-0.4l-0.2-0.2c-0.1-0.1-0.3-0.1-0.4,0l-0.1,0.1c-0.1-0.1-0.3-0.1-0.4-0.2v-0.2c0-0.1-0.1-0.2-0.3-0.2H118
		c-0.1,0-0.3,0.1-0.3,0.2v0.2c-0.1,0-0.3,0.1-0.4,0.2l-0.1-0.1c-0.1-0.1-0.3-0.1-0.4,0l-0.2,0.2c-0.1,0.1-0.1,0.3,0,0.4l0.1,0.2
		c-0.1,0.1-0.1,0.2-0.2,0.4L116.1,115.1z M117.9,114.8c0.4,0,0.7,0.3,0.7,0.7c0,0.4-0.3,0.7-0.7,0.7c-0.4,0-0.7-0.3-0.7-0.7
		C117.2,115.1,117.5,114.8,117.9,114.8L117.9,114.8z"/>
</g>
<g>
	<path class="st0" d="M135.4,114.7H133c-0.2,0-0.3,0.1-0.3,0.3s0.1,0.3,0.3,0.3h2.4c0.2,0,0.3-0.1,0.3-0.3S135.5,114.7,135.4,114.7
		L135.4,114.7z"/>
	<path class="st0" d="M133.5,116.6v0.2c0,0.2,0.2,0.4,0.4,0.4h0.5c0.2,0,0.4-0.2,0.4-0.4v-0.2c0.4,0,0.7-0.4,0.7-0.8h-2.7
		C132.8,116.3,133.1,116.6,133.5,116.6L133.5,116.6z"/>
	<path class="st0" d="M134.2,107.5c-1.8,0-3.2,1.4-3.2,3.2c0,0.8,0.3,1.4,0.7,2c0.4,0.5,0.7,1,1.1,1.5h3c0.3-0.5,0.7-1.1,1.1-1.5
		c0.4-0.5,0.7-1.2,0.7-2C137.4,109,136,107.5,134.2,107.5L134.2,107.5z"/>
	<path class="st2" d="M134.2,108.6c-1.1,0-2.1,0.9-2.1,2.1c0,0.2-0.1,0.3-0.3,0.3c-0.2,0-0.3-0.1-0.3-0.3c0-1.5,1.2-2.7,2.7-2.7
		c0.2,0,0.3,0.1,0.3,0.3C134.5,108.5,134.4,108.6,134.2,108.6L134.2,108.6z"/>
	<path d="M134.2,108.6"/>
</g>
</svg>
