<?xml version="1.0" encoding="utf-8"?>
<!-- Generator: Adobe Illustrator 20.1.0, SVG Export Plug-In . SVG Version: 6.00 Build 0)  -->
<svg version="1.1" id="Layer_1" xmlns="http://www.w3.org/2000/svg" xmlns:xlink="http://www.w3.org/1999/xlink" x="0px" y="0px"
	 viewBox="0 0 298 250" style="enable-background:new 0 0 298 250;" xml:space="preserve">
<style type="text/css">
	.st0{fill:#6A2046;}
	.st1{fill:none;stroke:#EC268B;stroke-width:1.5421;stroke-miterlimit:10;}
	.st2{fill:#EC268B;}
	.st3{clip-path:url(#SVGID_2_);fill:#6A2046;}
	.st4{clip-path:url(#SVGID_4_);fill:#6A2046;}
	.st5{clip-path:url(#SVGID_6_);fill:#6A2046;}
	.st6{clip-path:url(#SVGID_8_);fill:#6A2046;}
	.st7{clip-path:url(#SVGID_10_);fill:#6A2046;}
</style>
<rect class="st0" width="298" height="250"/>
<path class="st1" d="M246.9,125.5c0,64.5-52.3,116.7-116.8,116.7S13.3,189.9,13.3,125.5S65.6,8.8,130.1,8.8h168"/>
<path class="st1" d="M236.2,125.5c0,58.6-47.5,106.1-106.2,106.1S23.8,184.1,23.8,125.5S71.3,19.4,130,19.4h168.4"/>
<path class="st1" d="M226.1,125.5c0,53-43,96-96,96s-96-43-96-96s43-96,96-96h168"/>
<path class="st1" d="M216.1,125.5c0,47.4-38.4,86-86,86s-86-38.4-86-86c0-47.4,38.4-86,86-86h168"/>
<path class="st1" d="M205.9,125.5c0,41.9-34,75.8-75.9,75.8s-75.9-33.9-75.9-75.8s34-75.8,75.9-75.8h168.4"/>
<path class="st1" d="M195.8,125.5c0,36.3-29.4,65.7-65.7,65.7s-65.7-29.4-65.7-65.7s29.4-65.7,65.7-65.7h168.3"/>
<g>
	<g>
		<path class="st2" d="M92,134.4c-0.9,1.1-1.9,2.2-3.1,3.4l0,0l-0.9,1l-0.1,0.1l-1.4,1.4c-0.4,0.4-1,1.1-1.6,1.6
			c-1.3,1.3-2.8,2.7-4,3.5c-2.8,1.5-1.1-0.5-0.2-1.6c1.5-1.6,3.1-3.7,4.4-5.5c1-1.3,1.7-2.5,2.3-3.4c1-1.7-0.8-2.1-1.5-2.2
			c-0.2,0-0.3,0-0.5,0c-0.6,0-1.3,0-2.1,0.1c-0.5,0-1,0-1.4,0c-1,0-1.6-0.1-2.1-0.1c-0.4-0.1-0.6-0.1-0.6-0.1
			c-1.6-0.5-2.3-1.3-2.3-2.2c0-1.5,1.7-3.6,3.6-5.1c1.8-1.6,3.6-2.8,3.6-2.8c5.6-3.8,9.2-4.9,11.5-4.9c1.5,0,2.5,0.5,2.9,1.1
			c0.2,0.2,0.3,0.3,0.4,0.5l0,0c0,0.1,0.1,0.1,0.1,0.2c0,0,0,0.1,0.1,0.1c0.1,0.1,0.1,0.2,0.1,0.2s0.1,0,0-0.4v-0.1v-0.1
			c0-0.1,0-0.1,0-0.2c-0.4-1.7-1.8-2.4-3.4-2.4c-3.1,0-7.3,2.4-7.3,2.4s-3.1,1.7-6.2,4.1c-0.4,0.3-0.9,0.6-1.3,1
			c-1,0.9-4,3.5-4.8,5.8c-0.1,0.3-0.3,1.8,1,2.8c0.8,0.5,2.2,1,4.4,1c0.4,0,0.8,0,1.2-0.1l0,0c2.6-0.2,3.5,0,3.6,0h0.1
			c0.1,0.1,0.2,0.2,0.2,0.4c0,0.1-0.1,0.3-0.2,0.6c-0.8,1.5-4.1,5.7-6.6,8.3c-1.4,1.5-1.9,2.7-1.9,3.4c0,0.4,0.2,0.8,0.5,0.8l0,0
			c0.6,0,1.8-0.8,3.5-2.1c1.6-1.3,3.7-3.2,6.2-5.6c1.1-1.1,2.4-2.5,3.6-4c0,0,0.6-0.8,1.4-1.8v-1C92.7,133.5,92.1,134.3,92,134.4z"
			/>
		<path class="st2" d="M98.5,125.1c0-0.3-0.1-0.5-0.2-0.6c-0.2-0.2-0.4-0.2-0.8-0.2c-0.2,0-0.5,0.1-1,0.2c-3.8,1.2-6.3,6.6-7.6,10.5
			l0,0c0,0-0.2,0.5-0.3,1.1l0,0c0,0-0.1,0.5-0.1,0.8c0,0,0,0.1,0.1,0.1c0,0,0.1-0.1,0.1-0.2c0.2-0.4,0.6-1.7,0.8-2.1
			c1-2.8,2.7-6.4,5.8-8.6c0.2-0.1,0.6-0.4,1.2-0.5s1.1-0.2,1.2,0.2c0.1,0.4-0.5,1.8-2.1,4.1h0.6C97.6,127.8,98.5,126,98.5,125.1z"/>
	</g>
	<g>
		<polygon class="st2" points="94.7,138.3 94.7,134.9 102.5,134.9 102.5,133.8 94.7,133.8 94.7,130.7 102.8,130.7 102.8,129.6 
			96.4,129.6 95.8,129.6 93.4,129.6 93.4,132.6 93.4,133.7 93.4,139.4 102.9,139.4 102.9,138.3 		"/>
		<path class="st2" d="M107.6,129.6h7.9c1.7,0,2.7,0.3,2.7,2.6c0,2.2-0.2,3.2-3,3.2h-6.3v3.8h-1.3V129.6z M117,132.1
			c0-1.2-0.6-1.4-1.7-1.4h-6.4v3.7h6.4c1.1,0,1.6-0.3,1.6-1.4L117,132.1L117,132.1z"/>
		<path class="st2" d="M122,136.2h1.2v0.6c0,1,0.5,1.4,2.2,1.4h4c1.8,0,2.5-0.4,2.5-1.7c0-1.2-0.4-1.5-2.1-1.5h-2.5
			c-4,0-5.3-0.2-5.3-2.8c0-2.2,1.3-2.7,4-2.7h2.8c3.2,0,4,0.9,4,2.6v0.3h-1.2c0-1.5-0.2-1.8-3.6-1.8h-1.4c-2.5,0-3.4,0.1-3.4,1.7
			c0,1.2,0.3,1.5,2.4,1.5h3.9c2.5,0,3.6,0.8,3.6,2.4v0.6c0,2.4-1.9,2.5-3.9,2.5h-3.6c-1.9,0-3.6-0.3-3.6-2.5L122,136.2L122,136.2z"
			/>
		<polygon class="st2" points="140.6,130.7 135.7,130.7 135.7,129.6 146.8,129.6 146.8,130.7 141.9,130.7 141.9,139.4 140.6,139.4 
					"/>
		<polygon class="st2" points="150.8,129.6 160.3,129.6 160.3,130.7 152.1,130.7 152.1,133.8 160,133.8 160,134.9 152.1,134.9 
			152.1,138.3 160.3,138.3 160.3,139.4 150.8,139.4 		"/>
		<rect x="165.2" y="129.6" class="st2" width="1.3" height="9.6"/>
		<polygon class="st2" points="171.7,129.6 173.6,129.6 182.5,138.2 182.5,129.6 183.8,129.6 183.8,139.4 181.9,139.4 173,130.8 
			173,139.4 171.7,139.4 		"/>
	</g>
</g>
<circle class="st2" cx="141.2" cy="111.4" r="7.8"/>
<circle class="st2" cx="158" cy="111.4" r="7.8"/>
<circle class="st2" cx="175" cy="111.4" r="7.8"/>
<circle class="st2" cx="192" cy="111.4" r="7.8"/>
<circle class="st2" cx="209.4" cy="111.4" r="7.8"/>
<circle class="st2" cx="226.1" cy="111.4" r="7.8"/>
<circle class="st2" cx="243" cy="111.4" r="7.8"/>
<path class="st0" d="M157.7,106.3v0.2c0,0-0.1,0.1-0.3,0.2c-0.1,0.1-0.2,0.3-0.2,0.3s-0.5-0.2-0.9-0.2c-0.4,0-0.6,0.2-0.6,0.4
	c0,0.3,0.2,0.4,0.6,0.5c0.4,0,0.9-0.2,0.9-0.2s0.1,0.2,0.2,0.2c0.2,0.1,0.3,0.1,0.3,0.1v0.2h-0.3v1.6h-0.2v0.4h0.2v1.3h-3.7v-0.3
	h-0.2v-0.3h-0.2v0.2h-0.1v0.1h-0.8v0.1h-0.2v1.8h0.2v0.1h0.8v0.1h0.1v0.2h0.2v-0.3h0.2V113c0,0,5.2,0,6.8,0c0,0,0.4,0.3,0.5,0.6
	c0.1,0.3,0.1,0.6-0.1,0.9l0,0v0.1h-0.1v1.4h2.1v-1.4h-0.1v-0.1c0,0-0.2-0.3-0.2-0.6l0,0c0-1.2-0.8-2.3-1.8-2.4c-0.2,0-1.1,0-1.1,0
	v-1.3h0.2v-0.4h-0.2v-1.6h-0.3V108c0,0,0.1,0,0.3-0.1c0.1-0.1,0.2-0.2,0.2-0.2s0.4,0.3,0.9,0.2c0.4,0,0.6-0.2,0.6-0.5
	c0-0.2-0.2-0.4-0.6-0.4c-0.3,0-0.9,0.2-0.9,0.2s-0.1-0.2-0.2-0.3c-0.2-0.2-0.3-0.2-0.3-0.2v-0.2H157.7z"/>
<g>
	<g>
		<g>
			<g>
				<g>
					<g>
						<defs>
							<rect id="SVGID_1_" x="171.3" y="105.7" width="7.6" height="11"/>
						</defs>
						<clipPath id="SVGID_2_">
							<use xlink:href="#SVGID_1_"  style="overflow:visible;"/>
						</clipPath>
						<path class="st3" d="M175,107.6c0.2,0,0.3-0.1,0.3-0.3V106c0-0.2-0.1-0.3-0.3-0.3s-0.3,0.1-0.3,0.3v1.3
							C174.7,107.4,174.8,107.6,175,107.6L175,107.6z"/>
					</g>
				</g>
			</g>
		</g>
		<g>
			<g>
				<g>
					<g>
						<defs>
							<rect id="SVGID_3_" x="171.3" y="105.7" width="7.6" height="11"/>
						</defs>
						<clipPath id="SVGID_4_">
							<use xlink:href="#SVGID_3_"  style="overflow:visible;"/>
						</clipPath>
						<path class="st4" d="M178.7,113.3h-1l-1.5-4.3c0.2-0.2,0.3-0.5,0.3-0.9c0-0.5-0.3-1.1-0.8-1.3v0.8c0,0.1,0,0.1,0,0.2
							c0.1,0.1,0.1,0.3,0.1,0.4c0,0.4-0.3,0.8-0.8,0.8s-0.8-0.3-0.8-0.8c0-0.2,0-0.3,0.1-0.4c0,0,0-0.1,0-0.2v-0.8
							c-0.4,0.2-0.8,0.8-0.8,1.3c0,0.3,0.1,0.6,0.3,0.9l-1.5,4.3h-1c-0.1,0-0.1,0.1-0.1,0.2v0.3c0,0.1,0.1,0.1,0.1,0.1h0.8L172,115
							c0,0,0,0.1,0.1,0.1l0,0l-0.4,1.4c0,0,0,0.1,0.1,0.1l0.2,0.1h0.1l0.6-1.3h0.1c0,0,0.1,0,0.1-0.1l0.5-1.4h1.5v0.1
							c0,0.2,0.1,0.3,0.3,0.3s0.3-0.1,0.3-0.3v-0.1h1.5l0.5,1.4l0.1,0.1h0.1l0.6,1.3c0,0,0.1,0.1,0.1,0l0.2-0.1l0.1-0.1l-0.4-1.4
							l0,0l0.1-0.1l-0.3-1.1h0.8c0.1,0,0.2-0.1,0.2-0.1v-0.3C178.8,113.4,178.7,113.3,178.7,113.3L178.7,113.3z M175.4,113.3
							L175.4,113.3c0-0.2-0.1-0.4-0.3-0.4s-0.3,0.1-0.3,0.3v0.1h-1.3l1.3-3.8c0.1,0,0.2,0,0.3,0c0.1,0,0.2,0,0.3,0l1.3,3.8H175.4z"
							/>
					</g>
				</g>
			</g>
		</g>
	</g>
</g>
<path class="st0" d="M188.3,107.6c0.3,1.4,1.6,4.7,2.1,5.3C189.4,111.9,188.5,109.4,188.3,107.6 M191,113.6c0.1-0.1,0.4-0.4,0.6-0.5
	c0.1,0.1,0.3,0.2,0.4,0.3c-0.2,0.1-0.4,0.3-0.6,0.5C191.3,113.8,191.1,113.7,191,113.6 M196.3,115.8c-1.9-0.1-3.8-1-4.9-1.7
	c0.1-0.1,0.5-0.4,0.8-0.5c0.6,0.4,1.8,0.9,2.9,1v-0.1l-0.1-0.1c-1.2-0.2-2.1-0.5-2.6-0.9c1-0.6,2.7-1.2,3.7-1.4c0.1,0,0.1,0,0-0.1
	c0,0-0.1-0.1-0.2-0.1c0-0.1,0.2-0.1,0.1-0.1c-0.1-0.1-0.1-0.3-0.1-0.4s0-0.1-0.1-0.2c-0.1-0.1-0.5-0.1-1.1-0.1s-1.4,0.2-1.9,0.5
	c-0.4,0-1.1,0.2-1.4,0.3c-0.1-0.3-0.2-0.8-0.4-1c0-0.3-0.1-0.8-0.3-1c0-0.3-0.2-0.6-0.3-0.9c0-0.4-0.2-0.9-0.5-1.2
	c-0.2-0.1-0.4-0.5-0.5-0.8c-0.1-0.1-0.1-0.1-0.2-0.1c-0.1,0-0.2,0.1-0.4,0.1c-0.1,0-0.1,0.1-0.1,0.2c-0.1,0-0.1,0-0.1,0v-0.1H188
	c0,0.6,0.2,2.1,0.8,3.4c0.5,1.3,1.1,2.3,1.9,3c-0.3,0.3-0.6,0.4-1,0.4l-0.1,0.1v0.1c0.5,0,1-0.3,1.2-0.5c0.1,0.1,0.2,0.2,0.3,0.3
	c-0.3,0.2-1,0.8-1.5,1.1c-0.5,0.3-1.1,0.5-1.8,0.5l-0.1,0.1v0.1c0.6,0,1.2-0.1,1.5-0.3c0.9-0.3,1.6-1.1,2.2-1.4
	c0.6,0.5,2.8,1.8,5.1,1.8v-0.1H196.3z M190.5,113c0.1,0,0.2,0,0.2,0s0.5-0.1,0.8-0.2l-0.6,0.5C190.9,113.5,190.5,113.2,190.5,113
	 M191.7,112.9l0.2-0.1l3.2-0.8c-0.5,0.1-1.4,0.4-1.6,0.5c-0.1,0.1-1.3,0.5-1.4,0.8L191.7,112.9z"/>
<g>
	<g>
		<g>
			<path class="st0" d="M210,106.6c-0.4,0-0.8,0-1.2,0c-1.7,2.9-3.4,5.8-5.1,8.8c3.8,0,7.6,0,11.4,0
				C213.4,112.4,211.6,109.5,210,106.6z"/>
		</g>
		<g>
			<g>
				<path class="st2" d="M209.9,115.3c-0.3,0-0.8,0-1.1,0c0-0.2,0-0.4,0-0.6c0.3,0,0.6,0,1.1,0C209.9,114.9,209.9,115.1,209.9,115.3
					z"/>
			</g>
			<g>
				<path class="st2" d="M209.9,113.7c-0.3,0-0.6,0-1,0c0-0.3,0-0.8,0.1-1.1c0.2,0,0.5,0,0.8,0C209.8,112.9,209.8,113.3,209.9,113.7
					z M209.7,111.5c-0.2,0-0.4,0-0.6,0c0-0.3,0-0.8,0.1-1.1c0.2,0,0.3,0,0.5,0C209.7,110.8,209.7,111.1,209.7,111.5z M209.6,109.4
					c-0.1,0-0.3,0-0.4,0c0-0.3,0-0.8,0.1-1.1c0.1,0,0.2,0,0.3,0C209.6,108.6,209.6,108.9,209.6,109.4z"/>
			</g>
			<g>
				<path class="st2" d="M209.5,107.2c-0.1,0-0.1,0-0.2,0c0-0.2,0-0.4,0-0.6h0.1C209.5,106.8,209.5,107,209.5,107.2z"/>
			</g>
		</g>
		<g>
			<g>
				<path class="st2" d="M204.4,115.3c-0.1,0-0.2,0-0.3,0c1.6-2.9,3.1-5.8,4.8-8.8l0,0C207.4,109.5,205.9,112.4,204.4,115.3z"/>
			</g>
			<g>
				<path class="st2" d="M214.7,115.3c-0.1,0-0.2,0-0.3,0c-1.5-2.9-2.9-5.8-4.4-8.8l0,0C211.5,109.5,213.2,112.4,214.7,115.3z"/>
			</g>
		</g>
	</g>
</g>
<g>
	<g>
		<g>
			<g>
				<g>
					<g>
						<defs>
							<rect id="SVGID_5_" x="219.5" y="108.6" width="13.1" height="5.8"/>
						</defs>
						<clipPath id="SVGID_6_">
							<use xlink:href="#SVGID_5_"  style="overflow:visible;"/>
						</clipPath>
						<path class="st5" d="M232.7,110.9v-0.2c-0.9-0.4-1.5-1.2-1.8-1.9l0,0l0,0H230l0,0l0,0c-0.5,1.5-2.1,2.3-3.9,2.3
							c-1.8,0-3.4-0.8-3.9-2.3l0,0l0,0h-0.9l0,0c-0.3,0.9-1,1.5-1.8,1.9v0.2c0.1-0.1,0.3-0.1,0.4-0.2v1.2h-0.4v0.4h1.8v1.5h0.9v-1.5
							h7.8v1.5h0.9v-1.5h1.8v-0.4h-0.4v-1.2C232.4,110.7,232.5,110.8,232.7,110.9L232.7,110.9z M220.7,111.8h-0.6v-1.2
							c0.2-0.2,0.4-0.3,0.6-0.5V111.8z M221.3,111.8h-0.4v-1.9c0.2-0.2,0.3-0.4,0.4-0.6V111.8z M222.7,111.8h-0.5v-2.6
							c0.1,0.2,0.3,0.5,0.5,0.8V111.8z M223.7,111.8h-0.9V110c0.2,0.2,0.5,0.4,0.9,0.5V111.8z M224.6,111.8h-0.9v-1.1
							c0.2,0.1,0.5,0.2,0.9,0.3V111.8z M225.5,111.8h-0.8V111c0.2,0.1,0.5,0.1,0.9,0.1v0.6H225.5z M226.5,111.8h-0.9v-0.6
							c0.1,0,0.3,0,0.4,0s0.2,0,0.4,0L226.5,111.8L226.5,111.8z M227.4,111.8h-0.9v-0.6c0.3,0,0.5-0.1,0.9-0.1V111.8z M228.4,111.8
							h-0.9v-0.9c0.3-0.1,0.5-0.2,0.9-0.3V111.8z M229.4,111.8h-0.9v-1.2c0.3-0.1,0.5-0.3,0.9-0.5V111.8z M230,111.8h-0.5v-1.8
							c0.2-0.2,0.4-0.4,0.5-0.8V111.8z M231.3,111.8h-0.5v-2.6c0.1,0.2,0.3,0.4,0.5,0.6V111.8z M232.2,111.8h-0.6V110
							c0.2,0.2,0.4,0.4,0.6,0.5V111.8z"/>
					</g>
				</g>
			</g>
		</g>
	</g>
</g>
<path class="st0" d="M238.6,111.8c0,0-0.8,0.8-1,1c-0.1,0.1-0.6,1-0.8,1.3c0,0.2-0.1,0.4,0.2,0.8c0.2,0.3,1,0.9,1.3,1.1
	c0.4,0.2,0.6,0.3,1.3,0.4c0.4,0,1.2,0.1,1.8-0.1c0.6-0.2,2.5-0.9,2.7-1c1.7-0.6,3.8-1.7,4.1-2.1c0.2-0.2,0.3-0.4,0.3-0.8
	c0-0.3-0.1-0.8-0.3-1c-0.2-0.1-0.3-0.3-0.3-0.3s-0.1-0.9-0.2-1.3c-0.2-0.5-0.9-1.8-1.4-1.9c-0.1,0-0.3-0.4-0.4-0.5
	c-0.4-0.2-1.6-0.3-1.9-0.3c-0.6,0-1.3,0-1.9,0.2c-2.3,0.8-2.8,2.1-3.1,2.7C238.7,110.6,238.6,111.8,238.6,111.8z"/>
<circle class="st2" cx="124.4" cy="111.4" r="7.8"/>
<g>
	<g>
		<g>
			<g>
				<g>
					<g>
						<defs>
							<rect id="SVGID_7_" x="119.1" y="106" width="11" height="10.9"/>
						</defs>
						<clipPath id="SVGID_8_">
							<use xlink:href="#SVGID_7_"  style="overflow:visible;"/>
						</clipPath>
						<path class="st6" d="M119.8,109.9c0.1,0.2,0.1,0.4,0.2,0.5l-0.3,0.4c-0.1,0.1-0.1,0.3,0,0.4l0.5,0.5c0.1,0.1,0.3,0.1,0.4,0
							l0.3-0.3c0.2,0.1,0.4,0.2,0.5,0.2l0.1,0.4c0,0.1,0.1,0.2,0.3,0.2h0.8c0.1,0,0.3-0.1,0.3-0.2v-0.4c0.2-0.1,0.4-0.1,0.6-0.2
							l0.3,0.3c0.1,0.1,0.3,0.1,0.4,0l0.5-0.5c0.1-0.1,0.1-0.3,0-0.4l-0.3-0.3c0.1-0.2,0.2-0.4,0.2-0.6h0.4c0.1,0,0.2-0.1,0.2-0.3
							v-0.8c0-0.1-0.1-0.3-0.2-0.3h-0.4c-0.1-0.2-0.1-0.4-0.2-0.6l0.2-0.3c0.1-0.1,0.1-0.3,0-0.4l-0.5-0.5c-0.1-0.1-0.3-0.1-0.4,0
							l-0.3,0.2c-0.2-0.1-0.4-0.2-0.6-0.3V106c0-0.1-0.1-0.2-0.3-0.2h-0.8c-0.1,0-0.3,0.1-0.3,0.2v0.4c-0.2,0.1-0.4,0.1-0.6,0.3
							l-0.3-0.2c-0.1-0.1-0.3-0.1-0.4,0l-0.5,0.5c-0.1,0.1-0.1,0.3,0,0.4l0.3,0.3c-0.1,0.2-0.2,0.4-0.2,0.6h-0.4
							c-0.1,0-0.2,0.1-0.2,0.3v0.8c0,0.1,0.1,0.3,0.2,0.3H119.8z M122.3,108.1c0.6,0,1.2,0.5,1.2,1.2s-0.5,1.2-1.2,1.2
							c-0.6,0-1.2-0.5-1.2-1.2C121.2,108.6,121.7,108.1,122.3,108.1L122.3,108.1z"/>
					</g>
				</g>
			</g>
		</g>
		<g>
			<g>
				<g>
					<g>
						<defs>
							<rect id="SVGID_9_" x="119.1" y="106" width="11" height="10.9"/>
						</defs>
						<clipPath id="SVGID_10_">
							<use xlink:href="#SVGID_9_"  style="overflow:visible;"/>
						</clipPath>
						<path class="st7" d="M129.4,110.1l-0.3-0.3c-0.1-0.1-0.3-0.1-0.4,0l-0.2,0.2c-0.2-0.1-0.3-0.1-0.5-0.2l-0.1-0.3
							c0-0.1-0.2-0.2-0.3-0.2H127c-0.1,0-0.2,0.1-0.3,0.3v0.3c-0.2,0.1-0.3,0.1-0.5,0.3l-0.2-0.2c-0.1-0.1-0.3-0.1-0.4,0.1l-0.3,0.3
							c-0.1,0.1-0.1,0.3,0,0.4l0.2,0.2c-0.1,0.2-0.1,0.3-0.1,0.5l-0.3,0.1c-0.1,0-0.2,0.2-0.2,0.3v0.4c0,0.1,0.1,0.2,0.3,0.3h0.3
							c0.1,0.1,0.1,0.3,0.2,0.4l-0.2,0.3c-0.1,0.1-0.1,0.3,0.1,0.4l0.3,0.3c0.1,0.1,0.3,0.1,0.4,0l0.2-0.2c0.1,0.1,0.3,0.1,0.5,0.2
							l0.1,0.3c0,0.1,0.2,0.2,0.3,0.2h0.4c0.1,0,0.2-0.1,0.3-0.3v-0.3c0.2-0.1,0.3-0.1,0.5-0.2l0.2,0.2c0.1,0.1,0.3,0.1,0.4-0.1
							l0.3-0.3c0.1-0.1,0.1-0.3,0-0.4l-0.2-0.2c0.1-0.2,0.1-0.3,0.2-0.5l0.3-0.1c0.1,0,0.2-0.2,0.2-0.3v-0.4c0-0.1-0.1-0.2-0.3-0.2
							h-0.3c-0.1-0.2-0.1-0.3-0.2-0.4l0.1-0.2C129.5,110.5,129.5,110.2,129.4,110.1L129.4,110.1z M127.5,112.9c-0.5,0-1-0.3-1.1-0.9
							c0-0.5,0.3-1,0.9-1.1c0.5,0,1,0.3,1.1,0.9C128.4,112.4,128.1,112.9,127.5,112.9L127.5,112.9z"/>
					</g>
				</g>
			</g>
		</g>
	</g>
	<path class="st0" d="M121.5,114.2c-0.1,0-0.2,0.1-0.2,0.3v0.3c0,0.1,0.1,0.3,0.2,0.3h0.2c0,0.1,0.1,0.2,0.1,0.4l-0.1,0.2
		c-0.1,0.1-0.1,0.3,0,0.4l0.2,0.2c0.1,0.1,0.3,0.1,0.4,0l0.2-0.1c0.1,0.1,0.2,0.1,0.4,0.2v0.2c0,0.1,0.1,0.2,0.3,0.2h0.3
		c0.1,0,0.3-0.1,0.3-0.2v-0.2c0.1,0,0.3-0.1,0.4-0.2l0.2,0.1c0.1,0.1,0.3,0.1,0.4,0l0.2-0.2c0.1-0.1,0.1-0.3,0-0.4l-0.1-0.2
		c0.1-0.1,0.1-0.2,0.2-0.4h0.2c0.1,0,0.2-0.1,0.2-0.3v-0.3c0-0.1-0.1-0.3-0.2-0.3h-0.2c0-0.1-0.1-0.3-0.1-0.4l0.1-0.1
		c0.1-0.1,0.1-0.3,0-0.4l-0.2-0.2c-0.1-0.1-0.3-0.1-0.4,0l-0.1,0.1c-0.1-0.1-0.3-0.1-0.4-0.2v-0.2c0-0.1-0.1-0.2-0.3-0.2h-0.3
		c-0.1,0-0.3,0.1-0.3,0.2v0.2c-0.1,0-0.3,0.1-0.4,0.2l-0.1-0.1c-0.1-0.1-0.3-0.1-0.4,0l-0.2,0.2c-0.1,0.1-0.1,0.3,0,0.4l0.1,0.2
		c-0.1,0.1-0.1,0.2-0.2,0.4L121.5,114.2z M123.4,113.9c0.4,0,0.8,0.3,0.8,0.8c0,0.4-0.3,0.8-0.8,0.8c-0.4,0-0.8-0.3-0.8-0.8
		C122.6,114.2,123,113.9,123.4,113.9L123.4,113.9z"/>
</g>
<g>
	<path class="st0" d="M142.3,113.8h-2.6c-0.2,0-0.3,0.1-0.3,0.3c0,0.2,0.1,0.3,0.3,0.3h2.6c0.2,0,0.3-0.1,0.3-0.3
		C142.7,113.9,142.5,113.8,142.3,113.8L142.3,113.8z"/>
	<path class="st0" d="M140.3,115.9v0.2c0,0.2,0.2,0.4,0.4,0.4h0.5c0.2,0,0.4-0.2,0.4-0.4v-0.2c0.4,0,0.8-0.4,0.8-0.9h-2.9
		C139.5,115.5,139.9,115.9,140.3,115.9L140.3,115.9z"/>
	<path class="st0" d="M141.1,106c-1.9,0-3.5,1.5-3.5,3.5c0,0.9,0.3,1.5,0.8,2.2c0.4,0.5,0.8,1.1,1.2,1.6h3.2
		c0.3-0.5,0.8-1.2,1.2-1.6c0.4-0.5,0.8-1.3,0.8-2.2C144.5,107.6,143,106,141.1,106L141.1,106z"/>
	<path class="st2" d="M141.1,107.2c-1.2,0-2.3,1-2.3,2.3c0,0.2-0.1,0.3-0.3,0.3s-0.3-0.1-0.3-0.3c0-1.6,1.3-2.9,2.9-2.9
		c0.2,0,0.3,0.1,0.3,0.3C141.4,107.1,141.3,107.2,141.1,107.2L141.1,107.2z"/>
	<path d="M141.1,107.2"/>
</g>
</svg>
