<?xml version="1.0" encoding="utf-8"?>
<!-- Generator: Adobe Illustrator 20.1.0, SVG Export Plug-In . SVG Version: 6.00 Build 0)  -->
<svg version="1.1" id="Layer_1" xmlns="http://www.w3.org/2000/svg" xmlns:xlink="http://www.w3.org/1999/xlink" x="0px" y="0px"
	 viewBox="0 0 596 250" style="enable-background:new 0 0 596 250;" xml:space="preserve">
<style type="text/css">
	.st0{fill:#6A2046;}
	.st1{fill:none;stroke:#EC268B;stroke-width:1.5421;stroke-miterlimit:10;}
	.st2{fill:#EC268B;}
	.st3{clip-path:url(#SVGID_2_);fill:#6A2046;}
	.st4{clip-path:url(#SVGID_4_);fill:#6A2046;}
	.st5{clip-path:url(#SVGID_6_);fill:#6A2046;}
	.st6{clip-path:url(#SVGID_8_);fill:#6A2046;}
	.st7{clip-path:url(#SVGID_10_);fill:#6A2046;}
</style>
<rect x="0" class="st0" width="596" height="250"/>
<path class="st1" d="M231.1,125.5c0,59.6-48.3,107.8-107.9,107.8S15.3,185,15.3,125.5S63.6,17.7,123.2,17.7h472.9"/>
<path class="st1" d="M221.2,125.5c0,54.1-43.9,98-98.1,98S25,179.6,25,125.5s43.9-98,98.1-98H596"/>
<path class="st1" d="M211.9,125.5c0,49-39.7,88.7-88.7,88.7s-88.7-39.7-88.7-88.7s39.7-88.7,88.7-88.7h472.7"/>
<path class="st1" d="M202.6,125.5c0,43.8-35.5,79.4-79.4,79.4s-79.4-35.5-79.4-79.4c0-43.8,35.5-79.4,79.4-79.4h473"/>
<path class="st1" d="M193.2,125.5c0,38.7-31.4,70-70.1,70S53,164.2,53,125.5s31.4-70,70.1-70h473"/>
<path class="st1" d="M183.9,125.5c0,33.5-27.2,60.7-60.7,60.7S62.5,159,62.5,125.5s27.2-60.7,60.7-60.7H596"/>
<g>
	<g>
		<path class="st2" d="M88,133.7c-0.8,1-1.8,2-2.9,3.1l0,0l-0.8,0.9l-0.1,0.1l-1.3,1.3c-0.4,0.4-0.9,1-1.5,1.5
			c-1.2,1.2-2.6,2.5-3.7,3.2c-2.6,1.4-1-0.5-0.2-1.5c1.4-1.5,2.9-3.4,4.1-5.1c0.9-1.2,1.6-2.3,2.1-3.1c0.9-1.6-0.7-1.9-1.4-2
			c-0.2,0-0.3,0-0.5,0c-0.6,0-1.2,0-1.9,0.1c-0.5,0-0.9,0-1.3,0c-0.9,0-1.5-0.1-1.9-0.1c-0.4-0.1-0.6-0.1-0.6-0.1
			c-1.5-0.5-2.1-1.2-2.1-2c0-1.4,1.6-3.3,3.3-4.7c1.7-1.5,3.3-2.6,3.3-2.6c5.2-3.5,8.5-4.5,10.6-4.5c1.4,0,2.3,0.5,2.7,1
			c0.2,0.2,0.3,0.3,0.4,0.5l0,0c0,0.1,0.1,0.1,0.1,0.2c0,0,0,0.1,0.1,0.1c0.1,0.1,0.1,0.2,0.1,0.2s0.1,0,0-0.4v-0.1v-0.1
			c0-0.1,0-0.1,0-0.2c-0.4-1.6-1.7-2.2-3.1-2.2c-2.9,0-6.7,2.2-6.7,2.2s-2.9,1.6-5.7,3.8c-0.4,0.3-0.8,0.6-1.2,0.9
			c-0.9,0.8-3.7,3.2-4.4,5.4c-0.1,0.3-0.3,1.7,0.9,2.6c0.7,0.5,2,0.9,4.1,0.9c0.4,0,0.7,0,1.1-0.1l0,0c2.4-0.2,3.2,0,3.3,0H83
			c0.1,0.1,0.2,0.2,0.2,0.4c0,0.1-0.1,0.3-0.2,0.6c-0.7,1.4-3.8,5.3-6.1,7.7c-1.3,1.4-1.8,2.5-1.8,3.1c0,0.4,0.2,0.7,0.5,0.7l0,0
			c0.6,0,1.7-0.7,3.2-1.9s3.4-3,5.7-5.2c1-1,2.2-2.3,3.3-3.7c0,0,0.6-0.7,1.3-1.7V132C88.6,132.9,88.1,133.6,88,133.7z"/>
		<path class="st2" d="M94,125.1c0-0.3-0.1-0.5-0.2-0.6c-0.2-0.2-0.4-0.2-0.7-0.2c-0.2,0-0.5,0.1-0.9,0.2c-3.5,1.1-5.8,6.1-7,9.7
			l0,0c0,0-0.2,0.5-0.3,1l0,0c0,0-0.1,0.5-0.1,0.7c0,0,0,0.1,0.1,0.1c0,0,0.1-0.1,0.1-0.2c0.2-0.4,0.6-1.6,0.7-1.9
			c0.9-2.6,2.5-5.9,5.4-7.9c0.2-0.1,0.6-0.4,1.1-0.5s1-0.2,1.1,0.2c0.1,0.4-0.5,1.7-1.9,3.8H92C93.2,127.6,94,126,94,125.1z"/>
	</g>
	<g>
		<polygon class="st2" points="90.5,137.3 90.5,134.2 97.7,134.2 97.7,133.2 90.5,133.2 90.5,130.3 98,130.3 98,129.3 92.1,129.3 
			91.5,129.3 89.3,129.3 89.3,132.1 89.3,133.1 89.3,138.3 98.1,138.3 98.1,137.3 		"/>
		<path class="st2" d="M102.4,129.3h7.3c1.6,0,2.5,0.3,2.5,2.4c0,2-0.2,3-2.8,3h-5.8v3.5h-1.2V129.3z M111.1,131.6
			c0-1.1-0.6-1.3-1.6-1.3h-5.9v3.4h5.9c1,0,1.5-0.3,1.5-1.3L111.1,131.6L111.1,131.6z"/>
		<path class="st2" d="M115.7,135.4h1.1v0.6c0,0.9,0.5,1.3,2,1.3h3.7c1.7,0,2.3-0.4,2.3-1.6c0-1.1-0.4-1.4-1.9-1.4h-2.3
			c-3.7,0-4.9-0.2-4.9-2.6c0-2,1.2-2.5,3.7-2.5h2.6c3,0,3.7,0.8,3.7,2.4v0.3h-1.1c0-1.4-0.2-1.7-3.3-1.7H120c-2.3,0-3.1,0.1-3.1,1.6
			c0,1.1,0.3,1.4,2.2,1.4h3.6c2.3,0,3.3,0.7,3.3,2.2v0.6c0,2.2-1.8,2.3-3.6,2.3h-3.3c-1.8,0-3.3-0.3-3.3-2.3L115.7,135.4
			L115.7,135.4z"/>
		<polygon class="st2" points="132.9,130.3 128.4,130.3 128.4,129.3 138.6,129.3 138.6,130.3 134.1,130.3 134.1,138.3 132.9,138.3 
					"/>
		<polygon class="st2" points="142.3,129.3 151.1,129.3 151.1,130.3 143.5,130.3 143.5,133.2 150.8,133.2 150.8,134.2 143.5,134.2 
			143.5,137.3 151.1,137.3 151.1,138.3 142.3,138.3 		"/>
		<rect x="155.6" y="129.3" class="st2" width="1.2" height="8.9"/>
		<polygon class="st2" points="161.6,129.3 163.4,129.3 171.6,137.2 171.6,129.3 172.8,129.3 172.8,138.3 171,138.3 162.8,130.4 
			162.8,138.3 161.6,138.3 		"/>
	</g>
</g>
<circle class="st2" cx="133.4" cy="112.5" r="7.2"/>
<circle class="st2" cx="149" cy="112.5" r="7.2"/>
<circle class="st2" cx="164.7" cy="112.5" r="7.2"/>
<circle class="st2" cx="180.4" cy="112.5" r="7.2"/>
<circle class="st2" cx="196.4" cy="112.5" r="7.2"/>
<circle class="st2" cx="211.9" cy="112.5" r="7.2"/>
<circle class="st2" cx="227.5" cy="112.5" r="7.2"/>
<path class="st0" d="M148.7,107.8v0.2c0,0-0.1,0.1-0.3,0.2c-0.1,0.1-0.2,0.3-0.2,0.3s-0.5-0.2-0.8-0.2c-0.4,0-0.6,0.2-0.6,0.4
	c0,0.3,0.2,0.4,0.6,0.5c0.4,0,0.8-0.2,0.8-0.2s0.1,0.2,0.2,0.2c0.2,0.1,0.3,0.1,0.3,0.1v0.2h-0.3v1.5h-0.2v0.4h0.2v1.2H145v-0.3
	h-0.2V112h-0.2v0.2h-0.1v0.1h-0.7v0.1h-0.2v1.7h0.2v0.1h0.7v0.1h0.1v0.2h0.2v-0.3h0.2V114c0,0,4.8,0,6.3,0c0,0,0.4,0.3,0.5,0.6
	c0.1,0.3,0.1,0.6-0.1,0.8l0,0v0.1h-0.1v1.3h1.9v-1.3h-0.1v-0.1c0,0-0.2-0.3-0.2-0.6l0,0c0-1.1-0.7-2.1-1.7-2.2c-0.2,0-1,0-1,0v-1.2
	h0.2V111h-0.2v-1.5h-0.3v-0.2c0,0,0.1,0,0.3-0.1c0.1-0.1,0.2-0.2,0.2-0.2s0.4,0.3,0.8,0.2c0.4,0,0.6-0.2,0.6-0.5
	c0-0.2-0.2-0.4-0.6-0.4c-0.3,0-0.8,0.2-0.8,0.2s-0.1-0.2-0.2-0.3c-0.2-0.2-0.3-0.2-0.3-0.2v-0.2H148.7z"/>
<g>
	<g>
		<g>
			<g>
				<g>
					<defs>
						<rect id="SVGID_1_" x="161.2" y="107.2" width="7" height="10.2"/>
					</defs>
					<clipPath id="SVGID_2_">
						<use xlink:href="#SVGID_1_"  style="overflow:visible;"/>
					</clipPath>
					<path class="st3" d="M164.7,109c0.2,0,0.3-0.1,0.3-0.3v-1.2c0-0.2-0.1-0.3-0.3-0.3s-0.3,0.1-0.3,0.3v1.2
						C164.4,108.8,164.5,109,164.7,109L164.7,109z"/>
				</g>
			</g>
		</g>
		<g>
			<g>
				<g>
					<defs>
						<rect id="SVGID_3_" x="161.2" y="107.2" width="7" height="10.2"/>
					</defs>
					<clipPath id="SVGID_4_">
						<use xlink:href="#SVGID_3_"  style="overflow:visible;"/>
					</clipPath>
					<path class="st4" d="M168.1,114.2h-0.9l-1.4-4c0.2-0.2,0.3-0.5,0.3-0.8c0-0.5-0.3-1-0.7-1.2v0.7c0,0.1,0,0.1,0,0.2
						c0.1,0.1,0.1,0.3,0.1,0.4c0,0.4-0.3,0.7-0.7,0.7s-0.7-0.3-0.7-0.7c0-0.2,0-0.3,0.1-0.4c0,0,0-0.1,0-0.2v-0.7
						c-0.4,0.2-0.7,0.7-0.7,1.2c0,0.3,0.1,0.6,0.3,0.8l-1.4,4h-0.9c-0.1,0-0.1,0.1-0.1,0.2v0.3c0,0.1,0.1,0.1,0.1,0.1h0.7l-0.3,1
						c0,0,0,0.1,0.1,0.1l0,0l-0.4,1.3c0,0,0,0.1,0.1,0.1l0.2,0.1h0.1l0.6-1.2h0.1c0,0,0.1,0,0.1-0.1l0.5-1.3h1.4v0.1
						c0,0.2,0.1,0.3,0.3,0.3s0.3-0.1,0.3-0.3v-0.1h1.4l0.5,1.3l0.1,0.1h0.1l0.6,1.2c0,0,0.1,0.1,0.1,0l0.2-0.1l0.1-0.1l-0.4-1.3l0,0
						l0.1-0.1l-0.3-1h0.7c0.1,0,0.2-0.1,0.2-0.1v-0.3C168.2,114.3,168.1,114.2,168.1,114.2L168.1,114.2z M165,114.2L165,114.2
						c0-0.2-0.1-0.4-0.3-0.4s-0.3,0.1-0.3,0.3v0.1h-1.2l1.2-3.5c0.1,0,0.2,0,0.3,0s0.2,0,0.3,0l1.2,3.5H165z"/>
				</g>
			</g>
		</g>
	</g>
</g>
<path class="st0" d="M176.9,109c0.3,1.3,1.5,4.3,1.9,4.9C178,112.9,177.1,110.6,176.9,109 M179.4,114.5c0.1-0.1,0.4-0.4,0.6-0.5
	c0.1,0.1,0.3,0.2,0.4,0.3c-0.2,0.1-0.4,0.3-0.6,0.5C179.7,114.7,179.5,114.6,179.4,114.5 M184.3,116.5c-1.8-0.1-3.5-0.9-4.5-1.6
	c0.1-0.1,0.5-0.4,0.7-0.5c0.6,0.4,1.7,0.8,2.7,0.9v-0.1l-0.1-0.1c-1.1-0.2-1.9-0.5-2.4-0.8c0.9-0.6,2.5-1.1,3.4-1.3
	c0.1,0,0.1,0,0-0.1c0,0-0.1-0.1-0.2-0.1c0-0.1,0.2-0.1,0.1-0.1c-0.1-0.1-0.1-0.3-0.1-0.4s0-0.1-0.1-0.2s-0.5-0.1-1-0.1
	s-1.3,0.2-1.8,0.5c-0.4,0-1,0.2-1.3,0.3c-0.1-0.3-0.2-0.7-0.4-0.9c0-0.3-0.1-0.7-0.3-0.9c0-0.3-0.2-0.6-0.3-0.8
	c0-0.4-0.2-0.8-0.5-1.1c-0.2-0.1-0.4-0.5-0.5-0.7c-0.1-0.1-0.1-0.1-0.2-0.1c-0.1,0-0.2,0.1-0.4,0.1c-0.1,0-0.1,0.1-0.1,0.2
	c-0.1,0-0.1,0-0.1,0v-0.1h-0.2c0,0.6,0.2,1.9,0.7,3.1s1,2.1,1.8,2.8c-0.3,0.3-0.6,0.4-0.9,0.4l-0.1,0.1v0.1c0.5,0,0.9-0.3,1.1-0.5
	c0.1,0.1,0.2,0.2,0.3,0.3c-0.3,0.2-0.9,0.7-1.4,1s-1,0.5-1.7,0.5l-0.1,0.1v0.1c0.6,0,1.1-0.1,1.4-0.3c0.8-0.3,1.5-1,2-1.3
	c0.6,0.5,2.6,1.7,4.7,1.7v-0.1H184.3z M179,114c0.1,0,0.2,0,0.2,0s0.5-0.1,0.7-0.2l-0.6,0.5C179.3,114.4,179,114.1,179,114
	 M180.1,113.9l0.2-0.1l3-0.7c-0.5,0.1-1.3,0.4-1.5,0.5c-0.1,0.1-1.2,0.5-1.3,0.7L180.1,113.9z"/>
<g>
	<g>
		<g>
			<path class="st0" d="M197,108c-0.4,0-0.7,0-1.1,0c-1.6,2.7-3.1,5.4-4.7,8.1c3.5,0,7,0,10.5,0C200.1,113.4,198.5,110.7,197,108z"
				/>
		</g>
		<g>
			<g>
				<path class="st2" d="M196.9,116.1c-0.3,0-0.7,0-1,0c0-0.2,0-0.4,0-0.6c0.3,0,0.6,0,1,0C196.9,115.7,196.9,115.9,196.9,116.1z"/>
			</g>
			<g>
				<path class="st2" d="M196.9,114.6c-0.3,0-0.6,0-0.9,0c0-0.3,0-0.7,0.1-1c0.2,0,0.5,0,0.7,0C196.8,113.9,196.8,114.2,196.9,114.6
					z M196.7,112.6c-0.2,0-0.4,0-0.6,0c0-0.3,0-0.7,0.1-1c0.2,0,0.3,0,0.5,0C196.7,111.9,196.7,112.2,196.7,112.6z M196.6,110.6
					c-0.1,0-0.3,0-0.4,0c0-0.3,0-0.7,0.1-1c0.1,0,0.2,0,0.3,0C196.6,109.9,196.6,110.2,196.6,110.6z"/>
			</g>
			<g>
				<path class="st2" d="M196.5,108.6c-0.1,0-0.1,0-0.2,0c0-0.2,0-0.4,0-0.6h0.1C196.5,108.2,196.5,108.4,196.5,108.6z"/>
			</g>
		</g>
		<g>
			<g>
				<path class="st2" d="M191.8,116.1c-0.1,0-0.2,0-0.3,0c1.5-2.7,2.9-5.4,4.4-8.1l0,0C194.6,110.7,193.2,113.4,191.8,116.1z"/>
			</g>
			<g>
				<path class="st2" d="M201.3,116.1c-0.1,0-0.2,0-0.3,0c-1.4-2.7-2.7-5.4-4.1-8.1l0,0C198.4,110.7,199.9,113.4,201.3,116.1z"/>
			</g>
		</g>
	</g>
</g>
<g>
	<g>
		<g>
			<g>
				<g>
					<defs>
						<rect id="SVGID_5_" x="205.8" y="109.9" width="12.1" height="5.4"/>
					</defs>
					<clipPath id="SVGID_6_">
						<use xlink:href="#SVGID_5_"  style="overflow:visible;"/>
					</clipPath>
					<path class="st5" d="M218,112v-0.2c-0.8-0.4-1.4-1.1-1.7-1.8l0,0l0,0h-0.8l0,0l0,0c-0.5,1.4-1.9,2.1-3.6,2.1
						c-1.7,0-3.1-0.7-3.6-2.1l0,0l0,0h-0.8l0,0c-0.3,0.8-0.9,1.4-1.7,1.8v0.2c0.1-0.1,0.3-0.1,0.4-0.2v1.1h-0.4v0.4h1.7v1.4h0.8
						v-1.4h7.2v1.4h0.8v-1.4h1.7v-0.4h-0.4v-1.1C217.7,111.8,217.8,111.9,218,112L218,112z M206.9,112.8h-0.6v-1.1
						c0.2-0.2,0.4-0.3,0.6-0.5V112.8z M207.4,112.8H207V111c0.2-0.2,0.3-0.4,0.4-0.6V112.8z M208.7,112.8h-0.5v-2.4
						c0.1,0.2,0.3,0.5,0.5,0.7V112.8z M209.6,112.8h-0.8v-1.6c0.2,0.2,0.5,0.4,0.8,0.5V112.8z M210.5,112.8h-0.8v-1
						c0.2,0.1,0.5,0.2,0.8,0.3V112.8z M211.3,112.8h-0.7v-0.7c0.2,0.1,0.5,0.1,0.8,0.1v0.6H211.3z M212.2,112.8h-0.8v-0.6
						c0.1,0,0.3,0,0.4,0c0.1,0,0.2,0,0.4,0L212.2,112.8L212.2,112.8z M213.1,112.8h-0.8v-0.6c0.3,0,0.5-0.1,0.8-0.1V112.8z
						 M214,112.8h-0.8V112c0.3-0.1,0.5-0.2,0.8-0.3V112.8z M214.9,112.8h-0.8v-1.1c0.3-0.1,0.5-0.3,0.8-0.5V112.8z M215.5,112.8H215
						v-1.7c0.2-0.2,0.4-0.4,0.5-0.7V112.8z M216.7,112.8h-0.5v-2.4c0.1,0.2,0.3,0.4,0.5,0.6V112.8z M217.5,112.8h-0.6v-1.6
						c0.2,0.2,0.4,0.4,0.6,0.5V112.8z"/>
				</g>
			</g>
		</g>
	</g>
</g>
<path class="st0" d="M223.4,112.8c0,0-0.7,0.7-0.9,0.9c-0.1,0.1-0.6,0.9-0.7,1.2c0,0.2-0.1,0.4,0.2,0.7c0.2,0.3,0.9,0.8,1.2,1
	c0.4,0.2,0.6,0.3,1.2,0.4c0.4,0,1.1,0.1,1.7-0.1c0.6-0.2,2.3-0.8,2.5-0.9c1.6-0.6,3.5-1.6,3.8-1.9c0.2-0.2,0.3-0.4,0.3-0.7
	c0-0.3-0.1-0.7-0.3-0.9c-0.2-0.1-0.3-0.3-0.3-0.3s-0.1-0.8-0.2-1.2c-0.2-0.5-0.8-1.7-1.3-1.8c-0.1,0-0.3-0.4-0.4-0.5
	c-0.4-0.2-1.5-0.3-1.8-0.3c-0.6,0-1.2,0-1.8,0.2c-2.1,0.7-2.6,1.9-2.9,2.5C223.5,111.7,223.4,112.8,223.4,112.8z"/>
<circle class="st2" cx="117.9" cy="112.5" r="7.2"/>
<g>
	<g>
		<g>
			<g>
				<g>
					<defs>
						<rect id="SVGID_7_" x="113" y="107.5" width="10.2" height="10.1"/>
					</defs>
					<clipPath id="SVGID_8_">
						<use xlink:href="#SVGID_7_"  style="overflow:visible;"/>
					</clipPath>
					<path class="st6" d="M113.7,111.1c0.1,0.2,0.1,0.4,0.2,0.5l-0.3,0.4c-0.1,0.1-0.1,0.3,0,0.4l0.5,0.5c0.1,0.1,0.3,0.1,0.4,0
						l0.3-0.3c0.2,0.1,0.4,0.2,0.5,0.2l0.1,0.4c0,0.1,0.1,0.2,0.3,0.2h0.7c0.1,0,0.3-0.1,0.3-0.2v-0.4c0.2-0.1,0.4-0.1,0.6-0.2
						l0.3,0.3c0.1,0.1,0.3,0.1,0.4,0l0.5-0.5c0.1-0.1,0.1-0.3,0-0.4l-0.3-0.3c0.1-0.2,0.2-0.4,0.2-0.6h0.4c0.1,0,0.2-0.1,0.2-0.3
						v-0.7c0-0.1-0.1-0.3-0.2-0.3h-0.4c-0.1-0.2-0.1-0.4-0.2-0.6l0.2-0.3c0.1-0.1,0.1-0.3,0-0.4l-0.5-0.5c-0.1-0.1-0.3-0.1-0.4,0
						l-0.3,0.2c-0.2-0.1-0.4-0.2-0.6-0.3v-0.4c0-0.1-0.1-0.2-0.3-0.2h-0.7c-0.1,0-0.3,0.1-0.3,0.2v0.4c-0.2,0.1-0.4,0.1-0.6,0.3
						l-0.3-0.2c-0.1-0.1-0.3-0.1-0.4,0l-0.5,0.5c-0.1,0.1-0.1,0.3,0,0.4l0.3,0.3c-0.1,0.2-0.2,0.4-0.2,0.6h-0.4
						c-0.1,0-0.2,0.1-0.2,0.3v0.7c0,0.1,0.1,0.3,0.2,0.3H113.7z M116,109.4c0.6,0,1.1,0.5,1.1,1.1s-0.5,1.1-1.1,1.1
						s-1.1-0.5-1.1-1.1C115,109.9,115.4,109.4,116,109.4L116,109.4z"/>
				</g>
			</g>
		</g>
		<g>
			<g>
				<g>
					<defs>
						<rect id="SVGID_9_" x="113" y="107.5" width="10.2" height="10.1"/>
					</defs>
					<clipPath id="SVGID_10_">
						<use xlink:href="#SVGID_9_"  style="overflow:visible;"/>
					</clipPath>
					<path class="st7" d="M122.5,111.3l-0.3-0.3c-0.1-0.1-0.3-0.1-0.4,0l-0.2,0.2c-0.2-0.1-0.3-0.1-0.5-0.2l-0.1-0.3
						c0-0.1-0.2-0.2-0.3-0.2h-0.4c-0.1,0-0.2,0.1-0.3,0.3v0.3c-0.2,0.1-0.3,0.1-0.5,0.3l-0.2-0.2c-0.1-0.1-0.3-0.1-0.4,0.1l-0.3,0.3
						c-0.1,0.1-0.1,0.3,0,0.4l0.2,0.2c-0.1,0.2-0.1,0.3-0.1,0.5l-0.3,0.1c-0.1,0-0.2,0.2-0.2,0.3v0.4c0,0.1,0.1,0.2,0.3,0.3h0.3
						c0.1,0.1,0.1,0.3,0.2,0.4l-0.2,0.3c-0.1,0.1-0.1,0.3,0.1,0.4l0.3,0.3c0.1,0.1,0.3,0.1,0.4,0l0.2-0.2c0.1,0.1,0.3,0.1,0.5,0.2
						l0.1,0.3c0,0.1,0.2,0.2,0.3,0.2h0.4c0.1,0,0.2-0.1,0.3-0.3v-0.3c0.2-0.1,0.3-0.1,0.5-0.2l0.2,0.2c0.1,0.1,0.3,0.1,0.4-0.1
						l0.3-0.3c0.1-0.1,0.1-0.3,0-0.4l-0.2-0.2c0.1-0.2,0.1-0.3,0.2-0.5l0.3-0.1c0.1,0,0.2-0.2,0.2-0.3v-0.4c0-0.1-0.1-0.2-0.3-0.2
						h-0.3c-0.1-0.2-0.1-0.3-0.2-0.4l0.1-0.2C122.6,111.6,122.6,111.4,122.5,111.3L122.5,111.3z M120.8,113.9c-0.5,0-0.9-0.3-1-0.8
						c0-0.5,0.3-0.9,0.8-1c0.5,0,0.9,0.3,1,0.8C121.6,113.4,121.3,113.9,120.8,113.9L120.8,113.9z"/>
				</g>
			</g>
		</g>
	</g>
	<path class="st0" d="M115.2,115.1c-0.1,0-0.2,0.1-0.2,0.3v0.3c0,0.1,0.1,0.3,0.2,0.3h0.2c0,0.1,0.1,0.2,0.1,0.4l-0.1,0.2
		c-0.1,0.1-0.1,0.3,0,0.4l0.2,0.2c0.1,0.1,0.3,0.1,0.4,0l0.2-0.1c0.1,0.1,0.2,0.1,0.4,0.2v0.2c0,0.1,0.1,0.2,0.3,0.2h0.3
		c0.1,0,0.3-0.1,0.3-0.2v-0.2c0.1,0,0.3-0.1,0.4-0.2l0.2,0.1c0.1,0.1,0.3,0.1,0.4,0l0.2-0.2c0.1-0.1,0.1-0.3,0-0.4l-0.1-0.2
		c0.1-0.1,0.1-0.2,0.2-0.4h0.2c0.1,0,0.2-0.1,0.2-0.3v-0.3c0-0.1-0.1-0.3-0.2-0.3h-0.2c0-0.1-0.1-0.3-0.1-0.4l0.1-0.1
		c0.1-0.1,0.1-0.3,0-0.4l-0.2-0.2c-0.1-0.1-0.3-0.1-0.4,0l-0.1,0.1c-0.1-0.1-0.3-0.1-0.4-0.2v-0.2c0-0.1-0.1-0.2-0.3-0.2h-0.3
		c-0.1,0-0.3,0.1-0.3,0.2v0.2c-0.1,0-0.3,0.1-0.4,0.2l-0.1-0.1c-0.1-0.1-0.3-0.1-0.4,0l-0.2,0.2c-0.1,0.1-0.1,0.3,0,0.4l0.1,0.2
		c-0.1,0.1-0.1,0.2-0.2,0.4L115.2,115.1z M117,114.8c0.4,0,0.7,0.3,0.7,0.7c0,0.4-0.3,0.7-0.7,0.7c-0.4,0-0.7-0.3-0.7-0.7
		C116.3,115.1,116.6,114.8,117,114.8L117,114.8z"/>
</g>
<g>
	<path class="st0" d="M134.5,114.7h-2.4c-0.2,0-0.3,0.1-0.3,0.3s0.1,0.3,0.3,0.3h2.4c0.2,0,0.3-0.1,0.3-0.3S134.6,114.7,134.5,114.7
		L134.5,114.7z"/>
	<path class="st0" d="M132.6,116.6v0.2c0,0.2,0.2,0.4,0.4,0.4h0.5c0.2,0,0.4-0.2,0.4-0.4v-0.2c0.4,0,0.7-0.4,0.7-0.8h-2.7
		C131.9,116.3,132.2,116.6,132.6,116.6L132.6,116.6z"/>
	<path class="st0" d="M133.3,107.5c-1.8,0-3.2,1.4-3.2,3.2c0,0.8,0.3,1.4,0.7,2c0.4,0.5,0.7,1,1.1,1.5h3c0.3-0.5,0.7-1.1,1.1-1.5
		c0.4-0.5,0.7-1.2,0.7-2C136.5,109,135.1,107.5,133.3,107.5L133.3,107.5z"/>
	<path class="st2" d="M133.3,108.6c-1.1,0-2.1,0.9-2.1,2.1c0,0.2-0.1,0.3-0.3,0.3s-0.3-0.1-0.3-0.3c0-1.5,1.2-2.7,2.7-2.7
		c0.2,0,0.3,0.1,0.3,0.3C133.6,108.5,133.5,108.6,133.3,108.6L133.3,108.6z"/>
	<path d="M133.3,108.6"/>
</g>
</svg>
