<?xml version="1.0" encoding="utf-8"?>
<!-- Generator: Adobe Illustrator 20.1.0, SVG Export Plug-In . SVG Version: 6.00 Build 0)  -->
<svg version="1.1" id="Layer_1" xmlns="http://www.w3.org/2000/svg" xmlns:xlink="http://www.w3.org/1999/xlink" x="0px" y="0px"
	 viewBox="0 0 292 348" style="enable-background:new 0 0 292 348;" xml:space="preserve">
<style type="text/css">
	.st0{fill:#681E44;}
	.st1{fill:none;stroke:#EC268B;stroke-width:1.5491;stroke-miterlimit:10;}
	.st2{fill:#EC258B;}
	.st3{fill:none;}
	.st4{fill:#FFFFFF;}
	.st5{fill:none;stroke:#EC268B;stroke-width:1.9771;stroke-miterlimit:10;}
</style>
<rect y="0.3" class="st0" width="292" height="348.1"/>
<circle class="st1" cx="146.3" cy="110.6" r="72.6"/>
<g>
	<polygon class="st2" points="127.8,142.6 127.8,53.1 166,89.5 165.8,83.4 129.2,49.1 123.8,49.1 123.8,142.6 	"/>
	<polygon class="st2" points="164.8,49.1 164.8,154.1 168.8,153.5 168.8,49.1 	"/>
	<polyline class="st3" points="168.8,139.6 123.7,143 124.2,48.8 168.8,48.8 168.8,139.6 	"/>
	<path class="st2" d="M157.7,105.8v-9.2c0-3.5-1.2-6.8-3.3-9.3c-1.1-1.2-2.2-2.2-3.7-2.9c-1.4-0.7-3-1.1-4.6-1.1
		c-1.6,0-3.2,0.4-4.6,1.1c-2.1,1.1-3.9,2.8-5.3,4.9s-2.1,4.6-2.1,7.4v0.1l0,0c0,1.1,0,2.6,0.3,4.2c0.1,0.8,0.3,1.7,0.5,2.5
		c0.3,0.8,0.5,1.7,1.1,2.4c1.3,2.2,3.3,4.9,5.5,7.9c3.4,4.5,7.8,9.6,11.6,14.6c2,2.5,3.8,4.9,5.4,7.1c1.6,2.2,2.9,4.3,3.9,6
		c1.8,3.4,2.6,7.4,2.6,10.8c0,1.6-0.1,3.2-0.4,4.5c-0.3,1.3-0.7,2.5-1.1,3.3c-1.7,3.4-4.1,5.9-7.2,7.5c-3,1.6-6.7,2.4-10.6,2.5h-0.1
		c-5,0-9.6-1.6-12.8-3.9c-1.6-1.2-2.9-2.5-3.7-4.1c-0.8-1.4-1.3-3-1.3-4.7l0,0v-16.7h-3.8v16.7c0,2.4,0.7,4.6,1.8,6.7
		c1.7,3,4.5,5.5,7.9,7.2c3.4,1.7,7.5,2.8,11.8,2.8h0.1c4.3,0,8.7-0.9,12.5-2.9c3.8-2,7-5.1,8.9-9.3c0.5-1.2,1.1-2.6,1.3-4.2
		c0.3-1.6,0.5-3.3,0.5-5.1c0-3.9-0.8-8.4-3-12.6c-1.4-2.6-3.4-5.7-5.9-8.8c-3.5-4.9-7.9-10.1-11.7-14.9c-2-2.4-3.7-4.7-5.3-6.7
		c-1.6-2.1-2.8-3.9-3.7-5.3c-0.3-0.4-0.4-0.9-0.7-1.4c-0.3-0.9-0.4-2-0.5-3c-0.1-1.1-0.1-2-0.1-2.8v-0.1c0-2.6,1.1-5,2.5-6.6
		c0.8-0.8,1.7-1.4,2.6-2c0.9-0.4,2-0.7,3-0.7s2,0.3,2.9,0.7c1.3,0.7,2.5,1.8,3.4,3.3c0.9,1.4,1.4,3.4,1.4,5.4v9.2h3.7"/>
	<path class="st4" d="M166.9,54.8"/>
</g>
<path class="st2" d="M101.1,209.4l-8.7-9.6v9.3h-0.6v-10.9l8.7,9.6v-9.4h0.6V209.4z"/>
<path class="st2" d="M104.9,209h-0.6v-10.8h0.6V209z"/>
<path class="st2" d="M115.9,200.4c-0.4-0.5-0.9-0.9-1.6-1.2c-0.6-0.3-1.3-0.4-1.9-0.5c-1.3,0-2.4,0.5-3.3,1.5s-1.4,2.1-1.4,3.5
	c0,1.3,0.5,2.4,1.4,3.3c0.9,1,2,1.5,3.3,1.5c0.6,0,1.3-0.2,1.9-0.5s1.2-0.7,1.6-1.2v0.9c-1,0.9-2.1,1.3-3.4,1.3
	c-1.5,0-2.7-0.6-3.8-1.6c-1.1-1-1.6-2.3-1.6-3.9c0-1.6,0.6-2.9,1.6-3.9c1-1.1,2.3-1.6,3.8-1.6c1.3,0,2.4,0.5,3.4,1.4V200.4z"/>
<path class="st2" d="M123.4,198.1c1.5,0,2.8,0.6,3.8,1.6c1,1.1,1.6,2.4,1.6,3.9c0,1.6-0.5,2.9-1.6,3.9c-1,1.1-2.3,1.6-3.8,1.6
	s-2.7-0.6-3.8-1.6c-1-1-1.6-2.3-1.6-3.9c0-1.6,0.5-2.9,1.6-3.9C120.6,198.7,121.9,198.1,123.4,198.1z M123.4,198.7
	c-1.3,0-2.4,0.5-3.3,1.4s-1.4,2.1-1.4,3.5s0.5,2.5,1.4,3.4c0.9,1,2,1.4,3.3,1.5c1.3,0,2.4-0.5,3.3-1.5c0.9-0.9,1.4-2.1,1.4-3.4
	c0-1.4-0.5-2.5-1.4-3.5C125.8,199.2,124.7,198.7,123.4,198.7z"/>
<path class="st2" d="M131.9,208.4h2.6v0.6h-3.3v-10.8h0.6L131.9,208.4L131.9,208.4z"/>
<path class="st2" d="M137,198.9v3.9h4.2v0.6H137v4.9h4.3v0.6h-4.9v-10.8h4.9v0.6H137V198.9z"/>
<path class="st3" d="M146.8,201.7h0.6v3.3h3.2v0.7h-3.2v3.3h-0.6v-3.3h-3.2V205h3.2V201.7z"/>
<path class="st2" d="M158.3,200c-0.5-0.8-1.2-1.3-2.1-1.3c-0.6,0-1,0.2-1.4,0.6c-0.4,0.4-0.6,0.9-0.6,1.5c0,0.3,0.1,0.5,0.2,0.7
	c0.1,0.2,0.3,0.4,0.4,0.5c0.2,0.1,0.4,0.3,0.6,0.4c0.2,0.1,0.4,0.2,0.6,0.4l2,1.1c0.8,0.5,1.2,1.2,1.2,2.1c0,0.9-0.3,1.7-1,2.2
	c-0.6,0.6-1.4,0.9-2.2,0.9c-1.5,0-2.5-0.8-3-2.3l0.6-0.3c0.2,0.6,0.5,1.1,1,1.4c0.4,0.4,0.9,0.5,1.5,0.5c0.7,0,1.3-0.3,1.8-0.7
	c0.5-0.5,0.7-1.1,0.8-1.8c0-0.3-0.1-0.6-0.2-0.8c-0.1-0.2-0.3-0.4-0.5-0.6c-0.2-0.2-0.4-0.3-0.7-0.4c-0.2-0.1-0.5-0.2-0.7-0.4
	l-1.9-1c-0.7-0.4-1.1-1.1-1.1-1.9c0-0.8,0.3-1.5,0.8-2s1.1-0.8,1.9-0.8c1.1,0,2,0.5,2.5,1.5L158.3,200z"/>
<path class="st2" d="M166.6,209H166v-10.1h-2.7v-0.6h6v0.6h-2.7V209z"/>
<path class="st2" d="M174.6,198.9v3.9h4.2v0.6h-4.2v4.9h4.3v0.6H174v-10.8h4.9v0.6h-4.3V198.9z"/>
<path class="st2" d="M187,207.5L187,207.5l3.1-9.2h0.7l-3.8,11.1l-3.7-11.1h0.7L187,207.5z"/>
<path class="st2" d="M196,198.9v3.9h4.2v0.6H196v4.9h4.3v0.6h-4.9v-10.8h4.9v0.6H196V198.9z"/>
<g>
	<path class="st2" d="M147.2,199.4h0.6v3.3h3.2v0.7h-3.2v3.3h-0.6v-3.3H144v-0.7h3.2V199.4z"/>
</g>
<g>
	<path class="st2" d="M83.2,294H69.4L59,277.4h-0.1V294H48.1v-43.3h16.4c4.3,0,7.8,1.1,10.6,3.2c2.7,2.1,4.1,5.5,4.2,10.1
		c0,3-0.8,5.7-2.3,7.9c-1.5,2.2-3.8,3.6-6.8,4.3L83.2,294z M58.8,270.1H60c1,0,2-0.1,2.9-0.2c0.9-0.1,1.8-0.4,2.5-0.8
		c0.8-0.4,1.4-0.9,1.9-1.7c0.5-0.7,0.7-1.6,0.7-2.8s-0.2-2.2-0.7-2.9s-1.1-1.3-1.9-1.6c-0.8-0.4-1.6-0.7-2.5-0.8
		c-0.5-0.1-1-0.1-1.4-0.1c-0.5,0-1,0-1.5,0h-1.1v10.9H58.8z"/>
	<path class="st2" d="M105,260.3v7.2h12.2v9.5H105v7.5h12.8v9.5H94.2v-43.3h23.6v9.5L105,260.3L105,260.3z"/>
	<path class="st2" d="M149.6,277.1l10.1-26.3h11.7L153.7,294h-8.4l-17.4-43.3h11.7L149.6,277.1z"/>
	<path class="st2" d="M193,260.3v7.2h12.2v9.5H193v7.5h12.8v9.5h-23.6v-43.3h23.6v9.5L193,260.3L193,260.3z"/>
	<path class="st2" d="M231,284.5h13v9.5h-23.7v-43.3H231V284.5z"/>
</g>
<g>
	<path class="st2" d="M48.3,309.7v-4.8H50c0.4,0,0.8,0.1,1,0.3c0.3,0.2,0.4,0.5,0.4,1c0,0.4-0.2,0.8-0.5,1l0,0c0.7,0.1,1,0.5,1,1.2
		c0,0.5-0.2,0.8-0.5,1s-0.7,0.3-1.2,0.3H48.3z M49.5,306.8L49.5,306.8c0.3,0,0.4,0,0.6-0.1c0.1-0.1,0.2-0.2,0.2-0.4
		c0-0.2-0.1-0.4-0.2-0.4c-0.2,0-0.3-0.1-0.5-0.1h-0.1V306.8z M49.5,308.7h0.2c0.1,0,0.2,0,0.3,0s0.2,0,0.3-0.1
		c0.1,0,0.2-0.1,0.3-0.2s0.1-0.2,0.1-0.3c0-0.1,0-0.3-0.1-0.3c-0.1-0.1-0.2-0.1-0.3-0.1s-0.2,0-0.3,0s-0.2,0-0.3,0h-0.1v1H49.5z"/>
	<path class="st2" d="M54.1,305.9v0.8h1.3v1.1h-1.3v0.8h1.4v1.1h-2.6v-4.8h2.6v1.1h-1.4V305.9z"/>
	<path class="st2" d="M57.8,308.6h1.4v1.1h-2.6v-4.8h1.2C57.8,304.9,57.8,308.6,57.8,308.6z"/>
	<path class="st2" d="M64.5,307c0,0.3,0,0.7-0.1,1s-0.2,0.6-0.4,0.9c-0.5,0.6-1.1,0.9-1.9,0.9c-0.7,0-1.3-0.2-1.8-0.7
		s-0.7-1.1-0.7-1.8c0-0.8,0.2-1.4,0.7-1.9s1.1-0.7,1.8-0.7c1,0,1.7,0.4,2.1,1.3l-1.1,0.5c-0.2-0.5-0.5-0.8-1-0.8
		c-0.4,0-0.7,0.2-0.9,0.5s-0.3,0.7-0.3,1c0,0.4,0.1,0.7,0.3,1s0.5,0.5,0.9,0.5c0.3,0,0.5-0.1,0.7-0.2s0.3-0.3,0.3-0.6h-1v-1h2.4V307
		z"/>
	<path class="st2" d="M66.6,309.7h-1.2v-4.8h1.2V309.7z"/>
	<path class="st2" d="M68.9,308.8l-0.3,0.8h-1.3l1.8-4.8h1.3l1.7,4.8h-1.3l-0.3-0.8H68.9z M69.7,306.4L69.7,306.4l-0.5,1.5h1
		L69.7,306.4z"/>
	<path class="st2" d="M72.9,304.9H74l2.2,2.9l0,0v-2.9h1.2v4.8h-1.2l-2.2-2.9l0,0v2.9h-1.2L72.9,304.9L72.9,304.9z"/>
	<path class="st2" d="M83.5,306.1c-0.2-0.2-0.5-0.3-0.8-0.3c-0.1,0-0.2,0-0.4,0.1c-0.1,0.1-0.2,0.2-0.2,0.3c0,0.1,0.1,0.2,0.2,0.3
		c0.1,0.1,0.2,0.1,0.4,0.2l0.3,0.1c0.3,0.1,0.6,0.2,0.8,0.4c0.2,0.2,0.3,0.5,0.3,0.9c0,0.2,0,0.5-0.1,0.7s-0.2,0.4-0.4,0.6
		c-0.4,0.3-0.8,0.5-1.3,0.5c-0.6,0-1.2-0.2-1.6-0.5l0.5-1c0.2,0.1,0.3,0.3,0.5,0.3c0.2,0.1,0.4,0.2,0.6,0.2s0.3,0,0.4-0.1
		s0.2-0.2,0.2-0.4c0-0.1,0-0.2-0.1-0.2c-0.1-0.1-0.1-0.1-0.2-0.2c-0.2-0.1-0.4-0.1-0.5-0.2c-0.2-0.1-0.4-0.1-0.5-0.2
		c-0.2-0.1-0.3-0.1-0.4-0.2s-0.2-0.2-0.3-0.4c-0.1-0.2-0.1-0.3-0.1-0.6c0-0.5,0.2-0.9,0.5-1.2c0.3-0.3,0.7-0.4,1.2-0.4
		s1,0.1,1.5,0.4L83.5,306.1z"/>
	<path class="st2" d="M86.9,309.7h-1.2V306h-1v-1.1h3.2v1.1h-1V309.7z"/>
	<path class="st2" d="M92.5,309.7H91l-1.2-1.8l0,0v1.8h-1.2v-4.8h1.8c0.5,0,0.9,0.1,1.2,0.4c0.3,0.2,0.5,0.6,0.5,1.1
		c0,0.3-0.1,0.6-0.3,0.9c-0.2,0.2-0.4,0.4-0.8,0.5L92.5,309.7z M89.8,307L89.8,307c0.2,0,0.3,0,0.4,0c0.1,0,0.2,0,0.3-0.1
		c0.1,0,0.2-0.1,0.2-0.2c0.1-0.1,0.1-0.2,0.1-0.3c0-0.1,0-0.2-0.1-0.3c-0.1-0.1-0.1-0.1-0.2-0.2c-0.1,0-0.2-0.1-0.3-0.1
		c-0.1,0-0.1,0-0.2,0s-0.1,0-0.2,0h-0.1L89.8,307L89.8,307z"/>
	<path class="st2" d="M95.5,304.7c0.7,0,1.3,0.2,1.8,0.7s0.8,1,0.8,1.8s-0.2,1.4-0.7,1.9s-1.1,0.7-1.8,0.7c-0.8,0-1.4-0.3-1.8-0.7
		c-0.5-0.5-0.7-1.1-0.7-1.9c0-0.7,0.3-1.3,0.8-1.8C94.3,305,94.8,304.7,95.5,304.7z M95.5,305.9c-0.4,0-0.7,0.1-0.9,0.4
		c-0.3,0.2-0.4,0.5-0.4,0.9s0.1,0.8,0.4,1c0.2,0.3,0.6,0.4,0.9,0.4c0.4,0,0.7-0.1,0.9-0.4c0.2-0.3,0.4-0.6,0.4-1
		c0-0.3-0.1-0.6-0.4-0.9C96.2,306.1,95.9,305.9,95.5,305.9z"/>
	<path class="st2" d="M99,304.9h1.2l2.2,2.9l0,0v-2.9h1.2v4.8h-1.2l-2.2-2.9l0,0v2.9H99V304.9z"/>
	<path class="st2" d="M109.4,307c0,0.3,0,0.7-0.1,1s-0.2,0.6-0.4,0.9c-0.5,0.6-1.1,0.9-1.9,0.9c-0.7,0-1.3-0.2-1.8-0.7
		s-0.7-1.1-0.7-1.8c0-0.8,0.2-1.4,0.7-1.9s1.1-0.7,1.8-0.7c1,0,1.7,0.4,2.1,1.3l-1.1,0.5c-0.2-0.5-0.5-0.8-1-0.8
		c-0.4,0-0.7,0.2-0.9,0.5c-0.2,0.3-0.3,0.7-0.3,1c0,0.4,0.1,0.7,0.3,1c0.2,0.3,0.5,0.5,0.9,0.5c0.3,0,0.5-0.1,0.7-0.2
		s0.3-0.3,0.3-0.6h-1v-1h2.4V307z"/>
	<path class="st2" d="M117.3,307c0,0.3,0,0.7-0.1,1s-0.2,0.6-0.4,0.9c-0.5,0.6-1.1,0.9-1.9,0.9c-0.7,0-1.3-0.2-1.8-0.7
		s-0.7-1.1-0.7-1.8c0-0.8,0.2-1.4,0.7-1.9s1.1-0.7,1.8-0.7c1,0,1.7,0.4,2.1,1.3l-1.1,0.5c-0.2-0.5-0.5-0.8-1-0.8
		c-0.4,0-0.7,0.2-0.9,0.5c-0.2,0.3-0.3,0.7-0.3,1c0,0.4,0.1,0.7,0.3,1c0.2,0.3,0.5,0.5,0.9,0.5c0.3,0,0.5-0.1,0.7-0.2
		s0.3-0.3,0.3-0.6h-1v-1h2.4V307z"/>
	<path class="st2" d="M120.6,304.7c0.7,0,1.3,0.2,1.8,0.7s0.8,1,0.8,1.8s-0.2,1.4-0.7,1.9s-1.1,0.7-1.8,0.7c-0.8,0-1.4-0.3-1.8-0.7
		c-0.5-0.5-0.7-1.1-0.7-1.9c0-0.7,0.3-1.3,0.8-1.8C119.3,305,119.9,304.7,120.6,304.7z M120.6,305.9c-0.4,0-0.7,0.1-0.9,0.4
		c-0.3,0.2-0.4,0.5-0.4,0.9s0.1,0.8,0.4,1c0.2,0.3,0.6,0.4,0.9,0.4c0.4,0,0.7-0.1,0.9-0.4c0.2-0.3,0.4-0.6,0.4-1
		c0-0.3-0.1-0.6-0.4-0.9C121.2,306.1,120.9,305.9,120.6,305.9z"/>
	<path class="st2" d="M125.2,308.6h1.4v1.1H124v-4.8h1.2V308.6z"/>
	<path class="st2" d="M127.4,304.9h1.7c0.7,0,1.2,0.2,1.7,0.7c0.4,0.5,0.7,1,0.7,1.7s-0.2,1.3-0.7,1.7c-0.4,0.5-1,0.7-1.7,0.7h-1.7
		C127.4,309.7,127.4,304.9,127.4,304.9z M128.6,308.6h0.3c0.4,0,0.7-0.1,0.9-0.3c0.3-0.2,0.4-0.6,0.4-1s-0.1-0.8-0.4-1
		c-0.2-0.2-0.6-0.3-0.9-0.3h-0.3V308.6z"/>
	<path class="st2" d="M133.6,305.9v0.8h1.3v1.1h-1.3v0.8h1.4v1.1h-2.6v-4.8h2.6v1.1h-1.4V305.9z"/>
	<path class="st2" d="M136,304.9h1.2l2.2,2.9l0,0v-2.9h1.2v4.8h-1.2l-2.2-2.9l0,0v2.9H136V304.9z"/>
	<path class="st2" d="M145.4,308.8l-0.3,0.8h-1.3l1.8-4.8h1.3l1.7,4.8h-1.3l-0.3-0.8H145.4z M146.2,306.4L146.2,306.4l-0.5,1.5h1
		L146.2,306.4z"/>
	<path class="st2" d="M150.5,308.6h1.4v1.1h-2.6v-4.8h1.2L150.5,308.6L150.5,308.6z"/>
	<path class="st2" d="M153.9,305.9v0.8h1.3v1.1h-1.3v0.8h1.4v1.1h-2.6v-4.8h2.6v1.1h-1.4V305.9z"/>
	<path class="st2" d="M160.4,307.2v1h-1.7v-1H160.4z"/>
	<path class="st2" d="M165,308.8l-0.3,0.8h-1.3l1.8-4.8h1.3l1.7,4.8H167l-0.3-0.8H165z M165.8,306.4L165.8,306.4l-0.5,1.5h1
		L165.8,306.4z"/>
	<path class="st2" d="M173.6,307c0,0.3,0,0.7-0.1,1s-0.2,0.6-0.4,0.9c-0.5,0.6-1.1,0.9-1.9,0.9c-0.7,0-1.3-0.2-1.8-0.7
		s-0.7-1.1-0.7-1.8c0-0.8,0.2-1.4,0.7-1.9s1.1-0.7,1.8-0.7c1,0,1.7,0.4,2.1,1.3l-1.1,0.5c-0.2-0.5-0.5-0.8-1-0.8
		c-0.4,0-0.7,0.2-0.9,0.5s-0.3,0.7-0.3,1c0,0.4,0.1,0.7,0.3,1s0.5,0.5,0.9,0.5c0.3,0,0.5-0.1,0.7-0.2s0.3-0.3,0.3-0.6h-1v-1h2.4V307
		z"/>
	<path class="st2" d="M175.7,305.9v0.8h1.3v1.1h-1.3v0.8h1.4v1.1h-2.6v-4.8h2.6v1.1h-1.4V305.9z"/>
	<path class="st2" d="M178.2,304.9h1.7c0.7,0,1.2,0.2,1.7,0.7c0.4,0.5,0.7,1,0.7,1.7s-0.2,1.3-0.7,1.7c-0.4,0.5-1,0.7-1.7,0.7h-1.7
		V304.9z M179.4,308.6h0.3c0.4,0,0.7-0.1,0.9-0.3c0.3-0.2,0.4-0.6,0.4-1s-0.1-0.8-0.4-1c-0.2-0.2-0.6-0.3-0.9-0.3h-0.3V308.6z"/>
	<path class="st2" d="M187.9,304.7c0.7,0,1.3,0.2,1.8,0.7s0.8,1,0.8,1.8s-0.2,1.4-0.7,1.9s-1.1,0.7-1.8,0.7c-0.8,0-1.4-0.3-1.8-0.7
		c-0.5-0.5-0.7-1.1-0.7-1.9c0-0.7,0.3-1.3,0.8-1.8C186.6,305,187.2,304.7,187.9,304.7z M187.9,305.9c-0.4,0-0.7,0.1-0.9,0.4
		c-0.3,0.2-0.4,0.5-0.4,0.9s0.1,0.8,0.4,1c0.2,0.3,0.6,0.4,0.9,0.4c0.4,0,0.7-0.1,0.9-0.4s0.4-0.6,0.4-1c0-0.3-0.1-0.6-0.4-0.9
		C188.5,306.1,188.2,305.9,187.9,305.9z"/>
	<path class="st2" d="M191.4,304.9h1.2l2.2,2.9l0,0v-2.9h1.2v4.8h-1.2l-2.2-2.9l0,0v2.9h-1.2V304.9z"/>
	<path class="st2" d="M203.3,309.7h-1.5l-1.2-1.8l0,0v1.8h-1.2v-4.8h1.8c0.5,0,0.9,0.1,1.2,0.4c0.3,0.2,0.5,0.6,0.5,1.1
		c0,0.3-0.1,0.6-0.3,0.9c-0.2,0.2-0.4,0.4-0.8,0.5L203.3,309.7z M200.6,307h0.1c0.1,0,0.2,0,0.3,0s0.2,0,0.3-0.1
		c0.1,0,0.2-0.1,0.2-0.2c0.1-0.1,0.1-0.2,0.1-0.3c0-0.1,0-0.2-0.1-0.3c-0.1-0.1-0.1-0.1-0.2-0.2c-0.1,0-0.2-0.1-0.3-0.1
		s-0.1,0-0.2,0c-0.1,0-0.1,0-0.2,0h-0.1L200.6,307L200.6,307z"/>
	<path class="st2" d="M205.2,308.8l-0.3,0.8h-1.3l1.8-4.8h1.3l1.7,4.8h-1.3l-0.3-0.8H205.2z M206,306.4L206,306.4l-0.5,1.5h1
		L206,306.4z"/>
	<path class="st2" d="M211.7,306.1c-0.2-0.2-0.5-0.3-0.8-0.3c-0.1,0-0.2,0-0.4,0.1c-0.1,0.1-0.2,0.2-0.2,0.3c0,0.1,0.1,0.2,0.2,0.3
		c0.1,0.1,0.2,0.1,0.4,0.2l0.3,0.1c0.3,0.1,0.6,0.2,0.8,0.4c0.2,0.2,0.3,0.5,0.3,0.9c0,0.2,0,0.5-0.1,0.7s-0.2,0.4-0.4,0.6
		c-0.4,0.3-0.8,0.5-1.3,0.5c-0.6,0-1.2-0.2-1.6-0.5l0.5-1c0.2,0.1,0.3,0.3,0.5,0.3c0.2,0.1,0.4,0.2,0.6,0.2c0.2,0,0.3,0,0.4-0.1
		c0.1-0.1,0.2-0.2,0.2-0.4c0-0.1,0-0.2-0.1-0.2c-0.1-0.1-0.1-0.1-0.2-0.2c-0.2-0.1-0.4-0.1-0.5-0.2c-0.2-0.1-0.4-0.1-0.5-0.2
		c-0.2-0.1-0.3-0.1-0.4-0.2c-0.1-0.1-0.2-0.2-0.3-0.4c-0.1-0.2-0.1-0.3-0.1-0.6c0-0.5,0.2-0.9,0.5-1.2c0.3-0.3,0.7-0.4,1.2-0.4
		s1,0.1,1.5,0.4L211.7,306.1z"/>
	<path class="st2" d="M213.2,304.9h1.9c0.5,0,0.9,0.1,1.2,0.4s0.5,0.7,0.5,1.2c0,1.1-0.6,1.6-1.7,1.6h-0.7v1.6h-1.2V304.9z
		 M214.4,307.1h0.2c0.1,0,0.2,0,0.3,0s0.2,0,0.3-0.1c0.1,0,0.2-0.1,0.2-0.2s0.1-0.2,0.1-0.3c0-0.2,0-0.3-0.1-0.4
		c0-0.1-0.1-0.1-0.2-0.2c-0.1,0-0.2-0.1-0.3-0.1s-0.2,0-0.4,0h-0.2L214.4,307.1L214.4,307.1z"/>
	<path class="st2" d="M217.6,309.7v-4.8h1.7c0.4,0,0.8,0.1,1,0.3c0.3,0.2,0.4,0.5,0.4,1c0,0.4-0.2,0.8-0.5,1l0,0
		c0.7,0.1,1,0.5,1,1.2c0,0.5-0.2,0.8-0.5,1s-0.7,0.3-1.2,0.3H217.6z M218.8,306.8h0.1c0.2,0,0.3,0,0.5-0.1c0.1-0.1,0.2-0.2,0.2-0.4
		c0-0.2-0.1-0.4-0.2-0.4c-0.2,0-0.3-0.1-0.5-0.1h-0.1V306.8z M218.8,308.7h0.2c0.1,0,0.2,0,0.3,0s0.2,0,0.3-0.1
		c0.1,0,0.2-0.1,0.3-0.2s0.1-0.2,0.1-0.3c0-0.1,0-0.3-0.1-0.3c-0.1-0.1-0.2-0.1-0.3-0.1s-0.2,0-0.3,0s-0.2,0-0.3,0h-0.1L218.8,308.7
		L218.8,308.7z"/>
	<path class="st2" d="M223.3,305.9v0.8h1.3v1.1h-1.3v0.8h1.4v1.1h-2.6v-4.8h2.6v1.1h-1.4V305.9z"/>
	<path class="st2" d="M229.7,309.7h-1.5l-1.2-1.8l0,0v1.8h-1.2v-4.8h1.8c0.5,0,0.9,0.1,1.2,0.4c0.3,0.2,0.5,0.6,0.5,1.1
		c0,0.3-0.1,0.6-0.3,0.9c-0.2,0.2-0.4,0.4-0.8,0.5L229.7,309.7z M227,307h0.1c0.1,0,0.2,0,0.3,0s0.2,0,0.3-0.1
		c0.1,0,0.2-0.1,0.2-0.2c0.1-0.1,0.1-0.2,0.1-0.3c0-0.1,0-0.2-0.1-0.3c-0.1-0.1-0.1-0.1-0.2-0.2c-0.1,0-0.2-0.1-0.3-0.1
		s-0.1,0-0.2,0c-0.1,0-0.1,0-0.2,0h0V307z"/>
	<path class="st2" d="M234.2,309.7h-1.5l-1.2-1.8l0,0v1.8h-1.2v-4.8h1.8c0.5,0,0.9,0.1,1.2,0.4c0.3,0.2,0.5,0.6,0.5,1.1
		c0,0.3-0.1,0.6-0.3,0.9c-0.2,0.2-0.4,0.4-0.8,0.5L234.2,309.7z M231.5,307h0.1c0.1,0,0.2,0,0.3,0s0.2,0,0.3-0.1
		c0.1,0,0.2-0.1,0.2-0.2c0.1-0.1,0.1-0.2,0.1-0.3c0-0.1,0-0.2-0.1-0.3c-0.1-0.1-0.1-0.1-0.2-0.2c-0.1,0-0.2-0.1-0.3-0.1
		s-0.1,0-0.2,0c-0.1,0-0.1,0-0.2,0h-0.1L231.5,307L231.5,307z"/>
	<path class="st2" d="M236.1,309.7h-1.2v-4.8h1.2V309.7z"/>
	<path class="st2" d="M238.3,305.9v0.8h1.3v1.1h-1.3v0.8h1.4v1.1h-2.6v-4.8h2.6v1.1h-1.4V305.9z"/>
	<path class="st2" d="M243.3,306.1c-0.2-0.2-0.5-0.3-0.8-0.3c-0.1,0-0.2,0-0.4,0.1c-0.1,0.1-0.2,0.2-0.2,0.3c0,0.1,0.1,0.2,0.2,0.3
		c0.1,0.1,0.2,0.1,0.4,0.2l0.3,0.1c0.3,0.1,0.6,0.2,0.8,0.4c0.2,0.2,0.3,0.5,0.3,0.9c0,0.2,0,0.5-0.1,0.7s-0.2,0.4-0.4,0.6
		c-0.4,0.3-0.8,0.5-1.3,0.5c-0.6,0-1.2-0.2-1.6-0.5l0.5-1c0.2,0.1,0.3,0.3,0.5,0.3c0.2,0.1,0.4,0.2,0.6,0.2c0.2,0,0.3,0,0.4-0.1
		c0.1-0.1,0.2-0.2,0.2-0.4c0-0.1,0-0.2-0.1-0.2c-0.1-0.1-0.1-0.1-0.2-0.2c-0.2-0.1-0.4-0.1-0.5-0.2c-0.2-0.1-0.4-0.1-0.5-0.2
		c-0.2-0.1-0.3-0.1-0.4-0.2c-0.1-0.1-0.2-0.2-0.3-0.4c-0.1-0.2-0.1-0.3-0.1-0.6c0-0.5,0.2-0.9,0.5-1.2c0.3-0.3,0.7-0.4,1.2-0.4
		s1,0.1,1.5,0.4L243.3,306.1z"/>
</g>
<line class="st5" x1="28.6" y1="229.6" x2="263.6" y2="229.6"/>
</svg>
