<?xml version="1.0" encoding="utf-8"?>
<!-- Generator: Adobe Illustrator 20.1.0, SVG Export Plug-In . SVG Version: 6.00 Build 0)  -->
<svg version="1.1" id="Layer_1" xmlns="http://www.w3.org/2000/svg" xmlns:xlink="http://www.w3.org/1999/xlink" x="0px" y="0px"
	 viewBox="0 0 417 348" style="enable-background:new 0 0 417 348;" xml:space="preserve">
<style type="text/css">
	.st0{fill:#681E44;}
	.st1{fill:none;stroke:#EC268B;stroke-width:1.5491;stroke-miterlimit:10;}
	.st2{fill:#EC258B;}
	.st3{fill:none;}
	.st4{fill:#FFFFFF;}
	.st5{fill:none;stroke:#EC268B;stroke-width:1.9771;stroke-miterlimit:10;}
</style>
<rect x="-0.2" y="0.3" class="st0" width="417.3" height="348.1"/>
<circle class="st1" cx="208.8" cy="97.4" r="86.8"/>
<g>
	<polygon class="st2" points="186.7,135.6 186.7,28.6 232.4,72.1 232.1,64.9 188.4,23.9 182,23.9 182,135.6 	"/>
	<polygon class="st2" points="231,23.9 231,149.5 235.7,148.7 235.7,23.9 	"/>
	<polyline class="st3" points="235.7,132 181.8,136.1 182.4,23.6 235.7,23.6 235.7,132 	"/>
	<path class="st2" d="M222.5,91.6v-11c0-4.2-1.4-8.2-3.9-11.2c-1.3-1.4-2.7-2.7-4.4-3.5s-3.6-1.3-5.5-1.3s-3.8,0.5-5.5,1.3
		c-2.5,1.3-4.7,3.3-6.3,5.8c-1.6,2.5-2.5,5.5-2.5,8.8v0.2l0,0c0,1.3,0,3.1,0.3,5c0.2,0.9,0.3,2,0.6,3c0.3,0.9,0.6,2,1.3,2.8
		c1.6,2.7,3.9,5.8,6.6,9.4c4.1,5.3,9.3,11.5,13.8,17.4c2.4,3,4.6,5.8,6.4,8.5c1.9,2.7,3.5,5.2,4.7,7.2c2.2,4.1,3.1,8.8,3.1,12.9
		c0,1.9-0.2,3.8-0.5,5.3c-0.3,1.6-0.8,3-1.3,3.9c-2,4.1-4.9,7.1-8.6,9c-3.6,1.9-8,2.8-12.7,3H208c-6,0-11.5-1.9-15.2-4.7
		c-1.9-1.4-3.5-3-4.4-4.9c-0.9-1.7-1.6-3.6-1.6-5.7l0,0v-20h-4.6v20c0,2.8,0.8,5.5,2.2,8c2,3.6,5.3,6.6,9.4,8.6
		c4.1,2,9,3.3,14.1,3.3h0.2c5.2,0,10.4-1.1,14.9-3.5c4.6-2.4,8.3-6.1,10.7-11.2c0.6-1.4,1.3-3.1,1.6-5s0.6-3.9,0.6-6.1
		c0-4.7-0.9-10.1-3.6-15.1c-1.7-3.1-4.1-6.8-7.1-10.5c-4.2-5.8-9.4-12.1-14-17.8c-2.4-2.8-4.4-5.7-6.3-8c-1.9-2.5-3.3-4.7-4.4-6.3
		c-0.3-0.5-0.5-1.1-0.8-1.7c-0.3-1.1-0.5-2.4-0.6-3.6c-0.2-1.3-0.2-2.4-0.2-3.3v-0.2c0-3.1,1.3-6,3-7.9c0.9-0.9,2-1.7,3.1-2.4
		c1.1-0.5,2.4-0.8,3.6-0.8c1.3,0,2.4,0.3,3.5,0.8c1.6,0.8,3,2.2,4.1,3.9c1.1,1.7,1.7,4.1,1.7,6.4v11h4.4"/>
	<path class="st4" d="M233.5,30.6"/>
</g>
<path class="st2" d="M154.8,215.5L144.4,204v11.1h-0.7v-13l10.4,11.5v-11.2h0.7V215.5z"/>
<path class="st2" d="M159.3,215h-0.7v-12.9h0.7V215z"/>
<path class="st2" d="M172.5,204.8c-0.5-0.6-1.1-1.1-1.9-1.4c-0.7-0.4-1.6-0.5-2.3-0.6c-1.6,0-2.9,0.6-3.9,1.8s-1.7,2.5-1.7,4.2
	c0,1.6,0.6,2.9,1.7,3.9c1.1,1.2,2.4,1.8,3.9,1.8c0.7,0,1.6-0.2,2.3-0.6s1.4-0.8,1.9-1.4v1.1c-1.2,1.1-2.5,1.6-4.1,1.6
	c-1.8,0-3.2-0.7-4.5-1.9c-1.3-1.2-1.9-2.8-1.9-4.7c0-1.9,0.7-3.5,1.9-4.7c1.2-1.3,2.8-1.9,4.5-1.9c1.6,0,2.9,0.6,4.1,1.7V204.8z"/>
<path class="st2" d="M181.5,202c1.8,0,3.3,0.7,4.5,1.9c1.2,1.3,1.9,2.9,1.9,4.7c0,1.9-0.6,3.5-1.9,4.7c-1.2,1.3-2.8,1.9-4.5,1.9
	s-3.2-0.7-4.5-1.9c-1.2-1.2-1.9-2.8-1.9-4.7c0-1.9,0.6-3.5,1.9-4.7C178.1,202.7,179.7,202,181.5,202z M181.5,202.7
	c-1.6,0-2.9,0.6-3.9,1.7c-1.1,1.1-1.7,2.5-1.7,4.2s0.6,3,1.7,4.1c1.1,1.2,2.4,1.7,3.9,1.8c1.6,0,2.9-0.6,3.9-1.8
	c1.1-1.1,1.7-2.5,1.7-4.1c0-1.7-0.6-3-1.7-4.2C184.3,203.3,183,202.7,181.5,202.7z"/>
<path class="st2" d="M191.6,214.3h3.1v0.7h-3.9v-12.9h0.7v12.2H191.6z"/>
<path class="st2" d="M197.7,203v4.7h5v0.7h-5v5.9h5.1v0.7H197V202h5.9v0.7h-5.1V203z"/>
<path class="st3" d="M209.4,206.3h0.7v3.9h3.8v0.8h-3.8v3.9h-0.7v-3.9h-3.8v-0.8h3.8V206.3z"/>
<path class="st2" d="M223.2,204.3c-0.6-1-1.4-1.6-2.5-1.6c-0.7,0-1.2,0.2-1.7,0.7c-0.5,0.5-0.7,1.1-0.7,1.8c0,0.4,0.1,0.6,0.2,0.8
	c0.1,0.2,0.4,0.5,0.5,0.6c0.2,0.1,0.5,0.4,0.7,0.5c0.2,0.1,0.5,0.2,0.7,0.5l2.4,1.3c1,0.6,1.4,1.4,1.4,2.5s-0.4,2-1.2,2.6
	c-0.7,0.7-1.7,1.1-2.6,1.1c-1.8,0-3-1-3.6-2.8l0.7-0.4c0.2,0.7,0.6,1.3,1.2,1.7c0.5,0.5,1.1,0.6,1.8,0.6c0.8,0,1.6-0.4,2.2-0.8
	c0.6-0.6,0.8-1.3,1-2.2c0-0.4-0.1-0.7-0.2-1c-0.1-0.2-0.4-0.5-0.6-0.7c-0.2-0.2-0.5-0.4-0.8-0.5c-0.2-0.1-0.6-0.2-0.8-0.5l-2.3-1.2
	c-0.8-0.5-1.3-1.3-1.3-2.3c0-1,0.4-1.8,1-2.4s1.3-1,2.3-1c1.3,0,2.4,0.6,3,1.8L223.2,204.3z"/>
<path class="st2" d="M233.1,215h-0.7V203h-3.2v-0.7h7.2v0.7h-3.2V215z"/>
<path class="st2" d="M242.7,203v4.7h5v0.7h-5v5.9h5.1v0.7H242V202h5.9v0.7h-5.1V203z"/>
<path class="st2" d="M257.5,213.2L257.5,213.2l3.7-11h0.8l-4.5,13.3l-4.4-13.3h0.8L257.5,213.2z"/>
<path class="st2" d="M268.3,203v4.7h5v0.7h-5v5.9h5.1v0.7h-5.9V202h5.9v0.7h-5.1V203z"/>
<g>
	<path class="st2" d="M209.9,203.6h0.7v3.9h3.8v0.8h-3.8v3.9h-0.7v-3.9h-3.8v-0.8h3.8V203.6z"/>
</g>
<g>
	<path class="st2" d="M133.4,316.7h-16.5l-12.4-19.8h-0.1v19.8H91.4v-51.8H111c5.1,0,9.3,1.3,12.7,3.8c3.2,2.5,4.9,6.6,5,12.1
		c0,3.6-1,6.8-2.8,9.4c-1.8,2.6-4.5,4.3-8.1,5.1L133.4,316.7z M104.2,288.1h1.4c1.2,0,2.4-0.1,3.5-0.2s2.2-0.5,3-1
		c1-0.5,1.7-1.1,2.3-2c0.6-0.8,0.8-1.9,0.8-3.3c0-1.4-0.2-2.6-0.8-3.5s-1.3-1.6-2.3-1.9c-1-0.5-1.9-0.8-3-1
		c-0.6-0.1-1.2-0.1-1.7-0.1c-0.6,0-1.2,0-1.8,0h-1.3v13H104.2z"/>
	<path class="st2" d="M159.5,276.4v8.6H174v11.4h-14.6v9h15.3v11.4h-28.2v-51.8h28.2v11.4h-15.3V276.4z"/>
	<path class="st2" d="M212.8,296.5l12.1-31.4h14l-21.2,51.7h-10l-20.8-51.8h14L212.8,296.5z"/>
	<path class="st2" d="M264.7,276.4v8.6h14.6v11.4h-14.6v9H280v11.4h-28.2v-51.8H280v11.4h-15.3V276.4z"/>
	<path class="st2" d="M310.1,305.3h15.5v11.4h-28.3v-51.8h12.8V305.3z"/>
</g>
<g>
	<path class="st2" d="M91.7,335.4v-5.7h2c0.5,0,1,0.1,1.2,0.4c0.4,0.2,0.5,0.6,0.5,1.2c0,0.5-0.2,1-0.6,1.2l0,0
		c0.8,0.1,1.2,0.6,1.2,1.4c0,0.6-0.2,1-0.6,1.2c-0.4,0.2-0.8,0.4-1.4,0.4H91.7z M93.1,332h0.1c0.2,0,0.4,0,0.6-0.1
		c0.1-0.1,0.2-0.2,0.2-0.5s-0.1-0.5-0.2-0.5c-0.2,0-0.4-0.1-0.6-0.1h-0.1V332z M93.1,334.3h0.2c0.1,0,0.2,0,0.4,0
		c0.1,0,0.2,0,0.4-0.1c0.1,0,0.2-0.1,0.4-0.2c0.1-0.1,0.1-0.2,0.1-0.4c0-0.1,0-0.4-0.1-0.4c-0.1-0.1-0.2-0.1-0.4-0.1
		c-0.1,0-0.2,0-0.4,0c-0.1,0-0.2,0-0.4,0h-0.1v1.2H93.1z"/>
	<path class="st2" d="M98.6,330.9v1h1.6v1.3h-1.6v1h1.7v1.3h-3.1v-5.7h3.1v1.3h-1.7V330.9z"/>
	<path class="st2" d="M103,334.1h1.7v1.3h-3.1v-5.7h1.4C103,329.7,103,334.1,103,334.1z"/>
	<path class="st2" d="M111,332.2c0,0.4,0,0.8-0.1,1.2c-0.1,0.4-0.2,0.7-0.5,1.1c-0.6,0.7-1.3,1.1-2.3,1.1c-0.8,0-1.6-0.2-2.2-0.8
		s-0.8-1.3-0.8-2.2c0-1,0.2-1.7,0.8-2.3s1.3-0.8,2.2-0.8c1.2,0,2,0.5,2.5,1.6l-1.3,0.6c-0.2-0.6-0.6-1-1.2-1c-0.5,0-0.8,0.2-1.1,0.6
		c-0.2,0.4-0.4,0.8-0.4,1.2c0,0.5,0.1,0.8,0.4,1.2c0.2,0.4,0.6,0.6,1.1,0.6c0.4,0,0.6-0.1,0.8-0.2c0.2-0.1,0.4-0.4,0.4-0.7h-1.2
		v-1.2h2.9V332.2z"/>
	<path class="st2" d="M113.5,335.4h-1.4v-5.7h1.4V335.4z"/>
	<path class="st2" d="M116.3,334.4l-0.4,1h-1.6l2.2-5.7h1.6l2,5.7h-1.6l-0.4-1H116.3z M117.2,331.5L117.2,331.5l-0.6,1.8h1.2
		L117.2,331.5z"/>
	<path class="st2" d="M121.1,329.7h1.3l2.6,3.5l0,0v-3.5h1.4v5.7H125l-2.6-3.5l0,0v3.5H121v-5.7H121.1z"/>
	<path class="st2" d="M133.7,331.1c-0.2-0.2-0.6-0.4-1-0.4c-0.1,0-0.2,0-0.5,0.1c-0.1,0.1-0.2,0.2-0.2,0.4c0,0.1,0.1,0.2,0.2,0.4
		c0.1,0.1,0.2,0.1,0.5,0.2l0.4,0.1c0.4,0.1,0.7,0.2,1,0.5c0.2,0.2,0.4,0.6,0.4,1.1c0,0.2,0,0.6-0.1,0.8c-0.1,0.2-0.2,0.5-0.5,0.7
		c-0.5,0.4-1,0.6-1.6,0.6c-0.7,0-1.4-0.2-1.9-0.6l0.6-1.2c0.2,0.1,0.4,0.4,0.6,0.4c0.2,0.1,0.5,0.2,0.7,0.2s0.4,0,0.5-0.1
		c0.1-0.1,0.2-0.2,0.2-0.5c0-0.1,0-0.2-0.1-0.2c-0.1-0.1-0.1-0.1-0.2-0.2c-0.2-0.1-0.5-0.1-0.6-0.2c-0.2-0.1-0.5-0.1-0.6-0.2
		c-0.2-0.1-0.4-0.1-0.5-0.2s-0.2-0.2-0.4-0.5c-0.1-0.2-0.1-0.4-0.1-0.7c0-0.6,0.2-1.1,0.6-1.4c0.4-0.4,0.8-0.5,1.4-0.5
		s1.2,0.1,1.8,0.5L133.7,331.1z"/>
	<path class="st2" d="M137.8,335.4h-1.4V331h-1.2v-1.3h3.8v1.3h-1.2V335.4z"/>
	<path class="st2" d="M144.5,335.4h-1.8l-1.4-2.2l0,0v2.2h-1.4v-5.7h2.2c0.6,0,1.1,0.1,1.4,0.5c0.4,0.2,0.6,0.7,0.6,1.3
		c0,0.4-0.1,0.7-0.4,1.1c-0.2,0.2-0.5,0.5-1,0.6L144.5,335.4z M141.3,332.2h0.1c0.1,0,0.2,0,0.4,0s0.2,0,0.4-0.1
		c0.1,0,0.2-0.1,0.2-0.2c0.1-0.1,0.1-0.2,0.1-0.4c0-0.1,0-0.2-0.1-0.4c-0.1-0.1-0.1-0.1-0.2-0.2c-0.1,0-0.2-0.1-0.4-0.1
		c-0.1,0-0.1,0-0.2,0c-0.1,0-0.1,0-0.2,0h-0.1v1.4H141.3z"/>
	<path class="st2" d="M148.1,329.5c0.8,0,1.6,0.2,2.2,0.8s1,1.2,1,2.2c0,1-0.2,1.7-0.8,2.3s-1.3,0.8-2.2,0.8c-1,0-1.7-0.4-2.2-0.8
		c-0.6-0.6-0.8-1.3-0.8-2.3c0-0.8,0.4-1.6,1-2.2C146.7,329.8,147.3,329.5,148.1,329.5z M148.1,330.9c-0.5,0-0.8,0.1-1.1,0.5
		c-0.4,0.2-0.5,0.6-0.5,1.1s0.1,1,0.5,1.2c0.2,0.4,0.7,0.5,1.1,0.5c0.5,0,0.8-0.1,1.1-0.5c0.2-0.4,0.5-0.7,0.5-1.2
		c0-0.4-0.1-0.7-0.5-1.1C148.9,331.1,148.6,330.9,148.1,330.9z"/>
	<path class="st2" d="M152.3,329.7h1.4l2.6,3.5l0,0v-3.5h1.4v5.7h-1.4l-2.6-3.5l0,0v3.5h-1.4V329.7z"/>
	<path class="st2" d="M164.7,332.2c0,0.4,0,0.8-0.1,1.2c-0.1,0.4-0.2,0.7-0.5,1.1c-0.6,0.7-1.3,1.1-2.3,1.1c-0.8,0-1.6-0.2-2.2-0.8
		s-0.8-1.3-0.8-2.2c0-1,0.2-1.7,0.8-2.3s1.3-0.8,2.2-0.8c1.2,0,2,0.5,2.5,1.6l-1.3,0.6c-0.2-0.6-0.6-1-1.2-1c-0.5,0-0.8,0.2-1.1,0.6
		c-0.2,0.4-0.4,0.8-0.4,1.2c0,0.5,0.1,0.8,0.4,1.2c0.2,0.4,0.6,0.6,1.1,0.6c0.4,0,0.6-0.1,0.8-0.2c0.2-0.1,0.4-0.4,0.4-0.7h-1.2
		v-1.2h2.9V332.2z"/>
	<path class="st2" d="M174.2,332.2c0,0.4,0,0.8-0.1,1.2c-0.1,0.4-0.2,0.7-0.5,1.1c-0.6,0.7-1.3,1.1-2.3,1.1c-0.8,0-1.6-0.2-2.2-0.8
		s-0.8-1.3-0.8-2.2c0-1,0.2-1.7,0.8-2.3s1.3-0.8,2.2-0.8c1.2,0,2,0.5,2.5,1.6l-1.3,0.6c-0.2-0.6-0.6-1-1.2-1c-0.5,0-0.8,0.2-1.1,0.6
		c-0.2,0.4-0.4,0.8-0.4,1.2c0,0.5,0.1,0.8,0.4,1.2c0.2,0.4,0.6,0.6,1.1,0.6c0.4,0,0.6-0.1,0.8-0.2c0.2-0.1,0.4-0.4,0.4-0.7h-1.2
		v-1.2h2.9V332.2z"/>
	<path class="st2" d="M178.1,329.5c0.8,0,1.6,0.2,2.2,0.8s1,1.2,1,2.2c0,1-0.2,1.7-0.8,2.3s-1.3,0.8-2.2,0.8c-1,0-1.7-0.4-2.2-0.8
		c-0.6-0.6-0.8-1.3-0.8-2.3c0-0.8,0.4-1.6,1-2.2C176.6,329.8,177.3,329.5,178.1,329.5z M178.1,330.9c-0.5,0-0.8,0.1-1.1,0.5
		c-0.4,0.2-0.5,0.6-0.5,1.1s0.1,1,0.5,1.2c0.2,0.4,0.7,0.5,1.1,0.5c0.5,0,0.8-0.1,1.1-0.5c0.2-0.4,0.5-0.7,0.5-1.2
		c0-0.4-0.1-0.7-0.5-1.1C178.8,331.1,178.5,330.9,178.1,330.9z"/>
	<path class="st2" d="M183.6,334.1h1.7v1.3h-3.1v-5.7h1.4V334.1z"/>
	<path class="st2" d="M186.2,329.7h2c0.8,0,1.4,0.2,2,0.8c0.5,0.6,0.8,1.2,0.8,2c0,0.8-0.2,1.6-0.8,2c-0.5,0.6-1.2,0.8-2,0.8h-2
		C186.2,335.4,186.2,329.7,186.2,329.7z M187.7,334.1h0.4c0.5,0,0.8-0.1,1.1-0.4c0.4-0.2,0.5-0.7,0.5-1.2c0-0.5-0.1-1-0.5-1.2
		c-0.2-0.2-0.7-0.4-1.1-0.4h-0.4V334.1z"/>
	<path class="st2" d="M193.6,330.9v1h1.6v1.3h-1.6v1h1.7v1.3h-3.1v-5.7h3.1v1.3h-1.7V330.9z"/>
	<path class="st2" d="M196.5,329.7h1.4l2.6,3.5l0,0v-3.5h1.4v5.7h-1.4L198,332l0,0v3.5h-1.4V329.7z"/>
	<path class="st2" d="M207.8,334.4l-0.4,1h-1.6l2.2-5.7h1.6l2,5.7H210l-0.4-1H207.8z M208.7,331.5L208.7,331.5l-0.6,1.8h1.2
		L208.7,331.5z"/>
	<path class="st2" d="M213.9,334.1h1.7v1.3h-3.1v-5.7h1.4L213.9,334.1L213.9,334.1z"/>
	<path class="st2" d="M217.9,330.9v1h1.6v1.3h-1.6v1h1.7v1.3h-3.1v-5.7h3.1v1.3h-1.7V330.9z"/>
	<path class="st2" d="M225.7,332.5v1.2h-2v-1.2H225.7z"/>
	<path class="st2" d="M231.2,334.4l-0.4,1h-1.6l2.2-5.7h1.6l2,5.7h-1.4l-0.4-1H231.2z M232.2,331.5L232.2,331.5l-0.6,1.8h1.2
		L232.2,331.5z"/>
	<path class="st2" d="M241.5,332.2c0,0.4,0,0.8-0.1,1.2c-0.1,0.4-0.2,0.7-0.5,1.1c-0.6,0.7-1.3,1.1-2.3,1.1c-0.8,0-1.6-0.2-2.2-0.8
		s-0.8-1.3-0.8-2.2c0-1,0.2-1.7,0.8-2.3s1.3-0.8,2.2-0.8c1.2,0,2,0.5,2.5,1.6l-1.3,0.6c-0.2-0.6-0.6-1-1.2-1c-0.5,0-0.8,0.2-1.1,0.6
		c-0.2,0.4-0.4,0.8-0.4,1.2c0,0.5,0.1,0.8,0.4,1.2c0.2,0.4,0.6,0.6,1.1,0.6c0.4,0,0.6-0.1,0.8-0.2c0.2-0.1,0.4-0.4,0.4-0.7h-1.2
		v-1.2h2.9V332.2z"/>
	<path class="st2" d="M244,330.9v1h1.6v1.3H244v1h1.7v1.3h-3.1v-5.7h3.1v1.3H244V330.9z"/>
	<path class="st2" d="M247,329.7h2c0.8,0,1.4,0.2,2,0.8c0.5,0.6,0.8,1.2,0.8,2c0,0.8-0.2,1.6-0.8,2c-0.5,0.6-1.2,0.8-2,0.8h-2V329.7
		z M248.4,334.1h0.4c0.5,0,0.8-0.1,1.1-0.4c0.4-0.2,0.5-0.7,0.5-1.2c0-0.5-0.1-1-0.5-1.2c-0.2-0.2-0.7-0.4-1.1-0.4h-0.4V334.1z"/>
	<path class="st2" d="M258.6,329.5c0.8,0,1.6,0.2,2.2,0.8s1,1.2,1,2.2c0,1-0.2,1.7-0.8,2.3s-1.3,0.8-2.2,0.8c-1,0-1.7-0.4-2.2-0.8
		c-0.6-0.6-0.8-1.3-0.8-2.3c0-0.8,0.4-1.6,1-2.2C257,329.8,257.7,329.5,258.6,329.5z M258.6,330.9c-0.5,0-0.8,0.1-1.1,0.5
		c-0.4,0.2-0.5,0.6-0.5,1.1s0.1,1,0.5,1.2c0.2,0.4,0.7,0.5,1.1,0.5c0.5,0,0.8-0.1,1.1-0.5c0.2-0.4,0.5-0.7,0.5-1.2
		c0-0.4-0.1-0.7-0.5-1.1C259.3,331.1,258.9,330.9,258.6,330.9z"/>
	<path class="st2" d="M262.8,329.7h1.4l2.6,3.5l0,0v-3.5h1.4v5.7h-1.4l-2.6-3.5l0,0v3.5h-1.4V329.7z"/>
	<path class="st2" d="M277,335.4h-1.8l-1.4-2.2l0,0v2.2h-1.4v-5.7h2.2c0.6,0,1.1,0.1,1.4,0.5c0.4,0.2,0.6,0.7,0.6,1.3
		c0,0.4-0.1,0.7-0.4,1.1c-0.2,0.2-0.5,0.5-1,0.6L277,335.4z M273.8,332.2h0.1c0.1,0,0.2,0,0.4,0c0.1,0,0.2,0,0.4-0.1
		c0.1,0,0.2-0.1,0.2-0.2c0.1-0.1,0.1-0.2,0.1-0.4c0-0.1,0-0.2-0.1-0.4c-0.1-0.1-0.1-0.1-0.2-0.2c-0.1,0-0.2-0.1-0.4-0.1
		c-0.1,0-0.1,0-0.2,0c-0.1,0-0.1,0-0.2,0h-0.1v1.4H273.8z"/>
	<path class="st2" d="M279.3,334.4l-0.4,1h-1.6l2.2-5.7h1.6l2,5.7h-1.6l-0.4-1H279.3z M280.2,331.5L280.2,331.5l-0.6,1.8h1.2
		L280.2,331.5z"/>
	<path class="st2" d="M287,331.1c-0.2-0.2-0.6-0.4-1-0.4c-0.1,0-0.2,0-0.5,0.1c-0.1,0.1-0.2,0.2-0.2,0.4c0,0.1,0.1,0.2,0.2,0.4
		c0.1,0.1,0.2,0.1,0.5,0.2l0.4,0.1c0.4,0.1,0.7,0.2,1,0.5c0.2,0.2,0.4,0.6,0.4,1.1c0,0.2,0,0.6-0.1,0.8c-0.1,0.2-0.2,0.5-0.5,0.7
		c-0.5,0.4-1,0.6-1.6,0.6c-0.7,0-1.4-0.2-1.9-0.6l0.6-1.2c0.2,0.1,0.4,0.4,0.6,0.4c0.2,0.1,0.5,0.2,0.7,0.2s0.4,0,0.5-0.1
		c0.1-0.1,0.2-0.2,0.2-0.5c0-0.1,0-0.2-0.1-0.2c-0.1-0.1-0.1-0.1-0.2-0.2c-0.2-0.1-0.5-0.1-0.6-0.2c-0.2-0.1-0.5-0.1-0.6-0.2
		c-0.2-0.1-0.4-0.1-0.5-0.2s-0.2-0.2-0.4-0.5c-0.1-0.2-0.1-0.4-0.1-0.7c0-0.6,0.2-1.1,0.6-1.4c0.4-0.4,0.8-0.5,1.4-0.5
		s1.2,0.1,1.8,0.5L287,331.1z"/>
	<path class="st2" d="M288.8,329.7h2.3c0.6,0,1.1,0.1,1.4,0.5c0.4,0.4,0.6,0.8,0.6,1.4c0,1.3-0.7,1.9-2,1.9h-0.8v1.9h-1.4V329.7z
		 M290.3,332.3h0.2c0.1,0,0.2,0,0.4,0s0.2,0,0.4-0.1c0.1,0,0.2-0.1,0.2-0.2s0.1-0.2,0.1-0.4c0-0.2,0-0.4-0.1-0.5
		c0-0.1-0.1-0.1-0.2-0.2c-0.1,0-0.2-0.1-0.4-0.1s-0.2,0-0.5,0h-0.2v1.6H290.3z"/>
	<path class="st2" d="M294.1,335.4v-5.7h2c0.5,0,1,0.1,1.2,0.4c0.4,0.2,0.5,0.6,0.5,1.2c0,0.5-0.2,1-0.6,1.2l0,0
		c0.8,0.1,1.2,0.6,1.2,1.4c0,0.6-0.2,1-0.6,1.2c-0.4,0.2-0.8,0.4-1.4,0.4H294.1z M295.5,332h0.1c0.2,0,0.4,0,0.6-0.1
		c0.1-0.1,0.2-0.2,0.2-0.5s-0.1-0.5-0.2-0.5c-0.2,0-0.4-0.1-0.6-0.1h-0.1V332z M295.5,334.3h0.2c0.1,0,0.2,0,0.4,0s0.2,0,0.4-0.1
		c0.1,0,0.2-0.1,0.4-0.2c0.1-0.1,0.1-0.2,0.1-0.4c0-0.1,0-0.4-0.1-0.4c-0.1-0.1-0.2-0.1-0.4-0.1s-0.2,0-0.4,0s-0.2,0-0.4,0h-0.1v1.2
		H295.5z"/>
	<path class="st2" d="M300.9,330.9v1h1.6v1.3h-1.6v1h1.7v1.3h-3.1v-5.7h3.1v1.3h-1.7V330.9z"/>
	<path class="st2" d="M308.6,335.4h-1.8l-1.4-2.2l0,0v2.2h-1.4v-5.7h2.2c0.6,0,1.1,0.1,1.4,0.5c0.4,0.2,0.6,0.7,0.6,1.3
		c0,0.4-0.1,0.7-0.4,1.1c-0.2,0.2-0.5,0.5-1,0.6L308.6,335.4z M305.3,332.2h0.1c0.1,0,0.2,0,0.4,0c0.1,0,0.2,0,0.4-0.1
		c0.1,0,0.2-0.1,0.2-0.2c0.1-0.1,0.1-0.2,0.1-0.4c0-0.1,0-0.2-0.1-0.4c-0.1-0.1-0.1-0.1-0.2-0.2c-0.1,0-0.2-0.1-0.4-0.1
		c-0.1,0-0.1,0-0.2,0c-0.1,0-0.1,0-0.2,0h0V332.2z"/>
	<path class="st2" d="M313.9,335.4h-1.8l-1.4-2.2l0,0v2.2h-1.4v-5.7h2.2c0.6,0,1.1,0.1,1.4,0.5c0.4,0.2,0.6,0.7,0.6,1.3
		c0,0.4-0.1,0.7-0.4,1.1c-0.2,0.2-0.5,0.5-1,0.6L313.9,335.4z M310.7,332.2h0.1c0.1,0,0.2,0,0.4,0c0.1,0,0.2,0,0.4-0.1
		c0.1,0,0.2-0.1,0.2-0.2c0.1-0.1,0.1-0.2,0.1-0.4c0-0.1,0-0.2-0.1-0.4c-0.1-0.1-0.1-0.1-0.2-0.2c-0.1,0-0.2-0.1-0.4-0.1
		c-0.1,0-0.1,0-0.2,0s-0.1,0-0.2,0h-0.1v1.4H310.7z"/>
	<path class="st2" d="M316.2,335.4h-1.4v-5.7h1.4V335.4z"/>
	<path class="st2" d="M318.8,330.9v1h1.6v1.3h-1.6v1h1.7v1.3h-3.1v-5.7h3.1v1.3h-1.7V330.9z"/>
	<path class="st2" d="M324.8,331.1c-0.2-0.2-0.6-0.4-1-0.4c-0.1,0-0.2,0-0.5,0.1c-0.1,0.1-0.2,0.2-0.2,0.4c0,0.1,0.1,0.2,0.2,0.4
		c0.1,0.1,0.2,0.1,0.5,0.2l0.4,0.1c0.4,0.1,0.7,0.2,1,0.5c0.2,0.2,0.4,0.6,0.4,1.1c0,0.2,0,0.6-0.1,0.8c-0.1,0.2-0.2,0.5-0.5,0.7
		c-0.5,0.4-1,0.6-1.6,0.6c-0.7,0-1.4-0.2-1.9-0.6l0.6-1.2c0.2,0.1,0.4,0.4,0.6,0.4c0.2,0.1,0.5,0.2,0.7,0.2c0.2,0,0.4,0,0.5-0.1
		c0.1-0.1,0.2-0.2,0.2-0.5c0-0.1,0-0.2-0.1-0.2c-0.1-0.1-0.1-0.1-0.2-0.2c-0.2-0.1-0.5-0.1-0.6-0.2c-0.2-0.1-0.5-0.1-0.6-0.2
		c-0.2-0.1-0.4-0.1-0.5-0.2s-0.2-0.2-0.4-0.5c-0.1-0.2-0.1-0.4-0.1-0.7c0-0.6,0.2-1.1,0.6-1.4c0.4-0.4,0.8-0.5,1.4-0.5
		s1.2,0.1,1.8,0.5L324.8,331.1z"/>
</g>
<line class="st5" x1="68.1" y1="239.7" x2="349.1" y2="239.7"/>
</svg>
