<?xml version="1.0" encoding="utf-8"?>
<!-- Generator: Adobe Illustrator 20.1.0, SVG Export Plug-In . SVG Version: 6.00 Build 0)  -->
<svg version="1.1" id="Layer_1" xmlns="http://www.w3.org/2000/svg" xmlns:xlink="http://www.w3.org/1999/xlink" x="0px" y="0px"
	 viewBox="0 0 292 300" style="enable-background:new 0 0 292 300;" xml:space="preserve">
<style type="text/css">
	.st0{fill:#681E44;}
	.st1{fill:none;stroke:#EC268B;stroke-width:0.6756;}
	.st2{fill:#EC258B;}
	.st3{fill:none;stroke:#EC268B;stroke-width:0.1351;}
	.st4{fill:#681E44;stroke:#EC218B;stroke-width:0.135;stroke-miterlimit:10;}
	.st5{fill:none;stroke:#EC268B;stroke-width:0.135;}
</style>
<rect x="-0.1" y="0" class="st0" width="292.1" height="300"/>
<g>
	<ellipse class="st1" cx="145.8" cy="136.2" rx="121" ry="120.6"/>
	<path class="st1" d="M226.5,136.1c0,44.4-36.1,80.4-80.7,80.4s-80.7-36-80.7-80.4s36.1-80.4,80.7-80.4
		C190.4,55.7,226.5,91.7,226.5,136.1z"/>
	<ellipse class="st1" cx="145.9" cy="136.2" rx="76.7" ry="76.5"/>
	<ellipse class="st1" cx="146.1" cy="136.3" rx="36.4" ry="36.2"/>
	<ellipse class="st1" cx="146" cy="136.2" rx="33.5" ry="33.4"/>
	<line class="st1" x1="111.6" y1="20.3" x2="180.5" y2="252.1"/>
	<line class="st1" x1="130.2" y1="16.3" x2="161.8" y2="256.2"/>
	<line class="st1" x1="148.6" y1="16" x2="143.1" y2="256.6"/>
	<line class="st1" x1="94.5" y1="26.7" x2="198.2" y2="245.1"/>
	<line class="st1" x1="168" y1="17.8" x2="124.3" y2="254.9"/>
	<line class="st1" x1="78" y1="36" x2="214.1" y2="235.4"/>
	<line class="st1" x1="63.3" y1="47.9" x2="229" y2="223"/>
	<line class="st1" x1="50.4" y1="61.9" x2="241.9" y2="209.4"/>
	<line class="st1" x1="39.1" y1="78.4" x2="252.3" y2="193.5"/>
	<line class="st1" x1="32.1" y1="95.7" x2="260" y2="176.2"/>
	<line class="st1" x1="26.9" y1="114.1" x2="265.1" y2="157.9"/>
	<line class="st1" x1="24.9" y1="132.5" x2="266.5" y2="139.8"/>
	<line class="st1" x1="25.9" y1="152.2" x2="265.8" y2="120.7"/>
	<line class="st1" x1="30.1" y1="169.6" x2="261.6" y2="101.6"/>
	<line class="st1" x1="36.3" y1="188.3" x2="255" y2="84.6"/>
	<line class="st1" x1="46" y1="204.1" x2="245.3" y2="68"/>
	<line class="st1" x1="57.4" y1="218.1" x2="233.9" y2="53.4"/>
	<line class="st1" x1="72.7" y1="231.6" x2="220" y2="40.6"/>
	<line class="st1" x1="88.3" y1="242.7" x2="203.4" y2="29.9"/>
	<line class="st1" x1="106" y1="250" x2="186.7" y2="22.6"/>
	<polygon class="st2" points="139.8,139.3 67.1,284.4 80.5,284.4 143.8,141.4 	"/>
	<polygon class="st2" points="151.7,139.3 224.4,284.4 211.1,284.4 147.7,141.4 	"/>
	<path class="st2" d="M156.7,135.9c0,5.9-4.7,10.6-10.6,10.6c-5.8,0-10.6-4.7-10.6-10.6c0-5.9,4.7-10.6,10.6-10.6
		C151.9,125.3,156.7,130.1,156.7,135.9z"/>
	<g>
		<path class="st2" d="M151.9,29.6v-0.3l1.8-1.8V16.8c0,0-3.5,0.1-4.2-0.3c-0.6-0.4-0.7-0.6-0.7-0.6h-0.6c0,0,0,0.3-0.7,0.6
			c-0.6,0.3-4.2,0.3-4.2,0.3v10.6l1.8,1.8v0.3h6.8L151.9,29.6L151.9,29.6z"/>
		<path class="st0" d="M143.9,24.5h0.5v0.6h2.6V18c0,0-0.3-0.7-1.6-0.7c-1,0-1.4,0.6-1.4,0.6v6.6H143.9z"/>
		<line class="st3" x1="143.9" y1="22.3" x2="146.9" y2="22.3"/>
		<line class="st3" x1="143.8" y1="23.3" x2="146.9" y2="23.3"/>
		<line class="st3" x1="143.7" y1="24.4" x2="146.9" y2="24.4"/>
		<path class="st0" d="M153.3,24.5h-0.5v0.6h-2.6V18c0,0,0.3-0.7,1.6-0.7c1,0,1.4,0.6,1.4,0.6L153.3,24.5L153.3,24.5z"/>
		<line class="st3" x1="153.3" y1="22.3" x2="150.1" y2="22.3"/>
		<line class="st3" x1="153.3" y1="23.3" x2="150.1" y2="23.3"/>
		<line class="st3" x1="153.4" y1="24.4" x2="150.2" y2="24.4"/>
		<path class="st0" d="M147.1,25.1h3V20c0,0-0.3-0.5-1.6-0.5c-1,0-1.4,0.5-1.4,0.5V25.1z"/>
		<path class="st4" d="M148.4,28.4h-1.2c0,0,0-4.5,0-5.8c0-0.2,0.3-0.5,0.6-0.4c0.3,0,0.6,0.3,0.6,0.4
			C148.4,23.9,148.4,28.4,148.4,28.4z"/>
		<rect x="147.3" y="25.2" class="st2" width="1.1" height="1.8"/>
		<path class="st4" d="M149.9,28.4h-1.1c0,0,0-4.5,0-5.8c0-0.2,0.3-0.5,0.6-0.4c0.3,0,0.6,0.3,0.6,0.4
			C149.9,23.9,149.9,28.4,149.9,28.4z"/>
		<rect x="148.8" y="25.2" class="st2" width="1.1" height="1.8"/>
	</g>
	<g>
		<path class="st2" d="M171.5,31.6v-0.3l1.8-1.8V18.8c0,0-3.6,0.1-4.2-0.3s-0.7-0.6-0.7-0.6h-0.6c0,0,0,0.3-0.7,0.6
			c-0.6,0.3-4.2,0.3-4.2,0.3v10.6l1.8,1.8v0.3h6.8L171.5,31.6L171.5,31.6z"/>
		<path class="st0" d="M163.4,26.5h0.5v0.6h2.6V20c0,0-0.3-0.7-1.6-0.7c-1,0-1.4,0.6-1.4,0.6v6.6H163.4z"/>
		<line class="st3" x1="163.4" y1="24.2" x2="166.5" y2="24.2"/>
		<line class="st3" x1="163.4" y1="25.3" x2="166.5" y2="25.3"/>
		<line class="st3" x1="163.3" y1="26.4" x2="166.5" y2="26.4"/>
		<path class="st0" d="M172.8,26.5h-0.5v0.6h-2.6V20c0,0,0.3-0.7,1.6-0.7c1,0,1.4,0.6,1.4,0.6L172.8,26.5L172.8,26.5z"/>
		<line class="st3" x1="172.8" y1="24.2" x2="169.7" y2="24.2"/>
		<line class="st3" x1="172.9" y1="25.3" x2="169.7" y2="25.3"/>
		<line class="st3" x1="172.9" y1="26.4" x2="169.8" y2="26.4"/>
		<path class="st0" d="M166.6,27.1h3V22c0,0-0.3-0.5-1.6-0.5c-1,0-1.4,0.5-1.4,0.5V27.1z"/>
		<path class="st4" d="M168,30.3h-1.1c0,0,0-4.5,0-5.8c0-0.2,0.3-0.4,0.6-0.4s0.6,0.3,0.6,0.4C168,25.9,168,30.3,168,30.3z"/>
		<rect x="166.9" y="27.2" class="st2" width="1.1" height="1.8"/>
		<path class="st4" d="M169.5,30.3h-1.1c0,0,0-4.5,0-5.8c0-0.2,0.3-0.4,0.6-0.4s0.6,0.3,0.6,0.4C169.5,25.9,169.5,30.3,169.5,30.3z"
			/>
		<rect x="168.4" y="27.2" class="st2" width="1.1" height="1.8"/>
	</g>
	<rect x="201.9" y="39.3" class="st2" width="1.1" height="1.8"/>
	<g>
		<path class="st2" d="M206.5,43.7v-0.3l1.8-1.8V30.9c0,0-3.6,0.1-4.2-0.3s-0.7-0.6-0.7-0.6h-0.6c0,0,0,0.3-0.7,0.6
			c-0.6,0.4-4.2,0.3-4.2,0.3v10.6l1.8,1.8v0.3h6.8L206.5,43.7L206.5,43.7z"/>
		<path class="st0" d="M198.5,38.6h0.5v0.6h2.6v-7.1c0,0-0.3-0.7-1.6-0.7c-1,0-1.4,0.6-1.4,0.6v6.6H198.5z"/>
		<line class="st3" x1="198.5" y1="36.3" x2="201.5" y2="36.3"/>
		<line class="st3" x1="198.4" y1="37.3" x2="201.5" y2="37.3"/>
		<line class="st3" x1="198.3" y1="38.5" x2="201.5" y2="38.5"/>
		<path class="st0" d="M207.9,38.6h-0.5v0.6h-2.6v-7.1c0,0,0.3-0.7,1.6-0.7c1,0,1.4,0.6,1.4,0.6v6.6H207.9z"/>
		<line class="st3" x1="207.9" y1="36.3" x2="204.7" y2="36.3"/>
		<line class="st3" x1="207.9" y1="37.3" x2="204.8" y2="37.3"/>
		<line class="st3" x1="208" y1="38.5" x2="204.8" y2="38.5"/>
		<path class="st0" d="M201.7,39.2h3V34c0,0-0.3-0.5-1.6-0.5c-1,0-1.4,0.5-1.4,0.5V39.2z"/>
		<path class="st4" d="M203,42.4h-1.1c0,0,0-4.5,0-5.8c0-0.2,0.3-0.4,0.6-0.4s0.6,0.3,0.6,0.4C203,37.9,203,42.4,203,42.4z"/>
		<path class="st4" d="M204.5,42.4h-1.1c0,0,0-4.5,0-5.8c0-0.2,0.3-0.4,0.6-0.4s0.6,0.3,0.6,0.4C204.5,37.9,204.5,42.4,204.5,42.4z"
			/>
	</g>
	<rect x="203.4" y="39.3" class="st2" width="1.1" height="1.8"/>
	<g>
		<path class="st2" d="M223.2,54.6v-0.3l1.8-1.8V41.8c0,0-3.6,0.1-4.2-0.3c-0.6-0.3-0.7-0.6-0.7-0.6h-0.6c0,0,0,0.3-0.7,0.6
			c-0.6,0.4-4.2,0.3-4.2,0.3v10.6l1.8,1.8v0.3L223.2,54.6L223.2,54.6z"/>
		<path class="st0" d="M215.2,49.5h0.5v0.6h2.6V43c0,0-0.3-0.7-1.6-0.7c-1,0-1.4,0.6-1.4,0.6L215.2,49.5L215.2,49.5z"/>
		<line class="st3" x1="215.2" y1="47.2" x2="218.2" y2="47.2"/>
		<line class="st3" x1="215.1" y1="48.2" x2="218.3" y2="48.2"/>
		<line class="st3" x1="215" y1="49.4" x2="218.2" y2="49.4"/>
		<path class="st0" d="M224.6,49.5h-0.5v0.6h-2.6V43c0,0,0.3-0.7,1.6-0.7c1,0,1.4,0.6,1.4,0.6v6.6C224.5,49.5,224.6,49.5,224.6,49.5
			z"/>
		<line class="st3" x1="224.6" y1="47.2" x2="221.5" y2="47.2"/>
		<line class="st3" x1="224.6" y1="48.2" x2="221.5" y2="48.2"/>
		<line class="st3" x1="224.7" y1="49.4" x2="221.6" y2="49.4"/>
		<path class="st0" d="M218.4,50.1h3v-5.2c0,0-0.3-0.5-1.6-0.5c-1,0-1.4,0.5-1.4,0.5V50.1z"/>
		<path class="st4" d="M219.7,53.3h-1.1c0,0,0-4.5,0-5.8c0-0.2,0.3-0.5,0.6-0.4c0.3,0,0.6,0.3,0.6,0.4
			C219.7,48.8,219.7,53.3,219.7,53.3z"/>
		<rect x="218.6" y="50.2" class="st2" width="1.1" height="1.8"/>
		<path class="st4" d="M221.3,53.3h-1.1c0,0,0-4.5,0-5.8c0-0.2,0.3-0.5,0.6-0.4c0.3,0,0.6,0.3,0.6,0.4
			C221.3,48.8,221.3,53.3,221.3,53.3z"/>
		<rect x="220.2" y="50.2" class="st2" width="1.1" height="1.8"/>
	</g>
	<g>
		<path class="st2" d="M237,67.6v-0.3l1.8-1.8V54.8c0,0-3.6,0.1-4.2-0.3c-0.6-0.3-0.7-0.6-0.7-0.6h-0.6c0,0,0,0.3-0.7,0.6
			c-0.6,0.4-4.2,0.3-4.2,0.3v10.6l1.8,1.8v0.3L237,67.6L237,67.6z"/>
		<path class="st0" d="M229,62.5h0.5v0.6h2.6V56c0,0-0.3-0.7-1.6-0.7c-1,0-1.4,0.6-1.4,0.6v6.6C229.1,62.5,229,62.5,229,62.5z"/>
		<line class="st3" x1="229" y1="60.3" x2="232" y2="60.3"/>
		<line class="st3" x1="228.9" y1="61.3" x2="232.1" y2="61.3"/>
		<line class="st3" x1="228.8" y1="62.4" x2="232" y2="62.4"/>
		<path class="st0" d="M238.4,62.5h-0.5v0.6h-2.6V56c0,0,0.3-0.7,1.6-0.7c1,0,1.4,0.6,1.4,0.6v6.6C238.3,62.5,238.4,62.5,238.4,62.5
			z"/>
		<line class="st3" x1="238.4" y1="60.3" x2="235.3" y2="60.3"/>
		<line class="st3" x1="238.4" y1="61.3" x2="235.3" y2="61.3"/>
		<line class="st3" x1="238.5" y1="62.4" x2="235.4" y2="62.4"/>
		<path class="st0" d="M232.2,63.1h3V58c0,0-0.3-0.5-1.6-0.5c-1,0-1.4,0.5-1.4,0.5V63.1z"/>
		<path class="st4" d="M233.5,66.4h-1.1c0,0,0-4.5,0-5.8c0-0.2,0.3-0.4,0.6-0.4s0.6,0.3,0.6,0.4C233.5,61.9,233.5,66.4,233.5,66.4z"
			/>
		<rect x="232.4" y="63.2" class="st2" width="1.1" height="1.8"/>
		<path class="st4" d="M235.1,66.4h-1.2c0,0,0-4.5,0-5.8c0-0.2,0.3-0.4,0.6-0.4s0.6,0.3,0.6,0.4C235.1,61.9,235.1,66.4,235.1,66.4z"
			/>
		<rect x="234" y="63.2" class="st2" width="1.1" height="1.8"/>
	</g>
	<g>
		<path class="st2" d="M248.9,81.8v-0.3l1.8-1.8V68.9c0,0-3.6,0.1-4.2-0.3c-0.6-0.3-0.7-0.6-0.7-0.6h-0.6c0,0,0,0.3-0.7,0.6
			c-0.6,0.3-4.2,0.3-4.2,0.3v10.6l1.8,1.8v0.3h6.8L248.9,81.8L248.9,81.8z"/>
		<path class="st0" d="M240.9,76.7h0.5v0.6h2.6v-7.1c0,0-0.3-0.7-1.6-0.7c-1,0-1.4,0.6-1.4,0.6v6.6H240.9z"/>
		<line class="st3" x1="240.9" y1="74.4" x2="243.9" y2="74.4"/>
		<line class="st3" x1="240.8" y1="75.4" x2="243.9" y2="75.4"/>
		<line class="st3" x1="240.7" y1="76.5" x2="243.9" y2="76.5"/>
		<path class="st0" d="M250.3,76.7h-0.5v0.6h-2.6v-7.1c0,0,0.3-0.7,1.6-0.7c1,0,1.4,0.6,1.4,0.6L250.3,76.7L250.3,76.7z"/>
		<line class="st3" x1="250.3" y1="74.4" x2="247.1" y2="74.4"/>
		<line class="st3" x1="250.3" y1="75.4" x2="247.2" y2="75.4"/>
		<line class="st3" x1="250.4" y1="76.5" x2="247.2" y2="76.5"/>
		<path class="st0" d="M244.1,77.3h3v-5.2c0,0-0.3-0.5-1.6-0.5c-1,0-1.4,0.5-1.4,0.5V77.3z"/>
		<path class="st4" d="M245.4,80.5h-1.1c0,0,0-4.5,0-5.8c0-0.2,0.3-0.5,0.6-0.4c0.3,0,0.6,0.3,0.6,0.4
			C245.4,76,245.4,80.5,245.4,80.5z"/>
		<rect x="244.3" y="77.4" class="st2" width="1.1" height="1.8"/>
		<path class="st4" d="M247,80.5h-1.2c0,0,0-4.5,0-5.8c0-0.2,0.3-0.5,0.6-0.4c0.3,0,0.6,0.3,0.6,0.4C247,76,247,80.5,247,80.5z"/>
		<rect x="245.8" y="77.4" class="st2" width="1.1" height="1.8"/>
	</g>
	<g>
		<path class="st2" d="M258.4,98.5v-0.3l1.8-1.8V85.7c0,0-3.6,0.1-4.2-0.3c-0.6-0.3-0.7-0.6-0.7-0.6h-0.6c0,0,0,0.3-0.7,0.6
			c-0.6,0.3-4.2,0.3-4.2,0.3v10.6l1.8,1.8v0.3L258.4,98.5L258.4,98.5z"/>
		<path class="st0" d="M250.3,93.4h0.5V94h2.6v-7.1c0,0-0.3-0.7-1.6-0.7c-1,0-1.4,0.6-1.4,0.6L250.3,93.4L250.3,93.4z"/>
		<line class="st3" x1="250.3" y1="91.1" x2="253.4" y2="91.1"/>
		<line class="st3" x1="250.3" y1="92.2" x2="253.4" y2="92.2"/>
		<line class="st3" x1="250.2" y1="93.3" x2="253.4" y2="93.3"/>
		<path class="st0" d="M259.7,93.4h-0.5V94h-2.6v-7.1c0,0,0.3-0.7,1.6-0.7c1,0,1.4,0.6,1.4,0.6v6.6H259.7z"/>
		<line class="st3" x1="259.7" y1="91.1" x2="256.6" y2="91.1"/>
		<line class="st3" x1="259.8" y1="92.2" x2="256.6" y2="92.2"/>
		<line class="st3" x1="259.8" y1="93.3" x2="256.7" y2="93.3"/>
		<path class="st0" d="M253.5,94h3v-5.2c0,0-0.3-0.5-1.6-0.5c-1,0-1.4,0.4-1.4,0.4V94z"/>
		<path class="st4" d="M254.9,97.2h-1.1c0,0,0-4.5,0-5.8c0-0.2,0.3-0.5,0.6-0.4c0.3,0,0.6,0.3,0.6,0.4
			C254.9,92.8,254.9,97.2,254.9,97.2z"/>
		<rect x="253.7" y="94.1" class="st2" width="1.1" height="1.8"/>
		<path class="st4" d="M256.4,97.2h-1.1c0,0,0-4.5,0-5.8c0-0.2,0.3-0.5,0.6-0.4c0.3,0,0.6,0.3,0.6,0.4
			C256.4,92.8,256.4,97.2,256.4,97.2z"/>
		<rect x="255.3" y="94.1" class="st2" width="1.1" height="1.8"/>
	</g>
	<g>
		<path class="st2" d="M264.9,115.5v-0.3l1.8-1.8v-10.6c0,0-3.6,0.1-4.2-0.3c-0.6-0.3-0.7-0.6-0.7-0.6h-0.6c0,0,0,0.3-0.7,0.6
			c-0.6,0.3-4.2,0.3-4.2,0.3v10.6l1.8,1.8v0.3H264.9z"/>
		<path class="st0" d="M256.8,110.4h0.5v0.6h2.6v-7.1c0,0-0.3-0.7-1.6-0.7c-1,0-1.4,0.6-1.4,0.6v6.6H256.8z"/>
		<line class="st3" x1="256.8" y1="108.1" x2="259.9" y2="108.1"/>
		<line class="st3" x1="256.8" y1="109.2" x2="259.9" y2="109.2"/>
		<line class="st3" x1="256.7" y1="110.3" x2="259.9" y2="110.3"/>
		<path class="st0" d="M266.2,110.4h-0.5v0.6h-2.6v-7.1c0,0,0.3-0.7,1.6-0.7c1,0,1.4,0.6,1.4,0.6v6.6H266.2z"/>
		<line class="st3" x1="266.2" y1="108.1" x2="263.1" y2="108.1"/>
		<line class="st3" x1="266.3" y1="109.2" x2="263.1" y2="109.2"/>
		<line class="st3" x1="266.3" y1="110.3" x2="263.2" y2="110.3"/>
		<path class="st0" d="M260,111h3v-5.2c0,0-0.3-0.5-1.6-0.5c-1,0-1.4,0.5-1.4,0.5V111z"/>
		<path class="st4" d="M261.4,114.2h-1.1c0,0,0-4.5,0-5.8c0-0.2,0.3-0.5,0.6-0.4c0.3,0,0.6,0.3,0.6,0.4
			C261.4,109.8,261.4,114.2,261.4,114.2z"/>
		<rect x="260.2" y="111.1" class="st2" width="1.1" height="1.8"/>
		<path class="st4" d="M262.9,114.2h-1.1c0,0,0-4.5,0-5.8c0-0.2,0.3-0.5,0.6-0.4c0.3,0,0.6,0.3,0.6,0.4
			C262.9,109.8,262.9,114.2,262.9,114.2z"/>
		<rect x="261.8" y="111.1" class="st2" width="1.1" height="1.8"/>
	</g>
	<g>
		<path class="st2" d="M269.1,134.5v-0.3l1.8-1.8v-10.6c0,0-3.6,0.1-4.2-0.3s-0.7-0.6-0.7-0.6h-0.6c0,0,0,0.3-0.7,0.6
			c-0.6,0.3-4.2,0.3-4.2,0.3v10.6l1.8,1.8v0.3H269.1z"/>
		<path class="st0" d="M261.1,129.5h0.5v0.6h2.6V123c0,0-0.3-0.7-1.6-0.7c-1,0-1.4,0.6-1.4,0.6v6.6H261.1z"/>
		<line class="st3" x1="261.1" y1="127.2" x2="264.2" y2="127.2"/>
		<line class="st3" x1="261" y1="128.2" x2="264.2" y2="128.2"/>
		<line class="st3" x1="260.9" y1="129.3" x2="264.1" y2="129.3"/>
		<path class="st0" d="M270.5,129.5H270v0.6h-2.6V123c0,0,0.3-0.7,1.6-0.7c1,0,1.4,0.6,1.4,0.6v6.6H270.5z"/>
		<line class="st3" x1="270.5" y1="127.2" x2="267.4" y2="127.2"/>
		<line class="st3" x1="270.5" y1="128.2" x2="267.4" y2="128.2"/>
		<line class="st3" x1="270.6" y1="129.3" x2="267.5" y2="129.3"/>
		<path class="st0" d="M264.3,130h3v-5.1c0,0-0.3-0.5-1.6-0.5c-1,0-1.4,0.5-1.4,0.5V130z"/>
		<path class="st4" d="M265.6,133.3h-1.1c0,0,0-4.5,0-5.8c0-0.2,0.3-0.5,0.6-0.4c0.3,0,0.6,0.3,0.6,0.4
			C265.6,128.8,265.6,133.3,265.6,133.3z"/>
		<rect x="264.5" y="130.2" class="st2" width="1.1" height="1.8"/>
		<path class="st4" d="M267.2,133.3H266c0,0,0-4.5,0-5.8c0-0.2,0.3-0.5,0.6-0.4c0.3,0,0.6,0.3,0.6,0.4
			C267.2,128.8,267.2,133.3,267.2,133.3z"/>
		<rect x="266.1" y="130.2" class="st2" width="1.1" height="1.8"/>
	</g>
	<g>
		<path class="st2" d="M270.1,153.6v-0.3l1.8-1.8v-10.6c0,0-3.6,0.1-4.2-0.3c-0.6-0.4-0.7-0.6-0.7-0.6h-0.6c0,0,0,0.3-0.7,0.6
			c-0.6,0.4-4.2,0.3-4.2,0.3v10.6l1.8,1.8v0.3H270.1z"/>
		<path class="st0" d="M262.1,148.5h0.5v0.6h2.6V142c0,0-0.3-0.7-1.6-0.7c-1,0-1.4,0.6-1.4,0.6v6.6L262.1,148.5L262.1,148.5z"/>
		<line class="st3" x1="262.1" y1="146.2" x2="265.1" y2="146.2"/>
		<line class="st3" x1="262" y1="147.3" x2="265.1" y2="147.3"/>
		<line class="st3" x1="261.9" y1="148.4" x2="265.1" y2="148.4"/>
		<path class="st0" d="M271.5,148.5H271v0.6h-2.6V142c0,0,0.3-0.7,1.6-0.7c1,0,1.4,0.6,1.4,0.6v6.6L271.5,148.5L271.5,148.5z"/>
		<line class="st3" x1="271.5" y1="146.2" x2="268.3" y2="146.2"/>
		<line class="st3" x1="271.5" y1="147.3" x2="268.4" y2="147.3"/>
		<line class="st3" x1="271.6" y1="148.4" x2="268.4" y2="148.4"/>
		<path class="st0" d="M265.3,149.1h3V144c0,0-0.3-0.5-1.6-0.5c-1,0-1.4,0.5-1.4,0.5V149.1z"/>
		<path class="st4" d="M266.6,152.3h-1.1c0,0,0-4.5,0-5.8c0-0.2,0.3-0.5,0.6-0.4c0.3,0,0.6,0.3,0.6,0.4
			C266.6,147.8,266.6,152.3,266.6,152.3z"/>
		<rect x="265.5" y="149.2" class="st2" width="1.1" height="1.8"/>
		<path class="st4" d="M268.2,152.3H267c0,0,0-4.5,0-5.8c0-0.2,0.3-0.5,0.6-0.4c0.3,0,0.6,0.3,0.6,0.4
			C268.2,147.8,268.2,152.3,268.2,152.3z"/>
		<rect x="267" y="149.2" class="st2" width="1.1" height="1.8"/>
	</g>
	<g>
		<path class="st2" d="M268.1,171.6v-0.3l1.8-1.8v-10.6c0,0-3.5,0.1-4.2-0.3c-0.6-0.4-0.7-0.6-0.7-0.6h-0.6c0,0,0,0.3-0.7,0.6
			c-0.6,0.3-4.2,0.3-4.2,0.3v10.6l1.8,1.8v0.3H268.1z"/>
		<path class="st0" d="M260,166.5h0.5v0.6h2.6V160c0,0-0.3-0.7-1.6-0.7c-1,0-1.4,0.6-1.4,0.6v6.6L260,166.5L260,166.5z"/>
		<line class="st3" x1="260" y1="164.3" x2="263.1" y2="164.3"/>
		<line class="st3" x1="259.9" y1="165.3" x2="263.1" y2="165.3"/>
		<line class="st3" x1="259.8" y1="166.4" x2="263" y2="166.4"/>
		<path class="st0" d="M269.4,166.5H269v0.6h-2.6V160c0,0,0.3-0.7,1.6-0.7c1,0,1.4,0.6,1.4,0.6V166.5z"/>
		<line class="st3" x1="269.4" y1="164.3" x2="266.3" y2="164.3"/>
		<line class="st3" x1="269.4" y1="165.3" x2="266.3" y2="165.3"/>
		<line class="st3" x1="269.5" y1="166.4" x2="266.4" y2="166.4"/>
		<path class="st0" d="M263.2,167.1h3V162c0,0-0.3-0.5-1.6-0.5c-1,0-1.4,0.5-1.4,0.5V167.1z"/>
		<path class="st4" d="M264.5,170.4h-1.1c0,0,0-4.5,0-5.8c0-0.2,0.3-0.5,0.6-0.4c0.3,0,0.6,0.3,0.6,0.4
			C264.5,165.9,264.5,170.4,264.5,170.4z"/>
		<rect x="263.4" y="167.2" class="st2" width="1.1" height="1.8"/>
		<path class="st4" d="M266.1,170.4h-1.2c0,0,0-4.5,0-5.8c0-0.2,0.3-0.5,0.6-0.4c0.3,0,0.6,0.3,0.6,0.4
			C266.1,165.9,266.1,170.4,266.1,170.4z"/>
		<rect x="265" y="167.2" class="st2" width="1.1" height="1.8"/>
	</g>
	<g>
		<path class="st2" d="M263.1,190v-0.3l1.8-1.8v-10.6c0,0-3.6,0.1-4.2-0.3c-0.6-0.3-0.7-0.6-0.7-0.6h-0.6c0,0,0,0.3-0.7,0.6
			c-0.6,0.3-4.2,0.3-4.2,0.3v10.6l1.8,1.8v0.3H263.1z"/>
		<path class="st0" d="M255,184.9h0.5v0.6h2.6v-7.1c0,0-0.3-0.7-1.6-0.7c-1,0-1.4,0.6-1.4,0.6v6.6L255,184.9L255,184.9z"/>
		<line class="st3" x1="255" y1="182.7" x2="258.1" y2="182.7"/>
		<line class="st3" x1="255" y1="183.7" x2="258.1" y2="183.7"/>
		<line class="st3" x1="254.9" y1="184.8" x2="258.1" y2="184.8"/>
		<path class="st0" d="M264.5,184.9H264v0.6h-2.6v-7.1c0,0,0.3-0.7,1.6-0.7c1,0,1.4,0.6,1.4,0.6v6.6L264.5,184.9L264.5,184.9z"/>
		<line class="st3" x1="264.5" y1="182.7" x2="261.3" y2="182.7"/>
		<line class="st3" x1="264.5" y1="183.7" x2="261.3" y2="183.7"/>
		<line class="st3" x1="264.5" y1="184.8" x2="261.4" y2="184.8"/>
		<path class="st0" d="M258.2,185.5h3v-5.2c0,0-0.3-0.5-1.6-0.5c-1,0-1.4,0.5-1.4,0.5V185.5z"/>
		<path class="st4" d="M259.6,188.8h-1.1c0,0,0-4.5,0-5.8c0-0.2,0.3-0.4,0.6-0.4c0.3,0,0.6,0.3,0.6,0.4
			C259.6,184.3,259.6,188.8,259.6,188.8z"/>
		<rect x="258.5" y="185.6" class="st2" width="1.1" height="1.8"/>
		<path class="st4" d="M261.1,188.8H260c0,0,0-4.5,0-5.8c0-0.2,0.3-0.4,0.6-0.4c0.3,0,0.6,0.3,0.6,0.4
			C261.1,184.3,261.1,188.8,261.1,188.8z"/>
		<rect x="260" y="185.6" class="st2" width="1.1" height="1.8"/>
	</g>
	<g>
		<path class="st2" d="M255.5,207.3V207l1.8-1.8v-10.6c0,0-3.6,0.1-4.2-0.3c-0.6-0.3-0.7-0.6-0.7-0.6h-0.6c0,0,0,0.3-0.7,0.6
			c-0.6,0.4-4.2,0.3-4.2,0.3v10.6l1.8,1.8v0.3H255.5z"/>
		<path class="st0" d="M247.5,202.2h0.5v0.6h2.6v-7.1c0,0-0.3-0.7-1.6-0.7c-1,0-1.4,0.6-1.4,0.6v6.6L247.5,202.2L247.5,202.2z"/>
		<line class="st3" x1="247.5" y1="199.9" x2="250.5" y2="199.9"/>
		<line class="st3" x1="247.4" y1="201" x2="250.5" y2="201"/>
		<line class="st3" x1="247.3" y1="202.1" x2="250.5" y2="202.1"/>
		<path class="st0" d="M256.9,202.2h-0.5v0.6h-2.6v-7.1c0,0,0.3-0.7,1.6-0.7c1,0,1.4,0.6,1.4,0.6v6.6L256.9,202.2L256.9,202.2z"/>
		<line class="st3" x1="256.9" y1="199.9" x2="253.7" y2="199.9"/>
		<line class="st3" x1="256.9" y1="201" x2="253.8" y2="201"/>
		<line class="st3" x1="257" y1="202.1" x2="253.8" y2="202.1"/>
		<path class="st0" d="M250.7,202.8h3v-5.2c0,0-0.3-0.5-1.6-0.5c-1,0-1.4,0.5-1.4,0.5L250.7,202.8L250.7,202.8z"/>
		<path class="st4" d="M252,206h-1.1c0,0,0-4.5,0-5.8c0-0.2,0.3-0.5,0.6-0.4c0.3,0,0.6,0.3,0.6,0.4C252,201.6,252,206,252,206z"/>
		<rect x="250.9" y="202.9" class="st2" width="1.1" height="1.8"/>
		<path class="st4" d="M253.6,206h-1.1c0,0,0-4.5,0-5.8c0-0.2,0.3-0.5,0.6-0.4c0.3,0,0.6,0.3,0.6,0.4
			C253.6,201.6,253.6,206,253.6,206z"/>
		<rect x="252.4" y="202.9" class="st2" width="1.1" height="1.8"/>
	</g>
	<g>
		<path class="st2" d="M245.2,223v-0.3l1.8-1.8v-10.6c0,0-3.6,0.1-4.2-0.3c-0.6-0.3-0.7-0.6-0.7-0.6h-0.6c0,0,0,0.3-0.7,0.6
			c-0.6,0.3-4.2,0.3-4.2,0.3v10.6l1.8,1.8v0.3H245.2z"/>
		<path class="st0" d="M237.1,217.9h0.5v0.6h2.6v-7.1c0,0-0.3-0.7-1.6-0.7c-1,0-1.4,0.6-1.4,0.6v6.6L237.1,217.9L237.1,217.9z"/>
		<line class="st3" x1="237.1" y1="215.6" x2="240.2" y2="215.6"/>
		<line class="st3" x1="237.1" y1="216.7" x2="240.2" y2="216.7"/>
		<line class="st3" x1="237" y1="217.8" x2="240.2" y2="217.8"/>
		<path class="st0" d="M246.5,217.9H246v0.6h-2.6v-7.1c0,0,0.3-0.7,1.6-0.7c1,0,1.4,0.6,1.4,0.6v6.6L246.5,217.9L246.5,217.9z"/>
		<line class="st3" x1="246.5" y1="215.6" x2="243.4" y2="215.6"/>
		<line class="st3" x1="246.6" y1="216.7" x2="243.4" y2="216.7"/>
		<line class="st3" x1="246.6" y1="217.8" x2="243.5" y2="217.8"/>
		<path class="st0" d="M240.3,218.5h3v-5.1c0,0-0.3-0.5-1.6-0.5c-1,0-1.4,0.5-1.4,0.5V218.5z"/>
		<path class="st4" d="M241.7,221.8h-1.1c0,0,0-4.5,0-5.8c0-0.2,0.3-0.5,0.6-0.4c0.3,0,0.6,0.3,0.6,0.4
			C241.7,217.3,241.7,221.8,241.7,221.8z"/>
		<rect x="240.6" y="218.6" class="st2" width="1.1" height="1.8"/>
		<path class="st4" d="M243.2,221.8h-1.1c0,0,0-4.5,0-5.8c0-0.2,0.3-0.5,0.6-0.4c0.3,0,0.6,0.3,0.6,0.4
			C243.2,217.3,243.2,221.8,243.2,221.8z"/>
		<rect x="242.1" y="218.6" class="st2" width="1.1" height="1.8"/>
	</g>
	<g>
		<path class="st2" d="M232.5,236.8v-0.3l1.8-1.8V224c0,0-3.6,0.1-4.2-0.3c-0.6-0.4-0.7-0.6-0.7-0.6h-0.6c0,0,0,0.3-0.7,0.6
			c-0.6,0.4-4.2,0.3-4.2,0.3v10.6l1.8,1.8v0.3L232.5,236.8L232.5,236.8z"/>
		<path class="st0" d="M224.5,231.7h0.5v0.6h2.6v-7.1c0,0-0.3-0.7-1.6-0.7c-1,0-1.4,0.6-1.4,0.6v6.6L224.5,231.7L224.5,231.7z"/>
		<line class="st3" x1="224.5" y1="229.4" x2="227.5" y2="229.4"/>
		<line class="st3" x1="224.4" y1="230.4" x2="227.5" y2="230.4"/>
		<line class="st3" x1="224.3" y1="231.6" x2="227.5" y2="231.6"/>
		<path class="st0" d="M233.9,231.7h-0.5v0.6h-2.6v-7.1c0,0,0.3-0.7,1.6-0.7c1,0,1.4,0.6,1.4,0.6v6.6L233.9,231.7L233.9,231.7z"/>
		<line class="st3" x1="233.9" y1="229.4" x2="230.7" y2="229.4"/>
		<line class="st3" x1="233.9" y1="230.4" x2="230.8" y2="230.4"/>
		<line class="st3" x1="234" y1="231.6" x2="230.8" y2="231.6"/>
		<path class="st0" d="M227.7,232.3h3v-5.1c0,0-0.3-0.5-1.6-0.5c-1,0-1.4,0.5-1.4,0.5V232.3z"/>
		<path class="st4" d="M229,235.5h-1.2c0,0,0-4.5,0-5.8c0-0.2,0.3-0.4,0.6-0.4s0.6,0.3,0.6,0.4C229,231,229,235.5,229,235.5z"/>
		<rect x="227.9" y="232.4" class="st2" width="1.1" height="1.8"/>
		<path class="st4" d="M230.6,235.5h-1.1c0,0,0-4.5,0-5.8c0-0.2,0.3-0.4,0.6-0.4s0.6,0.3,0.6,0.4C230.6,231,230.6,235.5,230.6,235.5
			z"/>
		<rect x="229.4" y="232.4" class="st2" width="1.1" height="1.8"/>
	</g>
	<g>
		<path class="st2" d="M217.7,249.1v-0.3l1.8-1.8v-10.6c0,0-3.6,0.1-4.2-0.3c-0.6-0.3-0.7-0.6-0.7-0.6H214c0,0,0,0.3-0.7,0.6
			c-0.6,0.3-4.2,0.3-4.2,0.3V247l1.8,1.8v0.3H217.7z"/>
		<path class="st0" d="M209.6,244h0.5v0.6h2.6v-7.1c0,0-0.3-0.7-1.6-0.7c-1,0-1.4,0.6-1.4,0.6v6.6L209.6,244L209.6,244z"/>
		<line class="st3" x1="209.6" y1="241.8" x2="212.7" y2="241.8"/>
		<line class="st3" x1="209.6" y1="242.8" x2="212.7" y2="242.8"/>
		<line class="st3" x1="209.5" y1="243.9" x2="212.7" y2="243.9"/>
		<path class="st0" d="M219,244h-0.5v0.6H216v-7.1c0,0,0.3-0.7,1.6-0.7c1,0,1.4,0.6,1.4,0.6V244z"/>
		<line class="st3" x1="219" y1="241.8" x2="215.9" y2="241.8"/>
		<line class="st3" x1="219.1" y1="242.8" x2="215.9" y2="242.8"/>
		<line class="st3" x1="219.1" y1="243.9" x2="216" y2="243.9"/>
		<path class="st0" d="M212.8,244.6h3v-5.1c0,0-0.3-0.5-1.6-0.5c-1,0-1.4,0.5-1.4,0.5V244.6z"/>
		<path class="st4" d="M214.2,247.9H213c0,0,0-4.5,0-5.8c0-0.2,0.3-0.5,0.6-0.4c0.3,0,0.6,0.3,0.6,0.4
			C214.2,243.4,214.2,247.9,214.2,247.9z"/>
		<rect x="213" y="244.7" class="st2" width="1.1" height="1.8"/>
		<path class="st4" d="M215.7,247.9h-1.1c0,0,0-4.5,0-5.8c0-0.2,0.3-0.5,0.6-0.4c0.3,0,0.6,0.3,0.6,0.4
			C215.7,243.4,215.7,247.9,215.7,247.9z"/>
		<rect x="214.6" y="244.7" class="st2" width="1.1" height="1.8"/>
	</g>
	<g>
		<path class="st2" d="M201.3,258.6v-0.3l1.8-1.8v-10.6c0,0-3.6,0.1-4.2-0.3c-0.6-0.3-0.7-0.6-0.7-0.6h-0.6c0,0,0,0.3-0.7,0.6
			c-0.6,0.3-4.2,0.3-4.2,0.3v10.6l1.8,1.8v0.3H201.3z"/>
		<path class="st0" d="M193.3,253.5h0.5v0.6h2.6V247c0,0-0.3-0.7-1.6-0.7c-1,0-1.4,0.6-1.4,0.6v6.6L193.3,253.5L193.3,253.5z"/>
		<line class="st3" x1="193.3" y1="251.3" x2="196.4" y2="251.3"/>
		<line class="st3" x1="193.2" y1="252.3" x2="196.4" y2="252.3"/>
		<line class="st3" x1="193.1" y1="253.4" x2="196.3" y2="253.4"/>
		<path class="st0" d="M202.7,253.5h-0.5v0.6h-2.6V247c0,0,0.3-0.7,1.6-0.7c1,0,1.4,0.6,1.4,0.6v6.6L202.7,253.5L202.7,253.5z"/>
		<line class="st3" x1="202.7" y1="251.3" x2="199.6" y2="251.3"/>
		<line class="st3" x1="202.7" y1="252.3" x2="199.6" y2="252.3"/>
		<line class="st3" x1="202.8" y1="253.4" x2="199.7" y2="253.4"/>
		<path class="st0" d="M196.5,254.1h3V249c0,0-0.3-0.5-1.6-0.5c-1,0-1.4,0.5-1.4,0.5V254.1z"/>
		<path class="st4" d="M197.8,257.4h-1.1c0,0,0-4.5,0-5.8c0-0.2,0.3-0.4,0.6-0.4s0.6,0.3,0.6,0.4
			C197.8,252.9,197.8,257.4,197.8,257.4z"/>
		<rect x="196.7" y="254.2" class="st2" width="1.1" height="1.8"/>
		<path class="st4" d="M199.4,257.4h-1.1c0,0,0-4.5,0-5.8c0-0.2,0.3-0.4,0.6-0.4s0.6,0.3,0.6,0.4
			C199.4,252.9,199.4,257.4,199.4,257.4z"/>
		<rect x="198.3" y="254.2" class="st2" width="1.1" height="1.8"/>
	</g>
	<g>
		<path class="st2" d="M183.8,265.3V265l1.8-1.8v-10.6c0,0-3.6,0.1-4.2-0.3c-0.6-0.3-0.7-0.6-0.7-0.6h-0.6c0,0,0,0.3-0.7,0.6
			c-0.6,0.4-4.2,0.3-4.2,0.3v10.6l1.8,1.8v0.3H183.8z"/>
		<path class="st0" d="M175.8,260.2h0.5v0.6h2.6v-7.1c0,0-0.3-0.7-1.6-0.7c-1,0-1.4,0.6-1.4,0.6v6.6H175.8z"/>
		<line class="st3" x1="175.8" y1="258" x2="178.8" y2="258"/>
		<line class="st3" x1="175.7" y1="259" x2="178.8" y2="259"/>
		<line class="st3" x1="175.6" y1="260.1" x2="178.8" y2="260.1"/>
		<path class="st0" d="M185.2,260.2h-0.5v0.6h-2.6v-7.1c0,0,0.3-0.7,1.6-0.7c1,0,1.4,0.6,1.4,0.6v6.6H185.2z"/>
		<line class="st3" x1="185.2" y1="258" x2="182" y2="258"/>
		<line class="st3" x1="185.2" y1="259" x2="182" y2="259"/>
		<line class="st3" x1="185.3" y1="260.1" x2="182.1" y2="260.1"/>
		<path class="st0" d="M179,260.8h3v-5.2c0,0-0.3-0.5-1.6-0.5c-1,0-1.4,0.5-1.4,0.5V260.8z"/>
		<path class="st4" d="M180.3,264.1h-1.1c0,0,0-4.5,0-5.8c0-0.2,0.3-0.4,0.6-0.4s0.6,0.3,0.6,0.4
			C180.3,259.6,180.3,264.1,180.3,264.1z"/>
		<rect x="179.2" y="260.9" class="st2" width="1.1" height="1.8"/>
		<path class="st4" d="M181.8,264.1h-1.1c0,0,0-4.5,0-5.8c0-0.2,0.3-0.4,0.6-0.4s0.6,0.3,0.6,0.4
			C181.8,259.6,181.8,264.1,181.8,264.1z"/>
		<rect x="180.7" y="260.9" class="st2" width="1.1" height="1.8"/>
	</g>
	<g>
		<path class="st2" d="M165.1,269.3V269l1.8-1.8v-10.6c0,0-3.6,0.1-4.2-0.3c-0.6-0.3-0.7-0.6-0.7-0.6h-0.6c0,0,0,0.3-0.7,0.6
			c-0.6,0.4-4.2,0.3-4.2,0.3v10.6l1.8,1.8v0.3H165.1z"/>
		<path class="st0" d="M157.1,264.3h0.5v0.6h2.6v-7.1c0,0-0.3-0.7-1.6-0.7c-1,0-1.4,0.6-1.4,0.6v6.6H157.1z"/>
		<line class="st3" x1="157.1" y1="262" x2="160.1" y2="262"/>
		<line class="st3" x1="157" y1="263" x2="160.1" y2="263"/>
		<line class="st3" x1="156.9" y1="264.1" x2="160.1" y2="264.1"/>
		<path class="st0" d="M166.5,264.3H166v0.6h-2.6v-7.1c0,0,0.3-0.7,1.6-0.7c1,0,1.4,0.6,1.4,0.6v6.6H166.5z"/>
		<line class="st3" x1="166.5" y1="262" x2="163.4" y2="262"/>
		<line class="st3" x1="166.5" y1="263" x2="163.4" y2="263"/>
		<line class="st3" x1="166.6" y1="264.1" x2="163.5" y2="264.1"/>
		<path class="st0" d="M160.3,264.9h3v-5.1c0,0-0.3-0.5-1.6-0.5c-1,0-1.4,0.5-1.4,0.5V264.9z"/>
		<path class="st4" d="M161.6,268.1h-1.1c0,0,0-4.5,0-5.8c0-0.2,0.3-0.5,0.6-0.4c0.3,0,0.6,0.3,0.6,0.4
			C161.6,263.6,161.6,268.1,161.6,268.1z"/>
		<rect x="160.5" y="265" class="st2" width="1.1" height="1.8"/>
		<path class="st4" d="M163.2,268.1H162c0,0,0-4.5,0-5.8c0-0.2,0.3-0.5,0.6-0.4c0.3,0,0.6,0.3,0.6,0.4
			C163.2,263.6,163.2,268.1,163.2,268.1z"/>
		<rect x="162.1" y="265" class="st2" width="1.1" height="1.8"/>
	</g>
	<g>
		<path class="st2" d="M146.5,270.4V270l1.8-1.8v-10.6c0,0-3.6,0.1-4.2-0.3s-0.7-0.6-0.7-0.6h-0.6c0,0,0,0.3-0.7,0.6
			c-0.6,0.4-4.2,0.3-4.2,0.3v10.6l1.8,1.8v0.3h6.8L146.5,270.4L146.5,270.4z"/>
		<path class="st0" d="M138.4,265.3h0.5v0.6h2.6v-7.1c0,0-0.3-0.7-1.6-0.7c-1,0-1.4,0.6-1.4,0.6v6.6H138.4z"/>
		<line class="st3" x1="138.4" y1="263" x2="141.5" y2="263"/>
		<line class="st3" x1="138.3" y1="264" x2="141.5" y2="264"/>
		<line class="st3" x1="138.3" y1="265.1" x2="141.5" y2="265.1"/>
		<path class="st0" d="M147.8,265.3h-0.5v0.6h-2.6v-7.1c0,0,0.3-0.7,1.6-0.7c1,0,1.4,0.6,1.4,0.6L147.8,265.3L147.8,265.3z"/>
		<line class="st3" x1="147.8" y1="263" x2="144.7" y2="263"/>
		<line class="st3" x1="147.8" y1="264" x2="144.7" y2="264"/>
		<line class="st3" x1="147.9" y1="265.1" x2="144.8" y2="265.1"/>
		<path class="st0" d="M141.6,265.9h3v-5.2c0,0-0.3-0.5-1.6-0.5c-1,0-1.4,0.5-1.4,0.5V265.9z"/>
		<path class="st4" d="M142.9,269.1h-1.1c0,0,0-4.5,0-5.8c0-0.2,0.3-0.5,0.6-0.4c0.3,0,0.6,0.3,0.6,0.4
			C142.9,264.6,142.9,269.1,142.9,269.1z"/>
		<rect x="141.8" y="266" class="st2" width="1.1" height="1.8"/>
		<path class="st4" d="M144.5,269.1h-1.2c0,0,0-4.5,0-5.8c0-0.2,0.3-0.5,0.6-0.4c0.3,0,0.6,0.3,0.6,0.4
			C144.5,264.6,144.5,269.1,144.5,269.1z"/>
		<rect x="143.4" y="266" class="st2" width="1.1" height="1.8"/>
	</g>
	<g>
		<path class="st2" d="M127.6,268.6v-0.3l1.8-1.8v-10.6c0,0-3.6,0.1-4.2-0.3c-0.6-0.4-0.7-0.6-0.7-0.6h-0.6c0,0,0,0.3-0.7,0.6
			c-0.6,0.3-4.2,0.3-4.2,0.3v10.6l1.8,1.8v0.3H127.6z"/>
		<path class="st0" d="M119.5,263.5h0.5v0.6h2.6V257c0,0-0.3-0.7-1.6-0.7c-1,0-1.4,0.6-1.4,0.6L119.5,263.5L119.5,263.5z"/>
		<line class="st3" x1="119.5" y1="261.2" x2="122.6" y2="261.2"/>
		<line class="st3" x1="119.5" y1="262.3" x2="122.6" y2="262.3"/>
		<line class="st3" x1="119.4" y1="263.4" x2="122.6" y2="263.4"/>
		<path class="st0" d="M128.9,263.5h-0.5v0.6h-2.6V257c0,0,0.3-0.7,1.6-0.7c1,0,1.4,0.6,1.4,0.6v6.6H128.9z"/>
		<line class="st3" x1="128.9" y1="261.2" x2="125.8" y2="261.2"/>
		<line class="st3" x1="129" y1="262.3" x2="125.8" y2="262.3"/>
		<line class="st3" x1="129" y1="263.4" x2="125.9" y2="263.4"/>
		<path class="st0" d="M122.7,264.1h3V259c0,0-0.3-0.5-1.6-0.5c-1,0-1.4,0.5-1.4,0.5V264.1z"/>
		<path class="st4" d="M124.1,267.3H123c0,0,0-4.5,0-5.8c0-0.2,0.3-0.5,0.6-0.4c0.3,0,0.6,0.3,0.6,0.4
			C124.1,262.9,124.1,267.3,124.1,267.3z"/>
		<rect x="122.9" y="264.2" class="st2" width="1.1" height="1.8"/>
		<path class="st4" d="M125.6,267.3h-1.2c0,0,0-4.5,0-5.8c0-0.2,0.3-0.5,0.6-0.4c0.3,0,0.6,0.3,0.6,0.4
			C125.6,262.9,125.6,267.3,125.6,267.3z"/>
		<rect x="124.5" y="264.2" class="st2" width="1.1" height="1.8"/>
	</g>
	<g>
		<path class="st2" d="M109.5,264v-0.3l1.8-1.8v-10.6c0,0-3.6,0.1-4.2-0.3c-0.6-0.3-0.7-0.6-0.7-0.6h-0.6c0,0,0,0.3-0.7,0.6
			c-0.6,0.4-4.2,0.3-4.2,0.3v10.6l1.8,1.8v0.3H109.5z"/>
		<path class="st0" d="M101.5,258.9h0.5v0.6h2.6v-7.1c0,0-0.3-0.7-1.6-0.7c-1,0-1.4,0.6-1.4,0.6L101.5,258.9L101.5,258.9z"/>
		<line class="st3" x1="101.5" y1="256.6" x2="104.5" y2="256.6"/>
		<line class="st3" x1="101.4" y1="257.6" x2="104.5" y2="257.6"/>
		<line class="st3" x1="101.3" y1="258.8" x2="104.5" y2="258.8"/>
		<path class="st0" d="M110.9,258.9h-0.5v0.6h-2.6v-7.1c0,0,0.3-0.7,1.6-0.7c1,0,1.4,0.6,1.4,0.6L110.9,258.9L110.9,258.9z"/>
		<line class="st3" x1="110.9" y1="256.6" x2="107.7" y2="256.6"/>
		<line class="st3" x1="110.9" y1="257.6" x2="107.8" y2="257.6"/>
		<line class="st3" x1="111" y1="258.8" x2="107.8" y2="258.8"/>
		<path class="st0" d="M104.7,259.5h3v-5.2c0,0-0.3-0.5-1.6-0.5c-1,0-1.4,0.5-1.4,0.5V259.5z"/>
		<path class="st4" d="M106,262.7h-1.1c0,0,0-4.5,0-5.8c0-0.2,0.3-0.5,0.6-0.4c0.3,0,0.6,0.3,0.6,0.4C106,258.2,106,262.7,106,262.7
			z"/>
		<rect x="104.9" y="259.6" class="st2" width="1.1" height="1.8"/>
		<path class="st4" d="M107.6,262.7h-1.1c0,0,0-4.5,0-5.8c0-0.2,0.3-0.5,0.6-0.4c0.3,0,0.6,0.3,0.6,0.4
			C107.6,258.2,107.6,262.7,107.6,262.7z"/>
		<rect x="106.4" y="259.6" class="st2" width="1.1" height="1.8"/>
	</g>
	<g>
		<path class="st2" d="M91.9,256v-0.3l1.8-1.8v-10.6c0,0-3.6,0.1-4.2-0.3c-0.6-0.4-0.7-0.6-0.7-0.6h-0.6c0,0,0,0.3-0.7,0.6
			c-0.6,0.3-4.2,0.3-4.2,0.3v10.6l1.8,1.8v0.3H91.9z"/>
		<path class="st0" d="M83.9,250.9h0.5v0.6H87v-7.1c0,0-0.3-0.7-1.6-0.7c-1,0-1.4,0.6-1.4,0.6L83.9,250.9L83.9,250.9L83.9,250.9z"/>
		<line class="st3" x1="83.9" y1="248.6" x2="86.9" y2="248.6"/>
		<line class="st3" x1="83.8" y1="249.7" x2="86.9" y2="249.7"/>
		<line class="st3" x1="83.7" y1="250.8" x2="86.9" y2="250.8"/>
		<path class="st0" d="M93.3,250.9h-0.5v0.6h-2.6v-7.1c0,0,0.3-0.7,1.6-0.7c1,0,1.4,0.6,1.4,0.6L93.3,250.9L93.3,250.9z"/>
		<line class="st3" x1="93.3" y1="248.6" x2="90.1" y2="248.6"/>
		<line class="st3" x1="93.3" y1="249.7" x2="90.2" y2="249.7"/>
		<line class="st3" x1="93.4" y1="250.8" x2="90.2" y2="250.8"/>
		<path class="st0" d="M87.1,251.5h3v-5.2c0,0-0.3-0.5-1.6-0.5c-1,0-1.4,0.5-1.4,0.5V251.5z"/>
		<path class="st4" d="M88.4,254.7h-1.1c0,0,0-4.5,0-5.8c0-0.2,0.3-0.5,0.6-0.4c0.3,0,0.6,0.3,0.6,0.4
			C88.4,250.3,88.4,254.7,88.4,254.7z"/>
		<rect x="87.3" y="251.6" class="st2" width="1.1" height="1.8"/>
		<path class="st4" d="M89.9,254.7h-1.1c0,0,0-4.5,0-5.8c0-0.2,0.3-0.5,0.6-0.4c0.3,0,0.6,0.3,0.6,0.4
			C89.9,250.3,89.9,254.7,89.9,254.7z"/>
		<rect x="88.8" y="251.6" class="st2" width="1.1" height="1.8"/>
	</g>
	<g>
		<path class="st2" d="M76.1,245.4v-0.3l1.8-1.8v-10.6c0,0-3.6,0.1-4.2-0.3c-0.6-0.3-0.7-0.6-0.7-0.6h-0.6c0,0,0,0.3-0.7,0.6
			c-0.6,0.3-4.2,0.3-4.2,0.3v10.6l1.8,1.8v0.3H76.1z"/>
		<path class="st0" d="M68,240.3h0.5v0.6h2.6v-7.1c0,0-0.3-0.7-1.6-0.7c-1,0-1.4,0.6-1.4,0.6L68,240.3L68,240.3L68,240.3z"/>
		<line class="st3" x1="68" y1="238.1" x2="71.1" y2="238.1"/>
		<line class="st3" x1="68" y1="239.1" x2="71.1" y2="239.1"/>
		<line class="st3" x1="67.9" y1="240.2" x2="71.1" y2="240.2"/>
		<path class="st0" d="M77.5,240.3H77v0.6h-2.6v-7.1c0,0,0.3-0.7,1.6-0.7c1,0,1.4,0.6,1.4,0.6L77.5,240.3L77.5,240.3L77.5,240.3z"/>
		<line class="st3" x1="77.5" y1="238.1" x2="74.3" y2="238.1"/>
		<line class="st3" x1="77.5" y1="239.1" x2="74.3" y2="239.1"/>
		<line class="st3" x1="77.6" y1="240.2" x2="74.4" y2="240.2"/>
		<path class="st0" d="M71.3,240.9h3v-5.1c0,0-0.3-0.5-1.6-0.5c-1,0-1.4,0.5-1.4,0.5V240.9z"/>
		<path class="st4" d="M72.6,244.2h-1.1c0,0,0-4.5,0-5.8c0-0.2,0.3-0.4,0.6-0.4s0.6,0.3,0.6,0.4C72.6,239.7,72.6,244.2,72.6,244.2z"
			/>
		<rect x="71.5" y="241.1" class="st2" width="1.1" height="1.8"/>
		<path class="st4" d="M74.1,244.2H73c0,0,0-4.5,0-5.8c0-0.2,0.3-0.4,0.6-0.4s0.6,0.3,0.6,0.4C74.1,239.7,74.1,244.2,74.1,244.2z"/>
		<rect x="73" y="241.1" class="st2" width="1.1" height="1.8"/>
	</g>
	<g>
		<path class="st2" d="M60.6,232v-0.3l1.8-1.8v-10.6c0,0-3.6,0.1-4.2-0.3c-0.6-0.4-0.7-0.6-0.7-0.6h-0.6c0,0,0,0.3-0.7,0.6
			c-0.6,0.3-4.2,0.3-4.2,0.3v10.6l1.8,1.8v0.3H60.6z"/>
		<path class="st0" d="M52.6,226.9H53v0.6h2.6v-7.1c0,0-0.3-0.7-1.6-0.7c-1,0-1.4,0.6-1.4,0.6V226.9z"/>
		<line class="st3" x1="52.6" y1="224.7" x2="55.6" y2="224.7"/>
		<line class="st3" x1="52.5" y1="225.7" x2="55.6" y2="225.7"/>
		<line class="st3" x1="52.4" y1="226.8" x2="55.6" y2="226.8"/>
		<path class="st0" d="M62,226.9h-0.5v0.6h-2.6v-7.1c0,0,0.3-0.7,1.6-0.7c1,0,1.4,0.6,1.4,0.6L62,226.9L62,226.9z"/>
		<line class="st3" x1="62" y1="224.7" x2="58.8" y2="224.7"/>
		<line class="st3" x1="62" y1="225.7" x2="58.9" y2="225.7"/>
		<line class="st3" x1="62.1" y1="226.8" x2="58.9" y2="226.8"/>
		<path class="st0" d="M55.8,227.5h3v-5.1c0,0-0.3-0.5-1.6-0.5c-1,0-1.4,0.4-1.4,0.4V227.5z"/>
		<path class="st4" d="M57.1,230.8H56c0,0,0-4.5,0-5.8c0-0.2,0.3-0.5,0.6-0.4c0.3,0,0.6,0.3,0.6,0.4
			C57.1,226.3,57.1,230.8,57.1,230.8z"/>
		<rect x="56" y="227.6" class="st2" width="1.1" height="1.8"/>
		<path class="st4" d="M58.7,230.8h-1.1c0,0,0-4.5,0-5.8c0-0.2,0.3-0.5,0.6-0.4c0.3,0,0.6,0.3,0.6,0.4
			C58.7,226.3,58.7,230.8,58.7,230.8z"/>
		<rect x="57.5" y="227.6" class="st2" width="1.1" height="1.8"/>
	</g>
	<g>
		<path class="st2" d="M49.6,217.7v-0.3l1.8-1.8V205c0,0-3.6,0.1-4.2-0.3c-0.6-0.4-0.7-0.6-0.7-0.6H46c0,0,0,0.3-0.7,0.6
			c-0.6,0.3-4.2,0.3-4.2,0.3v10.6l1.8,1.8v0.3L49.6,217.7L49.6,217.7z"/>
		<path class="st0" d="M41.6,212.6h0.5v0.6h2.6v-7.1c0,0-0.3-0.7-1.6-0.7c-1,0-1.4,0.6-1.4,0.6L41.6,212.6L41.6,212.6z"/>
		<line class="st3" x1="41.6" y1="210.4" x2="44.6" y2="210.4"/>
		<line class="st3" x1="41.5" y1="211.4" x2="44.7" y2="211.4"/>
		<line class="st3" x1="41.4" y1="212.5" x2="44.6" y2="212.5"/>
		<path class="st0" d="M51,212.6h-0.5v0.6H48v-7.1c0,0,0.3-0.7,1.6-0.7c1,0,1.4,0.6,1.4,0.6V212.6z"/>
		<line class="st3" x1="51" y1="210.4" x2="47.9" y2="210.4"/>
		<line class="st3" x1="51" y1="211.4" x2="47.9" y2="211.4"/>
		<line class="st3" x1="51.1" y1="212.5" x2="48" y2="212.5"/>
		<path class="st0" d="M44.8,213.2h3v-5.1c0,0-0.3-0.5-1.6-0.5c-1,0-1.4,0.5-1.4,0.5V213.2z"/>
		<path class="st4" d="M46.1,216.5H45c0,0,0-4.5,0-5.8c0-0.2,0.3-0.5,0.6-0.4c0.3,0,0.6,0.3,0.6,0.4C46.1,212,46.1,216.5,46.1,216.5
			z"/>
		<rect x="45" y="213.4" class="st2" width="1.1" height="1.8"/>
		<path class="st4" d="M47.7,216.5h-1.2c0,0,0-4.5,0-5.8c0-0.2,0.3-0.5,0.6-0.4c0.3,0,0.6,0.3,0.6,0.4
			C47.7,212,47.7,216.5,47.7,216.5z"/>
		<rect x="46.6" y="213.4" class="st2" width="1.1" height="1.8"/>
	</g>
	<g>
		<path class="st2" d="M40,201.7v-0.3l1.8-1.8V189c0,0-3.6,0.1-4.2-0.3c-0.6-0.4-0.7-0.6-0.7-0.6h-0.6c0,0,0,0.3-0.7,0.6
			c-0.6,0.3-4.2,0.3-4.2,0.3v10.6l1.8,1.8v0.3L40,201.7L40,201.7z"/>
		<path class="st0" d="M31.9,196.7h0.5v0.6H35v-7.1c0,0-0.3-0.7-1.6-0.7c-1,0-1.4,0.6-1.4,0.6L31.9,196.7L31.9,196.7z"/>
		<line class="st3" x1="31.9" y1="194.4" x2="35" y2="194.4"/>
		<line class="st3" x1="31.9" y1="195.4" x2="35" y2="195.4"/>
		<line class="st3" x1="31.8" y1="196.5" x2="35" y2="196.5"/>
		<path class="st0" d="M41.3,196.7h-0.5v0.6h-2.6v-7.1c0,0,0.3-0.7,1.6-0.7c1,0,1.4,0.6,1.4,0.6L41.3,196.7L41.3,196.7L41.3,196.7z"
			/>
		<line class="st3" x1="41.3" y1="194.4" x2="38.2" y2="194.4"/>
		<line class="st3" x1="41.4" y1="195.4" x2="38.2" y2="195.4"/>
		<line class="st3" x1="41.4" y1="196.5" x2="38.3" y2="196.5"/>
		<path class="st0" d="M35.1,197.3h3v-5.1c0,0-0.3-0.5-1.6-0.5c-1,0-1.4,0.5-1.4,0.5V197.3z"/>
		<path class="st4" d="M36.5,200.5h-1.2c0,0,0-4.5,0-5.8c0-0.2,0.3-0.4,0.6-0.4s0.6,0.3,0.6,0.4C36.5,196,36.5,200.5,36.5,200.5z"/>
		<rect x="35.3" y="197.4" class="st2" width="1.1" height="1.8"/>
		<path class="st4" d="M38,200.5h-1.1c0,0,0-4.5,0-5.8c0-0.2,0.3-0.4,0.6-0.4s0.6,0.3,0.6,0.4C38,196,38,200.5,38,200.5z"/>
		<rect x="36.9" y="197.4" class="st2" width="1.1" height="1.8"/>
	</g>
	<g>
		<path class="st2" d="M33.2,183.5v-0.3l1.8-1.8v-10.6c0,0-3.6,0.1-4.2-0.3c-0.6-0.4-0.7-0.6-0.7-0.6h-0.6c0,0,0,0.3-0.7,0.6
			c-0.6,0.4-4.2,0.3-4.2,0.3v10.6l1.8,1.8v0.3H33.2z"/>
		<path class="st0" d="M25.2,178.4h0.5v0.6h2.6v-7.1c0,0-0.3-0.7-1.6-0.7c-1,0-1.4,0.6-1.4,0.6L25.2,178.4L25.2,178.4L25.2,178.4z"
			/>
		<line class="st3" x1="25.2" y1="176.1" x2="28.2" y2="176.1"/>
		<line class="st3" x1="25.1" y1="177.2" x2="28.2" y2="177.2"/>
		<line class="st3" x1="25" y1="178.3" x2="28.2" y2="178.3"/>
		<path class="st0" d="M34.6,178.4h-0.5v0.6h-2.6v-7.1c0,0,0.3-0.7,1.6-0.7c1,0,1.4,0.6,1.4,0.6L34.6,178.4L34.6,178.4z"/>
		<line class="st3" x1="34.6" y1="176.1" x2="31.5" y2="176.1"/>
		<line class="st3" x1="34.6" y1="177.2" x2="31.5" y2="177.2"/>
		<line class="st3" x1="34.7" y1="178.3" x2="31.5" y2="178.3"/>
		<path class="st0" d="M28.4,179h3v-5.2c0,0-0.3-0.5-1.6-0.5c-1,0-1.4,0.5-1.4,0.5S28.4,179,28.4,179z"/>
		<path class="st4" d="M29.7,182.2h-1.2c0,0,0-4.5,0-5.8c0-0.2,0.3-0.5,0.6-0.4c0.3,0,0.6,0.3,0.6,0.4
			C29.7,177.8,29.7,182.2,29.7,182.2z"/>
		<rect x="28.6" y="179.1" class="st2" width="1.1" height="1.8"/>
		<path class="st4" d="M31.3,182.2h-1.1c0,0,0-4.5,0-5.8c0-0.2,0.3-0.5,0.6-0.4c0.3,0,0.6,0.3,0.6,0.4
			C31.3,177.8,31.3,182.2,31.3,182.2z"/>
		<rect x="30.1" y="179.1" class="st2" width="1.1" height="1.8"/>
	</g>
	<g>
		<path class="st2" d="M29.1,165.9v-0.3l1.8-1.8v-10.6c0,0-3.6,0.1-4.2-0.3c-0.6-0.4-0.7-0.6-0.7-0.6h-0.6c0,0,0,0.3-0.7,0.6
			c-0.6,0.4-4.2,0.3-4.2,0.3v10.6l1.8,1.8v0.3H29.1z"/>
		<path class="st0" d="M21.1,160.8h0.5v0.6h2.6v-7.1c0,0-0.3-0.7-1.6-0.7c-1,0-1.4,0.6-1.4,0.6L21.1,160.8L21.1,160.8z"/>
		<line class="st3" x1="21.1" y1="158.5" x2="24.1" y2="158.5"/>
		<line class="st3" x1="21" y1="159.6" x2="24.1" y2="159.6"/>
		<line class="st3" x1="20.9" y1="160.7" x2="24.1" y2="160.7"/>
		<path class="st0" d="M30.5,160.8H30v0.6h-2.6v-7.1c0,0,0.3-0.7,1.6-0.7c1,0,1.4,0.6,1.4,0.6L30.5,160.8L30.5,160.8z"/>
		<line class="st3" x1="30.5" y1="158.5" x2="27.3" y2="158.5"/>
		<line class="st3" x1="30.5" y1="159.6" x2="27.3" y2="159.6"/>
		<line class="st3" x1="30.5" y1="160.7" x2="27.4" y2="160.7"/>
		<path class="st0" d="M24.3,161.4h3v-5.2c0,0-0.3-0.5-1.6-0.5c-1,0-1.4,0.5-1.4,0.5V161.4z"/>
		<path class="st4" d="M25.6,164.6h-1.2c0,0,0-4.5,0-5.8c0-0.2,0.3-0.5,0.6-0.4c0.3,0,0.6,0.3,0.6,0.4
			C25.6,160.1,25.6,164.6,25.6,164.6z"/>
		<rect x="24.5" y="161.5" class="st2" width="1.1" height="1.8"/>
		<path class="st4" d="M27.1,164.6H26c0,0,0-4.5,0-5.8c0-0.2,0.3-0.5,0.6-0.4c0.3,0,0.6,0.3,0.6,0.4
			C27.1,160.1,27.1,164.6,27.1,164.6z"/>
		<rect x="26" y="161.5" class="st2" width="1.1" height="1.8"/>
	</g>
	<g>
		<path class="st2" d="M28.2,146.3V146l1.8-1.8v-10.6c0,0-3.6,0.1-4.2-0.3c-0.6-0.3-0.7-0.6-0.7-0.6h-0.6c0,0,0,0.3-0.7,0.6
			c-0.6,0.4-4.2,0.3-4.2,0.3v10.6l1.8,1.8v0.3H28.2z"/>
		<path class="st0" d="M20.2,141.2h0.5v0.6h2.6v-7.1c0,0-0.3-0.7-1.6-0.7c-1,0-1.4,0.6-1.4,0.6L20.2,141.2L20.2,141.2L20.2,141.2z"
			/>
		<line class="st3" x1="20.2" y1="139" x2="23.3" y2="139"/>
		<line class="st3" x1="20.1" y1="140" x2="23.3" y2="140"/>
		<line class="st3" x1="20" y1="141.1" x2="23.2" y2="141.1"/>
		<path class="st0" d="M29.6,141.2h-0.5v0.6h-2.6v-7.1c0,0,0.3-0.7,1.6-0.7c1,0,1.4,0.6,1.4,0.6L29.6,141.2L29.6,141.2z"/>
		<line class="st3" x1="29.6" y1="139" x2="26.5" y2="139"/>
		<line class="st3" x1="29.6" y1="140" x2="26.5" y2="140"/>
		<line class="st3" x1="29.7" y1="141.1" x2="26.6" y2="141.1"/>
		<path class="st0" d="M23.4,141.8h3v-5.1c0,0-0.3-0.5-1.6-0.5c-1,0-1.4,0.5-1.4,0.5V141.8z"/>
		<path class="st4" d="M24.7,145.1h-1.1c0,0,0-4.5,0-5.8c0-0.2,0.3-0.5,0.6-0.4c0.3,0,0.6,0.3,0.6,0.4
			C24.7,140.6,24.7,145.1,24.7,145.1z"/>
		<rect x="23.6" y="141.9" class="st2" width="1.1" height="1.8"/>
		<path class="st4" d="M26.3,145.1h-1.1c0,0,0-4.5,0-5.8c0-0.2,0.3-0.5,0.6-0.4c0.3,0,0.6,0.3,0.6,0.4
			C26.3,140.6,26.3,145.1,26.3,145.1z"/>
		<rect x="25.2" y="141.9" class="st2" width="1.1" height="1.8"/>
	</g>
	<g>
		<path class="st2" d="M30.4,127.8v-0.3l1.8-1.8V115c0,0-3.6,0.1-4.2-0.3c-0.6-0.3-0.7-0.6-0.7-0.6h-0.6c0,0,0,0.3-0.7,0.6
			c-0.6,0.4-4.2,0.3-4.2,0.3v10.6l1.8,1.8v0.3L30.4,127.8L30.4,127.8z"/>
		<path class="st0" d="M22.3,122.7h0.5v0.6h2.6v-7.1c0,0-0.3-0.7-1.6-0.7c-1,0-1.4,0.6-1.4,0.6L22.3,122.7L22.3,122.7z"/>
		<line class="st3" x1="22.3" y1="120.5" x2="25.4" y2="120.5"/>
		<line class="st3" x1="22.2" y1="121.5" x2="25.4" y2="121.5"/>
		<line class="st3" x1="22.1" y1="122.6" x2="25.4" y2="122.6"/>
		<path class="st0" d="M31.7,122.7h-0.5v0.6h-2.6v-7.1c0,0,0.3-0.7,1.6-0.7c1,0,1.4,0.6,1.4,0.6L31.7,122.7L31.7,122.7z"/>
		<line class="st3" x1="31.7" y1="120.5" x2="28.6" y2="120.5"/>
		<line class="st3" x1="31.7" y1="121.5" x2="28.6" y2="121.5"/>
		<line class="st3" x1="31.8" y1="122.6" x2="28.7" y2="122.6"/>
		<path class="st0" d="M25.5,123.3h3v-5.1c0,0-0.3-0.5-1.6-0.5c-1,0-1.4,0.5-1.4,0.5V123.3z"/>
		<path class="st4" d="M26.8,126.6h-1.1c0,0,0-4.5,0-5.8c0-0.1,0.3-0.4,0.6-0.4s0.6,0.3,0.6,0.4C26.8,122.1,26.8,126.6,26.8,126.6z"
			/>
		<rect x="25.7" y="123.4" class="st2" width="1.1" height="1.8"/>
		<path class="st4" d="M28.4,126.6h-1.2c0,0,0-4.5,0-5.8c0-0.1,0.3-0.4,0.6-0.4s0.6,0.3,0.6,0.4C28.4,122.1,28.4,126.6,28.4,126.6z"
			/>
		<rect x="27.3" y="123.4" class="st2" width="1.1" height="1.8"/>
	</g>
	<g>
		<path class="st2" d="M35.3,109.4v-0.3l1.8-1.8V96.6c0,0-3.6,0.1-4.2-0.3s-0.7-0.6-0.7-0.6h-0.6c0,0,0,0.3-0.7,0.6
			c-0.6,0.4-4.2,0.3-4.2,0.3v10.6l1.8,1.8v0.3L35.3,109.4L35.3,109.4z"/>
		<path class="st0" d="M27.2,104.3h0.5v0.6h2.6v-7.1c0,0-0.3-0.7-1.6-0.7c-1,0-1.4,0.6-1.4,0.6L27.2,104.3L27.2,104.3z"/>
		<line class="st3" x1="27.2" y1="102" x2="30.3" y2="102"/>
		<line class="st3" x1="27.2" y1="103.1" x2="30.3" y2="103.1"/>
		<line class="st3" x1="27.1" y1="104.2" x2="30.3" y2="104.2"/>
		<path class="st0" d="M36.6,104.3h-0.5v0.6h-2.6v-7.1c0,0,0.3-0.7,1.6-0.7c1,0,1.4,0.6,1.4,0.6L36.6,104.3L36.6,104.3z"/>
		<line class="st3" x1="36.6" y1="102" x2="33.5" y2="102"/>
		<line class="st3" x1="36.7" y1="103.1" x2="33.5" y2="103.1"/>
		<line class="st3" x1="36.7" y1="104.2" x2="33.6" y2="104.2"/>
		<path class="st0" d="M30.4,104.9h3v-5.1c0,0-0.3-0.5-1.6-0.5c-1,0-1.4,0.5-1.4,0.5V104.9z"/>
		<path class="st4" d="M31.8,108.1h-1.1c0,0,0-4.5,0-5.8c0-0.2,0.3-0.4,0.6-0.4s0.6,0.3,0.6,0.4C31.8,103.7,31.8,108.1,31.8,108.1z"
			/>
		<rect x="30.7" y="105" class="st2" width="1.1" height="1.8"/>
		<path class="st4" d="M33.3,108.1h-1.1c0,0,0-4.5,0-5.8c0-0.2,0.3-0.4,0.6-0.4s0.6,0.3,0.6,0.4C33.3,103.7,33.3,108.1,33.3,108.1z"
			/>
		<rect x="32.2" y="105" class="st2" width="1.1" height="1.8"/>
	</g>
	<g>
		<path class="st2" d="M42.8,92.3V92l1.8-1.8V79.5c0,0-3.6,0.1-4.2-0.3s-0.7-0.6-0.7-0.6h-0.6c0,0,0,0.3-0.7,0.6
			c-0.6,0.3-4.2,0.3-4.2,0.3v10.6l1.8,1.8v0.3L42.8,92.3L42.8,92.3z"/>
		<path class="st0" d="M34.7,87.2h0.5v0.6h2.6v-7.1c0,0-0.3-0.7-1.6-0.7c-1,0-1.4,0.6-1.4,0.6L34.7,87.2L34.7,87.2z"/>
		<line class="st3" x1="34.7" y1="84.9" x2="37.8" y2="84.9"/>
		<line class="st3" x1="34.7" y1="86" x2="37.8" y2="86"/>
		<line class="st3" x1="34.6" y1="87.1" x2="37.8" y2="87.1"/>
		<path class="st0" d="M44.1,87.2h-0.5v0.6H41v-7.1c0,0,0.3-0.7,1.6-0.7c1,0,1.4,0.6,1.4,0.6L44.1,87.2L44.1,87.2z"/>
		<line class="st3" x1="44.1" y1="84.9" x2="41" y2="84.9"/>
		<line class="st3" x1="44.1" y1="86" x2="41" y2="86"/>
		<line class="st3" x1="44.2" y1="87.1" x2="41.1" y2="87.1"/>
		<path class="st0" d="M37.9,87.8h3v-5.1c0,0-0.3-0.5-1.6-0.5c-1,0-1.4,0.5-1.4,0.5V87.8z"/>
		<path class="st4" d="M39.3,91.1h-1.1c0,0,0-4.5,0-5.8c0-0.2,0.3-0.4,0.6-0.4s0.6,0.3,0.6,0.4C39.3,86.6,39.3,91.1,39.3,91.1z"/>
		<rect x="38.1" y="87.9" class="st2" width="1.1" height="1.8"/>
		<path class="st4" d="M40.8,91.1h-1.1c0,0,0-4.5,0-5.8c0-0.2,0.3-0.4,0.6-0.4s0.6,0.3,0.6,0.4C40.8,86.6,40.8,91.1,40.8,91.1z"/>
		<rect x="39.7" y="87.9" class="st2" width="1.1" height="1.8"/>
	</g>
	<g>
		<path class="st2" d="M53.8,75.8v-0.3l1.8-1.8V63c0,0-3.6,0.1-4.2-0.3c-0.6-0.3-0.7-0.6-0.7-0.6h-0.6c0,0,0,0.3-0.7,0.6
			C48.8,63,45.3,63,45.3,63v10.6l1.8,1.8v0.3L53.8,75.8L53.8,75.8z"/>
		<path class="st0" d="M45.8,70.7h0.5v0.6h2.6v-7.1c0,0-0.3-0.7-1.6-0.7c-1,0-1.4,0.6-1.4,0.6L45.8,70.7L45.8,70.7z"/>
		<line class="st3" x1="45.8" y1="68.4" x2="48.8" y2="68.4"/>
		<line class="st3" x1="45.7" y1="69.5" x2="48.8" y2="69.5"/>
		<line class="st3" x1="45.6" y1="70.6" x2="48.8" y2="70.6"/>
		<path class="st0" d="M55.2,70.7h-0.5v0.6h-2.6v-7.1c0,0,0.3-0.7,1.6-0.7c1,0,1.4,0.6,1.4,0.6L55.2,70.7L55.2,70.7z"/>
		<line class="st3" x1="55.2" y1="68.4" x2="52" y2="68.4"/>
		<line class="st3" x1="55.2" y1="69.5" x2="52.1" y2="69.5"/>
		<line class="st3" x1="55.3" y1="70.6" x2="52.1" y2="70.6"/>
		<path class="st0" d="M49,71.3h3v-5.2c0,0-0.3-0.5-1.6-0.5c-1,0-1.4,0.5-1.4,0.5V71.3z"/>
		<path class="st4" d="M50.3,74.5h-1.1c0,0,0-4.5,0-5.8c0-0.2,0.3-0.5,0.6-0.4c0.3,0,0.6,0.3,0.6,0.4C50.3,70.1,50.3,74.5,50.3,74.5
			z"/>
		<rect x="49.2" y="71.4" class="st2" width="1.1" height="1.8"/>
		<path class="st4" d="M51.9,74.5h-1.1c0,0,0-4.5,0-5.8c0-0.2,0.3-0.5,0.6-0.4c0.3,0,0.6,0.3,0.6,0.4C51.9,70.1,51.9,74.5,51.9,74.5
			z"/>
		<rect x="50.7" y="71.4" class="st2" width="1.1" height="1.8"/>
	</g>
	<g>
		<path class="st2" d="M66.9,61.7v-0.3l1.8-1.8V48.9c0,0-3.6,0.1-4.2-0.3c-0.6-0.3-0.7-0.6-0.7-0.6h-0.6c0,0,0,0.3-0.7,0.6
			c-0.6,0.4-4.2,0.3-4.2,0.3v10.6l1.8,1.8v0.3h6.8L66.9,61.7L66.9,61.7z"/>
		<path class="st0" d="M58.8,56.6h0.5v0.6h2.6v-7.1c0,0-0.3-0.7-1.6-0.7c-1,0-1.4,0.6-1.4,0.6L58.8,56.6L58.8,56.6z"/>
		<line class="st5" x1="58.8" y1="54.4" x2="61.9" y2="54.4"/>
		<line class="st3" x1="58.8" y1="55.4" x2="61.9" y2="55.4"/>
		<line class="st3" x1="58.7" y1="56.5" x2="61.9" y2="56.5"/>
		<path class="st0" d="M68.2,56.6h-0.5v0.6h-2.6v-7.1c0,0,0.3-0.7,1.6-0.7c1,0,1.4,0.6,1.4,0.6L68.2,56.6L68.2,56.6z"/>
		<line class="st3" x1="68.2" y1="54.4" x2="65.1" y2="54.4"/>
		<line class="st3" x1="68.3" y1="55.4" x2="65.1" y2="55.4"/>
		<line class="st3" x1="68.3" y1="56.5" x2="65.2" y2="56.5"/>
		<path class="st0" d="M62,57.2h3V52c0,0-0.3-0.5-1.6-0.5c-1,0-1.4,0.5-1.4,0.5V57.2z"/>
		<path class="st4" d="M63.4,60.5h-1.1c0,0,0-4.5,0-5.8c0-0.2,0.3-0.4,0.6-0.4s0.6,0.3,0.6,0.4C63.4,56,63.4,60.5,63.4,60.5z"/>
		<rect x="62.2" y="57.3" class="st2" width="1.1" height="1.8"/>
		<path class="st4" d="M64.9,60.5h-1.1c0,0,0-4.5,0-5.8c0-0.2,0.3-0.4,0.6-0.4s0.6,0.3,0.6,0.4C64.9,56,64.9,60.5,64.9,60.5z"/>
		<rect x="63.8" y="57.3" class="st2" width="1.1" height="1.8"/>
	</g>
	<g>
		<path class="st2" d="M81.4,49.9v-0.3l1.8-1.8V37.1c0,0-3.6,0.1-4.2-0.3c-0.6-0.4-0.7-0.6-0.7-0.6h-0.6c0,0,0,0.3-0.7,0.6
			c-0.6,0.4-4.2,0.3-4.2,0.3v10.6l1.8,1.8v0.3h6.8L81.4,49.9L81.4,49.9z"/>
		<path class="st0" d="M73.4,44.8h0.5v0.6h2.6v-7.1c0,0-0.3-0.7-1.6-0.7c-1,0-1.4,0.6-1.4,0.6L73.4,44.8
			C73.5,44.8,73.4,44.8,73.4,44.8z"/>
		<line class="st3" x1="73.4" y1="42.6" x2="76.4" y2="42.6"/>
		<line class="st3" x1="73.3" y1="43.6" x2="76.4" y2="43.6"/>
		<line class="st3" x1="73.2" y1="44.7" x2="76.4" y2="44.7"/>
		<path class="st0" d="M82.8,44.8h-0.5v0.6h-2.6v-7.1c0,0,0.3-0.7,1.6-0.7c1,0,1.4,0.6,1.4,0.6L82.8,44.8L82.8,44.8z"/>
		<line class="st3" x1="82.8" y1="42.6" x2="79.7" y2="42.6"/>
		<line class="st3" x1="82.8" y1="43.6" x2="79.7" y2="43.6"/>
		<line class="st3" x1="82.9" y1="44.7" x2="79.8" y2="44.7"/>
		<path class="st0" d="M76.6,45.4h3v-5.1c0,0-0.3-0.5-1.6-0.5c-1,0-1.4,0.5-1.4,0.5V45.4z"/>
		<path class="st4" d="M77.9,48.7h-1.1c0,0,0-4.5,0-5.8c0-0.2,0.3-0.4,0.6-0.4s0.6,0.3,0.6,0.4C77.9,44.2,77.9,48.7,77.9,48.7z"/>
		<rect x="76.8" y="45.5" class="st2" width="1.1" height="1.8"/>
		<path class="st4" d="M79.5,48.7h-1.1c0,0,0-4.5,0-5.8c0-0.2,0.3-0.4,0.6-0.4s0.6,0.3,0.6,0.4C79.5,44.2,79.5,48.7,79.5,48.7z"/>
		<rect x="78.4" y="45.5" class="st2" width="1.1" height="1.8"/>
	</g>
	<path class="st2" d="M98.1,40.6v-0.3l1.8-1.8V27.8c0,0-3.6,0.1-4.2-0.3S95,26.9,95,26.9h-0.6c0,0,0,0.3-0.7,0.6
		c-0.6,0.3-4.2,0.3-4.2,0.3v10.6l1.8,1.8v0.3L98.1,40.6L98.1,40.6z"/>
	<path class="st0" d="M90.1,35.5h0.5v0.6h2.6V29c0,0-0.3-0.7-1.6-0.7c-1,0-1.4,0.6-1.4,0.6L90.1,35.5L90.1,35.5z"/>
	<line class="st3" x1="90.1" y1="33.2" x2="93.1" y2="33.2"/>
	<line class="st3" x1="90" y1="34.3" x2="93.1" y2="34.3"/>
	<line class="st3" x1="89.9" y1="35.4" x2="93.1" y2="35.4"/>
	<path class="st0" d="M99.5,35.5H99v0.6h-2.6V29c0,0,0.3-0.7,1.6-0.7c1,0,1.4,0.6,1.4,0.6L99.5,35.5L99.5,35.5z"/>
	<line class="st3" x1="99.5" y1="33.2" x2="96.4" y2="33.2"/>
	<line class="st3" x1="99.5" y1="34.3" x2="96.4" y2="34.3"/>
	<line class="st3" x1="99.6" y1="35.4" x2="96.5" y2="35.4"/>
	<path class="st0" d="M93.3,36.1h3V31c0,0-0.3-0.5-1.6-0.5c-1,0-1.4,0.5-1.4,0.5V36.1z"/>
	<path class="st4" d="M94.6,39.3h-1.1c0,0,0-4.5,0-5.8c0-0.2,0.3-0.5,0.6-0.4c0.3,0,0.6,0.3,0.6,0.4C94.6,34.9,94.6,39.3,94.6,39.3z
		"/>
	<rect x="93.5" y="36.2" class="st2" width="1.1" height="1.8"/>
	<path class="st4" d="M96.2,39.3H95c0,0,0-4.5,0-5.8c0-0.2,0.3-0.5,0.6-0.4c0.3,0,0.6,0.3,0.6,0.4C96.2,34.9,96.2,39.3,96.2,39.3z"
		/>
	<rect x="95.1" y="36.2" class="st2" width="1.1" height="1.8"/>
	<g>
		<path class="st2" d="M115.2,34.2v-0.3L117,32V21.4c0,0-3.6,0.1-4.2-0.3s-0.7-0.6-0.7-0.6h-0.6c0,0,0,0.3-0.7,0.6
			c-0.6,0.3-4.2,0.3-4.2,0.3V32l1.8,1.8v0.3h6.8L115.2,34.2L115.2,34.2z"/>
		<path class="st0" d="M107.1,29.1h0.5v0.6h2.6v-7.1c0,0-0.3-0.7-1.6-0.7c-1,0-1.4,0.6-1.4,0.6L107.1,29.1L107.1,29.1z"/>
		<line class="st3" x1="107.1" y1="26.8" x2="110.2" y2="26.8"/>
		<line class="st3" x1="107" y1="27.9" x2="110.2" y2="27.9"/>
		<line class="st3" x1="106.9" y1="29" x2="110.2" y2="29"/>
		<path class="st0" d="M116.5,29.1H116v0.6h-2.6v-7.1c0,0,0.3-0.7,1.6-0.7c1,0,1.4,0.6,1.4,0.6L116.5,29.1L116.5,29.1z"/>
		<line class="st3" x1="116.5" y1="26.8" x2="113.4" y2="26.8"/>
		<line class="st3" x1="116.5" y1="27.9" x2="113.4" y2="27.9"/>
		<line class="st3" x1="116.6" y1="29" x2="113.5" y2="29"/>
		<path class="st0" d="M110.3,29.7h3v-5.2c0,0-0.3-0.5-1.6-0.5c-1,0-1.4,0.5-1.4,0.5V29.7z"/>
		<path class="st4" d="M111.7,32.9h-1.2c0,0,0-4.5,0-5.8c0-0.2,0.3-0.5,0.6-0.4c0.3,0,0.6,0.3,0.6,0.4
			C111.7,28.5,111.7,32.9,111.7,32.9z"/>
		<rect x="110.5" y="29.8" class="st2" width="1.1" height="1.8"/>
		<path class="st4" d="M113.2,32.9H112c0,0,0-4.5,0-5.8c0-0.2,0.3-0.5,0.6-0.4c0.3,0,0.6,0.3,0.6,0.4
			C113.2,28.5,113.2,32.9,113.2,32.9z"/>
		<rect x="112.1" y="29.8" class="st2" width="1.1" height="1.8"/>
	</g>
	<g>
		<path class="st2" d="M133.7,30.5v-0.3l1.8-1.8V17.7c0,0-3.6,0.1-4.2-0.3s-0.7-0.6-0.7-0.6H130c0,0,0,0.3-0.7,0.6
			c-0.6,0.3-4.2,0.3-4.2,0.3v10.6l1.8,1.8v0.3h6.8L133.7,30.5L133.7,30.5z"/>
		<path class="st0" d="M125.6,25.4h0.5V26h2.6v-7c0,0-0.3-0.7-1.6-0.7c-1,0-1.4,0.6-1.4,0.6L125.6,25.4L125.6,25.4z"/>
		<line class="st3" x1="125.6" y1="23.2" x2="128.7" y2="23.2"/>
		<line class="st3" x1="125.6" y1="24.2" x2="128.7" y2="24.2"/>
		<line class="st3" x1="125.5" y1="25.3" x2="128.7" y2="25.3"/>
		<path class="st0" d="M135,25.4h-0.5V26H132v-7c0,0,0.3-0.7,1.6-0.7c1,0,1.4,0.6,1.4,0.6V25.4z"/>
		<line class="st3" x1="135" y1="23.2" x2="131.9" y2="23.2"/>
		<line class="st3" x1="135.1" y1="24.2" x2="131.9" y2="24.2"/>
		<line class="st3" x1="135.1" y1="25.3" x2="132" y2="25.3"/>
		<path class="st0" d="M128.8,26h3v-5.1c0,0-0.3-0.5-1.6-0.5c-1,0-1.4,0.5-1.4,0.5V26z"/>
		<path class="st4" d="M130.2,29.3H129c0,0,0-4.5,0-5.8c0-0.2,0.3-0.5,0.6-0.4c0.3,0,0.6,0.3,0.6,0.4
			C130.2,24.8,130.2,29.3,130.2,29.3z"/>
		<rect x="129" y="26.1" class="st2" width="1.1" height="1.8"/>
		<path class="st4" d="M131.7,29.3h-1.1c0,0,0-4.5,0-5.8c0-0.2,0.3-0.5,0.6-0.4c0.3,0,0.6,0.3,0.6,0.4
			C131.7,24.8,131.7,29.3,131.7,29.3z"/>
		<rect x="130.6" y="26.1" class="st2" width="1.1" height="1.8"/>
	</g>
	<g>
		<path class="st2" d="M190,36.6v-0.3l1.8-1.8V23.8c0,0-3.6,0.1-4.2-0.3s-0.7-0.6-0.7-0.6h-0.6c0,0,0,0.3-0.7,0.6
			c-0.6,0.4-4.2,0.3-4.2,0.3v10.6l1.8,1.8v0.3L190,36.6L190,36.6z"/>
		<path class="st0" d="M182,31.5h0.5v0.6h2.6V25c0,0-0.3-0.7-1.6-0.7c-1,0-1.4,0.6-1.4,0.6v6.6H182z"/>
		<line class="st3" x1="182" y1="29.2" x2="185" y2="29.2"/>
		<line class="st3" x1="181.9" y1="30.3" x2="185.1" y2="30.3"/>
		<line class="st3" x1="181.8" y1="31.4" x2="185" y2="31.4"/>
		<path class="st0" d="M191.4,31.5h-0.5v0.6h-2.6V25c0,0,0.3-0.7,1.6-0.7c1,0,1.4,0.6,1.4,0.6v6.6H191.4z"/>
		<line class="st3" x1="191.4" y1="29.2" x2="188.3" y2="29.2"/>
		<line class="st3" x1="191.4" y1="30.3" x2="188.3" y2="30.3"/>
		<line class="st3" x1="191.5" y1="31.4" x2="188.4" y2="31.4"/>
		<path class="st0" d="M185.2,32.1h3v-5.2c0,0-0.3-0.5-1.6-0.5c-1,0-1.4,0.5-1.4,0.5V32.1z"/>
		<path class="st4" d="M186.5,35.3h-1.2c0,0,0-4.5,0-5.8c0-0.2,0.3-0.4,0.6-0.4s0.6,0.3,0.6,0.4C186.5,30.9,186.5,35.3,186.5,35.3z"
			/>
		<path class="st4" d="M188.1,35.3h-1.2c0,0,0-4.5,0-5.8c0-0.2,0.3-0.4,0.6-0.4s0.6,0.3,0.6,0.4C188.1,30.9,188.1,35.3,188.1,35.3z"
			/>
	</g>
</g>
<rect x="185.4" y="32.2" class="st2" width="1.1" height="1.8"/>
<rect x="187" y="32.2" class="st2" width="1.1" height="1.8"/>
<rect x="201.9" y="39.3" class="st2" width="1.1" height="1.8"/>
</svg>
