<?xml version="1.0" encoding="utf-8"?>
<!-- Generator: Adobe Illustrator 20.1.0, SVG Export Plug-In . SVG Version: 6.00 Build 0)  -->
<svg version="1.1" id="Layer_1" xmlns="http://www.w3.org/2000/svg" xmlns:xlink="http://www.w3.org/1999/xlink" x="0px" y="0px"
	 viewBox="0 0 596 300" style="enable-background:new 0 0 596 300;" xml:space="preserve">
<style type="text/css">
	.st0{fill:#681E44;}
	.st1{fill:none;stroke:#EC268B;stroke-width:0.6756;}
	.st2{fill:#EC258B;}
	.st3{fill:none;stroke:#EC268B;stroke-width:0.1351;}
	.st4{fill:#681E44;stroke:#EC218B;stroke-width:0.135;stroke-miterlimit:10;}
	.st5{fill:none;stroke:#EC268B;stroke-width:0.135;}
</style>
<rect x="0" y="0.1" class="st0" width="596.1" height="300"/>
<g>
	<ellipse class="st1" cx="297.8" cy="136.2" rx="121" ry="120.6"/>
	<path class="st1" d="M378.5,136.1c0,44.4-36.1,80.4-80.7,80.4s-80.7-36-80.7-80.4s36.1-80.4,80.7-80.4
		C342.4,55.7,378.5,91.7,378.5,136.1z"/>
	<ellipse class="st1" cx="297.9" cy="136.2" rx="76.7" ry="76.5"/>
	<ellipse class="st1" cx="298.1" cy="136.3" rx="36.4" ry="36.2"/>
	<ellipse class="st1" cx="298" cy="136.2" rx="33.5" ry="33.4"/>
	<line class="st1" x1="263.6" y1="20.3" x2="332.5" y2="252.1"/>
	<line class="st1" x1="282.2" y1="16.3" x2="313.8" y2="256.2"/>
	<line class="st1" x1="300.6" y1="16" x2="295.1" y2="256.6"/>
	<line class="st1" x1="246.5" y1="26.7" x2="350.2" y2="245.1"/>
	<line class="st1" x1="320" y1="17.8" x2="276.3" y2="254.9"/>
	<line class="st1" x1="230" y1="36" x2="366.1" y2="235.4"/>
	<line class="st1" x1="215.3" y1="47.9" x2="381" y2="223"/>
	<line class="st1" x1="202.4" y1="61.9" x2="393.9" y2="209.4"/>
	<line class="st1" x1="191.1" y1="78.4" x2="404.3" y2="193.5"/>
	<line class="st1" x1="184.1" y1="95.7" x2="412" y2="176.2"/>
	<line class="st1" x1="178.9" y1="114.1" x2="417.1" y2="157.9"/>
	<line class="st1" x1="176.9" y1="132.5" x2="418.5" y2="139.8"/>
	<line class="st1" x1="177.9" y1="152.2" x2="417.8" y2="120.7"/>
	<line class="st1" x1="182.1" y1="169.6" x2="413.6" y2="101.6"/>
	<line class="st1" x1="188.3" y1="188.3" x2="407" y2="84.6"/>
	<line class="st1" x1="198" y1="204.1" x2="397.3" y2="68"/>
	<line class="st1" x1="209.4" y1="218.1" x2="385.9" y2="53.4"/>
	<line class="st1" x1="224.7" y1="231.6" x2="372" y2="40.6"/>
	<line class="st1" x1="240.3" y1="242.7" x2="355.4" y2="29.9"/>
	<line class="st1" x1="258" y1="250" x2="338.7" y2="22.6"/>
	<polygon class="st2" points="291.8,139.3 219.1,284.4 232.5,284.4 295.8,141.4 	"/>
	<polygon class="st2" points="303.7,139.3 376.4,284.4 363.1,284.4 299.7,141.4 	"/>
	<path class="st2" d="M308.7,135.9c0,5.9-4.7,10.6-10.6,10.6c-5.8,0-10.6-4.7-10.6-10.6c0-5.9,4.7-10.6,10.6-10.6
		C303.9,125.3,308.7,130.1,308.7,135.9z"/>
	<g>
		<path class="st2" d="M303.9,29.6v-0.3l1.8-1.8V16.8c0,0-3.5,0.1-4.2-0.3c-0.6-0.4-0.7-0.6-0.7-0.6h-0.6c0,0,0,0.3-0.7,0.6
			c-0.6,0.3-4.2,0.3-4.2,0.3v10.6l1.8,1.8v0.3h6.8L303.9,29.6L303.9,29.6z"/>
		<path class="st0" d="M295.9,24.5h0.5v0.6h2.6V18c0,0-0.3-0.7-1.6-0.7c-1,0-1.4,0.6-1.4,0.6v6.6H295.9z"/>
		<line class="st3" x1="295.9" y1="22.3" x2="298.9" y2="22.3"/>
		<line class="st3" x1="295.8" y1="23.3" x2="298.9" y2="23.3"/>
		<line class="st3" x1="295.7" y1="24.4" x2="298.9" y2="24.4"/>
		<path class="st0" d="M305.3,24.5h-0.5v0.6h-2.6V18c0,0,0.3-0.7,1.6-0.7c1,0,1.4,0.6,1.4,0.6L305.3,24.5L305.3,24.5z"/>
		<line class="st3" x1="305.3" y1="22.3" x2="302.1" y2="22.3"/>
		<line class="st3" x1="305.3" y1="23.3" x2="302.1" y2="23.3"/>
		<line class="st3" x1="305.4" y1="24.4" x2="302.2" y2="24.4"/>
		<path class="st0" d="M299.1,25.1h3V20c0,0-0.3-0.5-1.6-0.5c-1,0-1.4,0.5-1.4,0.5V25.1z"/>
		<path class="st4" d="M300.4,28.4h-1.2c0,0,0-4.5,0-5.8c0-0.2,0.3-0.5,0.6-0.4c0.3,0,0.6,0.3,0.6,0.4
			C300.4,23.9,300.4,28.4,300.4,28.4z"/>
		<rect x="299.3" y="25.2" class="st2" width="1.1" height="1.8"/>
		<path class="st4" d="M301.9,28.4h-1.1c0,0,0-4.5,0-5.8c0-0.2,0.3-0.5,0.6-0.4c0.3,0,0.6,0.3,0.6,0.4
			C301.9,23.9,301.9,28.4,301.9,28.4z"/>
		<rect x="300.8" y="25.2" class="st2" width="1.1" height="1.8"/>
	</g>
	<g>
		<path class="st2" d="M323.5,31.6v-0.3l1.8-1.8V18.8c0,0-3.6,0.1-4.2-0.3s-0.7-0.6-0.7-0.6h-0.6c0,0,0,0.3-0.7,0.6
			c-0.6,0.3-4.2,0.3-4.2,0.3v10.6l1.8,1.8v0.3h6.8V31.6L323.5,31.6z"/>
		<path class="st0" d="M315.4,26.5h0.5v0.6h2.6V20c0,0-0.3-0.7-1.6-0.7c-1,0-1.4,0.6-1.4,0.6v6.6H315.4z"/>
		<line class="st3" x1="315.4" y1="24.2" x2="318.5" y2="24.2"/>
		<line class="st3" x1="315.4" y1="25.3" x2="318.5" y2="25.3"/>
		<line class="st3" x1="315.3" y1="26.4" x2="318.5" y2="26.4"/>
		<path class="st0" d="M324.8,26.5h-0.5v0.6h-2.6V20c0,0,0.3-0.7,1.6-0.7c1,0,1.4,0.6,1.4,0.6L324.8,26.5L324.8,26.5z"/>
		<line class="st3" x1="324.8" y1="24.2" x2="321.7" y2="24.2"/>
		<line class="st3" x1="324.9" y1="25.3" x2="321.7" y2="25.3"/>
		<line class="st3" x1="324.9" y1="26.4" x2="321.8" y2="26.4"/>
		<path class="st0" d="M318.6,27.1h3V22c0,0-0.3-0.5-1.6-0.5c-1,0-1.4,0.5-1.4,0.5V27.1z"/>
		<path class="st4" d="M320,30.3h-1.1c0,0,0-4.5,0-5.8c0-0.2,0.3-0.4,0.6-0.4s0.6,0.3,0.6,0.4C320,25.9,320,30.3,320,30.3z"/>
		<rect x="318.9" y="27.2" class="st2" width="1.1" height="1.8"/>
		<path class="st4" d="M321.5,30.3h-1.1c0,0,0-4.5,0-5.8c0-0.2,0.3-0.4,0.6-0.4s0.6,0.3,0.6,0.4C321.5,25.9,321.5,30.3,321.5,30.3z"
			/>
		<rect x="320.4" y="27.2" class="st2" width="1.1" height="1.8"/>
	</g>
	<rect x="353.9" y="39.3" class="st2" width="1.1" height="1.8"/>
	<g>
		<path class="st2" d="M358.5,43.7v-0.3l1.8-1.8V30.9c0,0-3.6,0.1-4.2-0.3s-0.7-0.6-0.7-0.6h-0.6c0,0,0,0.3-0.7,0.6
			c-0.6,0.4-4.2,0.3-4.2,0.3v10.6l1.8,1.8v0.3h6.8L358.5,43.7L358.5,43.7z"/>
		<path class="st0" d="M350.5,38.6h0.5v0.6h2.6v-7.1c0,0-0.3-0.7-1.6-0.7c-1,0-1.4,0.6-1.4,0.6v6.6H350.5z"/>
		<line class="st3" x1="350.5" y1="36.3" x2="353.5" y2="36.3"/>
		<line class="st3" x1="350.4" y1="37.3" x2="353.5" y2="37.3"/>
		<line class="st3" x1="350.3" y1="38.5" x2="353.5" y2="38.5"/>
		<path class="st0" d="M359.9,38.6h-0.5v0.6h-2.6v-7.1c0,0,0.3-0.7,1.6-0.7c1,0,1.4,0.6,1.4,0.6v6.6H359.9z"/>
		<line class="st3" x1="359.9" y1="36.3" x2="356.7" y2="36.3"/>
		<line class="st3" x1="359.9" y1="37.3" x2="356.8" y2="37.3"/>
		<line class="st3" x1="360" y1="38.5" x2="356.8" y2="38.5"/>
		<path class="st0" d="M353.7,39.2h3V34c0,0-0.3-0.5-1.6-0.5c-1,0-1.4,0.5-1.4,0.5V39.2z"/>
		<path class="st4" d="M355,42.4h-1.1c0,0,0-4.5,0-5.8c0-0.2,0.3-0.4,0.6-0.4s0.6,0.3,0.6,0.4C355,37.9,355,42.4,355,42.4z"/>
		<path class="st4" d="M356.5,42.4h-1.1c0,0,0-4.5,0-5.8c0-0.2,0.3-0.4,0.6-0.4s0.6,0.3,0.6,0.4C356.5,37.9,356.5,42.4,356.5,42.4z"
			/>
	</g>
	<rect x="355.4" y="39.3" class="st2" width="1.1" height="1.8"/>
	<g>
		<path class="st2" d="M375.2,54.6v-0.3l1.8-1.8V41.8c0,0-3.6,0.1-4.2-0.3c-0.6-0.3-0.7-0.6-0.7-0.6h-0.6c0,0,0,0.3-0.7,0.6
			c-0.6,0.4-4.2,0.3-4.2,0.3v10.6l1.8,1.8v0.3L375.2,54.6L375.2,54.6z"/>
		<path class="st0" d="M367.2,49.5h0.5v0.6h2.6V43c0,0-0.3-0.7-1.6-0.7c-1,0-1.4,0.6-1.4,0.6L367.2,49.5L367.2,49.5z"/>
		<line class="st3" x1="367.2" y1="47.2" x2="370.2" y2="47.2"/>
		<line class="st3" x1="367.1" y1="48.2" x2="370.3" y2="48.2"/>
		<line class="st3" x1="367" y1="49.4" x2="370.2" y2="49.4"/>
		<path class="st0" d="M376.6,49.5h-0.5v0.6h-2.6V43c0,0,0.3-0.7,1.6-0.7c1,0,1.4,0.6,1.4,0.6v6.6C376.5,49.5,376.6,49.5,376.6,49.5
			z"/>
		<line class="st3" x1="376.6" y1="47.2" x2="373.5" y2="47.2"/>
		<line class="st3" x1="376.6" y1="48.2" x2="373.5" y2="48.2"/>
		<line class="st3" x1="376.7" y1="49.4" x2="373.6" y2="49.4"/>
		<path class="st0" d="M370.4,50.1h3v-5.2c0,0-0.3-0.5-1.6-0.5c-1,0-1.4,0.5-1.4,0.5V50.1z"/>
		<path class="st4" d="M371.7,53.3h-1.1c0,0,0-4.5,0-5.8c0-0.2,0.3-0.5,0.6-0.4c0.3,0,0.6,0.3,0.6,0.4
			C371.7,48.8,371.7,53.3,371.7,53.3z"/>
		<rect x="370.6" y="50.2" class="st2" width="1.1" height="1.8"/>
		<path class="st4" d="M373.3,53.3h-1.1c0,0,0-4.5,0-5.8c0-0.2,0.3-0.5,0.6-0.4c0.3,0,0.6,0.3,0.6,0.4
			C373.3,48.8,373.3,53.3,373.3,53.3z"/>
		<rect x="372.2" y="50.2" class="st2" width="1.1" height="1.8"/>
	</g>
	<g>
		<path class="st2" d="M389,67.6v-0.3l1.8-1.8V54.8c0,0-3.6,0.1-4.2-0.3c-0.6-0.3-0.7-0.6-0.7-0.6h-0.6c0,0,0,0.3-0.7,0.6
			c-0.6,0.4-4.2,0.3-4.2,0.3v10.6l1.8,1.8v0.3L389,67.6L389,67.6z"/>
		<path class="st0" d="M381,62.5h0.5v0.6h2.6V56c0,0-0.3-0.7-1.6-0.7c-1,0-1.4,0.6-1.4,0.6v6.6C381.1,62.5,381,62.5,381,62.5z"/>
		<line class="st3" x1="381" y1="60.3" x2="384" y2="60.3"/>
		<line class="st3" x1="380.9" y1="61.3" x2="384.1" y2="61.3"/>
		<line class="st3" x1="380.8" y1="62.4" x2="384" y2="62.4"/>
		<path class="st0" d="M390.4,62.5h-0.5v0.6h-2.6V56c0,0,0.3-0.7,1.6-0.7c1,0,1.4,0.6,1.4,0.6v6.6C390.3,62.5,390.4,62.5,390.4,62.5
			z"/>
		<line class="st3" x1="390.4" y1="60.3" x2="387.3" y2="60.3"/>
		<line class="st3" x1="390.4" y1="61.3" x2="387.3" y2="61.3"/>
		<line class="st3" x1="390.5" y1="62.4" x2="387.4" y2="62.4"/>
		<path class="st0" d="M384.2,63.1h3V58c0,0-0.3-0.5-1.6-0.5c-1,0-1.4,0.5-1.4,0.5V63.1z"/>
		<path class="st4" d="M385.5,66.4h-1.1c0,0,0-4.5,0-5.8c0-0.2,0.3-0.4,0.6-0.4s0.6,0.3,0.6,0.4C385.5,61.9,385.5,66.4,385.5,66.4z"
			/>
		<rect x="384.4" y="63.2" class="st2" width="1.1" height="1.8"/>
		<path class="st4" d="M387.1,66.4h-1.2c0,0,0-4.5,0-5.8c0-0.2,0.3-0.4,0.6-0.4c0.3,0,0.6,0.3,0.6,0.4
			C387.1,61.9,387.1,66.4,387.1,66.4z"/>
		<rect x="386" y="63.2" class="st2" width="1.1" height="1.8"/>
	</g>
	<g>
		<path class="st2" d="M400.9,81.8v-0.3l1.8-1.8V68.9c0,0-3.6,0.1-4.2-0.3c-0.6-0.3-0.7-0.6-0.7-0.6h-0.6c0,0,0,0.3-0.7,0.6
			c-0.6,0.3-4.2,0.3-4.2,0.3v10.6l1.8,1.8v0.3h6.8L400.9,81.8L400.9,81.8z"/>
		<path class="st0" d="M392.9,76.7h0.5v0.6h2.6v-7.1c0,0-0.3-0.7-1.6-0.7c-1,0-1.4,0.6-1.4,0.6v6.6H392.9z"/>
		<line class="st3" x1="392.9" y1="74.4" x2="395.9" y2="74.4"/>
		<line class="st3" x1="392.8" y1="75.4" x2="395.9" y2="75.4"/>
		<line class="st3" x1="392.7" y1="76.5" x2="395.9" y2="76.5"/>
		<path class="st0" d="M402.3,76.7h-0.5v0.6h-2.6v-7.1c0,0,0.3-0.7,1.6-0.7c1,0,1.4,0.6,1.4,0.6L402.3,76.7L402.3,76.7z"/>
		<line class="st3" x1="402.3" y1="74.4" x2="399.1" y2="74.4"/>
		<line class="st3" x1="402.3" y1="75.4" x2="399.2" y2="75.4"/>
		<line class="st3" x1="402.4" y1="76.5" x2="399.2" y2="76.5"/>
		<path class="st0" d="M396.1,77.3h3v-5.2c0,0-0.3-0.5-1.6-0.5c-1,0-1.4,0.5-1.4,0.5V77.3z"/>
		<path class="st4" d="M397.4,80.5h-1.1c0,0,0-4.5,0-5.8c0-0.2,0.3-0.5,0.6-0.4c0.3,0,0.6,0.3,0.6,0.4
			C397.4,76,397.4,80.5,397.4,80.5z"/>
		<rect x="396.3" y="77.4" class="st2" width="1.1" height="1.8"/>
		<path class="st4" d="M399,80.5h-1.2c0,0,0-4.5,0-5.8c0-0.2,0.3-0.5,0.6-0.4c0.3,0,0.6,0.3,0.6,0.4C399,76,399,80.5,399,80.5z"/>
		<rect x="397.8" y="77.4" class="st2" width="1.1" height="1.8"/>
	</g>
	<g>
		<path class="st2" d="M410.4,98.5v-0.3l1.8-1.8V85.7c0,0-3.6,0.1-4.2-0.3c-0.6-0.3-0.7-0.6-0.7-0.6h-0.6c0,0,0,0.3-0.7,0.6
			c-0.6,0.3-4.2,0.3-4.2,0.3v10.6l1.8,1.8v0.3L410.4,98.5L410.4,98.5z"/>
		<path class="st0" d="M402.3,93.4h0.5V94h2.6v-7.1c0,0-0.3-0.7-1.6-0.7c-1,0-1.4,0.6-1.4,0.6v6.6H402.3z"/>
		<line class="st3" x1="402.3" y1="91.1" x2="405.4" y2="91.1"/>
		<line class="st3" x1="402.3" y1="92.2" x2="405.4" y2="92.2"/>
		<line class="st3" x1="402.2" y1="93.3" x2="405.4" y2="93.3"/>
		<path class="st0" d="M411.7,93.4h-0.5V94h-2.6v-7.1c0,0,0.3-0.7,1.6-0.7c1,0,1.4,0.6,1.4,0.6v6.6H411.7z"/>
		<line class="st3" x1="411.7" y1="91.1" x2="408.6" y2="91.1"/>
		<line class="st3" x1="411.8" y1="92.2" x2="408.6" y2="92.2"/>
		<line class="st3" x1="411.8" y1="93.3" x2="408.7" y2="93.3"/>
		<path class="st0" d="M405.5,94h3v-5.2c0,0-0.3-0.5-1.6-0.5c-1,0-1.4,0.4-1.4,0.4V94z"/>
		<path class="st4" d="M406.9,97.2h-1.1c0,0,0-4.5,0-5.8c0-0.2,0.3-0.5,0.6-0.4c0.3,0,0.6,0.3,0.6,0.4
			C406.9,92.8,406.9,97.2,406.9,97.2z"/>
		<rect x="405.7" y="94.1" class="st2" width="1.1" height="1.8"/>
		<path class="st4" d="M408.4,97.2h-1.1c0,0,0-4.5,0-5.8c0-0.2,0.3-0.5,0.6-0.4c0.3,0,0.6,0.3,0.6,0.4
			C408.4,92.8,408.4,97.2,408.4,97.2z"/>
		<rect x="407.3" y="94.1" class="st2" width="1.1" height="1.8"/>
	</g>
	<g>
		<path class="st2" d="M416.9,115.5v-0.3l1.8-1.8v-10.6c0,0-3.6,0.1-4.2-0.3c-0.6-0.3-0.7-0.6-0.7-0.6h-0.6c0,0,0,0.3-0.7,0.6
			c-0.6,0.3-4.2,0.3-4.2,0.3v10.6l1.8,1.8v0.3H416.9z"/>
		<path class="st0" d="M408.8,110.4h0.5v0.6h2.6v-7.1c0,0-0.3-0.7-1.6-0.7c-1,0-1.4,0.6-1.4,0.6v6.6H408.8z"/>
		<line class="st3" x1="408.8" y1="108.1" x2="411.9" y2="108.1"/>
		<line class="st3" x1="408.8" y1="109.2" x2="411.9" y2="109.2"/>
		<line class="st3" x1="408.7" y1="110.3" x2="411.9" y2="110.3"/>
		<path class="st0" d="M418.2,110.4h-0.5v0.6h-2.6v-7.1c0,0,0.3-0.7,1.6-0.7c1,0,1.4,0.6,1.4,0.6v6.6H418.2z"/>
		<line class="st3" x1="418.2" y1="108.1" x2="415.1" y2="108.1"/>
		<line class="st3" x1="418.3" y1="109.2" x2="415.1" y2="109.2"/>
		<line class="st3" x1="418.3" y1="110.3" x2="415.2" y2="110.3"/>
		<path class="st0" d="M412,111h3v-5.2c0,0-0.3-0.5-1.6-0.5c-1,0-1.4,0.5-1.4,0.5V111z"/>
		<path class="st4" d="M413.4,114.2h-1.1c0,0,0-4.5,0-5.8c0-0.2,0.3-0.5,0.6-0.4c0.3,0,0.6,0.3,0.6,0.4
			C413.4,109.8,413.4,114.2,413.4,114.2z"/>
		<rect x="412.2" y="111.1" class="st2" width="1.1" height="1.8"/>
		<path class="st4" d="M414.9,114.2h-1.1c0,0,0-4.5,0-5.8c0-0.2,0.3-0.5,0.6-0.4c0.3,0,0.6,0.3,0.6,0.4
			C414.9,109.8,414.9,114.2,414.9,114.2z"/>
		<rect x="413.8" y="111.1" class="st2" width="1.1" height="1.8"/>
	</g>
	<g>
		<path class="st2" d="M421.1,134.5v-0.3l1.8-1.8v-10.6c0,0-3.6,0.1-4.2-0.3s-0.7-0.6-0.7-0.6h-0.6c0,0,0,0.3-0.7,0.6
			c-0.6,0.3-4.2,0.3-4.2,0.3v10.6l1.8,1.8v0.3H421.1z"/>
		<path class="st0" d="M413.1,129.5h0.5v0.6h2.6V123c0,0-0.3-0.7-1.6-0.7c-1,0-1.4,0.6-1.4,0.6v6.6H413.1z"/>
		<line class="st3" x1="413.1" y1="127.2" x2="416.2" y2="127.2"/>
		<line class="st3" x1="413" y1="128.2" x2="416.2" y2="128.2"/>
		<line class="st3" x1="412.9" y1="129.3" x2="416.1" y2="129.3"/>
		<path class="st0" d="M422.5,129.5H422v0.6h-2.6V123c0,0,0.3-0.7,1.6-0.7c1,0,1.4,0.6,1.4,0.6v6.6H422.5z"/>
		<line class="st3" x1="422.5" y1="127.2" x2="419.4" y2="127.2"/>
		<line class="st3" x1="422.5" y1="128.2" x2="419.4" y2="128.2"/>
		<line class="st3" x1="422.6" y1="129.3" x2="419.5" y2="129.3"/>
		<path class="st0" d="M416.3,130h3v-5.1c0,0-0.3-0.5-1.6-0.5c-1,0-1.4,0.5-1.4,0.5V130z"/>
		<path class="st4" d="M417.6,133.3h-1.1c0,0,0-4.5,0-5.8c0-0.2,0.3-0.5,0.6-0.4c0.3,0,0.6,0.3,0.6,0.4
			C417.6,128.8,417.6,133.3,417.6,133.3z"/>
		<rect x="416.5" y="130.2" class="st2" width="1.1" height="1.8"/>
		<path class="st4" d="M419.2,133.3H418c0,0,0-4.5,0-5.8c0-0.2,0.3-0.5,0.6-0.4c0.3,0,0.6,0.3,0.6,0.4
			C419.2,128.8,419.2,133.3,419.2,133.3z"/>
		<rect x="418.1" y="130.2" class="st2" width="1.1" height="1.8"/>
	</g>
	<g>
		<path class="st2" d="M422.1,153.6v-0.3l1.8-1.8v-10.6c0,0-3.6,0.1-4.2-0.3c-0.6-0.4-0.7-0.6-0.7-0.6h-0.6c0,0,0,0.3-0.7,0.6
			c-0.6,0.4-4.2,0.3-4.2,0.3v10.6l1.8,1.8v0.3H422.1z"/>
		<path class="st0" d="M414.1,148.5h0.5v0.6h2.6V142c0,0-0.3-0.7-1.6-0.7c-1,0-1.4,0.6-1.4,0.6v6.6L414.1,148.5L414.1,148.5z"/>
		<line class="st3" x1="414.1" y1="146.2" x2="417.1" y2="146.2"/>
		<line class="st3" x1="414" y1="147.3" x2="417.1" y2="147.3"/>
		<line class="st3" x1="413.9" y1="148.4" x2="417.1" y2="148.4"/>
		<path class="st0" d="M423.5,148.5H423v0.6h-2.6V142c0,0,0.3-0.7,1.6-0.7c1,0,1.4,0.6,1.4,0.6v6.6L423.5,148.5L423.5,148.5z"/>
		<line class="st3" x1="423.5" y1="146.2" x2="420.3" y2="146.2"/>
		<line class="st3" x1="423.5" y1="147.3" x2="420.4" y2="147.3"/>
		<line class="st3" x1="423.6" y1="148.4" x2="420.4" y2="148.4"/>
		<path class="st0" d="M417.3,149.1h3V144c0,0-0.3-0.5-1.6-0.5c-1,0-1.4,0.5-1.4,0.5V149.1z"/>
		<path class="st4" d="M418.6,152.3h-1.1c0,0,0-4.5,0-5.8c0-0.2,0.3-0.5,0.6-0.4c0.3,0,0.6,0.3,0.6,0.4
			C418.6,147.8,418.6,152.3,418.6,152.3z"/>
		<rect x="417.5" y="149.2" class="st2" width="1.1" height="1.8"/>
		<path class="st4" d="M420.2,152.3H419c0,0,0-4.5,0-5.8c0-0.2,0.3-0.5,0.6-0.4c0.3,0,0.6,0.3,0.6,0.4
			C420.2,147.8,420.2,152.3,420.2,152.3z"/>
		<rect x="419" y="149.2" class="st2" width="1.1" height="1.8"/>
	</g>
	<g>
		<path class="st2" d="M420.1,171.6v-0.3l1.8-1.8v-10.6c0,0-3.5,0.1-4.2-0.3c-0.6-0.4-0.7-0.6-0.7-0.6h-0.6c0,0,0,0.3-0.7,0.6
			c-0.6,0.3-4.2,0.3-4.2,0.3v10.6l1.8,1.8v0.3H420.1z"/>
		<path class="st0" d="M412,166.5h0.5v0.6h2.6V160c0,0-0.3-0.7-1.6-0.7c-1,0-1.4,0.6-1.4,0.6v6.6L412,166.5L412,166.5z"/>
		<line class="st3" x1="412" y1="164.3" x2="415.1" y2="164.3"/>
		<line class="st3" x1="411.9" y1="165.3" x2="415.1" y2="165.3"/>
		<line class="st3" x1="411.8" y1="166.4" x2="415" y2="166.4"/>
		<path class="st0" d="M421.4,166.5H421v0.6h-2.6V160c0,0,0.3-0.7,1.6-0.7c1,0,1.4,0.6,1.4,0.6V166.5z"/>
		<line class="st3" x1="421.4" y1="164.3" x2="418.3" y2="164.3"/>
		<line class="st3" x1="421.4" y1="165.3" x2="418.3" y2="165.3"/>
		<line class="st3" x1="421.5" y1="166.4" x2="418.4" y2="166.4"/>
		<path class="st0" d="M415.2,167.1h3V162c0,0-0.3-0.5-1.6-0.5c-1,0-1.4,0.5-1.4,0.5V167.1z"/>
		<path class="st4" d="M416.5,170.4h-1.1c0,0,0-4.5,0-5.8c0-0.2,0.3-0.5,0.6-0.4c0.3,0,0.6,0.3,0.6,0.4
			C416.5,165.9,416.5,170.4,416.5,170.4z"/>
		<rect x="415.4" y="167.2" class="st2" width="1.1" height="1.8"/>
		<path class="st4" d="M418.1,170.4h-1.2c0,0,0-4.5,0-5.8c0-0.2,0.3-0.5,0.6-0.4c0.3,0,0.6,0.3,0.6,0.4
			C418.1,165.9,418.1,170.4,418.1,170.4z"/>
		<rect x="417" y="167.2" class="st2" width="1.1" height="1.8"/>
	</g>
	<g>
		<path class="st2" d="M415.1,190v-0.3l1.8-1.8v-10.6c0,0-3.6,0.1-4.2-0.3c-0.6-0.3-0.7-0.6-0.7-0.6h-0.6c0,0,0,0.3-0.7,0.6
			c-0.6,0.3-4.2,0.3-4.2,0.3v10.6l1.8,1.8v0.3H415.1z"/>
		<path class="st0" d="M407,184.9h0.5v0.6h2.6v-7.1c0,0-0.3-0.7-1.6-0.7c-1,0-1.4,0.6-1.4,0.6v6.6L407,184.9L407,184.9z"/>
		<line class="st3" x1="407" y1="182.7" x2="410.1" y2="182.7"/>
		<line class="st3" x1="407" y1="183.7" x2="410.1" y2="183.7"/>
		<line class="st3" x1="406.9" y1="184.8" x2="410.1" y2="184.8"/>
		<path class="st0" d="M416.5,184.9H416v0.6h-2.6v-7.1c0,0,0.3-0.7,1.6-0.7c1,0,1.4,0.6,1.4,0.6v6.6L416.5,184.9L416.5,184.9z"/>
		<line class="st3" x1="416.5" y1="182.7" x2="413.3" y2="182.7"/>
		<line class="st3" x1="416.5" y1="183.7" x2="413.3" y2="183.7"/>
		<line class="st3" x1="416.5" y1="184.8" x2="413.4" y2="184.8"/>
		<path class="st0" d="M410.2,185.5h3v-5.2c0,0-0.3-0.5-1.6-0.5c-1,0-1.4,0.5-1.4,0.5V185.5z"/>
		<path class="st4" d="M411.6,188.8h-1.1c0,0,0-4.5,0-5.8c0-0.2,0.3-0.4,0.6-0.4c0.3,0,0.6,0.3,0.6,0.4
			C411.6,184.3,411.6,188.8,411.6,188.8z"/>
		<rect x="410.5" y="185.6" class="st2" width="1.1" height="1.8"/>
		<path class="st4" d="M413.1,188.8H412c0,0,0-4.5,0-5.8c0-0.2,0.3-0.4,0.6-0.4c0.3,0,0.6,0.3,0.6,0.4
			C413.1,184.3,413.1,188.8,413.1,188.8z"/>
		<rect x="412" y="185.6" class="st2" width="1.1" height="1.8"/>
	</g>
	<g>
		<path class="st2" d="M407.5,207.3V207l1.8-1.8v-10.6c0,0-3.6,0.1-4.2-0.3c-0.6-0.3-0.7-0.6-0.7-0.6h-0.6c0,0,0,0.3-0.7,0.6
			c-0.6,0.4-4.2,0.3-4.2,0.3v10.6l1.8,1.8v0.3H407.5z"/>
		<path class="st0" d="M399.5,202.2h0.5v0.6h2.6v-7.1c0,0-0.3-0.7-1.6-0.7c-1,0-1.4,0.6-1.4,0.6v6.6L399.5,202.2L399.5,202.2z"/>
		<line class="st3" x1="399.5" y1="199.9" x2="402.5" y2="199.9"/>
		<line class="st3" x1="399.4" y1="201" x2="402.5" y2="201"/>
		<line class="st3" x1="399.3" y1="202.1" x2="402.5" y2="202.1"/>
		<path class="st0" d="M408.9,202.2h-0.5v0.6h-2.6v-7.1c0,0,0.3-0.7,1.6-0.7c1,0,1.4,0.6,1.4,0.6v6.6L408.9,202.2L408.9,202.2z"/>
		<line class="st3" x1="408.9" y1="199.9" x2="405.7" y2="199.9"/>
		<line class="st3" x1="408.9" y1="201" x2="405.8" y2="201"/>
		<line class="st3" x1="409" y1="202.1" x2="405.8" y2="202.1"/>
		<path class="st0" d="M402.7,202.8h3v-5.2c0,0-0.3-0.5-1.6-0.5c-1,0-1.4,0.5-1.4,0.5V202.8z"/>
		<path class="st4" d="M404,206h-1.1c0,0,0-4.5,0-5.8c0-0.2,0.3-0.5,0.6-0.4c0.3,0,0.6,0.3,0.6,0.4C404,201.6,404,206,404,206z"/>
		<rect x="402.9" y="202.9" class="st2" width="1.1" height="1.8"/>
		<path class="st4" d="M405.6,206h-1.1c0,0,0-4.5,0-5.8c0-0.2,0.3-0.5,0.6-0.4c0.3,0,0.6,0.3,0.6,0.4
			C405.6,201.6,405.6,206,405.6,206z"/>
		<rect x="404.4" y="202.9" class="st2" width="1.1" height="1.8"/>
	</g>
	<g>
		<path class="st2" d="M397.2,223v-0.3l1.8-1.8v-10.6c0,0-3.6,0.1-4.2-0.3c-0.6-0.3-0.7-0.6-0.7-0.6h-0.6c0,0,0,0.3-0.7,0.6
			c-0.6,0.3-4.2,0.3-4.2,0.3v10.6l1.8,1.8v0.3H397.2z"/>
		<path class="st0" d="M389.1,217.9h0.5v0.6h2.6v-7.1c0,0-0.3-0.7-1.6-0.7c-1,0-1.4,0.6-1.4,0.6v6.6L389.1,217.9L389.1,217.9z"/>
		<line class="st3" x1="389.1" y1="215.6" x2="392.2" y2="215.6"/>
		<line class="st3" x1="389.1" y1="216.7" x2="392.2" y2="216.7"/>
		<line class="st3" x1="389" y1="217.8" x2="392.2" y2="217.8"/>
		<path class="st0" d="M398.5,217.9H398v0.6h-2.6v-7.1c0,0,0.3-0.7,1.6-0.7c1,0,1.4,0.6,1.4,0.6v6.6L398.5,217.9L398.5,217.9z"/>
		<line class="st3" x1="398.5" y1="215.6" x2="395.4" y2="215.6"/>
		<line class="st3" x1="398.6" y1="216.7" x2="395.4" y2="216.7"/>
		<line class="st3" x1="398.6" y1="217.8" x2="395.5" y2="217.8"/>
		<path class="st0" d="M392.3,218.5h3v-5.1c0,0-0.3-0.5-1.6-0.5c-1,0-1.4,0.5-1.4,0.5V218.5z"/>
		<path class="st4" d="M393.7,221.8h-1.1c0,0,0-4.5,0-5.8c0-0.2,0.3-0.5,0.6-0.4c0.3,0,0.6,0.3,0.6,0.4
			C393.7,217.3,393.7,221.8,393.7,221.8z"/>
		<rect x="392.6" y="218.6" class="st2" width="1.1" height="1.8"/>
		<path class="st4" d="M395.2,221.8h-1.1c0,0,0-4.5,0-5.8c0-0.2,0.3-0.5,0.6-0.4c0.3,0,0.6,0.3,0.6,0.4
			C395.2,217.3,395.2,221.8,395.2,221.8z"/>
		<rect x="394.1" y="218.6" class="st2" width="1.1" height="1.8"/>
	</g>
	<g>
		<path class="st2" d="M384.5,236.8v-0.3l1.8-1.8V224c0,0-3.6,0.1-4.2-0.3c-0.6-0.4-0.7-0.6-0.7-0.6h-0.6c0,0,0,0.3-0.7,0.6
			c-0.6,0.4-4.2,0.3-4.2,0.3v10.6l1.8,1.8v0.3L384.5,236.8L384.5,236.8z"/>
		<path class="st0" d="M376.5,231.7h0.5v0.6h2.6v-7.1c0,0-0.3-0.7-1.6-0.7c-1,0-1.4,0.6-1.4,0.6v6.6L376.5,231.7L376.5,231.7z"/>
		<line class="st3" x1="376.5" y1="229.4" x2="379.5" y2="229.4"/>
		<line class="st3" x1="376.4" y1="230.4" x2="379.5" y2="230.4"/>
		<line class="st3" x1="376.3" y1="231.6" x2="379.5" y2="231.6"/>
		<path class="st0" d="M385.9,231.7h-0.5v0.6h-2.6v-7.1c0,0,0.3-0.7,1.6-0.7c1,0,1.4,0.6,1.4,0.6v6.6L385.9,231.7L385.9,231.7z"/>
		<line class="st3" x1="385.9" y1="229.4" x2="382.7" y2="229.4"/>
		<line class="st3" x1="385.9" y1="230.4" x2="382.8" y2="230.4"/>
		<line class="st3" x1="386" y1="231.6" x2="382.8" y2="231.6"/>
		<path class="st0" d="M379.7,232.3h3v-5.1c0,0-0.3-0.5-1.6-0.5c-1,0-1.4,0.5-1.4,0.5V232.3z"/>
		<path class="st4" d="M381,235.5h-1.2c0,0,0-4.5,0-5.8c0-0.2,0.3-0.4,0.6-0.4c0.3,0,0.6,0.3,0.6,0.4C381,231,381,235.5,381,235.5z"
			/>
		<rect x="379.9" y="232.4" class="st2" width="1.1" height="1.8"/>
		<path class="st4" d="M382.6,235.5h-1.1c0,0,0-4.5,0-5.8c0-0.2,0.3-0.4,0.6-0.4s0.6,0.3,0.6,0.4C382.6,231,382.6,235.5,382.6,235.5
			z"/>
		<rect x="381.4" y="232.4" class="st2" width="1.1" height="1.8"/>
	</g>
	<g>
		<path class="st2" d="M369.7,249.1v-0.3l1.8-1.8v-10.6c0,0-3.6,0.1-4.2-0.3c-0.6-0.3-0.7-0.6-0.7-0.6H366c0,0,0,0.3-0.7,0.6
			c-0.6,0.3-4.2,0.3-4.2,0.3V247l1.8,1.8v0.3H369.7z"/>
		<path class="st0" d="M361.6,244h0.5v0.6h2.6v-7.1c0,0-0.3-0.7-1.6-0.7c-1,0-1.4,0.6-1.4,0.6v6.6L361.6,244L361.6,244z"/>
		<line class="st3" x1="361.6" y1="241.8" x2="364.7" y2="241.8"/>
		<line class="st3" x1="361.6" y1="242.8" x2="364.7" y2="242.8"/>
		<line class="st3" x1="361.5" y1="243.9" x2="364.7" y2="243.9"/>
		<path class="st0" d="M371,244h-0.5v0.6H368v-7.1c0,0,0.3-0.7,1.6-0.7c1,0,1.4,0.6,1.4,0.6V244z"/>
		<line class="st3" x1="371" y1="241.8" x2="367.9" y2="241.8"/>
		<line class="st3" x1="371.1" y1="242.8" x2="367.9" y2="242.8"/>
		<line class="st3" x1="371.1" y1="243.9" x2="368" y2="243.9"/>
		<path class="st0" d="M364.8,244.6h3v-5.1c0,0-0.3-0.5-1.6-0.5c-1,0-1.4,0.5-1.4,0.5V244.6z"/>
		<path class="st4" d="M366.2,247.9H365c0,0,0-4.5,0-5.8c0-0.2,0.3-0.5,0.6-0.4c0.3,0,0.6,0.3,0.6,0.4
			C366.2,243.4,366.2,247.9,366.2,247.9z"/>
		<rect x="365" y="244.7" class="st2" width="1.1" height="1.8"/>
		<path class="st4" d="M367.7,247.9h-1.1c0,0,0-4.5,0-5.8c0-0.2,0.3-0.5,0.6-0.4c0.3,0,0.6,0.3,0.6,0.4
			C367.7,243.4,367.7,247.9,367.7,247.9z"/>
		<rect x="366.6" y="244.7" class="st2" width="1.1" height="1.8"/>
	</g>
	<g>
		<path class="st2" d="M353.3,258.6v-0.3l1.8-1.8v-10.6c0,0-3.6,0.1-4.2-0.3c-0.6-0.3-0.7-0.6-0.7-0.6h-0.6c0,0,0,0.3-0.7,0.6
			c-0.6,0.3-4.2,0.3-4.2,0.3v10.6l1.8,1.8v0.3H353.3z"/>
		<path class="st0" d="M345.3,253.5h0.5v0.6h2.6V247c0,0-0.3-0.7-1.6-0.7c-1,0-1.4,0.6-1.4,0.6v6.6L345.3,253.5L345.3,253.5z"/>
		<line class="st3" x1="345.3" y1="251.3" x2="348.4" y2="251.3"/>
		<line class="st3" x1="345.2" y1="252.3" x2="348.4" y2="252.3"/>
		<line class="st3" x1="345.1" y1="253.4" x2="348.3" y2="253.4"/>
		<path class="st0" d="M354.7,253.5h-0.5v0.6h-2.6V247c0,0,0.3-0.7,1.6-0.7c1,0,1.4,0.6,1.4,0.6v6.6L354.7,253.5L354.7,253.5z"/>
		<line class="st3" x1="354.7" y1="251.3" x2="351.6" y2="251.3"/>
		<line class="st3" x1="354.7" y1="252.3" x2="351.6" y2="252.3"/>
		<line class="st3" x1="354.8" y1="253.4" x2="351.7" y2="253.4"/>
		<path class="st0" d="M348.5,254.1h3V249c0,0-0.3-0.5-1.6-0.5c-1,0-1.4,0.5-1.4,0.5V254.1z"/>
		<path class="st4" d="M349.8,257.4h-1.1c0,0,0-4.5,0-5.8c0-0.2,0.3-0.4,0.6-0.4c0.3,0,0.6,0.3,0.6,0.4
			C349.8,252.9,349.8,257.4,349.8,257.4z"/>
		<rect x="348.7" y="254.2" class="st2" width="1.1" height="1.8"/>
		<path class="st4" d="M351.4,257.4h-1.1c0,0,0-4.5,0-5.8c0-0.2,0.3-0.4,0.6-0.4s0.6,0.3,0.6,0.4
			C351.4,252.9,351.4,257.4,351.4,257.4z"/>
		<rect x="350.3" y="254.2" class="st2" width="1.1" height="1.8"/>
	</g>
	<g>
		<path class="st2" d="M335.8,265.3V265l1.8-1.8v-10.6c0,0-3.6,0.1-4.2-0.3c-0.6-0.3-0.7-0.6-0.7-0.6h-0.6c0,0,0,0.3-0.7,0.6
			c-0.6,0.4-4.2,0.3-4.2,0.3v10.6l1.8,1.8v0.3H335.8z"/>
		<path class="st0" d="M327.8,260.2h0.5v0.6h2.6v-7.1c0,0-0.3-0.7-1.6-0.7c-1,0-1.4,0.6-1.4,0.6v6.6H327.8z"/>
		<line class="st3" x1="327.8" y1="258" x2="330.8" y2="258"/>
		<line class="st3" x1="327.7" y1="259" x2="330.8" y2="259"/>
		<line class="st3" x1="327.6" y1="260.1" x2="330.8" y2="260.1"/>
		<path class="st0" d="M337.2,260.2h-0.5v0.6h-2.6v-7.1c0,0,0.3-0.7,1.6-0.7c1,0,1.4,0.6,1.4,0.6v6.6H337.2z"/>
		<line class="st3" x1="337.2" y1="258" x2="334" y2="258"/>
		<line class="st3" x1="337.2" y1="259" x2="334" y2="259"/>
		<line class="st3" x1="337.3" y1="260.1" x2="334.1" y2="260.1"/>
		<path class="st0" d="M331,260.8h3v-5.2c0,0-0.3-0.5-1.6-0.5c-1,0-1.4,0.5-1.4,0.5V260.8z"/>
		<path class="st4" d="M332.3,264.1h-1.1c0,0,0-4.5,0-5.8c0-0.2,0.3-0.4,0.6-0.4c0.3,0,0.6,0.3,0.6,0.4
			C332.3,259.6,332.3,264.1,332.3,264.1z"/>
		<rect x="331.2" y="260.9" class="st2" width="1.1" height="1.8"/>
		<path class="st4" d="M333.8,264.1h-1.1c0,0,0-4.5,0-5.8c0-0.2,0.3-0.4,0.6-0.4c0.3,0,0.6,0.3,0.6,0.4
			C333.8,259.6,333.8,264.1,333.8,264.1z"/>
		<rect x="332.7" y="260.9" class="st2" width="1.1" height="1.8"/>
	</g>
	<g>
		<path class="st2" d="M317.1,269.3V269l1.8-1.8v-10.6c0,0-3.6,0.1-4.2-0.3c-0.6-0.3-0.7-0.6-0.7-0.6h-0.6c0,0,0,0.3-0.7,0.6
			c-0.6,0.4-4.2,0.3-4.2,0.3v10.6l1.8,1.8v0.3H317.1z"/>
		<path class="st0" d="M309.1,264.3h0.5v0.6h2.6v-7.1c0,0-0.3-0.7-1.6-0.7c-1,0-1.4,0.6-1.4,0.6v6.6H309.1z"/>
		<line class="st3" x1="309.1" y1="262" x2="312.1" y2="262"/>
		<line class="st3" x1="309" y1="263" x2="312.1" y2="263"/>
		<line class="st3" x1="308.9" y1="264.1" x2="312.1" y2="264.1"/>
		<path class="st0" d="M318.5,264.3H318v0.6h-2.6v-7.1c0,0,0.3-0.7,1.6-0.7c1,0,1.4,0.6,1.4,0.6v6.6H318.5z"/>
		<line class="st3" x1="318.5" y1="262" x2="315.4" y2="262"/>
		<line class="st3" x1="318.5" y1="263" x2="315.4" y2="263"/>
		<line class="st3" x1="318.6" y1="264.1" x2="315.5" y2="264.1"/>
		<path class="st0" d="M312.3,264.9h3v-5.1c0,0-0.3-0.5-1.6-0.5c-1,0-1.4,0.5-1.4,0.5V264.9z"/>
		<path class="st4" d="M313.6,268.1h-1.1c0,0,0-4.5,0-5.8c0-0.2,0.3-0.5,0.6-0.4c0.3,0,0.6,0.3,0.6,0.4
			C313.6,263.6,313.6,268.1,313.6,268.1z"/>
		<rect x="312.5" y="265" class="st2" width="1.1" height="1.8"/>
		<path class="st4" d="M315.2,268.1H314c0,0,0-4.5,0-5.8c0-0.2,0.3-0.5,0.6-0.4c0.3,0,0.6,0.3,0.6,0.4
			C315.2,263.6,315.2,268.1,315.2,268.1z"/>
		<rect x="314.1" y="265" class="st2" width="1.1" height="1.8"/>
	</g>
	<g>
		<path class="st2" d="M298.5,270.4V270l1.8-1.8v-10.6c0,0-3.6,0.1-4.2-0.3s-0.7-0.6-0.7-0.6h-0.6c0,0,0,0.3-0.7,0.6
			c-0.6,0.4-4.2,0.3-4.2,0.3v10.6l1.8,1.8v0.3h6.8V270.4L298.5,270.4z"/>
		<path class="st0" d="M290.4,265.3h0.5v0.6h2.6v-7.1c0,0-0.3-0.7-1.6-0.7c-1,0-1.4,0.6-1.4,0.6v6.6H290.4z"/>
		<line class="st3" x1="290.4" y1="263" x2="293.5" y2="263"/>
		<line class="st3" x1="290.3" y1="264" x2="293.5" y2="264"/>
		<line class="st3" x1="290.3" y1="265.1" x2="293.5" y2="265.1"/>
		<path class="st0" d="M299.8,265.3h-0.5v0.6h-2.6v-7.1c0,0,0.3-0.7,1.6-0.7c1,0,1.4,0.6,1.4,0.6L299.8,265.3L299.8,265.3z"/>
		<line class="st3" x1="299.8" y1="263" x2="296.7" y2="263"/>
		<line class="st3" x1="299.8" y1="264" x2="296.7" y2="264"/>
		<line class="st3" x1="299.9" y1="265.1" x2="296.8" y2="265.1"/>
		<path class="st0" d="M293.6,265.9h3v-5.2c0,0-0.3-0.5-1.6-0.5c-1,0-1.4,0.5-1.4,0.5V265.9z"/>
		<path class="st4" d="M294.9,269.1h-1.1c0,0,0-4.5,0-5.8c0-0.2,0.3-0.5,0.6-0.4c0.3,0,0.6,0.3,0.6,0.4
			C294.9,264.6,294.9,269.1,294.9,269.1z"/>
		<rect x="293.8" y="266" class="st2" width="1.1" height="1.8"/>
		<path class="st4" d="M296.5,269.1h-1.2c0,0,0-4.5,0-5.8c0-0.2,0.3-0.5,0.6-0.4c0.3,0,0.6,0.3,0.6,0.4
			C296.5,264.6,296.5,269.1,296.5,269.1z"/>
		<rect x="295.4" y="266" class="st2" width="1.1" height="1.8"/>
	</g>
	<g>
		<path class="st2" d="M279.6,268.6v-0.3l1.8-1.8v-10.6c0,0-3.6,0.1-4.2-0.3c-0.6-0.4-0.7-0.6-0.7-0.6h-0.6c0,0,0,0.3-0.7,0.6
			c-0.6,0.3-4.2,0.3-4.2,0.3v10.6l1.8,1.8v0.3H279.6z"/>
		<path class="st0" d="M271.5,263.5h0.5v0.6h2.6V257c0,0-0.3-0.7-1.6-0.7c-1,0-1.4,0.6-1.4,0.6v6.6H271.5z"/>
		<line class="st3" x1="271.5" y1="261.2" x2="274.6" y2="261.2"/>
		<line class="st3" x1="271.5" y1="262.3" x2="274.6" y2="262.3"/>
		<line class="st3" x1="271.4" y1="263.4" x2="274.6" y2="263.4"/>
		<path class="st0" d="M280.9,263.5h-0.5v0.6h-2.6V257c0,0,0.3-0.7,1.6-0.7c1,0,1.4,0.6,1.4,0.6v6.6H280.9z"/>
		<line class="st3" x1="280.9" y1="261.2" x2="277.8" y2="261.2"/>
		<line class="st3" x1="281" y1="262.3" x2="277.8" y2="262.3"/>
		<line class="st3" x1="281" y1="263.4" x2="277.9" y2="263.4"/>
		<path class="st0" d="M274.7,264.1h3V259c0,0-0.3-0.5-1.6-0.5c-1,0-1.4,0.5-1.4,0.5V264.1z"/>
		<path class="st4" d="M276.1,267.3H275c0,0,0-4.5,0-5.8c0-0.2,0.3-0.5,0.6-0.4c0.3,0,0.6,0.3,0.6,0.4
			C276.1,262.9,276.1,267.3,276.1,267.3z"/>
		<rect x="274.9" y="264.2" class="st2" width="1.1" height="1.8"/>
		<path class="st4" d="M277.6,267.3h-1.2c0,0,0-4.5,0-5.8c0-0.2,0.3-0.5,0.6-0.4c0.3,0,0.6,0.3,0.6,0.4
			C277.6,262.9,277.6,267.3,277.6,267.3z"/>
		<rect x="276.5" y="264.2" class="st2" width="1.1" height="1.8"/>
	</g>
	<g>
		<path class="st2" d="M261.5,264v-0.3l1.8-1.8v-10.6c0,0-3.6,0.1-4.2-0.3c-0.6-0.3-0.7-0.6-0.7-0.6h-0.6c0,0,0,0.3-0.7,0.6
			c-0.6,0.4-4.2,0.3-4.2,0.3v10.6l1.8,1.8v0.3H261.5z"/>
		<path class="st0" d="M253.5,258.9h0.5v0.6h2.6v-7.1c0,0-0.3-0.7-1.6-0.7c-1,0-1.4,0.6-1.4,0.6v6.6H253.5z"/>
		<line class="st3" x1="253.5" y1="256.6" x2="256.5" y2="256.6"/>
		<line class="st3" x1="253.4" y1="257.6" x2="256.5" y2="257.6"/>
		<line class="st3" x1="253.3" y1="258.8" x2="256.5" y2="258.8"/>
		<path class="st0" d="M262.9,258.9h-0.5v0.6h-2.6v-7.1c0,0,0.3-0.7,1.6-0.7c1,0,1.4,0.6,1.4,0.6L262.9,258.9L262.9,258.9z"/>
		<line class="st3" x1="262.9" y1="256.6" x2="259.7" y2="256.6"/>
		<line class="st3" x1="262.9" y1="257.6" x2="259.8" y2="257.6"/>
		<line class="st3" x1="263" y1="258.8" x2="259.8" y2="258.8"/>
		<path class="st0" d="M256.7,259.5h3v-5.2c0,0-0.3-0.5-1.6-0.5c-1,0-1.4,0.5-1.4,0.5V259.5z"/>
		<path class="st4" d="M258,262.7h-1.1c0,0,0-4.5,0-5.8c0-0.2,0.3-0.5,0.6-0.4c0.3,0,0.6,0.3,0.6,0.4C258,258.2,258,262.7,258,262.7
			z"/>
		<rect x="256.9" y="259.6" class="st2" width="1.1" height="1.8"/>
		<path class="st4" d="M259.6,262.7h-1.1c0,0,0-4.5,0-5.8c0-0.2,0.3-0.5,0.6-0.4c0.3,0,0.6,0.3,0.6,0.4
			C259.6,258.2,259.6,262.7,259.6,262.7z"/>
		<rect x="258.4" y="259.6" class="st2" width="1.1" height="1.8"/>
	</g>
	<g>
		<path class="st2" d="M243.9,256v-0.3l1.8-1.8v-10.6c0,0-3.6,0.1-4.2-0.3c-0.6-0.4-0.7-0.6-0.7-0.6h-0.6c0,0,0,0.3-0.7,0.6
			c-0.6,0.3-4.2,0.3-4.2,0.3v10.6l1.8,1.8v0.3H243.9z"/>
		<path class="st0" d="M235.9,250.9h0.5v0.6h2.6v-7.1c0,0-0.3-0.7-1.6-0.7c-1,0-1.4,0.6-1.4,0.6v6.6L235.9,250.9L235.9,250.9z"/>
		<line class="st3" x1="235.9" y1="248.6" x2="238.9" y2="248.6"/>
		<line class="st3" x1="235.8" y1="249.7" x2="238.9" y2="249.7"/>
		<line class="st3" x1="235.7" y1="250.8" x2="238.9" y2="250.8"/>
		<path class="st0" d="M245.3,250.9h-0.5v0.6h-2.6v-7.1c0,0,0.3-0.7,1.6-0.7c1,0,1.4,0.6,1.4,0.6L245.3,250.9L245.3,250.9z"/>
		<line class="st3" x1="245.3" y1="248.6" x2="242.1" y2="248.6"/>
		<line class="st3" x1="245.3" y1="249.7" x2="242.2" y2="249.7"/>
		<line class="st3" x1="245.4" y1="250.8" x2="242.2" y2="250.8"/>
		<path class="st0" d="M239.1,251.5h3v-5.2c0,0-0.3-0.5-1.6-0.5c-1,0-1.4,0.5-1.4,0.5V251.5z"/>
		<path class="st4" d="M240.4,254.7h-1.1c0,0,0-4.5,0-5.8c0-0.2,0.3-0.5,0.6-0.4c0.3,0,0.6,0.3,0.6,0.4
			C240.4,250.3,240.4,254.7,240.4,254.7z"/>
		<rect x="239.3" y="251.6" class="st2" width="1.1" height="1.8"/>
		<path class="st4" d="M241.9,254.7h-1.1c0,0,0-4.5,0-5.8c0-0.2,0.3-0.5,0.6-0.4c0.3,0,0.6,0.3,0.6,0.4
			C241.9,250.3,241.9,254.7,241.9,254.7z"/>
		<rect x="240.8" y="251.6" class="st2" width="1.1" height="1.8"/>
	</g>
	<g>
		<path class="st2" d="M228.1,245.4v-0.3l1.8-1.8v-10.6c0,0-3.6,0.1-4.2-0.3c-0.6-0.3-0.7-0.6-0.7-0.6h-0.6c0,0,0,0.3-0.7,0.6
			c-0.6,0.3-4.2,0.3-4.2,0.3v10.6l1.8,1.8v0.3H228.1z"/>
		<path class="st0" d="M220,240.3h0.5v0.6h2.6v-7.1c0,0-0.3-0.7-1.6-0.7c-1,0-1.4,0.6-1.4,0.6v6.6L220,240.3L220,240.3z"/>
		<line class="st3" x1="220" y1="238.1" x2="223.1" y2="238.1"/>
		<line class="st3" x1="220" y1="239.1" x2="223.1" y2="239.1"/>
		<line class="st3" x1="219.9" y1="240.2" x2="223.1" y2="240.2"/>
		<path class="st0" d="M229.5,240.3H229v0.6h-2.6v-7.1c0,0,0.3-0.7,1.6-0.7c1,0,1.4,0.6,1.4,0.6v6.6L229.5,240.3L229.5,240.3z"/>
		<line class="st3" x1="229.5" y1="238.1" x2="226.3" y2="238.1"/>
		<line class="st3" x1="229.5" y1="239.1" x2="226.3" y2="239.1"/>
		<line class="st3" x1="229.6" y1="240.2" x2="226.4" y2="240.2"/>
		<path class="st0" d="M223.3,240.9h3v-5.1c0,0-0.3-0.5-1.6-0.5c-1,0-1.4,0.5-1.4,0.5V240.9z"/>
		<path class="st4" d="M224.6,244.2h-1.1c0,0,0-4.5,0-5.8c0-0.2,0.3-0.4,0.6-0.4s0.6,0.3,0.6,0.4
			C224.6,239.7,224.6,244.2,224.6,244.2z"/>
		<rect x="223.5" y="241.1" class="st2" width="1.1" height="1.8"/>
		<path class="st4" d="M226.1,244.2H225c0,0,0-4.5,0-5.8c0-0.2,0.3-0.4,0.6-0.4s0.6,0.3,0.6,0.4
			C226.1,239.7,226.1,244.2,226.1,244.2z"/>
		<rect x="225" y="241.1" class="st2" width="1.1" height="1.8"/>
	</g>
	<g>
		<path class="st2" d="M212.6,232v-0.3l1.8-1.8v-10.6c0,0-3.6,0.1-4.2-0.3c-0.6-0.4-0.7-0.6-0.7-0.6h-0.6c0,0,0,0.3-0.7,0.6
			c-0.6,0.3-4.2,0.3-4.2,0.3v10.6l1.8,1.8v0.3H212.6z"/>
		<path class="st0" d="M204.6,226.9h0.4v0.6h2.6v-7.1c0,0-0.3-0.7-1.6-0.7c-1,0-1.4,0.6-1.4,0.6V226.9z"/>
		<line class="st3" x1="204.6" y1="224.7" x2="207.6" y2="224.7"/>
		<line class="st3" x1="204.5" y1="225.7" x2="207.6" y2="225.7"/>
		<line class="st3" x1="204.4" y1="226.8" x2="207.6" y2="226.8"/>
		<path class="st0" d="M214,226.9h-0.5v0.6h-2.6v-7.1c0,0,0.3-0.7,1.6-0.7c1,0,1.4,0.6,1.4,0.6L214,226.9L214,226.9z"/>
		<line class="st3" x1="214" y1="224.7" x2="210.8" y2="224.7"/>
		<line class="st3" x1="214" y1="225.7" x2="210.9" y2="225.7"/>
		<line class="st3" x1="214.1" y1="226.8" x2="210.9" y2="226.8"/>
		<path class="st0" d="M207.8,227.5h3v-5.1c0,0-0.3-0.5-1.6-0.5c-1,0-1.4,0.4-1.4,0.4V227.5z"/>
		<path class="st4" d="M209.1,230.8H208c0,0,0-4.5,0-5.8c0-0.2,0.3-0.5,0.6-0.4c0.3,0,0.6,0.3,0.6,0.4
			C209.1,226.3,209.1,230.8,209.1,230.8z"/>
		<rect x="208" y="227.6" class="st2" width="1.1" height="1.8"/>
		<path class="st4" d="M210.7,230.8h-1.1c0,0,0-4.5,0-5.8c0-0.2,0.3-0.5,0.6-0.4c0.3,0,0.6,0.3,0.6,0.4
			C210.7,226.3,210.7,230.8,210.7,230.8z"/>
		<rect x="209.5" y="227.6" class="st2" width="1.1" height="1.8"/>
	</g>
	<g>
		<path class="st2" d="M201.6,217.7v-0.3l1.8-1.8V205c0,0-3.6,0.1-4.2-0.3c-0.6-0.4-0.7-0.6-0.7-0.6H198c0,0,0,0.3-0.7,0.6
			c-0.6,0.3-4.2,0.3-4.2,0.3v10.6l1.8,1.8v0.3L201.6,217.7L201.6,217.7z"/>
		<path class="st0" d="M193.6,212.6h0.5v0.6h2.6v-7.1c0,0-0.3-0.7-1.6-0.7c-1,0-1.4,0.6-1.4,0.6L193.6,212.6L193.6,212.6z"/>
		<line class="st3" x1="193.6" y1="210.4" x2="196.6" y2="210.4"/>
		<line class="st3" x1="193.5" y1="211.4" x2="196.7" y2="211.4"/>
		<line class="st3" x1="193.4" y1="212.5" x2="196.6" y2="212.5"/>
		<path class="st0" d="M203,212.6h-0.5v0.6H200v-7.1c0,0,0.3-0.7,1.6-0.7c1,0,1.4,0.6,1.4,0.6V212.6z"/>
		<line class="st3" x1="203" y1="210.4" x2="199.9" y2="210.4"/>
		<line class="st3" x1="203" y1="211.4" x2="199.9" y2="211.4"/>
		<line class="st3" x1="203.1" y1="212.5" x2="200" y2="212.5"/>
		<path class="st0" d="M196.8,213.2h3v-5.1c0,0-0.3-0.5-1.6-0.5c-1,0-1.4,0.5-1.4,0.5V213.2z"/>
		<path class="st4" d="M198.1,216.5H197c0,0,0-4.5,0-5.8c0-0.2,0.3-0.5,0.6-0.4c0.3,0,0.6,0.3,0.6,0.4
			C198.1,212,198.1,216.5,198.1,216.5z"/>
		<rect x="197" y="213.4" class="st2" width="1.1" height="1.8"/>
		<path class="st4" d="M199.7,216.5h-1.2c0,0,0-4.5,0-5.8c0-0.2,0.3-0.5,0.6-0.4c0.3,0,0.6,0.3,0.6,0.4
			C199.7,212,199.7,216.5,199.7,216.5z"/>
		<rect x="198.6" y="213.4" class="st2" width="1.1" height="1.8"/>
	</g>
	<g>
		<path class="st2" d="M192,201.7v-0.3l1.8-1.8V189c0,0-3.6,0.1-4.2-0.3c-0.6-0.4-0.7-0.6-0.7-0.6h-0.6c0,0,0,0.3-0.7,0.6
			c-0.6,0.3-4.2,0.3-4.2,0.3v10.6l1.8,1.8v0.3L192,201.7L192,201.7z"/>
		<path class="st0" d="M183.9,196.7h0.5v0.6h2.6v-7.1c0,0-0.3-0.7-1.6-0.7c-1,0-1.4,0.6-1.4,0.6L183.9,196.7L183.9,196.7z"/>
		<line class="st3" x1="183.9" y1="194.4" x2="187" y2="194.4"/>
		<line class="st3" x1="183.9" y1="195.4" x2="187" y2="195.4"/>
		<line class="st3" x1="183.8" y1="196.5" x2="187" y2="196.5"/>
		<path class="st0" d="M193.3,196.7h-0.5v0.6h-2.6v-7.1c0,0,0.3-0.7,1.6-0.7c1,0,1.4,0.6,1.4,0.6L193.3,196.7L193.3,196.7
			L193.3,196.7z"/>
		<line class="st3" x1="193.3" y1="194.4" x2="190.2" y2="194.4"/>
		<line class="st3" x1="193.4" y1="195.4" x2="190.2" y2="195.4"/>
		<line class="st3" x1="193.4" y1="196.5" x2="190.3" y2="196.5"/>
		<path class="st0" d="M187.1,197.3h3v-5.1c0,0-0.3-0.5-1.6-0.5c-1,0-1.4,0.5-1.4,0.5V197.3z"/>
		<path class="st4" d="M188.5,200.5h-1.2c0,0,0-4.5,0-5.8c0-0.2,0.3-0.4,0.6-0.4c0.3,0,0.6,0.3,0.6,0.4
			C188.5,196,188.5,200.5,188.5,200.5z"/>
		<rect x="187.3" y="197.4" class="st2" width="1.1" height="1.8"/>
		<path class="st4" d="M190,200.5h-1.1c0,0,0-4.5,0-5.8c0-0.2,0.3-0.4,0.6-0.4s0.6,0.3,0.6,0.4C190,196,190,200.5,190,200.5z"/>
		<rect x="188.9" y="197.4" class="st2" width="1.1" height="1.8"/>
	</g>
	<g>
		<path class="st2" d="M185.2,183.5v-0.3l1.8-1.8v-10.6c0,0-3.6,0.1-4.2-0.3c-0.6-0.4-0.7-0.6-0.7-0.6h-0.6c0,0,0,0.3-0.7,0.6
			c-0.6,0.4-4.2,0.3-4.2,0.3v10.6l1.8,1.8v0.3H185.2z"/>
		<path class="st0" d="M177.2,178.4h0.5v0.6h2.6v-7.1c0,0-0.3-0.7-1.6-0.7c-1,0-1.4,0.6-1.4,0.6L177.2,178.4L177.2,178.4
			L177.2,178.4z"/>
		<line class="st3" x1="177.2" y1="176.1" x2="180.2" y2="176.1"/>
		<line class="st3" x1="177.1" y1="177.2" x2="180.2" y2="177.2"/>
		<line class="st3" x1="177" y1="178.3" x2="180.2" y2="178.3"/>
		<path class="st0" d="M186.6,178.4h-0.5v0.6h-2.6v-7.1c0,0,0.3-0.7,1.6-0.7c1,0,1.4,0.6,1.4,0.6L186.6,178.4L186.6,178.4z"/>
		<line class="st3" x1="186.6" y1="176.1" x2="183.5" y2="176.1"/>
		<line class="st3" x1="186.6" y1="177.2" x2="183.5" y2="177.2"/>
		<line class="st3" x1="186.7" y1="178.3" x2="183.5" y2="178.3"/>
		<path class="st0" d="M180.4,179h3v-5.2c0,0-0.3-0.5-1.6-0.5c-1,0-1.4,0.5-1.4,0.5V179z"/>
		<path class="st4" d="M181.7,182.2h-1.2c0,0,0-4.5,0-5.8c0-0.2,0.3-0.5,0.6-0.4c0.3,0,0.6,0.3,0.6,0.4
			C181.7,177.8,181.7,182.2,181.7,182.2z"/>
		<rect x="180.6" y="179.1" class="st2" width="1.1" height="1.8"/>
		<path class="st4" d="M183.3,182.2h-1.1c0,0,0-4.5,0-5.8c0-0.2,0.3-0.5,0.6-0.4c0.3,0,0.6,0.3,0.6,0.4
			C183.3,177.8,183.3,182.2,183.3,182.2z"/>
		<rect x="182.1" y="179.1" class="st2" width="1.1" height="1.8"/>
	</g>
	<g>
		<path class="st2" d="M181.1,165.9v-0.3l1.8-1.8v-10.6c0,0-3.6,0.1-4.2-0.3c-0.6-0.4-0.7-0.6-0.7-0.6h-0.6c0,0,0,0.3-0.7,0.6
			c-0.6,0.4-4.2,0.3-4.2,0.3v10.6l1.8,1.8v0.3H181.1z"/>
		<path class="st0" d="M173.1,160.8h0.5v0.6h2.6v-7.1c0,0-0.3-0.7-1.6-0.7c-1,0-1.4,0.6-1.4,0.6L173.1,160.8L173.1,160.8z"/>
		<line class="st3" x1="173.1" y1="158.5" x2="176.1" y2="158.5"/>
		<line class="st3" x1="173" y1="159.6" x2="176.1" y2="159.6"/>
		<line class="st3" x1="172.9" y1="160.7" x2="176.1" y2="160.7"/>
		<path class="st0" d="M182.5,160.8H182v0.6h-2.6v-7.1c0,0,0.3-0.7,1.6-0.7c1,0,1.4,0.6,1.4,0.6L182.5,160.8L182.5,160.8z"/>
		<line class="st3" x1="182.5" y1="158.5" x2="179.3" y2="158.5"/>
		<line class="st3" x1="182.5" y1="159.6" x2="179.3" y2="159.6"/>
		<line class="st3" x1="182.5" y1="160.7" x2="179.4" y2="160.7"/>
		<path class="st0" d="M176.3,161.4h3v-5.2c0,0-0.3-0.5-1.6-0.5c-1,0-1.4,0.5-1.4,0.5V161.4z"/>
		<path class="st4" d="M177.6,164.6h-1.2c0,0,0-4.5,0-5.8c0-0.2,0.3-0.5,0.6-0.4c0.3,0,0.6,0.3,0.6,0.4
			C177.6,160.1,177.6,164.6,177.6,164.6z"/>
		<rect x="176.5" y="161.5" class="st2" width="1.1" height="1.8"/>
		<path class="st4" d="M179.1,164.6H178c0,0,0-4.5,0-5.8c0-0.2,0.3-0.5,0.6-0.4c0.3,0,0.6,0.3,0.6,0.4
			C179.1,160.1,179.1,164.6,179.1,164.6z"/>
		<rect x="178" y="161.5" class="st2" width="1.1" height="1.8"/>
	</g>
	<g>
		<path class="st2" d="M180.2,146.3V146l1.8-1.8v-10.6c0,0-3.6,0.1-4.2-0.3c-0.6-0.3-0.7-0.6-0.7-0.6h-0.6c0,0,0,0.3-0.7,0.6
			c-0.6,0.4-4.2,0.3-4.2,0.3v10.6l1.8,1.8v0.3H180.2z"/>
		<path class="st0" d="M172.2,141.2h0.5v0.6h2.6v-7.1c0,0-0.3-0.7-1.6-0.7c-1,0-1.4,0.6-1.4,0.6L172.2,141.2L172.2,141.2
			L172.2,141.2z"/>
		<line class="st3" x1="172.2" y1="139" x2="175.3" y2="139"/>
		<line class="st3" x1="172.1" y1="140" x2="175.3" y2="140"/>
		<line class="st3" x1="172" y1="141.1" x2="175.2" y2="141.1"/>
		<path class="st0" d="M181.6,141.2h-0.5v0.6h-2.6v-7.1c0,0,0.3-0.7,1.6-0.7c1,0,1.4,0.6,1.4,0.6L181.6,141.2L181.6,141.2z"/>
		<line class="st3" x1="181.6" y1="139" x2="178.5" y2="139"/>
		<line class="st3" x1="181.6" y1="140" x2="178.5" y2="140"/>
		<line class="st3" x1="181.7" y1="141.1" x2="178.6" y2="141.1"/>
		<path class="st0" d="M175.4,141.8h3v-5.1c0,0-0.3-0.5-1.6-0.5c-1,0-1.4,0.5-1.4,0.5V141.8z"/>
		<path class="st4" d="M176.7,145.1h-1.1c0,0,0-4.5,0-5.8c0-0.2,0.3-0.5,0.6-0.4c0.3,0,0.6,0.3,0.6,0.4
			C176.7,140.6,176.7,145.1,176.7,145.1z"/>
		<rect x="175.6" y="141.9" class="st2" width="1.1" height="1.8"/>
		<path class="st4" d="M178.3,145.1h-1.1c0,0,0-4.5,0-5.8c0-0.2,0.3-0.5,0.6-0.4c0.3,0,0.6,0.3,0.6,0.4
			C178.3,140.6,178.3,145.1,178.3,145.1z"/>
		<rect x="177.2" y="141.9" class="st2" width="1.1" height="1.8"/>
	</g>
	<g>
		<path class="st2" d="M182.4,127.8v-0.3l1.8-1.8V115c0,0-3.6,0.1-4.2-0.3c-0.6-0.3-0.7-0.6-0.7-0.6h-0.6c0,0,0,0.3-0.7,0.6
			c-0.6,0.4-4.2,0.3-4.2,0.3v10.6l1.8,1.8v0.3L182.4,127.8L182.4,127.8z"/>
		<path class="st0" d="M174.3,122.7h0.5v0.6h2.6v-7.1c0,0-0.3-0.7-1.6-0.7c-1,0-1.4,0.6-1.4,0.6L174.3,122.7L174.3,122.7z"/>
		<line class="st3" x1="174.3" y1="120.5" x2="177.4" y2="120.5"/>
		<line class="st3" x1="174.2" y1="121.5" x2="177.4" y2="121.5"/>
		<line class="st3" x1="174.1" y1="122.6" x2="177.4" y2="122.6"/>
		<path class="st0" d="M183.7,122.7h-0.5v0.6h-2.6v-7.1c0,0,0.3-0.7,1.6-0.7c1,0,1.4,0.6,1.4,0.6L183.7,122.7L183.7,122.7z"/>
		<line class="st3" x1="183.7" y1="120.5" x2="180.6" y2="120.5"/>
		<line class="st3" x1="183.7" y1="121.5" x2="180.6" y2="121.5"/>
		<line class="st3" x1="183.8" y1="122.6" x2="180.7" y2="122.6"/>
		<path class="st0" d="M177.5,123.3h3v-5.1c0,0-0.3-0.5-1.6-0.5c-1,0-1.4,0.5-1.4,0.5V123.3z"/>
		<path class="st4" d="M178.8,126.6h-1.1c0,0,0-4.5,0-5.8c0-0.1,0.3-0.4,0.6-0.4s0.6,0.3,0.6,0.4
			C178.8,122.1,178.8,126.6,178.8,126.6z"/>
		<rect x="177.7" y="123.4" class="st2" width="1.1" height="1.8"/>
		<path class="st4" d="M180.4,126.6h-1.2c0,0,0-4.5,0-5.8c0-0.1,0.3-0.4,0.6-0.4s0.6,0.3,0.6,0.4
			C180.4,122.1,180.4,126.6,180.4,126.6z"/>
		<rect x="179.3" y="123.4" class="st2" width="1.1" height="1.8"/>
	</g>
	<g>
		<path class="st2" d="M187.3,109.4v-0.3l1.8-1.8V96.6c0,0-3.6,0.1-4.2-0.3s-0.7-0.6-0.7-0.6h-0.6c0,0,0,0.3-0.7,0.6
			c-0.6,0.4-4.2,0.3-4.2,0.3v10.6l1.8,1.8v0.3L187.3,109.4L187.3,109.4z"/>
		<path class="st0" d="M179.2,104.3h0.5v0.6h2.6v-7.1c0,0-0.3-0.7-1.6-0.7c-1,0-1.4,0.6-1.4,0.6L179.2,104.3L179.2,104.3z"/>
		<line class="st3" x1="179.2" y1="102" x2="182.3" y2="102"/>
		<line class="st3" x1="179.2" y1="103.1" x2="182.3" y2="103.1"/>
		<line class="st3" x1="179.1" y1="104.2" x2="182.3" y2="104.2"/>
		<path class="st0" d="M188.6,104.3h-0.5v0.6h-2.6v-7.1c0,0,0.3-0.7,1.6-0.7c1,0,1.4,0.6,1.4,0.6L188.6,104.3L188.6,104.3z"/>
		<line class="st3" x1="188.6" y1="102" x2="185.5" y2="102"/>
		<line class="st3" x1="188.7" y1="103.1" x2="185.5" y2="103.1"/>
		<line class="st3" x1="188.7" y1="104.2" x2="185.6" y2="104.2"/>
		<path class="st0" d="M182.4,104.9h3v-5.1c0,0-0.3-0.5-1.6-0.5c-1,0-1.4,0.5-1.4,0.5V104.9z"/>
		<path class="st4" d="M183.8,108.1h-1.1c0,0,0-4.5,0-5.8c0-0.2,0.3-0.4,0.6-0.4s0.6,0.3,0.6,0.4
			C183.8,103.7,183.8,108.1,183.8,108.1z"/>
		<rect x="182.7" y="105" class="st2" width="1.1" height="1.8"/>
		<path class="st4" d="M185.3,108.1h-1.1c0,0,0-4.5,0-5.8c0-0.2,0.3-0.4,0.6-0.4s0.6,0.3,0.6,0.4
			C185.3,103.7,185.3,108.1,185.3,108.1z"/>
		<rect x="184.2" y="105" class="st2" width="1.1" height="1.8"/>
	</g>
	<g>
		<path class="st2" d="M194.8,92.3V92l1.8-1.8V79.5c0,0-3.6,0.1-4.2-0.3s-0.7-0.6-0.7-0.6h-0.6c0,0,0,0.3-0.7,0.6
			c-0.6,0.3-4.2,0.3-4.2,0.3v10.6l1.8,1.8v0.3L194.8,92.3L194.8,92.3z"/>
		<path class="st0" d="M186.7,87.2h0.5v0.6h2.6v-7.1c0,0-0.3-0.7-1.6-0.7c-1,0-1.4,0.6-1.4,0.6L186.7,87.2L186.7,87.2z"/>
		<line class="st3" x1="186.7" y1="84.9" x2="189.8" y2="84.9"/>
		<line class="st3" x1="186.7" y1="86" x2="189.8" y2="86"/>
		<line class="st3" x1="186.6" y1="87.1" x2="189.8" y2="87.1"/>
		<path class="st0" d="M196.1,87.2h-0.5v0.6H193v-7.1c0,0,0.3-0.7,1.6-0.7c1,0,1.4,0.6,1.4,0.6L196.1,87.2L196.1,87.2z"/>
		<line class="st3" x1="196.1" y1="84.9" x2="193" y2="84.9"/>
		<line class="st3" x1="196.1" y1="86" x2="193" y2="86"/>
		<line class="st3" x1="196.2" y1="87.1" x2="193.1" y2="87.1"/>
		<path class="st0" d="M189.9,87.8h3v-5.1c0,0-0.3-0.5-1.6-0.5c-1,0-1.4,0.5-1.4,0.5V87.8z"/>
		<path class="st4" d="M191.3,91.1h-1.1c0,0,0-4.5,0-5.8c0-0.2,0.3-0.4,0.6-0.4s0.6,0.3,0.6,0.4C191.3,86.6,191.3,91.1,191.3,91.1z"
			/>
		<rect x="190.1" y="87.9" class="st2" width="1.1" height="1.8"/>
		<path class="st4" d="M192.8,91.1h-1.1c0,0,0-4.5,0-5.8c0-0.2,0.3-0.4,0.6-0.4s0.6,0.3,0.6,0.4C192.8,86.6,192.8,91.1,192.8,91.1z"
			/>
		<rect x="191.7" y="87.9" class="st2" width="1.1" height="1.8"/>
	</g>
	<g>
		<path class="st2" d="M205.8,75.8v-0.3l1.8-1.8V63c0,0-3.6,0.1-4.2-0.3c-0.6-0.3-0.7-0.6-0.7-0.6h-0.6c0,0,0,0.3-0.7,0.6
			c-0.6,0.3-4.1,0.3-4.1,0.3v10.6l1.8,1.8v0.3L205.8,75.8L205.8,75.8z"/>
		<path class="st0" d="M197.8,70.7h0.5v0.6h2.6v-7.1c0,0-0.3-0.7-1.6-0.7c-1,0-1.4,0.6-1.4,0.6L197.8,70.7L197.8,70.7z"/>
		<line class="st3" x1="197.8" y1="68.4" x2="200.8" y2="68.4"/>
		<line class="st3" x1="197.7" y1="69.5" x2="200.8" y2="69.5"/>
		<line class="st3" x1="197.6" y1="70.6" x2="200.8" y2="70.6"/>
		<path class="st0" d="M207.2,70.7h-0.5v0.6h-2.6v-7.1c0,0,0.3-0.7,1.6-0.7c1,0,1.4,0.6,1.4,0.6L207.2,70.7L207.2,70.7z"/>
		<line class="st3" x1="207.2" y1="68.4" x2="204" y2="68.4"/>
		<line class="st3" x1="207.2" y1="69.5" x2="204.1" y2="69.5"/>
		<line class="st3" x1="207.3" y1="70.6" x2="204.1" y2="70.6"/>
		<path class="st0" d="M201,71.3h3v-5.2c0,0-0.3-0.5-1.6-0.5c-1,0-1.4,0.5-1.4,0.5V71.3z"/>
		<path class="st4" d="M202.3,74.5h-1.1c0,0,0-4.5,0-5.8c0-0.2,0.3-0.5,0.6-0.4c0.3,0,0.6,0.3,0.6,0.4
			C202.3,70.1,202.3,74.5,202.3,74.5z"/>
		<rect x="201.2" y="71.4" class="st2" width="1.1" height="1.8"/>
		<path class="st4" d="M203.9,74.5h-1.1c0,0,0-4.5,0-5.8c0-0.2,0.3-0.5,0.6-0.4c0.3,0,0.6,0.3,0.6,0.4
			C203.9,70.1,203.9,74.5,203.9,74.5z"/>
		<rect x="202.7" y="71.4" class="st2" width="1.1" height="1.8"/>
	</g>
	<g>
		<path class="st2" d="M218.9,61.7v-0.3l1.8-1.8V48.9c0,0-3.6,0.1-4.2-0.3c-0.6-0.3-0.7-0.6-0.7-0.6h-0.6c0,0,0,0.3-0.7,0.6
			c-0.6,0.4-4.2,0.3-4.2,0.3v10.6l1.8,1.8v0.3h6.8L218.9,61.7L218.9,61.7z"/>
		<path class="st0" d="M210.8,56.6h0.5v0.6h2.6v-7.1c0,0-0.3-0.7-1.6-0.7c-1,0-1.4,0.6-1.4,0.6L210.8,56.6L210.8,56.6z"/>
		<line class="st5" x1="210.8" y1="54.4" x2="213.9" y2="54.4"/>
		<line class="st3" x1="210.8" y1="55.4" x2="213.9" y2="55.4"/>
		<line class="st3" x1="210.7" y1="56.5" x2="213.9" y2="56.5"/>
		<path class="st0" d="M220.2,56.6h-0.5v0.6h-2.6v-7.1c0,0,0.3-0.7,1.6-0.7c1,0,1.4,0.6,1.4,0.6L220.2,56.6L220.2,56.6z"/>
		<line class="st3" x1="220.2" y1="54.4" x2="217.1" y2="54.4"/>
		<line class="st3" x1="220.3" y1="55.4" x2="217.1" y2="55.4"/>
		<line class="st3" x1="220.3" y1="56.5" x2="217.2" y2="56.5"/>
		<path class="st0" d="M214,57.2h3V52c0,0-0.3-0.5-1.6-0.5c-1,0-1.4,0.5-1.4,0.5V57.2z"/>
		<path class="st4" d="M215.4,60.5h-1.1c0,0,0-4.5,0-5.8c0-0.2,0.3-0.4,0.6-0.4c0.3,0,0.6,0.3,0.6,0.4
			C215.4,56,215.4,60.5,215.4,60.5z"/>
		<rect x="214.2" y="57.3" class="st2" width="1.1" height="1.8"/>
		<path class="st4" d="M216.9,60.5h-1.1c0,0,0-4.5,0-5.8c0-0.2,0.3-0.4,0.6-0.4c0.3,0,0.6,0.3,0.6,0.4
			C216.9,56,216.9,60.5,216.9,60.5z"/>
		<rect x="215.8" y="57.3" class="st2" width="1.1" height="1.8"/>
	</g>
	<g>
		<path class="st2" d="M233.4,49.9v-0.3l1.8-1.8V37.1c0,0-3.6,0.1-4.2-0.3c-0.6-0.4-0.7-0.6-0.7-0.6h-0.6c0,0,0,0.3-0.7,0.6
			c-0.6,0.4-4.2,0.3-4.2,0.3v10.6l1.8,1.8v0.3h6.8L233.4,49.9L233.4,49.9z"/>
		<path class="st0" d="M225.4,44.8h0.5v0.6h2.6v-7.1c0,0-0.3-0.7-1.6-0.7c-1,0-1.4,0.6-1.4,0.6v6.6
			C225.5,44.8,225.4,44.8,225.4,44.8z"/>
		<line class="st3" x1="225.4" y1="42.6" x2="228.4" y2="42.6"/>
		<line class="st3" x1="225.3" y1="43.6" x2="228.4" y2="43.6"/>
		<line class="st3" x1="225.2" y1="44.7" x2="228.4" y2="44.7"/>
		<path class="st0" d="M234.8,44.8h-0.5v0.6h-2.6v-7.1c0,0,0.3-0.7,1.6-0.7c1,0,1.4,0.6,1.4,0.6L234.8,44.8L234.8,44.8z"/>
		<line class="st3" x1="234.8" y1="42.6" x2="231.7" y2="42.6"/>
		<line class="st3" x1="234.8" y1="43.6" x2="231.7" y2="43.6"/>
		<line class="st3" x1="234.9" y1="44.7" x2="231.8" y2="44.7"/>
		<path class="st0" d="M228.6,45.4h3v-5.1c0,0-0.3-0.5-1.6-0.5c-1,0-1.4,0.5-1.4,0.5V45.4z"/>
		<path class="st4" d="M229.9,48.7h-1.1c0,0,0-4.5,0-5.8c0-0.2,0.3-0.4,0.6-0.4s0.6,0.3,0.6,0.4C229.9,44.2,229.9,48.7,229.9,48.7z"
			/>
		<rect x="228.8" y="45.5" class="st2" width="1.1" height="1.8"/>
		<path class="st4" d="M231.5,48.7h-1.1c0,0,0-4.5,0-5.8c0-0.2,0.3-0.4,0.6-0.4s0.6,0.3,0.6,0.4C231.5,44.2,231.5,48.7,231.5,48.7z"
			/>
		<rect x="230.4" y="45.5" class="st2" width="1.1" height="1.8"/>
	</g>
	<path class="st2" d="M250.1,40.6v-0.3l1.8-1.8V27.8c0,0-3.6,0.1-4.2-0.3c-0.6-0.4-0.7-0.6-0.7-0.6h-0.6c0,0,0,0.3-0.7,0.6
		c-0.6,0.3-4.2,0.3-4.2,0.3v10.6l1.8,1.8v0.3L250.1,40.6L250.1,40.6z"/>
	<path class="st0" d="M242.1,35.5h0.5v0.6h2.6V29c0,0-0.3-0.7-1.6-0.7c-1,0-1.4,0.6-1.4,0.6L242.1,35.5L242.1,35.5z"/>
	<line class="st3" x1="242.1" y1="33.2" x2="245.1" y2="33.2"/>
	<line class="st3" x1="242" y1="34.3" x2="245.1" y2="34.3"/>
	<line class="st3" x1="241.9" y1="35.4" x2="245.1" y2="35.4"/>
	<path class="st0" d="M251.5,35.5H251v0.6h-2.6V29c0,0,0.3-0.7,1.6-0.7c1,0,1.4,0.6,1.4,0.6v6.6H251.5z"/>
	<line class="st3" x1="251.5" y1="33.2" x2="248.4" y2="33.2"/>
	<line class="st3" x1="251.5" y1="34.3" x2="248.4" y2="34.3"/>
	<line class="st3" x1="251.6" y1="35.4" x2="248.5" y2="35.4"/>
	<path class="st0" d="M245.3,36.1h3V31c0,0-0.3-0.5-1.6-0.5c-1,0-1.4,0.5-1.4,0.5V36.1z"/>
	<path class="st4" d="M246.6,39.3h-1.1c0,0,0-4.5,0-5.8c0-0.2,0.3-0.5,0.6-0.4c0.3,0,0.6,0.3,0.6,0.4
		C246.6,34.9,246.6,39.3,246.6,39.3z"/>
	<rect x="245.5" y="36.2" class="st2" width="1.1" height="1.8"/>
	<path class="st4" d="M248.2,39.3H247c0,0,0-4.5,0-5.8c0-0.2,0.3-0.5,0.6-0.4c0.3,0,0.6,0.3,0.6,0.4
		C248.2,34.9,248.2,39.3,248.2,39.3z"/>
	<rect x="247.1" y="36.2" class="st2" width="1.1" height="1.8"/>
	<g>
		<path class="st2" d="M267.2,34.2v-0.3L269,32V21.4c0,0-3.6,0.1-4.2-0.3c-0.6-0.4-0.7-0.6-0.7-0.6h-0.6c0,0,0,0.3-0.7,0.6
			c-0.6,0.3-4.2,0.3-4.2,0.3V32l1.8,1.8v0.3h6.8V34.2L267.2,34.2z"/>
		<path class="st0" d="M259.1,29.1h0.5v0.6h2.6v-7.1c0,0-0.3-0.7-1.6-0.7c-1,0-1.4,0.6-1.4,0.6L259.1,29.1L259.1,29.1z"/>
		<line class="st3" x1="259.1" y1="26.8" x2="262.2" y2="26.8"/>
		<line class="st3" x1="259" y1="27.9" x2="262.2" y2="27.9"/>
		<line class="st3" x1="258.9" y1="29" x2="262.2" y2="29"/>
		<path class="st0" d="M268.5,29.1H268v0.6h-2.6v-7.1c0,0,0.3-0.7,1.6-0.7c1,0,1.4,0.6,1.4,0.6v6.6H268.5z"/>
		<line class="st3" x1="268.5" y1="26.8" x2="265.4" y2="26.8"/>
		<line class="st3" x1="268.5" y1="27.9" x2="265.4" y2="27.9"/>
		<line class="st3" x1="268.6" y1="29" x2="265.5" y2="29"/>
		<path class="st0" d="M262.3,29.7h3v-5.2c0,0-0.3-0.5-1.6-0.5c-1,0-1.4,0.5-1.4,0.5V29.7z"/>
		<path class="st4" d="M263.7,32.9h-1.2c0,0,0-4.5,0-5.8c0-0.2,0.3-0.5,0.6-0.4c0.3,0,0.6,0.3,0.6,0.4
			C263.7,28.5,263.7,32.9,263.7,32.9z"/>
		<rect x="262.5" y="29.8" class="st2" width="1.1" height="1.8"/>
		<path class="st4" d="M265.2,32.9H264c0,0,0-4.5,0-5.8c0-0.2,0.3-0.5,0.6-0.4c0.3,0,0.6,0.3,0.6,0.4
			C265.2,28.5,265.2,32.9,265.2,32.9z"/>
		<rect x="264.1" y="29.8" class="st2" width="1.1" height="1.8"/>
	</g>
	<g>
		<path class="st2" d="M285.7,30.5v-0.3l1.8-1.8V17.7c0,0-3.6,0.1-4.2-0.3c-0.6-0.4-0.7-0.6-0.7-0.6H282c0,0,0,0.3-0.7,0.6
			c-0.6,0.3-4.2,0.3-4.2,0.3v10.6l1.8,1.8v0.3h6.8V30.5L285.7,30.5z"/>
		<path class="st0" d="M277.6,25.4h0.5V26h2.6v-7c0,0-0.3-0.7-1.6-0.7c-1,0-1.4,0.6-1.4,0.6L277.6,25.4L277.6,25.4z"/>
		<line class="st3" x1="277.6" y1="23.2" x2="280.7" y2="23.2"/>
		<line class="st3" x1="277.6" y1="24.2" x2="280.7" y2="24.2"/>
		<line class="st3" x1="277.5" y1="25.3" x2="280.7" y2="25.3"/>
		<path class="st0" d="M287,25.4h-0.5V26H284v-7c0,0,0.3-0.7,1.6-0.7c1,0,1.4,0.6,1.4,0.6V25.4z"/>
		<line class="st3" x1="287" y1="23.2" x2="283.9" y2="23.2"/>
		<line class="st3" x1="287.1" y1="24.2" x2="283.9" y2="24.2"/>
		<line class="st3" x1="287.1" y1="25.3" x2="284" y2="25.3"/>
		<path class="st0" d="M280.8,26h3v-5.1c0,0-0.3-0.5-1.6-0.5c-1,0-1.4,0.5-1.4,0.5V26z"/>
		<path class="st4" d="M282.2,29.3H281c0,0,0-4.5,0-5.8c0-0.2,0.3-0.5,0.6-0.4c0.3,0,0.6,0.3,0.6,0.4
			C282.2,24.8,282.2,29.3,282.2,29.3z"/>
		<rect x="281" y="26.1" class="st2" width="1.1" height="1.8"/>
		<path class="st4" d="M283.7,29.3h-1.1c0,0,0-4.5,0-5.8c0-0.2,0.3-0.5,0.6-0.4c0.3,0,0.6,0.3,0.6,0.4
			C283.7,24.8,283.7,29.3,283.7,29.3z"/>
		<rect x="282.6" y="26.1" class="st2" width="1.1" height="1.8"/>
	</g>
	<g>
		<path class="st2" d="M342,36.6v-0.3l1.8-1.8V23.8c0,0-3.6,0.1-4.2-0.3s-0.7-0.6-0.7-0.6h-0.6c0,0,0,0.3-0.7,0.6
			c-0.6,0.4-4.2,0.3-4.2,0.3v10.6l1.8,1.8v0.3L342,36.6L342,36.6z"/>
		<path class="st0" d="M334,31.5h0.5v0.6h2.6V25c0,0-0.3-0.7-1.6-0.7c-1,0-1.4,0.6-1.4,0.6v6.6H334z"/>
		<line class="st3" x1="334" y1="29.2" x2="337" y2="29.2"/>
		<line class="st3" x1="333.9" y1="30.3" x2="337.1" y2="30.3"/>
		<line class="st3" x1="333.8" y1="31.4" x2="337" y2="31.4"/>
		<path class="st0" d="M343.4,31.5h-0.5v0.6h-2.6V25c0,0,0.3-0.7,1.6-0.7c1,0,1.4,0.6,1.4,0.6v6.6H343.4z"/>
		<line class="st3" x1="343.4" y1="29.2" x2="340.3" y2="29.2"/>
		<line class="st3" x1="343.4" y1="30.3" x2="340.3" y2="30.3"/>
		<line class="st3" x1="343.5" y1="31.4" x2="340.4" y2="31.4"/>
		<path class="st0" d="M337.2,32.1h3v-5.2c0,0-0.3-0.5-1.6-0.5c-1,0-1.4,0.5-1.4,0.5V32.1z"/>
		<path class="st4" d="M338.5,35.3h-1.2c0,0,0-4.5,0-5.8c0-0.2,0.3-0.4,0.6-0.4c0.3,0,0.6,0.3,0.6,0.4
			C338.5,30.9,338.5,35.3,338.5,35.3z"/>
		<path class="st4" d="M340.1,35.3h-1.2c0,0,0-4.5,0-5.8c0-0.2,0.3-0.4,0.6-0.4c0.3,0,0.6,0.3,0.6,0.4
			C340.1,30.9,340.1,35.3,340.1,35.3z"/>
	</g>
</g>
<rect x="337.4" y="32.2" class="st2" width="1.1" height="1.8"/>
<rect x="339" y="32.2" class="st2" width="1.1" height="1.8"/>
<rect x="353.9" y="39.3" class="st2" width="1.1" height="1.8"/>
</svg>
