<?xml version="1.0" encoding="utf-8"?>
<!-- Generator: Adobe Illustrator 20.1.0, SVG Export Plug-In . SVG Version: 6.00 Build 0)  -->
<svg version="1.1" id="Layer_1" xmlns="http://www.w3.org/2000/svg" xmlns:xlink="http://www.w3.org/1999/xlink" x="0px" y="0px"
	 viewBox="0 0 298 300" style="enable-background:new 0 0 298 300;" xml:space="preserve">
<style type="text/css">
	.st0{fill:#681E44;}
	.st1{fill:none;stroke:#EC268B;stroke-width:0.6756;}
	.st2{fill:#EC258B;}
	.st3{fill:none;stroke:#EC268B;stroke-width:0.1351;}
	.st4{fill:#681E44;stroke:#EC218B;stroke-width:0.135;stroke-miterlimit:10;}
	.st5{fill:none;stroke:#EC268B;stroke-width:0.135;}
</style>
<rect x="0" y="0.1" class="st0" width="298" height="300"/>
<g>
	<ellipse class="st1" cx="148.8" cy="136.2" rx="121" ry="120.6"/>
	<path class="st1" d="M229.5,136.1c0,44.4-36.1,80.4-80.7,80.4s-80.7-36-80.7-80.4s36.1-80.4,80.7-80.4
		C193.4,55.7,229.5,91.7,229.5,136.1z"/>
	<ellipse class="st1" cx="148.9" cy="136.2" rx="76.7" ry="76.5"/>
	<ellipse class="st1" cx="149.1" cy="136.3" rx="36.4" ry="36.2"/>
	<ellipse class="st1" cx="149" cy="136.2" rx="33.5" ry="33.4"/>
	<line class="st1" x1="114.6" y1="20.3" x2="183.5" y2="252.1"/>
	<line class="st1" x1="133.2" y1="16.3" x2="164.8" y2="256.2"/>
	<line class="st1" x1="151.6" y1="16" x2="146.1" y2="256.6"/>
	<line class="st1" x1="97.5" y1="26.7" x2="201.2" y2="245.1"/>
	<line class="st1" x1="171" y1="17.8" x2="127.3" y2="254.9"/>
	<line class="st1" x1="81" y1="36" x2="217.1" y2="235.4"/>
	<line class="st1" x1="66.3" y1="47.9" x2="232" y2="223"/>
	<line class="st1" x1="53.4" y1="61.9" x2="244.9" y2="209.4"/>
	<line class="st1" x1="42.1" y1="78.4" x2="255.3" y2="193.5"/>
	<line class="st1" x1="35.1" y1="95.7" x2="263" y2="176.2"/>
	<line class="st1" x1="29.9" y1="114.1" x2="268.1" y2="157.9"/>
	<line class="st1" x1="27.9" y1="132.5" x2="269.5" y2="139.8"/>
	<line class="st1" x1="28.9" y1="152.2" x2="268.8" y2="120.7"/>
	<line class="st1" x1="33.1" y1="169.6" x2="264.6" y2="101.6"/>
	<line class="st1" x1="39.3" y1="188.3" x2="258" y2="84.6"/>
	<line class="st1" x1="49" y1="204.1" x2="248.3" y2="68"/>
	<line class="st1" x1="60.4" y1="218.1" x2="236.9" y2="53.4"/>
	<line class="st1" x1="75.7" y1="231.6" x2="223" y2="40.6"/>
	<line class="st1" x1="91.3" y1="242.7" x2="206.4" y2="29.9"/>
	<line class="st1" x1="109" y1="250" x2="189.7" y2="22.6"/>
	<polygon class="st2" points="142.8,139.3 70.1,284.4 83.5,284.4 146.8,141.4 	"/>
	<polygon class="st2" points="154.7,139.3 227.4,284.4 214.1,284.4 150.7,141.4 	"/>
	<path class="st2" d="M159.7,135.9c0,5.9-4.7,10.6-10.6,10.6c-5.8,0-10.6-4.7-10.6-10.6c0-5.9,4.7-10.6,10.6-10.6
		C154.9,125.3,159.7,130.1,159.7,135.9z"/>
	<g>
		<path class="st2" d="M154.9,29.6v-0.3l1.8-1.8V16.8c0,0-3.5,0.1-4.2-0.3c-0.6-0.4-0.7-0.6-0.7-0.6h-0.6c0,0,0,0.3-0.7,0.6
			c-0.6,0.3-4.2,0.3-4.2,0.3v10.6l1.8,1.8v0.3h6.8L154.9,29.6L154.9,29.6z"/>
		<path class="st0" d="M146.9,24.5h0.5v0.6h2.6V18c0,0-0.3-0.7-1.6-0.7c-1,0-1.4,0.6-1.4,0.6v6.6H146.9z"/>
		<line class="st3" x1="146.9" y1="22.3" x2="149.9" y2="22.3"/>
		<line class="st3" x1="146.8" y1="23.3" x2="149.9" y2="23.3"/>
		<line class="st3" x1="146.7" y1="24.4" x2="149.9" y2="24.4"/>
		<path class="st0" d="M156.3,24.5h-0.5v0.6h-2.6V18c0,0,0.3-0.7,1.6-0.7c1,0,1.4,0.6,1.4,0.6L156.3,24.5L156.3,24.5z"/>
		<line class="st3" x1="156.3" y1="22.3" x2="153.1" y2="22.3"/>
		<line class="st3" x1="156.3" y1="23.3" x2="153.1" y2="23.3"/>
		<line class="st3" x1="156.4" y1="24.4" x2="153.2" y2="24.4"/>
		<path class="st0" d="M150.1,25.1h3V20c0,0-0.3-0.5-1.6-0.5c-1,0-1.4,0.5-1.4,0.5V25.1z"/>
		<path class="st4" d="M151.4,28.4h-1.2c0,0,0-4.5,0-5.8c0-0.2,0.3-0.5,0.6-0.4c0.3,0,0.6,0.3,0.6,0.4
			C151.4,23.9,151.4,28.4,151.4,28.4z"/>
		<rect x="150.3" y="25.2" class="st2" width="1.1" height="1.8"/>
		<path class="st4" d="M152.9,28.4h-1.1c0,0,0-4.5,0-5.8c0-0.2,0.3-0.5,0.6-0.4c0.3,0,0.6,0.3,0.6,0.4
			C152.9,23.9,152.9,28.4,152.9,28.4z"/>
		<rect x="151.8" y="25.2" class="st2" width="1.1" height="1.8"/>
	</g>
	<g>
		<path class="st2" d="M174.5,31.6v-0.3l1.8-1.8V18.8c0,0-3.6,0.1-4.2-0.3s-0.7-0.6-0.7-0.6h-0.6c0,0,0,0.3-0.7,0.6
			c-0.6,0.3-4.2,0.3-4.2,0.3v10.6l1.8,1.8v0.3h6.8L174.5,31.6L174.5,31.6z"/>
		<path class="st0" d="M166.4,26.5h0.5v0.6h2.6V20c0,0-0.3-0.7-1.6-0.7c-1,0-1.4,0.6-1.4,0.6v6.6H166.4z"/>
		<line class="st3" x1="166.4" y1="24.2" x2="169.5" y2="24.2"/>
		<line class="st3" x1="166.4" y1="25.3" x2="169.5" y2="25.3"/>
		<line class="st3" x1="166.3" y1="26.4" x2="169.5" y2="26.4"/>
		<path class="st0" d="M175.8,26.5h-0.5v0.6h-2.6V20c0,0,0.3-0.7,1.6-0.7c1,0,1.4,0.6,1.4,0.6L175.8,26.5L175.8,26.5z"/>
		<line class="st3" x1="175.8" y1="24.2" x2="172.7" y2="24.2"/>
		<line class="st3" x1="175.9" y1="25.3" x2="172.7" y2="25.3"/>
		<line class="st3" x1="175.9" y1="26.4" x2="172.8" y2="26.4"/>
		<path class="st0" d="M169.6,27.1h3V22c0,0-0.3-0.5-1.6-0.5c-1,0-1.4,0.5-1.4,0.5V27.1z"/>
		<path class="st4" d="M171,30.3h-1.1c0,0,0-4.5,0-5.8c0-0.2,0.3-0.4,0.6-0.4s0.6,0.3,0.6,0.4C171,25.9,171,30.3,171,30.3z"/>
		<rect x="169.9" y="27.2" class="st2" width="1.1" height="1.8"/>
		<path class="st4" d="M172.5,30.3h-1.1c0,0,0-4.5,0-5.8c0-0.2,0.3-0.4,0.6-0.4s0.6,0.3,0.6,0.4C172.5,25.9,172.5,30.3,172.5,30.3z"
			/>
		<rect x="171.4" y="27.2" class="st2" width="1.1" height="1.8"/>
	</g>
	<rect x="204.9" y="39.3" class="st2" width="1.1" height="1.8"/>
	<g>
		<path class="st2" d="M209.5,43.7v-0.3l1.8-1.8V30.9c0,0-3.6,0.1-4.2-0.3s-0.7-0.6-0.7-0.6h-0.6c0,0,0,0.3-0.7,0.6
			c-0.6,0.4-4.2,0.3-4.2,0.3v10.6l1.8,1.8v0.3h6.8L209.5,43.7L209.5,43.7z"/>
		<path class="st0" d="M201.5,38.6h0.5v0.6h2.6v-7.1c0,0-0.3-0.7-1.6-0.7c-1,0-1.4,0.6-1.4,0.6v6.6H201.5z"/>
		<line class="st3" x1="201.5" y1="36.3" x2="204.5" y2="36.3"/>
		<line class="st3" x1="201.4" y1="37.3" x2="204.5" y2="37.3"/>
		<line class="st3" x1="201.3" y1="38.5" x2="204.5" y2="38.5"/>
		<path class="st0" d="M210.9,38.6h-0.5v0.6h-2.6v-7.1c0,0,0.3-0.7,1.6-0.7c1,0,1.4,0.6,1.4,0.6v6.6H210.9z"/>
		<line class="st3" x1="210.9" y1="36.3" x2="207.7" y2="36.3"/>
		<line class="st3" x1="210.9" y1="37.3" x2="207.8" y2="37.3"/>
		<line class="st3" x1="211" y1="38.5" x2="207.8" y2="38.5"/>
		<path class="st0" d="M204.7,39.2h3V34c0,0-0.3-0.5-1.6-0.5c-1,0-1.4,0.5-1.4,0.5V39.2z"/>
		<path class="st4" d="M206,42.4h-1.1c0,0,0-4.5,0-5.8c0-0.2,0.3-0.4,0.6-0.4s0.6,0.3,0.6,0.4C206,37.9,206,42.4,206,42.4z"/>
		<path class="st4" d="M207.5,42.4h-1.1c0,0,0-4.5,0-5.8c0-0.2,0.3-0.4,0.6-0.4s0.6,0.3,0.6,0.4C207.5,37.9,207.5,42.4,207.5,42.4z"
			/>
	</g>
	<rect x="206.4" y="39.3" class="st2" width="1.1" height="1.8"/>
	<g>
		<path class="st2" d="M226.2,54.6v-0.3l1.8-1.8V41.8c0,0-3.6,0.1-4.2-0.3c-0.6-0.3-0.7-0.6-0.7-0.6h-0.6c0,0,0,0.3-0.7,0.6
			c-0.6,0.4-4.2,0.3-4.2,0.3v10.6l1.8,1.8v0.3L226.2,54.6L226.2,54.6z"/>
		<path class="st0" d="M218.2,49.5h0.5v0.6h2.6V43c0,0-0.3-0.7-1.6-0.7c-1,0-1.4,0.6-1.4,0.6L218.2,49.5L218.2,49.5z"/>
		<line class="st3" x1="218.2" y1="47.2" x2="221.2" y2="47.2"/>
		<line class="st3" x1="218.1" y1="48.2" x2="221.3" y2="48.2"/>
		<line class="st3" x1="218" y1="49.4" x2="221.2" y2="49.4"/>
		<path class="st0" d="M227.6,49.5h-0.5v0.6h-2.6V43c0,0,0.3-0.7,1.6-0.7c1,0,1.4,0.6,1.4,0.6v6.6C227.5,49.5,227.6,49.5,227.6,49.5
			z"/>
		<line class="st3" x1="227.6" y1="47.2" x2="224.5" y2="47.2"/>
		<line class="st3" x1="227.6" y1="48.2" x2="224.5" y2="48.2"/>
		<line class="st3" x1="227.7" y1="49.4" x2="224.6" y2="49.4"/>
		<path class="st0" d="M221.4,50.1h3v-5.2c0,0-0.3-0.5-1.6-0.5c-1,0-1.4,0.5-1.4,0.5V50.1z"/>
		<path class="st4" d="M222.7,53.3h-1.1c0,0,0-4.5,0-5.8c0-0.2,0.3-0.5,0.6-0.4c0.3,0,0.6,0.3,0.6,0.4
			C222.7,48.8,222.7,53.3,222.7,53.3z"/>
		<rect x="221.6" y="50.2" class="st2" width="1.1" height="1.8"/>
		<path class="st4" d="M224.3,53.3h-1.1c0,0,0-4.5,0-5.8c0-0.2,0.3-0.5,0.6-0.4c0.3,0,0.6,0.3,0.6,0.4
			C224.3,48.8,224.3,53.3,224.3,53.3z"/>
		<rect x="223.2" y="50.2" class="st2" width="1.1" height="1.8"/>
	</g>
	<g>
		<path class="st2" d="M240,67.6v-0.3l1.8-1.8V54.8c0,0-3.6,0.1-4.2-0.3c-0.6-0.3-0.7-0.6-0.7-0.6h-0.6c0,0,0,0.3-0.7,0.6
			c-0.6,0.4-4.2,0.3-4.2,0.3v10.6l1.8,1.8v0.3L240,67.6L240,67.6z"/>
		<path class="st0" d="M232,62.5h0.5v0.6h2.6V56c0,0-0.3-0.7-1.6-0.7c-1,0-1.4,0.6-1.4,0.6v6.6C232.1,62.5,232,62.5,232,62.5z"/>
		<line class="st3" x1="232" y1="60.3" x2="235" y2="60.3"/>
		<line class="st3" x1="231.9" y1="61.3" x2="235.1" y2="61.3"/>
		<line class="st3" x1="231.8" y1="62.4" x2="235" y2="62.4"/>
		<path class="st0" d="M241.4,62.5h-0.5v0.6h-2.6V56c0,0,0.3-0.7,1.6-0.7c1,0,1.4,0.6,1.4,0.6v6.6C241.3,62.5,241.4,62.5,241.4,62.5
			z"/>
		<line class="st3" x1="241.4" y1="60.3" x2="238.3" y2="60.3"/>
		<line class="st3" x1="241.4" y1="61.3" x2="238.3" y2="61.3"/>
		<line class="st3" x1="241.5" y1="62.4" x2="238.4" y2="62.4"/>
		<path class="st0" d="M235.2,63.1h3V58c0,0-0.3-0.5-1.6-0.5c-1,0-1.4,0.5-1.4,0.5V63.1z"/>
		<path class="st4" d="M236.5,66.4h-1.1c0,0,0-4.5,0-5.8c0-0.2,0.3-0.4,0.6-0.4s0.6,0.3,0.6,0.4C236.5,61.9,236.5,66.4,236.5,66.4z"
			/>
		<rect x="235.4" y="63.2" class="st2" width="1.1" height="1.8"/>
		<path class="st4" d="M238.1,66.4h-1.2c0,0,0-4.5,0-5.8c0-0.2,0.3-0.4,0.6-0.4c0.3,0,0.6,0.3,0.6,0.4
			C238.1,61.9,238.1,66.4,238.1,66.4z"/>
		<rect x="237" y="63.2" class="st2" width="1.1" height="1.8"/>
	</g>
	<g>
		<path class="st2" d="M251.9,81.8v-0.3l1.8-1.8V68.9c0,0-3.6,0.1-4.2-0.3c-0.6-0.3-0.7-0.6-0.7-0.6h-0.6c0,0,0,0.3-0.7,0.6
			c-0.6,0.3-4.2,0.3-4.2,0.3v10.6l1.8,1.8v0.3h6.8L251.9,81.8L251.9,81.8z"/>
		<path class="st0" d="M243.9,76.7h0.5v0.6h2.6v-7.1c0,0-0.3-0.7-1.6-0.7c-1,0-1.4,0.6-1.4,0.6v6.6H243.9z"/>
		<line class="st3" x1="243.9" y1="74.4" x2="246.9" y2="74.4"/>
		<line class="st3" x1="243.8" y1="75.4" x2="246.9" y2="75.4"/>
		<line class="st3" x1="243.7" y1="76.5" x2="246.9" y2="76.5"/>
		<path class="st0" d="M253.3,76.7h-0.5v0.6h-2.6v-7.1c0,0,0.3-0.7,1.6-0.7c1,0,1.4,0.6,1.4,0.6L253.3,76.7L253.3,76.7z"/>
		<line class="st3" x1="253.3" y1="74.4" x2="250.1" y2="74.4"/>
		<line class="st3" x1="253.3" y1="75.4" x2="250.2" y2="75.4"/>
		<line class="st3" x1="253.4" y1="76.5" x2="250.2" y2="76.5"/>
		<path class="st0" d="M247.1,77.3h3v-5.2c0,0-0.3-0.5-1.6-0.5c-1,0-1.4,0.5-1.4,0.5V77.3z"/>
		<path class="st4" d="M248.4,80.5h-1.1c0,0,0-4.5,0-5.8c0-0.2,0.3-0.5,0.6-0.4c0.3,0,0.6,0.3,0.6,0.4
			C248.4,76,248.4,80.5,248.4,80.5z"/>
		<rect x="247.3" y="77.4" class="st2" width="1.1" height="1.8"/>
		<path class="st4" d="M250,80.5h-1.2c0,0,0-4.5,0-5.8c0-0.2,0.3-0.5,0.6-0.4c0.3,0,0.6,0.3,0.6,0.4C250,76,250,80.5,250,80.5z"/>
		<rect x="248.8" y="77.4" class="st2" width="1.1" height="1.8"/>
	</g>
	<g>
		<path class="st2" d="M261.4,98.5v-0.3l1.8-1.8V85.7c0,0-3.6,0.1-4.2-0.3c-0.6-0.3-0.7-0.6-0.7-0.6h-0.6c0,0,0,0.3-0.7,0.6
			c-0.6,0.3-4.2,0.3-4.2,0.3v10.6l1.8,1.8v0.3L261.4,98.5L261.4,98.5z"/>
		<path class="st0" d="M253.3,93.4h0.5V94h2.6v-7.1c0,0-0.3-0.7-1.6-0.7c-1,0-1.4,0.6-1.4,0.6v6.6H253.3z"/>
		<line class="st3" x1="253.3" y1="91.1" x2="256.4" y2="91.1"/>
		<line class="st3" x1="253.3" y1="92.2" x2="256.4" y2="92.2"/>
		<line class="st3" x1="253.2" y1="93.3" x2="256.4" y2="93.3"/>
		<path class="st0" d="M262.7,93.4h-0.5V94h-2.6v-7.1c0,0,0.3-0.7,1.6-0.7c1,0,1.4,0.6,1.4,0.6v6.6H262.7z"/>
		<line class="st3" x1="262.7" y1="91.1" x2="259.6" y2="91.1"/>
		<line class="st3" x1="262.8" y1="92.2" x2="259.6" y2="92.2"/>
		<line class="st3" x1="262.8" y1="93.3" x2="259.7" y2="93.3"/>
		<path class="st0" d="M256.5,94h3v-5.2c0,0-0.3-0.5-1.6-0.5c-1,0-1.4,0.4-1.4,0.4V94z"/>
		<path class="st4" d="M257.9,97.2h-1.1c0,0,0-4.5,0-5.8c0-0.2,0.3-0.5,0.6-0.4c0.3,0,0.6,0.3,0.6,0.4
			C257.9,92.8,257.9,97.2,257.9,97.2z"/>
		<rect x="256.7" y="94.1" class="st2" width="1.1" height="1.8"/>
		<path class="st4" d="M259.4,97.2h-1.1c0,0,0-4.5,0-5.8c0-0.2,0.3-0.5,0.6-0.4c0.3,0,0.6,0.3,0.6,0.4
			C259.4,92.8,259.4,97.2,259.4,97.2z"/>
		<rect x="258.3" y="94.1" class="st2" width="1.1" height="1.8"/>
	</g>
	<g>
		<path class="st2" d="M267.9,115.5v-0.3l1.8-1.8v-10.6c0,0-3.6,0.1-4.2-0.3c-0.6-0.3-0.7-0.6-0.7-0.6h-0.6c0,0,0,0.3-0.7,0.6
			c-0.6,0.3-4.2,0.3-4.2,0.3v10.6l1.8,1.8v0.3H267.9z"/>
		<path class="st0" d="M259.8,110.4h0.5v0.6h2.6v-7.1c0,0-0.3-0.7-1.6-0.7c-1,0-1.4,0.6-1.4,0.6v6.6H259.8z"/>
		<line class="st3" x1="259.8" y1="108.1" x2="262.9" y2="108.1"/>
		<line class="st3" x1="259.8" y1="109.2" x2="262.9" y2="109.2"/>
		<line class="st3" x1="259.7" y1="110.3" x2="262.9" y2="110.3"/>
		<path class="st0" d="M269.2,110.4h-0.5v0.6h-2.6v-7.1c0,0,0.3-0.7,1.6-0.7c1,0,1.4,0.6,1.4,0.6v6.6H269.2z"/>
		<line class="st3" x1="269.2" y1="108.1" x2="266.1" y2="108.1"/>
		<line class="st3" x1="269.3" y1="109.2" x2="266.1" y2="109.2"/>
		<line class="st3" x1="269.3" y1="110.3" x2="266.2" y2="110.3"/>
		<path class="st0" d="M263,111h3v-5.2c0,0-0.3-0.5-1.6-0.5c-1,0-1.4,0.5-1.4,0.5V111z"/>
		<path class="st4" d="M264.4,114.2h-1.1c0,0,0-4.5,0-5.8c0-0.2,0.3-0.5,0.6-0.4c0.3,0,0.6,0.3,0.6,0.4
			C264.4,109.8,264.4,114.2,264.4,114.2z"/>
		<rect x="263.2" y="111.1" class="st2" width="1.1" height="1.8"/>
		<path class="st4" d="M265.9,114.2h-1.1c0,0,0-4.5,0-5.8c0-0.2,0.3-0.5,0.6-0.4c0.3,0,0.6,0.3,0.6,0.4
			C265.9,109.8,265.9,114.2,265.9,114.2z"/>
		<rect x="264.8" y="111.1" class="st2" width="1.1" height="1.8"/>
	</g>
	<g>
		<path class="st2" d="M272.1,134.5v-0.3l1.8-1.8v-10.6c0,0-3.6,0.1-4.2-0.3s-0.7-0.6-0.7-0.6h-0.6c0,0,0,0.3-0.7,0.6
			c-0.6,0.3-4.2,0.3-4.2,0.3v10.6l1.8,1.8v0.3H272.1z"/>
		<path class="st0" d="M264.1,129.5h0.5v0.6h2.6V123c0,0-0.3-0.7-1.6-0.7c-1,0-1.4,0.6-1.4,0.6v6.6H264.1z"/>
		<line class="st3" x1="264.1" y1="127.2" x2="267.2" y2="127.2"/>
		<line class="st3" x1="264" y1="128.2" x2="267.2" y2="128.2"/>
		<line class="st3" x1="263.9" y1="129.3" x2="267.1" y2="129.3"/>
		<path class="st0" d="M273.5,129.5H273v0.6h-2.6V123c0,0,0.3-0.7,1.6-0.7c1,0,1.4,0.6,1.4,0.6v6.6H273.5z"/>
		<line class="st3" x1="273.5" y1="127.2" x2="270.4" y2="127.2"/>
		<line class="st3" x1="273.5" y1="128.2" x2="270.4" y2="128.2"/>
		<line class="st3" x1="273.6" y1="129.3" x2="270.5" y2="129.3"/>
		<path class="st0" d="M267.3,130h3v-5.1c0,0-0.3-0.5-1.6-0.5c-1,0-1.4,0.5-1.4,0.5V130z"/>
		<path class="st4" d="M268.6,133.3h-1.1c0,0,0-4.5,0-5.8c0-0.2,0.3-0.5,0.6-0.4c0.3,0,0.6,0.3,0.6,0.4
			C268.6,128.8,268.6,133.3,268.6,133.3z"/>
		<rect x="267.5" y="130.2" class="st2" width="1.1" height="1.8"/>
		<path class="st4" d="M270.2,133.3H269c0,0,0-4.5,0-5.8c0-0.2,0.3-0.5,0.6-0.4c0.3,0,0.6,0.3,0.6,0.4
			C270.2,128.8,270.2,133.3,270.2,133.3z"/>
		<rect x="269.1" y="130.2" class="st2" width="1.1" height="1.8"/>
	</g>
	<g>
		<path class="st2" d="M273.1,153.6v-0.3l1.8-1.8v-10.6c0,0-3.6,0.1-4.2-0.3c-0.6-0.4-0.7-0.6-0.7-0.6h-0.6c0,0,0,0.3-0.7,0.6
			c-0.6,0.4-4.2,0.3-4.2,0.3v10.6l1.8,1.8v0.3H273.1z"/>
		<path class="st0" d="M265.1,148.5h0.5v0.6h2.6V142c0,0-0.3-0.7-1.6-0.7c-1,0-1.4,0.6-1.4,0.6v6.6L265.1,148.5L265.1,148.5z"/>
		<line class="st3" x1="265.1" y1="146.2" x2="268.1" y2="146.2"/>
		<line class="st3" x1="265" y1="147.3" x2="268.1" y2="147.3"/>
		<line class="st3" x1="264.9" y1="148.4" x2="268.1" y2="148.4"/>
		<path class="st0" d="M274.5,148.5H274v0.6h-2.6V142c0,0,0.3-0.7,1.6-0.7c1,0,1.4,0.6,1.4,0.6v6.6L274.5,148.5L274.5,148.5z"/>
		<line class="st3" x1="274.5" y1="146.2" x2="271.3" y2="146.2"/>
		<line class="st3" x1="274.5" y1="147.3" x2="271.4" y2="147.3"/>
		<line class="st3" x1="274.6" y1="148.4" x2="271.4" y2="148.4"/>
		<path class="st0" d="M268.3,149.1h3V144c0,0-0.3-0.5-1.6-0.5c-1,0-1.4,0.5-1.4,0.5V149.1z"/>
		<path class="st4" d="M269.6,152.3h-1.1c0,0,0-4.5,0-5.8c0-0.2,0.3-0.5,0.6-0.4c0.3,0,0.6,0.3,0.6,0.4
			C269.6,147.8,269.6,152.3,269.6,152.3z"/>
		<rect x="268.5" y="149.2" class="st2" width="1.1" height="1.8"/>
		<path class="st4" d="M271.2,152.3H270c0,0,0-4.5,0-5.8c0-0.2,0.3-0.5,0.6-0.4c0.3,0,0.6,0.3,0.6,0.4
			C271.2,147.8,271.2,152.3,271.2,152.3z"/>
		<rect x="270" y="149.2" class="st2" width="1.1" height="1.8"/>
	</g>
	<g>
		<path class="st2" d="M271.1,171.6v-0.3l1.8-1.8v-10.6c0,0-3.5,0.1-4.2-0.3c-0.6-0.4-0.7-0.6-0.7-0.6h-0.6c0,0,0,0.3-0.7,0.6
			c-0.6,0.3-4.2,0.3-4.2,0.3v10.6l1.8,1.8v0.3H271.1z"/>
		<path class="st0" d="M263,166.5h0.5v0.6h2.6V160c0,0-0.3-0.7-1.6-0.7c-1,0-1.4,0.6-1.4,0.6v6.6L263,166.5L263,166.5z"/>
		<line class="st3" x1="263" y1="164.3" x2="266.1" y2="164.3"/>
		<line class="st3" x1="262.9" y1="165.3" x2="266.1" y2="165.3"/>
		<line class="st3" x1="262.8" y1="166.4" x2="266" y2="166.4"/>
		<path class="st0" d="M272.4,166.5H272v0.6h-2.6V160c0,0,0.3-0.7,1.6-0.7c1,0,1.4,0.6,1.4,0.6V166.5z"/>
		<line class="st3" x1="272.4" y1="164.3" x2="269.3" y2="164.3"/>
		<line class="st3" x1="272.4" y1="165.3" x2="269.3" y2="165.3"/>
		<line class="st3" x1="272.5" y1="166.4" x2="269.4" y2="166.4"/>
		<path class="st0" d="M266.2,167.1h3V162c0,0-0.3-0.5-1.6-0.5c-1,0-1.4,0.5-1.4,0.5V167.1z"/>
		<path class="st4" d="M267.5,170.4h-1.1c0,0,0-4.5,0-5.8c0-0.2,0.3-0.5,0.6-0.4c0.3,0,0.6,0.3,0.6,0.4
			C267.5,165.9,267.5,170.4,267.5,170.4z"/>
		<rect x="266.4" y="167.2" class="st2" width="1.1" height="1.8"/>
		<path class="st4" d="M269.1,170.4h-1.2c0,0,0-4.5,0-5.8c0-0.2,0.3-0.5,0.6-0.4c0.3,0,0.6,0.3,0.6,0.4
			C269.1,165.9,269.1,170.4,269.1,170.4z"/>
		<rect x="268" y="167.2" class="st2" width="1.1" height="1.8"/>
	</g>
	<g>
		<path class="st2" d="M266.1,190v-0.3l1.8-1.8v-10.6c0,0-3.6,0.1-4.2-0.3c-0.6-0.3-0.7-0.6-0.7-0.6h-0.6c0,0,0,0.3-0.7,0.6
			c-0.6,0.3-4.2,0.3-4.2,0.3v10.6l1.8,1.8v0.3H266.1z"/>
		<path class="st0" d="M258,184.9h0.5v0.6h2.6v-7.1c0,0-0.3-0.7-1.6-0.7c-1,0-1.4,0.6-1.4,0.6v6.6L258,184.9L258,184.9z"/>
		<line class="st3" x1="258" y1="182.7" x2="261.1" y2="182.7"/>
		<line class="st3" x1="258" y1="183.7" x2="261.1" y2="183.7"/>
		<line class="st3" x1="257.9" y1="184.8" x2="261.1" y2="184.8"/>
		<path class="st0" d="M267.5,184.9H267v0.6h-2.6v-7.1c0,0,0.3-0.7,1.6-0.7c1,0,1.4,0.6,1.4,0.6v6.6L267.5,184.9L267.5,184.9z"/>
		<line class="st3" x1="267.5" y1="182.7" x2="264.3" y2="182.7"/>
		<line class="st3" x1="267.5" y1="183.7" x2="264.3" y2="183.7"/>
		<line class="st3" x1="267.5" y1="184.8" x2="264.4" y2="184.8"/>
		<path class="st0" d="M261.2,185.5h3v-5.2c0,0-0.3-0.5-1.6-0.5c-1,0-1.4,0.5-1.4,0.5V185.5z"/>
		<path class="st4" d="M262.6,188.8h-1.1c0,0,0-4.5,0-5.8c0-0.2,0.3-0.4,0.6-0.4c0.3,0,0.6,0.3,0.6,0.4
			C262.6,184.3,262.6,188.8,262.6,188.8z"/>
		<rect x="261.5" y="185.6" class="st2" width="1.1" height="1.8"/>
		<path class="st4" d="M264.1,188.8H263c0,0,0-4.5,0-5.8c0-0.2,0.3-0.4,0.6-0.4c0.3,0,0.6,0.3,0.6,0.4
			C264.1,184.3,264.1,188.8,264.1,188.8z"/>
		<rect x="263" y="185.6" class="st2" width="1.1" height="1.8"/>
	</g>
	<g>
		<path class="st2" d="M258.5,207.3V207l1.8-1.8v-10.6c0,0-3.6,0.1-4.2-0.3c-0.6-0.3-0.7-0.6-0.7-0.6h-0.6c0,0,0,0.3-0.7,0.6
			c-0.6,0.4-4.2,0.3-4.2,0.3v10.6l1.8,1.8v0.3H258.5z"/>
		<path class="st0" d="M250.5,202.2h0.5v0.6h2.6v-7.1c0,0-0.3-0.7-1.6-0.7c-1,0-1.4,0.6-1.4,0.6v6.6L250.5,202.2L250.5,202.2z"/>
		<line class="st3" x1="250.5" y1="199.9" x2="253.5" y2="199.9"/>
		<line class="st3" x1="250.4" y1="201" x2="253.5" y2="201"/>
		<line class="st3" x1="250.3" y1="202.1" x2="253.5" y2="202.1"/>
		<path class="st0" d="M259.9,202.2h-0.5v0.6h-2.6v-7.1c0,0,0.3-0.7,1.6-0.7c1,0,1.4,0.6,1.4,0.6v6.6L259.9,202.2L259.9,202.2z"/>
		<line class="st3" x1="259.9" y1="199.9" x2="256.7" y2="199.9"/>
		<line class="st3" x1="259.9" y1="201" x2="256.8" y2="201"/>
		<line class="st3" x1="260" y1="202.1" x2="256.8" y2="202.1"/>
		<path class="st0" d="M253.7,202.8h3v-5.2c0,0-0.3-0.5-1.6-0.5c-1,0-1.4,0.5-1.4,0.5V202.8z"/>
		<path class="st4" d="M255,206h-1.1c0,0,0-4.5,0-5.8c0-0.2,0.3-0.5,0.6-0.4c0.3,0,0.6,0.3,0.6,0.4C255,201.6,255,206,255,206z"/>
		<rect x="253.9" y="202.9" class="st2" width="1.1" height="1.8"/>
		<path class="st4" d="M256.6,206h-1.1c0,0,0-4.5,0-5.8c0-0.2,0.3-0.5,0.6-0.4c0.3,0,0.6,0.3,0.6,0.4
			C256.6,201.6,256.6,206,256.6,206z"/>
		<rect x="255.4" y="202.9" class="st2" width="1.1" height="1.8"/>
	</g>
	<g>
		<path class="st2" d="M248.2,223v-0.3l1.8-1.8v-10.6c0,0-3.6,0.1-4.2-0.3c-0.6-0.3-0.7-0.6-0.7-0.6h-0.6c0,0,0,0.3-0.7,0.6
			c-0.6,0.3-4.2,0.3-4.2,0.3v10.6l1.8,1.8v0.3H248.2z"/>
		<path class="st0" d="M240.1,217.9h0.5v0.6h2.6v-7.1c0,0-0.3-0.7-1.6-0.7c-1,0-1.4,0.6-1.4,0.6v6.6L240.1,217.9L240.1,217.9z"/>
		<line class="st3" x1="240.1" y1="215.6" x2="243.2" y2="215.6"/>
		<line class="st3" x1="240.1" y1="216.7" x2="243.2" y2="216.7"/>
		<line class="st3" x1="240" y1="217.8" x2="243.2" y2="217.8"/>
		<path class="st0" d="M249.5,217.9H249v0.6h-2.6v-7.1c0,0,0.3-0.7,1.6-0.7c1,0,1.4,0.6,1.4,0.6v6.6L249.5,217.9L249.5,217.9z"/>
		<line class="st3" x1="249.5" y1="215.6" x2="246.4" y2="215.6"/>
		<line class="st3" x1="249.6" y1="216.7" x2="246.4" y2="216.7"/>
		<line class="st3" x1="249.6" y1="217.8" x2="246.5" y2="217.8"/>
		<path class="st0" d="M243.3,218.5h3v-5.1c0,0-0.3-0.5-1.6-0.5c-1,0-1.4,0.5-1.4,0.5V218.5z"/>
		<path class="st4" d="M244.7,221.8h-1.1c0,0,0-4.5,0-5.8c0-0.2,0.3-0.5,0.6-0.4c0.3,0,0.6,0.3,0.6,0.4
			C244.7,217.3,244.7,221.8,244.7,221.8z"/>
		<rect x="243.6" y="218.6" class="st2" width="1.1" height="1.8"/>
		<path class="st4" d="M246.2,221.8h-1.1c0,0,0-4.5,0-5.8c0-0.2,0.3-0.5,0.6-0.4c0.3,0,0.6,0.3,0.6,0.4
			C246.2,217.3,246.2,221.8,246.2,221.8z"/>
		<rect x="245.1" y="218.6" class="st2" width="1.1" height="1.8"/>
	</g>
	<g>
		<path class="st2" d="M235.5,236.8v-0.3l1.8-1.8V224c0,0-3.6,0.1-4.2-0.3c-0.6-0.4-0.7-0.6-0.7-0.6h-0.6c0,0,0,0.3-0.7,0.6
			c-0.6,0.4-4.2,0.3-4.2,0.3v10.6l1.8,1.8v0.3L235.5,236.8L235.5,236.8z"/>
		<path class="st0" d="M227.5,231.7h0.5v0.6h2.6v-7.1c0,0-0.3-0.7-1.6-0.7c-1,0-1.4,0.6-1.4,0.6v6.6L227.5,231.7L227.5,231.7z"/>
		<line class="st3" x1="227.5" y1="229.4" x2="230.5" y2="229.4"/>
		<line class="st3" x1="227.4" y1="230.4" x2="230.5" y2="230.4"/>
		<line class="st3" x1="227.3" y1="231.6" x2="230.5" y2="231.6"/>
		<path class="st0" d="M236.9,231.7h-0.5v0.6h-2.6v-7.1c0,0,0.3-0.7,1.6-0.7c1,0,1.4,0.6,1.4,0.6v6.6L236.9,231.7L236.9,231.7z"/>
		<line class="st3" x1="236.9" y1="229.4" x2="233.7" y2="229.4"/>
		<line class="st3" x1="236.9" y1="230.4" x2="233.8" y2="230.4"/>
		<line class="st3" x1="237" y1="231.6" x2="233.8" y2="231.6"/>
		<path class="st0" d="M230.7,232.3h3v-5.1c0,0-0.3-0.5-1.6-0.5c-1,0-1.4,0.5-1.4,0.5V232.3z"/>
		<path class="st4" d="M232,235.5h-1.2c0,0,0-4.5,0-5.8c0-0.2,0.3-0.4,0.6-0.4c0.3,0,0.6,0.3,0.6,0.4C232,231,232,235.5,232,235.5z"
			/>
		<rect x="230.9" y="232.4" class="st2" width="1.1" height="1.8"/>
		<path class="st4" d="M233.6,235.5h-1.1c0,0,0-4.5,0-5.8c0-0.2,0.3-0.4,0.6-0.4s0.6,0.3,0.6,0.4C233.6,231,233.6,235.5,233.6,235.5
			z"/>
		<rect x="232.4" y="232.4" class="st2" width="1.1" height="1.8"/>
	</g>
	<g>
		<path class="st2" d="M220.7,249.1v-0.3l1.8-1.8v-10.6c0,0-3.6,0.1-4.2-0.3c-0.6-0.3-0.7-0.6-0.7-0.6H217c0,0,0,0.3-0.7,0.6
			c-0.6,0.3-4.2,0.3-4.2,0.3V247l1.8,1.8v0.3H220.7z"/>
		<path class="st0" d="M212.6,244h0.5v0.6h2.6v-7.1c0,0-0.3-0.7-1.6-0.7c-1,0-1.4,0.6-1.4,0.6v6.6L212.6,244L212.6,244z"/>
		<line class="st3" x1="212.6" y1="241.8" x2="215.7" y2="241.8"/>
		<line class="st3" x1="212.6" y1="242.8" x2="215.7" y2="242.8"/>
		<line class="st3" x1="212.5" y1="243.9" x2="215.7" y2="243.9"/>
		<path class="st0" d="M222,244h-0.5v0.6H219v-7.1c0,0,0.3-0.7,1.6-0.7c1,0,1.4,0.6,1.4,0.6V244z"/>
		<line class="st3" x1="222" y1="241.8" x2="218.9" y2="241.8"/>
		<line class="st3" x1="222.1" y1="242.8" x2="218.9" y2="242.8"/>
		<line class="st3" x1="222.1" y1="243.9" x2="219" y2="243.9"/>
		<path class="st0" d="M215.8,244.6h3v-5.1c0,0-0.3-0.5-1.6-0.5c-1,0-1.4,0.5-1.4,0.5V244.6z"/>
		<path class="st4" d="M217.2,247.9H216c0,0,0-4.5,0-5.8c0-0.2,0.3-0.5,0.6-0.4c0.3,0,0.6,0.3,0.6,0.4
			C217.2,243.4,217.2,247.9,217.2,247.9z"/>
		<rect x="216" y="244.7" class="st2" width="1.1" height="1.8"/>
		<path class="st4" d="M218.7,247.9h-1.1c0,0,0-4.5,0-5.8c0-0.2,0.3-0.5,0.6-0.4c0.3,0,0.6,0.3,0.6,0.4
			C218.7,243.4,218.7,247.9,218.7,247.9z"/>
		<rect x="217.6" y="244.7" class="st2" width="1.1" height="1.8"/>
	</g>
	<g>
		<path class="st2" d="M204.3,258.6v-0.3l1.8-1.8v-10.6c0,0-3.6,0.1-4.2-0.3c-0.6-0.3-0.7-0.6-0.7-0.6h-0.6c0,0,0,0.3-0.7,0.6
			c-0.6,0.3-4.2,0.3-4.2,0.3v10.6l1.8,1.8v0.3H204.3z"/>
		<path class="st0" d="M196.3,253.5h0.5v0.6h2.6V247c0,0-0.3-0.7-1.6-0.7c-1,0-1.4,0.6-1.4,0.6v6.6L196.3,253.5L196.3,253.5z"/>
		<line class="st3" x1="196.3" y1="251.3" x2="199.4" y2="251.3"/>
		<line class="st3" x1="196.2" y1="252.3" x2="199.4" y2="252.3"/>
		<line class="st3" x1="196.1" y1="253.4" x2="199.3" y2="253.4"/>
		<path class="st0" d="M205.7,253.5h-0.5v0.6h-2.6V247c0,0,0.3-0.7,1.6-0.7c1,0,1.4,0.6,1.4,0.6v6.6L205.7,253.5L205.7,253.5z"/>
		<line class="st3" x1="205.7" y1="251.3" x2="202.6" y2="251.3"/>
		<line class="st3" x1="205.7" y1="252.3" x2="202.6" y2="252.3"/>
		<line class="st3" x1="205.8" y1="253.4" x2="202.7" y2="253.4"/>
		<path class="st0" d="M199.5,254.1h3V249c0,0-0.3-0.5-1.6-0.5c-1,0-1.4,0.5-1.4,0.5V254.1z"/>
		<path class="st4" d="M200.8,257.4h-1.1c0,0,0-4.5,0-5.8c0-0.2,0.3-0.4,0.6-0.4c0.3,0,0.6,0.3,0.6,0.4
			C200.8,252.9,200.8,257.4,200.8,257.4z"/>
		<rect x="199.7" y="254.2" class="st2" width="1.1" height="1.8"/>
		<path class="st4" d="M202.4,257.4h-1.1c0,0,0-4.5,0-5.8c0-0.2,0.3-0.4,0.6-0.4s0.6,0.3,0.6,0.4
			C202.4,252.9,202.4,257.4,202.4,257.4z"/>
		<rect x="201.3" y="254.2" class="st2" width="1.1" height="1.8"/>
	</g>
	<g>
		<path class="st2" d="M186.8,265.3V265l1.8-1.8v-10.6c0,0-3.6,0.1-4.2-0.3c-0.6-0.3-0.7-0.6-0.7-0.6h-0.6c0,0,0,0.3-0.7,0.6
			c-0.6,0.4-4.2,0.3-4.2,0.3v10.6l1.8,1.8v0.3H186.8z"/>
		<path class="st0" d="M178.8,260.2h0.5v0.6h2.6v-7.1c0,0-0.3-0.7-1.6-0.7c-1,0-1.4,0.6-1.4,0.6v6.6H178.8z"/>
		<line class="st3" x1="178.8" y1="258" x2="181.8" y2="258"/>
		<line class="st3" x1="178.7" y1="259" x2="181.8" y2="259"/>
		<line class="st3" x1="178.6" y1="260.1" x2="181.8" y2="260.1"/>
		<path class="st0" d="M188.2,260.2h-0.5v0.6h-2.6v-7.1c0,0,0.3-0.7,1.6-0.7c1,0,1.4,0.6,1.4,0.6v6.6H188.2z"/>
		<line class="st3" x1="188.2" y1="258" x2="185" y2="258"/>
		<line class="st3" x1="188.2" y1="259" x2="185" y2="259"/>
		<line class="st3" x1="188.3" y1="260.1" x2="185.1" y2="260.1"/>
		<path class="st0" d="M182,260.8h3v-5.2c0,0-0.3-0.5-1.6-0.5c-1,0-1.4,0.5-1.4,0.5V260.8z"/>
		<path class="st4" d="M183.3,264.1h-1.1c0,0,0-4.5,0-5.8c0-0.2,0.3-0.4,0.6-0.4c0.3,0,0.6,0.3,0.6,0.4
			C183.3,259.6,183.3,264.1,183.3,264.1z"/>
		<rect x="182.2" y="260.9" class="st2" width="1.1" height="1.8"/>
		<path class="st4" d="M184.8,264.1h-1.1c0,0,0-4.5,0-5.8c0-0.2,0.3-0.4,0.6-0.4c0.3,0,0.6,0.3,0.6,0.4
			C184.8,259.6,184.8,264.1,184.8,264.1z"/>
		<rect x="183.7" y="260.9" class="st2" width="1.1" height="1.8"/>
	</g>
	<g>
		<path class="st2" d="M168.1,269.3V269l1.8-1.8v-10.6c0,0-3.6,0.1-4.2-0.3c-0.6-0.3-0.7-0.6-0.7-0.6h-0.6c0,0,0,0.3-0.7,0.6
			c-0.6,0.4-4.2,0.3-4.2,0.3v10.6l1.8,1.8v0.3H168.1z"/>
		<path class="st0" d="M160.1,264.3h0.5v0.6h2.6v-7.1c0,0-0.3-0.7-1.6-0.7c-1,0-1.4,0.6-1.4,0.6v6.6H160.1z"/>
		<line class="st3" x1="160.1" y1="262" x2="163.1" y2="262"/>
		<line class="st3" x1="160" y1="263" x2="163.1" y2="263"/>
		<line class="st3" x1="159.9" y1="264.1" x2="163.1" y2="264.1"/>
		<path class="st0" d="M169.5,264.3H169v0.6h-2.6v-7.1c0,0,0.3-0.7,1.6-0.7c1,0,1.4,0.6,1.4,0.6v6.6H169.5z"/>
		<line class="st3" x1="169.5" y1="262" x2="166.4" y2="262"/>
		<line class="st3" x1="169.5" y1="263" x2="166.4" y2="263"/>
		<line class="st3" x1="169.6" y1="264.1" x2="166.5" y2="264.1"/>
		<path class="st0" d="M163.3,264.9h3v-5.1c0,0-0.3-0.5-1.6-0.5c-1,0-1.4,0.5-1.4,0.5V264.9z"/>
		<path class="st4" d="M164.6,268.1h-1.1c0,0,0-4.5,0-5.8c0-0.2,0.3-0.5,0.6-0.4c0.3,0,0.6,0.3,0.6,0.4
			C164.6,263.6,164.6,268.1,164.6,268.1z"/>
		<rect x="163.5" y="265" class="st2" width="1.1" height="1.8"/>
		<path class="st4" d="M166.2,268.1H165c0,0,0-4.5,0-5.8c0-0.2,0.3-0.5,0.6-0.4c0.3,0,0.6,0.3,0.6,0.4
			C166.2,263.6,166.2,268.1,166.2,268.1z"/>
		<rect x="165.1" y="265" class="st2" width="1.1" height="1.8"/>
	</g>
	<g>
		<path class="st2" d="M149.5,270.4V270l1.8-1.8v-10.6c0,0-3.6,0.1-4.2-0.3s-0.7-0.6-0.7-0.6h-0.6c0,0,0,0.3-0.7,0.6
			c-0.6,0.4-4.2,0.3-4.2,0.3v10.6l1.8,1.8v0.3h6.8L149.5,270.4L149.5,270.4z"/>
		<path class="st0" d="M141.4,265.3h0.5v0.6h2.6v-7.1c0,0-0.3-0.7-1.6-0.7c-1,0-1.4,0.6-1.4,0.6v6.6H141.4z"/>
		<line class="st3" x1="141.4" y1="263" x2="144.5" y2="263"/>
		<line class="st3" x1="141.3" y1="264" x2="144.5" y2="264"/>
		<line class="st3" x1="141.3" y1="265.1" x2="144.5" y2="265.1"/>
		<path class="st0" d="M150.8,265.3h-0.5v0.6h-2.6v-7.1c0,0,0.3-0.7,1.6-0.7c1,0,1.4,0.6,1.4,0.6L150.8,265.3L150.8,265.3z"/>
		<line class="st3" x1="150.8" y1="263" x2="147.7" y2="263"/>
		<line class="st3" x1="150.8" y1="264" x2="147.7" y2="264"/>
		<line class="st3" x1="150.9" y1="265.1" x2="147.8" y2="265.1"/>
		<path class="st0" d="M144.6,265.9h3v-5.2c0,0-0.3-0.5-1.6-0.5c-1,0-1.4,0.5-1.4,0.5V265.9z"/>
		<path class="st4" d="M145.9,269.1h-1.1c0,0,0-4.5,0-5.8c0-0.2,0.3-0.5,0.6-0.4c0.3,0,0.6,0.3,0.6,0.4
			C145.9,264.6,145.9,269.1,145.9,269.1z"/>
		<rect x="144.8" y="266" class="st2" width="1.1" height="1.8"/>
		<path class="st4" d="M147.5,269.1h-1.2c0,0,0-4.5,0-5.8c0-0.2,0.3-0.5,0.6-0.4c0.3,0,0.6,0.3,0.6,0.4
			C147.5,264.6,147.5,269.1,147.5,269.1z"/>
		<rect x="146.4" y="266" class="st2" width="1.1" height="1.8"/>
	</g>
	<g>
		<path class="st2" d="M130.6,268.6v-0.3l1.8-1.8v-10.6c0,0-3.6,0.1-4.2-0.3c-0.6-0.4-0.7-0.6-0.7-0.6h-0.6c0,0,0,0.3-0.7,0.6
			c-0.6,0.3-4.2,0.3-4.2,0.3v10.6l1.8,1.8v0.3H130.6z"/>
		<path class="st0" d="M122.5,263.5h0.5v0.6h2.6V257c0,0-0.3-0.7-1.6-0.7c-1,0-1.4,0.6-1.4,0.6v6.6H122.5z"/>
		<line class="st3" x1="122.5" y1="261.2" x2="125.6" y2="261.2"/>
		<line class="st3" x1="122.5" y1="262.3" x2="125.6" y2="262.3"/>
		<line class="st3" x1="122.4" y1="263.4" x2="125.6" y2="263.4"/>
		<path class="st0" d="M131.9,263.5h-0.5v0.6h-2.6V257c0,0,0.3-0.7,1.6-0.7c1,0,1.4,0.6,1.4,0.6v6.6H131.9z"/>
		<line class="st3" x1="131.9" y1="261.2" x2="128.8" y2="261.2"/>
		<line class="st3" x1="132" y1="262.3" x2="128.8" y2="262.3"/>
		<line class="st3" x1="132" y1="263.4" x2="128.9" y2="263.4"/>
		<path class="st0" d="M125.7,264.1h3V259c0,0-0.3-0.5-1.6-0.5c-1,0-1.4,0.5-1.4,0.5V264.1z"/>
		<path class="st4" d="M127.1,267.3H126c0,0,0-4.5,0-5.8c0-0.2,0.3-0.5,0.6-0.4c0.3,0,0.6,0.3,0.6,0.4
			C127.1,262.9,127.1,267.3,127.1,267.3z"/>
		<rect x="125.9" y="264.2" class="st2" width="1.1" height="1.8"/>
		<path class="st4" d="M128.6,267.3h-1.2c0,0,0-4.5,0-5.8c0-0.2,0.3-0.5,0.6-0.4c0.3,0,0.6,0.3,0.6,0.4
			C128.6,262.9,128.6,267.3,128.6,267.3z"/>
		<rect x="127.5" y="264.2" class="st2" width="1.1" height="1.8"/>
	</g>
	<g>
		<path class="st2" d="M112.5,264v-0.3l1.8-1.8v-10.6c0,0-3.6,0.1-4.2-0.3c-0.6-0.3-0.7-0.6-0.7-0.6h-0.6c0,0,0,0.3-0.7,0.6
			c-0.6,0.4-4.2,0.3-4.2,0.3v10.6l1.8,1.8v0.3H112.5z"/>
		<path class="st0" d="M104.5,258.9h0.5v0.6h2.6v-7.1c0,0-0.3-0.7-1.6-0.7c-1,0-1.4,0.6-1.4,0.6v6.6H104.5z"/>
		<line class="st3" x1="104.5" y1="256.6" x2="107.5" y2="256.6"/>
		<line class="st3" x1="104.4" y1="257.6" x2="107.5" y2="257.6"/>
		<line class="st3" x1="104.3" y1="258.8" x2="107.5" y2="258.8"/>
		<path class="st0" d="M113.9,258.9h-0.5v0.6h-2.6v-7.1c0,0,0.3-0.7,1.6-0.7c1,0,1.4,0.6,1.4,0.6L113.9,258.9L113.9,258.9z"/>
		<line class="st3" x1="113.9" y1="256.6" x2="110.7" y2="256.6"/>
		<line class="st3" x1="113.9" y1="257.6" x2="110.8" y2="257.6"/>
		<line class="st3" x1="114" y1="258.8" x2="110.8" y2="258.8"/>
		<path class="st0" d="M107.7,259.5h3v-5.2c0,0-0.3-0.5-1.6-0.5c-1,0-1.4,0.5-1.4,0.5V259.5z"/>
		<path class="st4" d="M109,262.7h-1.1c0,0,0-4.5,0-5.8c0-0.2,0.3-0.5,0.6-0.4c0.3,0,0.6,0.3,0.6,0.4C109,258.2,109,262.7,109,262.7
			z"/>
		<rect x="107.9" y="259.6" class="st2" width="1.1" height="1.8"/>
		<path class="st4" d="M110.6,262.7h-1.1c0,0,0-4.5,0-5.8c0-0.2,0.3-0.5,0.6-0.4c0.3,0,0.6,0.3,0.6,0.4
			C110.6,258.2,110.6,262.7,110.6,262.7z"/>
		<rect x="109.4" y="259.6" class="st2" width="1.1" height="1.8"/>
	</g>
	<g>
		<path class="st2" d="M94.9,256v-0.3l1.8-1.8v-10.6c0,0-3.6,0.1-4.2-0.3c-0.6-0.4-0.7-0.6-0.7-0.6h-0.6c0,0,0,0.3-0.7,0.6
			c-0.6,0.3-4.2,0.3-4.2,0.3v10.6l1.8,1.8v0.3H94.9z"/>
		<path class="st0" d="M86.9,250.9h0.5v0.6H90v-7.1c0,0-0.3-0.7-1.6-0.7c-1,0-1.4,0.6-1.4,0.6v6.6L86.9,250.9L86.9,250.9z"/>
		<line class="st3" x1="86.9" y1="248.6" x2="89.9" y2="248.6"/>
		<line class="st3" x1="86.8" y1="249.7" x2="89.9" y2="249.7"/>
		<line class="st3" x1="86.7" y1="250.8" x2="89.9" y2="250.8"/>
		<path class="st0" d="M96.3,250.9h-0.5v0.6h-2.6v-7.1c0,0,0.3-0.7,1.6-0.7c1,0,1.4,0.6,1.4,0.6L96.3,250.9L96.3,250.9z"/>
		<line class="st3" x1="96.3" y1="248.6" x2="93.1" y2="248.6"/>
		<line class="st3" x1="96.3" y1="249.7" x2="93.2" y2="249.7"/>
		<line class="st3" x1="96.4" y1="250.8" x2="93.2" y2="250.8"/>
		<path class="st0" d="M90.1,251.5h3v-5.2c0,0-0.3-0.5-1.6-0.5c-1,0-1.4,0.5-1.4,0.5V251.5z"/>
		<path class="st4" d="M91.4,254.7h-1.1c0,0,0-4.5,0-5.8c0-0.2,0.3-0.5,0.6-0.4c0.3,0,0.6,0.3,0.6,0.4
			C91.4,250.3,91.4,254.7,91.4,254.7z"/>
		<rect x="90.3" y="251.6" class="st2" width="1.1" height="1.8"/>
		<path class="st4" d="M92.9,254.7h-1.1c0,0,0-4.5,0-5.8c0-0.2,0.3-0.5,0.6-0.4c0.3,0,0.6,0.3,0.6,0.4
			C92.9,250.3,92.9,254.7,92.9,254.7z"/>
		<rect x="91.8" y="251.6" class="st2" width="1.1" height="1.8"/>
	</g>
	<g>
		<path class="st2" d="M79.1,245.4v-0.3l1.8-1.8v-10.6c0,0-3.6,0.1-4.2-0.3c-0.6-0.3-0.7-0.6-0.7-0.6h-0.6c0,0,0,0.3-0.7,0.6
			c-0.6,0.3-4.2,0.3-4.2,0.3v10.6l1.8,1.8v0.3H79.1z"/>
		<path class="st0" d="M71,240.3h0.5v0.6h2.6v-7.1c0,0-0.3-0.7-1.6-0.7c-1,0-1.4,0.6-1.4,0.6v6.6L71,240.3L71,240.3z"/>
		<line class="st3" x1="71" y1="238.1" x2="74.1" y2="238.1"/>
		<line class="st3" x1="71" y1="239.1" x2="74.1" y2="239.1"/>
		<line class="st3" x1="70.9" y1="240.2" x2="74.1" y2="240.2"/>
		<path class="st0" d="M80.5,240.3H80v0.6h-2.6v-7.1c0,0,0.3-0.7,1.6-0.7c1,0,1.4,0.6,1.4,0.6v6.6L80.5,240.3L80.5,240.3z"/>
		<line class="st3" x1="80.5" y1="238.1" x2="77.3" y2="238.1"/>
		<line class="st3" x1="80.5" y1="239.1" x2="77.3" y2="239.1"/>
		<line class="st3" x1="80.6" y1="240.2" x2="77.4" y2="240.2"/>
		<path class="st0" d="M74.3,240.9h3v-5.1c0,0-0.3-0.5-1.6-0.5c-1,0-1.4,0.5-1.4,0.5V240.9z"/>
		<path class="st4" d="M75.6,244.2h-1.1c0,0,0-4.5,0-5.8c0-0.2,0.3-0.4,0.6-0.4s0.6,0.3,0.6,0.4C75.6,239.7,75.6,244.2,75.6,244.2z"
			/>
		<rect x="74.5" y="241.1" class="st2" width="1.1" height="1.8"/>
		<path class="st4" d="M77.1,244.2H76c0,0,0-4.5,0-5.8c0-0.2,0.3-0.4,0.6-0.4s0.6,0.3,0.6,0.4C77.1,239.7,77.1,244.2,77.1,244.2z"/>
		<rect x="76" y="241.1" class="st2" width="1.1" height="1.8"/>
	</g>
	<g>
		<path class="st2" d="M63.6,232v-0.3l1.8-1.8v-10.6c0,0-3.6,0.1-4.2-0.3c-0.6-0.4-0.7-0.6-0.7-0.6h-0.6c0,0,0,0.3-0.7,0.6
			c-0.6,0.3-4.2,0.3-4.2,0.3v10.6l1.8,1.8v0.3H63.6z"/>
		<path class="st0" d="M55.6,226.9H56v0.6h2.6v-7.1c0,0-0.3-0.7-1.6-0.7c-1,0-1.4,0.6-1.4,0.6V226.9z"/>
		<line class="st3" x1="55.6" y1="224.7" x2="58.6" y2="224.7"/>
		<line class="st3" x1="55.5" y1="225.7" x2="58.6" y2="225.7"/>
		<line class="st3" x1="55.4" y1="226.8" x2="58.6" y2="226.8"/>
		<path class="st0" d="M65,226.9h-0.5v0.6h-2.6v-7.1c0,0,0.3-0.7,1.6-0.7c1,0,1.4,0.6,1.4,0.6L65,226.9L65,226.9z"/>
		<line class="st3" x1="65" y1="224.7" x2="61.8" y2="224.7"/>
		<line class="st3" x1="65" y1="225.7" x2="61.9" y2="225.7"/>
		<line class="st3" x1="65.1" y1="226.8" x2="61.9" y2="226.8"/>
		<path class="st0" d="M58.8,227.5h3v-5.1c0,0-0.3-0.5-1.6-0.5c-1,0-1.4,0.4-1.4,0.4V227.5z"/>
		<path class="st4" d="M60.1,230.8H59c0,0,0-4.5,0-5.8c0-0.2,0.3-0.5,0.6-0.4c0.3,0,0.6,0.3,0.6,0.4
			C60.1,226.3,60.1,230.8,60.1,230.8z"/>
		<rect x="59" y="227.6" class="st2" width="1.1" height="1.8"/>
		<path class="st4" d="M61.7,230.8h-1.1c0,0,0-4.5,0-5.8c0-0.2,0.3-0.5,0.6-0.4c0.3,0,0.6,0.3,0.6,0.4
			C61.7,226.3,61.7,230.8,61.7,230.8z"/>
		<rect x="60.5" y="227.6" class="st2" width="1.1" height="1.8"/>
	</g>
	<g>
		<path class="st2" d="M52.6,217.7v-0.3l1.8-1.8V205c0,0-3.6,0.1-4.2-0.3c-0.6-0.4-0.7-0.6-0.7-0.6H49c0,0,0,0.3-0.7,0.6
			c-0.6,0.3-4.2,0.3-4.2,0.3v10.6l1.8,1.8v0.3L52.6,217.7L52.6,217.7z"/>
		<path class="st0" d="M44.6,212.6h0.5v0.6h2.6v-7.1c0,0-0.3-0.7-1.6-0.7c-1,0-1.4,0.6-1.4,0.6L44.6,212.6L44.6,212.6z"/>
		<line class="st3" x1="44.6" y1="210.4" x2="47.6" y2="210.4"/>
		<line class="st3" x1="44.5" y1="211.4" x2="47.7" y2="211.4"/>
		<line class="st3" x1="44.4" y1="212.5" x2="47.6" y2="212.5"/>
		<path class="st0" d="M54,212.6h-0.5v0.6H51v-7.1c0,0,0.3-0.7,1.6-0.7c1,0,1.4,0.6,1.4,0.6V212.6z"/>
		<line class="st3" x1="54" y1="210.4" x2="50.9" y2="210.4"/>
		<line class="st3" x1="54" y1="211.4" x2="50.9" y2="211.4"/>
		<line class="st3" x1="54.1" y1="212.5" x2="51" y2="212.5"/>
		<path class="st0" d="M47.8,213.2h3v-5.1c0,0-0.3-0.5-1.6-0.5c-1,0-1.4,0.5-1.4,0.5V213.2z"/>
		<path class="st4" d="M49.1,216.5H48c0,0,0-4.5,0-5.8c0-0.2,0.3-0.5,0.6-0.4c0.3,0,0.6,0.3,0.6,0.4C49.1,212,49.1,216.5,49.1,216.5
			z"/>
		<rect x="48" y="213.4" class="st2" width="1.1" height="1.8"/>
		<path class="st4" d="M50.7,216.5h-1.2c0,0,0-4.5,0-5.8c0-0.2,0.3-0.5,0.6-0.4c0.3,0,0.6,0.3,0.6,0.4
			C50.7,212,50.7,216.5,50.7,216.5z"/>
		<rect x="49.6" y="213.4" class="st2" width="1.1" height="1.8"/>
	</g>
	<g>
		<path class="st2" d="M43,201.7v-0.3l1.8-1.8V189c0,0-3.6,0.1-4.2-0.3c-0.6-0.4-0.7-0.6-0.7-0.6h-0.6c0,0,0,0.3-0.7,0.6
			c-0.6,0.3-4.2,0.3-4.2,0.3v10.6l1.8,1.8v0.3L43,201.7L43,201.7z"/>
		<path class="st0" d="M34.9,196.7h0.5v0.6H38v-7.1c0,0-0.3-0.7-1.6-0.7c-1,0-1.4,0.6-1.4,0.6L34.9,196.7L34.9,196.7z"/>
		<line class="st3" x1="34.9" y1="194.4" x2="38" y2="194.4"/>
		<line class="st3" x1="34.9" y1="195.4" x2="38" y2="195.4"/>
		<line class="st3" x1="34.8" y1="196.5" x2="38" y2="196.5"/>
		<path class="st0" d="M44.3,196.7h-0.5v0.6h-2.6v-7.1c0,0,0.3-0.7,1.6-0.7c1,0,1.4,0.6,1.4,0.6L44.3,196.7L44.3,196.7L44.3,196.7z"
			/>
		<line class="st3" x1="44.3" y1="194.4" x2="41.2" y2="194.4"/>
		<line class="st3" x1="44.4" y1="195.4" x2="41.2" y2="195.4"/>
		<line class="st3" x1="44.4" y1="196.5" x2="41.3" y2="196.5"/>
		<path class="st0" d="M38.1,197.3h3v-5.1c0,0-0.3-0.5-1.6-0.5c-1,0-1.4,0.5-1.4,0.5V197.3z"/>
		<path class="st4" d="M39.5,200.5h-1.2c0,0,0-4.5,0-5.8c0-0.2,0.3-0.4,0.6-0.4s0.6,0.3,0.6,0.4C39.5,196,39.5,200.5,39.5,200.5z"/>
		<rect x="38.3" y="197.4" class="st2" width="1.1" height="1.8"/>
		<path class="st4" d="M41,200.5h-1.1c0,0,0-4.5,0-5.8c0-0.2,0.3-0.4,0.6-0.4s0.6,0.3,0.6,0.4C41,196,41,200.5,41,200.5z"/>
		<rect x="39.9" y="197.4" class="st2" width="1.1" height="1.8"/>
	</g>
	<g>
		<path class="st2" d="M36.2,183.5v-0.3l1.8-1.8v-10.6c0,0-3.6,0.1-4.2-0.3c-0.6-0.4-0.7-0.6-0.7-0.6h-0.6c0,0,0,0.3-0.7,0.6
			c-0.6,0.4-4.2,0.3-4.2,0.3v10.6l1.8,1.8v0.3H36.2z"/>
		<path class="st0" d="M28.2,178.4h0.5v0.6h2.6v-7.1c0,0-0.3-0.7-1.6-0.7c-1,0-1.4,0.6-1.4,0.6L28.2,178.4L28.2,178.4L28.2,178.4z"
			/>
		<line class="st3" x1="28.2" y1="176.1" x2="31.2" y2="176.1"/>
		<line class="st3" x1="28.1" y1="177.2" x2="31.2" y2="177.2"/>
		<line class="st3" x1="28" y1="178.3" x2="31.2" y2="178.3"/>
		<path class="st0" d="M37.6,178.4h-0.5v0.6h-2.6v-7.1c0,0,0.3-0.7,1.6-0.7c1,0,1.4,0.6,1.4,0.6L37.6,178.4L37.6,178.4z"/>
		<line class="st3" x1="37.6" y1="176.1" x2="34.5" y2="176.1"/>
		<line class="st3" x1="37.6" y1="177.2" x2="34.5" y2="177.2"/>
		<line class="st3" x1="37.7" y1="178.3" x2="34.5" y2="178.3"/>
		<path class="st0" d="M31.4,179h3v-5.2c0,0-0.3-0.5-1.6-0.5c-1,0-1.4,0.5-1.4,0.5V179z"/>
		<path class="st4" d="M32.7,182.2h-1.2c0,0,0-4.5,0-5.8c0-0.2,0.3-0.5,0.6-0.4c0.3,0,0.6,0.3,0.6,0.4
			C32.7,177.8,32.7,182.2,32.7,182.2z"/>
		<rect x="31.6" y="179.1" class="st2" width="1.1" height="1.8"/>
		<path class="st4" d="M34.3,182.2h-1.1c0,0,0-4.5,0-5.8c0-0.2,0.3-0.5,0.6-0.4c0.3,0,0.6,0.3,0.6,0.4
			C34.3,177.8,34.3,182.2,34.3,182.2z"/>
		<rect x="33.1" y="179.1" class="st2" width="1.1" height="1.8"/>
	</g>
	<g>
		<path class="st2" d="M32.1,165.9v-0.3l1.8-1.8v-10.6c0,0-3.6,0.1-4.2-0.3c-0.6-0.4-0.7-0.6-0.7-0.6h-0.6c0,0,0,0.3-0.7,0.6
			c-0.6,0.4-4.2,0.3-4.2,0.3v10.6l1.8,1.8v0.3H32.1z"/>
		<path class="st0" d="M24.1,160.8h0.5v0.6h2.6v-7.1c0,0-0.3-0.7-1.6-0.7c-1,0-1.4,0.6-1.4,0.6L24.1,160.8L24.1,160.8z"/>
		<line class="st3" x1="24.1" y1="158.5" x2="27.1" y2="158.5"/>
		<line class="st3" x1="24" y1="159.6" x2="27.1" y2="159.6"/>
		<line class="st3" x1="23.9" y1="160.7" x2="27.1" y2="160.7"/>
		<path class="st0" d="M33.5,160.8H33v0.6h-2.6v-7.1c0,0,0.3-0.7,1.6-0.7c1,0,1.4,0.6,1.4,0.6L33.5,160.8L33.5,160.8z"/>
		<line class="st3" x1="33.5" y1="158.5" x2="30.3" y2="158.5"/>
		<line class="st3" x1="33.5" y1="159.6" x2="30.3" y2="159.6"/>
		<line class="st3" x1="33.5" y1="160.7" x2="30.4" y2="160.7"/>
		<path class="st0" d="M27.3,161.4h3v-5.2c0,0-0.3-0.5-1.6-0.5c-1,0-1.4,0.5-1.4,0.5V161.4z"/>
		<path class="st4" d="M28.6,164.6h-1.2c0,0,0-4.5,0-5.8c0-0.2,0.3-0.5,0.6-0.4c0.3,0,0.6,0.3,0.6,0.4
			C28.6,160.1,28.6,164.6,28.6,164.6z"/>
		<rect x="27.5" y="161.5" class="st2" width="1.1" height="1.8"/>
		<path class="st4" d="M30.1,164.6H29c0,0,0-4.5,0-5.8c0-0.2,0.3-0.5,0.6-0.4c0.3,0,0.6,0.3,0.6,0.4
			C30.1,160.1,30.1,164.6,30.1,164.6z"/>
		<rect x="29" y="161.5" class="st2" width="1.1" height="1.8"/>
	</g>
	<g>
		<path class="st2" d="M31.2,146.3V146l1.8-1.8v-10.6c0,0-3.6,0.1-4.2-0.3c-0.6-0.3-0.7-0.6-0.7-0.6h-0.6c0,0,0,0.3-0.7,0.6
			c-0.6,0.4-4.2,0.3-4.2,0.3v10.6l1.8,1.8v0.3H31.2z"/>
		<path class="st0" d="M23.2,141.2h0.5v0.6h2.6v-7.1c0,0-0.3-0.7-1.6-0.7c-1,0-1.4,0.6-1.4,0.6L23.2,141.2L23.2,141.2L23.2,141.2z"
			/>
		<line class="st3" x1="23.2" y1="139" x2="26.3" y2="139"/>
		<line class="st3" x1="23.1" y1="140" x2="26.3" y2="140"/>
		<line class="st3" x1="23" y1="141.1" x2="26.2" y2="141.1"/>
		<path class="st0" d="M32.6,141.2h-0.5v0.6h-2.6v-7.1c0,0,0.3-0.7,1.6-0.7c1,0,1.4,0.6,1.4,0.6L32.6,141.2L32.6,141.2z"/>
		<line class="st3" x1="32.6" y1="139" x2="29.5" y2="139"/>
		<line class="st3" x1="32.6" y1="140" x2="29.5" y2="140"/>
		<line class="st3" x1="32.7" y1="141.1" x2="29.6" y2="141.1"/>
		<path class="st0" d="M26.4,141.8h3v-5.1c0,0-0.3-0.5-1.6-0.5c-1,0-1.4,0.5-1.4,0.5V141.8z"/>
		<path class="st4" d="M27.7,145.1h-1.1c0,0,0-4.5,0-5.8c0-0.2,0.3-0.5,0.6-0.4c0.3,0,0.6,0.3,0.6,0.4
			C27.7,140.6,27.7,145.1,27.7,145.1z"/>
		<rect x="26.6" y="141.9" class="st2" width="1.1" height="1.8"/>
		<path class="st4" d="M29.3,145.1h-1.1c0,0,0-4.5,0-5.8c0-0.2,0.3-0.5,0.6-0.4c0.3,0,0.6,0.3,0.6,0.4
			C29.3,140.6,29.3,145.1,29.3,145.1z"/>
		<rect x="28.2" y="141.9" class="st2" width="1.1" height="1.8"/>
	</g>
	<g>
		<path class="st2" d="M33.4,127.8v-0.3l1.8-1.8V115c0,0-3.6,0.1-4.2-0.3c-0.6-0.3-0.7-0.6-0.7-0.6h-0.6c0,0,0,0.3-0.7,0.6
			c-0.6,0.4-4.2,0.3-4.2,0.3v10.6l1.8,1.8v0.3L33.4,127.8L33.4,127.8z"/>
		<path class="st0" d="M25.3,122.7h0.5v0.6h2.6v-7.1c0,0-0.3-0.7-1.6-0.7c-1,0-1.4,0.6-1.4,0.6L25.3,122.7L25.3,122.7z"/>
		<line class="st3" x1="25.3" y1="120.5" x2="28.4" y2="120.5"/>
		<line class="st3" x1="25.2" y1="121.5" x2="28.4" y2="121.5"/>
		<line class="st3" x1="25.1" y1="122.6" x2="28.4" y2="122.6"/>
		<path class="st0" d="M34.7,122.7h-0.5v0.6h-2.6v-7.1c0,0,0.3-0.7,1.6-0.7c1,0,1.4,0.6,1.4,0.6L34.7,122.7L34.7,122.7z"/>
		<line class="st3" x1="34.7" y1="120.5" x2="31.6" y2="120.5"/>
		<line class="st3" x1="34.7" y1="121.5" x2="31.6" y2="121.5"/>
		<line class="st3" x1="34.8" y1="122.6" x2="31.7" y2="122.6"/>
		<path class="st0" d="M28.5,123.3h3v-5.1c0,0-0.3-0.5-1.6-0.5c-1,0-1.4,0.5-1.4,0.5V123.3z"/>
		<path class="st4" d="M29.8,126.6h-1.1c0,0,0-4.5,0-5.8c0-0.1,0.3-0.4,0.6-0.4s0.6,0.3,0.6,0.4C29.8,122.1,29.8,126.6,29.8,126.6z"
			/>
		<rect x="28.7" y="123.4" class="st2" width="1.1" height="1.8"/>
		<path class="st4" d="M31.4,126.6h-1.2c0,0,0-4.5,0-5.8c0-0.1,0.3-0.4,0.6-0.4s0.6,0.3,0.6,0.4C31.4,122.1,31.4,126.6,31.4,126.6z"
			/>
		<rect x="30.3" y="123.4" class="st2" width="1.1" height="1.8"/>
	</g>
	<g>
		<path class="st2" d="M38.3,109.4v-0.3l1.8-1.8V96.6c0,0-3.6,0.1-4.2-0.3s-0.7-0.6-0.7-0.6h-0.6c0,0,0,0.3-0.7,0.6
			c-0.6,0.4-4.2,0.3-4.2,0.3v10.6l1.8,1.8v0.3L38.3,109.4L38.3,109.4z"/>
		<path class="st0" d="M30.2,104.3h0.5v0.6h2.6v-7.1c0,0-0.3-0.7-1.6-0.7c-1,0-1.4,0.6-1.4,0.6L30.2,104.3L30.2,104.3z"/>
		<line class="st3" x1="30.2" y1="102" x2="33.3" y2="102"/>
		<line class="st3" x1="30.2" y1="103.1" x2="33.3" y2="103.1"/>
		<line class="st3" x1="30.1" y1="104.2" x2="33.3" y2="104.2"/>
		<path class="st0" d="M39.6,104.3h-0.5v0.6h-2.6v-7.1c0,0,0.3-0.7,1.6-0.7c1,0,1.4,0.6,1.4,0.6L39.6,104.3L39.6,104.3z"/>
		<line class="st3" x1="39.6" y1="102" x2="36.5" y2="102"/>
		<line class="st3" x1="39.7" y1="103.1" x2="36.5" y2="103.1"/>
		<line class="st3" x1="39.7" y1="104.2" x2="36.6" y2="104.2"/>
		<path class="st0" d="M33.4,104.9h3v-5.1c0,0-0.3-0.5-1.6-0.5c-1,0-1.4,0.5-1.4,0.5V104.9z"/>
		<path class="st4" d="M34.8,108.1h-1.1c0,0,0-4.5,0-5.8c0-0.2,0.3-0.4,0.6-0.4s0.6,0.3,0.6,0.4C34.8,103.7,34.8,108.1,34.8,108.1z"
			/>
		<rect x="33.7" y="105" class="st2" width="1.1" height="1.8"/>
		<path class="st4" d="M36.3,108.1h-1.1c0,0,0-4.5,0-5.8c0-0.2,0.3-0.4,0.6-0.4s0.6,0.3,0.6,0.4C36.3,103.7,36.3,108.1,36.3,108.1z"
			/>
		<rect x="35.2" y="105" class="st2" width="1.1" height="1.8"/>
	</g>
	<g>
		<path class="st2" d="M45.8,92.3V92l1.8-1.8V79.5c0,0-3.6,0.1-4.2-0.3s-0.7-0.6-0.7-0.6h-0.6c0,0,0,0.3-0.7,0.6
			c-0.6,0.3-4.2,0.3-4.2,0.3v10.6l1.8,1.8v0.3L45.8,92.3L45.8,92.3z"/>
		<path class="st0" d="M37.7,87.2h0.5v0.6h2.6v-7.1c0,0-0.3-0.7-1.6-0.7c-1,0-1.4,0.6-1.4,0.6L37.7,87.2L37.7,87.2z"/>
		<line class="st3" x1="37.7" y1="84.9" x2="40.8" y2="84.9"/>
		<line class="st3" x1="37.7" y1="86" x2="40.8" y2="86"/>
		<line class="st3" x1="37.6" y1="87.1" x2="40.8" y2="87.1"/>
		<path class="st0" d="M47.1,87.2h-0.5v0.6H44v-7.1c0,0,0.3-0.7,1.6-0.7c1,0,1.4,0.6,1.4,0.6L47.1,87.2L47.1,87.2z"/>
		<line class="st3" x1="47.1" y1="84.9" x2="44" y2="84.9"/>
		<line class="st3" x1="47.1" y1="86" x2="44" y2="86"/>
		<line class="st3" x1="47.2" y1="87.1" x2="44.1" y2="87.1"/>
		<path class="st0" d="M40.9,87.8h3v-5.1c0,0-0.3-0.5-1.6-0.5c-1,0-1.4,0.5-1.4,0.5V87.8z"/>
		<path class="st4" d="M42.3,91.1h-1.1c0,0,0-4.5,0-5.8c0-0.2,0.3-0.4,0.6-0.4s0.6,0.3,0.6,0.4C42.3,86.6,42.3,91.1,42.3,91.1z"/>
		<rect x="41.1" y="87.9" class="st2" width="1.1" height="1.8"/>
		<path class="st4" d="M43.8,91.1h-1.1c0,0,0-4.5,0-5.8c0-0.2,0.3-0.4,0.6-0.4s0.6,0.3,0.6,0.4C43.8,86.6,43.8,91.1,43.8,91.1z"/>
		<rect x="42.7" y="87.9" class="st2" width="1.1" height="1.8"/>
	</g>
	<g>
		<path class="st2" d="M56.8,75.8v-0.3l1.8-1.8V63c0,0-3.6,0.1-4.2-0.3c-0.6-0.3-0.7-0.6-0.7-0.6h-0.6c0,0,0,0.3-0.7,0.6
			C51.8,63,48.3,63,48.3,63v10.6l1.8,1.8v0.3L56.8,75.8L56.8,75.8z"/>
		<path class="st0" d="M48.8,70.7h0.5v0.6h2.6v-7.1c0,0-0.3-0.7-1.6-0.7c-1,0-1.4,0.6-1.4,0.6L48.8,70.7L48.8,70.7z"/>
		<line class="st3" x1="48.8" y1="68.4" x2="51.8" y2="68.4"/>
		<line class="st3" x1="48.7" y1="69.5" x2="51.8" y2="69.5"/>
		<line class="st3" x1="48.6" y1="70.6" x2="51.8" y2="70.6"/>
		<path class="st0" d="M58.2,70.7h-0.5v0.6h-2.6v-7.1c0,0,0.3-0.7,1.6-0.7c1,0,1.4,0.6,1.4,0.6L58.2,70.7L58.2,70.7z"/>
		<line class="st3" x1="58.2" y1="68.4" x2="55" y2="68.4"/>
		<line class="st3" x1="58.2" y1="69.5" x2="55.1" y2="69.5"/>
		<line class="st3" x1="58.3" y1="70.6" x2="55.1" y2="70.6"/>
		<path class="st0" d="M52,71.3h3v-5.2c0,0-0.3-0.5-1.6-0.5c-1,0-1.4,0.5-1.4,0.5V71.3z"/>
		<path class="st4" d="M53.3,74.5h-1.1c0,0,0-4.5,0-5.8c0-0.2,0.3-0.5,0.6-0.4c0.3,0,0.6,0.3,0.6,0.4C53.3,70.1,53.3,74.5,53.3,74.5
			z"/>
		<rect x="52.2" y="71.4" class="st2" width="1.1" height="1.8"/>
		<path class="st4" d="M54.9,74.5h-1.1c0,0,0-4.5,0-5.8c0-0.2,0.3-0.5,0.6-0.4c0.3,0,0.6,0.3,0.6,0.4C54.9,70.1,54.9,74.5,54.9,74.5
			z"/>
		<rect x="53.7" y="71.4" class="st2" width="1.1" height="1.8"/>
	</g>
	<g>
		<path class="st2" d="M69.9,61.7v-0.3l1.8-1.8V48.9c0,0-3.6,0.1-4.2-0.3c-0.6-0.3-0.7-0.6-0.7-0.6h-0.6c0,0,0,0.3-0.7,0.6
			c-0.6,0.4-4.2,0.3-4.2,0.3v10.6l1.8,1.8v0.3h6.8L69.9,61.7L69.9,61.7z"/>
		<path class="st0" d="M61.8,56.6h0.5v0.6h2.6v-7.1c0,0-0.3-0.7-1.6-0.7c-1,0-1.4,0.6-1.4,0.6L61.8,56.6L61.8,56.6z"/>
		<line class="st5" x1="61.8" y1="54.4" x2="64.9" y2="54.4"/>
		<line class="st3" x1="61.8" y1="55.4" x2="64.9" y2="55.4"/>
		<line class="st3" x1="61.7" y1="56.5" x2="64.9" y2="56.5"/>
		<path class="st0" d="M71.2,56.6h-0.5v0.6h-2.6v-7.1c0,0,0.3-0.7,1.6-0.7c1,0,1.4,0.6,1.4,0.6L71.2,56.6L71.2,56.6z"/>
		<line class="st3" x1="71.2" y1="54.4" x2="68.1" y2="54.4"/>
		<line class="st3" x1="71.3" y1="55.4" x2="68.1" y2="55.4"/>
		<line class="st3" x1="71.3" y1="56.5" x2="68.2" y2="56.5"/>
		<path class="st0" d="M65,57.2h3V52c0,0-0.3-0.5-1.6-0.5c-1,0-1.4,0.5-1.4,0.5V57.2z"/>
		<path class="st4" d="M66.4,60.5h-1.1c0,0,0-4.5,0-5.8c0-0.2,0.3-0.4,0.6-0.4s0.6,0.3,0.6,0.4C66.4,56,66.4,60.5,66.4,60.5z"/>
		<rect x="65.2" y="57.3" class="st2" width="1.1" height="1.8"/>
		<path class="st4" d="M67.9,60.5h-1.1c0,0,0-4.5,0-5.8c0-0.2,0.3-0.4,0.6-0.4s0.6,0.3,0.6,0.4C67.9,56,67.9,60.5,67.9,60.5z"/>
		<rect x="66.8" y="57.3" class="st2" width="1.1" height="1.8"/>
	</g>
	<g>
		<path class="st2" d="M84.4,49.9v-0.3l1.8-1.8V37.1c0,0-3.6,0.1-4.2-0.3c-0.6-0.4-0.7-0.6-0.7-0.6h-0.6c0,0,0,0.3-0.7,0.6
			c-0.6,0.4-4.2,0.3-4.2,0.3v10.6l1.8,1.8v0.3h6.8L84.4,49.9L84.4,49.9z"/>
		<path class="st0" d="M76.4,44.8h0.5v0.6h2.6v-7.1c0,0-0.3-0.7-1.6-0.7c-1,0-1.4,0.6-1.4,0.6v6.6C76.5,44.8,76.4,44.8,76.4,44.8z"
			/>
		<line class="st3" x1="76.4" y1="42.6" x2="79.4" y2="42.6"/>
		<line class="st3" x1="76.3" y1="43.6" x2="79.4" y2="43.6"/>
		<line class="st3" x1="76.2" y1="44.7" x2="79.4" y2="44.7"/>
		<path class="st0" d="M85.8,44.8h-0.5v0.6h-2.6v-7.1c0,0,0.3-0.7,1.6-0.7c1,0,1.4,0.6,1.4,0.6L85.8,44.8L85.8,44.8z"/>
		<line class="st3" x1="85.8" y1="42.6" x2="82.7" y2="42.6"/>
		<line class="st3" x1="85.8" y1="43.6" x2="82.7" y2="43.6"/>
		<line class="st3" x1="85.9" y1="44.7" x2="82.8" y2="44.7"/>
		<path class="st0" d="M79.6,45.4h3v-5.1c0,0-0.3-0.5-1.6-0.5c-1,0-1.4,0.5-1.4,0.5V45.4z"/>
		<path class="st4" d="M80.9,48.7h-1.1c0,0,0-4.5,0-5.8c0-0.2,0.3-0.4,0.6-0.4s0.6,0.3,0.6,0.4C80.9,44.2,80.9,48.7,80.9,48.7z"/>
		<rect x="79.8" y="45.5" class="st2" width="1.1" height="1.8"/>
		<path class="st4" d="M82.5,48.7h-1.1c0,0,0-4.5,0-5.8c0-0.2,0.3-0.4,0.6-0.4s0.6,0.3,0.6,0.4C82.5,44.2,82.5,48.7,82.5,48.7z"/>
		<rect x="81.4" y="45.5" class="st2" width="1.1" height="1.8"/>
	</g>
	<path class="st2" d="M101.1,40.6v-0.3l1.8-1.8V27.8c0,0-3.6,0.1-4.2-0.3c-0.6-0.4-0.7-0.6-0.7-0.6h-0.6c0,0,0,0.3-0.7,0.6
		c-0.6,0.3-4.2,0.3-4.2,0.3v10.6l1.8,1.8v0.3L101.1,40.6L101.1,40.6z"/>
	<path class="st0" d="M93.1,35.5h0.5v0.6h2.6V29c0,0-0.3-0.7-1.6-0.7c-1,0-1.4,0.6-1.4,0.6L93.1,35.5L93.1,35.5z"/>
	<line class="st3" x1="93.1" y1="33.2" x2="96.1" y2="33.2"/>
	<line class="st3" x1="93" y1="34.3" x2="96.1" y2="34.3"/>
	<line class="st3" x1="92.9" y1="35.4" x2="96.1" y2="35.4"/>
	<path class="st0" d="M102.5,35.5H102v0.6h-2.6V29c0,0,0.3-0.7,1.6-0.7c1,0,1.4,0.6,1.4,0.6v6.6H102.5z"/>
	<line class="st3" x1="102.5" y1="33.2" x2="99.4" y2="33.2"/>
	<line class="st3" x1="102.5" y1="34.3" x2="99.4" y2="34.3"/>
	<line class="st3" x1="102.6" y1="35.4" x2="99.5" y2="35.4"/>
	<path class="st0" d="M96.3,36.1h3V31c0,0-0.3-0.5-1.6-0.5c-1,0-1.4,0.5-1.4,0.5V36.1z"/>
	<path class="st4" d="M97.6,39.3h-1.1c0,0,0-4.5,0-5.8c0-0.2,0.3-0.5,0.6-0.4c0.3,0,0.6,0.3,0.6,0.4C97.6,34.9,97.6,39.3,97.6,39.3z
		"/>
	<rect x="96.5" y="36.2" class="st2" width="1.1" height="1.8"/>
	<path class="st4" d="M99.2,39.3H98c0,0,0-4.5,0-5.8c0-0.2,0.3-0.5,0.6-0.4c0.3,0,0.6,0.3,0.6,0.4C99.2,34.9,99.2,39.3,99.2,39.3z"
		/>
	<rect x="98.1" y="36.2" class="st2" width="1.1" height="1.8"/>
	<g>
		<path class="st2" d="M118.2,34.2v-0.3L120,32V21.4c0,0-3.6,0.1-4.2-0.3s-0.7-0.6-0.7-0.6h-0.6c0,0,0,0.3-0.7,0.6
			c-0.6,0.3-4.2,0.3-4.2,0.3V32l1.8,1.8v0.3h6.8L118.2,34.2L118.2,34.2z"/>
		<path class="st0" d="M110.1,29.1h0.5v0.6h2.6v-7.1c0,0-0.3-0.7-1.6-0.7c-1,0-1.4,0.6-1.4,0.6L110.1,29.1L110.1,29.1z"/>
		<line class="st3" x1="110.1" y1="26.8" x2="113.2" y2="26.8"/>
		<line class="st3" x1="110" y1="27.9" x2="113.2" y2="27.9"/>
		<line class="st3" x1="109.9" y1="29" x2="113.2" y2="29"/>
		<path class="st0" d="M119.5,29.1H119v0.6h-2.6v-7.1c0,0,0.3-0.7,1.6-0.7c1,0,1.4,0.6,1.4,0.6v6.6H119.5z"/>
		<line class="st3" x1="119.5" y1="26.8" x2="116.4" y2="26.8"/>
		<line class="st3" x1="119.5" y1="27.9" x2="116.4" y2="27.9"/>
		<line class="st3" x1="119.6" y1="29" x2="116.5" y2="29"/>
		<path class="st0" d="M113.3,29.7h3v-5.2c0,0-0.3-0.5-1.6-0.5c-1,0-1.4,0.5-1.4,0.5V29.7z"/>
		<path class="st4" d="M114.7,32.9h-1.2c0,0,0-4.5,0-5.8c0-0.2,0.3-0.5,0.6-0.4c0.3,0,0.6,0.3,0.6,0.4
			C114.7,28.5,114.7,32.9,114.7,32.9z"/>
		<rect x="113.5" y="29.8" class="st2" width="1.1" height="1.8"/>
		<path class="st4" d="M116.2,32.9H115c0,0,0-4.5,0-5.8c0-0.2,0.3-0.5,0.6-0.4c0.3,0,0.6,0.3,0.6,0.4
			C116.2,28.5,116.2,32.9,116.2,32.9z"/>
		<rect x="115.1" y="29.8" class="st2" width="1.1" height="1.8"/>
	</g>
	<g>
		<path class="st2" d="M136.7,30.5v-0.3l1.8-1.8V17.7c0,0-3.6,0.1-4.2-0.3s-0.7-0.6-0.7-0.6H133c0,0,0,0.3-0.7,0.6
			c-0.6,0.3-4.2,0.3-4.2,0.3v10.6l1.8,1.8v0.3h6.8L136.7,30.5L136.7,30.5z"/>
		<path class="st0" d="M128.6,25.4h0.5V26h2.6v-7c0,0-0.3-0.7-1.6-0.7c-1,0-1.4,0.6-1.4,0.6L128.6,25.4L128.6,25.4z"/>
		<line class="st3" x1="128.6" y1="23.2" x2="131.7" y2="23.2"/>
		<line class="st3" x1="128.6" y1="24.2" x2="131.7" y2="24.2"/>
		<line class="st3" x1="128.5" y1="25.3" x2="131.7" y2="25.3"/>
		<path class="st0" d="M138,25.4h-0.5V26H135v-7c0,0,0.3-0.7,1.6-0.7c1,0,1.4,0.6,1.4,0.6V25.4z"/>
		<line class="st3" x1="138" y1="23.2" x2="134.9" y2="23.2"/>
		<line class="st3" x1="138.1" y1="24.2" x2="134.9" y2="24.2"/>
		<line class="st3" x1="138.1" y1="25.3" x2="135" y2="25.3"/>
		<path class="st0" d="M131.8,26h3v-5.1c0,0-0.3-0.5-1.6-0.5c-1,0-1.4,0.5-1.4,0.5V26z"/>
		<path class="st4" d="M133.2,29.3H132c0,0,0-4.5,0-5.8c0-0.2,0.3-0.5,0.6-0.4c0.3,0,0.6,0.3,0.6,0.4
			C133.2,24.8,133.2,29.3,133.2,29.3z"/>
		<rect x="132" y="26.1" class="st2" width="1.1" height="1.8"/>
		<path class="st4" d="M134.7,29.3h-1.1c0,0,0-4.5,0-5.8c0-0.2,0.3-0.5,0.6-0.4c0.3,0,0.6,0.3,0.6,0.4
			C134.7,24.8,134.7,29.3,134.7,29.3z"/>
		<rect x="133.6" y="26.1" class="st2" width="1.1" height="1.8"/>
	</g>
	<g>
		<path class="st2" d="M193,36.6v-0.3l1.8-1.8V23.8c0,0-3.6,0.1-4.2-0.3s-0.7-0.6-0.7-0.6h-0.6c0,0,0,0.3-0.7,0.6
			c-0.6,0.4-4.2,0.3-4.2,0.3v10.6l1.8,1.8v0.3L193,36.6L193,36.6z"/>
		<path class="st0" d="M185,31.5h0.5v0.6h2.6V25c0,0-0.3-0.7-1.6-0.7c-1,0-1.4,0.6-1.4,0.6v6.6H185z"/>
		<line class="st3" x1="185" y1="29.2" x2="188" y2="29.2"/>
		<line class="st3" x1="184.9" y1="30.3" x2="188.1" y2="30.3"/>
		<line class="st3" x1="184.8" y1="31.4" x2="188" y2="31.4"/>
		<path class="st0" d="M194.4,31.5h-0.5v0.6h-2.6V25c0,0,0.3-0.7,1.6-0.7c1,0,1.4,0.6,1.4,0.6v6.6H194.4z"/>
		<line class="st3" x1="194.4" y1="29.2" x2="191.3" y2="29.2"/>
		<line class="st3" x1="194.4" y1="30.3" x2="191.3" y2="30.3"/>
		<line class="st3" x1="194.5" y1="31.4" x2="191.4" y2="31.4"/>
		<path class="st0" d="M188.2,32.1h3v-5.2c0,0-0.3-0.5-1.6-0.5c-1,0-1.4,0.5-1.4,0.5V32.1z"/>
		<path class="st4" d="M189.5,35.3h-1.2c0,0,0-4.5,0-5.8c0-0.2,0.3-0.4,0.6-0.4c0.3,0,0.6,0.3,0.6,0.4
			C189.5,30.9,189.5,35.3,189.5,35.3z"/>
		<path class="st4" d="M191.1,35.3h-1.2c0,0,0-4.5,0-5.8c0-0.2,0.3-0.4,0.6-0.4c0.3,0,0.6,0.3,0.6,0.4
			C191.1,30.9,191.1,35.3,191.1,35.3z"/>
	</g>
</g>
<rect x="188.4" y="32.2" class="st2" width="1.1" height="1.8"/>
<rect x="190" y="32.2" class="st2" width="1.1" height="1.8"/>
<rect x="204.9" y="39.3" class="st2" width="1.1" height="1.8"/>
</svg>
