<?xml version="1.0" encoding="utf-8"?>
<!-- Generator: Adobe Illustrator 20.1.0, SVG Export Plug-In . SVG Version: 6.00 Build 0)  -->
<svg version="1.1" id="Layer_1" xmlns="http://www.w3.org/2000/svg" xmlns:xlink="http://www.w3.org/1999/xlink" x="0px" y="0px"
	 viewBox="0 0 417 300" style="enable-background:new 0 0 417 300;" xml:space="preserve">
<style type="text/css">
	.st0{fill:#681E44;}
	.st1{fill:none;stroke:#EC268B;stroke-width:0.6756;}
	.st2{fill:#EC258B;}
	.st3{fill:none;stroke:#EC268B;stroke-width:0.1351;}
	.st4{fill:#681E44;stroke:#EC218B;stroke-width:0.135;stroke-miterlimit:10;}
	.st5{fill:none;stroke:#EC268B;stroke-width:0.135;}
</style>
<rect y="0.1" class="st0" width="417" height="300"/>
<g>
	<ellipse class="st1" cx="208.3" cy="136.2" rx="121" ry="120.6"/>
	<path class="st1" d="M289,136.1c0,44.4-36.1,80.4-80.7,80.4s-80.7-36-80.7-80.4s36.1-80.4,80.7-80.4C252.9,55.7,289,91.7,289,136.1
		z"/>
	<ellipse class="st1" cx="208.4" cy="136.2" rx="76.7" ry="76.5"/>
	<ellipse class="st1" cx="208.6" cy="136.3" rx="36.4" ry="36.2"/>
	<ellipse class="st1" cx="208.5" cy="136.2" rx="33.5" ry="33.4"/>
	<line class="st1" x1="174.1" y1="20.3" x2="243" y2="252.1"/>
	<line class="st1" x1="192.7" y1="16.3" x2="224.3" y2="256.2"/>
	<line class="st1" x1="211.1" y1="16" x2="205.6" y2="256.6"/>
	<line class="st1" x1="157" y1="26.7" x2="260.7" y2="245.1"/>
	<line class="st1" x1="230.5" y1="17.8" x2="186.8" y2="254.9"/>
	<line class="st1" x1="140.5" y1="36" x2="276.6" y2="235.4"/>
	<line class="st1" x1="125.8" y1="47.9" x2="291.5" y2="223"/>
	<line class="st1" x1="112.9" y1="61.9" x2="304.4" y2="209.4"/>
	<line class="st1" x1="101.6" y1="78.4" x2="314.8" y2="193.5"/>
	<line class="st1" x1="94.6" y1="95.7" x2="322.5" y2="176.2"/>
	<line class="st1" x1="89.4" y1="114.1" x2="327.6" y2="157.9"/>
	<line class="st1" x1="87.4" y1="132.5" x2="329" y2="139.8"/>
	<line class="st1" x1="88.4" y1="152.2" x2="328.3" y2="120.7"/>
	<line class="st1" x1="92.6" y1="169.6" x2="324.1" y2="101.6"/>
	<line class="st1" x1="98.8" y1="188.3" x2="317.5" y2="84.6"/>
	<line class="st1" x1="108.5" y1="204.1" x2="307.8" y2="68"/>
	<line class="st1" x1="119.9" y1="218.1" x2="296.4" y2="53.4"/>
	<line class="st1" x1="135.2" y1="231.6" x2="282.5" y2="40.6"/>
	<line class="st1" x1="150.8" y1="242.7" x2="265.9" y2="29.9"/>
	<line class="st1" x1="168.5" y1="250" x2="249.2" y2="22.6"/>
	<polygon class="st2" points="202.3,139.3 129.6,284.4 143,284.4 206.3,141.4 	"/>
	<polygon class="st2" points="214.2,139.3 286.9,284.4 273.6,284.4 210.2,141.4 	"/>
	<path class="st2" d="M219.2,135.9c0,5.9-4.7,10.6-10.6,10.6c-5.8,0-10.6-4.7-10.6-10.6c0-5.9,4.7-10.6,10.6-10.6
		C214.4,125.3,219.2,130.1,219.2,135.9z"/>
	<g>
		<path class="st2" d="M214.4,29.6v-0.3l1.8-1.8V16.8c0,0-3.5,0.1-4.2-0.3c-0.6-0.4-0.7-0.6-0.7-0.6h-0.6c0,0,0,0.3-0.7,0.6
			c-0.6,0.3-4.2,0.3-4.2,0.3v10.6l1.8,1.8v0.3h6.8L214.4,29.6L214.4,29.6z"/>
		<path class="st0" d="M206.4,24.5h0.5v0.6h2.6V18c0,0-0.3-0.7-1.6-0.7c-1,0-1.4,0.6-1.4,0.6v6.6H206.4z"/>
		<line class="st3" x1="206.4" y1="22.3" x2="209.4" y2="22.3"/>
		<line class="st3" x1="206.3" y1="23.3" x2="209.4" y2="23.3"/>
		<line class="st3" x1="206.2" y1="24.4" x2="209.4" y2="24.4"/>
		<path class="st0" d="M215.8,24.5h-0.5v0.6h-2.6V18c0,0,0.3-0.7,1.6-0.7c1,0,1.4,0.6,1.4,0.6v6.6H215.8z"/>
		<line class="st3" x1="215.8" y1="22.3" x2="212.6" y2="22.3"/>
		<line class="st3" x1="215.8" y1="23.3" x2="212.6" y2="23.3"/>
		<line class="st3" x1="215.9" y1="24.4" x2="212.7" y2="24.4"/>
		<path class="st0" d="M209.6,25.1h3V20c0,0-0.3-0.5-1.6-0.5c-1,0-1.4,0.5-1.4,0.5V25.1z"/>
		<path class="st4" d="M210.9,28.4h-1.2c0,0,0-4.5,0-5.8c0-0.2,0.3-0.5,0.6-0.4c0.3,0,0.6,0.3,0.6,0.4
			C210.9,23.9,210.9,28.4,210.9,28.4z"/>
		<rect x="209.8" y="25.2" class="st2" width="1.1" height="1.8"/>
		<path class="st4" d="M212.4,28.4h-1.1c0,0,0-4.5,0-5.8c0-0.2,0.3-0.5,0.6-0.4c0.3,0,0.6,0.3,0.6,0.4
			C212.4,23.9,212.4,28.4,212.4,28.4z"/>
		<rect x="211.3" y="25.2" class="st2" width="1.1" height="1.8"/>
	</g>
	<g>
		<path class="st2" d="M234,31.6v-0.3l1.8-1.8V18.8c0,0-3.6,0.1-4.2-0.3c-0.6-0.4-0.7-0.6-0.7-0.6h-0.6c0,0,0,0.3-0.7,0.6
			c-0.6,0.3-4.2,0.3-4.2,0.3v10.6l1.8,1.8v0.3h6.8L234,31.6L234,31.6z"/>
		<path class="st0" d="M225.9,26.5h0.5v0.6h2.6V20c0,0-0.3-0.7-1.6-0.7c-1,0-1.4,0.6-1.4,0.6v6.6H225.9z"/>
		<line class="st3" x1="225.9" y1="24.2" x2="229" y2="24.2"/>
		<line class="st3" x1="225.9" y1="25.3" x2="229" y2="25.3"/>
		<line class="st3" x1="225.8" y1="26.4" x2="229" y2="26.4"/>
		<path class="st0" d="M235.3,26.5h-0.5v0.6h-2.6V20c0,0,0.3-0.7,1.6-0.7c1,0,1.4,0.6,1.4,0.6v6.6H235.3z"/>
		<line class="st3" x1="235.3" y1="24.2" x2="232.2" y2="24.2"/>
		<line class="st3" x1="235.4" y1="25.3" x2="232.2" y2="25.3"/>
		<line class="st3" x1="235.4" y1="26.4" x2="232.3" y2="26.4"/>
		<path class="st0" d="M229.1,27.1h3V22c0,0-0.3-0.5-1.6-0.5c-1,0-1.4,0.5-1.4,0.5V27.1z"/>
		<path class="st4" d="M230.5,30.3h-1.1c0,0,0-4.5,0-5.8c0-0.2,0.3-0.4,0.6-0.4s0.6,0.3,0.6,0.4C230.5,25.9,230.5,30.3,230.5,30.3z"
			/>
		<rect x="229.4" y="27.2" class="st2" width="1.1" height="1.8"/>
		<path class="st4" d="M232,30.3h-1.1c0,0,0-4.5,0-5.8c0-0.2,0.3-0.4,0.6-0.4s0.6,0.3,0.6,0.4C232,25.9,232,30.3,232,30.3z"/>
		<rect x="230.9" y="27.2" class="st2" width="1.1" height="1.8"/>
	</g>
	<rect x="264.4" y="39.3" class="st2" width="1.1" height="1.8"/>
	<g>
		<path class="st2" d="M269,43.7v-0.3l1.8-1.8V30.9c0,0-3.6,0.1-4.2-0.3s-0.7-0.6-0.7-0.6h-0.6c0,0,0,0.3-0.7,0.6
			c-0.6,0.4-4.2,0.3-4.2,0.3v10.6l1.8,1.8v0.3h6.8L269,43.7L269,43.7z"/>
		<path class="st0" d="M261,38.6h0.5v0.6h2.6v-7.1c0,0-0.3-0.7-1.6-0.7c-1,0-1.4,0.6-1.4,0.6v6.6H261z"/>
		<line class="st3" x1="261" y1="36.3" x2="264" y2="36.3"/>
		<line class="st3" x1="260.9" y1="37.3" x2="264" y2="37.3"/>
		<line class="st3" x1="260.8" y1="38.5" x2="264" y2="38.5"/>
		<path class="st0" d="M270.4,38.6h-0.5v0.6h-2.6v-7.1c0,0,0.3-0.7,1.6-0.7c1,0,1.4,0.6,1.4,0.6v6.6H270.4z"/>
		<line class="st3" x1="270.4" y1="36.3" x2="267.2" y2="36.3"/>
		<line class="st3" x1="270.4" y1="37.3" x2="267.3" y2="37.3"/>
		<line class="st3" x1="270.5" y1="38.5" x2="267.3" y2="38.5"/>
		<path class="st0" d="M264.2,39.2h3V34c0,0-0.3-0.5-1.6-0.5c-1,0-1.4,0.5-1.4,0.5V39.2z"/>
		<path class="st4" d="M265.5,42.4h-1.1c0,0,0-4.5,0-5.8c0-0.2,0.3-0.4,0.6-0.4s0.6,0.3,0.6,0.4C265.5,37.9,265.5,42.4,265.5,42.4z"
			/>
		<path class="st4" d="M267,42.4h-1.1c0,0,0-4.5,0-5.8c0-0.2,0.3-0.4,0.6-0.4s0.6,0.3,0.6,0.4C267,37.9,267,42.4,267,42.4z"/>
	</g>
	<rect x="265.9" y="39.3" class="st2" width="1.1" height="1.8"/>
	<g>
		<path class="st2" d="M285.7,54.6v-0.3l1.8-1.8V41.8c0,0-3.6,0.1-4.2-0.3c-0.6-0.3-0.7-0.6-0.7-0.6H282c0,0,0,0.3-0.7,0.6
			c-0.6,0.4-4.2,0.3-4.2,0.3v10.6l1.8,1.8v0.3L285.7,54.6L285.7,54.6z"/>
		<path class="st0" d="M277.7,49.5h0.5v0.6h2.6V43c0,0-0.3-0.7-1.6-0.7c-1,0-1.4,0.6-1.4,0.6L277.7,49.5L277.7,49.5z"/>
		<line class="st3" x1="277.7" y1="47.2" x2="280.7" y2="47.2"/>
		<line class="st3" x1="277.6" y1="48.2" x2="280.8" y2="48.2"/>
		<line class="st3" x1="277.5" y1="49.4" x2="280.7" y2="49.4"/>
		<path class="st0" d="M287.1,49.5h-0.5v0.6H284V43c0,0,0.3-0.7,1.6-0.7c1,0,1.4,0.6,1.4,0.6v6.6C287,49.5,287.1,49.5,287.1,49.5z"
			/>
		<line class="st3" x1="287.1" y1="47.2" x2="284" y2="47.2"/>
		<line class="st3" x1="287.1" y1="48.2" x2="284" y2="48.2"/>
		<line class="st3" x1="287.2" y1="49.4" x2="284.1" y2="49.4"/>
		<path class="st0" d="M280.9,50.1h3v-5.2c0,0-0.3-0.5-1.6-0.5c-1,0-1.4,0.5-1.4,0.5V50.1z"/>
		<path class="st4" d="M282.2,53.3h-1.1c0,0,0-4.5,0-5.8c0-0.2,0.3-0.5,0.6-0.4c0.3,0,0.6,0.3,0.6,0.4
			C282.2,48.8,282.2,53.3,282.2,53.3z"/>
		<rect x="281.1" y="50.2" class="st2" width="1.1" height="1.8"/>
		<path class="st4" d="M283.8,53.3h-1.1c0,0,0-4.5,0-5.8c0-0.2,0.3-0.5,0.6-0.4c0.3,0,0.6,0.3,0.6,0.4
			C283.8,48.8,283.8,53.3,283.8,53.3z"/>
		<rect x="282.7" y="50.2" class="st2" width="1.1" height="1.8"/>
	</g>
	<g>
		<path class="st2" d="M299.5,67.6v-0.3l1.8-1.8V54.8c0,0-3.6,0.1-4.2-0.3c-0.6-0.3-0.7-0.6-0.7-0.6h-0.6c0,0,0,0.3-0.7,0.6
			c-0.6,0.4-4.2,0.3-4.2,0.3v10.6l1.8,1.8v0.3L299.5,67.6L299.5,67.6z"/>
		<path class="st0" d="M291.5,62.5h0.5v0.6h2.6V56c0,0-0.3-0.7-1.6-0.7c-1,0-1.4,0.6-1.4,0.6v6.6C291.6,62.5,291.5,62.5,291.5,62.5z
			"/>
		<line class="st3" x1="291.5" y1="60.3" x2="294.5" y2="60.3"/>
		<line class="st3" x1="291.4" y1="61.3" x2="294.6" y2="61.3"/>
		<line class="st3" x1="291.3" y1="62.4" x2="294.5" y2="62.4"/>
		<path class="st0" d="M300.9,62.5h-0.5v0.6h-2.6V56c0,0,0.3-0.7,1.6-0.7c1,0,1.4,0.6,1.4,0.6v6.6C300.8,62.5,300.9,62.5,300.9,62.5
			z"/>
		<line class="st3" x1="300.9" y1="60.3" x2="297.8" y2="60.3"/>
		<line class="st3" x1="300.9" y1="61.3" x2="297.8" y2="61.3"/>
		<line class="st3" x1="301" y1="62.4" x2="297.9" y2="62.4"/>
		<path class="st0" d="M294.7,63.1h3V58c0,0-0.3-0.5-1.6-0.5c-1,0-1.4,0.5-1.4,0.5V63.1z"/>
		<path class="st4" d="M296,66.4h-1.1c0,0,0-4.5,0-5.8c0-0.2,0.3-0.4,0.6-0.4s0.6,0.3,0.6,0.4C296,61.9,296,66.4,296,66.4z"/>
		<rect x="294.9" y="63.2" class="st2" width="1.1" height="1.8"/>
		<path class="st4" d="M297.6,66.4h-1.2c0,0,0-4.5,0-5.8c0-0.2,0.3-0.4,0.6-0.4c0.3,0,0.6,0.3,0.6,0.4
			C297.6,61.9,297.6,66.4,297.6,66.4z"/>
		<rect x="296.5" y="63.2" class="st2" width="1.1" height="1.8"/>
	</g>
	<g>
		<path class="st2" d="M311.4,81.8v-0.3l1.8-1.8V68.9c0,0-3.6,0.1-4.2-0.3c-0.6-0.3-0.7-0.6-0.7-0.6h-0.6c0,0,0,0.3-0.7,0.6
			c-0.6,0.3-4.2,0.3-4.2,0.3v10.6l1.8,1.8v0.3h6.8L311.4,81.8L311.4,81.8z"/>
		<path class="st0" d="M303.4,76.7h0.5v0.6h2.6v-7.1c0,0-0.3-0.7-1.6-0.7c-1,0-1.4,0.6-1.4,0.6v6.6H303.4z"/>
		<line class="st3" x1="303.4" y1="74.4" x2="306.4" y2="74.4"/>
		<line class="st3" x1="303.3" y1="75.4" x2="306.4" y2="75.4"/>
		<line class="st3" x1="303.2" y1="76.5" x2="306.4" y2="76.5"/>
		<path class="st0" d="M312.8,76.7h-0.5v0.6h-2.6v-7.1c0,0,0.3-0.7,1.6-0.7c1,0,1.4,0.6,1.4,0.6L312.8,76.7L312.8,76.7z"/>
		<line class="st3" x1="312.8" y1="74.4" x2="309.6" y2="74.4"/>
		<line class="st3" x1="312.8" y1="75.4" x2="309.7" y2="75.4"/>
		<line class="st3" x1="312.9" y1="76.5" x2="309.7" y2="76.5"/>
		<path class="st0" d="M306.6,77.3h3v-5.2c0,0-0.3-0.5-1.6-0.5c-1,0-1.4,0.5-1.4,0.5V77.3z"/>
		<path class="st4" d="M307.9,80.5h-1.1c0,0,0-4.5,0-5.8c0-0.2,0.3-0.5,0.6-0.4c0.3,0,0.6,0.3,0.6,0.4
			C307.9,76,307.9,80.5,307.9,80.5z"/>
		<rect x="306.8" y="77.4" class="st2" width="1.1" height="1.8"/>
		<path class="st4" d="M309.5,80.5h-1.2c0,0,0-4.5,0-5.8c0-0.2,0.3-0.5,0.6-0.4c0.3,0,0.6,0.3,0.6,0.4
			C309.5,76,309.5,80.5,309.5,80.5z"/>
		<rect x="308.3" y="77.4" class="st2" width="1.1" height="1.8"/>
	</g>
	<g>
		<path class="st2" d="M320.9,98.5v-0.3l1.8-1.8V85.7c0,0-3.6,0.1-4.2-0.3c-0.6-0.3-0.7-0.6-0.7-0.6h-0.6c0,0,0,0.3-0.7,0.6
			c-0.6,0.3-4.2,0.3-4.2,0.3v10.6l1.8,1.8v0.3L320.9,98.5L320.9,98.5z"/>
		<path class="st0" d="M312.8,93.4h0.5V94h2.6v-7.1c0,0-0.3-0.7-1.6-0.7c-1,0-1.4,0.6-1.4,0.6v6.6H312.8z"/>
		<line class="st3" x1="312.8" y1="91.1" x2="315.9" y2="91.1"/>
		<line class="st3" x1="312.8" y1="92.2" x2="315.9" y2="92.2"/>
		<line class="st3" x1="312.7" y1="93.3" x2="315.9" y2="93.3"/>
		<path class="st0" d="M322.2,93.4h-0.5V94h-2.6v-7.1c0,0,0.3-0.7,1.6-0.7c1,0,1.4,0.6,1.4,0.6v6.6H322.2z"/>
		<line class="st3" x1="322.2" y1="91.1" x2="319.1" y2="91.1"/>
		<line class="st3" x1="322.3" y1="92.2" x2="319.1" y2="92.2"/>
		<line class="st3" x1="322.3" y1="93.3" x2="319.2" y2="93.3"/>
		<path class="st0" d="M316,94h3v-5.2c0,0-0.3-0.5-1.6-0.5c-1,0-1.4,0.4-1.4,0.4V94z"/>
		<path class="st4" d="M317.4,97.2h-1.1c0,0,0-4.5,0-5.8c0-0.2,0.3-0.5,0.6-0.4c0.3,0,0.6,0.3,0.6,0.4
			C317.4,92.8,317.4,97.2,317.4,97.2z"/>
		<rect x="316.2" y="94.1" class="st2" width="1.1" height="1.8"/>
		<path class="st4" d="M318.9,97.2h-1.1c0,0,0-4.5,0-5.8c0-0.2,0.3-0.5,0.6-0.4c0.3,0,0.6,0.3,0.6,0.4
			C318.9,92.8,318.9,97.2,318.9,97.2z"/>
		<rect x="317.8" y="94.1" class="st2" width="1.1" height="1.8"/>
	</g>
	<g>
		<path class="st2" d="M327.4,115.5v-0.3l1.8-1.8v-10.6c0,0-3.6,0.1-4.2-0.3c-0.6-0.3-0.7-0.6-0.7-0.6h-0.6c0,0,0,0.3-0.7,0.6
			c-0.6,0.3-4.2,0.3-4.2,0.3v10.6l1.8,1.8v0.3H327.4z"/>
		<path class="st0" d="M319.3,110.4h0.5v0.6h2.6v-7.1c0,0-0.3-0.7-1.6-0.7c-1,0-1.4,0.6-1.4,0.6v6.6H319.3z"/>
		<line class="st3" x1="319.3" y1="108.1" x2="322.4" y2="108.1"/>
		<line class="st3" x1="319.3" y1="109.2" x2="322.4" y2="109.2"/>
		<line class="st3" x1="319.2" y1="110.3" x2="322.4" y2="110.3"/>
		<path class="st0" d="M328.7,110.4h-0.5v0.6h-2.6v-7.1c0,0,0.3-0.7,1.6-0.7c1,0,1.4,0.6,1.4,0.6v6.6H328.7z"/>
		<line class="st3" x1="328.7" y1="108.1" x2="325.6" y2="108.1"/>
		<line class="st3" x1="328.8" y1="109.2" x2="325.6" y2="109.2"/>
		<line class="st3" x1="328.8" y1="110.3" x2="325.7" y2="110.3"/>
		<path class="st0" d="M322.5,111h3v-5.2c0,0-0.3-0.5-1.6-0.5c-1,0-1.4,0.5-1.4,0.5V111z"/>
		<path class="st4" d="M323.9,114.2h-1.1c0,0,0-4.5,0-5.8c0-0.2,0.3-0.5,0.6-0.4c0.3,0,0.6,0.3,0.6,0.4
			C323.9,109.8,323.9,114.2,323.9,114.2z"/>
		<rect x="322.7" y="111.1" class="st2" width="1.1" height="1.8"/>
		<path class="st4" d="M325.4,114.2h-1.1c0,0,0-4.5,0-5.8c0-0.2,0.3-0.5,0.6-0.4c0.3,0,0.6,0.3,0.6,0.4
			C325.4,109.8,325.4,114.2,325.4,114.2z"/>
		<rect x="324.3" y="111.1" class="st2" width="1.1" height="1.8"/>
	</g>
	<g>
		<path class="st2" d="M331.6,134.5v-0.3l1.8-1.8v-10.6c0,0-3.6,0.1-4.2-0.3s-0.7-0.6-0.7-0.6h-0.6c0,0,0,0.3-0.7,0.6
			c-0.6,0.3-4.2,0.3-4.2,0.3v10.6l1.8,1.8v0.3H331.6z"/>
		<path class="st0" d="M323.6,129.5h0.5v0.6h2.6V123c0,0-0.3-0.7-1.6-0.7c-1,0-1.4,0.6-1.4,0.6v6.6H323.6z"/>
		<line class="st3" x1="323.6" y1="127.2" x2="326.7" y2="127.2"/>
		<line class="st3" x1="323.5" y1="128.2" x2="326.7" y2="128.2"/>
		<line class="st3" x1="323.4" y1="129.3" x2="326.6" y2="129.3"/>
		<path class="st0" d="M333,129.5h-0.5v0.6h-2.6V123c0,0,0.3-0.7,1.6-0.7c1,0,1.4,0.6,1.4,0.6v6.6H333z"/>
		<line class="st3" x1="333" y1="127.2" x2="329.9" y2="127.2"/>
		<line class="st3" x1="333" y1="128.2" x2="329.9" y2="128.2"/>
		<line class="st3" x1="333.1" y1="129.3" x2="330" y2="129.3"/>
		<path class="st0" d="M326.8,130h3v-5.1c0,0-0.3-0.5-1.6-0.5c-1,0-1.4,0.5-1.4,0.5V130z"/>
		<path class="st4" d="M328.1,133.3H327c0,0,0-4.5,0-5.8c0-0.2,0.3-0.5,0.6-0.4c0.3,0,0.6,0.3,0.6,0.4
			C328.1,128.8,328.1,133.3,328.1,133.3z"/>
		<rect x="327" y="130.2" class="st2" width="1.1" height="1.8"/>
		<path class="st4" d="M329.7,133.3h-1.2c0,0,0-4.5,0-5.8c0-0.2,0.3-0.5,0.6-0.4c0.3,0,0.6,0.3,0.6,0.4
			C329.7,128.8,329.7,133.3,329.7,133.3z"/>
		<rect x="328.6" y="130.2" class="st2" width="1.1" height="1.8"/>
	</g>
	<g>
		<path class="st2" d="M332.6,153.6v-0.3l1.8-1.8v-10.6c0,0-3.6,0.1-4.2-0.3c-0.6-0.4-0.7-0.6-0.7-0.6h-0.6c0,0,0,0.3-0.7,0.6
			c-0.6,0.4-4.2,0.3-4.2,0.3v10.6l1.8,1.8v0.3H332.6z"/>
		<path class="st0" d="M324.6,148.5h0.5v0.6h2.6V142c0,0-0.3-0.7-1.6-0.7c-1,0-1.4,0.6-1.4,0.6v6.6L324.6,148.5L324.6,148.5z"/>
		<line class="st3" x1="324.6" y1="146.2" x2="327.6" y2="146.2"/>
		<line class="st3" x1="324.5" y1="147.3" x2="327.6" y2="147.3"/>
		<line class="st3" x1="324.4" y1="148.4" x2="327.6" y2="148.4"/>
		<path class="st0" d="M334,148.5h-0.5v0.6h-2.6V142c0,0,0.3-0.7,1.6-0.7c1,0,1.4,0.6,1.4,0.6v6.6L334,148.5L334,148.5z"/>
		<line class="st3" x1="334" y1="146.2" x2="330.8" y2="146.2"/>
		<line class="st3" x1="334" y1="147.3" x2="330.9" y2="147.3"/>
		<line class="st3" x1="334.1" y1="148.4" x2="330.9" y2="148.4"/>
		<path class="st0" d="M327.8,149.1h3V144c0,0-0.3-0.5-1.6-0.5c-1,0-1.4,0.5-1.4,0.5V149.1z"/>
		<path class="st4" d="M329.1,152.3H328c0,0,0-4.5,0-5.8c0-0.2,0.3-0.5,0.6-0.4c0.3,0,0.6,0.3,0.6,0.4
			C329.1,147.8,329.1,152.3,329.1,152.3z"/>
		<rect x="328" y="149.2" class="st2" width="1.1" height="1.8"/>
		<path class="st4" d="M330.7,152.3h-1.2c0,0,0-4.5,0-5.8c0-0.2,0.3-0.5,0.6-0.4c0.3,0,0.6,0.3,0.6,0.4
			C330.7,147.8,330.7,152.3,330.7,152.3z"/>
		<rect x="329.5" y="149.2" class="st2" width="1.1" height="1.8"/>
	</g>
	<g>
		<path class="st2" d="M330.6,171.6v-0.3l1.8-1.8v-10.6c0,0-3.5,0.1-4.2-0.3c-0.6-0.4-0.7-0.6-0.7-0.6h-0.6c0,0,0,0.3-0.7,0.6
			c-0.6,0.3-4.2,0.3-4.2,0.3v10.6l1.8,1.8v0.3H330.6z"/>
		<path class="st0" d="M322.5,166.5h0.5v0.6h2.6V160c0,0-0.3-0.7-1.6-0.7c-1,0-1.4,0.6-1.4,0.6v6.6L322.5,166.5L322.5,166.5z"/>
		<line class="st3" x1="322.5" y1="164.3" x2="325.6" y2="164.3"/>
		<line class="st3" x1="322.4" y1="165.3" x2="325.6" y2="165.3"/>
		<line class="st3" x1="322.3" y1="166.4" x2="325.5" y2="166.4"/>
		<path class="st0" d="M331.9,166.5h-0.4v0.6h-2.6V160c0,0,0.3-0.7,1.6-0.7c1,0,1.4,0.6,1.4,0.6V166.5z"/>
		<line class="st3" x1="331.9" y1="164.3" x2="328.8" y2="164.3"/>
		<line class="st3" x1="331.9" y1="165.3" x2="328.8" y2="165.3"/>
		<line class="st3" x1="332" y1="166.4" x2="328.9" y2="166.4"/>
		<path class="st0" d="M325.7,167.1h3V162c0,0-0.3-0.5-1.6-0.5c-1,0-1.4,0.5-1.4,0.5V167.1z"/>
		<path class="st4" d="M327,170.4h-1.1c0,0,0-4.5,0-5.8c0-0.2,0.3-0.5,0.6-0.4c0.3,0,0.6,0.3,0.6,0.4C327,165.9,327,170.4,327,170.4
			z"/>
		<rect x="325.9" y="167.2" class="st2" width="1.1" height="1.8"/>
		<path class="st4" d="M328.6,170.4h-1.2c0,0,0-4.5,0-5.8c0-0.2,0.3-0.5,0.6-0.4c0.3,0,0.6,0.3,0.6,0.4
			C328.6,165.9,328.6,170.4,328.6,170.4z"/>
		<rect x="327.5" y="167.2" class="st2" width="1.1" height="1.8"/>
	</g>
	<g>
		<path class="st2" d="M325.6,190v-0.3l1.8-1.8v-10.6c0,0-3.6,0.1-4.2-0.3c-0.6-0.3-0.7-0.6-0.7-0.6h-0.6c0,0,0,0.3-0.7,0.6
			c-0.6,0.3-4.2,0.3-4.2,0.3v10.6l1.8,1.8v0.3H325.6z"/>
		<path class="st0" d="M317.5,184.9h0.5v0.6h2.6v-7.1c0,0-0.3-0.7-1.6-0.7c-1,0-1.4,0.6-1.4,0.6v6.6L317.5,184.9L317.5,184.9z"/>
		<line class="st3" x1="317.5" y1="182.7" x2="320.6" y2="182.7"/>
		<line class="st3" x1="317.5" y1="183.7" x2="320.6" y2="183.7"/>
		<line class="st3" x1="317.4" y1="184.8" x2="320.6" y2="184.8"/>
		<path class="st0" d="M327,184.9h-0.5v0.6h-2.6v-7.1c0,0,0.3-0.7,1.6-0.7c1,0,1.4,0.6,1.4,0.6v6.6L327,184.9L327,184.9z"/>
		<line class="st3" x1="327" y1="182.7" x2="323.8" y2="182.7"/>
		<line class="st3" x1="327" y1="183.7" x2="323.8" y2="183.7"/>
		<line class="st3" x1="327" y1="184.8" x2="323.9" y2="184.8"/>
		<path class="st0" d="M320.7,185.5h3v-5.2c0,0-0.3-0.5-1.6-0.5c-1,0-1.4,0.5-1.4,0.5V185.5z"/>
		<path class="st4" d="M322.1,188.8H321c0,0,0-4.5,0-5.8c0-0.2,0.3-0.4,0.6-0.4c0.3,0,0.6,0.3,0.6,0.4
			C322.1,184.3,322.1,188.8,322.1,188.8z"/>
		<rect x="321" y="185.6" class="st2" width="1.1" height="1.8"/>
		<path class="st4" d="M323.6,188.8h-1.1c0,0,0-4.5,0-5.8c0-0.2,0.3-0.4,0.6-0.4c0.3,0,0.6,0.3,0.6,0.4
			C323.6,184.3,323.6,188.8,323.6,188.8z"/>
		<rect x="322.5" y="185.6" class="st2" width="1.1" height="1.8"/>
	</g>
	<g>
		<path class="st2" d="M318,207.3V207l1.8-1.8v-10.6c0,0-3.6,0.1-4.2-0.3c-0.6-0.3-0.7-0.6-0.7-0.6h-0.6c0,0,0,0.3-0.7,0.6
			c-0.6,0.4-4.2,0.3-4.2,0.3v10.6l1.8,1.8v0.3H318z"/>
		<path class="st0" d="M310,202.2h0.5v0.6h2.6v-7.1c0,0-0.3-0.7-1.6-0.7c-1,0-1.4,0.6-1.4,0.6v6.6L310,202.2L310,202.2z"/>
		<line class="st3" x1="310" y1="199.9" x2="313" y2="199.9"/>
		<line class="st3" x1="309.9" y1="201" x2="313" y2="201"/>
		<line class="st3" x1="309.8" y1="202.1" x2="313" y2="202.1"/>
		<path class="st0" d="M319.4,202.2h-0.5v0.6h-2.6v-7.1c0,0,0.3-0.7,1.6-0.7c1,0,1.4,0.6,1.4,0.6v6.6L319.4,202.2L319.4,202.2z"/>
		<line class="st3" x1="319.4" y1="199.9" x2="316.2" y2="199.9"/>
		<line class="st3" x1="319.4" y1="201" x2="316.3" y2="201"/>
		<line class="st3" x1="319.5" y1="202.1" x2="316.3" y2="202.1"/>
		<path class="st0" d="M313.2,202.8h3v-5.2c0,0-0.3-0.5-1.6-0.5c-1,0-1.4,0.5-1.4,0.5V202.8z"/>
		<path class="st4" d="M314.5,206h-1.1c0,0,0-4.5,0-5.8c0-0.2,0.3-0.5,0.6-0.4c0.3,0,0.6,0.3,0.6,0.4
			C314.5,201.6,314.5,206,314.5,206z"/>
		<rect x="313.4" y="202.9" class="st2" width="1.1" height="1.8"/>
		<path class="st4" d="M316.1,206H315c0,0,0-4.5,0-5.8c0-0.2,0.3-0.5,0.6-0.4c0.3,0,0.6,0.3,0.6,0.4
			C316.1,201.6,316.1,206,316.1,206z"/>
		<rect x="314.9" y="202.9" class="st2" width="1.1" height="1.8"/>
	</g>
	<g>
		<path class="st2" d="M307.7,223v-0.3l1.8-1.8v-10.6c0,0-3.6,0.1-4.2-0.3c-0.6-0.3-0.7-0.6-0.7-0.6H304c0,0,0,0.3-0.7,0.6
			c-0.6,0.3-4.2,0.3-4.2,0.3v10.6l1.8,1.8v0.3H307.7z"/>
		<path class="st0" d="M299.6,217.9h0.5v0.6h2.6v-7.1c0,0-0.3-0.7-1.6-0.7c-1,0-1.4,0.6-1.4,0.6v6.6L299.6,217.9L299.6,217.9z"/>
		<line class="st3" x1="299.6" y1="215.6" x2="302.7" y2="215.6"/>
		<line class="st3" x1="299.6" y1="216.7" x2="302.7" y2="216.7"/>
		<line class="st3" x1="299.5" y1="217.8" x2="302.7" y2="217.8"/>
		<path class="st0" d="M309,217.9h-0.5v0.6h-2.6v-7.1c0,0,0.3-0.7,1.6-0.7c1,0,1.4,0.6,1.4,0.6v6.6L309,217.9L309,217.9z"/>
		<line class="st3" x1="309" y1="215.6" x2="305.9" y2="215.6"/>
		<line class="st3" x1="309.1" y1="216.7" x2="305.9" y2="216.7"/>
		<line class="st3" x1="309.1" y1="217.8" x2="306" y2="217.8"/>
		<path class="st0" d="M302.8,218.5h3v-5.1c0,0-0.3-0.5-1.6-0.5c-1,0-1.4,0.5-1.4,0.5V218.5z"/>
		<path class="st4" d="M304.2,221.8h-1.1c0,0,0-4.5,0-5.8c0-0.2,0.3-0.5,0.6-0.4c0.3,0,0.6,0.3,0.6,0.4
			C304.2,217.3,304.2,221.8,304.2,221.8z"/>
		<rect x="303.1" y="218.6" class="st2" width="1.1" height="1.8"/>
		<path class="st4" d="M305.7,221.8h-1.1c0,0,0-4.5,0-5.8c0-0.2,0.3-0.5,0.6-0.4c0.3,0,0.6,0.3,0.6,0.4
			C305.7,217.3,305.7,221.8,305.7,221.8z"/>
		<rect x="304.6" y="218.6" class="st2" width="1.1" height="1.8"/>
	</g>
	<g>
		<path class="st2" d="M295,236.8v-0.3l1.8-1.8V224c0,0-3.6,0.1-4.2-0.3c-0.6-0.4-0.7-0.6-0.7-0.6h-0.6c0,0,0,0.3-0.7,0.6
			c-0.6,0.4-4.2,0.3-4.2,0.3v10.6l1.8,1.8v0.3L295,236.8L295,236.8z"/>
		<path class="st0" d="M287,231.7h0.5v0.6h2.6v-7.1c0,0-0.3-0.7-1.6-0.7c-1,0-1.4,0.6-1.4,0.6v6.6L287,231.7L287,231.7z"/>
		<line class="st3" x1="287" y1="229.4" x2="290" y2="229.4"/>
		<line class="st3" x1="286.9" y1="230.4" x2="290" y2="230.4"/>
		<line class="st3" x1="286.8" y1="231.6" x2="290" y2="231.6"/>
		<path class="st0" d="M296.4,231.7h-0.5v0.6h-2.6v-7.1c0,0,0.3-0.7,1.6-0.7c1,0,1.4,0.6,1.4,0.6v6.6L296.4,231.7L296.4,231.7z"/>
		<line class="st3" x1="296.4" y1="229.4" x2="293.2" y2="229.4"/>
		<line class="st3" x1="296.4" y1="230.4" x2="293.3" y2="230.4"/>
		<line class="st3" x1="296.5" y1="231.6" x2="293.3" y2="231.6"/>
		<path class="st0" d="M290.2,232.3h3v-5.1c0,0-0.3-0.5-1.6-0.5c-1,0-1.4,0.5-1.4,0.5V232.3z"/>
		<path class="st4" d="M291.5,235.5h-1.2c0,0,0-4.5,0-5.8c0-0.2,0.3-0.4,0.6-0.4c0.3,0,0.6,0.3,0.6,0.4
			C291.5,231,291.5,235.5,291.5,235.5z"/>
		<rect x="290.4" y="232.4" class="st2" width="1.1" height="1.8"/>
		<path class="st4" d="M293.1,235.5H292c0,0,0-4.5,0-5.8c0-0.2,0.3-0.4,0.6-0.4s0.6,0.3,0.6,0.4C293.1,231,293.1,235.5,293.1,235.5z
			"/>
		<rect x="291.9" y="232.4" class="st2" width="1.1" height="1.8"/>
	</g>
	<g>
		<path class="st2" d="M280.2,249.1v-0.3l1.8-1.8v-10.6c0,0-3.6,0.1-4.2-0.3c-0.6-0.3-0.7-0.6-0.7-0.6h-0.6c0,0,0,0.3-0.7,0.6
			c-0.6,0.3-4.2,0.3-4.2,0.3V247l1.8,1.8v0.3H280.2z"/>
		<path class="st0" d="M272.1,244h0.5v0.6h2.6v-7.1c0,0-0.3-0.7-1.6-0.7c-1,0-1.4,0.6-1.4,0.6v6.6L272.1,244L272.1,244z"/>
		<line class="st3" x1="272.1" y1="241.8" x2="275.2" y2="241.8"/>
		<line class="st3" x1="272.1" y1="242.8" x2="275.2" y2="242.8"/>
		<line class="st3" x1="272" y1="243.9" x2="275.2" y2="243.9"/>
		<path class="st0" d="M281.5,244H281v0.6h-2.5v-7.1c0,0,0.3-0.7,1.6-0.7c1,0,1.4,0.6,1.4,0.6V244z"/>
		<line class="st3" x1="281.5" y1="241.8" x2="278.4" y2="241.8"/>
		<line class="st3" x1="281.6" y1="242.8" x2="278.4" y2="242.8"/>
		<line class="st3" x1="281.6" y1="243.9" x2="278.5" y2="243.9"/>
		<path class="st0" d="M275.3,244.6h3v-5.1c0,0-0.3-0.5-1.6-0.5c-1,0-1.4,0.5-1.4,0.5V244.6z"/>
		<path class="st4" d="M276.7,247.9h-1.2c0,0,0-4.5,0-5.8c0-0.2,0.3-0.5,0.6-0.4c0.3,0,0.6,0.3,0.6,0.4
			C276.7,243.4,276.7,247.9,276.7,247.9z"/>
		<rect x="275.5" y="244.7" class="st2" width="1.1" height="1.8"/>
		<path class="st4" d="M278.2,247.9h-1.1c0,0,0-4.5,0-5.8c0-0.2,0.3-0.5,0.6-0.4c0.3,0,0.6,0.3,0.6,0.4
			C278.2,243.4,278.2,247.9,278.2,247.9z"/>
		<rect x="277.1" y="244.7" class="st2" width="1.1" height="1.8"/>
	</g>
	<g>
		<path class="st2" d="M263.8,258.6v-0.3l1.8-1.8v-10.6c0,0-3.6,0.1-4.2-0.3c-0.6-0.3-0.7-0.6-0.7-0.6h-0.6c0,0,0,0.3-0.7,0.6
			c-0.6,0.3-4.2,0.3-4.2,0.3v10.6l1.8,1.8v0.3H263.8z"/>
		<path class="st0" d="M255.8,253.5h0.5v0.6h2.6V247c0,0-0.3-0.7-1.6-0.7c-1,0-1.4,0.6-1.4,0.6L255.8,253.5L255.8,253.5L255.8,253.5
			z"/>
		<line class="st3" x1="255.8" y1="251.3" x2="258.9" y2="251.3"/>
		<line class="st3" x1="255.7" y1="252.3" x2="258.9" y2="252.3"/>
		<line class="st3" x1="255.6" y1="253.4" x2="258.8" y2="253.4"/>
		<path class="st0" d="M265.2,253.5h-0.5v0.6h-2.6V247c0,0,0.3-0.7,1.6-0.7c1,0,1.4,0.6,1.4,0.6v6.6L265.2,253.5L265.2,253.5z"/>
		<line class="st3" x1="265.2" y1="251.3" x2="262.1" y2="251.3"/>
		<line class="st3" x1="265.2" y1="252.3" x2="262.1" y2="252.3"/>
		<line class="st3" x1="265.3" y1="253.4" x2="262.2" y2="253.4"/>
		<path class="st0" d="M259,254.1h3V249c0,0-0.3-0.5-1.6-0.5c-1,0-1.4,0.5-1.4,0.5V254.1z"/>
		<path class="st4" d="M260.3,257.4h-1.1c0,0,0-4.5,0-5.8c0-0.2,0.3-0.4,0.6-0.4c0.3,0,0.6,0.3,0.6,0.4
			C260.3,252.9,260.3,257.4,260.3,257.4z"/>
		<rect x="259.2" y="254.2" class="st2" width="1.1" height="1.8"/>
		<path class="st4" d="M261.9,257.4h-1.1c0,0,0-4.5,0-5.8c0-0.2,0.3-0.4,0.6-0.4s0.6,0.3,0.6,0.4
			C261.9,252.9,261.9,257.4,261.9,257.4z"/>
		<rect x="260.8" y="254.2" class="st2" width="1.1" height="1.8"/>
	</g>
	<g>
		<path class="st2" d="M246.3,265.3V265l1.8-1.8v-10.6c0,0-3.6,0.1-4.2-0.3c-0.6-0.3-0.7-0.6-0.7-0.6h-0.6c0,0,0,0.3-0.7,0.6
			c-0.6,0.4-4.2,0.3-4.2,0.3v10.6l1.8,1.8v0.3H246.3z"/>
		<path class="st0" d="M238.3,260.2h0.5v0.6h2.6v-7.1c0,0-0.3-0.7-1.6-0.7c-1,0-1.4,0.6-1.4,0.6v6.6H238.3z"/>
		<line class="st3" x1="238.3" y1="258" x2="241.3" y2="258"/>
		<line class="st3" x1="238.2" y1="259" x2="241.3" y2="259"/>
		<line class="st3" x1="238.1" y1="260.1" x2="241.3" y2="260.1"/>
		<path class="st0" d="M247.7,260.2h-0.5v0.6h-2.6v-7.1c0,0,0.3-0.7,1.6-0.7c1,0,1.4,0.6,1.4,0.6v6.6H247.7z"/>
		<line class="st3" x1="247.7" y1="258" x2="244.5" y2="258"/>
		<line class="st3" x1="247.7" y1="259" x2="244.5" y2="259"/>
		<line class="st3" x1="247.8" y1="260.1" x2="244.6" y2="260.1"/>
		<path class="st0" d="M241.5,260.8h3v-5.2c0,0-0.3-0.5-1.6-0.5c-1,0-1.4,0.5-1.4,0.5V260.8z"/>
		<path class="st4" d="M242.8,264.1h-1.1c0,0,0-4.5,0-5.8c0-0.2,0.3-0.4,0.6-0.4s0.6,0.3,0.6,0.4
			C242.8,259.6,242.8,264.1,242.8,264.1z"/>
		<rect x="241.7" y="260.9" class="st2" width="1.1" height="1.8"/>
		<path class="st4" d="M244.3,264.1h-1.1c0,0,0-4.5,0-5.8c0-0.2,0.3-0.4,0.6-0.4s0.6,0.3,0.6,0.4
			C244.3,259.6,244.3,264.1,244.3,264.1z"/>
		<rect x="243.2" y="260.9" class="st2" width="1.1" height="1.8"/>
	</g>
	<g>
		<path class="st2" d="M227.6,269.3V269l1.8-1.8v-10.6c0,0-3.6,0.1-4.2-0.3c-0.6-0.3-0.7-0.6-0.7-0.6h-0.6c0,0,0,0.3-0.7,0.6
			c-0.6,0.4-4.2,0.3-4.2,0.3v10.6l1.8,1.8v0.3H227.6z"/>
		<path class="st0" d="M219.6,264.3h0.5v0.6h2.6v-7.1c0,0-0.3-0.7-1.6-0.7c-1,0-1.4,0.6-1.4,0.6v6.6H219.6z"/>
		<line class="st3" x1="219.6" y1="262" x2="222.6" y2="262"/>
		<line class="st3" x1="219.5" y1="263" x2="222.6" y2="263"/>
		<line class="st3" x1="219.4" y1="264.1" x2="222.6" y2="264.1"/>
		<path class="st0" d="M229,264.3h-0.5v0.6h-2.6v-7.1c0,0,0.3-0.7,1.6-0.7c1,0,1.4,0.6,1.4,0.6v6.6H229z"/>
		<line class="st3" x1="229" y1="262" x2="225.9" y2="262"/>
		<line class="st3" x1="229" y1="263" x2="225.9" y2="263"/>
		<line class="st3" x1="229.1" y1="264.1" x2="226" y2="264.1"/>
		<path class="st0" d="M222.8,264.9h3v-5.1c0,0-0.3-0.5-1.6-0.5c-1,0-1.4,0.5-1.4,0.5V264.9z"/>
		<path class="st4" d="M224.1,268.1H223c0,0,0-4.5,0-5.8c0-0.2,0.3-0.5,0.6-0.4c0.3,0,0.6,0.3,0.6,0.4
			C224.1,263.6,224.1,268.1,224.1,268.1z"/>
		<rect x="223" y="265" class="st2" width="1.1" height="1.8"/>
		<path class="st4" d="M225.7,268.1h-1.2c0,0,0-4.5,0-5.8c0-0.2,0.3-0.5,0.6-0.4c0.3,0,0.6,0.3,0.6,0.4
			C225.7,263.6,225.7,268.1,225.7,268.1z"/>
		<rect x="224.6" y="265" class="st2" width="1.1" height="1.8"/>
	</g>
	<g>
		<path class="st2" d="M209,270.4V270l1.8-1.8v-10.6c0,0-3.6,0.1-4.2-0.3c-0.6-0.4-0.7-0.6-0.7-0.6h-0.6c0,0,0,0.3-0.7,0.6
			c-0.6,0.4-4.2,0.3-4.2,0.3v10.6l1.8,1.8v0.3h6.8L209,270.4L209,270.4z"/>
		<path class="st0" d="M200.9,265.3h0.5v0.6h2.6v-7.1c0,0-0.3-0.7-1.6-0.7c-1,0-1.4,0.6-1.4,0.6v6.6H200.9z"/>
		<line class="st3" x1="200.9" y1="263" x2="204" y2="263"/>
		<line class="st3" x1="200.8" y1="264" x2="204" y2="264"/>
		<line class="st3" x1="200.8" y1="265.1" x2="204" y2="265.1"/>
		<path class="st0" d="M210.3,265.3h-0.5v0.6h-2.6v-7.1c0,0,0.3-0.7,1.6-0.7c1,0,1.4,0.6,1.4,0.6v6.6H210.3z"/>
		<line class="st3" x1="210.3" y1="263" x2="207.2" y2="263"/>
		<line class="st3" x1="210.3" y1="264" x2="207.2" y2="264"/>
		<line class="st3" x1="210.4" y1="265.1" x2="207.3" y2="265.1"/>
		<path class="st0" d="M204.1,265.9h3v-5.2c0,0-0.3-0.5-1.6-0.5c-1,0-1.4,0.5-1.4,0.5V265.9z"/>
		<path class="st4" d="M205.4,269.1h-1.1c0,0,0-4.5,0-5.8c0-0.2,0.3-0.5,0.6-0.4c0.3,0,0.6,0.3,0.6,0.4
			C205.4,264.6,205.4,269.1,205.4,269.1z"/>
		<rect x="204.3" y="266" class="st2" width="1.1" height="1.8"/>
		<path class="st4" d="M207,269.1h-1.2c0,0,0-4.5,0-5.8c0-0.2,0.3-0.5,0.6-0.4c0.3,0,0.6,0.3,0.6,0.4C207,264.6,207,269.1,207,269.1
			z"/>
		<rect x="205.9" y="266" class="st2" width="1.1" height="1.8"/>
	</g>
	<g>
		<path class="st2" d="M190.1,268.6v-0.3l1.8-1.8v-10.6c0,0-3.6,0.1-4.2-0.3c-0.6-0.4-0.7-0.6-0.7-0.6h-0.6c0,0,0,0.3-0.7,0.6
			c-0.6,0.3-4.2,0.3-4.2,0.3v10.6l1.8,1.8v0.3H190.1z"/>
		<path class="st0" d="M182,263.5h0.5v0.6h2.6V257c0,0-0.3-0.7-1.6-0.7c-1,0-1.4,0.6-1.4,0.6v6.6H182z"/>
		<line class="st3" x1="182" y1="261.2" x2="185.1" y2="261.2"/>
		<line class="st3" x1="182" y1="262.3" x2="185.1" y2="262.3"/>
		<line class="st3" x1="181.9" y1="263.4" x2="185.1" y2="263.4"/>
		<path class="st0" d="M191.4,263.5h-0.5v0.6h-2.6V257c0,0,0.3-0.7,1.6-0.7c1,0,1.4,0.6,1.4,0.6v6.6H191.4z"/>
		<line class="st3" x1="191.4" y1="261.2" x2="188.3" y2="261.2"/>
		<line class="st3" x1="191.5" y1="262.3" x2="188.3" y2="262.3"/>
		<line class="st3" x1="191.5" y1="263.4" x2="188.4" y2="263.4"/>
		<path class="st0" d="M185.2,264.1h3V259c0,0-0.3-0.5-1.6-0.5c-1,0-1.4,0.5-1.4,0.5V264.1z"/>
		<path class="st4" d="M186.6,267.3h-1.1c0,0,0-4.5,0-5.8c0-0.2,0.3-0.5,0.6-0.4c0.3,0,0.6,0.3,0.6,0.4
			C186.6,262.9,186.6,267.3,186.6,267.3z"/>
		<rect x="185.4" y="264.2" class="st2" width="1.1" height="1.8"/>
		<path class="st4" d="M188.1,267.3h-1.2c0,0,0-4.5,0-5.8c0-0.2,0.3-0.5,0.6-0.4c0.3,0,0.6,0.3,0.6,0.4
			C188.1,262.9,188.1,267.3,188.1,267.3z"/>
		<rect x="187" y="264.2" class="st2" width="1.1" height="1.8"/>
	</g>
	<g>
		<path class="st2" d="M172,264v-0.3l1.8-1.8v-10.6c0,0-3.6,0.1-4.2-0.3c-0.6-0.3-0.7-0.6-0.7-0.6h-0.6c0,0,0,0.3-0.7,0.6
			c-0.6,0.4-4.2,0.3-4.2,0.3v10.6l1.8,1.8v0.3H172z"/>
		<path class="st0" d="M164,258.9h0.5v0.6h2.6v-7.1c0,0-0.3-0.7-1.6-0.7c-1,0-1.4,0.6-1.4,0.6v6.6H164z"/>
		<line class="st3" x1="164" y1="256.6" x2="167" y2="256.6"/>
		<line class="st3" x1="163.9" y1="257.6" x2="167" y2="257.6"/>
		<line class="st3" x1="163.8" y1="258.8" x2="167" y2="258.8"/>
		<path class="st0" d="M173.4,258.9h-0.5v0.6h-2.6v-7.1c0,0,0.3-0.7,1.6-0.7c1,0,1.4,0.6,1.4,0.6L173.4,258.9L173.4,258.9z"/>
		<line class="st3" x1="173.4" y1="256.6" x2="170.2" y2="256.6"/>
		<line class="st3" x1="173.4" y1="257.6" x2="170.3" y2="257.6"/>
		<line class="st3" x1="173.5" y1="258.8" x2="170.3" y2="258.8"/>
		<path class="st0" d="M167.2,259.5h3v-5.2c0,0-0.3-0.5-1.6-0.5c-1,0-1.4,0.5-1.4,0.5V259.5z"/>
		<path class="st4" d="M168.5,262.7h-1.1c0,0,0-4.5,0-5.8c0-0.2,0.3-0.5,0.6-0.4c0.3,0,0.6,0.3,0.6,0.4
			C168.5,258.2,168.5,262.7,168.5,262.7z"/>
		<rect x="167.4" y="259.6" class="st2" width="1.1" height="1.8"/>
		<path class="st4" d="M170.1,262.7H169c0,0,0-4.5,0-5.8c0-0.2,0.3-0.5,0.6-0.4c0.3,0,0.6,0.3,0.6,0.4
			C170.1,258.2,170.1,262.7,170.1,262.7z"/>
		<rect x="168.9" y="259.6" class="st2" width="1.1" height="1.8"/>
	</g>
	<g>
		<path class="st2" d="M154.4,256v-0.3l1.8-1.8v-10.6c0,0-3.6,0.1-4.2-0.3c-0.6-0.4-0.7-0.6-0.7-0.6h-0.6c0,0,0,0.3-0.7,0.6
			c-0.6,0.3-4.2,0.3-4.2,0.3v10.6l1.8,1.8v0.3H154.4z"/>
		<path class="st0" d="M146.4,250.9h0.5v0.6h2.6v-7.1c0,0-0.3-0.7-1.6-0.7c-1,0-1.4,0.6-1.4,0.6v6.6L146.4,250.9L146.4,250.9z"/>
		<line class="st3" x1="146.4" y1="248.6" x2="149.4" y2="248.6"/>
		<line class="st3" x1="146.3" y1="249.7" x2="149.4" y2="249.7"/>
		<line class="st3" x1="146.2" y1="250.8" x2="149.4" y2="250.8"/>
		<path class="st0" d="M155.8,250.9h-0.5v0.6h-2.6v-7.1c0,0,0.3-0.7,1.6-0.7c1,0,1.4,0.6,1.4,0.6L155.8,250.9L155.8,250.9z"/>
		<line class="st3" x1="155.8" y1="248.6" x2="152.6" y2="248.6"/>
		<line class="st3" x1="155.8" y1="249.7" x2="152.7" y2="249.7"/>
		<line class="st3" x1="155.9" y1="250.8" x2="152.7" y2="250.8"/>
		<path class="st0" d="M149.6,251.5h3v-5.2c0,0-0.3-0.5-1.6-0.5c-1,0-1.4,0.5-1.4,0.5V251.5z"/>
		<path class="st4" d="M150.9,254.7h-1.1c0,0,0-4.5,0-5.8c0-0.2,0.3-0.5,0.6-0.4c0.3,0,0.6,0.3,0.6,0.4
			C150.9,250.3,150.9,254.7,150.9,254.7z"/>
		<rect x="149.8" y="251.6" class="st2" width="1.1" height="1.8"/>
		<path class="st4" d="M152.4,254.7h-1.1c0,0,0-4.5,0-5.8c0-0.2,0.3-0.5,0.6-0.4c0.3,0,0.6,0.3,0.6,0.4
			C152.4,250.3,152.4,254.7,152.4,254.7z"/>
		<rect x="151.3" y="251.6" class="st2" width="1.1" height="1.8"/>
	</g>
	<g>
		<path class="st2" d="M138.6,245.4v-0.3l1.8-1.8v-10.6c0,0-3.6,0.1-4.2-0.3c-0.6-0.3-0.7-0.6-0.7-0.6h-0.6c0,0,0,0.3-0.7,0.6
			c-0.6,0.3-4.2,0.3-4.2,0.3v10.6l1.8,1.8v0.3H138.6z"/>
		<path class="st0" d="M130.5,240.3h0.5v0.6h2.6v-7.1c0,0-0.3-0.7-1.6-0.7c-1,0-1.4,0.6-1.4,0.6v6.6L130.5,240.3L130.5,240.3z"/>
		<line class="st3" x1="130.5" y1="238.1" x2="133.6" y2="238.1"/>
		<line class="st3" x1="130.5" y1="239.1" x2="133.6" y2="239.1"/>
		<line class="st3" x1="130.4" y1="240.2" x2="133.6" y2="240.2"/>
		<path class="st0" d="M140,240.3h-0.5v0.6h-2.6v-7.1c0,0,0.3-0.7,1.6-0.7c1,0,1.4,0.6,1.4,0.6v6.6L140,240.3L140,240.3z"/>
		<line class="st3" x1="140" y1="238.1" x2="136.8" y2="238.1"/>
		<line class="st3" x1="140" y1="239.1" x2="136.8" y2="239.1"/>
		<line class="st3" x1="140.1" y1="240.2" x2="136.9" y2="240.2"/>
		<path class="st0" d="M133.8,240.9h3v-5.1c0,0-0.3-0.5-1.6-0.5c-1,0-1.4,0.5-1.4,0.5V240.9z"/>
		<path class="st4" d="M135.1,244.2H134c0,0,0-4.5,0-5.8c0-0.2,0.3-0.4,0.6-0.4s0.6,0.3,0.6,0.4
			C135.1,239.7,135.1,244.2,135.1,244.2z"/>
		<rect x="134" y="241.1" class="st2" width="1.1" height="1.8"/>
		<path class="st4" d="M136.6,244.2h-1.1c0,0,0-4.5,0-5.8c0-0.2,0.3-0.4,0.6-0.4s0.6,0.3,0.6,0.4
			C136.6,239.7,136.6,244.2,136.6,244.2z"/>
		<rect x="135.5" y="241.1" class="st2" width="1.1" height="1.8"/>
	</g>
	<g>
		<path class="st2" d="M123.1,232v-0.3l1.8-1.8v-10.6c0,0-3.6,0.1-4.2-0.3c-0.6-0.4-0.7-0.6-0.7-0.6h-0.6c0,0,0,0.3-0.7,0.6
			c-0.6,0.3-4.2,0.3-4.2,0.3v10.6l1.8,1.8v0.3H123.1z"/>
		<path class="st0" d="M115.1,226.9h0.4v0.6h2.6v-7.1c0,0-0.3-0.7-1.6-0.7c-1,0-1.4,0.6-1.4,0.6V226.9z"/>
		<line class="st3" x1="115.1" y1="224.7" x2="118.1" y2="224.7"/>
		<line class="st3" x1="115" y1="225.7" x2="118.1" y2="225.7"/>
		<line class="st3" x1="114.9" y1="226.8" x2="118.1" y2="226.8"/>
		<path class="st0" d="M124.5,226.9H124v0.6h-2.6v-7.1c0,0,0.3-0.7,1.6-0.7c1,0,1.4,0.6,1.4,0.6L124.5,226.9L124.5,226.9z"/>
		<line class="st3" x1="124.5" y1="224.7" x2="121.3" y2="224.7"/>
		<line class="st3" x1="124.5" y1="225.7" x2="121.4" y2="225.7"/>
		<line class="st3" x1="124.6" y1="226.8" x2="121.4" y2="226.8"/>
		<path class="st0" d="M118.3,227.5h3v-5.1c0,0-0.3-0.5-1.6-0.5c-1,0-1.4,0.4-1.4,0.4V227.5z"/>
		<path class="st4" d="M119.6,230.8h-1.1c0,0,0-4.5,0-5.8c0-0.2,0.3-0.5,0.6-0.4c0.3,0,0.6,0.3,0.6,0.4
			C119.6,226.3,119.6,230.8,119.6,230.8z"/>
		<rect x="118.5" y="227.6" class="st2" width="1.1" height="1.8"/>
		<path class="st4" d="M121.2,230.8h-1.1c0,0,0-4.5,0-5.8c0-0.2,0.3-0.5,0.6-0.4c0.3,0,0.6,0.3,0.6,0.4
			C121.2,226.3,121.2,230.8,121.2,230.8z"/>
		<rect x="120" y="227.6" class="st2" width="1.1" height="1.8"/>
	</g>
	<g>
		<path class="st2" d="M112.1,217.7v-0.3l1.8-1.8V205c0,0-3.6,0.1-4.2-0.3c-0.6-0.4-0.7-0.6-0.7-0.6h-0.5c0,0,0,0.3-0.7,0.6
			c-0.6,0.3-4.2,0.3-4.2,0.3v10.6l1.8,1.8v0.3L112.1,217.7L112.1,217.7z"/>
		<path class="st0" d="M104.1,212.6h0.5v0.6h2.6v-7.1c0,0-0.3-0.7-1.6-0.7c-1,0-1.4,0.6-1.4,0.6L104.1,212.6L104.1,212.6z"/>
		<line class="st3" x1="104.1" y1="210.4" x2="107.1" y2="210.4"/>
		<line class="st3" x1="104" y1="211.4" x2="107.2" y2="211.4"/>
		<line class="st3" x1="103.9" y1="212.5" x2="107.1" y2="212.5"/>
		<path class="st0" d="M113.5,212.6H113v0.6h-2.5v-7.1c0,0,0.3-0.7,1.6-0.7c1,0,1.4,0.6,1.4,0.6V212.6z"/>
		<line class="st3" x1="113.5" y1="210.4" x2="110.4" y2="210.4"/>
		<line class="st3" x1="113.5" y1="211.4" x2="110.4" y2="211.4"/>
		<line class="st3" x1="113.6" y1="212.5" x2="110.5" y2="212.5"/>
		<path class="st0" d="M107.3,213.2h3v-5.1c0,0-0.3-0.5-1.6-0.5c-1,0-1.4,0.5-1.4,0.5V213.2z"/>
		<path class="st4" d="M108.6,216.5h-1.1c0,0,0-4.5,0-5.8c0-0.2,0.3-0.5,0.6-0.4c0.3,0,0.6,0.3,0.6,0.4
			C108.6,212,108.6,216.5,108.6,216.5z"/>
		<rect x="107.5" y="213.4" class="st2" width="1.1" height="1.8"/>
		<path class="st4" d="M110.2,216.5H109c0,0,0-4.5,0-5.8c0-0.2,0.3-0.5,0.6-0.4c0.3,0,0.6,0.3,0.6,0.4
			C110.2,212,110.2,216.5,110.2,216.5z"/>
		<rect x="109.1" y="213.4" class="st2" width="1.1" height="1.8"/>
	</g>
	<g>
		<path class="st2" d="M102.5,201.7v-0.3l1.8-1.8V189c0,0-3.6,0.1-4.2-0.3c-0.6-0.4-0.7-0.6-0.7-0.6h-0.6c0,0,0,0.3-0.7,0.6
			c-0.6,0.3-4.2,0.3-4.2,0.3v10.6l1.8,1.8v0.3L102.5,201.7L102.5,201.7z"/>
		<path class="st0" d="M94.4,196.7h0.5v0.6h2.6v-7.1c0,0-0.3-0.7-1.6-0.7c-1,0-1.4,0.6-1.4,0.6L94.4,196.7L94.4,196.7z"/>
		<line class="st3" x1="94.4" y1="194.4" x2="97.5" y2="194.4"/>
		<line class="st3" x1="94.4" y1="195.4" x2="97.5" y2="195.4"/>
		<line class="st3" x1="94.3" y1="196.5" x2="97.5" y2="196.5"/>
		<path class="st0" d="M103.8,196.7h-0.5v0.6h-2.6v-7.1c0,0,0.3-0.7,1.6-0.7c1,0,1.4,0.6,1.4,0.6L103.8,196.7L103.8,196.7
			L103.8,196.7z"/>
		<line class="st3" x1="103.8" y1="194.4" x2="100.7" y2="194.4"/>
		<line class="st3" x1="103.9" y1="195.4" x2="100.7" y2="195.4"/>
		<line class="st3" x1="103.9" y1="196.5" x2="100.8" y2="196.5"/>
		<path class="st0" d="M97.6,197.3h3v-5.1c0,0-0.3-0.5-1.6-0.5c-1,0-1.4,0.5-1.4,0.5V197.3z"/>
		<path class="st4" d="M99,200.5h-1.2c0,0,0-4.5,0-5.8c0-0.2,0.3-0.4,0.6-0.4c0.3,0,0.6,0.3,0.6,0.4C99,196,99,200.5,99,200.5z"/>
		<rect x="97.8" y="197.4" class="st2" width="1.1" height="1.8"/>
		<path class="st4" d="M100.5,200.5h-1.1c0,0,0-4.5,0-5.8c0-0.2,0.3-0.4,0.6-0.4s0.6,0.3,0.6,0.4C100.5,196,100.5,200.5,100.5,200.5
			z"/>
		<rect x="99.4" y="197.4" class="st2" width="1.1" height="1.8"/>
	</g>
	<g>
		<path class="st2" d="M95.7,183.5v-0.3l1.8-1.8v-10.6c0,0-3.6,0.1-4.2-0.3c-0.6-0.4-0.7-0.6-0.7-0.6H92c0,0,0,0.3-0.7,0.6
			c-0.6,0.4-4.2,0.3-4.2,0.3v10.6l1.8,1.8v0.3H95.7z"/>
		<path class="st0" d="M87.7,178.4h0.5v0.6h2.6v-7.1c0,0-0.3-0.7-1.6-0.7c-1,0-1.4,0.6-1.4,0.6L87.7,178.4L87.7,178.4L87.7,178.4z"
			/>
		<line class="st3" x1="87.7" y1="176.1" x2="90.7" y2="176.1"/>
		<line class="st3" x1="87.6" y1="177.2" x2="90.7" y2="177.2"/>
		<line class="st3" x1="87.5" y1="178.3" x2="90.7" y2="178.3"/>
		<path class="st0" d="M97.1,178.4h-0.5v0.6H94v-7.1c0,0,0.3-0.7,1.6-0.7c1,0,1.4,0.6,1.4,0.6L97.1,178.4L97.1,178.4z"/>
		<line class="st3" x1="97.1" y1="176.1" x2="94" y2="176.1"/>
		<line class="st3" x1="97.1" y1="177.2" x2="94" y2="177.2"/>
		<line class="st3" x1="97.2" y1="178.3" x2="94" y2="178.3"/>
		<path class="st0" d="M90.9,179h3v-5.2c0,0-0.3-0.5-1.6-0.5c-1,0-1.4,0.5-1.4,0.5V179z"/>
		<path class="st4" d="M92.2,182.2H91c0,0,0-4.5,0-5.8c0-0.2,0.3-0.5,0.6-0.4c0.3,0,0.6,0.3,0.6,0.4
			C92.2,177.8,92.2,182.2,92.2,182.2z"/>
		<rect x="91.1" y="179.1" class="st2" width="1.1" height="1.8"/>
		<path class="st4" d="M93.8,182.2h-1.1c0,0,0-4.5,0-5.8c0-0.2,0.3-0.5,0.6-0.4c0.3,0,0.6,0.3,0.6,0.4
			C93.8,177.8,93.8,182.2,93.8,182.2z"/>
		<rect x="92.6" y="179.1" class="st2" width="1.1" height="1.8"/>
	</g>
	<g>
		<path class="st2" d="M91.6,165.9v-0.3l1.8-1.8v-10.6c0,0-3.6,0.1-4.2-0.3c-0.6-0.4-0.7-0.6-0.7-0.6h-0.6c0,0,0,0.3-0.7,0.6
			c-0.6,0.4-4.2,0.3-4.2,0.3v10.6l1.8,1.8v0.3H91.6z"/>
		<path class="st0" d="M83.6,160.8h0.5v0.6h2.6v-7.1c0,0-0.3-0.7-1.6-0.7c-1,0-1.4,0.6-1.4,0.6L83.6,160.8L83.6,160.8z"/>
		<line class="st3" x1="83.6" y1="158.5" x2="86.6" y2="158.5"/>
		<line class="st3" x1="83.5" y1="159.6" x2="86.6" y2="159.6"/>
		<line class="st3" x1="83.4" y1="160.7" x2="86.6" y2="160.7"/>
		<path class="st0" d="M93,160.8h-0.5v0.6h-2.6v-7.1c0,0,0.3-0.7,1.6-0.7c1,0,1.4,0.6,1.4,0.6L93,160.8L93,160.8z"/>
		<line class="st3" x1="93" y1="158.5" x2="89.8" y2="158.5"/>
		<line class="st3" x1="93" y1="159.6" x2="89.8" y2="159.6"/>
		<line class="st3" x1="93" y1="160.7" x2="89.9" y2="160.7"/>
		<path class="st0" d="M86.8,161.4h3v-5.2c0,0-0.3-0.5-1.6-0.5c-1,0-1.4,0.5-1.4,0.5V161.4z"/>
		<path class="st4" d="M88.1,164.6h-1.2c0,0,0-4.5,0-5.8c0-0.2,0.3-0.5,0.6-0.4c0.3,0,0.6,0.3,0.6,0.4
			C88.1,160.1,88.1,164.6,88.1,164.6z"/>
		<rect x="87" y="161.5" class="st2" width="1.1" height="1.8"/>
		<path class="st4" d="M89.6,164.6h-1.1c0,0,0-4.5,0-5.8c0-0.2,0.3-0.5,0.6-0.4c0.3,0,0.6,0.3,0.6,0.4
			C89.6,160.1,89.6,164.6,89.6,164.6z"/>
		<rect x="88.5" y="161.5" class="st2" width="1.1" height="1.8"/>
	</g>
	<g>
		<path class="st2" d="M90.7,146.3V146l1.8-1.8v-10.6c0,0-3.6,0.1-4.2-0.3c-0.6-0.3-0.7-0.6-0.7-0.6H87c0,0,0,0.3-0.7,0.6
			c-0.6,0.4-4.2,0.3-4.2,0.3v10.6l1.8,1.8v0.3H90.7z"/>
		<path class="st0" d="M82.7,141.2h0.5v0.6h2.6v-7.1c0,0-0.3-0.7-1.6-0.7c-1,0-1.4,0.6-1.4,0.6L82.7,141.2L82.7,141.2L82.7,141.2z"
			/>
		<line class="st3" x1="82.7" y1="139" x2="85.8" y2="139"/>
		<line class="st3" x1="82.6" y1="140" x2="85.8" y2="140"/>
		<line class="st3" x1="82.5" y1="141.1" x2="85.7" y2="141.1"/>
		<path class="st0" d="M92.1,141.2h-0.5v0.6H89v-7.1c0,0,0.3-0.7,1.6-0.7c1,0,1.4,0.6,1.4,0.6L92.1,141.2L92.1,141.2z"/>
		<line class="st3" x1="92.1" y1="139" x2="89" y2="139"/>
		<line class="st3" x1="92.1" y1="140" x2="89" y2="140"/>
		<line class="st3" x1="92.2" y1="141.1" x2="89.1" y2="141.1"/>
		<path class="st0" d="M85.9,141.8h3v-5.1c0,0-0.3-0.5-1.6-0.5c-1,0-1.4,0.5-1.4,0.5V141.8z"/>
		<path class="st4" d="M87.2,145.1h-1.1c0,0,0-4.5,0-5.8c0-0.2,0.3-0.5,0.6-0.4c0.3,0,0.6,0.3,0.6,0.4
			C87.2,140.6,87.2,145.1,87.2,145.1z"/>
		<rect x="86.1" y="141.9" class="st2" width="1.1" height="1.8"/>
		<path class="st4" d="M88.8,145.1h-1.1c0,0,0-4.5,0-5.8c0-0.2,0.3-0.5,0.6-0.4c0.3,0,0.6,0.3,0.6,0.4
			C88.8,140.6,88.8,145.1,88.8,145.1z"/>
		<rect x="87.7" y="141.9" class="st2" width="1.1" height="1.8"/>
	</g>
	<g>
		<path class="st2" d="M92.9,127.8v-0.3l1.8-1.8V115c0,0-3.6,0.1-4.2-0.3c-0.6-0.3-0.7-0.6-0.7-0.6h-0.6c0,0,0,0.3-0.7,0.6
			c-0.6,0.4-4.2,0.3-4.2,0.3v10.6l1.8,1.8v0.3L92.9,127.8L92.9,127.8z"/>
		<path class="st0" d="M84.8,122.7h0.5v0.6h2.6v-7.1c0,0-0.3-0.7-1.6-0.7c-1,0-1.4,0.6-1.4,0.6L84.8,122.7L84.8,122.7z"/>
		<line class="st3" x1="84.8" y1="120.5" x2="87.9" y2="120.5"/>
		<line class="st3" x1="84.7" y1="121.5" x2="87.9" y2="121.5"/>
		<line class="st3" x1="84.6" y1="122.6" x2="87.9" y2="122.6"/>
		<path class="st0" d="M94.2,122.7h-0.5v0.6h-2.6v-7.1c0,0,0.3-0.7,1.6-0.7c1,0,1.4,0.6,1.4,0.6L94.2,122.7L94.2,122.7z"/>
		<line class="st3" x1="94.2" y1="120.5" x2="91.1" y2="120.5"/>
		<line class="st3" x1="94.2" y1="121.5" x2="91.1" y2="121.5"/>
		<line class="st3" x1="94.3" y1="122.6" x2="91.2" y2="122.6"/>
		<path class="st0" d="M88,123.3h3v-5.1c0,0-0.3-0.5-1.6-0.5c-1,0-1.4,0.5-1.4,0.5V123.3z"/>
		<path class="st4" d="M89.3,126.6h-1.1c0,0,0-4.5,0-5.8c0-0.1,0.3-0.4,0.6-0.4c0.3,0,0.6,0.3,0.6,0.4
			C89.3,122.1,89.3,126.6,89.3,126.6z"/>
		<rect x="88.2" y="123.4" class="st2" width="1.1" height="1.8"/>
		<path class="st4" d="M90.9,126.6h-1.2c0,0,0-4.5,0-5.8c0-0.1,0.3-0.4,0.6-0.4c0.3,0,0.6,0.3,0.6,0.4
			C90.9,122.1,90.9,126.6,90.9,126.6z"/>
		<rect x="89.8" y="123.4" class="st2" width="1.1" height="1.8"/>
	</g>
	<g>
		<path class="st2" d="M97.8,109.4v-0.3l1.8-1.8V96.6c0,0-3.6,0.1-4.2-0.3s-0.7-0.6-0.7-0.6h-0.6c0,0,0,0.3-0.7,0.6
			c-0.6,0.4-4.2,0.3-4.2,0.3v10.6L91,109v0.3L97.8,109.4L97.8,109.4z"/>
		<path class="st0" d="M89.7,104.3h0.5v0.6h2.6v-7.1c0,0-0.3-0.7-1.6-0.7c-1,0-1.4,0.6-1.4,0.6L89.7,104.3L89.7,104.3z"/>
		<line class="st3" x1="89.7" y1="102" x2="92.8" y2="102"/>
		<line class="st3" x1="89.7" y1="103.1" x2="92.8" y2="103.1"/>
		<line class="st3" x1="89.6" y1="104.2" x2="92.8" y2="104.2"/>
		<path class="st0" d="M99.1,104.3h-0.5v0.6H96v-7.1c0,0,0.3-0.7,1.6-0.7c1,0,1.4,0.6,1.4,0.6L99.1,104.3L99.1,104.3z"/>
		<line class="st3" x1="99.1" y1="102" x2="96" y2="102"/>
		<line class="st3" x1="99.2" y1="103.1" x2="96" y2="103.1"/>
		<line class="st3" x1="99.2" y1="104.2" x2="96.1" y2="104.2"/>
		<path class="st0" d="M92.9,104.9h3v-5.1c0,0-0.3-0.5-1.6-0.5c-1,0-1.4,0.5-1.4,0.5V104.9z"/>
		<path class="st4" d="M94.3,108.1h-1.1c0,0,0-4.5,0-5.8c0-0.2,0.3-0.4,0.6-0.4c0.3,0,0.6,0.3,0.6,0.4
			C94.3,103.7,94.3,108.1,94.3,108.1z"/>
		<rect x="93.2" y="105" class="st2" width="1.1" height="1.8"/>
		<path class="st4" d="M95.8,108.1h-1.1c0,0,0-4.5,0-5.8c0-0.2,0.3-0.4,0.6-0.4c0.3,0,0.6,0.3,0.6,0.4
			C95.8,103.7,95.8,108.1,95.8,108.1z"/>
		<rect x="94.7" y="105" class="st2" width="1.1" height="1.8"/>
	</g>
	<g>
		<path class="st2" d="M105.3,92.3V92l1.8-1.8V79.5c0,0-3.6,0.1-4.2-0.3s-0.7-0.6-0.7-0.6h-0.6c0,0,0,0.3-0.7,0.6
			c-0.6,0.3-4.2,0.3-4.2,0.3v10.6l1.8,1.8v0.3L105.3,92.3L105.3,92.3z"/>
		<path class="st0" d="M97.2,87.2h0.5v0.6h2.6v-7.1c0,0-0.3-0.7-1.6-0.7c-1,0-1.4,0.6-1.4,0.6L97.2,87.2L97.2,87.2z"/>
		<line class="st3" x1="97.2" y1="84.9" x2="100.3" y2="84.9"/>
		<line class="st3" x1="97.2" y1="86" x2="100.3" y2="86"/>
		<line class="st3" x1="97.1" y1="87.1" x2="100.3" y2="87.1"/>
		<path class="st0" d="M106.6,87.2h-0.5v0.6h-2.6v-7.1c0,0,0.3-0.7,1.6-0.7c1,0,1.4,0.6,1.4,0.6L106.6,87.2L106.6,87.2z"/>
		<line class="st3" x1="106.6" y1="84.9" x2="103.5" y2="84.9"/>
		<line class="st3" x1="106.6" y1="86" x2="103.5" y2="86"/>
		<line class="st3" x1="106.7" y1="87.1" x2="103.6" y2="87.1"/>
		<path class="st0" d="M100.4,87.8h3v-5.1c0,0-0.3-0.5-1.6-0.5c-1,0-1.4,0.5-1.4,0.5V87.8z"/>
		<path class="st4" d="M101.8,91.1h-1.1c0,0,0-4.5,0-5.8c0-0.2,0.3-0.4,0.6-0.4c0.3,0,0.6,0.3,0.6,0.4
			C101.8,86.6,101.8,91.1,101.8,91.1z"/>
		<rect x="100.6" y="87.9" class="st2" width="1.1" height="1.8"/>
		<path class="st4" d="M103.3,91.1h-1.1c0,0,0-4.5,0-5.8c0-0.2,0.3-0.4,0.6-0.4c0.3,0,0.6,0.3,0.6,0.4
			C103.3,86.6,103.3,91.1,103.3,91.1z"/>
		<rect x="102.2" y="87.9" class="st2" width="1.1" height="1.8"/>
	</g>
	<g>
		<path class="st2" d="M116.3,75.8v-0.3l1.8-1.8V63c0,0-3.6,0.1-4.2-0.3c-0.6-0.3-0.7-0.6-0.7-0.6h-0.6c0,0,0,0.3-0.7,0.6
			c-0.6,0.3-4.1,0.3-4.1,0.3v10.6l1.8,1.8v0.3L116.3,75.8L116.3,75.8z"/>
		<path class="st0" d="M108.3,70.7h0.5v0.6h2.6v-7.1c0,0-0.3-0.7-1.6-0.7c-1,0-1.4,0.6-1.4,0.6L108.3,70.7L108.3,70.7z"/>
		<line class="st3" x1="108.3" y1="68.4" x2="111.3" y2="68.4"/>
		<line class="st3" x1="108.2" y1="69.5" x2="111.3" y2="69.5"/>
		<line class="st3" x1="108.1" y1="70.6" x2="111.3" y2="70.6"/>
		<path class="st0" d="M117.7,70.7h-0.5v0.6h-2.6v-7.1c0,0,0.3-0.7,1.6-0.7c1,0,1.4,0.6,1.4,0.6L117.7,70.7L117.7,70.7z"/>
		<line class="st3" x1="117.7" y1="68.4" x2="114.5" y2="68.4"/>
		<line class="st3" x1="117.7" y1="69.5" x2="114.6" y2="69.5"/>
		<line class="st3" x1="117.8" y1="70.6" x2="114.6" y2="70.6"/>
		<path class="st0" d="M111.5,71.3h3v-5.2c0,0-0.3-0.5-1.6-0.5c-1,0-1.4,0.5-1.4,0.5V71.3z"/>
		<path class="st4" d="M112.8,74.5h-1.1c0,0,0-4.5,0-5.8c0-0.2,0.3-0.5,0.6-0.4c0.3,0,0.6,0.3,0.6,0.4
			C112.8,70.1,112.8,74.5,112.8,74.5z"/>
		<rect x="111.7" y="71.4" class="st2" width="1.1" height="1.8"/>
		<path class="st4" d="M114.4,74.5h-1.1c0,0,0-4.5,0-5.8c0-0.2,0.3-0.5,0.6-0.4c0.3,0,0.6,0.3,0.6,0.4
			C114.4,70.1,114.4,74.5,114.4,74.5z"/>
		<rect x="113.2" y="71.4" class="st2" width="1.1" height="1.8"/>
	</g>
	<g>
		<path class="st2" d="M129.4,61.7v-0.3l1.8-1.8V48.9c0,0-3.6,0.1-4.2-0.3c-0.6-0.3-0.7-0.6-0.7-0.6h-0.6c0,0,0,0.3-0.7,0.6
			c-0.6,0.4-4.2,0.3-4.2,0.3v10.6l1.8,1.8v0.3h6.8L129.4,61.7L129.4,61.7z"/>
		<path class="st0" d="M121.3,56.6h0.5v0.6h2.6v-7.1c0,0-0.3-0.7-1.6-0.7c-1,0-1.4,0.6-1.4,0.6L121.3,56.6L121.3,56.6z"/>
		<line class="st5" x1="121.3" y1="54.4" x2="124.4" y2="54.4"/>
		<line class="st3" x1="121.3" y1="55.4" x2="124.4" y2="55.4"/>
		<line class="st3" x1="121.2" y1="56.5" x2="124.4" y2="56.5"/>
		<path class="st0" d="M130.7,56.6h-0.5v0.6h-2.6v-7.1c0,0,0.3-0.7,1.6-0.7c1,0,1.4,0.6,1.4,0.6L130.7,56.6L130.7,56.6z"/>
		<line class="st3" x1="130.7" y1="54.4" x2="127.6" y2="54.4"/>
		<line class="st3" x1="130.8" y1="55.4" x2="127.6" y2="55.4"/>
		<line class="st3" x1="130.8" y1="56.5" x2="127.7" y2="56.5"/>
		<path class="st0" d="M124.5,57.2h3V52c0,0-0.3-0.5-1.6-0.5c-1,0-1.4,0.5-1.4,0.5V57.2z"/>
		<path class="st4" d="M125.9,60.5h-1.1c0,0,0-4.5,0-5.8c0-0.2,0.3-0.4,0.6-0.4s0.6,0.3,0.6,0.4C125.9,56,125.9,60.5,125.9,60.5z"/>
		<rect x="124.7" y="57.3" class="st2" width="1.1" height="1.8"/>
		<path class="st4" d="M127.4,60.5h-1.1c0,0,0-4.5,0-5.8c0-0.2,0.3-0.4,0.6-0.4c0.3,0,0.6,0.3,0.6,0.4
			C127.4,56,127.4,60.5,127.4,60.5z"/>
		<rect x="126.3" y="57.3" class="st2" width="1.1" height="1.8"/>
	</g>
	<g>
		<path class="st2" d="M143.9,49.9v-0.3l1.8-1.8V37.1c0,0-3.6,0.1-4.2-0.3c-0.6-0.4-0.7-0.6-0.7-0.6h-0.6c0,0,0,0.3-0.7,0.6
			c-0.6,0.4-4.2,0.3-4.2,0.3v10.6l1.8,1.8v0.3h6.8L143.9,49.9L143.9,49.9z"/>
		<path class="st0" d="M135.9,44.8h0.5v0.6h2.6v-7.1c0,0-0.3-0.7-1.6-0.7c-1,0-1.4,0.6-1.4,0.6v6.6C136,44.8,135.9,44.8,135.9,44.8z
			"/>
		<line class="st3" x1="135.9" y1="42.6" x2="138.9" y2="42.6"/>
		<line class="st3" x1="135.8" y1="43.6" x2="138.9" y2="43.6"/>
		<line class="st3" x1="135.7" y1="44.7" x2="138.9" y2="44.7"/>
		<path class="st0" d="M145.3,44.8h-0.5v0.6h-2.6v-7.1c0,0,0.3-0.7,1.6-0.7c1,0,1.4,0.6,1.4,0.6L145.3,44.8L145.3,44.8z"/>
		<line class="st3" x1="145.3" y1="42.6" x2="142.2" y2="42.6"/>
		<line class="st3" x1="145.3" y1="43.6" x2="142.2" y2="43.6"/>
		<line class="st3" x1="145.4" y1="44.7" x2="142.3" y2="44.7"/>
		<path class="st0" d="M139.1,45.4h3v-5.1c0,0-0.3-0.5-1.6-0.5c-1,0-1.4,0.5-1.4,0.5V45.4z"/>
		<path class="st4" d="M140.4,48.7h-1.1c0,0,0-4.5,0-5.8c0-0.2,0.3-0.4,0.6-0.4s0.6,0.3,0.6,0.4C140.4,44.2,140.4,48.7,140.4,48.7z"
			/>
		<rect x="139.3" y="45.5" class="st2" width="1.1" height="1.8"/>
		<path class="st4" d="M142,48.7h-1.1c0,0,0-4.5,0-5.8c0-0.2,0.3-0.4,0.6-0.4s0.6,0.3,0.6,0.4C142,44.2,142,48.7,142,48.7z"/>
		<rect x="140.9" y="45.5" class="st2" width="1.1" height="1.8"/>
	</g>
	<path class="st2" d="M160.6,40.6v-0.3l1.8-1.8V27.8c0,0-3.6,0.1-4.2-0.3c-0.6-0.4-0.7-0.6-0.7-0.6h-0.6c0,0,0,0.3-0.7,0.6
		c-0.6,0.3-4.2,0.3-4.2,0.3v10.6l1.8,1.8v0.3L160.6,40.6L160.6,40.6z"/>
	<path class="st0" d="M152.6,35.5h0.5v0.6h2.6V29c0,0-0.3-0.7-1.6-0.7c-1,0-1.4,0.6-1.4,0.6L152.6,35.5L152.6,35.5z"/>
	<line class="st3" x1="152.6" y1="33.2" x2="155.6" y2="33.2"/>
	<line class="st3" x1="152.5" y1="34.3" x2="155.6" y2="34.3"/>
	<line class="st3" x1="152.4" y1="35.4" x2="155.6" y2="35.4"/>
	<path class="st0" d="M162,35.5h-0.5v0.6h-2.6V29c0,0,0.3-0.7,1.6-0.7c1,0,1.4,0.6,1.4,0.6v6.6H162z"/>
	<line class="st3" x1="162" y1="33.2" x2="158.9" y2="33.2"/>
	<line class="st3" x1="162" y1="34.3" x2="158.9" y2="34.3"/>
	<line class="st3" x1="162.1" y1="35.4" x2="159" y2="35.4"/>
	<path class="st0" d="M155.8,36.1h3V31c0,0-0.3-0.5-1.6-0.5c-1,0-1.4,0.5-1.4,0.5V36.1z"/>
	<path class="st4" d="M157.1,39.3H156c0,0,0-4.5,0-5.8c0-0.2,0.3-0.5,0.6-0.4c0.3,0,0.6,0.3,0.6,0.4
		C157.1,34.9,157.1,39.3,157.1,39.3z"/>
	<rect x="156" y="36.2" class="st2" width="1.1" height="1.8"/>
	<path class="st4" d="M158.7,39.3h-1.2c0,0,0-4.5,0-5.8c0-0.2,0.3-0.5,0.6-0.4c0.3,0,0.6,0.3,0.6,0.4
		C158.7,34.9,158.7,39.3,158.7,39.3z"/>
	<rect x="157.6" y="36.2" class="st2" width="1.1" height="1.8"/>
	<g>
		<path class="st2" d="M177.7,34.2v-0.3l1.8-1.9V21.4c0,0-3.6,0.1-4.2-0.3s-0.7-0.6-0.7-0.6H174c0,0,0,0.3-0.7,0.6
			c-0.6,0.3-4.2,0.3-4.2,0.3V32l1.8,1.8v0.3h6.8L177.7,34.2L177.7,34.2z"/>
		<path class="st0" d="M169.6,29.1h0.5v0.6h2.6v-7.1c0,0-0.3-0.7-1.6-0.7c-1,0-1.4,0.6-1.4,0.6L169.6,29.1L169.6,29.1z"/>
		<line class="st3" x1="169.6" y1="26.8" x2="172.7" y2="26.8"/>
		<line class="st3" x1="169.5" y1="27.9" x2="172.7" y2="27.9"/>
		<line class="st3" x1="169.4" y1="29" x2="172.7" y2="29"/>
		<path class="st0" d="M179,29.1h-0.5v0.6h-2.6v-7.1c0,0,0.3-0.7,1.6-0.7c1,0,1.4,0.6,1.4,0.6v6.6H179z"/>
		<line class="st3" x1="179" y1="26.8" x2="175.9" y2="26.8"/>
		<line class="st3" x1="179" y1="27.9" x2="175.9" y2="27.9"/>
		<line class="st3" x1="179.1" y1="29" x2="176" y2="29"/>
		<path class="st0" d="M172.8,29.7h3v-5.2c0,0-0.3-0.5-1.6-0.5c-1,0-1.4,0.5-1.4,0.5V29.7z"/>
		<path class="st4" d="M174.2,32.9H173c0,0,0-4.5,0-5.8c0-0.2,0.3-0.5,0.6-0.4c0.3,0,0.6,0.3,0.6,0.4
			C174.2,28.5,174.2,32.9,174.2,32.9z"/>
		<rect x="173" y="29.8" class="st2" width="1.1" height="1.8"/>
		<path class="st4" d="M175.7,32.9h-1.2c0,0,0-4.5,0-5.8c0-0.2,0.3-0.5,0.6-0.4c0.3,0,0.6,0.3,0.6,0.4
			C175.7,28.5,175.7,32.9,175.7,32.9z"/>
		<rect x="174.6" y="29.8" class="st2" width="1.1" height="1.8"/>
	</g>
	<g>
		<path class="st2" d="M196.2,30.5v-0.3l1.8-1.8V17.7c0,0-3.6,0.1-4.2-0.3c-0.6-0.4-0.7-0.6-0.7-0.6h-0.6c0,0,0,0.3-0.7,0.6
			c-0.6,0.3-4.2,0.3-4.2,0.3v10.6l1.8,1.8v0.3h6.8L196.2,30.5L196.2,30.5z"/>
		<path class="st0" d="M188.1,25.4h0.5V26h2.6v-7c0,0-0.3-0.7-1.6-0.7c-1,0-1.4,0.6-1.4,0.6L188.1,25.4L188.1,25.4z"/>
		<line class="st3" x1="188.1" y1="23.2" x2="191.2" y2="23.2"/>
		<line class="st3" x1="188.1" y1="24.2" x2="191.2" y2="24.2"/>
		<line class="st3" x1="188" y1="25.3" x2="191.2" y2="25.3"/>
		<path class="st0" d="M197.5,25.4H197V26h-2.5v-7c0,0,0.3-0.7,1.6-0.7c1,0,1.4,0.6,1.4,0.6V25.4z"/>
		<line class="st3" x1="197.5" y1="23.2" x2="194.4" y2="23.2"/>
		<line class="st3" x1="197.6" y1="24.2" x2="194.4" y2="24.2"/>
		<line class="st3" x1="197.6" y1="25.3" x2="194.5" y2="25.3"/>
		<path class="st0" d="M191.3,26h3v-5.1c0,0-0.3-0.5-1.6-0.5c-1,0-1.4,0.5-1.4,0.5V26z"/>
		<path class="st4" d="M192.7,29.3h-1.2c0,0,0-4.5,0-5.8c0-0.2,0.3-0.5,0.6-0.4c0.3,0,0.6,0.3,0.6,0.4
			C192.7,24.8,192.7,29.3,192.7,29.3z"/>
		<rect x="191.5" y="26.1" class="st2" width="1.1" height="1.8"/>
		<path class="st4" d="M194.2,29.3h-1.1c0,0,0-4.5,0-5.8c0-0.2,0.3-0.5,0.6-0.4c0.3,0,0.6,0.3,0.6,0.4
			C194.2,24.8,194.2,29.3,194.2,29.3z"/>
		<rect x="193.1" y="26.1" class="st2" width="1.1" height="1.8"/>
	</g>
	<g>
		<path class="st2" d="M252.5,36.6v-0.3l1.8-1.8V23.8c0,0-3.6,0.1-4.2-0.3c-0.6-0.4-0.7-0.6-0.7-0.6h-0.6c0,0,0,0.3-0.7,0.6
			c-0.6,0.4-4.2,0.3-4.2,0.3v10.6l1.8,1.8v0.3L252.5,36.6L252.5,36.6z"/>
		<path class="st0" d="M244.5,31.5h0.5v0.6h2.6V25c0,0-0.3-0.7-1.6-0.7c-1,0-1.4,0.6-1.4,0.6v6.6H244.5z"/>
		<line class="st3" x1="244.5" y1="29.2" x2="247.5" y2="29.2"/>
		<line class="st3" x1="244.4" y1="30.3" x2="247.6" y2="30.3"/>
		<line class="st3" x1="244.3" y1="31.4" x2="247.5" y2="31.4"/>
		<path class="st0" d="M253.9,31.5h-0.5v0.6h-2.6V25c0,0,0.3-0.7,1.6-0.7c1,0,1.4,0.6,1.4,0.6v6.6H253.9z"/>
		<line class="st3" x1="253.9" y1="29.2" x2="250.8" y2="29.2"/>
		<line class="st3" x1="253.9" y1="30.3" x2="250.8" y2="30.3"/>
		<line class="st3" x1="254" y1="31.4" x2="250.9" y2="31.4"/>
		<path class="st0" d="M247.7,32.1h3v-5.2c0,0-0.3-0.5-1.6-0.5c-1,0-1.4,0.5-1.4,0.5V32.1z"/>
		<path class="st4" d="M249,35.3h-1.2c0,0,0-4.5,0-5.8c0-0.2,0.3-0.4,0.6-0.4s0.6,0.3,0.6,0.4C249,30.9,249,35.3,249,35.3z"/>
		<path class="st4" d="M250.6,35.3h-1.2c0,0,0-4.5,0-5.8c0-0.2,0.3-0.4,0.6-0.4s0.6,0.3,0.6,0.4C250.6,30.9,250.6,35.3,250.6,35.3z"
			/>
	</g>
</g>
<rect x="247.9" y="32.2" class="st2" width="1.1" height="1.8"/>
<rect x="249.5" y="32.2" class="st2" width="1.1" height="1.8"/>
<rect x="264.4" y="39.3" class="st2" width="1.1" height="1.8"/>
</svg>
