<?xml version="1.0" encoding="utf-8"?>
<!-- Generator: Adobe Illustrator 20.1.0, SVG Export Plug-In . SVG Version: 6.00 Build 0)  -->
<svg version="1.1" id="Layer_1" xmlns="http://www.w3.org/2000/svg" xmlns:xlink="http://www.w3.org/1999/xlink" x="0px" y="0px"
	 viewBox="0 0 596 298" style="enable-background:new 0 0 596 298;" xml:space="preserve">
<style type="text/css">
	.st0{fill:#681E44;}
	.st1{clip-path:url(#SVGID_2_);fill:#EC208B;}
	.st2{clip-path:url(#SVGID_4_);fill:#EC208B;}
</style>
<rect x="0" class="st0" width="596" height="298"/>
<g>
	<g>
		<g>
			<g>
				<g>
					<defs>
						<rect id="SVGID_1_" x="4.3" y="23.5" width="294" height="251"/>
					</defs>
					<clipPath id="SVGID_2_">
						<use xlink:href="#SVGID_1_"  style="overflow:visible;"/>
					</clipPath>
					<path class="st1" d="M556.6,250.5c8.6-0.8,4.8,17.1,16.2,13.5c-1.5-17.9-22.1-23.2-39.6-17.1c3.2-7.6,6.1-15,7.2-25.3
						c2.3,0.8,1.1,4.8,3.2,5.9c1.5,0.6,5.5,1.1,5.9-0.8c0.2-2.3-3.4-0.8-3.6-2.7c-1.1-2.3,0.4-4.8,0-8c-0.4-2.7-5.5-2.5-7.2-5.1
						c-1.3-1.7-1.5-4.8-2.3-6.7c-4.6-11.8-17.5-26.3-35.6-24.8c-6.1,0.6-10.5,3.2-16.2,5.9c-0.6,2.1,1.3,1.7,0.8,3.6
						c-2.9,2.7-7.4,4.8-10.7,9.9c-3.2,4.6-4,11.2-9.1,12.2c-5.3,1.1-7.2-2.9-11.6-4.4c-0.6,6.9,5.1,11.8,13.1,11.8
						c3.2,7.6-1.9,14.5-8.6,15c-2.5,0-4-1.9-6.7-0.8c2.3,7.2,13.3,6.7,17.1,0.8c1.5-2.3,0.6-4.4,2.7-6.3c6.1,4.4,9.9,10.9,18.1,13.1
						c5.3,0.4,11.2-0.6,15.4,0c2.5,0.6,1.7,4.4,3.2,5.9c5.7-4-1.5-11.6-7.2-11.2c2.3-3.2,6.3-8.4,5.9-15.8c1.9-0.8,3.4,1.1,5.5,1.3
						c8.8-1.7-25.3-9.5-29.7-4.4c-1.3,1.3-4.2,8.2,1.3,8.6c0.8-1.3,0-4.2,0.8-5.5c6.7-4.4,10.9,10.1,19,3.2c0,3.8-3.2,10.3-7.2,9.9
						c-1.9-1.5,0-6.9-3.2-7.2c-2.3,0.2-1.5,4-2.7,5.5c-9.1,5.5-17.9-5.3-17.1-13.9c1.9,0,1.7,2.1,4.4,1.3c-1.5-5.5-1.7-12,0.8-16.6
						c3.4,1.3,2.3,7.2,8,6.3c0.2-3.2-1.7-4.8-0.4-7.6c8.2,4,6.7-6.1,10.7-9.1c2.7,0.4,1.1,4.8,3.6,5.5c4.2-2.3,6.1-9.1,13.1-7.2
						c1.3,2.1-1.5,3.6,0,5.9c4.6,1.1,11.4-0.8,15.4,2.7c0,1.9-4.2,2.1-2.7,4c0,1.9,3.6,0.2,4.4,1.3c2.3,1.3,3.6,5.5,3.2,8
						c-8.2,0.4-4.2,8.4-5.5,13.5c-1.9,0.4-3.6-1.3-5.1,0c-0.6,4.4,2.5,5.5,4.4,5.5c4.4-0.4,4-6.7,7.2-7.6c2.7,4.2-1.3,12.8-2.7,17.5
						c-3.4-4-5.5-9.3-12.2-9.9c1.3,4,4.8,5.7,4.8,10.7c0.2,5.9-2.9,12-7.6,13.9c-2.1-3.2-5.3-7.6-10.3-6.3c-1.5,2.7,4.2,3.4,2.3,6.7
						c-2.9,0-2.5-1.9-5.1-1.9c-4.6,0-5.7,6.9-10.7,7.2c0.6-4.6,0.2-10.5-6.3-10.3c0,1.7,0,3.4,0,5.1c-2.3,0.6-1.3-2.1-2.7-2.3
						c-6.5,3.2-12.4-1.1-19.4-0.4c0-2.9,2.1-10.7-3.6-10.3c0,4.8-4.2,7.4-8.6,5.5c1.9-6.3-3.4-8.2-9.1-8.6c-0.6-2.3,2.1-1.3,1.9-3.2
						c-2.5-4.2-7.6-5.7-10.7-9.5c-4.8-5.7-5.5-13.9-8.6-21.7c3.6,3.6,7.2,11.8,15,8c-3.8-4.8-11.2-5.9-13.1-12.6
						c2.9-0.8,3.4,1.9,5.9,2.7c6.1,1.9,14.1-1.1,17.1-5.9c0.8-1.3,3.4-8-1.3-8.6c0.2,5.5-4.4,8-8.6,7.6c-9.9-0.8-8.8-21.9-19.8-12.6
						c-2.1-1.7-1.1-6.5-1.9-9.5c0.6-1.7,5.9,0.8,7.2-1.3c0.6-2.9-3.8-3.4-5.5-5.5c-3.4-4.4-3.8-11.4-6.3-16.6
						c-9.3-18.7-30.5-42.1-52.6-44.6c-19.4-2.1-34.1,3.4-43.6,13.1c-8.4-5.5-3.8-20.2,1.3-25.7c-1.3-0.8-4-0.2-4.4-1.9
						c0.4-2.5,2.9-2.7,3.6-5.1c0-1.7-2.1-1.5-2.3-3.2c0.8-3.4,5.9-2.1,8-4c0-2.9-3.4-2.3-4-4.4c2.7-7.4,15.4-8.2,22.1-4
						c2.1,1.3,3.4,4.6,6.3,4c1.3-1.7-1.3-3.8-1.3-6.3c8.8,2.1-2.3,16.6,3.6,22.5c-0.4,1.9-2.9-0.6-3.6,1.3c-0.8,2.9,3.2,1.1,4,2.3
						c-1.3,2.3-7.2,3.6-9.5,2.7c-5.5-1.9-1.9-8.8-5.5-12.6c-2.9-0.6-3.6,1.1-5.9,1.3c-1.3-4.6,4-8.4,8.6-7.2
						c1.9,1.1-0.2,4.2,3.2,5.9c5.5,1.3,6.3-4.2,4.4-7.2c-5.5-8.6-21.1,0-19.8,10.3c0.4,3.4,0.4,5.5,4,9.1
						c13.9,10.9,36.2-1.3,29.7-20.2c-3.6-10.7-17.7-15.8-30.1-13.1c-10.5,2.3-17.5,11.6-22.1,20.6c-3.4,13.3-0.8,28.8,5.9,36.4
						c-2.3,4.4-4.8,7.6-8.4,12c-2.1,1.3-3.4,1.7-5.7,1.9c-1.3-3.2-1.5-10.1-1.1-13.5c4.6,0,6.5,0.6,9.3-2.3
						c-0.6-1.3-2.3-1.5-3.6-2.3c-10.7-27.2,3.4-59.2,28.8-60.4c0.2-6.9-12.6-6.9-15-2.3c-2.3-0.8-5.5-1.9-9.1-0.8
						c-3.8,1.9-4,7.4-6.3,10.7c-1.1-5.5,0.8-12.6,4-17.1c1.5-1.9,4.4-2.3,3.6-5.5c-5.3-1.5-10.3,8.2-14.5,11.6
						c-2.9-3.4-3.2-4.8-4.2-6.3c-3.2-4-4.8-6.1-9.5-5.7c-0.2,3.4,3.4,4.6,4.8,7.2c2.5,3.8,3.2,7.6,2.7,13.3c-3.8-4-5.9-11.6-15-9.1
						c-2.7-1.7-4-5.3-10.3-4c-3.8,0.8-9.9,4.8-9.5,7.6c5.1-1.1,14.3-0.2,20.2,5.1c8.2,7.4,18.1,20.4,18.1,34.7
						c-0.2,7.6-2.7,15.2-5.9,21.1c-0.8,0.6-2.5,0.4-3.2,1.3c1.5,2.9,5.7,2.9,9.7,2.5c1.7,2.5,0.6,10.7,0.2,14.1
						c-7.6-0.6-10.1-11.8-15.8-15.4c3.4-6.7,7.8-13.7,8-22.1c0.8-16.4-9.9-32.2-24.2-34.7c-14.1-2.3-28.2,5.3-29.7,16.6
						c-2.7,20.8,25.5,27,31.6,9.5c0.6-2.7,0.8-4.4,0-7.2c-1.1-2.9-3.2-6.3-6.7-7.2c-6.7-1.5-10.9,7.6-5.5,8c3.2,0.4,2.3-3.4,5.5-3.2
						c2.9,0.2,3.6,1.7,4,6.7c-2.3,0.4-1.7-2.3-4-1.9c-5.7,1.5-2.9,10.7-9.1,11.8c-2.1,0.4-5.1-0.8-7.2-2.3c1.1-1.5,4.4,1.5,4.8-0.8
						c0.6-2.5-1.9-1.7-2.3-3.2c3.6-6.9-4.8-15.4,1.1-19c2.1,0.2,0,5.3,2.1,5.5c3.6-1.3,2.9-4.6,6.3-6.7c6.3-3.8,16.2-0.6,21.3,3.2
						c-1.5,3.4-10.5,2.7-7.6,6.7c4,0,8.2-2.3,10.3,0.8c0.4,1.9-2.3,0.8-2.7,1.9c0.4,3.4,5.1,4.4,4,7.6c-2.1,1.5-4.8-2.5-7.2-0.8
						c1.1,1.7,2.1,2.1,4,4.4c5.1,4.8,5.9,17.7,0.4,23c-8-3.4-15.4-9.3-25.3-10.3c-14.5-1.5-27.2,2.1-37.9,6.7
						c-22.5,9.7-37.7,28.8-45.1,52.6c-1.9,1.7-5.5,1.5-7.2,3.2c0.2,4,6.9,1.7,9.9,1.9c-0.2,3.8-2.3,11.4-3.2,14.5
						c-2.7-2.3-3.2-5.1-6.1-5.7c-5.9-1.3-7.6,2.7-8.4,8.6c-2.3,5.1-3.8,6.7-8,6.7c-5.3,0-0.8-5.5-6.5-6.9c-4.4,1.1-3.6,4-1.9,5.7
						c8.6,9.1,17.5,8.2,25.3,3.6c-0.2,5.1-7.2,7.4-13.1,8c2.3,6.5,10.7,0.6,13.9-0.8c-3.6,10.3-8.6,23-19.8,27
						c0.6,2.1,2.5,1.7,0.8,4c-4.2,0.8-11.4,0-13.5,4c-0.6,2.3,1.7,1.9,1.3,4c-3.4,3.4-8.8-0.4-8.6-5.1c-2.7,2.7-0.6,6.9,0.4,10.3
						c-1.1,6.3-16.8,15-23.8,3.2c-1.1-0.4,0.2-3.6-0.8-4c-5.9,0.8-3.4,9.9-0.4,12.2c-5.7,1.7-21.7-1.9-23.4-9.1
						c-0.2-1.3,0-3.2,0.8-5.3c-5.1-0.2-7.2,2.3-9.5,5.1c-5.1-1.7-6.7-9.1-5.5-15.8c0.4-2.1,4.2-2.5,2.7-5.5
						c-5.7-1.1-7.8,5.1-10.3,8.6c-2.1-3.2-4.4-15.4-2.1-18.7c2.3,1.5,3.2,9.1,7.2,8.8c1.9-0.2,5.1-1.5,3.6-5.1
						c-2.1-1.7-3.2,0.8-4.4,1.3c-1.5-3.4,5.9-12.2-3.6-12.2c-3.4-6.9,2.3-14.1,9.1-15.4c0.6-0.6-0.2-1.5,0.4-3.6
						c3.6-5.9,10.7,0.2,15.4-0.8c2.3-0.6,1.7-2.3,4-3.6c3.8,0,1.7,5.7,5.5,5.9c2.5,0.2,1.3-3.6,2.7-4.4c5.7-0.8,2.7,6.9,5.5,9.9
						c1.3,0.6,3.2,0.4,4.4,0.8c3.6,0.2-1.5,2.1-0.8,4.4c6.7,3.2,6.1-7.2,6.7-12.2c3.6,1.3,5.5,5.3,5.9,9.1c0.4,5.1-2.3,8.6-2.7,13.1
						c1.9,1.5,2.7-1.9,5.5-1.3c2.9,13.5-16.4,29.5-26.1,15.8c-2.5,0-1.3,4-3.6,4c-3.4-0.8-3.8-8.2-2.9-11.8c9.7,5.5,9.3-6.3,16-5.3
						c1.9,0.4,0.6,7.2,3.8,6.3c5.7-7.2-5.7-16.8-13.1-13.5c-2.5,1.1-3.2,4.4-5.9,2.3c-0.8-1.9-0.4-6.9-4.4-9.9
						c-5.1-3.8-18.1-0.2-13.9,5.5c2.1,1.3,5.9-5.1,7.2-1.9c-1.1,6.9-4,15,7.2,15.4c-2.3,5.7,0,11.6,2.7,15c-0.4,1.9-3.2,1.3-4,2.7
						c-2.9,3.4-1.3,9.9,3.6,9.5c0.2-1.9-0.8-2.5-0.4-4.4c2.7-4.6,8.2-1.7,12.6-1.9c11.8-0.6,19.2-8,24.4-16.2
						c2.7,0.6,3.2,3.4,6.5,5.5c3.4,1.9,11.4,4.6,12-0.8c-9.5,0.8-13.7-6.5-16.2-13.9c3.2-1.3,6.9,2.1,11.2,1.3
						c3.8-0.6,9.5-6.9,5.1-11.8c-2.3-0.4-0.8,3.2-2.3,5.1c-8.4,9.1-15-10.5-21.1-17.3c-3.4-3.8-6.1-6.5-10.3-8
						c-2.3-0.8,0.6-3.6-0.8-4.4c-17.3-7.4-31.8-1.5-42.3,10.3c-5.7,6.3-8.4,12.8-12.6,19.4c-2.3,0-2.3-2.5-5.5-1.9
						c-3.4,1.5-0.6,7.2-1.9,9.9c-1.3,1.3-2.1-1.1-4-0.4c-2.3,7.6,8.8,3.8,9.1-0.8c3.6,2.7,1.9,8.4,2.3,12.6
						c0.8,8.2,5.5,13.9,8.6,19.4c-5.9-0.6-12.6-3.4-21.7-2.7c-10.7,0.8-24,7.8-20.2,17.5c3.8,4.2,6.3-10.3,15-9.9
						c2.7,0.6-4.4,8,0,9.5c6.5,0.6,10.3-16.4,25.3-10.7c-1.5,2.9-7.8,6.5-4,10.3c2.3-2.3,3.2-4.2,5.5-5.7
						c10.3-5.7,24.2,7.2,39.6,6.9c40.2-0.4,60.2-27.2,72-59.8c1.7,7.8,4.8,17.1,7.8,23.8c-1.1,1.3-4,0.2-5.9,1.5
						c-7.8,5.9,5.9,16.8-3.2,16.6c-1.5,0-1.9-0.6-2.5-1.7c3.2-1.7,4.4-7.6-0.6-8.2c-2.3-0.2-5.5,2.7-5.5,5.5c0,3.8,5.3,8.4,10.3,8
						c6.1-0.4,9.5-7.8,12-12.2c2.9,0.6,5.1,4.4,7.4,6.9c11.4,12.2,33.1,20.4,58.1,16.6c14.1-2.1,24-11.8,30.5-22.5
						c2.9,1.9,3.4,4,6.3,4.4c7.4,1.5,10.3-6.7,15-9.9c2.7,7.2,14.1,15.6,21.3,6.7c7.4,10.1,15.6,19,30.1,21.1
						c29.9,4.4,49.9-10.7,62.5-26.1c2.9,1.7,1.3,5.3,2.7,8c3.8,8,21.5,10.5,18.5-3.2c-2.5-2.7-7.8-1.9-9.1,1.3
						c0.4,2.5,3.2,2.7,5.1,4c-0.6,1.9-3.6,0.6-5.1,0.4c-1.5-4.2,0-7.2,0-12.6c-1.3-2.7-4.6-3.6-7.2-5.1c3.2-6.1,5.9-12.8,7.2-20.6
						c6.3,20,13.5,37.1,28.8,47.2c14.3,9.5,41.3,12.8,62.1,5.9c3.8-1.3,7.6-4,11.2-4.4c7.4-1.1,8.2,4.2,13.1,4.4
						c0.8-4.6-3.2-4.4-3.2-8c4.8-2.3,12.2-0.6,16.2,4c2.1,2.3,1.9,5.9,5.5,5.5C564,260.6,557.9,253.2,556.6,250.5 M420.1,204.6
						c0.4,7.6-2.5,15.4-6.3,20.2c-4.6-6.1-10.5,0.2-12.6,4.4c-3.6,0-6.9,0-7.2-3.2c1.3-1.1,4.8,0.4,4.8-1.9c-0.4-9.1-9.5-4-8,3.2
						c1.3,6.3,10.1,6.9,16.6,6.3c-3.2,8-15.6,10.5-24.2,9.1c-1.7,2.7,2.1,3.2,1.5,6.3c-5.1,1.3-8.4-2.5-13.1-3.2
						c-1.5,2.3,0.8,4.2,0.4,6.7c-5.5,0.4-6.7-5.9-12.2-4c0,2.5,1.7,4,0.4,6.3c-5.1-1.7-5.3-10.5-2.7-15c-5.9-2.3-6.7,4-9.5,6.3
						c-3.4-1.1-5.7-2.1-8-0.8c-3.8-1.7-4.8-6.3-10.7-5.9c-1.7,0,0,3.4-1.9,3.2c-3.6-5.7,2.5-8.4,3.6-12.2c-4.4-1.7-6.5,2.3-10.7,2.3
						c-0.8-7.6-1.3-18.3,3.6-21.7c2.5,2.5,4,6.1,9.1,6.3c1.3,1.5,0.2,5.3,3.2,5.1c2.9-1.9,0.2-5.3,0-8c8.6-2.7,12.4,2.3,18.1,5.1
						c3.8-2.7-1.3-6.5-2.7-8.6c9.7-3.2,16-9.9,18.5-20.2c3.8,2.5,6.5,9.9,4.8,15c-1.1,3.4-5.1,2.5-4.8,6.3
						c7.2,4.2,11.4-6.9,9.1-15.4c4.8,2.5,5.3,15,0.4,18.5c-2.5,1.9-4.8,0.4-7.6,2.3c1.3,5.1,8.2,2.3,10.7,0.4
						c3.4-2.5,2.7-6.9,4.8-9.5c3.6,10.7-2.5,22.7-12.6,22.5c-5.5,0-9.9-6.9-17.5-8c-6.9-1.1-14.1,0-16.2,5.9
						c-1.1,2.7-1.5,7.4,3.2,7.6c-0.2-2.3,0-4.2,0.4-5.9c8.6-6.3,15,5.3,25.7,5.5c11.2,0.2,22.1-9.9,22.1-21.7c0-4.6-2.1-10.5-4-13.9
						c-3.8-6.7-11.4-11.6-18.1-15c-0.4-13.3-13.3-14.5-17.1-24.2c0-1.9,1.3-4.4-0.8-5.1c-4,0.8-5.1,4.8-3.6,8.6
						c-7.8-0.6-15,1.5-18.5,6.7c-5.9,8.4,2.9,18.3,12.2,13.5c3.2-1.7,6.3-9.7,0-9.1c-2.1,0.4-1.1,4.2-2.3,5.5
						c-2.7,1.1-4.6-0.4-6.3-1.9c-2.5-9.7,7.8-12.6,15.8-11.8c-1.3,2.3-7.8,2.9-4.4,6.7c8.8-5.1,19.8-0.6,21.1,9.5
						c-20.8-5.3-38.1,8.8-46.3,23.4c-6.7-2.9-13.5-8-14.7-15c3.6,1.9,11.2,6.3,15.8,2.7c-6.1-4.6-9.5-12.2-19.8-12.6
						c-0.2-1.1-0.6-2.1-0.4-3.6c4.2,0.4,9.5,4.8,13.9,5.9c1.7,0.4,5.9,1.5,6.3-1.9c-0.6-2.1-4.2-0.8-5.9-1.9
						c-5.5-3.6-6.3-11.6-15-12.2c-0.4-1.3-0.8-4.2,0-5.5c3.4,1.3,8.4,4.8,12.2,2.7c0.2-4-4-3.2-6.3-5.1c-6.3-5.1-10.3-21.5-0.4-24.2
						c-3.8,14.7,5.7,26.1,17.5,28c12,1.7,22.5-5.3,20.2-17.1c-1.5-7.6-9.9-13.7-18.5-10.3c-5.5,2.1-10.1,14.3-2.3,13.5
						c4.8-1.9-1.5-6.1,0.4-8.6c2.3-1.1,2.9,3.6,5.1,3.6c2.7,0.2,4.8-3.4,7.2-3.2c6.5,0.8,6.7,15.8-1.9,17.1
						c0.4-12.2-9.5-0.8-15.8-1.3c-6.1-0.6-9.5-9.7-9.5-14.3c0-6.9,5.5-18.7,10.7-20.6c1.7,2.1,9.9,4.8,12.2,0.8
						c0.4-3.8-5.9-1.9-6.3-5.1c5.9-3.4,16.4-3.4,22.5-0.4c3.6,1.7,5.5,6.1,9.1,5.1c0.8-1.9-2.3-3.6,0-4c4,2.5,6.5,11.4,1.3,14.3
						c-1.9,0.4-3.6-1.5-4.8,0c0,3.6,4.8,4.2,6.7,4c5.3-0.6,9.1-9.1,8-15.8c-1.5-4.2-6.3-5.1-7.6-9.5c6.1,0,7.4,5.1,12.2,6.3
						c2.9,3.4,1.5,11.2,5.1,13.9c1.3,0,2.3,0,3.6,0c1.1,1.5,0,5.1,2.3,5.5c3.6-0.4,2.7-5.7,7.6-3.6c0.8-1.3-0.2-4,1.9-4
						c4.2,6.3-2.1,14.3-4,18.1c1.1,1.7,4.4-1.3,4.4,0.8c-0.2,5.3-9.1,1.9-10.7,5.9c1.3,3.8,6.1,2.3,9.5,1.9
						c-1.5,4.6-11.6,2.3-10.7,7.6c0.4,3.2,5.3,2.9,9.5,2.3c-4.2,6.3-18.7,2.7-19.4-4.4c-0.2-2.5,1.9-3.8,1.3-7.2
						c-2.9-5.5-6.9,0.4-8.2,3.6c-3.6-7.8,4.2-15.4,12.2-11.8c1.3,2.3,0.2,5.1,2.7,5.5c5.7,0.6,1.3-9.1-3.6-10.3
						c-2.5-0.6-4,0.4-7.8,0c-17.7,9.5-2.9,34.5,15.8,31.2c-1.5,3.8-3.6,6.9-2.7,13.1c2.5,3.2,5.9,6.1,10.7,5.9
						c2.9-0.2,5.3-3.2,8-1.9c0.2,1.3-0.6,3.8,0.4,4.4c3.4,0.6,2.5-3.2,2.7-5.9c-2.5-6.9-10.7-3.6-17.1-3.6
						c-5.5-7.2,6.7-13.5,9.5-16.2c5.5-5.5,7.2-15.4,7.6-24.8c2.1,1.1,2.5,3.8,2.7,5.9c1.1,9.3-4,16.2-3.2,20.6
						c5.9-2.1,4.4-12.8,9.1-15.8c1.3,5.1,1.7,10.9,0,15.4c-1.3,3.4-4.8,4.4-4.4,7.6c5.3,0.6,5.3-4,9.1-5.1c0.8,3.6,2.9,8.4,1.9,12.6
						c-2.5-0.6-2.9-2.1-5.9-1.3c-11.8,2.7,10.7,25.5-2.3,27.4c-1.5-1.7-0.4-5.9-4.4-5.1c-4,3.6,1.9,8.4,5.9,8
						C416.6,215.5,418.5,207.7,420.1,204.6z M366.2,188.4c0.2,10.1-6.7,16.8-15.4,19.8c0.2-1.5,0.6-2.5,0.4-4.4
						c-0.8-1.5-3.8-3.8-5.5-1.9c-0.6,2.1,1.9,1.1,1.3,3.2c-1.9,3.2-4,8.2-9.5,6.3c-1.3-0.6,1.3-3.8-0.8-4c-3.2,1.7-8.6,3.8-12.6,1.9
						c0.2-6.7,8.4-5.5,11.2-9.5c1.9,0,2.7,0.8,4.4,0.8c0.8,0.8,0,3.6,1.5,4c1.9,0.2,2.3-1.3,2.7-2.3c1.3-4.2-3.2-6.7-4-9.5
						c5.7-2.9,8.4,4.2,13.5,5.1c1.7-0.4,0.2-3.8,2.3-3.6c2.7,2.1-0.2,5.7,0.4,7.6c3.4-0.2,4.4-3.8,4.4-5.9c0-4-4-5.9-5.1-8.6
						C359.3,186.3,363.3,187.7,366.2,188.4z M318.4,210.5c-0.8,5.1-3.6,13.9-1.9,21.7c-3.4-2.5-12.8-1.3-9.1,4
						c3.8,0.8,3.4-3.4,6.7-1.9c2.5,6.5-4.8,7.2-8.4,4.4c-3.8-2.7-5.9-10.5-5.9-14.3c3.6,1.9,12.8,7.6,13.5-1.9
						c-7.8,2.5-14.1-3.4-13.5-10.3c2.7,3.2,8.8,7.2,13.5,3.2c0.8-1.7,0.2-5.3,0.4-7.6C315.7,208.6,317.8,208.8,318.4,210.5z
						 M312.5,207.3c-0.8,1.3-1.7,2.5-1.9,4.4c-9.3,0.8-11.4-11.8-10.7-20.6c3.2,2.3,2.7,6.3,5.1,9.1
						C307.1,202.9,311.1,204.2,312.5,207.3z M298.2,64.6c4,3.2,3.6,16.4,0,18.1C295.3,81.6,293.4,68.1,298.2,64.6z M295.9,163.7
						c1.1,1.3,0.2,3.8,0,5.5c-6.1,1.3-8.6,6.3-11.8,10.7c-1.9,1.9-7.4,0.2-8.6,2.7c5.3,5.3,14.5-1.9,20.2-3.2
						c0.4,4.8-6.3,3.8-9.9,5.9c-3.4,1.9-4.4,5.9-7.2,8c-1.5,0.8-5.7,0.2-4,2.7c6.5,2.5,14.1-1.5,17.5-5.1
						c-1.9,5.9-7.2,12.4-13.5,15.4c-0.2,0-0.6,0-0.8,0c-6.9-16-24.4-26.7-47.2-22.5c0.2-10.3,12.8-13.1,23.6-10.3
						c-2.3-4-4-4.6-4.8-5.7c8.2-3.4,21.7,1.9,16.4,12.8c-1.9,3.4-5.7,3.2-7.6,1.3c-2.1-4,0.6-9.7-3.4-7.2c-7.4,9.7,15,17.5,16.6,5.5
						c1.7-10.9-13.5-19.2-24.8-16.2c-0.4-2.9-2.5-6.1-5.3-7.2c3.2,19.4-14.3,13.9-15.4,28c-4,0.6-9.3,3.6-12,6.1
						c0.2-0.2,0.2-0.4,0.4-0.6c-15,15-6.9,42.3,13.1,44.9c12.2,1.7,16.2-12,24.4-7.6c2.5,2.1-0.4,8.2,2.7,7.2
						c4.8-7.6-1.5-13.1-10.3-12.6c-6.7,0.4-12.4,6.9-19,7.2c-15.4,0.6-20-21.5-11.8-32c0,4.4-0.8,8.2-0.4,13.1
						c0.6,2.7,2.3,5.9,6.3,7.2c3.2,1.1,9.1,1.3,10.3-2.3c-2.3-1.9-5.5,0-8.6-1.3c-6.7-1.1-6.1-20.6,1.5-24.2
						c-3.4,5.3-6.7,21.7,3.2,21.1c2.5-1.7-3.2-2.3-3.4-5.7c0-5.3,1.5-9.9,3.8-12.8c2.5,8.6,6.5,15.8,13.9,19.4
						c1.5,0.8,3.2,1.3,4.4,2.3c-2.1,1.1-3.6,1.9-4,5.5c2.7-1.3,4.2-2.1,8.8-2.9c6.5-1.7,8.2-1.5,15-1.3c-0.6,2.1-0.6,2.9-0.6,6.5
						c2.3-2.7,3.8-4.2,8.4-7.2c1.3-1.3,1.5-0.8,3.4-2.5c2.7,5.1,1.3,12.4,0.4,18.5c-3.4-0.6-9.3-5.1-11.8-0.8c0.2,2.7,5.5,1.7,4,5.1
						c-2.7,0.8-5.3,4-5.5,8.6c-2.1,0.4-2.1-1.1-4-0.8c-4.2,1.9,0,12.4-6.7,11.8c1.1-5.5,1.7-15.4-5.9-15.8
						c-2.5,2.7,2.3,9.5-2.3,10.7c-2.3,1.5-1.9-3.2-5.1-2.3c-1.7,3.8-2.1,8.6-7.2,9.1c0.2-2.5,2.7-2.7,2.3-5.9
						c-7.4-4.4-18.3,8.2-27.4,1.9c0.6-4.2,8.6-2.9,7.6-7.6c-1.3-5.9-8.4,0.6-9.5,0.8c-6.3,1.1-18.3-6.1-19.4-9.9
						c10.1,3.8,24.4,1.5,23.8-8c-0.4-5.1-9.3-8-9.1-2.3c0,2.9,5.1,1.1,5.1,4.4c-4.2,9.9-9.3-5.9-15.8-7.2c-7.4-1.5-6.1,3.6-10.7,5.1
						c-3.4-7.6-7.6-16.8-7.6-26.1c3.2,6.5,6.7,15.8,15.4,13.5c2.3-1.5,2.3-2.7,1.9-5.9c-0.8-1.3-1.5-1.9-2.7-1.7
						c-2.3,0.4-1.1,3.2-2.9,3.2c-9.3-3.8,1.9-13.9,1.3-20c-0.4-3.8-4.6-6.9-10.3-4.4c-0.8-4.4,0.8-9.7,1.3-14.3
						c3.2,1.5,2.7,6.5,7.6,6.3c0-4.8-4.4-11.2-1.9-17.5c4.2,3.2,2.5,11.8,9.1,12.6c-3.6-15.8-4.4-38.1,8-45.1
						c0,4.4-3.6,9.3-5.5,13.5c-2.3,5.9-0.8,12.4,0.8,16.6c4.6,11.6,24.4,13.7,18.5,28c-4.6,4-9.3-2.9-15.8-3.2
						c-4.6-0.2-9.3,5.7-5.9,9.9c2.9,1.3,0.6-3.8,3.6-5.1c5.1-2.3,10.3,1.7,16.2,4c1.7,0.6,4.2-2.1,5.7-3.6c2.1-5.5,0.4-11.6-1.7-15
						c12.8,0.8,25.3-7.4,22.5-21.7c-1.1-4.8-5.7-10.3-10.7-10.7c-5.5-0.4-12.6,5.5-6.7,7.6c2.9,0.4,2.9-3.2,5.1-3.8
						c4.2-1.1,7.4,1.9,7.6,6.1c-7.4-1.5-4.4,4.4-4.4,9.1c0,9.5-11.8,13.3-19.4,7.6c3.4,0,9.3,0,9.1-4.4c-1.3-3.4-8.4,3.2-9.5-4.4
						c3.4-1.1,9.3,0.6,8.6-4.4c-8.2,3.2-17.5-1.1-16.6-8.6c2.5,0,2.7,3.4,5.5,1.9c0.4-4.4-2.3-11.8-0.4-17.5
						c1.9,1.1,2.1,3.6,5.5,3.2c0.8,6.3,6.5,2.5,7.6-0.8c1.9,0,2.7,0.8,4.8,0.4c2.3-2.5,0.6-5.7,1.3-8.6c1.9-7.6,12-11.4,19-12.2
						c-2.9,4-8.8,5.9-10.3,11.2c-2.7,9.5,10.1,20.2,15.4,12.2c-1.3-2.7-2.9-0.4-5.1-1.3c-4.4-2.3-5.9-12.4,0.4-13.5
						c0.8,1.9,0,5.5,2.7,5.5c3.4-6.9,17.5-12.6,25.7-7.6c-2.7,1.7-8.6,0.4-9.5,4c2.7,5.7,13.3,2.7,15.4-1.3c4,3.2,11.4,10.5,12.2,19
						c0.8,9.3-3.4,17.5-11.2,18.5c-3.8-2.1-13.9-10.3-15.8-0.8c-4.4-0.6-6.3-8.8-3.6-11.8c2.9-2.3,5.3,0.6,9.1-0.4
						c1.7-0.8,2.5-2.5,2.3-5.5c5.7,0.6,1.3,7.6,4.4,9.1c8.4,1.5,3.2-12.4-3.8-13.5c-9.1-1.5-16.4,6.1-17.5,11.4
						c-2.1,10.9,10.3,18.7,23,16.6c10.7-1.9,19.2-12.4,15.8-25.3c8.8,3.6,3.4,20.6-1.3,24.2c-1.9,1.5-5.7,0.8-6.3,3.6
						C287.9,168.2,292.7,164.6,295.9,163.7z M295.5,212.4c1.5,6.5-7.4,13.1-12.2,8c-1.1-0.4-1.3,0.4-1.9,0.4c0,0.4,0,1.1,0,1.9
						c1.9,6.9,8.8,3.2,13.1,0.8c1.1,8-4.4,17.1-12.2,15c-1.7-0.8-0.6-2.5,0-4c1.5-1.5,1.7,1.5,4.4,0.4c0.4-0.2,0.8-0.8,0.8-1.3
						c1.1-5.9-6.7-3.6-9.1-1.3c1.3-2.7,2.1-9.3,2.3-11.2c0,0,0,0-0.2,0c-0.4-3.8-1.3-7.2-1.3-11.2c8-4,12-11.8,17.1-18.5
						c0,9.7-2.5,16.6-9.1,19.8c-2.1,1.1-3.2-1.9-4.4-0.4C283.5,217.4,292.1,213.4,295.5,212.4z M263.9,199.3
						c3.8-2.1,11.4,4.4,10.3,10.3c-2.9,2.7-9.5-0.4-10.7-3.4c-0.4,1.5,0.2,4.6,0.6,6.5c-4,0-8.2,0.8-10.9-1.1
						c-2.9-2.1-5.3-6.3-6.7-9.1c-1.3,1.9-0.6,4.2-0.4,7.6c-10.3-2.3-16.6-10.9-16.2-22.5c3.8-1.7,6.5-2.3,11.4-1.9
						c0,2.5-3.8,3.2-5.1,6.3c-1.3,3.6-1.5,9.9,3.6,9.9c-0.4-4.2-0.6-8.8,3.6-9.5c-0.8,3.6-1.7,6.9,1.3,7.2
						c2.7,0.2,8.8-12.4,13.5-6.3c-3.8,1.5-6.5,6.5-3.2,10.3C257.4,202.3,260.7,200.2,263.9,199.3z"/>
				</g>
			</g>
		</g>
	</g>
	<g>
		<g>
			<g>
				<g>
					<defs>
						<rect id="SVGID_3_" x="297.4" y="23.5" width="294" height="251"/>
					</defs>
					<clipPath id="SVGID_4_">
						<use xlink:href="#SVGID_3_"  style="overflow:visible;"/>
					</clipPath>
					<path class="st2" d="M39.4,250.5c-8.6-0.8-4.8,17.1-16.2,13.5c1.5-17.9,22.1-23.2,39.6-17.1c-3.2-7.6-6.1-15-7.2-25.3
						c-2.3,0.8-1.1,4.8-3.2,5.9c-1.5,0.6-5.5,1.1-5.9-0.8c-0.2-2.3,3.4-0.8,3.6-2.7c1.1-2.3-0.4-4.8,0-8c0.4-2.7,5.5-2.5,7.2-5.1
						c1.3-1.7,1.5-4.8,2.3-6.7c4.8-11.8,17.5-26.3,35.6-24.8c6.1,0.4,10.5,3.2,16.2,5.9c0.6,2.1-1.3,1.7-0.8,3.6
						c2.9,2.7,7.4,4.8,10.7,9.9c3.2,4.6,4,11.2,9.1,12.2c5.3,1.1,7.2-2.9,11.8-4.4c0.6,6.9-5.1,11.8-13.1,11.8
						c-3.2,7.6,1.9,14.5,8.6,15c2.5,0,4-1.9,6.7-0.8c-2.3,7.2-13.3,6.7-17.1,0.8c-1.5-2.3-0.6-4.4-2.7-6.3
						c-6.1,4.4-9.9,10.9-18.1,13.1c-5.3,0.4-11.2-0.6-15.4,0c-2.5,0.6-1.7,4.4-3.2,5.9c-5.7-4,1.5-11.6,7.2-11.2
						c-2.3-3.2-6.3-8.4-5.9-15.8c-1.9-0.8-3.4,1.1-5.5,1.3c-8.8-1.7,7.6-5.5,8.8-5.5c5.9-1.7,16.4-4,20.8,0.8
						c1.3,1.3,4.2,8.2-1.3,8.6c-0.8-1.3,0-4.2-0.8-5.5c-6.7-4.4-10.9,10.1-19,3.2c0,3.8,3.2,10.3,7.2,9.9c1.9-1.5,0-6.9,3.2-7.2
						c2.3,0.2,1.5,4,2.7,5.5c9.1,5.5,17.9-5.3,17.1-13.9c-1.9,0-1.7,2.1-4.4,1.3c1.5-5.5,1.7-12-0.8-16.6c-3.4,1.3-2.3,7.2-8,6.3
						c-0.2-3.2,1.7-4.8,0.4-7.6c-8.2,4-6.7-6.1-10.7-9.1c-2.7,0.4-1.1,4.8-3.6,5.5c-4.2-2.3-6.1-9.1-13.1-7.2
						c-1.3,2.1,1.5,3.6,0,5.9c-4.6,1.1-11.4-0.8-15.4,2.7c0,1.9,4.2,2.1,2.7,4c0,1.9-3.6,0.2-4.4,1.3c-2.3,1.3-3.6,5.5-3.2,8
						c8.2,0.4,4.2,8.4,5.5,13.5c1.9,0.4,3.6-1.3,5.1,0c0.6,4.4-2.5,5.5-4.4,5.5c-4.4-0.4-4-6.7-7.2-7.6c-2.7,4.2,1.3,12.8,2.7,17.5
						c3.4-4,5.5-9.3,12.2-9.9c-1.3,4-4.8,5.7-4.8,10.7c-0.2,5.9,2.9,12,7.6,13.9c2.1-3.2,5.3-7.6,10.3-6.3c1.5,2.7-4.2,3.4-2.3,6.7
						c2.9,0,2.5-1.9,5.1-1.9c4.6,0,5.7,6.9,10.7,7.2c-0.6-4.6-0.2-10.5,6.3-10.3c0,1.7,0,3.4,0,5.1c2.3,0.6,1.3-2.1,2.7-2.3
						c6.5,3.2,12.4-1.1,19.4-0.4c0-2.9-2.1-10.7,3.6-10.3c0,4.8,4.2,7.4,8.6,5.5c-1.9-6.3,3.4-8.2,9.1-8.6c0.6-2.3-2.1-1.3-1.9-3.2
						c2.5-4.2,7.6-5.7,10.7-9.5c4.8-5.7,5.5-13.9,8.6-21.7c-3.6,3.6-6.9,11.8-15,8c3.8-4.8,11.2-5.9,13.1-12.6
						c-2.9-0.8-3.4,1.9-5.9,2.7c-6.1,1.9-14.1-1.1-17.1-5.9c-0.8-1.3-3.4-8,1.3-8.6c-0.2,5.5,4.4,8,8.6,7.6
						c9.9-0.8,8.8-21.9,19.8-12.6c2.1-1.7,1.1-6.5,1.9-9.5c-0.6-1.7-5.9,0.8-7.2-1.3c-0.6-2.9,3.8-3.4,5.5-5.5
						c3.4-4.4,3.8-11.4,6.3-16.6c9.3-18.7,30.5-42.1,52.6-44.6c19.4-2.1,34.1,3.4,43.6,13.1c8.4-5.5,3.8-20.2-1.3-25.7
						c1.3-0.8,4-0.2,4.4-1.9c-0.4-2.5-2.9-2.7-3.6-5.1c0-1.7,2.3-1.5,2.3-3.2c-0.8-3.4-5.9-2.1-8-4c0-2.9,3.4-2.3,4-4.4
						c-2.7-7.4-15.4-8.2-22.1-4c-2.1,1.3-3.4,4.6-6.3,4c-1.3-1.7,1.5-3.8,1.5-6.3c-8.8,2.1,2.3,16.6-3.6,22.5
						c0.4,1.9,2.9-0.6,3.6,1.3c0.8,2.9-3.2,1.1-4,2.3c1.3,2.3,7.2,3.6,9.5,2.7c5.5-1.9,1.9-8.8,5.5-12.6c2.9-0.6,3.6,1.1,5.9,1.3
						c1.3-4.6-4-8.4-8.6-7.2c-1.9,1.1,0.4,4.2-3.2,5.9c-5.5,1.3-6.3-4.2-4.4-7.2c5.5-8.6,21.1,0,19.8,10.3c-0.4,3.2-0.4,5.5-4,9.1
						c-13.9,10.9-36.2-1.3-29.7-20.2c3.6-10.7,17.7-15.8,30.1-13.1c10.5,2.3,17.5,11.6,22.1,20.6c3.4,13.3,0.6,28.8-5.9,36.4
						c2.3,4.4,4.8,7.6,8.4,12c2.1,1.3,3.4,1.7,5.7,1.9c1.3-3.2,1.5-10.1,1.1-13.5c-4.6,0-6.5,0.6-9.3-2.3c0.6-1.3,2.3-1.5,3.6-2.3
						c10.7-27.2-3.4-59.2-28.8-60.2c-0.2-6.9,12.6-6.9,15-2.3c2.3-0.8,5.5-1.9,9.1-0.8c3.8,1.9,4,7.4,6.3,10.7
						c1.1-5.5-0.8-12.6-4-17.1c-1.5-1.9-4.4-2.3-3.6-5.5c5.3-1.5,10.3,8.2,14.5,11.6c2.9-3.4,3.2-4.8,4.2-6.3c3.2-4,4.8-6.1,9.5-5.7
						c0.2,3.4-3.4,4.6-4.8,6.9c-2.5,3.8-3.2,7.6-2.7,13.3c3.8-4,5.9-11.6,15-9.1c2.7-1.7,4-5.3,10.3-4c3.8,0.8,9.9,4.8,9.5,7.6
						c-5.1-1.1-14.3-0.2-20.2,5.1c-8.2,7.4-18.1,20.4-18.1,34.7c0.2,7.6,2.7,15.2,5.9,21.1c0.8,0.6,2.5,0.4,3.2,1.3
						c-1.5,2.9-5.7,2.9-9.7,2.5c-1.7,2.5-0.6,10.7-0.2,14.1c7.6-0.6,10.1-11.8,15.6-15.4c-3.4-6.7-7.6-13.7-8-22.1
						c-0.8-16.2,9.9-32.2,24.4-34.7c14.1-2.3,28.2,5.3,29.7,16.6c2.7,20.8-25.3,27-31.6,9.5c-0.6-2.7-0.8-4.4,0-7.2
						c1.1-2.9,3.2-6.3,6.7-7.2c6.7-1.5,11.2,7.6,5.5,8c-3.2,0.4-2.3-3.4-5.5-3.2c-2.9,0.2-3.6,1.7-4,6.7c2.3,0.4,1.7-2.3,4-1.9
						c5.7,1.5,2.9,10.7,9.1,11.8c2.1,0.4,5.1-0.8,7.2-2.3c-1.1-1.5-4.4,1.5-5.1-0.8c-0.6-2.5,1.9-1.7,2.3-3.2
						c-3.6-6.9,4.8-15.4-1.1-19c-2.1,0.2,0,5.3-2.1,5.5c-3.6-1.3-2.9-4.6-6.3-6.7c-6.3-3.8-16.2-0.6-21.3,3.2
						c1.5,3.4,10.5,2.7,7.6,6.7c-4,0-8.2-2.3-10.3,0.8c-0.2,1.9,2.3,0.8,2.7,1.9c-0.4,3.4-5.1,4.4-4,7.6c2.1,1.5,4.8-2.5,7.2-0.8
						c-1.1,1.7-2.1,2.1-4,4.4c-5.1,4.8-5.9,17.7-0.4,23c8-3.4,15.4-9.3,25.3-10.3c14.5-1.5,27.2,2.1,37.9,6.7
						c22.5,9.7,37.7,28.8,45.1,52.6c1.9,1.7,5.5,1.5,7.2,3.2c-0.2,4-6.9,1.7-9.9,1.9c0.2,3.8,2.3,11.4,3.2,14.5
						c2.7-2.3,3.2-5.1,6.1-5.7c5.9-1.3,7.6,2.7,8.4,8.6c2.3,5.1,3.8,6.7,8,6.7c5.3,0,0.8-5.5,6.5-6.9c4.4,1.1,3.6,4,1.9,5.7
						c-8.6,9.1-17.5,8.2-25.3,3.4c0.2,5.1,6.9,7.4,13.1,8c-2.3,6.5-10.7,0.6-13.9-0.8c3.6,10.3,8.6,23,19.8,27
						c-0.6,2.1-2.5,1.7-0.8,4c4.2,0.8,11.4,0,13.5,4c0.6,2.3-1.7,1.9-1.3,4c3.4,3.4,8.8-0.4,8.6-5.1c2.7,2.7,0.6,6.9-0.4,10.3
						c1.1,6.5,16.8,15,23.8,3.2c1.1-0.4-0.2-3.6,0.8-4c5.9,0.8,3.4,9.9,0.4,12.2c5.7,1.7,21.7-1.9,23.4-9.1c0.2-1.3,0-3.2-0.8-5.3
						c5.1-0.2,7.2,2.3,9.5,5.1c5.1-1.7,6.7-9.1,5.5-15.8c-0.4-2.1-4.2-2.5-2.7-5.5c5.7-1.1,7.8,5.1,10.3,8.6
						c2.1-3.2,4.4-15.4,2.3-18.7c-2.3,1.5-3.2,9.1-7.2,8.8c-1.9-0.2-5.1-1.5-3.6-5.1c2.1-1.7,3.2,0.8,4.4,1.3
						c1.5-3.4-5.9-12.2,3.6-12.2c3.4-6.9-2.3-14.1-9.1-15.4c-0.6-0.6,0.2-1.5-0.4-3.6c-3.6-5.9-10.7,0.2-15.4-0.8
						c-2.5-0.6-1.7-2.3-4-3.6c-3.8,0-1.7,5.7-5.5,5.9c-2.5,0.2-1.3-3.6-2.7-4.4c-5.7-0.8-2.7,6.9-5.5,9.9c-1.3,0.6-3.2,0.6-4.4,0.8
						c-3.6,0.2,1.5,2.1,0.8,4.4c-6.7,3.2-6.1-6.9-6.7-12.2c-3.6,1.3-5.5,5.3-5.9,9.1c-0.6,5.1,2.3,8.6,2.7,13.1
						c-1.9,1.5-2.7-1.9-5.5-1.3c-2.9,13.5,16.4,29.5,26.1,15.8c2.5,0,1.3,4,3.6,4c3.4-0.8,3.8-8.2,2.9-11.8c-9.7,5.5-9.3-6.3-16-5.3
						c-1.9,0.4-0.6,7.2-3.8,6.3c-5.7-7.2,5.7-16.8,13.1-13.5c2.5,1.1,3.2,4.4,5.9,2.3c0.8-1.9,0.4-6.9,4.4-9.9
						c5.1-3.8,18.1-0.2,13.9,5.5c-2.1,1.3-5.9-5.1-7.2-1.9c1.1,6.9,4,15-7.2,15.4c2.3,5.7,0,11.6-2.7,15c0.4,1.9,3.2,1.3,4,2.7
						c2.9,3.4,1.3,9.9-3.6,9.5c-0.4-1.9,0.8-2.5,0.4-4.4c-2.7-4.6-8.2-1.7-12.6-1.9c-11.8-0.4-19.2-8-24.4-16.2
						c-2.7,0.6-3.2,3.4-6.5,5.5c-3.4,1.9-11.4,4.6-12-0.8c9.5,0.8,13.7-6.5,16.2-13.9c-3.2-1.3-6.9,2.1-11.2,1.3
						c-3.8-0.6-9.5-6.9-4.8-11.8c2.3-0.4,0.8,3.2,2.3,5.3c8.4,9.1,15-10.5,21.1-17.3c3.4-3.8,6.1-6.5,10.3-8
						c2.3-0.8-0.6-3.6,0.8-4.4c17.3-7.4,31.8-1.5,42.3,10.3c5.7,6.3,8.4,12.8,12.6,19.4c2.3,0,2.3-2.5,5.5-1.9
						c3.4,1.5,0.6,7.2,1.9,9.9c1.3,1.3,1.9-1.1,4-0.4c2.3,7.6-8.8,3.8-9.1-0.8c-3.6,2.7-1.9,8.4-2.3,12.6
						c-0.8,8.2-5.5,13.9-8.6,19.4c6.1-0.6,12.6-3.4,21.7-2.7c10.7,0.8,24,7.8,20.2,17.5c-3.8,4.2-6.3-10.3-15-9.9
						c-2.7,0.6,4.4,8,0,9.5c-6.5,0.6-10.3-16.4-25.3-10.7c1.5,2.9,7.8,6.5,4,10.3c-2.3-2.3-3.2-4.2-5.5-5.5
						c-10.3-5.7-24.2,7.2-39.6,6.9c-40-0.4-60.2-27.2-72-59.8c-1.7,7.8-4.8,17.1-7.8,23.8c1.1,1.3,4,0.2,5.9,1.5
						c7.8,5.9-5.9,16.8,3.2,16.6c1.5,0,1.9-0.6,2.5-1.7c-3.2-1.7-4.4-7.6,0.6-8.2c2.3-0.2,5.5,2.7,5.5,5.5c0,3.8-5.3,8.4-10.3,8
						c-6.1-0.4-9.5-7.6-12-12.2c-2.9,0.6-5.1,4.4-7.4,6.7c-11.4,12.2-33.1,20.4-58.1,16.6c-14.1-2.1-24-11.8-30.5-22.5
						c-2.9,1.9-3.4,4-6.3,4.4c-7.4,1.5-10.9-6.5-15-9.9c-5.9,4-14.1,15.6-21.1,6.7c-7.4,10.1-15.6,19-30.1,21.1
						c-29.9,4.4-49.9-10.7-62.5-26.1c-2.9,1.7-1.3,5.1-2.7,8c-3.8,8-21.5,10.5-18.5-3.2c2.5-2.7,7.8-1.9,9.1,1.3
						c-0.4,2.5-3.2,2.7-5.1,4c0.6,1.9,3.6,0.4,5.1,0.4c1.5-4.2,0-7.2,0-12.6c1.3-2.7,4.6-3.6,7.2-5.1c-3.2-6.1-5.9-12.8-7.2-20.6
						c-6.3,20-13.5,37.1-28.8,47.2c-14.3,9.5-41.3,12.8-62.1,5.9c-3.8-1.3-7.6-4-11.2-4.4c-7.4-1.1-8.2,4.2-13.1,4.4
						c-0.8-4.6,3.2-4.4,3.2-8c-4.8-2.3-12.2-0.6-16.2,4c-2.1,2.3-1.9,5.9-5.5,5.5C32.1,260.6,38.2,253.2,39.4,250.5 M175.5,204.6
						c-0.4,7.6,2.5,15.4,6.3,20.2c4.6-6.1,10.5,0.2,12.6,4.4c3.6,0,6.9,0,7.2-3.2c-1.3-1.1-4.8,0.4-4.8-1.9c0.4-9.1,9.5-4,8,3.2
						c-1.3,6.3-10.1,6.9-16.6,6.3c3.2,8,15.6,10.5,24.2,9.1c1.7,2.7-2.1,3.2-1.3,6.3c5.1,1.3,8.4-2.5,13.1-3.2
						c1.5,2.3-0.8,4.2-0.4,6.7c5.5,0.4,6.7-5.9,12.2-4c0,2.5-1.7,4-0.4,6.3c5.1-1.7,5.3-10.5,2.7-15c5.9-2.3,6.7,4,9.5,6.3
						c3.4-1.1,5.7-2.1,8-0.8c3.8-1.7,4.8-6.3,10.7-5.9c1.7,0,0,3.4,1.9,3.2c3.6-5.7-2.5-8.4-3.6-12.2c4.4-1.7,6.5,2.3,10.7,2.3
						c0.8-7.6,1.3-18.3-3.6-21.7c-2.5,2.5-4,6.1-9.1,6.3c-1.1,1.5-0.2,5.3-3.2,5.1c-2.9-1.9-0.2-5.3,0-8c-8.6-2.7-12.4,2.3-18.1,5.1
						c-3.8-2.7,1.3-6.5,2.7-8.6c-9.7-3.2-16-9.9-18.5-20.2c-3.8,2.5-6.5,9.9-4.8,15c1.1,3.4,5.1,2.5,4.8,6.3
						c-7.2,4.2-11.4-6.9-9.1-15.4c-4.8,2.5-5.3,15-0.4,18.5c2.5,1.9,4.8,0.4,7.6,2.3c-1.3,5.1-8.2,2.3-10.7,0.4
						c-3.4-2.5-2.7-6.9-4.8-9.5c-3.6,10.7,2.5,22.7,12.6,22.5c5.5,0,9.9-6.9,17.5-8c6.9-1.1,14.1,0,16.2,5.9
						c1.1,2.7,1.5,7.4-3.2,7.6c0.2-2.3,0-4.2-0.4-5.9c-8.6-6.3-15,5.3-25.7,5.5c-11.2,0.2-22.1-9.9-22.1-21.7c0-4.6,2.1-10.5,4-13.9
						c3.8-6.7,11.4-11.6,18.1-15c0.6-13.3,13.3-14.5,17.1-24.2c0-1.9-1.3-4.4,0.8-5.1c4,0.8,5.1,4.8,3.6,8.6
						c7.8-0.6,15,1.5,18.5,6.7c5.9,8.4-2.9,18.3-12.2,13.5c-3.2-1.7-6.3-9.7,0-9.1c2.1,0.4,1.1,4.2,2.3,5.5c2.7,1.1,4.6-0.4,6.3-1.9
						c2.5-9.7-7.8-12.6-15.8-11.8c1.3,2.3,7.8,2.9,4.4,6.7c-8.8-5.1-19.8-0.6-21.1,9.5c20.8-5.3,38.1,8.8,46.3,23.4
						c6.7-2.9,13.5-8,14.7-15c-3.6,1.9-11.2,6.3-15.8,2.7c6.1-4.6,9.5-12.2,19.8-12.6c0.2-1.1,0.6-2.1,0.4-3.6
						c-4.2,0.4-9.5,4.8-13.9,5.9c-1.7,0.4-5.9,1.5-6.3-1.9c0.6-2.1,4.2-0.8,5.9-1.9c5.5-3.6,6.3-11.6,15-12.2c0.4-1.3,0.8-4.2,0-5.5
						c-3.4,1.3-8.4,4.8-12.2,2.7c-0.2-4,4-3.2,6.3-5.1c6.3-5.1,10.3-21.5,0.4-24.2c3.8,14.7-5.7,26.1-17.5,28
						c-12,1.7-22.5-5.3-20.2-17.1c1.5-7.6,9.9-13.7,18.5-10.3c5.5,2.1,10.1,14.3,2.3,13.5c-4.8-1.9,1.3-6.1-0.4-8.6
						c-2.3-1.1-2.9,3.6-5.1,3.6c-2.7,0.2-4.8-3.4-7.2-3.2c-6.5,0.8-6.7,15.8,1.9,17.1c-0.4-12.2,9.5-0.8,15.8-1.3
						c6.3-0.6,9.5-9.7,9.5-14.3c0-6.9-5.5-18.7-10.7-20.6c-1.7,2.1-9.9,4.8-12.2,0.8c-0.2-3.8,5.9-1.9,6.3-5.1
						c-5.9-3.4-16.4-3.4-22.5-0.4c-3.6,1.7-5.5,6.1-9.1,5.1c-0.8-1.9,2.3-3.6,0-4c-4,2.5-6.5,11.4-1.3,14.3c1.9,0.4,3.6-1.5,5.1,0
						c0,3.6-4.8,4.2-6.7,4c-5.3-0.6-9.1-9.1-8-15.8c1.5-4.2,6.3-5.1,7.6-9.5c-6.1,0-7.4,5.1-12.2,6.3c-2.9,3.4-1.5,11.2-5.1,13.9
						c-1.3,0-2.3,0-3.6,0c-1.1,1.5,0,5.1-2.3,5.5c-3.6-0.4-2.7-5.7-7.6-3.6c-0.8-1.3,0.2-4-1.9-4c-4.2,6.3,2.1,14.3,4,18.1
						c-1.1,1.7-4.4-1.3-4.4,0.8c0.2,5.3,9.1,1.9,10.7,5.9c-1.3,3.8-6.1,2.3-9.5,1.9c1.5,4.6,11.6,2.3,10.7,7.6
						c-0.4,3.2-5.1,2.9-9.5,2.3c4.2,6.3,18.7,2.7,19.4-4.4c0.2-2.5-1.9-3.8-1.3-7.2c2.9-5.5,6.9,0.6,8.2,3.6
						c3.6-7.8-4.2-15.4-12.2-11.8c-1.3,2.3-0.2,5.1-2.7,5.5c-5.7,0.6-1.3-9.1,3.6-10.3c2.5-0.6,4,0.4,7.6,0
						c17.7,9.5,2.9,34.5-15.8,31.2c1.5,3.8,3.6,6.9,2.7,13.1c-2.5,3.2-5.9,6.1-10.7,5.9c-2.9-0.2-5.3-3.2-8-1.9
						c-0.2,1.3,0.6,3.8-0.4,4.4c-3.4,0.6-2.5-3.2-2.7-5.9c2.5-6.9,10.7-3.6,17.1-3.6c5.5-7.2-6.7-13.5-9.5-16.2
						c-5.5-5.5-7.2-15.4-7.6-24.8c-2.1,1.1-2.3,3.8-2.7,5.9c-1.1,9.3,4,16.2,3.2,20.6c-5.9-2.1-4.4-12.8-9.1-15.8
						c-1.3,5.1-1.7,10.9,0,15.4c1.3,3.4,4.8,4.4,4.4,7.6c-5.3,0.6-5.3-4-9.1-5.1c-0.8,3.6-2.9,8.4-1.9,12.6c2.3-0.4,2.9-2.1,5.9-1.3
						c11.8,2.7-10.7,25.5,2.3,27.4c1.5-1.7,0.4-5.9,4.4-5.1c4,3.6-1.9,8.4-5.9,8C179,215.3,177.1,207.5,175.5,204.6z M229.4,188.4
						c-0.2,10.1,6.7,16.8,15.4,19.8c-0.2-1.5-0.6-2.5-0.4-4.4c0.8-1.5,3.8-3.8,5.5-1.9c0.6,2.1-1.9,1.1-1.3,3.2
						c1.9,3.2,4,8.2,9.5,6.3c1.3-0.6-1.3-3.8,0.8-4c3.2,1.7,8.6,3.8,12.6,1.9c-0.2-6.7-8.4-5.5-11.2-9.5c-1.9,0-2.7,0.8-4.4,0.8
						c-0.8,0.8,0,3.6-1.3,4c-1.9,0.2-2.5-1.3-2.7-2.3c-1.3-4.2,3.2-6.7,4-9.5c-5.7-2.9-8.4,4.2-13.5,5.1c-1.7-0.4-0.2-3.8-2.3-3.6
						c-2.7,2.1,0.2,5.7-0.4,7.6c-3.4-0.2-4.4-3.8-4.4-5.9c0-4,4-5.9,4.8-8.6C236.3,186.1,232.3,187.5,229.4,188.4z M277.2,210.3
						c0.8,5.1,3.6,13.9,1.9,21.7c3.2-2.5,12.8-1.3,9.1,4c-4,0.8-3.4-3.4-6.7-1.9c-2.5,6.5,4.8,7.2,8.6,4.4
						c3.8-2.7,5.9-10.5,5.9-14.3c-3.6,1.9-12.8,7.6-13.5-1.9c7.8,2.5,14.1-3.4,13.5-10.3c-2.7,3.2-8.8,7.2-13.5,3.2
						c-0.8-1.7-0.2-5.3-0.4-7.6C279.9,208.4,277.8,208.6,277.2,210.3z M283.1,207.3c0.8,1.3,1.7,2.5,1.9,4.4
						c9.3,0.8,11.4-11.8,10.7-20.6c-3.2,2.3-2.7,6.3-5.1,9.1C288.3,202.7,284.5,204,283.1,207.3z M297.4,64.4
						c-4,3.2-3.6,16.4,0,18.1C300.1,81.6,302.2,67.9,297.4,64.4z M299.7,163.5c-1.1,1.3-0.2,3.8,0,5.5c6.1,1.3,8.6,6.3,11.6,10.7
						c1.9,1.9,7.4,0.2,8.6,2.7c-5.3,5.3-14.5-1.9-20.2-3.2c-0.4,4.8,6.3,3.8,9.9,5.9c3.6,1.9,4.4,5.9,7.2,8c1.5,0.8,5.7,0.2,4,2.7
						c-6.5,2.5-14.1-1.5-17.5-5.1c1.9,5.9,7.2,12.4,13.5,15.4c0.2,0,0.6,0,0.8,0c6.9-16,24.4-26.7,47.2-22.5
						c-0.2-10.3-12.8-13.1-23.6-10.3c2.3-4,4-4.6,4.6-5.7c-8.2-3.4-21.7,1.9-16.4,12.8c1.9,3.4,5.7,3.2,7.6,1.3
						c2.1-4-0.6-9.7,3.4-7.2c7.4,9.7-14.7,17.5-16.6,5.5c-1.7-10.9,13.5-19.2,24.8-16.2c0.4-2.9,2.5-6.1,5.3-7.2
						c-2.9,19.4,14.3,13.9,15.4,28c4,0.6,9.3,3.6,12,6.1c-0.2-0.2-0.2-0.4-0.4-0.6c15,15,6.9,42.3-13.1,44.9
						c-12.2,1.7-16.2-11.8-24.4-7.6c-2.5,2.1,0.4,8.2-2.7,7.2c-4.8-7.6,1.5-13.1,10.3-12.6c6.7,0.4,12.4,6.9,19,7.2
						c15.4,0.6,20-21.5,11.8-32c0,4.4,0.8,8.2,0.4,13.1c-0.6,2.7-2.3,5.9-6.3,7.2c-3.2,1.1-9.1,1.3-10.3-2.3c2.3-1.9,5.5,0,8.6-1.3
						c6.7-1.1,6.1-20.6-1.5-24.2c3.4,5.3,6.7,21.7-3.2,21.1c-2.5-1.7,3.2-2.3,3.2-5.7c0-5.3-1.5-9.9-3.8-12.8
						c-2.5,8.6-6.5,15.8-13.9,19.4c-1.5,0.8-3.2,1.3-4.4,2.3c2.1,1.1,3.6,1.9,4,5.5c-2.7-1.3-4.2-2.1-8.8-2.9
						c-6.5-1.7-8.2-1.5-15-1.3c0.6,2.1,0.6,2.9,0.6,6.5c-2.3-2.7-3.8-4.2-8.4-7.2c-1.3-1.3-1.5-0.8-3.4-2.5
						c-2.7,5.1-1.3,12.4-0.4,18.5c3.4-0.6,9.3-5.1,11.8-0.8c-0.2,2.7-5.5,1.7-4,5.1c2.7,0.8,5.3,4,5.5,8.6c2.1,0.4,2.1-1.1,4-0.8
						c4.2,1.9,0,12.4,6.7,11.8c-1.1-5.5-1.7-15.4,5.9-15.8c2.5,2.7-2.3,9.5,2.3,10.7c2.3,1.5,1.9-3.2,5.1-2.3
						c1.7,3.8,2.1,8.6,7.2,9.1c-0.2-2.5-2.7-2.7-2.3-5.9c7.4-4.4,18.3,8.2,27.4,1.9c-0.6-4.2-8.6-2.9-7.6-7.6
						c1.3-5.9,8.4,0.6,9.5,0.8c6.3,1.1,18.3-6.1,19.4-9.9c-10.1,3.8-24.4,1.5-23.8-8c0.4-5.1,9.3-8,9.1-2.3c0,2.9-5.1,1.1-4.8,4.4
						c4.2,9.9,9.3-5.9,15.8-7.2c7.4-1.5,6.1,3.6,10.7,5.1c3.4-7.6,7.6-16.8,7.6-26.1c-3.2,6.5-6.7,15.8-15.4,13.5
						c-2.3-1.3-2.3-2.7-1.9-5.9c0.8-1.3,1.5-1.9,2.7-1.7c2.5,0.4,1.1,3.2,2.9,3.2c9.3-3.8-1.9-13.9-1.3-20c0.4-3.8,4.6-6.9,10.3-4.4
						c0.8-4.4-0.8-9.7-1.3-14.3c-3.2,1.5-2.7,6.5-7.6,6.3c0-4.8,4.4-11.2,1.9-17.5c-4.2,3.2-2.5,11.8-9.1,12.6
						c3.6-15.8,4.4-38.1-8-45.1c0,4.4,3.6,9.3,5.5,13.5c2.3,5.9,0.8,12.4-0.8,16.6c-4.6,11.6-24.4,13.7-18.5,28
						c4.6,4,9.3-2.9,15.8-3.2c4.6-0.2,9.3,5.7,5.9,9.9c-2.9,1.3-0.6-3.8-3.6-5.1c-5.1-2.3-10.3,1.7-16.2,4c-1.7,0.6-4.4-2.1-5.7-3.6
						c-2.1-5.5-0.4-11.6,1.7-15c-12.8,0.8-25.3-7.4-22.5-21.7c1.1-4.8,5.7-10.3,10.7-10.7c5.3-0.4,12.6,5.5,6.7,7.6
						c-2.9,0.4-2.9-3.2-5.1-3.8c-4.2-1.1-7.4,1.9-7.6,6.1c7.4-1.5,4.4,4.4,4.4,9.1c0,9.5,11.8,13.3,19.4,7.6c-3.4,0-9.3,0-9.1-4.4
						c1.3-3.4,8.4,3.2,9.5-4.4c-3.4-1.1-9.3,0.6-8.6-4.4c8.2,3.2,17.5-1.1,16.6-8.6c-2.5,0-2.7,3.4-5.5,1.9
						c-0.4-4.4,2.1-11.8,0.4-17.5c-1.9,1.1-2.1,3.6-5.5,3.2c-0.8,6.3-6.5,2.5-7.6-0.8c-1.9,0-2.7,0.8-4.8,0.4
						c-2.3-2.5-0.6-5.7-1.3-8.6c-1.9-7.6-12-11.4-19-12.2c2.9,4,8.8,5.9,10.3,11.2c2.7,9.5-10.1,20.2-15.4,12.2
						c1.3-2.7,2.9-0.4,5.1-1.3c4.4-2.3,5.9-12.4-0.4-13.5c-0.8,1.9,0,5.5-2.7,5.5c-3.4-6.9-17.5-12.6-25.7-7.6
						c2.7,1.7,8.6,0.4,9.5,4c-2.7,5.7-13.3,2.7-15.4-1.3c-4,3.2-11.4,10.5-12.2,19c-0.8,9.3,3.4,17.5,11.2,18.5
						c3.8-2.1,14.1-10.3,15.8-0.8c4.4-0.6,6.3-8.8,3.6-11.8c-2.9-2.3-5.3,0.6-9.1-0.4c-1.7-0.8-2.5-2.5-2.3-5.5
						c-5.7,0.6-1.3,7.6-4.4,9.1c-8.2,1.5-2.9-12.4,3.8-13.5c9.1-1.5,16.4,6.1,17.5,11.4c2.1,10.9-10.3,18.7-23,16.6
						c-10.7-1.9-19.2-12.4-15.8-25.3c-8.8,3.6-3.4,20.6,1.5,24.2c1.9,1.5,5.7,0.8,6.3,3.6C307.7,168,302.9,164.4,299.7,163.5z
						 M300.1,212.2c-1.5,6.5,7.4,13.1,12.2,8c1.1-0.4,1.3,0.4,1.9,0.4c0,0.4,0,1.1,0,1.9c-1.9,6.9-8.8,3.2-13.1,0.8
						c-1.1,8,4.4,17.1,12.2,15c1.7-0.8,0.8-2.5,0-4c-1.5-1.5-1.7,1.5-4.4,0.4c-0.4-0.2-0.8-0.8-0.8-1.3c-1.1-5.9,6.7-3.6,9.1-1.3
						c-1.3-2.7-2.1-9.3-2.3-11.2l0,0c0.4-3.8,1.3-7.2,1.3-11.2c-8-4-12-11.8-17.1-18.5c0,9.7,2.5,16.6,9.1,19.8
						c2.1,1.1,3.2-1.9,4.4-0.4C312.1,217.2,303.5,213.2,300.1,212.2z M331.7,199.1c-3.8-2.1-11.4,4.4-10.3,10.3
						c2.9,2.7,9.5-0.4,10.7-3.4c0.4,1.5-0.2,4.6-0.6,6.5c4,0,8.2,0.8,10.9-1.1c2.9-2.1,5.3-6.3,6.7-9.1c1.1,1.9,0.6,4.2,0.4,7.6
						c10.3-2.3,16.6-10.9,16.2-22.5c-3.8-1.7-6.5-2.3-11.2-1.9c0,2.5,3.8,3.2,5.1,6.3c1.3,3.6,1.5,9.9-3.6,9.9
						c0.4-4.2,0.6-8.8-3.6-9.5c0.8,3.6,1.7,6.9-1.3,7.2c-2.7,0.2-8.8-12.4-13.5-6.3c3.8,1.5,6.5,6.5,3.2,10.3
						C338.2,202.1,334.9,200,331.7,199.1z"/>
				</g>
			</g>
		</g>
	</g>
</g>
</svg>
