<?xml version="1.0" encoding="utf-8"?>
<!-- Generator: Adobe Illustrator 20.1.0, SVG Export Plug-In . SVG Version: 6.00 Build 0)  -->
<svg version="1.1" id="Layer_1" xmlns="http://www.w3.org/2000/svg" xmlns:xlink="http://www.w3.org/1999/xlink" x="0px" y="0px"
	 viewBox="0 0 417 298" style="enable-background:new 0 0 417 298;" xml:space="preserve">
<style type="text/css">
	.st0{fill:#681E44;}
	.st1{clip-path:url(#SVGID_2_);fill:#EC208B;}
	.st2{clip-path:url(#SVGID_4_);fill:#EC208B;}
</style>
<rect x="0" class="st0" width="417" height="298"/>
<g>
	<g>
		<g>
			<g>
				<g>
					<defs>
						<rect id="SVGID_1_" x="3.3" y="61.3" width="205.3" height="175.3"/>
					</defs>
					<clipPath id="SVGID_2_">
						<use xlink:href="#SVGID_1_"  style="overflow:visible;"/>
					</clipPath>
					<path class="st1" d="M389,219.8c6-0.6,3.4,11.9,11.3,9.4c-1-12.5-15.4-16.2-27.6-11.9c2.2-5.3,4.3-10.4,5-17.6
						c1.6,0.6,0.7,3.4,2.2,4.1c1,0.4,3.8,0.7,4.1-0.6c0.1-1.6-2.4-0.6-2.5-1.9c-0.7-1.6,0.3-3.4,0-5.6c-0.3-1.9-3.8-1.8-5-3.5
						c-0.9-1.2-1-3.4-1.6-4.7c-3.2-8.2-12.2-18.4-24.8-17.4c-4.3,0.4-7.4,2.2-11.3,4.1c-0.4,1.5,0.9,1.2,0.6,2.5
						c-2.1,1.9-5.1,3.4-7.5,6.9c-2.2,3.2-2.8,7.8-6.3,8.5c-3.7,0.7-5-2.1-8.1-3.1c-0.4,4.9,3.5,8.2,9.1,8.2c2.2,5.3-1.3,10.1-6,10.4
						c-1.8,0-2.8-1.3-4.7-0.6c1.6,5,9.3,4.7,11.9,0.6c1-1.6,0.4-3.1,1.9-4.4c4.3,3.1,6.9,7.6,12.6,9.1c3.7,0.3,7.8-0.4,10.7,0
						c1.8,0.4,1.2,3.1,2.2,4.1c4-2.8-1-8.1-5-7.8c1.6-2.2,4.4-5.9,4.1-11c1.3-0.6,2.4,0.7,3.8,0.9c6.2-1.2-17.6-6.6-20.7-3.1
						c-0.9,0.9-2.9,5.7,0.9,6c0.6-0.9,0-2.9,0.6-3.8c4.7-3.1,7.6,7.1,13.2,2.2c0,2.6-2.2,7.2-5,6.9c-1.3-1,0-4.9-2.2-5
						c-1.6,0.1-1,2.8-1.9,3.8c-6.3,3.8-12.5-3.7-11.9-9.7c1.3,0,1.2,1.5,3.1,0.9c-1-3.8-1.2-8.4,0.6-11.6c2.4,0.9,1.6,5,5.6,4.4
						c0.1-2.2-1.2-3.4-0.3-5.3c5.7,2.8,4.7-4.3,7.5-6.3c1.9,0.3,0.7,3.4,2.5,3.8c2.9-1.6,4.3-6.3,9.1-5c0.9,1.5-1,2.5,0,4.1
						c3.2,0.7,7.9-0.6,10.7,1.9c0,1.3-2.9,1.5-1.9,2.8c0,1.3,2.5,0.1,3.1,0.9c1.6,0.9,2.5,3.8,2.2,5.6c-5.7,0.3-2.9,5.9-3.8,9.4
						c-1.3,0.3-2.5-0.9-3.5,0c-0.4,3.1,1.8,3.8,3.1,3.8c3.1-0.3,2.8-4.7,5-5.3c1.9,2.9-0.9,9-1.9,12.2c-2.4-2.8-3.8-6.5-8.5-6.9
						c0.9,2.8,3.4,4,3.4,7.5c0.1,4.1-2.1,8.4-5.3,9.7c-1.5-2.2-3.7-5.3-7.2-4.4c-1,1.9,2.9,2.4,1.6,4.7c-2.1,0-1.8-1.3-3.5-1.3
						c-3.2,0-4,4.9-7.5,5c0.4-3.2,0.1-7.4-4.4-7.2c0,1.2,0,2.4,0,3.5c-1.6,0.4-0.9-1.5-1.9-1.6c-4.6,2.2-8.7-0.7-13.5-0.3
						c0-2.1,1.5-7.5-2.5-7.2c0,3.4-2.9,5.1-6,3.8c1.3-4.4-2.4-5.7-6.3-6c-0.4-1.6,1.5-0.9,1.3-2.2c-1.8-2.9-5.3-4-7.5-6.6
						c-3.4-4-3.8-9.7-6-15.1c2.5,2.5,5,8.2,10.4,5.6c-2.6-3.4-7.8-4.1-9.1-8.8c2.1-0.6,2.4,1.3,4.1,1.9c4.3,1.3,9.9-0.7,11.9-4.1
						c0.6-0.9,2.4-5.6-0.9-6c0.1,3.8-3.1,5.6-6,5.3c-6.9-0.6-6.2-15.3-13.8-8.8c-1.5-1.2-0.7-4.6-1.3-6.6c0.4-1.2,4.1,0.6,5-0.9
						c0.4-2.1-2.6-2.4-3.8-3.8c-2.4-3.1-2.6-7.9-4.4-11.6c-6.5-13.1-21.3-29.4-36.8-31.2c-13.5-1.5-23.8,2.4-30.4,9.1
						c-5.9-3.8-2.6-14.1,0.9-17.9c-0.9-0.6-2.8-0.1-3.1-1.3c0.3-1.8,2.1-1.9,2.5-3.5c0-1.2-1.5-1-1.6-2.2c0.6-2.4,4.1-1.5,5.6-2.8
						c0-2.1-2.4-1.6-2.8-3.1c1.9-5.1,10.7-5.7,15.4-2.8c1.5,0.9,2.4,3.2,4.4,2.8c0.9-1.2-0.9-2.6-0.9-4.4c6.2,1.5-1.6,11.6,2.5,15.7
						c-0.3,1.3-2.1-0.4-2.5,0.9c-0.6,2.1,2.2,0.7,2.8,1.6c-0.9,1.6-5,2.5-6.6,1.9c-3.8-1.3-1.3-6.2-3.8-8.8
						c-2.1-0.4-2.5,0.7-4.1,0.9c-0.9-3.2,2.8-5.9,6-5c1.3,0.7-0.1,2.9,2.2,4.1c3.8,0.9,4.4-2.9,3.1-5c-3.8-6-14.7,0-13.8,7.2
						c0.3,2.4,0.3,3.8,2.8,6.3c9.7,7.6,25.3-0.9,20.7-14.1c-2.5-7.5-12.4-11-21-9.1c-7.4,1.6-12.2,8.1-15.4,14.4
						c-2.4,9.3-0.6,20.1,4.1,25.4c-1.6,3.1-3.4,5.3-5.9,8.4c-1.5,0.9-2.4,1.2-4,1.3c-0.9-2.2-1-7.1-0.7-9.4c3.2,0,4.6,0.4,6.5-1.6
						c-0.4-0.9-1.6-1-2.5-1.6c-7.5-19,2.4-41.3,20.1-42.2c0.1-4.9-8.8-4.9-10.4-1.6c-1.6-0.6-3.8-1.3-6.3-0.6
						c-2.6,1.3-2.8,5.1-4.4,7.5c-0.7-3.8,0.6-8.8,2.8-11.9c1-1.3,3.1-1.6,2.5-3.8c-3.7-1-7.2,5.7-10.1,8.1c-2.1-2.4-2.2-3.4-2.9-4.4
						c-2.2-2.8-3.4-4.3-6.6-4c-0.1,2.4,2.4,3.2,3.4,5c1.8,2.6,2.2,5.3,1.9,9.3c-2.6-2.8-4.1-8.1-10.4-6.3c-1.9-1.2-2.8-3.7-7.2-2.8
						c-2.6,0.6-6.9,3.4-6.6,5.3c3.5-0.7,10-0.1,14.1,3.5c5.7,5.1,12.6,14.3,12.6,24.3c-0.1,5.3-1.9,10.6-4.1,14.7
						c-0.6,0.4-1.8,0.3-2.2,0.9c1,2.1,4,2.1,6.8,1.8c1.2,1.8,0.4,7.5,0.1,9.9c-5.3-0.4-7.1-8.2-11-10.7c2.4-4.7,5.4-9.6,5.6-15.4
						c0.6-11.5-6.9-22.5-16.9-24.3c-9.9-1.6-19.7,3.7-20.7,11.6c-1.9,14.6,17.8,18.8,22.1,6.6c0.4-1.9,0.6-3.1,0-5
						c-0.7-2.1-2.2-4.4-4.7-5c-4.7-1-7.6,5.3-3.8,5.6c2.2,0.3,1.6-2.4,3.8-2.2c2.1,0.1,2.5,1.2,2.8,4.7c-1.6,0.3-1.2-1.6-2.8-1.3
						c-4,1-2.1,7.5-6.3,8.2c-1.5,0.3-3.5-0.6-5-1.6c0.7-1,3.1,1,3.4-0.6c0.4-1.8-1.3-1.2-1.6-2.2c2.5-4.9-3.4-10.7,0.7-13.2
						c1.5,0.1,0,3.7,1.5,3.8c2.5-0.9,2.1-3.2,4.4-4.7c4.4-2.6,11.3-0.4,14.9,2.2c-1,2.4-7.4,1.9-5.3,4.7c2.8,0,5.7-1.6,7.2,0.6
						c0.3,1.3-1.6,0.6-1.9,1.3c0.3,2.4,3.5,3.1,2.8,5.3c-1.5,1-3.4-1.8-5-0.6c0.7,1.2,1.5,1.5,2.8,3.1c3.5,3.4,4.1,12.4,0.3,16
						c-5.6-2.4-10.7-6.5-17.6-7.2c-10.1-1-19,1.5-26.5,4.7c-15.7,6.8-26.3,20.1-31.5,36.8c-1.3,1.2-3.8,1-5,2.2
						c0.1,2.8,4.9,1.2,6.9,1.3c-0.1,2.6-1.6,7.9-2.2,10.1c-1.9-1.6-2.2-3.5-4.3-4c-4.1-0.9-5.3,1.9-5.9,6c-1.6,3.5-2.6,4.7-5.6,4.7
						c-3.7,0-0.6-3.8-4.6-4.9c-3.1,0.7-2.5,2.8-1.3,4c6,6.3,12.2,5.7,17.6,2.5c-0.1,3.5-5,5.1-9.1,5.6c1.6,4.6,7.5,0.4,9.7-0.6
						c-2.5,7.2-6,16-13.8,18.8c0.4,1.5,1.8,1.2,0.6,2.8c-2.9,0.6-7.9,0-9.4,2.8c-0.4,1.6,1.2,1.3,0.9,2.8c-2.4,2.4-6.2-0.3-6-3.5
						c-1.9,1.9-0.4,4.9,0.3,7.2c-0.7,4.4-11.8,10.4-16.6,2.2c-0.7-0.3,0.1-2.5-0.6-2.8c-4.1,0.6-2.4,6.9-0.3,8.5
						c-4,1.2-15.1-1.3-16.3-6.3c-0.1-0.9,0-2.2,0.6-3.7c-3.5-0.1-5,1.6-6.6,3.5c-3.5-1.2-4.7-6.3-3.8-11c0.3-1.5,2.9-1.8,1.9-3.8
						c-4-0.7-5.4,3.5-7.2,6c-1.5-2.2-3.1-10.7-1.5-13.1c1.6,1,2.2,6.3,5,6.2c1.3-0.1,3.5-1,2.5-3.5c-1.5-1.2-2.2,0.6-3.1,0.9
						c-1-2.4,4.1-8.5-2.5-8.5c-2.4-4.9,1.6-9.9,6.3-10.7c0.4-0.4-0.1-1,0.3-2.5c2.5-4.1,7.5,0.1,10.7-0.6c1.6-0.4,1.2-1.6,2.8-2.5
						c2.6,0,1.2,4,3.8,4.1c1.8,0.1,0.9-2.5,1.9-3.1c4-0.6,1.9,4.9,3.8,6.9c0.9,0.4,2.2,0.3,3.1,0.6c2.5,0.1-1,1.5-0.6,3.1
						c4.7,2.2,4.3-5,4.7-8.5c2.5,0.9,3.8,3.7,4.1,6.3c0.3,3.5-1.6,6-1.9,9.1c1.3,1,1.9-1.3,3.8-0.9c2.1,9.4-11.5,20.6-18.2,11
						c-1.8,0-0.9,2.8-2.5,2.8c-2.4-0.6-2.6-5.7-2.1-8.2c6.8,3.8,6.5-4.4,11.2-3.7c1.3,0.3,0.4,5,2.6,4.4c4-5-4-11.8-9.1-9.4
						c-1.8,0.7-2.2,3.1-4.1,1.6c-0.6-1.3-0.3-4.9-3.1-6.9c-3.5-2.6-12.6-0.1-9.7,3.8c1.5,0.9,4.1-3.5,5-1.3
						c-0.7,4.9-2.8,10.4,5,10.7c-1.6,4,0,8.1,1.9,10.4c-0.3,1.3-2.2,0.9-2.8,1.9c-2.1,2.4-0.9,6.9,2.5,6.6c0.1-1.3-0.6-1.8-0.3-3.1
						c1.9-3.2,5.7-1.2,8.8-1.3c8.2-0.4,13.4-5.6,17.1-11.3c1.9,0.4,2.2,2.4,4.6,3.8c2.4,1.3,7.9,3.2,8.4-0.6
						c-6.6,0.6-9.6-4.6-11.3-9.7c2.2-0.9,4.9,1.5,7.8,0.9c2.6-0.4,6.6-4.9,3.5-8.2c-1.6-0.3-0.6,2.2-1.6,3.5
						c-5.9,6.3-10.4-7.4-14.7-12.1c-2.4-2.6-4.3-4.6-7.2-5.6c-1.6-0.6,0.4-2.5-0.6-3.1c-12.1-5.1-22.2-1-29.6,7.2
						c-4,4.4-5.9,9-8.8,13.5c-1.6,0-1.6-1.8-3.8-1.3c-2.4,1-0.4,5-1.3,6.9c-0.9,0.9-1.5-0.7-2.8-0.3c-1.6,5.3,6.2,2.6,6.3-0.6
						c2.5,1.9,1.3,5.9,1.6,8.8c0.6,5.7,3.8,9.7,6,13.5c-4.1-0.4-8.8-2.4-15.1-1.9c-7.5,0.6-16.8,5.4-14.1,12.2
						c2.6,2.9,4.4-7.2,10.4-6.9c1.9,0.4-3.1,5.6,0,6.6c4.6,0.4,7.2-11.5,17.6-7.5c-1,2.1-5.4,4.6-2.8,7.2c1.6-1.6,2.2-2.9,3.8-4
						c7.2-4,16.9,5,27.6,4.9c28.1-0.3,42.1-19,50.3-41.8c1.2,5.4,3.4,11.9,5.4,16.6c-0.7,0.9-2.8,0.1-4.1,1
						c-5.4,4.1,4.1,11.8-2.2,11.6c-1,0-1.3-0.4-1.8-1.2c2.2-1.2,3.1-5.3-0.4-5.7c-1.6-0.1-3.8,1.9-3.8,3.8c0,2.6,3.7,5.9,7.2,5.6
						c4.3-0.3,6.6-5.4,8.4-8.5c2.1,0.4,3.5,3.1,5.1,4.9c7.9,8.5,23.1,14.3,40.6,11.6c9.9-1.5,16.8-8.2,21.3-15.7
						c2.1,1.3,2.4,2.8,4.4,3.1c5.1,1,7.2-4.7,10.4-6.9c1.9,5,9.9,10.9,14.9,4.7c5.1,7.1,10.9,13.2,21,14.7
						c20.9,3.1,34.8-7.5,43.7-18.2c2.1,1.2,0.9,3.7,1.9,5.6c2.6,5.6,15,7.4,12.9-2.2c-1.8-1.9-5.4-1.3-6.3,0.9
						c0.3,1.8,2.2,1.9,3.5,2.8c-0.4,1.3-2.5,0.4-3.5,0.3c-1-2.9,0-5,0-8.8c-0.9-1.9-3.2-2.5-5-3.5c2.2-4.3,4.1-9,5-14.4
						c4.4,14,9.4,25.9,20.1,32.9c10,6.6,28.8,9,43.4,4.1c2.6-0.9,5.3-2.8,7.8-3.1c5.1-0.7,5.7,2.9,9.1,3.1c0.6-3.2-2.2-3.1-2.2-5.6
						c3.4-1.6,8.5-0.4,11.3,2.8c1.5,1.6,1.3,4.1,3.8,3.8C394.2,226.9,389.9,221.7,389,219.8 M293.7,187.8c0.3,5.3-1.8,10.7-4.4,14.1
						c-3.2-4.3-7.4,0.1-8.8,3.1c-2.5,0-4.9,0-5-2.2c0.9-0.7,3.4,0.3,3.4-1.3c-0.3-6.3-6.6-2.8-5.6,2.2c0.9,4.4,7.1,4.9,11.6,4.4
						c-2.2,5.6-10.9,7.4-16.9,6.3c-1.2,1.9,1.5,2.2,1,4.4c-3.5,0.9-5.9-1.8-9.1-2.2c-1,1.6,0.6,2.9,0.3,4.7
						c-3.8,0.3-4.7-4.1-8.5-2.8c0,1.8,1.2,2.8,0.3,4.4c-3.5-1.2-3.7-7.4-1.9-10.4c-4.1-1.6-4.7,2.8-6.6,4.4c-2.4-0.7-4-1.5-5.6-0.6
						c-2.6-1.2-3.4-4.4-7.5-4.1c-1.2,0,0,2.4-1.3,2.2c-2.5-4,1.8-5.9,2.5-8.5c-3.1-1.2-4.6,1.6-7.5,1.6c-0.6-5.3-0.9-12.8,2.5-15.1
						c1.8,1.8,2.8,4.3,6.3,4.4c0.9,1,0.1,3.7,2.2,3.5c2.1-1.3,0.1-3.7,0-5.6c6-1.9,8.7,1.6,12.6,3.5c2.6-1.9-0.9-4.6-1.9-6
						c6.8-2.2,11.2-6.9,12.9-14.1c2.6,1.8,4.6,6.9,3.4,10.4c-0.7,2.4-3.5,1.8-3.4,4.4c5,2.9,7.9-4.9,6.3-10.7
						c3.4,1.8,3.7,10.4,0.3,12.9c-1.8,1.3-3.4,0.3-5.3,1.6c0.9,3.5,5.7,1.6,7.5,0.3c2.4-1.8,1.9-4.9,3.4-6.6
						c2.5,7.5-1.8,15.9-8.8,15.7c-3.8,0-6.9-4.9-12.2-5.6c-4.9-0.7-9.9,0-11.3,4.1c-0.7,1.9-1,5.1,2.2,5.3c-0.1-1.6,0-2.9,0.3-4.1
						c6-4.4,10.4,3.7,17.9,3.8c7.8,0.1,15.4-6.9,15.4-15.1c0-3.2-1.5-7.4-2.8-9.7c-2.6-4.7-7.9-8.1-12.6-10.4
						c-0.3-9.3-9.3-10.1-11.9-16.9c0-1.3,0.9-3.1-0.6-3.5c-2.8,0.6-3.5,3.4-2.5,6c-5.4-0.4-10.4,1-12.9,4.7
						c-4.1,5.9,2.1,12.8,8.5,9.4c2.2-1.2,4.4-6.8,0-6.3c-1.5,0.3-0.7,2.9-1.6,3.8c-1.9,0.7-3.2-0.3-4.4-1.3c-1.8-6.8,5.4-8.8,11-8.2
						c-0.9,1.6-5.4,2.1-3.1,4.7c6.2-3.5,13.8-0.4,14.7,6.6c-14.6-3.7-26.6,6.2-32.3,16.3c-4.7-2.1-9.4-5.6-10.3-10.4
						c2.5,1.3,7.8,4.4,11,1.9c-4.3-3.2-6.6-8.5-13.8-8.8c-0.1-0.7-0.4-1.5-0.3-2.5c2.9,0.3,6.6,3.4,9.7,4.1c1.2,0.3,4.1,1,4.4-1.3
						c-0.4-1.5-2.9-0.6-4.1-1.3c-3.8-2.5-4.4-8.1-10.4-8.5c-0.3-0.9-0.6-2.9,0-3.8c2.4,0.9,5.9,3.4,8.5,1.9c0.1-2.8-2.8-2.2-4.4-3.5
						c-4.4-3.5-7.2-15-0.3-16.9c-2.6,10.3,4,18.2,12.2,19.6c8.4,1.2,15.7-3.7,14.1-11.9c-1-5.3-6.9-9.6-12.9-7.2
						c-3.8,1.5-7.1,10-1.6,9.4c3.4-1.3-1-4.3,0.3-6c1.6-0.7,2.1,2.5,3.5,2.5c1.9,0.1,3.4-2.4,5-2.2c4.6,0.6,4.7,11-1.3,11.9
						c0.3-8.5-6.6-0.6-11-0.9c-4.3-0.4-6.6-6.8-6.6-10c0-4.9,3.8-13.1,7.5-14.4c1.2,1.5,6.9,3.4,8.5,0.6c0.3-2.6-4.1-1.3-4.4-3.5
						c4.1-2.4,11.5-2.4,15.7-0.3c2.5,1.2,3.8,4.3,6.3,3.5c0.6-1.3-1.6-2.5,0-2.8c2.8,1.8,4.6,7.9,0.9,10c-1.3,0.3-2.5-1-3.4,0
						c0,2.5,3.4,2.9,4.7,2.8c3.7-0.4,6.3-6.3,5.6-11c-1-2.9-4.4-3.5-5.3-6.6c4.3,0,5.1,3.5,8.5,4.4c2.1,2.4,1,7.8,3.5,9.7
						c0.9,0,1.6,0,2.5,0c0.7,1,0,3.5,1.6,3.8c2.5-0.3,1.9-4,5.3-2.5c0.6-0.9-0.1-2.8,1.3-2.8c2.9,4.4-1.5,10-2.8,12.6
						c0.7,1.2,3.1-0.9,3.1,0.6c-0.1,3.7-6.3,1.3-7.5,4.1c0.9,2.6,4.3,1.6,6.6,1.3c-1,3.2-8.1,1.6-7.5,5.3c0.3,2.2,3.7,2.1,6.6,1.6
						c-2.9,4.4-13.1,1.9-13.5-3.1c-0.1-1.8,1.3-2.6,0.9-5c-2.1-3.8-4.9,0.3-5.7,2.5c-2.5-5.4,2.9-10.7,8.5-8.2
						c0.9,1.6,0.1,3.5,1.9,3.8c4,0.4,0.9-6.3-2.5-7.2c-1.8-0.4-2.8,0.3-5.4,0c-12.4,6.6-2.1,24.1,11,21.8c-1,2.6-2.5,4.9-1.9,9.1
						c1.8,2.2,4.1,4.3,7.5,4.1c2.1-0.1,3.7-2.2,5.6-1.3c0.1,0.9-0.4,2.6,0.3,3.1c2.4,0.4,1.8-2.2,1.9-4.1c-1.8-4.9-7.5-2.5-11.9-2.5
						c-3.8-5,4.7-9.4,6.6-11.3c3.8-3.8,5-10.7,5.3-17.4c1.5,0.7,1.8,2.6,1.9,4.1c0.7,6.5-2.8,11.3-2.2,14.4c4.1-1.5,3.1-9,6.3-11
						c0.9,3.5,1.2,7.6,0,10.7c-0.9,2.4-3.4,3.1-3.1,5.3c3.7,0.4,3.7-2.8,6.3-3.5c0.6,2.5,2.1,5.9,1.3,8.8c-1.8-0.4-2.1-1.5-4.1-0.9
						c-8.2,1.9,7.5,17.8-1.6,19.1c-1-1.2-0.3-4.1-3.1-3.5c-2.8,2.5,1.3,5.9,4.1,5.6C291.2,195.4,292.6,190,293.7,187.8z
						 M256.1,176.4c0.1,7.1-4.7,11.8-10.7,13.8c0.1-1,0.4-1.8,0.3-3.1c-0.6-1-2.6-2.6-3.8-1.3c-0.4,1.5,1.3,0.7,0.9,2.2
						c-1.3,2.2-2.8,5.7-6.6,4.4c-0.9-0.4,0.9-2.6-0.6-2.8c-2.2,1.2-6,2.6-8.8,1.3c0.1-4.7,5.9-3.8,7.8-6.6c1.3,0,1.9,0.6,3.1,0.6
						c0.6,0.6,0,2.5,1,2.8c1.3,0.1,1.6-0.9,1.9-1.6c0.9-2.9-2.2-4.7-2.8-6.6c4-2.1,5.9,2.9,9.4,3.5c1.2-0.3,0.1-2.6,1.6-2.5
						c1.9,1.5-0.1,4,0.3,5.3c2.4-0.1,3.1-2.6,3.1-4.1c0-2.8-2.8-4.1-3.5-6C251.2,175,254,176,256.1,176.4z M222.7,191.9
						c-0.6,3.5-2.5,9.7-1.3,15.1c-2.4-1.8-9-0.9-6.3,2.8c2.6,0.6,2.4-2.4,4.7-1.3c1.8,4.6-3.4,5-5.9,3.1c-2.6-1.9-4.1-7.4-4.1-10
						c2.5,1.3,9,5.3,9.4-1.3c-5.4,1.8-9.9-2.4-9.4-7.2c1.9,2.2,6.2,5,9.4,2.2c0.6-1.2,0.1-3.7,0.3-5.3
						C220.8,190.6,222.3,190.7,222.7,191.9z M218.6,189.7c-0.6,0.9-1.2,1.8-1.3,3.1c-6.5,0.6-7.9-8.2-7.5-14.4
						c2.2,1.6,1.9,4.4,3.5,6.3C214.8,186.6,217.6,187.5,218.6,189.7z M208.6,90c2.8,2.2,2.5,11.5,0,12.6
						C206.5,101.9,205.2,92.5,208.6,90z M207,159.2c0.7,0.9,0.1,2.6,0,3.8c-4.3,0.9-6,4.4-8.2,7.5c-1.3,1.3-5.1,0.1-6,1.9
						c3.7,3.7,10.1-1.3,14.1-2.2c0.3,3.4-4.4,2.6-6.9,4.1c-2.4,1.3-3.1,4.1-5,5.6c-1,0.6-4,0.1-2.8,1.9c4.6,1.8,9.9-1,12.2-3.5
						c-1.3,4.1-5,8.7-9.4,10.7c-0.1,0-0.4,0-0.6,0c-4.9-11.2-17.1-18.7-32.9-15.7c0.1-7.2,9-9.1,16.5-7.2c-1.6-2.8-2.8-3.2-3.4-4
						c5.7-2.4,15.1,1.3,11.5,9c-1.3,2.4-4,2.2-5.3,0.9c-1.5-2.8,0.4-6.8-2.4-5c-5.1,6.8,10.4,12.2,11.6,3.8
						c1.2-7.6-9.4-13.4-17.4-11.3c-0.3-2.1-1.8-4.3-3.7-5c2.2,13.5-10,9.7-10.7,19.6c-2.8,0.4-6.5,2.5-8.4,4.3
						c0.1-0.1,0.1-0.3,0.3-0.4c-10.4,10.4-4.9,29.6,9.1,31.3c8.5,1.2,11.3-8.4,17.1-5.3c1.8,1.5-0.3,5.7,1.9,5
						c3.4-5.3-1-9.1-7.2-8.8c-4.7,0.3-8.7,4.9-13.2,5c-10.7,0.4-14-15-8.2-22.3c0,3.1-0.6,5.7-0.3,9.1c0.4,1.9,1.6,4.1,4.4,5
						c2.2,0.7,6.3,0.9,7.2-1.6c-1.6-1.3-3.8,0-6-0.9c-4.7-0.7-4.3-14.4,1-16.9c-2.4,3.7-4.7,15.1,2.2,14.7c1.8-1.2-2.2-1.6-2.4-4
						c0-3.7,1-6.9,2.6-9c1.8,6,4.6,11,9.7,13.5c1,0.6,2.2,0.9,3.1,1.6c-1.5,0.7-2.5,1.3-2.8,3.8c1.9-0.9,2.9-1.5,6.2-2.1
						c4.6-1.2,5.7-1,10.4-0.9c-0.4,1.5-0.4,2.1-0.4,4.6c1.6-1.9,2.6-2.9,5.9-5c0.9-0.9,1-0.6,2.4-1.8c1.9,3.5,0.9,8.7,0.3,12.9
						c-2.4-0.4-6.5-3.5-8.2-0.6c0.1,1.9,3.8,1.2,2.8,3.5c-1.9,0.6-3.7,2.8-3.8,6c-1.5,0.3-1.5-0.7-2.8-0.6c-2.9,1.3,0,8.7-4.7,8.2
						c0.7-3.8,1.2-10.7-4.1-11c-1.8,1.9,1.6,6.6-1.6,7.5c-1.6,1-1.3-2.2-3.5-1.6c-1.2,2.6-1.5,6-5,6.3c0.1-1.8,1.9-1.9,1.6-4.1
						c-5.1-3.1-12.8,5.7-19.1,1.3c0.4-2.9,6-2.1,5.3-5.3c-0.9-4.1-5.9,0.4-6.6,0.6c-4.4,0.7-12.8-4.3-13.5-6.9
						c7.1,2.6,17.1,1,16.6-5.6c-0.3-3.5-6.5-5.6-6.3-1.6c0,2.1,3.5,0.7,3.5,3.1c-2.9,6.9-6.5-4.1-11-5c-5.1-1-4.3,2.5-7.5,3.5
						c-2.4-5.3-5.3-11.8-5.3-18.2c2.2,4.6,4.7,11,10.7,9.4c1.6-1,1.6-1.9,1.3-4.1c-0.6-0.9-1-1.3-1.9-1.2c-1.6,0.3-0.7,2.2-2.1,2.2
						c-6.5-2.6,1.3-9.7,0.9-14c-0.3-2.6-3.2-4.9-7.2-3.1c-0.6-3.1,0.6-6.8,0.9-10c2.2,1,1.9,4.6,5.3,4.4c0-3.4-3.1-7.8-1.3-12.2
						c2.9,2.2,1.8,8.2,6.3,8.8c-2.5-11-3.1-26.6,5.6-31.5c0,3.1-2.5,6.5-3.8,9.4c-1.6,4.1-0.6,8.7,0.6,11.6
						c3.2,8.1,17.1,9.6,12.9,19.6c-3.2,2.8-6.5-2.1-11-2.2c-3.2-0.1-6.5,4-4.1,6.9c2.1,0.9,0.4-2.6,2.5-3.5
						c3.5-1.6,7.2,1.2,11.3,2.8c1.2,0.4,2.9-1.5,4-2.5c1.5-3.8,0.3-8.1-1.2-10.4c9,0.6,17.6-5.1,15.7-15.1c-0.7-3.4-4-7.2-7.5-7.5
						c-3.8-0.3-8.8,3.8-4.7,5.3c2.1,0.3,2.1-2.2,3.5-2.6c2.9-0.7,5.1,1.3,5.3,4.3c-5.1-1-3.1,3.1-3.1,6.3c0,6.6-8.2,9.3-13.5,5.3
						c2.4,0,6.5,0,6.3-3.1c-0.9-2.4-5.9,2.2-6.6-3.1c2.4-0.7,6.5,0.4,6-3.1c-5.7,2.2-12.2-0.7-11.6-6c1.8,0,1.9,2.4,3.8,1.3
						c0.3-3.1-1.6-8.2-0.3-12.2c1.3,0.7,1.5,2.5,3.8,2.2c0.6,4.4,4.6,1.8,5.3-0.6c1.3,0,1.9,0.6,3.4,0.3c1.6-1.8,0.4-4,0.9-6
						c1.3-5.3,8.4-7.9,13.2-8.5c-2.1,2.8-6.2,4.1-7.2,7.8c-1.9,6.6,7.1,14.1,10.7,8.5c-0.9-1.9-2.1-0.3-3.5-0.9
						c-3.1-1.6-4.1-8.7,0.3-9.4c0.6,1.3,0,3.8,1.9,3.8c2.4-4.9,12.2-8.8,17.9-5.3c-1.9,1.2-6,0.3-6.6,2.8c1.9,4,9.3,1.9,10.7-0.9
						c2.8,2.2,7.9,7.4,8.5,13.2c0.6,6.5-2.4,12.2-7.8,12.9c-2.6-1.5-9.7-7.2-11-0.6c-3.1-0.4-4.4-6.2-2.5-8.2
						c2.1-1.6,3.7,0.4,6.3-0.3c1.2-0.6,1.8-1.8,1.6-3.8c4,0.4,0.9,5.3,3.1,6.3c5.9,1,2.2-8.7-2.6-9.4c-6.3-1-11.5,4.3-12.2,7.9
						c-1.5,7.6,7.2,13.1,16,11.6c7.5-1.3,13.4-8.7,11-17.6c6.2,2.5,2.4,14.4-0.9,16.9c-1.3,1-4,0.6-4.4,2.5
						C201.4,162.3,204.8,159.8,207,159.2z M206.7,193.2c1,4.6-5.1,9.1-8.5,5.6c-0.7-0.3-0.9,0.3-1.3,0.3c0,0.3,0,0.7,0,1.3
						c1.3,4.9,6.2,2.2,9.1,0.6c0.7,5.6-3.1,11.9-8.5,10.4c-1.2-0.6-0.4-1.8,0-2.8c1-1,1.2,1,3.1,0.3c0.3-0.1,0.6-0.6,0.6-0.9
						c0.7-4.1-4.7-2.5-6.3-0.9c0.9-1.9,1.5-6.5,1.6-7.8c0,0,0,0-0.1,0c-0.3-2.6-0.9-5-0.9-7.8c5.6-2.8,8.4-8.2,11.9-12.9
						c0,6.8-1.8,11.6-6.3,13.8c-1.5,0.7-2.2-1.3-3.1-0.3C198.3,196.7,204.3,193.9,206.7,193.2z M184.6,184.1
						c2.6-1.5,7.9,3.1,7.2,7.2c-2.1,1.9-6.6-0.3-7.5-2.4c-0.3,1,0.1,3.2,0.4,4.6c-2.8,0-5.7,0.6-7.6-0.7c-2.1-1.5-3.7-4.4-4.7-6.3
						c-0.9,1.3-0.4,2.9-0.3,5.3c-7.2-1.6-11.6-7.6-11.3-15.7c2.6-1.2,4.6-1.6,7.9-1.3c0,1.8-2.6,2.2-3.5,4.4c-0.9,2.5-1,6.9,2.5,6.9
						c-0.3-2.9-0.4-6.2,2.5-6.6c-0.6,2.5-1.2,4.9,0.9,5c1.9,0.1,6.2-8.7,9.4-4.4c-2.6,1-4.6,4.6-2.2,7.2
						C180.1,186.2,182.4,184.7,184.6,184.1z"/>
				</g>
			</g>
		</g>
	</g>
	<g>
		<g>
			<g>
				<g>
					<defs>
						<rect id="SVGID_3_" x="208" y="61.3" width="205.3" height="175.3"/>
					</defs>
					<clipPath id="SVGID_4_">
						<use xlink:href="#SVGID_3_"  style="overflow:visible;"/>
					</clipPath>
					<path class="st2" d="M27.9,219.8c-6-0.6-3.4,11.9-11.3,9.4c1-12.5,15.4-16.2,27.6-11.9c-2.2-5.3-4.3-10.4-5-17.6
						c-1.6,0.6-0.7,3.4-2.2,4.1c-1,0.4-3.8,0.7-4.1-0.6c-0.1-1.6,2.4-0.6,2.5-1.9c0.7-1.6-0.3-3.4,0-5.6c0.3-1.9,3.8-1.8,5-3.5
						c0.9-1.2,1-3.4,1.6-4.7c3.4-8.2,12.2-18.4,24.8-17.4c4.3,0.3,7.4,2.2,11.3,4.1c0.4,1.5-0.9,1.2-0.6,2.5
						c2.1,1.9,5.1,3.4,7.5,6.9c2.2,3.2,2.8,7.8,6.3,8.5c3.7,0.7,5-2.1,8.2-3.1c0.4,4.9-3.5,8.2-9.1,8.2c-2.2,5.3,1.3,10.1,6,10.4
						c1.8,0,2.8-1.3,4.7-0.6c-1.6,5-9.3,4.7-11.9,0.6c-1-1.6-0.4-3.1-1.9-4.4c-4.3,3.1-6.9,7.6-12.6,9.1c-3.7,0.3-7.8-0.4-10.7,0
						c-1.8,0.4-1.2,3.1-2.2,4.1c-4-2.8,1-8.1,5-7.8c-1.6-2.2-4.4-5.9-4.1-11c-1.3-0.6-2.4,0.7-3.8,0.9c-6.2-1.2,5.3-3.8,6.2-3.8
						c4.1-1.2,11.5-2.8,14.6,0.6c0.9,0.9,2.9,5.7-0.9,6c-0.6-0.9,0-2.9-0.6-3.8c-4.7-3.1-7.6,7.1-13.2,2.2c0,2.6,2.2,7.2,5,6.9
						c1.3-1,0-4.9,2.2-5c1.6,0.1,1,2.8,1.9,3.8c6.3,3.8,12.5-3.7,11.9-9.7c-1.3,0-1.2,1.5-3.1,0.9c1-3.8,1.2-8.4-0.6-11.6
						c-2.4,0.9-1.6,5-5.6,4.4c-0.1-2.2,1.2-3.4,0.3-5.3c-5.7,2.8-4.7-4.3-7.5-6.3c-1.9,0.3-0.7,3.4-2.5,3.8c-2.9-1.6-4.3-6.3-9.1-5
						c-0.9,1.5,1,2.5,0,4.1c-3.2,0.7-7.9-0.6-10.7,1.9c0,1.3,2.9,1.5,1.9,2.8c0,1.3-2.5,0.1-3.1,0.9c-1.6,0.9-2.5,3.8-2.2,5.6
						c5.7,0.3,2.9,5.9,3.8,9.4c1.3,0.3,2.5-0.9,3.5,0c0.4,3.1-1.8,3.8-3.1,3.8c-3.1-0.3-2.8-4.7-5-5.3c-1.9,2.9,0.9,9,1.9,12.2
						c2.4-2.8,3.8-6.5,8.5-6.9c-0.9,2.8-3.4,4-3.4,7.5c-0.1,4.1,2.1,8.4,5.3,9.7c1.5-2.2,3.7-5.3,7.2-4.4c1,1.9-2.9,2.4-1.6,4.7
						c2.1,0,1.8-1.3,3.5-1.3c3.2,0,4,4.9,7.5,5c-0.4-3.2-0.1-7.4,4.4-7.2c0,1.2,0,2.4,0,3.5c1.6,0.4,0.9-1.5,1.9-1.6
						c4.6,2.2,8.7-0.7,13.5-0.3c0-2.1-1.5-7.5,2.5-7.2c0,3.4,2.9,5.1,6,3.8c-1.3-4.4,2.4-5.7,6.3-6c0.4-1.6-1.5-0.9-1.3-2.2
						c1.8-2.9,5.3-4,7.5-6.6c3.4-4,3.8-9.7,6-15.1c-2.5,2.5-4.9,8.2-10.4,5.6c2.6-3.4,7.8-4.1,9.1-8.8c-2.1-0.6-2.4,1.3-4.1,1.9
						c-4.3,1.3-9.9-0.7-11.9-4.1c-0.6-0.9-2.4-5.6,0.9-6c-0.1,3.8,3.1,5.6,6,5.3c6.9-0.6,6.2-15.3,13.8-8.8c1.5-1.2,0.7-4.6,1.3-6.6
						c-0.4-1.2-4.1,0.6-5-0.9c-0.4-2.1,2.6-2.4,3.8-3.8c2.4-3.1,2.6-7.9,4.4-11.6c6.5-13.1,21.3-29.4,36.8-31.2
						c13.5-1.5,23.8,2.4,30.4,9.1c5.9-3.8,2.6-14.1-0.9-17.9c0.9-0.6,2.8-0.1,3.1-1.3c-0.3-1.8-2.1-1.9-2.5-3.5c0-1.2,1.6-1,1.6-2.2
						c-0.6-2.4-4.1-1.5-5.6-2.8c0-2.1,2.4-1.6,2.8-3.1c-1.9-5.1-10.7-5.7-15.4-2.8c-1.5,0.9-2.4,3.2-4.4,2.8c-0.9-1.2,1-2.6,1-4.4
						c-6.2,1.5,1.6,11.6-2.5,15.7c0.3,1.3,2.1-0.4,2.5,0.9c0.6,2.1-2.2,0.7-2.8,1.6c0.9,1.6,5,2.5,6.6,1.9c3.8-1.3,1.3-6.2,3.8-8.8
						c2.1-0.4,2.5,0.7,4.1,0.9c0.9-3.2-2.8-5.9-6-5c-1.3,0.7,0.3,2.9-2.2,4.1c-3.8,0.9-4.4-2.9-3.1-5c3.8-6,14.7,0,13.8,7.2
						c-0.3,2.2-0.3,3.8-2.8,6.3c-9.7,7.6-25.3-0.9-20.7-14.1c2.5-7.5,12.4-11,21-9.1c7.4,1.6,12.2,8.1,15.4,14.4
						c2.4,9.3,0.4,20.1-4.1,25.4c1.6,3.1,3.4,5.3,5.9,8.4c1.5,0.9,2.4,1.2,4,1.3c0.9-2.2,1-7.1,0.7-9.4c-3.2,0-4.6,0.4-6.5-1.6
						c0.4-0.9,1.6-1,2.5-1.6c7.5-19-2.4-41.3-20.1-42.1c-0.1-4.9,8.8-4.9,10.4-1.6c1.6-0.6,3.8-1.3,6.3-0.6c2.6,1.3,2.8,5.1,4.4,7.5
						c0.7-3.8-0.6-8.8-2.8-11.9c-1-1.3-3.1-1.6-2.5-3.8c3.7-1,7.2,5.7,10.1,8.1c2.1-2.4,2.2-3.4,2.9-4.4c2.2-2.8,3.4-4.3,6.6-4
						c0.1,2.4-2.4,3.2-3.4,4.9c-1.8,2.6-2.2,5.3-1.9,9.3c2.6-2.8,4.1-8.1,10.4-6.3c1.9-1.2,2.8-3.7,7.2-2.8c2.6,0.6,6.9,3.4,6.6,5.3
						c-3.5-0.7-10-0.1-14.1,3.5c-5.7,5.1-12.6,14.3-12.6,24.3c0.1,5.3,1.9,10.6,4.1,14.7c0.6,0.4,1.8,0.3,2.2,0.9
						c-1,2.1-4,2.1-6.8,1.8c-1.2,1.8-0.4,7.5-0.1,9.9c5.3-0.4,7.1-8.2,10.9-10.7c-2.4-4.7-5.3-9.6-5.6-15.4
						c-0.6-11.3,6.9-22.5,17.1-24.3c9.9-1.6,19.7,3.7,20.7,11.6c1.9,14.6-17.6,18.8-22.1,6.6c-0.4-1.9-0.6-3.1,0-5
						c0.7-2.1,2.2-4.4,4.7-5c4.7-1,7.8,5.3,3.8,5.6c-2.2,0.3-1.6-2.4-3.8-2.2c-2.1,0.1-2.5,1.2-2.8,4.7c1.6,0.3,1.2-1.6,2.8-1.3
						c4,1,2.1,7.5,6.3,8.2c1.5,0.3,3.5-0.6,5-1.6c-0.7-1-3.1,1-3.5-0.6c-0.4-1.8,1.3-1.2,1.6-2.2c-2.5-4.9,3.4-10.7-0.7-13.2
						c-1.5,0.1,0,3.7-1.5,3.8c-2.5-0.9-2.1-3.2-4.4-4.7c-4.4-2.6-11.3-0.4-14.9,2.2c1,2.4,7.4,1.9,5.3,4.7c-2.8,0-5.7-1.6-7.2,0.6
						c-0.1,1.3,1.6,0.6,1.9,1.3c-0.3,2.4-3.5,3.1-2.8,5.3c1.5,1,3.4-1.8,5-0.6c-0.7,1.2-1.5,1.5-2.8,3.1c-3.5,3.4-4.1,12.4-0.3,16
						c5.6-2.4,10.7-6.5,17.6-7.2c10.1-1,19,1.5,26.5,4.7c15.7,6.8,26.3,20.1,31.5,36.8c1.3,1.2,3.8,1,5,2.2
						c-0.1,2.8-4.9,1.2-6.9,1.3c0.1,2.6,1.6,7.9,2.2,10.1c1.9-1.6,2.2-3.5,4.3-4c4.1-0.9,5.3,1.9,5.9,6c1.6,3.5,2.6,4.7,5.6,4.7
						c3.7,0,0.6-3.8,4.6-4.9c3.1,0.7,2.5,2.8,1.3,4c-6,6.3-12.2,5.7-17.6,2.4c0.1,3.5,4.9,5.1,9.1,5.6c-1.6,4.6-7.5,0.4-9.7-0.6
						c2.5,7.2,6,16,13.8,18.8c-0.4,1.5-1.8,1.2-0.6,2.8c2.9,0.6,7.9,0,9.4,2.8c0.4,1.6-1.2,1.3-0.9,2.8c2.4,2.4,6.2-0.3,6-3.5
						c1.9,1.9,0.4,4.9-0.3,7.2c0.7,4.6,11.8,10.4,16.6,2.2c0.7-0.3-0.1-2.5,0.6-2.8c4.1,0.6,2.4,6.9,0.3,8.5
						c4,1.2,15.1-1.3,16.3-6.3c0.1-0.9,0-2.2-0.6-3.7c3.5-0.1,5,1.6,6.6,3.5c3.5-1.2,4.7-6.3,3.8-11c-0.3-1.5-2.9-1.8-1.9-3.8
						c4-0.7,5.4,3.5,7.2,6c1.5-2.2,3.1-10.7,1.6-13.1c-1.6,1-2.2,6.3-5,6.2c-1.3-0.1-3.5-1-2.5-3.5c1.5-1.2,2.2,0.6,3.1,0.9
						c1-2.4-4.1-8.5,2.5-8.5c2.4-4.9-1.6-9.9-6.3-10.7c-0.4-0.4,0.1-1-0.3-2.5c-2.5-4.1-7.5,0.1-10.7-0.6c-1.8-0.4-1.2-1.6-2.8-2.5
						c-2.6,0-1.2,4-3.8,4.1c-1.8,0.1-0.9-2.5-1.9-3.1c-4-0.6-1.9,4.9-3.8,6.9c-0.9,0.4-2.2,0.4-3.1,0.6c-2.5,0.1,1,1.5,0.6,3.1
						c-4.7,2.2-4.3-4.9-4.7-8.5c-2.5,0.9-3.8,3.7-4.1,6.3c-0.4,3.5,1.6,6,1.9,9.1c-1.3,1-1.9-1.3-3.8-0.9
						c-2.1,9.4,11.5,20.6,18.2,11c1.8,0,0.9,2.8,2.5,2.8c2.4-0.6,2.6-5.7,2.1-8.2c-6.8,3.8-6.5-4.4-11.2-3.7c-1.3,0.3-0.4,5-2.6,4.4
						c-4-5,4-11.8,9.1-9.4c1.8,0.7,2.2,3.1,4.1,1.6c0.6-1.3,0.3-4.9,3.1-6.9c3.5-2.6,12.6-0.1,9.7,3.8c-1.5,0.9-4.1-3.5-5-1.3
						c0.7,4.9,2.8,10.4-5,10.7c1.6,4,0,8.1-1.9,10.4c0.3,1.3,2.2,0.9,2.8,1.9c2.1,2.4,0.9,6.9-2.5,6.6c-0.3-1.3,0.6-1.8,0.3-3.1
						c-1.9-3.2-5.7-1.2-8.8-1.3c-8.2-0.3-13.4-5.6-17.1-11.3c-1.9,0.4-2.2,2.4-4.6,3.8c-2.4,1.3-7.9,3.2-8.4-0.6
						c6.6,0.6,9.6-4.6,11.3-9.7c-2.2-0.9-4.9,1.5-7.8,0.9c-2.6-0.4-6.6-4.9-3.4-8.2c1.6-0.3,0.6,2.2,1.6,3.7
						c5.9,6.3,10.4-7.4,14.7-12.1c2.4-2.6,4.3-4.6,7.2-5.6c1.6-0.6-0.4-2.5,0.6-3.1c12.1-5.1,22.2-1,29.6,7.2c4,4.4,5.9,9,8.8,13.5
						c1.6,0,1.6-1.8,3.8-1.3c2.4,1,0.4,5,1.3,6.9c0.9,0.9,1.3-0.7,2.8-0.3c1.6,5.3-6.2,2.6-6.3-0.6c-2.5,1.9-1.3,5.9-1.6,8.8
						c-0.6,5.7-3.8,9.7-6,13.5c4.3-0.4,8.8-2.4,15.1-1.9c7.5,0.6,16.8,5.4,14.1,12.2c-2.6,2.9-4.4-7.2-10.4-6.9
						c-1.9,0.4,3.1,5.6,0,6.6c-4.6,0.4-7.2-11.5-17.6-7.5c1,2.1,5.4,4.6,2.8,7.2c-1.6-1.6-2.2-2.9-3.8-3.8c-7.2-4-16.9,5-27.6,4.9
						c-27.9-0.3-42.1-19-50.3-41.8c-1.2,5.4-3.4,11.9-5.4,16.6c0.7,0.9,2.8,0.1,4.1,1c5.4,4.1-4.1,11.8,2.2,11.6
						c1,0,1.3-0.4,1.8-1.2c-2.2-1.2-3.1-5.3,0.4-5.7c1.6-0.1,3.8,1.9,3.8,3.8c0,2.6-3.7,5.9-7.2,5.6c-4.3-0.3-6.6-5.3-8.4-8.5
						c-2.1,0.4-3.5,3.1-5.1,4.7c-7.9,8.5-23.1,14.3-40.6,11.6c-9.9-1.5-16.8-8.2-21.3-15.7c-2.1,1.3-2.4,2.8-4.4,3.1
						c-5.1,1-7.6-4.6-10.4-6.9c-4.1,2.8-9.9,10.9-14.7,4.7c-5.1,7.1-10.9,13.2-21,14.7c-20.9,3.1-34.8-7.5-43.7-18.2
						c-2.1,1.2-0.9,3.5-1.9,5.6c-2.6,5.6-15,7.4-12.9-2.2c1.8-1.9,5.4-1.3,6.3,0.9c-0.3,1.8-2.2,1.9-3.5,2.8
						c0.4,1.3,2.5,0.3,3.5,0.3c1-2.9,0-5,0-8.8c0.9-1.9,3.2-2.5,5-3.5c-2.2-4.3-4.1-9-5-14.4c-4.4,14-9.4,25.9-20.1,32.9
						c-10,6.6-28.8,9-43.4,4.1c-2.6-0.9-5.3-2.8-7.8-3.1c-5.1-0.7-5.7,2.9-9.1,3.1c-0.6-3.2,2.2-3.1,2.2-5.6
						c-3.4-1.6-8.5-0.4-11.3,2.8c-1.5,1.6-1.3,4.1-3.8,3.8C22.7,226.9,27,221.7,27.9,219.8 M122.9,187.8c-0.3,5.3,1.8,10.7,4.4,14.1
						c3.2-4.3,7.4,0.1,8.8,3.1c2.5,0,4.9,0,5-2.2c-0.9-0.7-3.4,0.3-3.4-1.3c0.3-6.3,6.6-2.8,5.6,2.2c-0.9,4.4-7.1,4.9-11.6,4.4
						c2.2,5.6,10.9,7.4,16.9,6.3c1.2,1.9-1.5,2.2-0.9,4.4c3.5,0.9,5.9-1.8,9.1-2.2c1,1.6-0.6,2.9-0.3,4.7c3.8,0.3,4.7-4.1,8.5-2.8
						c0,1.8-1.2,2.8-0.3,4.4c3.5-1.2,3.7-7.4,1.9-10.4c4.1-1.6,4.7,2.8,6.6,4.4c2.4-0.7,4-1.5,5.6-0.6c2.6-1.2,3.4-4.4,7.5-4.1
						c1.2,0,0,2.4,1.3,2.2c2.5-4-1.8-5.9-2.5-8.5c3.1-1.2,4.6,1.6,7.5,1.6c0.6-5.3,0.9-12.8-2.5-15.1c-1.8,1.8-2.8,4.3-6.3,4.4
						c-0.7,1-0.1,3.7-2.2,3.5c-2.1-1.3-0.1-3.7,0-5.6c-6-1.9-8.7,1.6-12.6,3.5c-2.6-1.9,0.9-4.6,1.9-6c-6.8-2.2-11.2-6.9-12.9-14.1
						c-2.6,1.8-4.6,6.9-3.4,10.4c0.7,2.4,3.5,1.8,3.4,4.4c-5,2.9-7.9-4.9-6.3-10.7c-3.4,1.8-3.7,10.4-0.3,12.9
						c1.8,1.3,3.4,0.3,5.3,1.6c-0.9,3.5-5.7,1.6-7.5,0.3c-2.4-1.8-1.9-4.9-3.4-6.6c-2.5,7.5,1.8,15.9,8.8,15.7
						c3.8,0,6.9-4.9,12.2-5.6c4.9-0.7,9.9,0,11.3,4.1c0.7,1.9,1,5.1-2.2,5.3c0.1-1.6,0-2.9-0.3-4.1c-6-4.4-10.4,3.7-17.9,3.8
						c-7.8,0.1-15.4-6.9-15.4-15.1c0-3.2,1.5-7.4,2.8-9.7c2.6-4.7,7.9-8.1,12.6-10.4c0.4-9.3,9.3-10.1,11.9-16.9
						c0-1.3-0.9-3.1,0.6-3.5c2.8,0.6,3.5,3.4,2.5,6c5.4-0.4,10.4,1,12.9,4.7c4.1,5.9-2.1,12.8-8.5,9.4c-2.2-1.2-4.4-6.8,0-6.3
						c1.5,0.3,0.7,2.9,1.6,3.8c1.9,0.7,3.2-0.3,4.4-1.3c1.8-6.8-5.4-8.8-11-8.2c0.9,1.6,5.4,2.1,3.1,4.7c-6.2-3.5-13.8-0.4-14.7,6.6
						c14.6-3.7,26.6,6.2,32.3,16.3c4.7-2.1,9.4-5.6,10.3-10.4c-2.5,1.3-7.8,4.4-11,1.9c4.3-3.2,6.6-8.5,13.8-8.8
						c0.1-0.7,0.4-1.5,0.3-2.5c-2.9,0.3-6.6,3.4-9.7,4.1c-1.2,0.3-4.1,1-4.4-1.3c0.4-1.5,2.9-0.6,4.1-1.3c3.8-2.5,4.4-8.1,10.4-8.5
						c0.3-0.9,0.6-2.9,0-3.8c-2.4,0.9-5.9,3.4-8.5,1.9c-0.1-2.8,2.8-2.2,4.4-3.5c4.4-3.5,7.2-15,0.3-16.9c2.6,10.3-4,18.2-12.2,19.6
						c-8.4,1.2-15.7-3.7-14.1-11.9c1-5.3,6.9-9.6,12.9-7.2c3.8,1.5,7.1,10,1.6,9.4c-3.4-1.3,0.9-4.3-0.3-6c-1.6-0.7-2.1,2.5-3.5,2.5
						c-1.9,0.1-3.4-2.4-5-2.2c-4.6,0.6-4.7,11,1.3,11.9c-0.3-8.5,6.6-0.6,11-0.9c4.4-0.4,6.6-6.8,6.6-10c0-4.9-3.8-13.1-7.5-14.4
						c-1.2,1.5-6.9,3.4-8.5,0.6c-0.1-2.6,4.1-1.3,4.4-3.5c-4.1-2.4-11.5-2.4-15.7-0.3c-2.5,1.2-3.8,4.3-6.3,3.5
						c-0.6-1.3,1.6-2.5,0-2.8c-2.8,1.8-4.6,7.9-0.9,10c1.3,0.3,2.5-1,3.5,0c0,2.5-3.4,2.9-4.7,2.8c-3.7-0.4-6.3-6.3-5.6-11
						c1-2.9,4.4-3.5,5.3-6.6c-4.3,0-5.1,3.5-8.5,4.4c-2.1,2.4-1,7.8-3.5,9.7c-0.9,0-1.6,0-2.5,0c-0.7,1,0,3.5-1.6,3.8
						c-2.5-0.3-1.9-4-5.3-2.5c-0.6-0.9,0.1-2.8-1.3-2.8c-2.9,4.4,1.5,10,2.8,12.6c-0.7,1.2-3.1-0.9-3.1,0.6c0.1,3.7,6.3,1.3,7.5,4.1
						c-0.9,2.6-4.3,1.6-6.6,1.3c1,3.2,8.1,1.6,7.5,5.3c-0.3,2.2-3.5,2.1-6.6,1.6c2.9,4.4,13.1,1.9,13.5-3.1c0.1-1.8-1.3-2.6-0.9-5
						c2.1-3.8,4.9,0.4,5.7,2.5c2.5-5.4-2.9-10.7-8.5-8.2c-0.9,1.6-0.1,3.5-1.9,3.8c-4,0.4-0.9-6.3,2.5-7.2c1.8-0.4,2.8,0.3,5.3,0
						c12.4,6.6,2.1,24.1-11,21.8c1,2.6,2.5,4.9,1.9,9.1c-1.8,2.2-4.1,4.3-7.5,4.1c-2.1-0.1-3.7-2.2-5.6-1.3
						c-0.1,0.9,0.4,2.6-0.3,3.1c-2.4,0.4-1.8-2.2-1.9-4.1c1.8-4.9,7.5-2.5,11.9-2.5c3.8-5-4.7-9.4-6.6-11.3
						c-3.8-3.8-5-10.7-5.3-17.4c-1.5,0.7-1.6,2.6-1.9,4.1c-0.7,6.5,2.8,11.3,2.2,14.4c-4.1-1.5-3.1-9-6.3-11
						c-0.9,3.5-1.2,7.6,0,10.7c0.9,2.4,3.4,3.1,3.1,5.3c-3.7,0.4-3.7-2.8-6.3-3.5c-0.6,2.5-2.1,5.9-1.3,8.8c1.6-0.3,2.1-1.5,4.1-0.9
						c8.2,1.9-7.5,17.8,1.6,19.1c1-1.2,0.3-4.1,3.1-3.5c2.8,2.5-1.3,5.9-4.1,5.6C125.4,195.3,124,189.8,122.9,187.8z M160.5,176.4
						c-0.1,7.1,4.7,11.8,10.7,13.8c-0.1-1-0.4-1.8-0.3-3.1c0.6-1,2.6-2.6,3.8-1.3c0.4,1.5-1.3,0.7-0.9,2.2c1.3,2.2,2.8,5.7,6.6,4.4
						c0.9-0.4-0.9-2.6,0.6-2.8c2.2,1.2,6,2.6,8.8,1.3c-0.1-4.7-5.9-3.8-7.8-6.6c-1.3,0-1.9,0.6-3.1,0.6c-0.6,0.6,0,2.5-0.9,2.8
						c-1.3,0.1-1.8-0.9-1.9-1.6c-0.9-2.9,2.2-4.7,2.8-6.6c-4-2.1-5.9,2.9-9.4,3.5c-1.2-0.3-0.1-2.6-1.6-2.5c-1.9,1.5,0.1,4-0.3,5.3
						c-2.4-0.1-3.1-2.6-3.1-4.1c0-2.8,2.8-4.1,3.4-6C165.4,174.8,162.6,175.9,160.5,176.4z M193.9,191.7c0.6,3.5,2.5,9.7,1.3,15.1
						c2.2-1.8,9-0.9,6.3,2.8c-2.8,0.6-2.4-2.4-4.7-1.3c-1.8,4.6,3.4,5,6,3.1c2.6-1.9,4.1-7.4,4.1-10c-2.5,1.3-9,5.3-9.4-1.3
						c5.4,1.8,9.9-2.4,9.4-7.2c-1.9,2.2-6.2,5-9.4,2.2c-0.6-1.2-0.1-3.7-0.3-5.3C195.8,190.4,194.3,190.6,193.9,191.7z M198,189.7
						c0.6,0.9,1.2,1.8,1.3,3.1c6.5,0.6,7.9-8.2,7.5-14.4c-2.2,1.6-1.9,4.4-3.5,6.3C201.7,186.4,199,187.3,198,189.7z M208,89.8
						c-2.8,2.2-2.5,11.5,0,12.6C209.9,101.9,211.4,92.3,208,89.8z M209.6,159.1c-0.7,0.9-0.1,2.6,0,3.8c4.3,0.9,6,4.4,8.1,7.5
						c1.3,1.3,5.1,0.1,6,1.9c-3.7,3.7-10.1-1.3-14.1-2.2c-0.3,3.4,4.4,2.6,6.9,4.1c2.5,1.3,3.1,4.1,5,5.6c1,0.6,4,0.1,2.8,1.9
						c-4.6,1.8-9.9-1-12.2-3.5c1.3,4.1,5,8.7,9.4,10.7c0.1,0,0.4,0,0.6,0c4.9-11.2,17.1-18.7,32.9-15.7c-0.1-7.2-9-9.1-16.5-7.2
						c1.6-2.8,2.8-3.2,3.2-4c-5.7-2.4-15.1,1.3-11.5,9c1.3,2.4,4,2.2,5.3,0.9c1.5-2.8-0.4-6.8,2.4-5c5.1,6.8-10.3,12.2-11.6,3.8
						c-1.2-7.6,9.4-13.4,17.4-11.3c0.3-2.1,1.8-4.3,3.7-5c-2.1,13.5,10,9.7,10.7,19.6c2.8,0.4,6.5,2.5,8.4,4.3
						c-0.1-0.1-0.1-0.3-0.3-0.4c10.4,10.4,4.9,29.6-9.1,31.3c-8.5,1.2-11.3-8.2-17.1-5.3c-1.8,1.5,0.3,5.7-1.9,5
						c-3.4-5.3,1-9.1,7.2-8.8c4.7,0.3,8.7,4.9,13.2,5c10.7,0.4,14-15,8.2-22.3c0,3.1,0.6,5.7,0.3,9.1c-0.4,1.9-1.6,4.1-4.4,5
						c-2.2,0.7-6.3,0.9-7.2-1.6c1.6-1.3,3.8,0,6-0.9c4.7-0.7,4.3-14.4-1-16.9c2.4,3.7,4.7,15.1-2.2,14.7c-1.8-1.2,2.2-1.6,2.2-4
						c0-3.7-1-6.9-2.6-9c-1.8,6-4.6,11-9.7,13.5c-1,0.6-2.2,0.9-3.1,1.6c1.5,0.7,2.5,1.3,2.8,3.8c-1.9-0.9-2.9-1.5-6.2-2.1
						c-4.6-1.2-5.7-1-10.4-0.9c0.4,1.5,0.4,2.1,0.4,4.6c-1.6-1.9-2.6-2.9-5.9-5c-0.9-0.9-1-0.6-2.4-1.8c-1.9,3.5-0.9,8.7-0.3,12.9
						c2.4-0.4,6.5-3.5,8.2-0.6c-0.1,1.9-3.8,1.2-2.8,3.5c1.9,0.6,3.7,2.8,3.8,6c1.5,0.3,1.5-0.7,2.8-0.6c2.9,1.3,0,8.7,4.7,8.2
						c-0.7-3.8-1.2-10.7,4.1-11c1.8,1.9-1.6,6.6,1.6,7.5c1.6,1,1.3-2.2,3.5-1.6c1.2,2.6,1.5,6,5,6.3c-0.1-1.8-1.9-1.9-1.6-4.1
						c5.1-3.1,12.8,5.7,19.1,1.3c-0.4-2.9-6-2.1-5.3-5.3c0.9-4.1,5.9,0.4,6.6,0.6c4.4,0.7,12.8-4.3,13.5-6.9
						c-7.1,2.6-17.1,1-16.6-5.6c0.3-3.5,6.5-5.6,6.3-1.6c0,2.1-3.5,0.7-3.4,3.1c2.9,6.9,6.5-4.1,11-5c5.1-1,4.3,2.5,7.5,3.5
						c2.4-5.3,5.3-11.8,5.3-18.2c-2.2,4.6-4.7,11-10.7,9.4c-1.6-0.9-1.6-1.9-1.3-4.1c0.6-0.9,1-1.3,1.9-1.2c1.8,0.3,0.7,2.2,2.1,2.2
						c6.5-2.6-1.3-9.7-0.9-14c0.3-2.6,3.2-4.9,7.2-3.1c0.6-3.1-0.6-6.8-0.9-10c-2.2,1-1.9,4.6-5.3,4.4c0-3.4,3.1-7.8,1.3-12.2
						c-2.9,2.2-1.8,8.2-6.3,8.8c2.5-11,3.1-26.6-5.6-31.5c0,3.1,2.5,6.5,3.8,9.4c1.6,4.1,0.6,8.7-0.6,11.6
						c-3.2,8.1-17.1,9.6-12.9,19.6c3.2,2.8,6.5-2.1,11-2.2c3.2-0.1,6.5,4,4.1,6.9c-2.1,0.9-0.4-2.6-2.5-3.5
						c-3.5-1.6-7.2,1.2-11.3,2.8c-1.2,0.4-3.1-1.5-4-2.5c-1.5-3.8-0.3-8.1,1.2-10.4c-9,0.6-17.6-5.1-15.7-15.1
						c0.7-3.4,4-7.2,7.5-7.5c3.7-0.3,8.8,3.8,4.7,5.3c-2.1,0.3-2.1-2.2-3.5-2.6c-2.9-0.7-5.1,1.3-5.3,4.3c5.1-1,3.1,3.1,3.1,6.3
						c0,6.6,8.2,9.3,13.5,5.3c-2.4,0-6.5,0-6.3-3.1c0.9-2.4,5.9,2.2,6.6-3.1c-2.4-0.7-6.5,0.4-6-3.1c5.7,2.2,12.2-0.7,11.6-6
						c-1.8,0-1.9,2.4-3.8,1.3c-0.3-3.1,1.5-8.2,0.3-12.2c-1.3,0.7-1.5,2.5-3.8,2.2c-0.6,4.4-4.6,1.8-5.3-0.6c-1.3,0-1.9,0.6-3.4,0.3
						c-1.6-1.8-0.4-4-0.9-6c-1.3-5.3-8.4-7.9-13.2-8.5c2.1,2.8,6.2,4.1,7.2,7.8c1.9,6.6-7.1,14.1-10.7,8.5c0.9-1.9,2.1-0.3,3.5-0.9
						c3.1-1.6,4.1-8.7-0.3-9.4c-0.6,1.3,0,3.8-1.9,3.8c-2.4-4.9-12.2-8.8-17.9-5.3c1.9,1.2,6,0.3,6.6,2.8c-1.9,4-9.3,1.9-10.7-0.9
						c-2.8,2.2-7.9,7.4-8.5,13.2c-0.6,6.5,2.4,12.2,7.8,12.9c2.6-1.5,9.9-7.2,11-0.6c3.1-0.4,4.4-6.2,2.5-8.2
						c-2.1-1.6-3.7,0.4-6.3-0.3c-1.2-0.6-1.8-1.8-1.6-3.8c-4,0.4-0.9,5.3-3.1,6.3c-5.7,1-2.1-8.7,2.6-9.4c6.3-1,11.5,4.3,12.2,7.9
						c1.5,7.6-7.2,13.1-16,11.6c-7.5-1.3-13.4-8.7-11-17.6c-6.2,2.5-2.4,14.4,1,16.9c1.3,1,4,0.6,4.4,2.5
						C215.2,162.2,211.8,159.7,209.6,159.1z M209.9,193.1c-1,4.6,5.1,9.1,8.5,5.6c0.7-0.3,0.9,0.3,1.3,0.3c0,0.3,0,0.7,0,1.3
						c-1.3,4.9-6.2,2.2-9.1,0.6c-0.7,5.6,3.1,11.9,8.5,10.4c1.2-0.6,0.6-1.8,0-2.8c-1-1-1.2,1-3.1,0.3c-0.3-0.1-0.6-0.6-0.6-0.9
						c-0.7-4.1,4.7-2.5,6.3-0.9c-0.9-1.9-1.5-6.5-1.6-7.8l0,0c0.3-2.6,0.9-5,0.9-7.8c-5.6-2.8-8.4-8.2-11.9-12.9
						c0,6.8,1.8,11.6,6.3,13.8c1.5,0.7,2.2-1.3,3.1-0.3C218.3,196.6,212.3,193.8,209.9,193.1z M232,183.9c-2.6-1.5-7.9,3.1-7.2,7.2
						c2.1,1.9,6.6-0.3,7.5-2.4c0.3,1-0.1,3.2-0.4,4.6c2.8,0,5.7,0.6,7.6-0.7c2.1-1.5,3.7-4.4,4.7-6.3c0.7,1.3,0.4,2.9,0.3,5.3
						c7.2-1.6,11.6-7.6,11.3-15.7c-2.6-1.2-4.6-1.6-7.8-1.3c0,1.8,2.6,2.2,3.5,4.4c0.9,2.5,1,6.9-2.5,6.9c0.3-2.9,0.4-6.2-2.5-6.6
						c0.6,2.5,1.2,4.9-0.9,5c-1.9,0.1-6.2-8.7-9.4-4.4c2.6,1,4.6,4.6,2.2,7.2C236.5,186,234.2,184.5,232,183.9z"/>
				</g>
			</g>
		</g>
	</g>
</g>
</svg>
